G04 Layer_Color=16711935*
%FSLAX25Y25*%
%MOIN*%
G70*
G01*
G75*
%ADD148C,0.00400*%
%ADD149R,0.05518X0.05518*%
%ADD150C,0.05518*%
%ADD151C,0.10243*%
%ADD152R,0.07487X0.07487*%
%ADD153C,0.07487*%
%ADD154C,0.25400*%
%ADD155C,0.06305*%
%ADD156R,0.06305X0.06305*%
%ADD157C,0.26575*%
G04:AMPARAMS|DCode=158|XSize=90.55mil|YSize=177.16mil|CornerRadius=6.3mil|HoleSize=0mil|Usage=FLASHONLY|Rotation=180.000|XOffset=0mil|YOffset=0mil|HoleType=Round|Shape=RoundedRectangle|*
%AMROUNDEDRECTD158*
21,1,0.09055,0.16457,0,0,180.0*
21,1,0.07795,0.17716,0,0,180.0*
1,1,0.01260,-0.03898,0.08228*
1,1,0.01260,0.03898,0.08228*
1,1,0.01260,0.03898,-0.08228*
1,1,0.01260,-0.03898,-0.08228*
%
%ADD158ROUNDEDRECTD158*%
G04:AMPARAMS|DCode=159|XSize=90.55mil|YSize=177.16mil|CornerRadius=6.3mil|HoleSize=0mil|Usage=FLASHONLY|Rotation=270.000|XOffset=0mil|YOffset=0mil|HoleType=Round|Shape=RoundedRectangle|*
%AMROUNDEDRECTD159*
21,1,0.09055,0.16457,0,0,270.0*
21,1,0.07795,0.17716,0,0,270.0*
1,1,0.01260,-0.08228,-0.03898*
1,1,0.01260,-0.08228,0.03898*
1,1,0.01260,0.08228,0.03898*
1,1,0.01260,0.08228,-0.03898*
%
%ADD159ROUNDEDRECTD159*%
%ADD160C,0.03900*%
D148*
X131904Y231400D02*
D03*
X86896D02*
D03*
X146643Y-109961D02*
D03*
Y-145394D02*
D03*
Y-46969D02*
D03*
Y-82402D02*
D03*
Y-172953D02*
D03*
Y-208386D02*
D03*
D149*
X126896Y206400D02*
D03*
D150*
X121896Y196400D02*
D03*
X116896Y206400D02*
D03*
X111896Y196400D02*
D03*
X106896Y206400D02*
D03*
X101896Y196400D02*
D03*
X96896Y206400D02*
D03*
X91896Y196400D02*
D03*
D151*
X95964Y-220472D02*
D03*
X130108Y-127677D02*
D03*
X108454D02*
D03*
X130108Y-64685D02*
D03*
X108454D02*
D03*
X130108Y-190669D02*
D03*
X108454D02*
D03*
D152*
X-55000Y-222441D02*
D03*
D153*
X-45000D02*
D03*
X-35000D02*
D03*
X-25000D02*
D03*
X-15000D02*
D03*
X-5000D02*
D03*
X5000D02*
D03*
X15000D02*
D03*
X25000D02*
D03*
X35000D02*
D03*
X45000D02*
D03*
X55000D02*
D03*
X-55000Y-212441D02*
D03*
X-45000D02*
D03*
X-35000D02*
D03*
X-25000D02*
D03*
X-15000D02*
D03*
X-5000D02*
D03*
X5000D02*
D03*
X15000D02*
D03*
X25000D02*
D03*
X35000D02*
D03*
X45000D02*
D03*
X55000D02*
D03*
D154*
X-161417Y238189D02*
D03*
X161417D02*
D03*
X-161417Y51181D02*
D03*
X161417D02*
D03*
X-161417Y-238189D02*
D03*
X161417D02*
D03*
D155*
X37795Y-178858D02*
D03*
X12205D02*
D03*
Y-161142D02*
D03*
X37795D02*
D03*
Y-128858D02*
D03*
X12205D02*
D03*
Y-111142D02*
D03*
X37795D02*
D03*
X-37795D02*
D03*
X-12205D02*
D03*
Y-128858D02*
D03*
X-37795D02*
D03*
X37795Y-78858D02*
D03*
X12205D02*
D03*
Y-61142D02*
D03*
X37795D02*
D03*
X-166417Y4449D02*
D03*
Y-5551D02*
D03*
Y-15551D02*
D03*
Y-25551D02*
D03*
Y-35551D02*
D03*
Y-45551D02*
D03*
Y-55551D02*
D03*
Y-65551D02*
D03*
Y-75551D02*
D03*
Y-85551D02*
D03*
Y-95551D02*
D03*
Y-105551D02*
D03*
Y-115551D02*
D03*
Y-125551D02*
D03*
Y-135551D02*
D03*
Y-145551D02*
D03*
Y-155551D02*
D03*
Y-165551D02*
D03*
Y-175551D02*
D03*
Y-185551D02*
D03*
X-156417Y4449D02*
D03*
Y-5551D02*
D03*
Y-15551D02*
D03*
Y-25551D02*
D03*
Y-35551D02*
D03*
Y-45551D02*
D03*
Y-55551D02*
D03*
Y-65551D02*
D03*
Y-75551D02*
D03*
Y-85551D02*
D03*
Y-95551D02*
D03*
Y-105551D02*
D03*
Y-115551D02*
D03*
Y-125551D02*
D03*
Y-135551D02*
D03*
Y-145551D02*
D03*
Y-155551D02*
D03*
Y-165551D02*
D03*
Y-175551D02*
D03*
D156*
Y-185551D02*
D03*
D157*
X-70866Y-204724D02*
D03*
X-161417D02*
D03*
X-70866Y23622D02*
D03*
X-161417D02*
D03*
D158*
X-99264Y252513D02*
D03*
X-119736D02*
D03*
D159*
X-175352Y137236D02*
D03*
Y116764D02*
D03*
D160*
X133678Y159172D02*
D03*
Y163109D02*
D03*
Y167046D02*
D03*
X137615Y163109D02*
D03*
Y167046D02*
D03*
X141552Y159172D02*
D03*
Y163109D02*
D03*
Y167046D02*
D03*
X137615Y159172D02*
D03*
M02*
