M48
;Layer_Color=9474304
;FILE_FORMAT=2:5
INCH,LZ
;TYPE=PLATED
T1F00S00C0.01000
T2F00S00C0.01968
T3F00S00C0.02000
T4F00S00C0.02800
T5F00S00C0.03150
T6F00S00C0.03543
T7F00S00C0.03898
T8F00S00C0.04016
T9F00S00C0.05906
T10F00S00C0.07087
T11F00S00C0.12500
;TYPE=NON_PLATED
T12F00S00C0.10827
T13F00S00C0.12598
T14F00S00C0.12598
%
T01
X017975Y-0239
Y-0214
Y-0189
Y-0164
Y-0139
X015475
X01485Y-01265
X0161
Y-01515
X015475Y-0164
X014225
X012975
X0136Y-01765
X0123246Y-0176328
X01235Y-02015
X0111
X00985
X0086
X008424Y-0192511
X00705Y-01965
X0068Y-0198
X0065956Y-0196018
X0063612Y-0197501
X0061268Y-0195922
X0059Y-01975
X005475Y-0189
X004225
X002975
X00235Y-01765
X002975Y-0164
X004225
X005475
X00485Y-01765
X0061
X00735
X0087023Y-0176328
X0101605Y-0188225
X010475Y-0214
X009225
X007975
X00735Y-02015
X0086Y-02265
X0136
X012975Y-0239
X01235Y-02515
X0136
X01485
X01735
Y-02265
X015475Y-0214
X0161Y-02015
Y-01765
X0136Y-01515
X0124277Y-014726
X01215Y-01495
X01235Y-01265
X010475Y-0139
X009225
X007975
X00735Y-01515
X0061
X00485
X0036
X00235
X002975Y-0139
X004225
X005475
X00485Y-01265
X0061
X00735
X0086
X00235
X012975Y-0214
X001725Y-0189
X000475
X-00015Y-02015
X-0005Y-0204
X-0014Y-02015
X-00265
X-0039
X-004525Y-0189
X-003275
X-002025
X-00265Y-01765
X-0039
X-00515
X-005775Y-0164
X-007025
X-00765Y-01765
X-0089
X-01015
X-0114
X-01265
X-013275Y-0164
X-012025
X-010775
Y-0139
X-013275
X-01265Y-01515
Y-01265
X-00765
X-0064
X-007025Y-0139
X-008275
X-00765Y-01515
X-0064
X-00515
X-005775Y-0139
X-004525
X-003275
X-002025
X-000775
X-0014Y-01515
X-00265
X-002025Y-0164
X-000775
X000475
X001725
X0011Y-01515
X-00015
Y-01765
Y-01265
X-00265
X-004525Y-0164
X001725Y-0139
X-01015Y-02015
X-0114
X-01265
X-013275Y-0214
X-012025
X-010775
X-009525
X-01015Y-02265
X-0114
X-01265
X-013275Y-0239
X-01265Y-02515
X-0089Y-02265
X-00765
X-0139
X-01515
X-014525Y-0239
X-01515Y-02515
X-0139
X-01765
Y-02265
X-014525Y-0214
X-0139Y-02015
Y-01765
X-014525Y-0164
X-01515Y-01515
X-0164
X-0149Y-0139504
X-014525Y-0139
X-0139Y-01265
X-0161199Y-0114179
X-01765Y-01765
X-014525Y-0114
X-0150847Y-0095226
X-01765Y-00765
Y-00515
X-0164
X-017025Y-0039
X-01765Y-00265
Y-00015
X-0164
X-01515
X-0139
X-014525Y-0014
X-01515Y-00265
X-0139
X-0143875Y-0041211
X-014525Y0011
X-0139Y00235
X-014525Y0036
X-017025
X-01765Y00235
X-017025Y0011
X-013275
X-012025
X-01265Y-00015
X-0114
X-012025Y-0014
X-013275
X-01265Y-00515
X-0114
Y-00765
X-01265
X-013275Y-0089
X-012025
X-01265Y-01015
X-0114
X-01015
X-0095432Y-0089675
X-008275Y-0089
X-007025
X-005775
X-004525
X-003275
X-002025
X-00265Y-01015
X-0039
X-004525Y-0114
X-005775
X-007025
X-008275
X-009525
X-010775
X-012025
X-013275
Y-0064
X-0089Y-00765
X-0064
X-005775Y-0064
X-004525
X-003275
X-0039Y-00765
X-00265
X-0014
X-00015
X-000775Y-0064
X000475
X001725
Y-0089
X000475
X0011Y-01015
X001725Y-0114
X-000775
X-002025
X-003275
X-0014Y-01015
X-0064
X-00765
X-008275Y-0014
X-00765Y-00015
X-0064
X-00515
X-0050596Y0005295
X-005775Y0011
X-00515Y00235
X-005775Y0036
X-008275
X-009525
X-010775
X-01015Y00235
X-0089
X-008275Y0011
X-005775Y-0014
X-004525
X-00515Y-00265
X-0039
X-00265
X-0014
X-0000235Y-0027599
X-0000492Y-0021614
X000475Y-0014
X-000775
X-002025
X-0039Y-00015
X-00265Y00235
X-0014
X-00015
X0011
X000475Y0011
X001725
X0011Y-00015
X-00015
X0011Y-00265
X000475Y-0039
X-0003629Y-0039471
X000475Y0036
X001725
X-002025
X-013275
X002975
X00235Y00235
X0036
X002975Y0011
X0036Y-00015
X00485
Y-00265
X0061
X00735
X0086
X00985
X009225Y-0039
X007975
X00735Y-00515
X0061
X00485
X0036
X00235
X002975Y-0064
X004225
X005475
X00485Y-00765
X0061
X00735
X0086
X007975Y-0089
X009225
X010475
X011725
X0117366Y-0077799
X01235Y-00765
X0124674Y-0084935
X012868Y-0088274
X0130587Y-0083123
X0136Y-00765
X014225Y-0064
X015475
X0161Y-00765
X015475Y-0089
X01485Y-01015
X0136
X0161
X015475Y-0114
X009225
X007975
X00735Y-01015
X0061
X00485
X0036
X00235
X002975Y-0114
X004225
X005475
Y-0089
X004225
X002975
X00235Y-00765
Y-00265
X002975Y-0014
X004225Y-0039
X005475
X0086Y-00515
X00985
X009225Y-0064
X007975
X0086Y-01015
X0111Y-00765
X0109004Y-0039851
X010475Y-0039
X009225Y-0014
X007975
X00735Y-00015
Y00235
X0086
X00985
X0111
X01235
X0136
X012975Y0011
X011725
X010475
X009225
X00985Y-00015
X0111
X01235
X0136
X012975Y-0014
X011725
X014225
X015475
X01485Y-00265
X0136
X014225Y-0039
X015475
X0161Y-00515
X0136
X0161Y-00265
Y-00015
X015475Y0011
X014225
X012975Y0036
X011725
X010475
X009225
X016725
X01735Y00235
X017975Y0011
Y-0014
Y-0039
Y-0064
Y-0089
Y-0114
Y0036
Y0061
Y0086
X016725
X015475
X01485Y00735
X0136
X01235
X0111
X00985
X0086
X0073Y0072
X0071Y0074
X0057632Y0072425
X0055598Y0074459
X0053563Y0076494
X0051529Y0078528
X004173Y0082243
X0035509
X00235Y00735
Y00485
X0036
X00735
X0086
X00985
X0111
X01235
X011725Y0061
X010475
X009225
Y0086
X0081219Y0086107
X0078316Y0085273
X0075307Y0089445
X0073273Y0091479
X0071383Y0093579
X0069204Y0095548
X00735Y00985
X00985
X0111
X01235
X0136
X01485
X015475Y0111
X016725
X01735Y01235
X015475Y0136
X014225
X012975
X011725
X011699Y0149929
X0119702
X01235Y01485
X0130231Y0149604
X01485Y01485
X0161
X015475Y0161
X0154545Y0165934
X0158536Y0167831
X0161Y01735
X0148196Y017599
X0144503Y017605
X014225Y0186
X012975
X011725
X010475
X009225
X007975
X0081138Y0168864
X0083738
X0086339
X00985Y01735
X0097761Y0157295
X00985Y01485
X0111
X0113359Y0154061
Y0160501
X0114877Y0163028
X01175Y01635
X01235Y01735
X00735
X0061
X005475Y0161
X006725
X0061Y01485
X00735
X0085738Y0151512
X00885Y01425
X0100463Y0136979
X0104595Y0121168
X010475Y0111
X011725
X012975
X0137988Y0121168
X0137999Y0124878
X012975Y0086
X011725
X010475
X012975Y0061
X01735Y00735
X016725Y0186
X005475
X004225
X0040012Y017256
X0028324Y017403
X0026485Y0175869
X0024647Y0177707
X00235Y01485
X002975Y0136
X005475
X006725
X0063359Y0116426
X005475Y0111
X00485Y01235
X-00015
X-0014
X-0014826Y0133828
X-0016664Y0135667
X-0018503Y0137505
X-0020341Y0139344
X-002218Y0141182
X-00265Y01235
X-003275Y0111
X-002025
X-000775
X000475
X-00015Y00985
X-0014
X-00265
X-0039
X-00515
X-005775Y0086
X-004525
X-003275
X-002025
X-000775
X-0014Y00735
X-00265
X-00515
X-0064
X-00765
X-008275Y0061
X-009525
X-01015Y00485
X-0089
X-00765
X-0064
X-00515
X-0039
X-004525Y0061
X-005775
X-007025
X-01015Y00735
X-01145Y00655
X-0113518Y00629
X-0122125Y0062514
X-0122Y00655
X-012025Y0086
X-01265Y00985
X-0114
X-01015
X-010775Y0111
X-012025
X-01265Y01235
X-0114
X-01015
Y01485
X-0114
X-01265
X-010775Y0161
X-009525
X-008275
X-007025
X-00765Y01485
X-0089
Y01735
X-01015
X-0114
X-012025Y0186
X-013275
X-0126977Y0194466
X-010775Y0186
X-008275
X-007774Y0194067
X-00765Y01735
X-0064
Y01485
X-00515
X-004525Y0161
X-003275
X-00265Y01735
X-002025Y0186
X-000775
X000475
X001725
X002097Y0181384
X0022808Y0179546
X0011Y01735
X-00015
X0007583Y0150738
X0009653Y0148826
X0021868Y0156421
X0011Y00985
Y00735
X-00015
X-0014Y00485
X-005775Y0111
X-007025
X-008275
X-00765Y01235
X-0064
X-00515
X-0047238Y018756
X-015775Y0186
X-017025
X-0164Y01735
X-01765
X-017025Y0161
X-01765Y01485
X-0164
X-01515
X-015775Y0136
X-014525
X-0139Y01235
X-014525Y0111
X-0139Y00985
X-01765
Y00735
Y00485
X-014525Y0061
X-01515Y01985
X-0139
X-014525Y0211
X-015775
X-017025
X-01765Y01985
Y02235
X-0164
X-01515
X-0139
X-014525Y0236
X-01515Y02485
X-0139
X-01765
X-01265
X-013275Y0236
Y0211
X-0114Y01985
X-009525Y0211
X-008275
X-0089Y02235
X-00765
X-0064
X-007025Y0236
X-008275
X-009525
X-0089Y02485
X-00765
X-005775Y0236
Y0211
X-0064Y01985
X-00765
X-0042608Y0222593
X-002025Y0211
X-0014Y01985
X-002025Y0236
X-000775
X000475
X001725
Y0211
X00235Y01985
X00485
X005475Y0211
X006725
X007975
X009225
X010475
X011725
X012975
X014225
X015475
X016725
X0161Y01985
X01485
X0136
Y02235
X01235
X0111
X00985
X0086
X007975Y0236
X006725
X005475
X004225
X002975
X0044507Y0216893
X0039346Y0209253
X0058459Y0220146
X00735Y01985
X0086
Y02485
X00735
X00985
X0111
X01235
X0136
X01485
X014225Y0236
X01485Y02235
X0161
X01735
Y01985
Y02485
X011725Y0236
X010475
X017975
T02
X-0175352Y0116764
Y0137236
X-0119736Y0252513
X-0099264
T03
X0133678Y0159172
X0137615
X0141552
Y0163109
Y0167046
X0137615
Y0163109
X0133678
Y0167046
T04
X-0105951Y0005134
X0165275Y00321
X0178979Y0100007
X-01304Y008983
X-0130245Y0073611
X-0056119Y0227401
T05
X0091896Y01964
X0101896
X0111896
X0121896
X0126896Y02064
X0116896
X0106896
X0096896
T06
X-0166417Y-0185551
Y-0175551
Y-0165551
Y-0155551
Y-0145551
Y-0135551
Y-0125551
Y-0115551
X-0156417
Y-0125551
Y-0135551
Y-0145551
Y-0155551
Y-0165551
Y-0175551
Y-0185551
Y-0105551
X-0166417
Y-0095551
Y-0085551
Y-0075551
Y-0065551
Y-0055551
Y-0045551
Y-0035551
Y-0025551
Y-0015551
Y-0005551
Y0004449
X-0156417
Y-0005551
Y-0015551
Y-0025551
Y-0035551
Y-0045551
Y-0055551
Y-0065551
Y-0075551
Y-0085551
Y-0095551
T07
X0037795Y-0178858
Y-0161142
Y-0128858
X0012205
X-0012205
X-0037795
X0012205Y-0161142
Y-0178858
Y-0111142
X-0012205
X-0037795
X0012205Y-0078858
Y-0061142
X0037795
Y-0078858
Y-0111142
T08
X0025Y-0222441
X0035
X0045
X0055
Y-0212441
X0045
X0035
X0025
X0015
Y-0222441
X0005
X-0005
X-0015
X-0025
X-0035
X-0045
X-0055
Y-0212441
X-0045
X-0035
X-0025
X-0015
X-0005
X0005
T09
X0095964Y-0220472
T10
X0108454Y-0190669
X0130108
Y-0127677
X0108454
Y-0064685
X0130108
T11
X0161417Y-0238189
X-0161417
X0161417Y0051181
X-0161417
Y0238189
X0161417
T12
X-0070866Y-0204724
X-0161417
Y0023622
X-0070866
T13
X0086896Y02314
X0131904
T14
X0146643Y-0208386
Y-0172953
Y-0145394
Y-0109961
Y-0082402
Y-0046969
M30
