G75*
%MOIN*%
%OFA0B0*%
%FSLAX25Y25*%
%IPPOS*%
%LPD*%
%AMOC8*
5,1,8,0,0,1.08239X$1,22.5*
%
%ADD10C,0.00630*%
%ADD11C,0.07400*%
%ADD12R,0.07677X0.07677*%
%ADD13C,0.03543*%
%ADD14C,0.01600*%
D10*
X0007654Y0049228D02*
X0013322Y0049228D01*
X0013322Y0042772D01*
X0007654Y0042772D01*
X0007654Y0049228D01*
X0007654Y0043401D02*
X0013322Y0043401D01*
X0013322Y0044030D02*
X0007654Y0044030D01*
X0007654Y0044659D02*
X0013322Y0044659D01*
X0013322Y0045288D02*
X0007654Y0045288D01*
X0007654Y0045917D02*
X0013322Y0045917D01*
X0013322Y0046546D02*
X0007654Y0046546D01*
X0007654Y0047175D02*
X0013322Y0047175D01*
X0013322Y0047804D02*
X0007654Y0047804D01*
X0007654Y0048433D02*
X0013322Y0048433D01*
X0013322Y0049062D02*
X0007654Y0049062D01*
X0018678Y0049228D02*
X0024346Y0049228D01*
X0024346Y0042772D01*
X0018678Y0042772D01*
X0018678Y0049228D01*
X0018678Y0043401D02*
X0024346Y0043401D01*
X0024346Y0044030D02*
X0018678Y0044030D01*
X0018678Y0044659D02*
X0024346Y0044659D01*
X0024346Y0045288D02*
X0018678Y0045288D01*
X0018678Y0045917D02*
X0024346Y0045917D01*
X0024346Y0046546D02*
X0018678Y0046546D01*
X0018678Y0047175D02*
X0024346Y0047175D01*
X0024346Y0047804D02*
X0018678Y0047804D01*
X0018678Y0048433D02*
X0024346Y0048433D01*
X0024346Y0049062D02*
X0018678Y0049062D01*
X0018678Y0064228D02*
X0024346Y0064228D01*
X0024346Y0057772D01*
X0018678Y0057772D01*
X0018678Y0064228D01*
X0018678Y0058401D02*
X0024346Y0058401D01*
X0024346Y0059030D02*
X0018678Y0059030D01*
X0018678Y0059659D02*
X0024346Y0059659D01*
X0024346Y0060288D02*
X0018678Y0060288D01*
X0018678Y0060917D02*
X0024346Y0060917D01*
X0024346Y0061546D02*
X0018678Y0061546D01*
X0018678Y0062175D02*
X0024346Y0062175D01*
X0024346Y0062804D02*
X0018678Y0062804D01*
X0018678Y0063433D02*
X0024346Y0063433D01*
X0024346Y0064062D02*
X0018678Y0064062D01*
X0013322Y0064228D02*
X0007654Y0064228D01*
X0013322Y0064228D02*
X0013322Y0057772D01*
X0007654Y0057772D01*
X0007654Y0064228D01*
X0007654Y0058401D02*
X0013322Y0058401D01*
X0013322Y0059030D02*
X0007654Y0059030D01*
X0007654Y0059659D02*
X0013322Y0059659D01*
X0013322Y0060288D02*
X0007654Y0060288D01*
X0007654Y0060917D02*
X0013322Y0060917D01*
X0013322Y0061546D02*
X0007654Y0061546D01*
X0007654Y0062175D02*
X0013322Y0062175D01*
X0013322Y0062804D02*
X0007654Y0062804D01*
X0007654Y0063433D02*
X0013322Y0063433D01*
X0013322Y0064062D02*
X0007654Y0064062D01*
X0007654Y0079228D02*
X0013322Y0079228D01*
X0013322Y0072772D01*
X0007654Y0072772D01*
X0007654Y0079228D01*
X0007654Y0073401D02*
X0013322Y0073401D01*
X0013322Y0074030D02*
X0007654Y0074030D01*
X0007654Y0074659D02*
X0013322Y0074659D01*
X0013322Y0075288D02*
X0007654Y0075288D01*
X0007654Y0075917D02*
X0013322Y0075917D01*
X0013322Y0076546D02*
X0007654Y0076546D01*
X0007654Y0077175D02*
X0013322Y0077175D01*
X0013322Y0077804D02*
X0007654Y0077804D01*
X0007654Y0078433D02*
X0013322Y0078433D01*
X0013322Y0079062D02*
X0007654Y0079062D01*
X0018678Y0079228D02*
X0024346Y0079228D01*
X0024346Y0072772D01*
X0018678Y0072772D01*
X0018678Y0079228D01*
X0018678Y0073401D02*
X0024346Y0073401D01*
X0024346Y0074030D02*
X0018678Y0074030D01*
X0018678Y0074659D02*
X0024346Y0074659D01*
X0024346Y0075288D02*
X0018678Y0075288D01*
X0018678Y0075917D02*
X0024346Y0075917D01*
X0024346Y0076546D02*
X0018678Y0076546D01*
X0018678Y0077175D02*
X0024346Y0077175D01*
X0024346Y0077804D02*
X0018678Y0077804D01*
X0018678Y0078433D02*
X0024346Y0078433D01*
X0024346Y0079062D02*
X0018678Y0079062D01*
X0018678Y0094228D02*
X0024346Y0094228D01*
X0024346Y0087772D01*
X0018678Y0087772D01*
X0018678Y0094228D01*
X0018678Y0088401D02*
X0024346Y0088401D01*
X0024346Y0089030D02*
X0018678Y0089030D01*
X0018678Y0089659D02*
X0024346Y0089659D01*
X0024346Y0090288D02*
X0018678Y0090288D01*
X0018678Y0090917D02*
X0024346Y0090917D01*
X0024346Y0091546D02*
X0018678Y0091546D01*
X0018678Y0092175D02*
X0024346Y0092175D01*
X0024346Y0092804D02*
X0018678Y0092804D01*
X0018678Y0093433D02*
X0024346Y0093433D01*
X0024346Y0094062D02*
X0018678Y0094062D01*
X0013322Y0094228D02*
X0007654Y0094228D01*
X0013322Y0094228D02*
X0013322Y0087772D01*
X0007654Y0087772D01*
X0007654Y0094228D01*
X0007654Y0088401D02*
X0013322Y0088401D01*
X0013322Y0089030D02*
X0007654Y0089030D01*
X0007654Y0089659D02*
X0013322Y0089659D01*
X0013322Y0090288D02*
X0007654Y0090288D01*
X0007654Y0090917D02*
X0013322Y0090917D01*
X0013322Y0091546D02*
X0007654Y0091546D01*
X0007654Y0092175D02*
X0013322Y0092175D01*
X0013322Y0092804D02*
X0007654Y0092804D01*
X0007654Y0093433D02*
X0013322Y0093433D01*
X0013322Y0094062D02*
X0007654Y0094062D01*
X0007654Y0109228D02*
X0013322Y0109228D01*
X0013322Y0102772D01*
X0007654Y0102772D01*
X0007654Y0109228D01*
X0007654Y0103401D02*
X0013322Y0103401D01*
X0013322Y0104030D02*
X0007654Y0104030D01*
X0007654Y0104659D02*
X0013322Y0104659D01*
X0013322Y0105288D02*
X0007654Y0105288D01*
X0007654Y0105917D02*
X0013322Y0105917D01*
X0013322Y0106546D02*
X0007654Y0106546D01*
X0007654Y0107175D02*
X0013322Y0107175D01*
X0013322Y0107804D02*
X0007654Y0107804D01*
X0007654Y0108433D02*
X0013322Y0108433D01*
X0013322Y0109062D02*
X0007654Y0109062D01*
X0018678Y0109228D02*
X0024346Y0109228D01*
X0024346Y0102772D01*
X0018678Y0102772D01*
X0018678Y0109228D01*
X0018678Y0103401D02*
X0024346Y0103401D01*
X0024346Y0104030D02*
X0018678Y0104030D01*
X0018678Y0104659D02*
X0024346Y0104659D01*
X0024346Y0105288D02*
X0018678Y0105288D01*
X0018678Y0105917D02*
X0024346Y0105917D01*
X0024346Y0106546D02*
X0018678Y0106546D01*
X0018678Y0107175D02*
X0024346Y0107175D01*
X0024346Y0107804D02*
X0018678Y0107804D01*
X0018678Y0108433D02*
X0024346Y0108433D01*
X0024346Y0109062D02*
X0018678Y0109062D01*
X0057654Y0134228D02*
X0063322Y0134228D01*
X0063322Y0127772D01*
X0057654Y0127772D01*
X0057654Y0134228D01*
X0057654Y0128401D02*
X0063322Y0128401D01*
X0063322Y0129030D02*
X0057654Y0129030D01*
X0057654Y0129659D02*
X0063322Y0129659D01*
X0063322Y0130288D02*
X0057654Y0130288D01*
X0057654Y0130917D02*
X0063322Y0130917D01*
X0063322Y0131546D02*
X0057654Y0131546D01*
X0057654Y0132175D02*
X0063322Y0132175D01*
X0063322Y0132804D02*
X0057654Y0132804D01*
X0057654Y0133433D02*
X0063322Y0133433D01*
X0063322Y0134062D02*
X0057654Y0134062D01*
X0068678Y0134228D02*
X0074346Y0134228D01*
X0074346Y0127772D01*
X0068678Y0127772D01*
X0068678Y0134228D01*
X0068678Y0128401D02*
X0074346Y0128401D01*
X0074346Y0129030D02*
X0068678Y0129030D01*
X0068678Y0129659D02*
X0074346Y0129659D01*
X0074346Y0130288D02*
X0068678Y0130288D01*
X0068678Y0130917D02*
X0074346Y0130917D01*
X0074346Y0131546D02*
X0068678Y0131546D01*
X0068678Y0132175D02*
X0074346Y0132175D01*
X0074346Y0132804D02*
X0068678Y0132804D01*
X0068678Y0133433D02*
X0074346Y0133433D01*
X0074346Y0134062D02*
X0068678Y0134062D01*
X0097654Y0134228D02*
X0103322Y0134228D01*
X0103322Y0127772D01*
X0097654Y0127772D01*
X0097654Y0134228D01*
X0097654Y0128401D02*
X0103322Y0128401D01*
X0103322Y0129030D02*
X0097654Y0129030D01*
X0097654Y0129659D02*
X0103322Y0129659D01*
X0103322Y0130288D02*
X0097654Y0130288D01*
X0097654Y0130917D02*
X0103322Y0130917D01*
X0103322Y0131546D02*
X0097654Y0131546D01*
X0097654Y0132175D02*
X0103322Y0132175D01*
X0103322Y0132804D02*
X0097654Y0132804D01*
X0097654Y0133433D02*
X0103322Y0133433D01*
X0103322Y0134062D02*
X0097654Y0134062D01*
X0108678Y0134228D02*
X0114346Y0134228D01*
X0114346Y0127772D01*
X0108678Y0127772D01*
X0108678Y0134228D01*
X0108678Y0128401D02*
X0114346Y0128401D01*
X0114346Y0129030D02*
X0108678Y0129030D01*
X0108678Y0129659D02*
X0114346Y0129659D01*
X0114346Y0130288D02*
X0108678Y0130288D01*
X0108678Y0130917D02*
X0114346Y0130917D01*
X0114346Y0131546D02*
X0108678Y0131546D01*
X0108678Y0132175D02*
X0114346Y0132175D01*
X0114346Y0132804D02*
X0108678Y0132804D01*
X0108678Y0133433D02*
X0114346Y0133433D01*
X0114346Y0134062D02*
X0108678Y0134062D01*
X0137654Y0127772D02*
X0143322Y0127772D01*
X0137654Y0127772D02*
X0137654Y0134228D01*
X0143322Y0134228D01*
X0143322Y0127772D01*
X0143322Y0128401D02*
X0137654Y0128401D01*
X0137654Y0129030D02*
X0143322Y0129030D01*
X0143322Y0129659D02*
X0137654Y0129659D01*
X0137654Y0130288D02*
X0143322Y0130288D01*
X0143322Y0130917D02*
X0137654Y0130917D01*
X0137654Y0131546D02*
X0143322Y0131546D01*
X0143322Y0132175D02*
X0137654Y0132175D01*
X0137654Y0132804D02*
X0143322Y0132804D01*
X0143322Y0133433D02*
X0137654Y0133433D01*
X0137654Y0134062D02*
X0143322Y0134062D01*
X0148678Y0127772D02*
X0154346Y0127772D01*
X0148678Y0127772D02*
X0148678Y0134228D01*
X0154346Y0134228D01*
X0154346Y0127772D01*
X0154346Y0128401D02*
X0148678Y0128401D01*
X0148678Y0129030D02*
X0154346Y0129030D01*
X0154346Y0129659D02*
X0148678Y0129659D01*
X0148678Y0130288D02*
X0154346Y0130288D01*
X0154346Y0130917D02*
X0148678Y0130917D01*
X0148678Y0131546D02*
X0154346Y0131546D01*
X0154346Y0132175D02*
X0148678Y0132175D01*
X0148678Y0132804D02*
X0154346Y0132804D01*
X0154346Y0133433D02*
X0148678Y0133433D01*
X0148678Y0134062D02*
X0154346Y0134062D01*
D11*
X0151000Y0011000D03*
X0141000Y0011000D03*
X0131000Y0011000D03*
X0121000Y0011000D03*
X0111000Y0011000D03*
X0161000Y0011000D03*
X0171000Y0011000D03*
D12*
X0180606Y0036039D03*
X0044386Y0036039D03*
D13*
X0065252Y0028953D03*
X0071157Y0028953D03*
X0077063Y0028953D03*
X0082969Y0028953D03*
X0088874Y0028953D03*
X0094780Y0028953D03*
X0100685Y0028953D03*
X0106591Y0028953D03*
X0112496Y0028953D03*
X0118402Y0028953D03*
X0124307Y0028953D03*
X0130213Y0028953D03*
X0136118Y0028953D03*
X0142024Y0028953D03*
X0147929Y0028953D03*
X0153835Y0028953D03*
X0159740Y0028953D03*
D14*
X0111000Y0011000D02*
X0021000Y0011000D01*
X0010488Y0021512D01*
X0010488Y0046000D01*
X0010488Y0061000D01*
X0010488Y0076000D01*
X0010488Y0091000D01*
X0010488Y0106000D01*
X0021512Y0106000D02*
X0021512Y0101045D01*
X0027031Y0095525D01*
X0027031Y0090795D01*
X0088874Y0028953D01*
X0094780Y0028953D02*
X0060488Y0063244D01*
X0060488Y0131000D01*
X0071512Y0131000D02*
X0071512Y0058126D01*
X0100685Y0028953D01*
X0106591Y0028953D02*
X0100488Y0035055D01*
X0100488Y0131000D01*
X0111512Y0131000D02*
X0111512Y0029937D01*
X0112496Y0028953D01*
X0118402Y0028953D02*
X0140488Y0051039D01*
X0140488Y0131000D01*
X0151512Y0131000D02*
X0151512Y0041551D01*
X0146000Y0036039D01*
X0131394Y0036039D01*
X0124307Y0028953D01*
X0130213Y0028953D02*
X0121000Y0019740D01*
X0121000Y0018500D01*
X0063500Y0018500D01*
X0046000Y0036000D01*
X0044386Y0036039D01*
X0048205Y0046000D02*
X0065252Y0028953D01*
X0071157Y0028953D02*
X0039110Y0061000D01*
X0021512Y0061000D01*
X0021512Y0076000D02*
X0030016Y0076000D01*
X0077063Y0028953D01*
X0082969Y0028953D02*
X0021512Y0090409D01*
X0021512Y0091000D01*
X0021512Y0046000D02*
X0048205Y0046000D01*
X0111000Y0011000D02*
X0112416Y0011000D01*
X0118486Y0004930D01*
X0173514Y0004930D01*
X0177084Y0008500D01*
X0178500Y0008500D01*
X0178500Y0036000D01*
X0180606Y0036039D01*
X0146000Y0036039D01*
X0147929Y0028953D02*
X0151000Y0025882D01*
X0151000Y0011000D01*
X0141000Y0011000D02*
X0141000Y0027929D01*
X0142024Y0028953D01*
X0136118Y0028953D02*
X0131000Y0023835D01*
X0131000Y0011000D01*
X0121000Y0011000D02*
X0121000Y0018500D01*
X0121000Y0011000D02*
X0119584Y0011000D01*
X0153835Y0028953D02*
X0161000Y0021787D01*
X0161000Y0011000D01*
X0171000Y0011000D02*
X0171000Y0017693D01*
X0159740Y0028953D01*
M02*
