G75*
%MOIN*%
%OFA0B0*%
%FSLAX25Y25*%
%IPPOS*%
%LPD*%
%AMOC8*
5,1,8,0,0,1.08239X$1,22.5*
%
%ADD10C,0.00670*%
%ADD11C,0.07800*%
%ADD12R,0.08077X0.08077*%
%ADD13C,0.03898*%
D10*
X0007474Y0049408D02*
X0013502Y0049408D01*
X0013502Y0042592D01*
X0007474Y0042592D01*
X0007474Y0049408D01*
X0007474Y0043261D02*
X0013502Y0043261D01*
X0013502Y0043930D02*
X0007474Y0043930D01*
X0007474Y0044599D02*
X0013502Y0044599D01*
X0013502Y0045268D02*
X0007474Y0045268D01*
X0007474Y0045937D02*
X0013502Y0045937D01*
X0013502Y0046606D02*
X0007474Y0046606D01*
X0007474Y0047275D02*
X0013502Y0047275D01*
X0013502Y0047944D02*
X0007474Y0047944D01*
X0007474Y0048613D02*
X0013502Y0048613D01*
X0013502Y0049282D02*
X0007474Y0049282D01*
X0018498Y0049408D02*
X0024526Y0049408D01*
X0024526Y0042592D01*
X0018498Y0042592D01*
X0018498Y0049408D01*
X0018498Y0043261D02*
X0024526Y0043261D01*
X0024526Y0043930D02*
X0018498Y0043930D01*
X0018498Y0044599D02*
X0024526Y0044599D01*
X0024526Y0045268D02*
X0018498Y0045268D01*
X0018498Y0045937D02*
X0024526Y0045937D01*
X0024526Y0046606D02*
X0018498Y0046606D01*
X0018498Y0047275D02*
X0024526Y0047275D01*
X0024526Y0047944D02*
X0018498Y0047944D01*
X0018498Y0048613D02*
X0024526Y0048613D01*
X0024526Y0049282D02*
X0018498Y0049282D01*
X0018498Y0064408D02*
X0024526Y0064408D01*
X0024526Y0057592D01*
X0018498Y0057592D01*
X0018498Y0064408D01*
X0018498Y0058261D02*
X0024526Y0058261D01*
X0024526Y0058930D02*
X0018498Y0058930D01*
X0018498Y0059599D02*
X0024526Y0059599D01*
X0024526Y0060268D02*
X0018498Y0060268D01*
X0018498Y0060937D02*
X0024526Y0060937D01*
X0024526Y0061606D02*
X0018498Y0061606D01*
X0018498Y0062275D02*
X0024526Y0062275D01*
X0024526Y0062944D02*
X0018498Y0062944D01*
X0018498Y0063613D02*
X0024526Y0063613D01*
X0024526Y0064282D02*
X0018498Y0064282D01*
X0013502Y0064408D02*
X0007474Y0064408D01*
X0013502Y0064408D02*
X0013502Y0057592D01*
X0007474Y0057592D01*
X0007474Y0064408D01*
X0007474Y0058261D02*
X0013502Y0058261D01*
X0013502Y0058930D02*
X0007474Y0058930D01*
X0007474Y0059599D02*
X0013502Y0059599D01*
X0013502Y0060268D02*
X0007474Y0060268D01*
X0007474Y0060937D02*
X0013502Y0060937D01*
X0013502Y0061606D02*
X0007474Y0061606D01*
X0007474Y0062275D02*
X0013502Y0062275D01*
X0013502Y0062944D02*
X0007474Y0062944D01*
X0007474Y0063613D02*
X0013502Y0063613D01*
X0013502Y0064282D02*
X0007474Y0064282D01*
X0007474Y0079408D02*
X0013502Y0079408D01*
X0013502Y0072592D01*
X0007474Y0072592D01*
X0007474Y0079408D01*
X0007474Y0073261D02*
X0013502Y0073261D01*
X0013502Y0073930D02*
X0007474Y0073930D01*
X0007474Y0074599D02*
X0013502Y0074599D01*
X0013502Y0075268D02*
X0007474Y0075268D01*
X0007474Y0075937D02*
X0013502Y0075937D01*
X0013502Y0076606D02*
X0007474Y0076606D01*
X0007474Y0077275D02*
X0013502Y0077275D01*
X0013502Y0077944D02*
X0007474Y0077944D01*
X0007474Y0078613D02*
X0013502Y0078613D01*
X0013502Y0079282D02*
X0007474Y0079282D01*
X0018498Y0079408D02*
X0024526Y0079408D01*
X0024526Y0072592D01*
X0018498Y0072592D01*
X0018498Y0079408D01*
X0018498Y0073261D02*
X0024526Y0073261D01*
X0024526Y0073930D02*
X0018498Y0073930D01*
X0018498Y0074599D02*
X0024526Y0074599D01*
X0024526Y0075268D02*
X0018498Y0075268D01*
X0018498Y0075937D02*
X0024526Y0075937D01*
X0024526Y0076606D02*
X0018498Y0076606D01*
X0018498Y0077275D02*
X0024526Y0077275D01*
X0024526Y0077944D02*
X0018498Y0077944D01*
X0018498Y0078613D02*
X0024526Y0078613D01*
X0024526Y0079282D02*
X0018498Y0079282D01*
X0018498Y0094408D02*
X0024526Y0094408D01*
X0024526Y0087592D01*
X0018498Y0087592D01*
X0018498Y0094408D01*
X0018498Y0088261D02*
X0024526Y0088261D01*
X0024526Y0088930D02*
X0018498Y0088930D01*
X0018498Y0089599D02*
X0024526Y0089599D01*
X0024526Y0090268D02*
X0018498Y0090268D01*
X0018498Y0090937D02*
X0024526Y0090937D01*
X0024526Y0091606D02*
X0018498Y0091606D01*
X0018498Y0092275D02*
X0024526Y0092275D01*
X0024526Y0092944D02*
X0018498Y0092944D01*
X0018498Y0093613D02*
X0024526Y0093613D01*
X0024526Y0094282D02*
X0018498Y0094282D01*
X0013502Y0094408D02*
X0007474Y0094408D01*
X0013502Y0094408D02*
X0013502Y0087592D01*
X0007474Y0087592D01*
X0007474Y0094408D01*
X0007474Y0088261D02*
X0013502Y0088261D01*
X0013502Y0088930D02*
X0007474Y0088930D01*
X0007474Y0089599D02*
X0013502Y0089599D01*
X0013502Y0090268D02*
X0007474Y0090268D01*
X0007474Y0090937D02*
X0013502Y0090937D01*
X0013502Y0091606D02*
X0007474Y0091606D01*
X0007474Y0092275D02*
X0013502Y0092275D01*
X0013502Y0092944D02*
X0007474Y0092944D01*
X0007474Y0093613D02*
X0013502Y0093613D01*
X0013502Y0094282D02*
X0007474Y0094282D01*
X0007474Y0109408D02*
X0013502Y0109408D01*
X0013502Y0102592D01*
X0007474Y0102592D01*
X0007474Y0109408D01*
X0007474Y0103261D02*
X0013502Y0103261D01*
X0013502Y0103930D02*
X0007474Y0103930D01*
X0007474Y0104599D02*
X0013502Y0104599D01*
X0013502Y0105268D02*
X0007474Y0105268D01*
X0007474Y0105937D02*
X0013502Y0105937D01*
X0013502Y0106606D02*
X0007474Y0106606D01*
X0007474Y0107275D02*
X0013502Y0107275D01*
X0013502Y0107944D02*
X0007474Y0107944D01*
X0007474Y0108613D02*
X0013502Y0108613D01*
X0013502Y0109282D02*
X0007474Y0109282D01*
X0018498Y0109408D02*
X0024526Y0109408D01*
X0024526Y0102592D01*
X0018498Y0102592D01*
X0018498Y0109408D01*
X0018498Y0103261D02*
X0024526Y0103261D01*
X0024526Y0103930D02*
X0018498Y0103930D01*
X0018498Y0104599D02*
X0024526Y0104599D01*
X0024526Y0105268D02*
X0018498Y0105268D01*
X0018498Y0105937D02*
X0024526Y0105937D01*
X0024526Y0106606D02*
X0018498Y0106606D01*
X0018498Y0107275D02*
X0024526Y0107275D01*
X0024526Y0107944D02*
X0018498Y0107944D01*
X0018498Y0108613D02*
X0024526Y0108613D01*
X0024526Y0109282D02*
X0018498Y0109282D01*
X0057474Y0134408D02*
X0063502Y0134408D01*
X0063502Y0127592D01*
X0057474Y0127592D01*
X0057474Y0134408D01*
X0057474Y0128261D02*
X0063502Y0128261D01*
X0063502Y0128930D02*
X0057474Y0128930D01*
X0057474Y0129599D02*
X0063502Y0129599D01*
X0063502Y0130268D02*
X0057474Y0130268D01*
X0057474Y0130937D02*
X0063502Y0130937D01*
X0063502Y0131606D02*
X0057474Y0131606D01*
X0057474Y0132275D02*
X0063502Y0132275D01*
X0063502Y0132944D02*
X0057474Y0132944D01*
X0057474Y0133613D02*
X0063502Y0133613D01*
X0063502Y0134282D02*
X0057474Y0134282D01*
X0068498Y0134408D02*
X0074526Y0134408D01*
X0074526Y0127592D01*
X0068498Y0127592D01*
X0068498Y0134408D01*
X0068498Y0128261D02*
X0074526Y0128261D01*
X0074526Y0128930D02*
X0068498Y0128930D01*
X0068498Y0129599D02*
X0074526Y0129599D01*
X0074526Y0130268D02*
X0068498Y0130268D01*
X0068498Y0130937D02*
X0074526Y0130937D01*
X0074526Y0131606D02*
X0068498Y0131606D01*
X0068498Y0132275D02*
X0074526Y0132275D01*
X0074526Y0132944D02*
X0068498Y0132944D01*
X0068498Y0133613D02*
X0074526Y0133613D01*
X0074526Y0134282D02*
X0068498Y0134282D01*
X0097474Y0134408D02*
X0103502Y0134408D01*
X0103502Y0127592D01*
X0097474Y0127592D01*
X0097474Y0134408D01*
X0097474Y0128261D02*
X0103502Y0128261D01*
X0103502Y0128930D02*
X0097474Y0128930D01*
X0097474Y0129599D02*
X0103502Y0129599D01*
X0103502Y0130268D02*
X0097474Y0130268D01*
X0097474Y0130937D02*
X0103502Y0130937D01*
X0103502Y0131606D02*
X0097474Y0131606D01*
X0097474Y0132275D02*
X0103502Y0132275D01*
X0103502Y0132944D02*
X0097474Y0132944D01*
X0097474Y0133613D02*
X0103502Y0133613D01*
X0103502Y0134282D02*
X0097474Y0134282D01*
X0108498Y0134408D02*
X0114526Y0134408D01*
X0114526Y0127592D01*
X0108498Y0127592D01*
X0108498Y0134408D01*
X0108498Y0128261D02*
X0114526Y0128261D01*
X0114526Y0128930D02*
X0108498Y0128930D01*
X0108498Y0129599D02*
X0114526Y0129599D01*
X0114526Y0130268D02*
X0108498Y0130268D01*
X0108498Y0130937D02*
X0114526Y0130937D01*
X0114526Y0131606D02*
X0108498Y0131606D01*
X0108498Y0132275D02*
X0114526Y0132275D01*
X0114526Y0132944D02*
X0108498Y0132944D01*
X0108498Y0133613D02*
X0114526Y0133613D01*
X0114526Y0134282D02*
X0108498Y0134282D01*
X0137474Y0127592D02*
X0143502Y0127592D01*
X0137474Y0127592D02*
X0137474Y0134408D01*
X0143502Y0134408D01*
X0143502Y0127592D01*
X0143502Y0128261D02*
X0137474Y0128261D01*
X0137474Y0128930D02*
X0143502Y0128930D01*
X0143502Y0129599D02*
X0137474Y0129599D01*
X0137474Y0130268D02*
X0143502Y0130268D01*
X0143502Y0130937D02*
X0137474Y0130937D01*
X0137474Y0131606D02*
X0143502Y0131606D01*
X0143502Y0132275D02*
X0137474Y0132275D01*
X0137474Y0132944D02*
X0143502Y0132944D01*
X0143502Y0133613D02*
X0137474Y0133613D01*
X0137474Y0134282D02*
X0143502Y0134282D01*
X0148498Y0127592D02*
X0154526Y0127592D01*
X0148498Y0127592D02*
X0148498Y0134408D01*
X0154526Y0134408D01*
X0154526Y0127592D01*
X0154526Y0128261D02*
X0148498Y0128261D01*
X0148498Y0128930D02*
X0154526Y0128930D01*
X0154526Y0129599D02*
X0148498Y0129599D01*
X0148498Y0130268D02*
X0154526Y0130268D01*
X0154526Y0130937D02*
X0148498Y0130937D01*
X0148498Y0131606D02*
X0154526Y0131606D01*
X0154526Y0132275D02*
X0148498Y0132275D01*
X0148498Y0132944D02*
X0154526Y0132944D01*
X0154526Y0133613D02*
X0148498Y0133613D01*
X0148498Y0134282D02*
X0154526Y0134282D01*
D11*
X0151000Y0011000D03*
X0141000Y0011000D03*
X0131000Y0011000D03*
X0121000Y0011000D03*
X0111000Y0011000D03*
X0161000Y0011000D03*
X0171000Y0011000D03*
D12*
X0044386Y0036039D03*
X0180606Y0036039D03*
D13*
X0159740Y0028953D03*
X0153835Y0028953D03*
X0147929Y0028953D03*
X0142024Y0028953D03*
X0136118Y0028953D03*
X0130213Y0028953D03*
X0124307Y0028953D03*
X0118402Y0028953D03*
X0112496Y0028953D03*
X0106591Y0028953D03*
X0100685Y0028953D03*
X0094780Y0028953D03*
X0088874Y0028953D03*
X0082969Y0028953D03*
X0077063Y0028953D03*
X0071157Y0028953D03*
X0065252Y0028953D03*
M02*
