%
M48
M72
T01C0.02362
T02C0.04000
T03C0.05118
%
T01
X65252Y28953
X71157Y28953
X77063Y28953
X82969Y28953
X88874Y28953
X94780Y28953
X100685Y28953
X106591Y28953
X112496Y28953
X118402Y28953
X124307Y28953
X130213Y28953
X136118Y28953
X142024Y28953
X147929Y28953
X153835Y28953
X159740Y28953
T02
X161000Y11000
X151000Y11000
X141000Y11000
X131000Y11000
X121000Y11000
X111000Y11000
X171000Y11000
T03
X44386Y36039
X180606Y36039
M30
