G04*
G04 #@! TF.GenerationSoftware,Altium Limited,Altium Designer,18.0.11 (651)*
G04*
G04 Layer_Physical_Order=2*
G04 Layer_Color=16711680*
%FSLAX25Y25*%
%MOIN*%
G70*
G01*
G75*
%ADD14C,0.01000*%
%ADD56C,0.02000*%
%ADD57C,0.10000*%
%ADD60C,0.02500*%
%ADD61R,0.09843X0.09843*%
%ADD62C,0.09843*%
%ADD63C,0.08600*%
%ADD64C,0.15600*%
%ADD65C,0.16200*%
%ADD66R,0.19685X0.19685*%
%ADD67C,0.15748*%
%ADD68R,0.07874X0.07874*%
%ADD69C,0.19685*%
%ADD70C,0.25000*%
%ADD71R,0.07087X0.07087*%
%ADD72C,0.07087*%
G04:AMPARAMS|DCode=73|XSize=62mil|YSize=62mil|CornerRadius=18.6mil|HoleSize=0mil|Usage=FLASHONLY|Rotation=0.000|XOffset=0mil|YOffset=0mil|HoleType=Round|Shape=RoundedRectangle|*
%AMROUNDEDRECTD73*
21,1,0.06200,0.02480,0,0,0.0*
21,1,0.02480,0.06200,0,0,0.0*
1,1,0.03720,0.01240,-0.01240*
1,1,0.03720,-0.01240,-0.01240*
1,1,0.03720,-0.01240,0.01240*
1,1,0.03720,0.01240,0.01240*
%
%ADD73ROUNDEDRECTD73*%
%ADD74C,0.03800*%
%ADD75C,0.02000*%
G36*
X86609Y252350D02*
X87624Y252028D01*
X88557Y251515D01*
X89371Y250829D01*
X90036Y249998D01*
X90526Y249053D01*
X90823Y248031D01*
X90868Y247500D01*
Y207088D01*
X90868Y207087D01*
X90868Y206512D01*
X90643Y205382D01*
X90203Y204318D01*
X89563Y203360D01*
X88748Y202546D01*
X87791Y201906D01*
X86726Y201465D01*
X85597Y201240D01*
X85021Y201240D01*
X-60105D01*
X-61055Y201430D01*
X-61951Y201800D01*
X-62757Y202339D01*
X-63442Y203025D01*
X-63981Y203831D01*
X-64352Y204726D01*
X-64541Y205677D01*
X-64541Y206162D01*
Y247500D01*
X-64541Y247500D01*
X-64541Y247985D01*
X-64352Y248936D01*
X-63981Y249832D01*
X-63442Y250638D01*
X-62757Y251323D01*
X-61951Y251862D01*
X-61055Y252233D01*
X-60104Y252422D01*
X-59619Y252421D01*
X85021Y252421D01*
X85551Y252467D01*
X86609Y252350D01*
D02*
G37*
G36*
Y193299D02*
X87624Y192978D01*
X88557Y192464D01*
X89371Y191779D01*
X90036Y190948D01*
X90526Y190003D01*
X90823Y188980D01*
X90868Y188450D01*
Y148037D01*
X90868Y148037D01*
X90868Y147461D01*
X90643Y146332D01*
X90203Y145267D01*
X89563Y144310D01*
X88748Y143495D01*
X87791Y142856D01*
X86726Y142415D01*
X85597Y142190D01*
X85021Y142190D01*
X-60105D01*
X-61055Y142379D01*
X-61951Y142750D01*
X-62757Y143289D01*
X-63442Y143974D01*
X-63981Y144780D01*
X-64352Y145676D01*
X-64541Y146627D01*
X-64541Y147111D01*
Y188450D01*
X-64541Y188450D01*
X-64541Y188935D01*
X-64352Y189885D01*
X-63981Y190781D01*
X-63442Y191587D01*
X-62757Y192273D01*
X-61951Y192811D01*
X-61055Y193182D01*
X-60104Y193371D01*
X-59619Y193371D01*
X85021Y193371D01*
X85551Y193417D01*
X86609Y193299D01*
D02*
G37*
G36*
X86500Y134249D02*
X87515Y133927D01*
X88447Y133414D01*
X89262Y132729D01*
X89927Y131897D01*
X90417Y130952D01*
X90713Y129930D01*
X90759Y129400D01*
Y88987D01*
X90759Y88987D01*
X90759Y88411D01*
X90534Y87281D01*
X90093Y86217D01*
X89454Y85260D01*
X88639Y84445D01*
X87682Y83805D01*
X86617Y83364D01*
X85488Y83140D01*
X84912Y83140D01*
X-60214D01*
X-61165Y83329D01*
X-62060Y83700D01*
X-62866Y84238D01*
X-63551Y84924D01*
X-64090Y85730D01*
X-64461Y86626D01*
X-64650Y87576D01*
X-64650Y88061D01*
Y129400D01*
X-64650Y129400D01*
X-64650Y129884D01*
X-64461Y130835D01*
X-64090Y131731D01*
X-63551Y132537D01*
X-62866Y133223D01*
X-62060Y133761D01*
X-61164Y134132D01*
X-60213Y134321D01*
X-59728Y134321D01*
X84912Y134321D01*
X85442Y134367D01*
X86500Y134249D01*
D02*
G37*
G36*
X87046Y74980D02*
X88061Y74659D01*
X88993Y74145D01*
X89808Y73460D01*
X90473Y72629D01*
X90963Y71684D01*
X91259Y70661D01*
X91305Y70131D01*
Y29718D01*
X91305Y29718D01*
X91305Y29142D01*
X91080Y28013D01*
X90639Y26949D01*
X89999Y25991D01*
X89185Y25177D01*
X88227Y24537D01*
X87163Y24096D01*
X86033Y23871D01*
X85458Y23871D01*
X-59668D01*
X-60619Y24060D01*
X-61514Y24431D01*
X-62320Y24970D01*
X-63006Y25655D01*
X-63544Y26461D01*
X-63915Y27357D01*
X-64104Y28308D01*
X-64104Y28792D01*
Y70131D01*
X-64104Y70131D01*
X-64104Y70616D01*
X-63915Y71567D01*
X-63544Y72462D01*
X-63006Y73268D01*
X-62320Y73954D01*
X-61514Y74493D01*
X-60618Y74863D01*
X-59667Y75052D01*
X-59183Y75052D01*
X85458Y75052D01*
X85988Y75098D01*
X87046Y74980D01*
D02*
G37*
G36*
X-11000Y17121D02*
X107499Y17121D01*
X107499Y17121D01*
Y17121D01*
X108178Y17121D01*
X109509Y16857D01*
X110763Y16337D01*
X111891Y15583D01*
X112851Y14624D01*
X113605Y13495D01*
X114124Y12241D01*
X114389Y10910D01*
Y10232D01*
X114389Y-27131D01*
X114389Y-27131D01*
X114389Y-27814D01*
X114122Y-29152D01*
X113600Y-30413D01*
X112842Y-31548D01*
X111877Y-32513D01*
X110742Y-33271D01*
X109481Y-33793D01*
X108143Y-34060D01*
X107460Y-34060D01*
X-11001Y-34060D01*
X-11485D01*
X-12436Y-33871D01*
X-13331Y-33500D01*
X-14137Y-32961D01*
X-14823Y-32275D01*
X-15361Y-31469D01*
X-15732Y-30574D01*
X-15921Y-29623D01*
X-15921Y-29138D01*
Y12200D01*
X-15921Y12685D01*
X-15732Y13636D01*
X-15361Y14532D01*
X-14823Y15338D01*
X-14137Y16023D01*
X-13331Y16562D01*
X-12435Y16933D01*
X-11484Y17122D01*
X-11000Y17121D01*
D02*
G37*
G36*
X109565Y-42185D02*
X110763Y-42681D01*
X111841Y-43402D01*
X112758Y-44318D01*
X113478Y-45396D01*
X113974Y-46594D01*
X114227Y-47866D01*
X114227Y-48514D01*
X114227Y-111095D01*
X114227Y-111095D01*
X114227Y-111846D01*
X113934Y-113320D01*
X113359Y-114707D01*
X112525Y-115956D01*
X111463Y-117018D01*
X110214Y-117853D01*
X108826Y-118428D01*
X107353Y-118721D01*
X106602Y-118721D01*
X37848D01*
X37396Y-118688D01*
X36521Y-118448D01*
X35710Y-118042D01*
X34994Y-117485D01*
X34401Y-116800D01*
X33952Y-116012D01*
X33666Y-115151D01*
X33553Y-114252D01*
X33586Y-113799D01*
X33586Y-47096D01*
X33586Y-46611D01*
X33774Y-45661D01*
X34145Y-44765D01*
X34684Y-43959D01*
X35369Y-43273D01*
X36176Y-42735D01*
X37071Y-42364D01*
X38022Y-42175D01*
X38507Y-42175D01*
X107645Y-41932D01*
X107645Y-41932D01*
Y-41932D01*
X108294Y-41932D01*
X109565Y-42185D01*
D02*
G37*
G36*
X22585Y-39980D02*
X23069D01*
X24020Y-40170D01*
X24916Y-40541D01*
X25722Y-41079D01*
X26407Y-41765D01*
X26946Y-42571D01*
X27317Y-43466D01*
X27506Y-44417D01*
X27506Y-44902D01*
X27506Y-113799D01*
X27506D01*
X27506Y-114284D01*
X27317Y-115235D01*
X26946Y-116130D01*
X26407Y-116937D01*
X25722Y-117622D01*
X24916Y-118160D01*
X24020Y-118532D01*
X23069Y-118721D01*
X22585Y-118721D01*
X-10880Y-118721D01*
X-11365Y-118721D01*
X-12315Y-118532D01*
X-13211Y-118160D01*
X-14017Y-117622D01*
X-14703Y-116936D01*
X-15241Y-116130D01*
X-15612Y-115235D01*
X-15801Y-114284D01*
X-15801Y-113799D01*
X-15801Y-44902D01*
Y-44417D01*
X-15612Y-43466D01*
X-15241Y-42571D01*
X-14703Y-41765D01*
X-14017Y-41079D01*
X-13211Y-40541D01*
X-12315Y-40170D01*
X-11365Y-39980D01*
X-10880D01*
X22585Y-39980D01*
D02*
G37*
G36*
X-41448Y-222816D02*
X-41415Y-223145D01*
X-41357Y-223464D01*
X-41275Y-223772D01*
X-41168Y-224070D01*
X-41037Y-224358D01*
X-40882Y-224635D01*
X-40702Y-224902D01*
X-40497Y-225158D01*
X-40268Y-225405D01*
X-42036Y-227172D01*
X-42283Y-226944D01*
X-42539Y-226739D01*
X-42806Y-226559D01*
X-43083Y-226404D01*
X-43371Y-226273D01*
X-43669Y-226166D01*
X-43977Y-226084D01*
X-44296Y-226026D01*
X-44625Y-225993D01*
X-44965Y-225984D01*
X-41457Y-222476D01*
X-41448Y-222816D01*
D02*
G37*
G36*
X-86241Y261310D02*
X-86282Y18844D01*
X-84997Y17553D01*
X-82473Y14998D01*
X-82496Y-5062D01*
X-80052Y-7513D01*
X-47495Y-7572D01*
X-45004Y-10069D01*
X-45010Y-164610D01*
X-27231Y-182390D01*
X77795Y-182423D01*
Y-217835D01*
X64716Y-230913D01*
X-33572D01*
X-39955Y-224530D01*
X-40044Y-224419D01*
X-40187Y-224207D01*
X-40309Y-223988D01*
X-40412Y-223763D01*
X-40496Y-223529D01*
X-40560Y-223286D01*
X-40606Y-223031D01*
X-40633Y-222764D01*
X-40638Y-222585D01*
X-40619Y-222441D01*
X-40769Y-221307D01*
X-41206Y-220251D01*
X-41902Y-219343D01*
X-42810Y-218647D01*
X-43866Y-218209D01*
X-45000Y-218060D01*
X-46134Y-218209D01*
X-47190Y-218647D01*
X-48098Y-219343D01*
X-48794Y-220251D01*
X-49231Y-221307D01*
X-49381Y-222441D01*
X-49231Y-223575D01*
X-48794Y-224631D01*
X-48098Y-225539D01*
X-47190Y-226235D01*
X-46134Y-226672D01*
X-45000Y-226822D01*
X-44856Y-226803D01*
X-44677Y-226807D01*
X-44410Y-226834D01*
X-44155Y-226881D01*
X-43912Y-226945D01*
X-43678Y-227029D01*
X-43453Y-227132D01*
X-43234Y-227254D01*
X-43022Y-227397D01*
X-42911Y-227485D01*
X-35915Y-234482D01*
X-35915Y-234482D01*
X-35237Y-234935D01*
X-34437Y-235094D01*
X-34437Y-235094D01*
X65582D01*
X65582Y-235094D01*
X66382Y-234935D01*
X67060Y-234482D01*
X81363Y-220178D01*
X81816Y-219500D01*
X81975Y-218700D01*
Y-182778D01*
X82329Y-182425D01*
X184498Y-182457D01*
Y-254331D01*
X184498Y-254331D01*
X184498D01*
X184476Y-254822D01*
X184383Y-255767D01*
X183965Y-257147D01*
X183284Y-258419D01*
X182369Y-259535D01*
X181254Y-260450D01*
X179982Y-261130D01*
X178601Y-261549D01*
X177217Y-261685D01*
X177165Y-261664D01*
X-177165D01*
X-177217Y-261685D01*
X-178601Y-261549D01*
X-179982Y-261130D01*
X-181254Y-260450D01*
X-182369Y-259535D01*
X-183284Y-258419D01*
X-183965Y-257147D01*
X-184383Y-255767D01*
X-184520Y-254383D01*
X-184498Y-254331D01*
Y254331D01*
X-184520Y254383D01*
X-184383Y255767D01*
X-183965Y257147D01*
X-183284Y258419D01*
X-182369Y259535D01*
X-181254Y260450D01*
X-179982Y261130D01*
X-178601Y261549D01*
X-177656Y261642D01*
X-177165Y261664D01*
Y261664D01*
X-177165Y261664D01*
X-86595D01*
X-86241Y261310D01*
D02*
G37*
%LPC*%
G36*
X107317Y-1579D02*
X96974D01*
Y-11921D01*
X107317D01*
Y-1579D01*
D02*
G37*
G36*
X95974D02*
X85632D01*
Y-11921D01*
X95974D01*
Y-1579D01*
D02*
G37*
G36*
X107317Y-12921D02*
X96974D01*
Y-23264D01*
X107317D01*
Y-12921D01*
D02*
G37*
G36*
X95974D02*
X85632D01*
Y-23264D01*
X95974D01*
Y-12921D01*
D02*
G37*
G36*
X-161417Y251530D02*
X-163504Y251366D01*
X-165540Y250877D01*
X-167474Y250076D01*
X-169259Y248982D01*
X-170851Y247623D01*
X-172211Y246031D01*
X-173304Y244246D01*
X-174106Y242312D01*
X-174594Y240276D01*
X-174758Y238189D01*
X-174594Y236102D01*
X-174106Y234066D01*
X-173304Y232132D01*
X-172211Y230347D01*
X-170851Y228755D01*
X-169259Y227396D01*
X-167474Y226302D01*
X-165540Y225501D01*
X-163504Y225012D01*
X-161417Y224848D01*
X-159330Y225012D01*
X-157295Y225501D01*
X-155361Y226302D01*
X-153576Y227396D01*
X-151984Y228755D01*
X-150624Y230347D01*
X-149530Y232132D01*
X-148729Y234066D01*
X-148240Y236102D01*
X-148076Y238189D01*
X-148240Y240276D01*
X-148729Y242312D01*
X-149530Y244246D01*
X-150624Y246031D01*
X-151984Y247623D01*
X-153576Y248982D01*
X-155361Y250076D01*
X-157295Y250877D01*
X-159330Y251366D01*
X-161417Y251530D01*
D02*
G37*
G36*
X-93045Y182999D02*
X-94376Y182823D01*
X-95617Y182309D01*
X-96682Y181492D01*
X-97499Y180427D01*
X-98013Y179186D01*
X-98189Y177855D01*
X-98013Y176523D01*
X-97499Y175283D01*
X-96682Y174217D01*
X-95617Y173400D01*
X-94376Y172886D01*
X-93045Y172711D01*
X-91713Y172886D01*
X-90473Y173400D01*
X-89407Y174217D01*
X-88590Y175283D01*
X-88076Y176523D01*
X-87901Y177855D01*
X-88076Y179186D01*
X-88590Y180427D01*
X-89407Y181492D01*
X-90473Y182309D01*
X-91713Y182823D01*
X-93045Y182999D01*
D02*
G37*
G36*
X-92887Y64770D02*
X-94218Y64595D01*
X-95459Y64081D01*
X-96525Y63264D01*
X-97342Y62198D01*
X-97856Y60958D01*
X-98031Y59626D01*
X-97856Y58295D01*
X-97342Y57054D01*
X-96525Y55989D01*
X-95459Y55171D01*
X-94218Y54658D01*
X-92887Y54482D01*
X-91556Y54658D01*
X-90315Y55171D01*
X-89250Y55989D01*
X-88432Y57054D01*
X-87918Y58295D01*
X-87743Y59626D01*
X-87918Y60958D01*
X-88432Y62198D01*
X-89250Y63264D01*
X-90315Y64081D01*
X-91556Y64595D01*
X-92887Y64770D01*
D02*
G37*
G36*
X-93045Y223683D02*
X-94182Y223571D01*
X-95275Y223239D01*
X-96283Y222701D01*
X-97166Y221976D01*
X-114065Y205077D01*
X-114789Y204193D01*
X-115328Y203186D01*
X-115660Y202093D01*
X-115772Y200956D01*
Y83471D01*
Y-8677D01*
X-131965Y-24870D01*
X-134174Y-26988D01*
X-136448Y-28938D01*
X-137437Y-29688D01*
X-138334Y-30296D01*
X-139128Y-30757D01*
X-139811Y-31073D01*
X-140368Y-31247D01*
X-140868Y-31306D01*
X-141601D01*
X-141675Y-30837D01*
Y123247D01*
X-140874Y124048D01*
X-140476Y124643D01*
X-140336Y125346D01*
X-140476Y126048D01*
X-140874Y126643D01*
X-141469Y127041D01*
X-142172Y127181D01*
X-142874Y127041D01*
X-143469Y126643D01*
X-144558Y125555D01*
X-145058Y125762D01*
Y132332D01*
X-141627Y135763D01*
X-141229Y136359D01*
X-141090Y137061D01*
Y160831D01*
X-141229Y161533D01*
X-141627Y162128D01*
X-142222Y162526D01*
X-142925Y162666D01*
X-143627Y162526D01*
X-144223Y162128D01*
X-144620Y161533D01*
X-144760Y160831D01*
Y137821D01*
X-148191Y134390D01*
X-148589Y133795D01*
X-148729Y133093D01*
Y56609D01*
X-149229Y56510D01*
X-149530Y57238D01*
X-150624Y59023D01*
X-151984Y60615D01*
X-153576Y61974D01*
X-155361Y63068D01*
X-157295Y63869D01*
X-159330Y64358D01*
X-161417Y64522D01*
X-163504Y64358D01*
X-165540Y63869D01*
X-167474Y63068D01*
X-169259Y61974D01*
X-170851Y60615D01*
X-172211Y59023D01*
X-173304Y57238D01*
X-174106Y55304D01*
X-174594Y53268D01*
X-174758Y51181D01*
X-174594Y49094D01*
X-174106Y47058D01*
X-173304Y45124D01*
X-172211Y43339D01*
X-170851Y41747D01*
X-169259Y40388D01*
X-167474Y39294D01*
X-165540Y38493D01*
X-163504Y38004D01*
X-161417Y37840D01*
X-159330Y38004D01*
X-157295Y38493D01*
X-155361Y39294D01*
X-153576Y40388D01*
X-151984Y41747D01*
X-150624Y43339D01*
X-149530Y45124D01*
X-149229Y45853D01*
X-148729Y45753D01*
Y-77796D01*
X-148589Y-78499D01*
X-148191Y-79094D01*
X-46835Y-180450D01*
Y-208500D01*
X-47190Y-208647D01*
X-48098Y-209343D01*
X-48794Y-210251D01*
X-49231Y-211307D01*
X-49381Y-212441D01*
X-49231Y-213575D01*
X-48794Y-214631D01*
X-48098Y-215539D01*
X-47190Y-216235D01*
X-46134Y-216672D01*
X-45000Y-216822D01*
X-43866Y-216672D01*
X-42810Y-216235D01*
X-41902Y-215539D01*
X-41206Y-214631D01*
X-40769Y-213575D01*
X-40619Y-212441D01*
X-40769Y-211307D01*
X-41206Y-210251D01*
X-41902Y-209343D01*
X-42810Y-208647D01*
X-43165Y-208500D01*
Y-180005D01*
X-42665Y-179798D01*
X-42321Y-180142D01*
Y-204796D01*
X-42181Y-205498D01*
X-41783Y-206094D01*
X-39000Y-208876D01*
X-38897Y-209019D01*
X-38806Y-209187D01*
X-38744Y-209349D01*
X-38707Y-209512D01*
X-38694Y-209681D01*
X-38704Y-209863D01*
X-38742Y-210063D01*
X-38811Y-210283D01*
X-38930Y-210558D01*
X-38941Y-210604D01*
X-39232Y-211307D01*
X-39381Y-212441D01*
X-39232Y-213575D01*
X-38794Y-214631D01*
X-38098Y-215539D01*
X-37190Y-216235D01*
X-36134Y-216672D01*
X-35000Y-216822D01*
X-33866Y-216672D01*
X-32810Y-216235D01*
X-31902Y-215539D01*
X-31206Y-214631D01*
X-30768Y-213575D01*
X-30619Y-212441D01*
X-30768Y-211307D01*
X-31206Y-210251D01*
X-31902Y-209343D01*
X-32810Y-208647D01*
X-33165Y-208500D01*
X-33210Y-208466D01*
X-33213Y-208466D01*
X-33216Y-208464D01*
X-33595Y-208290D01*
X-33934Y-208124D01*
X-34864Y-207607D01*
X-35102Y-207454D01*
X-35556Y-207120D01*
X-35616Y-207069D01*
X-38650Y-204036D01*
Y-179382D01*
X-38790Y-178680D01*
X-39188Y-178085D01*
X-141675Y-75597D01*
Y-43218D01*
X-141601Y-42749D01*
X-136964D01*
X-135880Y-42856D01*
X-134796Y-42749D01*
X-130989D01*
X-130971Y-42753D01*
X-130952Y-42749D01*
X-130159D01*
Y-42016D01*
X-130099Y-41516D01*
X-129925Y-40959D01*
X-129610Y-40276D01*
X-129148Y-39481D01*
X-128554Y-38605D01*
X-124642Y-34041D01*
X-124177Y-33567D01*
X-105823Y-15212D01*
X-105098Y-14329D01*
X-104559Y-13322D01*
X-104228Y-12228D01*
X-104116Y-11091D01*
Y80156D01*
X-88766Y95505D01*
X-88041Y96388D01*
X-87503Y97396D01*
X-87171Y98489D01*
X-87059Y99626D01*
X-87171Y100763D01*
X-87503Y101857D01*
X-88041Y102864D01*
X-88766Y103747D01*
X-89649Y104472D01*
X-90657Y105011D01*
X-91750Y105342D01*
X-92887Y105454D01*
X-94024Y105342D01*
X-95117Y105011D01*
X-96125Y104472D01*
X-97008Y103747D01*
X-103654Y97102D01*
X-104116Y97293D01*
Y198541D01*
X-88924Y213734D01*
X-88199Y214617D01*
X-87660Y215624D01*
X-87328Y216718D01*
X-87217Y217855D01*
X-87328Y218992D01*
X-87660Y220085D01*
X-88199Y221093D01*
X-88924Y221976D01*
X-89807Y222701D01*
X-90814Y223239D01*
X-91908Y223571D01*
X-93045Y223683D01*
D02*
G37*
G36*
X-148378Y-107492D02*
X-150079Y-107660D01*
X-151714Y-108156D01*
X-153221Y-108961D01*
X-154542Y-110045D01*
X-155625Y-111366D01*
X-156431Y-112873D01*
X-156927Y-114508D01*
X-157094Y-116208D01*
X-156927Y-117909D01*
X-156431Y-119544D01*
X-155625Y-121051D01*
X-154542Y-122371D01*
X-153221Y-123455D01*
X-151714Y-124261D01*
X-150079Y-124757D01*
X-148378Y-124924D01*
X-146678Y-124757D01*
X-145043Y-124261D01*
X-143536Y-123455D01*
X-142215Y-122371D01*
X-141131Y-121051D01*
X-140326Y-119544D01*
X-139830Y-117909D01*
X-139662Y-116208D01*
X-139830Y-114508D01*
X-140326Y-112873D01*
X-141131Y-111366D01*
X-142215Y-110045D01*
X-143536Y-108961D01*
X-145043Y-108156D01*
X-146678Y-107660D01*
X-148378Y-107492D01*
D02*
G37*
G36*
Y-131902D02*
X-150079Y-132069D01*
X-151714Y-132565D01*
X-153221Y-133371D01*
X-154542Y-134455D01*
X-155625Y-135775D01*
X-156431Y-137282D01*
X-156927Y-138917D01*
X-157094Y-140618D01*
X-156927Y-142318D01*
X-156431Y-143953D01*
X-155625Y-145460D01*
X-154542Y-146781D01*
X-153221Y-147865D01*
X-151714Y-148670D01*
X-150079Y-149166D01*
X-148378Y-149334D01*
X-146678Y-149166D01*
X-145043Y-148670D01*
X-143536Y-147865D01*
X-142215Y-146781D01*
X-141131Y-145460D01*
X-140326Y-143953D01*
X-139830Y-142318D01*
X-139662Y-140618D01*
X-139830Y-138917D01*
X-140326Y-137282D01*
X-141131Y-135775D01*
X-142215Y-134455D01*
X-143536Y-133371D01*
X-145043Y-132565D01*
X-146678Y-132069D01*
X-148378Y-131902D01*
D02*
G37*
G36*
X-148704Y-166779D02*
X-150404Y-166946D01*
X-152039Y-167442D01*
X-153546Y-168247D01*
X-154867Y-169331D01*
X-155951Y-170652D01*
X-156756Y-172159D01*
X-157252Y-173794D01*
X-157420Y-175494D01*
X-157252Y-177195D01*
X-156756Y-178830D01*
X-155951Y-180337D01*
X-154867Y-181658D01*
X-153546Y-182741D01*
X-152039Y-183547D01*
X-150404Y-184043D01*
X-148704Y-184210D01*
X-147003Y-184043D01*
X-145368Y-183547D01*
X-143861Y-182741D01*
X-142541Y-181658D01*
X-141457Y-180337D01*
X-140651Y-178830D01*
X-140155Y-177195D01*
X-139988Y-175494D01*
X-140155Y-173794D01*
X-140651Y-172159D01*
X-141457Y-170652D01*
X-142541Y-169331D01*
X-143861Y-168247D01*
X-145368Y-167442D01*
X-147003Y-166946D01*
X-148704Y-166779D01*
D02*
G37*
G36*
Y-191188D02*
X-150404Y-191355D01*
X-152039Y-191851D01*
X-153546Y-192657D01*
X-154867Y-193741D01*
X-155951Y-195062D01*
X-156756Y-196568D01*
X-157252Y-198204D01*
X-157420Y-199904D01*
X-157252Y-201604D01*
X-156756Y-203239D01*
X-155951Y-204746D01*
X-154867Y-206067D01*
X-153546Y-207151D01*
X-152039Y-207956D01*
X-150404Y-208452D01*
X-148704Y-208620D01*
X-147003Y-208452D01*
X-145368Y-207956D01*
X-143861Y-207151D01*
X-142541Y-206067D01*
X-141457Y-204746D01*
X-140651Y-203239D01*
X-140155Y-201604D01*
X-139988Y-199904D01*
X-140155Y-198204D01*
X-140651Y-196568D01*
X-141457Y-195062D01*
X-142541Y-193741D01*
X-143861Y-192657D01*
X-145368Y-191851D01*
X-147003Y-191355D01*
X-148704Y-191188D01*
D02*
G37*
G36*
X-54500Y-207924D02*
Y-211941D01*
X-50483D01*
X-50574Y-211255D01*
X-51031Y-210150D01*
X-51760Y-209201D01*
X-52709Y-208472D01*
X-53814Y-208015D01*
X-54500Y-207924D01*
D02*
G37*
G36*
X-55500D02*
X-56186Y-208015D01*
X-57291Y-208472D01*
X-58240Y-209201D01*
X-58969Y-210150D01*
X-59426Y-211255D01*
X-59517Y-211941D01*
X-55500D01*
Y-207924D01*
D02*
G37*
G36*
X175497Y-206866D02*
X166023D01*
Y-216340D01*
X175497D01*
Y-206866D01*
D02*
G37*
G36*
X93214D02*
X83740D01*
Y-216340D01*
X93214D01*
Y-206866D01*
D02*
G37*
G36*
X55000Y-208060D02*
X53866Y-208209D01*
X52810Y-208647D01*
X51902Y-209343D01*
X51206Y-210251D01*
X50769Y-211307D01*
X50619Y-212441D01*
X50769Y-213575D01*
X51206Y-214631D01*
X51902Y-215539D01*
X52810Y-216235D01*
X53866Y-216672D01*
X55000Y-216822D01*
X56134Y-216672D01*
X57190Y-216235D01*
X58098Y-215539D01*
X58794Y-214631D01*
X59232Y-213575D01*
X59381Y-212441D01*
X59232Y-211307D01*
X58794Y-210251D01*
X58098Y-209343D01*
X57190Y-208647D01*
X56134Y-208209D01*
X55000Y-208060D01*
D02*
G37*
G36*
X45000D02*
X43866Y-208209D01*
X42810Y-208647D01*
X41902Y-209343D01*
X41206Y-210251D01*
X40769Y-211307D01*
X40619Y-212441D01*
X40769Y-213575D01*
X41206Y-214631D01*
X41902Y-215539D01*
X42810Y-216235D01*
X43866Y-216672D01*
X45000Y-216822D01*
X46134Y-216672D01*
X47190Y-216235D01*
X48098Y-215539D01*
X48794Y-214631D01*
X49231Y-213575D01*
X49381Y-212441D01*
X49231Y-211307D01*
X48794Y-210251D01*
X48098Y-209343D01*
X47190Y-208647D01*
X46134Y-208209D01*
X45000Y-208060D01*
D02*
G37*
G36*
X35000D02*
X33866Y-208209D01*
X32810Y-208647D01*
X31902Y-209343D01*
X31206Y-210251D01*
X30768Y-211307D01*
X30619Y-212441D01*
X30768Y-213575D01*
X31206Y-214631D01*
X31902Y-215539D01*
X32810Y-216235D01*
X33866Y-216672D01*
X35000Y-216822D01*
X36134Y-216672D01*
X37190Y-216235D01*
X38098Y-215539D01*
X38794Y-214631D01*
X39232Y-213575D01*
X39381Y-212441D01*
X39232Y-211307D01*
X38794Y-210251D01*
X38098Y-209343D01*
X37190Y-208647D01*
X36134Y-208209D01*
X35000Y-208060D01*
D02*
G37*
G36*
X25000D02*
X23866Y-208209D01*
X22810Y-208647D01*
X21902Y-209343D01*
X21206Y-210251D01*
X20768Y-211307D01*
X20619Y-212441D01*
X20768Y-213575D01*
X21206Y-214631D01*
X21902Y-215539D01*
X22810Y-216235D01*
X23866Y-216672D01*
X25000Y-216822D01*
X26134Y-216672D01*
X27190Y-216235D01*
X28098Y-215539D01*
X28794Y-214631D01*
X29232Y-213575D01*
X29381Y-212441D01*
X29232Y-211307D01*
X28794Y-210251D01*
X28098Y-209343D01*
X27190Y-208647D01*
X26134Y-208209D01*
X25000Y-208060D01*
D02*
G37*
G36*
X15000D02*
X13866Y-208209D01*
X12810Y-208647D01*
X11902Y-209343D01*
X11206Y-210251D01*
X10768Y-211307D01*
X10619Y-212441D01*
X10768Y-213575D01*
X11206Y-214631D01*
X11902Y-215539D01*
X12810Y-216235D01*
X13866Y-216672D01*
X15000Y-216822D01*
X16134Y-216672D01*
X17190Y-216235D01*
X18098Y-215539D01*
X18794Y-214631D01*
X19231Y-213575D01*
X19381Y-212441D01*
X19231Y-211307D01*
X18794Y-210251D01*
X18098Y-209343D01*
X17190Y-208647D01*
X16134Y-208209D01*
X15000Y-208060D01*
D02*
G37*
G36*
X5000D02*
X3866Y-208209D01*
X2810Y-208647D01*
X1902Y-209343D01*
X1206Y-210251D01*
X769Y-211307D01*
X619Y-212441D01*
X769Y-213575D01*
X1206Y-214631D01*
X1902Y-215539D01*
X2810Y-216235D01*
X3866Y-216672D01*
X5000Y-216822D01*
X6134Y-216672D01*
X7190Y-216235D01*
X8098Y-215539D01*
X8794Y-214631D01*
X9232Y-213575D01*
X9381Y-212441D01*
X9232Y-211307D01*
X8794Y-210251D01*
X8098Y-209343D01*
X7190Y-208647D01*
X6134Y-208209D01*
X5000Y-208060D01*
D02*
G37*
G36*
X-5000D02*
X-6134Y-208209D01*
X-7190Y-208647D01*
X-8098Y-209343D01*
X-8794Y-210251D01*
X-9232Y-211307D01*
X-9381Y-212441D01*
X-9232Y-213575D01*
X-8794Y-214631D01*
X-8098Y-215539D01*
X-7190Y-216235D01*
X-6134Y-216672D01*
X-5000Y-216822D01*
X-3866Y-216672D01*
X-2810Y-216235D01*
X-1902Y-215539D01*
X-1206Y-214631D01*
X-769Y-213575D01*
X-619Y-212441D01*
X-769Y-211307D01*
X-1206Y-210251D01*
X-1902Y-209343D01*
X-2810Y-208647D01*
X-3866Y-208209D01*
X-5000Y-208060D01*
D02*
G37*
G36*
X-15000D02*
X-16134Y-208209D01*
X-17190Y-208647D01*
X-18098Y-209343D01*
X-18794Y-210251D01*
X-19231Y-211307D01*
X-19381Y-212441D01*
X-19231Y-213575D01*
X-18794Y-214631D01*
X-18098Y-215539D01*
X-17190Y-216235D01*
X-16134Y-216672D01*
X-15000Y-216822D01*
X-13866Y-216672D01*
X-12810Y-216235D01*
X-11902Y-215539D01*
X-11206Y-214631D01*
X-10768Y-213575D01*
X-10619Y-212441D01*
X-10768Y-211307D01*
X-11206Y-210251D01*
X-11902Y-209343D01*
X-12810Y-208647D01*
X-13866Y-208209D01*
X-15000Y-208060D01*
D02*
G37*
G36*
X-25000D02*
X-26134Y-208209D01*
X-27190Y-208647D01*
X-28098Y-209343D01*
X-28794Y-210251D01*
X-29232Y-211307D01*
X-29381Y-212441D01*
X-29232Y-213575D01*
X-28794Y-214631D01*
X-28098Y-215539D01*
X-27190Y-216235D01*
X-26134Y-216672D01*
X-25000Y-216822D01*
X-23866Y-216672D01*
X-22810Y-216235D01*
X-21902Y-215539D01*
X-21206Y-214631D01*
X-20768Y-213575D01*
X-20619Y-212441D01*
X-20768Y-211307D01*
X-21206Y-210251D01*
X-21902Y-209343D01*
X-22810Y-208647D01*
X-23866Y-208209D01*
X-25000Y-208060D01*
D02*
G37*
G36*
X-50483Y-212941D02*
X-54500D01*
Y-216958D01*
X-53814Y-216867D01*
X-52709Y-216409D01*
X-51760Y-215681D01*
X-51031Y-214732D01*
X-50574Y-213627D01*
X-50483Y-212941D01*
D02*
G37*
G36*
X-55500D02*
X-59517D01*
X-59426Y-213627D01*
X-58969Y-214732D01*
X-58240Y-215681D01*
X-57291Y-216409D01*
X-56186Y-216867D01*
X-55500Y-216958D01*
Y-212941D01*
D02*
G37*
G36*
X-54500Y-217924D02*
Y-221941D01*
X-50483D01*
X-50574Y-221255D01*
X-51031Y-220150D01*
X-51760Y-219201D01*
X-52709Y-218472D01*
X-53814Y-218015D01*
X-54500Y-217924D01*
D02*
G37*
G36*
X-55500D02*
X-56186Y-218015D01*
X-57291Y-218472D01*
X-58240Y-219201D01*
X-58969Y-220150D01*
X-59426Y-221255D01*
X-59517Y-221941D01*
X-55500D01*
Y-217924D01*
D02*
G37*
G36*
X59343Y-218098D02*
X50657D01*
Y-226784D01*
X59343D01*
Y-218098D01*
D02*
G37*
G36*
X45000Y-218060D02*
X43866Y-218209D01*
X42810Y-218647D01*
X41902Y-219343D01*
X41206Y-220251D01*
X40769Y-221307D01*
X40619Y-222441D01*
X40769Y-223575D01*
X41206Y-224631D01*
X41902Y-225539D01*
X42810Y-226235D01*
X43866Y-226672D01*
X45000Y-226822D01*
X46134Y-226672D01*
X47190Y-226235D01*
X48098Y-225539D01*
X48794Y-224631D01*
X49231Y-223575D01*
X49381Y-222441D01*
X49231Y-221307D01*
X48794Y-220251D01*
X48098Y-219343D01*
X47190Y-218647D01*
X46134Y-218209D01*
X45000Y-218060D01*
D02*
G37*
G36*
X35000D02*
X33866Y-218209D01*
X32810Y-218647D01*
X31902Y-219343D01*
X31206Y-220251D01*
X30768Y-221307D01*
X30619Y-222441D01*
X30768Y-223575D01*
X31206Y-224631D01*
X31902Y-225539D01*
X32810Y-226235D01*
X33866Y-226672D01*
X35000Y-226822D01*
X36134Y-226672D01*
X37190Y-226235D01*
X38098Y-225539D01*
X38794Y-224631D01*
X39232Y-223575D01*
X39381Y-222441D01*
X39232Y-221307D01*
X38794Y-220251D01*
X38098Y-219343D01*
X37190Y-218647D01*
X36134Y-218209D01*
X35000Y-218060D01*
D02*
G37*
G36*
X25000D02*
X23866Y-218209D01*
X22810Y-218647D01*
X21902Y-219343D01*
X21206Y-220251D01*
X20768Y-221307D01*
X20619Y-222441D01*
X20768Y-223575D01*
X21206Y-224631D01*
X21902Y-225539D01*
X22810Y-226235D01*
X23866Y-226672D01*
X25000Y-226822D01*
X26134Y-226672D01*
X27190Y-226235D01*
X28098Y-225539D01*
X28794Y-224631D01*
X29232Y-223575D01*
X29381Y-222441D01*
X29232Y-221307D01*
X28794Y-220251D01*
X28098Y-219343D01*
X27190Y-218647D01*
X26134Y-218209D01*
X25000Y-218060D01*
D02*
G37*
G36*
X15000D02*
X13866Y-218209D01*
X12810Y-218647D01*
X11902Y-219343D01*
X11206Y-220251D01*
X10768Y-221307D01*
X10619Y-222441D01*
X10768Y-223575D01*
X11206Y-224631D01*
X11902Y-225539D01*
X12810Y-226235D01*
X13866Y-226672D01*
X15000Y-226822D01*
X16134Y-226672D01*
X17190Y-226235D01*
X18098Y-225539D01*
X18794Y-224631D01*
X19231Y-223575D01*
X19381Y-222441D01*
X19231Y-221307D01*
X18794Y-220251D01*
X18098Y-219343D01*
X17190Y-218647D01*
X16134Y-218209D01*
X15000Y-218060D01*
D02*
G37*
G36*
X5000D02*
X3866Y-218209D01*
X2810Y-218647D01*
X1902Y-219343D01*
X1206Y-220251D01*
X769Y-221307D01*
X619Y-222441D01*
X769Y-223575D01*
X1206Y-224631D01*
X1902Y-225539D01*
X2810Y-226235D01*
X3866Y-226672D01*
X5000Y-226822D01*
X6134Y-226672D01*
X7190Y-226235D01*
X8098Y-225539D01*
X8794Y-224631D01*
X9232Y-223575D01*
X9381Y-222441D01*
X9232Y-221307D01*
X8794Y-220251D01*
X8098Y-219343D01*
X7190Y-218647D01*
X6134Y-218209D01*
X5000Y-218060D01*
D02*
G37*
G36*
X-5000D02*
X-6134Y-218209D01*
X-7190Y-218647D01*
X-8098Y-219343D01*
X-8794Y-220251D01*
X-9232Y-221307D01*
X-9381Y-222441D01*
X-9232Y-223575D01*
X-8794Y-224631D01*
X-8098Y-225539D01*
X-7190Y-226235D01*
X-6134Y-226672D01*
X-5000Y-226822D01*
X-3866Y-226672D01*
X-2810Y-226235D01*
X-1902Y-225539D01*
X-1206Y-224631D01*
X-769Y-223575D01*
X-619Y-222441D01*
X-769Y-221307D01*
X-1206Y-220251D01*
X-1902Y-219343D01*
X-2810Y-218647D01*
X-3866Y-218209D01*
X-5000Y-218060D01*
D02*
G37*
G36*
X-15000D02*
X-16134Y-218209D01*
X-17190Y-218647D01*
X-18098Y-219343D01*
X-18794Y-220251D01*
X-19231Y-221307D01*
X-19381Y-222441D01*
X-19231Y-223575D01*
X-18794Y-224631D01*
X-18098Y-225539D01*
X-17190Y-226235D01*
X-16134Y-226672D01*
X-15000Y-226822D01*
X-13866Y-226672D01*
X-12810Y-226235D01*
X-11902Y-225539D01*
X-11206Y-224631D01*
X-10768Y-223575D01*
X-10619Y-222441D01*
X-10768Y-221307D01*
X-11206Y-220251D01*
X-11902Y-219343D01*
X-12810Y-218647D01*
X-13866Y-218209D01*
X-15000Y-218060D01*
D02*
G37*
G36*
X-25000D02*
X-26134Y-218209D01*
X-27190Y-218647D01*
X-28098Y-219343D01*
X-28794Y-220251D01*
X-29232Y-221307D01*
X-29381Y-222441D01*
X-29232Y-223575D01*
X-28794Y-224631D01*
X-28098Y-225539D01*
X-27190Y-226235D01*
X-26134Y-226672D01*
X-25000Y-226822D01*
X-23866Y-226672D01*
X-22810Y-226235D01*
X-21902Y-225539D01*
X-21206Y-224631D01*
X-20768Y-223575D01*
X-20619Y-222441D01*
X-20768Y-221307D01*
X-21206Y-220251D01*
X-21902Y-219343D01*
X-22810Y-218647D01*
X-23866Y-218209D01*
X-25000Y-218060D01*
D02*
G37*
G36*
X-35000D02*
X-36134Y-218209D01*
X-37190Y-218647D01*
X-38098Y-219343D01*
X-38794Y-220251D01*
X-39232Y-221307D01*
X-39381Y-222441D01*
X-39232Y-223575D01*
X-38794Y-224631D01*
X-38098Y-225539D01*
X-37190Y-226235D01*
X-36134Y-226672D01*
X-35000Y-226822D01*
X-33866Y-226672D01*
X-32810Y-226235D01*
X-31902Y-225539D01*
X-31206Y-224631D01*
X-30768Y-223575D01*
X-30619Y-222441D01*
X-30768Y-221307D01*
X-31206Y-220251D01*
X-31902Y-219343D01*
X-32810Y-218647D01*
X-33866Y-218209D01*
X-35000Y-218060D01*
D02*
G37*
G36*
X-50483Y-222941D02*
X-54500D01*
Y-226958D01*
X-53814Y-226867D01*
X-52709Y-226410D01*
X-51760Y-225681D01*
X-51031Y-224732D01*
X-50574Y-223627D01*
X-50483Y-222941D01*
D02*
G37*
G36*
X-55500D02*
X-59517D01*
X-59426Y-223627D01*
X-58969Y-224732D01*
X-58240Y-225681D01*
X-57291Y-226410D01*
X-56186Y-226867D01*
X-55500Y-226958D01*
Y-222941D01*
D02*
G37*
G36*
X140000Y-242955D02*
X88415D01*
Y-251220D01*
X140000D01*
Y-242955D01*
D02*
G37*
G36*
X161417Y-224848D02*
X159330Y-225012D01*
X157295Y-225501D01*
X155361Y-226302D01*
X153576Y-227396D01*
X151984Y-228755D01*
X150624Y-230347D01*
X149530Y-232132D01*
X148729Y-234066D01*
X148240Y-236102D01*
X148076Y-238189D01*
X148240Y-240276D01*
X148729Y-242312D01*
X149530Y-244246D01*
X150624Y-246031D01*
X151984Y-247623D01*
X153576Y-248982D01*
X155361Y-250076D01*
X157295Y-250877D01*
X159330Y-251366D01*
X161417Y-251530D01*
X163504Y-251366D01*
X165540Y-250877D01*
X167474Y-250076D01*
X169259Y-248982D01*
X170851Y-247623D01*
X172211Y-246031D01*
X173304Y-244246D01*
X174106Y-242312D01*
X174594Y-240276D01*
X174758Y-238189D01*
X174594Y-236102D01*
X174106Y-234066D01*
X173304Y-232132D01*
X172211Y-230347D01*
X170851Y-228755D01*
X169259Y-227396D01*
X167474Y-226302D01*
X165540Y-225501D01*
X163504Y-225012D01*
X161417Y-224848D01*
D02*
G37*
G36*
X-161417D02*
X-163504Y-225012D01*
X-165540Y-225501D01*
X-167474Y-226302D01*
X-169259Y-227396D01*
X-170851Y-228755D01*
X-172211Y-230347D01*
X-173304Y-232132D01*
X-174106Y-234066D01*
X-174594Y-236102D01*
X-174758Y-238189D01*
X-174594Y-240276D01*
X-174106Y-242312D01*
X-173304Y-244246D01*
X-172211Y-246031D01*
X-170851Y-247623D01*
X-169259Y-248982D01*
X-167474Y-250076D01*
X-165540Y-250877D01*
X-163504Y-251366D01*
X-161417Y-251530D01*
X-159330Y-251366D01*
X-157295Y-250877D01*
X-155361Y-250076D01*
X-153576Y-248982D01*
X-151984Y-247623D01*
X-150624Y-246031D01*
X-149530Y-244246D01*
X-148729Y-242312D01*
X-148240Y-240276D01*
X-148076Y-238189D01*
X-148240Y-236102D01*
X-148729Y-234066D01*
X-149530Y-232132D01*
X-150624Y-230347D01*
X-151984Y-228755D01*
X-153576Y-227396D01*
X-155361Y-226302D01*
X-157295Y-225501D01*
X-159330Y-225012D01*
X-161417Y-224848D01*
D02*
G37*
%LPD*%
G36*
X-123900Y-32118D02*
X-125243Y-33489D01*
X-129203Y-38109D01*
X-129839Y-39047D01*
X-130334Y-39899D01*
X-130688Y-40665D01*
X-130900Y-41344D01*
X-130971Y-41937D01*
X-140789Y-32118D01*
X-140197Y-32048D01*
X-139517Y-31836D01*
X-138752Y-31482D01*
X-137899Y-30987D01*
X-136961Y-30351D01*
X-135936Y-29573D01*
X-133626Y-27593D01*
X-130971Y-25047D01*
X-123900Y-32118D01*
D02*
G37*
G36*
X-36278Y-207578D02*
X-36061Y-207761D01*
X-35564Y-208126D01*
X-35283Y-208307D01*
X-34312Y-208848D01*
X-33945Y-209027D01*
X-33556Y-209205D01*
X-38182Y-210882D01*
X-38046Y-210568D01*
X-37950Y-210261D01*
X-37893Y-209963D01*
X-37876Y-209672D01*
X-37899Y-209388D01*
X-37962Y-209113D01*
X-38064Y-208845D01*
X-38205Y-208585D01*
X-38387Y-208332D01*
X-38608Y-208087D01*
X-36472Y-207395D01*
X-36278Y-207578D01*
D02*
G37*
D14*
X138200Y-249420D02*
Y-246754D01*
X136867Y-245421D01*
X135534Y-246754D01*
Y-249420D01*
Y-247421D01*
X138200D01*
X134201Y-246754D02*
Y-249420D01*
Y-248087D01*
X133534Y-247421D01*
X132868Y-246754D01*
X132202D01*
X129536Y-246088D02*
Y-246754D01*
X130202D01*
X128869D01*
X129536D01*
Y-248753D01*
X128869Y-249420D01*
X126870Y-245421D02*
Y-249420D01*
X124871D01*
X124204Y-248753D01*
Y-248087D01*
X124871Y-247421D01*
X126870D01*
X124871D01*
X124204Y-246754D01*
Y-246088D01*
X124871Y-245421D01*
X126870D01*
X118872Y-247421D02*
X116207D01*
X117540Y-246088D02*
Y-248753D01*
X110875Y-249420D02*
Y-246754D01*
X109542Y-245421D01*
X108209Y-246754D01*
Y-249420D01*
Y-247421D01*
X110875D01*
X106876Y-245421D02*
Y-249420D01*
X104211D01*
X98212Y-244755D02*
Y-246088D01*
X98879Y-246754D01*
X96213Y-249420D02*
X94880D01*
X95547D01*
Y-245421D01*
X96213Y-246088D01*
X92881D02*
X92214Y-245421D01*
X90882D01*
X90215Y-246088D01*
Y-246754D01*
X90882Y-247421D01*
X90215Y-248087D01*
Y-248753D01*
X90882Y-249420D01*
X92214D01*
X92881Y-248753D01*
Y-248087D01*
X92214Y-247421D01*
X92881Y-246754D01*
Y-246088D01*
X92214Y-247421D02*
X90882D01*
D56*
X37323Y-135125D02*
X67088D01*
X27461Y-144986D02*
X37323Y-135125D01*
X54639Y-122676D02*
X67088Y-135125D01*
X2532Y-122676D02*
X54639D01*
X-142925Y137061D02*
Y160831D01*
X-146893Y133093D02*
X-142925Y137061D01*
X-143510Y-76357D02*
Y124007D01*
X-142172Y125346D01*
X-146893Y-77796D02*
Y133093D01*
X-40485Y-204796D02*
Y-179382D01*
X-143510Y-76357D02*
X-40485Y-179382D01*
X-45000Y-212441D02*
Y-179690D01*
X-146893Y-77796D02*
X-45000Y-179690D01*
X-40485Y-204796D02*
X-35000Y-210281D01*
Y-212441D02*
Y-210281D01*
D57*
X-135880Y-37028D02*
X-109944Y-11091D01*
Y200956D02*
X-93045Y217855D01*
X-109043Y83471D02*
X-92887Y99626D01*
X-109944Y83471D02*
X-109043D01*
X-109944D02*
Y200956D01*
Y-11091D02*
Y83471D01*
X99039Y-134649D02*
X171962Y-135046D01*
D60*
X79885Y-155733D02*
Y-155566D01*
X64305Y-139986D02*
X79885Y-155566D01*
Y-155733D02*
X99039Y-136579D01*
X79885Y-218700D02*
Y-155733D01*
X65582Y-233004D02*
X79885Y-218700D01*
X47648Y-139986D02*
X64305D01*
X-45000Y-222441D02*
X-34437Y-233004D01*
X99039Y-136579D02*
Y-134649D01*
X-34437Y-233004D02*
X65582D01*
D61*
X15695Y-5532D02*
D03*
X-135880D02*
D03*
Y-37028D02*
D03*
D62*
X15695Y-47855D02*
D03*
D63*
X-92887Y59626D02*
D03*
Y99626D02*
D03*
X-93045Y177855D02*
D03*
Y217855D02*
D03*
D64*
X-42887Y114626D02*
D03*
X-43045Y232855D02*
D03*
D65*
X-32887Y44626D02*
D03*
X-33045Y162855D02*
D03*
D66*
X73255Y104784D02*
D03*
X22003Y54523D02*
D03*
X73255Y222894D02*
D03*
X22003Y172634D02*
D03*
X96474Y-12421D02*
D03*
D67*
X-148378Y-140618D02*
D03*
Y-116208D02*
D03*
X-148704Y-199904D02*
D03*
Y-175494D02*
D03*
D68*
X95957Y-174201D02*
D03*
X88477Y-211603D02*
D03*
X155799Y-174201D02*
D03*
X170760Y-211603D02*
D03*
D69*
X45222Y-62682D02*
D03*
D70*
X161417Y-238189D02*
D03*
X-161417D02*
D03*
X161417Y51181D02*
D03*
X-161417D02*
D03*
X161417Y238189D02*
D03*
X-161417D02*
D03*
D71*
X55000Y-222441D02*
D03*
D72*
X45000D02*
D03*
X35000D02*
D03*
X25000D02*
D03*
X15000D02*
D03*
X5000D02*
D03*
X-5000D02*
D03*
X-15000D02*
D03*
X-25000D02*
D03*
X-35000D02*
D03*
X-45000D02*
D03*
X-55000D02*
D03*
X55000Y-212441D02*
D03*
X45000D02*
D03*
X35000D02*
D03*
X25000D02*
D03*
X15000D02*
D03*
X5000D02*
D03*
X-5000D02*
D03*
X-15000D02*
D03*
X-25000D02*
D03*
X-35000D02*
D03*
X-45000D02*
D03*
X-55000D02*
D03*
D73*
X171962Y-135046D02*
D03*
D74*
X99039Y-134649D02*
D03*
D75*
X88500Y248500D02*
D03*
X86000Y243500D02*
D03*
X88500Y238500D02*
D03*
X86000Y233500D02*
D03*
X88500Y228500D02*
D03*
X86000Y223500D02*
D03*
X88500Y218500D02*
D03*
X86000Y213500D02*
D03*
X88500Y208500D02*
D03*
X86000Y203500D02*
D03*
X83500Y248500D02*
D03*
X81000Y243500D02*
D03*
X83500Y238500D02*
D03*
Y208500D02*
D03*
X81000Y203500D02*
D03*
X78500Y248500D02*
D03*
X76000Y243500D02*
D03*
X78500Y238500D02*
D03*
Y208500D02*
D03*
X76000Y203500D02*
D03*
X73500Y248500D02*
D03*
X71000Y243500D02*
D03*
X73500Y238500D02*
D03*
Y208500D02*
D03*
X71000Y203500D02*
D03*
X68500Y248500D02*
D03*
X66000Y243500D02*
D03*
X68500Y238500D02*
D03*
Y208500D02*
D03*
X66000Y203500D02*
D03*
X63500Y248500D02*
D03*
X61000Y243500D02*
D03*
X63500Y238500D02*
D03*
X61000Y233500D02*
D03*
Y223500D02*
D03*
Y213500D02*
D03*
X63500Y208500D02*
D03*
X61000Y203500D02*
D03*
X58500Y248500D02*
D03*
X56000Y243500D02*
D03*
X58500Y238500D02*
D03*
X56000Y233500D02*
D03*
X58500Y228500D02*
D03*
X56000Y223500D02*
D03*
X58500Y218500D02*
D03*
X56000Y213500D02*
D03*
X58500Y208500D02*
D03*
X56000Y203500D02*
D03*
X53500Y248500D02*
D03*
X51000Y243500D02*
D03*
X53500Y238500D02*
D03*
X51000Y233500D02*
D03*
X53500Y228500D02*
D03*
X51000Y223500D02*
D03*
X53500Y218500D02*
D03*
X51000Y213500D02*
D03*
X53500Y208500D02*
D03*
X51000Y203500D02*
D03*
X48500Y248500D02*
D03*
X46000Y243500D02*
D03*
X48500Y238500D02*
D03*
X46000Y233500D02*
D03*
X48500Y228500D02*
D03*
X46000Y223500D02*
D03*
X48500Y218500D02*
D03*
X46000Y213500D02*
D03*
X48500Y208500D02*
D03*
X46000Y203500D02*
D03*
X43500Y248500D02*
D03*
X41000Y243500D02*
D03*
X43500Y238500D02*
D03*
X41000Y233500D02*
D03*
X43500Y228500D02*
D03*
X41000Y223500D02*
D03*
X43500Y218500D02*
D03*
X41000Y213500D02*
D03*
X43500Y208500D02*
D03*
X41000Y203500D02*
D03*
X38500Y248500D02*
D03*
X36000Y243500D02*
D03*
X38500Y238500D02*
D03*
X36000Y233500D02*
D03*
X38500Y228500D02*
D03*
X36000Y223500D02*
D03*
X38500Y218500D02*
D03*
X36000Y213500D02*
D03*
X38500Y208500D02*
D03*
X36000Y203500D02*
D03*
X33500Y248500D02*
D03*
X31000Y243500D02*
D03*
X33500Y238500D02*
D03*
X31000Y233500D02*
D03*
X33500Y228500D02*
D03*
X31000Y223500D02*
D03*
X33500Y218500D02*
D03*
X31000Y213500D02*
D03*
X33500Y208500D02*
D03*
X31000Y203500D02*
D03*
X28500Y248500D02*
D03*
X26000Y243500D02*
D03*
X28500Y238500D02*
D03*
X26000Y233500D02*
D03*
X28500Y228500D02*
D03*
X26000Y223500D02*
D03*
X28500Y218500D02*
D03*
X26000Y213500D02*
D03*
X28500Y208500D02*
D03*
X26000Y203500D02*
D03*
X23500Y248500D02*
D03*
X21000Y243500D02*
D03*
X23500Y238500D02*
D03*
X21000Y233500D02*
D03*
X23500Y228500D02*
D03*
X21000Y223500D02*
D03*
X23500Y218500D02*
D03*
X21000Y213500D02*
D03*
X23500Y208500D02*
D03*
X21000Y203500D02*
D03*
X18500Y248500D02*
D03*
X16000Y243500D02*
D03*
X18500Y238500D02*
D03*
X16000Y233500D02*
D03*
X18500Y228500D02*
D03*
X16000Y223500D02*
D03*
X18500Y218500D02*
D03*
X16000Y213500D02*
D03*
X18500Y208500D02*
D03*
X16000Y203500D02*
D03*
X13500Y248500D02*
D03*
X11000Y243500D02*
D03*
X13500Y238500D02*
D03*
X11000Y233500D02*
D03*
X13500Y228500D02*
D03*
X11000Y223500D02*
D03*
X13500Y218500D02*
D03*
X11000Y213500D02*
D03*
X13500Y208500D02*
D03*
X11000Y203500D02*
D03*
X8500Y248500D02*
D03*
X6000Y243500D02*
D03*
X8500Y238500D02*
D03*
X6000Y233500D02*
D03*
X8500Y228500D02*
D03*
X6000Y223500D02*
D03*
X8500Y218500D02*
D03*
X6000Y213500D02*
D03*
X8500Y208500D02*
D03*
X6000Y203500D02*
D03*
X3500Y248500D02*
D03*
X1000Y243500D02*
D03*
X3500Y238500D02*
D03*
X1000Y233500D02*
D03*
X3500Y228500D02*
D03*
X1000Y223500D02*
D03*
X3500Y218500D02*
D03*
X1000Y213500D02*
D03*
X3500Y208500D02*
D03*
X1000Y203500D02*
D03*
X-1500Y248500D02*
D03*
X-4000Y243500D02*
D03*
X-1500Y238500D02*
D03*
X-4000Y233500D02*
D03*
X-1500Y228500D02*
D03*
X-4000Y223500D02*
D03*
X-1500Y218500D02*
D03*
X-4000Y213500D02*
D03*
X-1500Y208500D02*
D03*
X-4000Y203500D02*
D03*
X-6500Y248500D02*
D03*
X-9000Y243500D02*
D03*
X-6500Y238500D02*
D03*
X-9000Y233500D02*
D03*
X-6500Y228500D02*
D03*
X-9000Y223500D02*
D03*
X-6500Y218500D02*
D03*
X-9000Y213500D02*
D03*
X-6500Y208500D02*
D03*
X-9000Y203500D02*
D03*
X-11500Y248500D02*
D03*
X-14000Y243500D02*
D03*
X-11500Y238500D02*
D03*
X-14000Y233500D02*
D03*
X-11500Y228500D02*
D03*
X-14000Y223500D02*
D03*
X-11500Y218500D02*
D03*
X-14000Y213500D02*
D03*
X-11500Y208500D02*
D03*
X-14000Y203500D02*
D03*
X-16500Y248500D02*
D03*
X-19000Y243500D02*
D03*
X-16500Y238500D02*
D03*
X-19000Y233500D02*
D03*
X-16500Y228500D02*
D03*
X-19000Y223500D02*
D03*
X-16500Y218500D02*
D03*
X-19000Y213500D02*
D03*
X-16500Y208500D02*
D03*
X-19000Y203500D02*
D03*
X-21500Y248500D02*
D03*
X-24000Y243500D02*
D03*
X-21500Y238500D02*
D03*
X-24000Y233500D02*
D03*
X-21500Y228500D02*
D03*
X-24000Y223500D02*
D03*
X-21500Y218500D02*
D03*
X-24000Y213500D02*
D03*
X-21500Y208500D02*
D03*
X-24000Y203500D02*
D03*
X-26500Y248500D02*
D03*
X-29000Y243500D02*
D03*
X-26500Y238500D02*
D03*
X-29000Y233500D02*
D03*
X-26500Y228500D02*
D03*
X-29000Y223500D02*
D03*
X-26500Y218500D02*
D03*
X-29000Y213500D02*
D03*
X-26500Y208500D02*
D03*
X-29000Y203500D02*
D03*
X-31500Y248500D02*
D03*
X-34000Y243500D02*
D03*
X-31500Y238500D02*
D03*
Y228500D02*
D03*
X-34000Y223500D02*
D03*
X-31500Y218500D02*
D03*
X-34000Y213500D02*
D03*
X-31500Y208500D02*
D03*
X-34000Y203500D02*
D03*
X-36500Y248500D02*
D03*
X-39000Y243500D02*
D03*
Y223500D02*
D03*
X-36500Y218500D02*
D03*
X-39000Y213500D02*
D03*
X-36500Y208500D02*
D03*
X-39000Y203500D02*
D03*
X-41500Y248500D02*
D03*
X-44000Y243500D02*
D03*
X-41500Y218500D02*
D03*
X-44000Y213500D02*
D03*
X-41500Y208500D02*
D03*
X-44000Y203500D02*
D03*
X-46500Y248500D02*
D03*
X-49000Y243500D02*
D03*
Y223500D02*
D03*
X-46500Y218500D02*
D03*
X-49000Y213500D02*
D03*
X-46500Y208500D02*
D03*
X-49000Y203500D02*
D03*
X-51500Y248500D02*
D03*
X-54000Y243500D02*
D03*
X-51500Y238500D02*
D03*
X-54000Y233500D02*
D03*
Y223500D02*
D03*
X-51500Y218500D02*
D03*
X-54000Y213500D02*
D03*
X-51500Y208500D02*
D03*
X-54000Y203500D02*
D03*
X-56500Y248500D02*
D03*
X-59000Y243500D02*
D03*
X-56500Y238500D02*
D03*
X-59000Y233500D02*
D03*
X-56500Y228500D02*
D03*
X-59000Y223500D02*
D03*
X-56500Y218500D02*
D03*
X-59000Y213500D02*
D03*
X-56500Y208500D02*
D03*
X-59000Y203500D02*
D03*
X88500Y188500D02*
D03*
X86000Y183500D02*
D03*
X88500Y178500D02*
D03*
X86000Y173500D02*
D03*
X88500Y168500D02*
D03*
X86000Y163500D02*
D03*
X88500Y158500D02*
D03*
X86000Y153500D02*
D03*
X88500Y148500D02*
D03*
X83500Y188500D02*
D03*
X81000Y183500D02*
D03*
X83500Y178500D02*
D03*
X81000Y173500D02*
D03*
X83500Y168500D02*
D03*
X81000Y163500D02*
D03*
X83500Y158500D02*
D03*
X81000Y153500D02*
D03*
X83500Y148500D02*
D03*
X78500Y188500D02*
D03*
X76000Y183500D02*
D03*
X78500Y178500D02*
D03*
X76000Y173500D02*
D03*
X78500Y168500D02*
D03*
X76000Y163500D02*
D03*
X78500Y158500D02*
D03*
X76000Y153500D02*
D03*
X78500Y148500D02*
D03*
X73500Y188500D02*
D03*
X71000Y183500D02*
D03*
X73500Y178500D02*
D03*
X71000Y173500D02*
D03*
X73500Y168500D02*
D03*
X71000Y163500D02*
D03*
X73500Y158500D02*
D03*
X71000Y153500D02*
D03*
X73500Y148500D02*
D03*
X68500Y188500D02*
D03*
X66000Y183500D02*
D03*
X68500Y178500D02*
D03*
X66000Y173500D02*
D03*
X68500Y168500D02*
D03*
X66000Y163500D02*
D03*
X68500Y158500D02*
D03*
X66000Y153500D02*
D03*
X68500Y148500D02*
D03*
X63500Y188500D02*
D03*
X61000Y183500D02*
D03*
X63500Y178500D02*
D03*
X61000Y173500D02*
D03*
X63500Y168500D02*
D03*
X61000Y163500D02*
D03*
X63500Y158500D02*
D03*
X61000Y153500D02*
D03*
X63500Y148500D02*
D03*
X58500Y188500D02*
D03*
X56000Y183500D02*
D03*
X58500Y178500D02*
D03*
X56000Y173500D02*
D03*
X58500Y168500D02*
D03*
X56000Y163500D02*
D03*
X58500Y158500D02*
D03*
X56000Y153500D02*
D03*
X58500Y148500D02*
D03*
X53500Y188500D02*
D03*
X51000Y183500D02*
D03*
X53500Y178500D02*
D03*
X51000Y173500D02*
D03*
X53500Y168500D02*
D03*
X51000Y163500D02*
D03*
X53500Y158500D02*
D03*
X51000Y153500D02*
D03*
X53500Y148500D02*
D03*
X48500Y188500D02*
D03*
X46000Y183500D02*
D03*
X48500Y178500D02*
D03*
X46000Y173500D02*
D03*
X48500Y168500D02*
D03*
X46000Y163500D02*
D03*
X48500Y158500D02*
D03*
X46000Y153500D02*
D03*
X48500Y148500D02*
D03*
X43500Y188500D02*
D03*
X41000Y183500D02*
D03*
X43500Y178500D02*
D03*
X41000Y173500D02*
D03*
X43500Y168500D02*
D03*
X41000Y163500D02*
D03*
X43500Y158500D02*
D03*
X41000Y153500D02*
D03*
X43500Y148500D02*
D03*
X38500Y188500D02*
D03*
X36000Y183500D02*
D03*
X38500Y178500D02*
D03*
X36000Y173500D02*
D03*
X38500Y168500D02*
D03*
X36000Y163500D02*
D03*
X38500Y158500D02*
D03*
X36000Y153500D02*
D03*
X38500Y148500D02*
D03*
X33500Y188500D02*
D03*
Y158500D02*
D03*
X31000Y153500D02*
D03*
X33500Y148500D02*
D03*
X28500Y188500D02*
D03*
Y158500D02*
D03*
X26000Y153500D02*
D03*
X28500Y148500D02*
D03*
X23500Y188500D02*
D03*
Y158500D02*
D03*
X21000Y153500D02*
D03*
X23500Y148500D02*
D03*
X18500Y188500D02*
D03*
Y158500D02*
D03*
X16000Y153500D02*
D03*
X18500Y148500D02*
D03*
X13500Y188500D02*
D03*
Y158500D02*
D03*
X11000Y153500D02*
D03*
X13500Y148500D02*
D03*
X8500Y188500D02*
D03*
X6000Y183500D02*
D03*
X8500Y178500D02*
D03*
X6000Y173500D02*
D03*
X8500Y168500D02*
D03*
X6000Y163500D02*
D03*
X8500Y158500D02*
D03*
X6000Y153500D02*
D03*
X8500Y148500D02*
D03*
X3500Y188500D02*
D03*
X1000Y183500D02*
D03*
X3500Y178500D02*
D03*
X1000Y173500D02*
D03*
X3500Y168500D02*
D03*
X1000Y163500D02*
D03*
X3500Y158500D02*
D03*
X1000Y153500D02*
D03*
X3500Y148500D02*
D03*
X-1500Y188500D02*
D03*
X-4000Y183500D02*
D03*
X-1500Y178500D02*
D03*
X-4000Y173500D02*
D03*
X-1500Y168500D02*
D03*
X-4000Y163500D02*
D03*
X-1500Y158500D02*
D03*
X-4000Y153500D02*
D03*
X-1500Y148500D02*
D03*
X-6500Y188500D02*
D03*
X-9000Y183500D02*
D03*
X-6500Y178500D02*
D03*
X-9000Y173500D02*
D03*
X-6500Y168500D02*
D03*
X-9000Y163500D02*
D03*
X-6500Y158500D02*
D03*
X-9000Y153500D02*
D03*
X-6500Y148500D02*
D03*
X-11500Y188500D02*
D03*
X-14000Y183500D02*
D03*
X-11500Y178500D02*
D03*
X-14000Y173500D02*
D03*
X-11500Y168500D02*
D03*
X-14000Y163500D02*
D03*
X-11500Y158500D02*
D03*
X-14000Y153500D02*
D03*
X-11500Y148500D02*
D03*
X-16500Y188500D02*
D03*
X-19000Y183500D02*
D03*
X-16500Y178500D02*
D03*
X-19000Y173500D02*
D03*
X-16500Y168500D02*
D03*
X-19000Y163500D02*
D03*
X-16500Y158500D02*
D03*
X-19000Y153500D02*
D03*
X-16500Y148500D02*
D03*
X-21500Y188500D02*
D03*
X-24000Y183500D02*
D03*
X-21500Y178500D02*
D03*
X-24000Y173500D02*
D03*
X-21500Y168500D02*
D03*
Y158500D02*
D03*
X-24000Y153500D02*
D03*
X-21500Y148500D02*
D03*
X-26500Y188500D02*
D03*
X-29000Y183500D02*
D03*
X-26500Y178500D02*
D03*
X-29000Y173500D02*
D03*
Y153500D02*
D03*
X-26500Y148500D02*
D03*
X-31500Y188500D02*
D03*
X-34000Y183500D02*
D03*
X-31500Y178500D02*
D03*
X-34000Y173500D02*
D03*
X-31500Y148500D02*
D03*
X-36500Y188500D02*
D03*
X-39000Y183500D02*
D03*
X-36500Y178500D02*
D03*
X-39000Y173500D02*
D03*
Y153500D02*
D03*
X-36500Y148500D02*
D03*
X-41500Y188500D02*
D03*
X-44000Y183500D02*
D03*
X-41500Y178500D02*
D03*
X-44000Y173500D02*
D03*
X-41500Y168500D02*
D03*
X-44000Y163500D02*
D03*
Y153500D02*
D03*
X-41500Y148500D02*
D03*
X-46500Y188500D02*
D03*
X-49000Y183500D02*
D03*
X-46500Y178500D02*
D03*
X-49000Y173500D02*
D03*
X-46500Y168500D02*
D03*
X-49000Y163500D02*
D03*
X-46500Y158500D02*
D03*
X-49000Y153500D02*
D03*
X-46500Y148500D02*
D03*
X-51500Y188500D02*
D03*
X-54000Y183500D02*
D03*
X-51500Y178500D02*
D03*
X-54000Y173500D02*
D03*
X-51500Y168500D02*
D03*
X-54000Y163500D02*
D03*
X-51500Y158500D02*
D03*
X-54000Y153500D02*
D03*
X-51500Y148500D02*
D03*
X-56500Y188500D02*
D03*
X-59000Y183500D02*
D03*
X-56500Y178500D02*
D03*
X-59000Y173500D02*
D03*
X-56500Y168500D02*
D03*
X-59000Y163500D02*
D03*
X-56500Y158500D02*
D03*
X-59000Y153500D02*
D03*
X-56500Y148500D02*
D03*
X86000Y128500D02*
D03*
X88500Y123500D02*
D03*
X86000Y118500D02*
D03*
X88500Y113500D02*
D03*
X86000Y108500D02*
D03*
X88500Y103500D02*
D03*
X86000Y98500D02*
D03*
X88500Y93500D02*
D03*
X86000Y88500D02*
D03*
X81000Y128500D02*
D03*
X83500Y123500D02*
D03*
X81000Y118500D02*
D03*
Y88500D02*
D03*
X76000Y128500D02*
D03*
X78500Y123500D02*
D03*
X76000Y118500D02*
D03*
Y88500D02*
D03*
X71000Y128500D02*
D03*
X73500Y123500D02*
D03*
X71000Y118500D02*
D03*
Y88500D02*
D03*
X66000Y128500D02*
D03*
X68500Y123500D02*
D03*
X66000Y118500D02*
D03*
Y88500D02*
D03*
X61000Y128500D02*
D03*
X63500Y123500D02*
D03*
X61000Y118500D02*
D03*
Y108500D02*
D03*
Y98500D02*
D03*
Y88500D02*
D03*
X56000Y128500D02*
D03*
X58500Y123500D02*
D03*
X56000Y118500D02*
D03*
X58500Y113500D02*
D03*
X56000Y108500D02*
D03*
X58500Y103500D02*
D03*
X56000Y98500D02*
D03*
X58500Y93500D02*
D03*
X56000Y88500D02*
D03*
X51000Y128500D02*
D03*
X53500Y123500D02*
D03*
X51000Y118500D02*
D03*
X53500Y113500D02*
D03*
X51000Y108500D02*
D03*
X53500Y103500D02*
D03*
X51000Y98500D02*
D03*
X53500Y93500D02*
D03*
X51000Y88500D02*
D03*
X46000Y128500D02*
D03*
X48500Y123500D02*
D03*
X46000Y118500D02*
D03*
X48500Y113500D02*
D03*
X46000Y108500D02*
D03*
X48500Y103500D02*
D03*
X46000Y98500D02*
D03*
X48500Y93500D02*
D03*
X46000Y88500D02*
D03*
X41000Y128500D02*
D03*
X43500Y123500D02*
D03*
X41000Y118500D02*
D03*
X43500Y113500D02*
D03*
X41000Y108500D02*
D03*
X43500Y103500D02*
D03*
X41000Y98500D02*
D03*
X43500Y93500D02*
D03*
X41000Y88500D02*
D03*
X36000Y128500D02*
D03*
X38500Y123500D02*
D03*
X36000Y118500D02*
D03*
X38500Y113500D02*
D03*
X36000Y108500D02*
D03*
X38500Y103500D02*
D03*
X36000Y98500D02*
D03*
X38500Y93500D02*
D03*
X36000Y88500D02*
D03*
X31000Y128500D02*
D03*
X33500Y123500D02*
D03*
X31000Y118500D02*
D03*
X33500Y113500D02*
D03*
X31000Y108500D02*
D03*
X33500Y103500D02*
D03*
X31000Y98500D02*
D03*
X33500Y93500D02*
D03*
X31000Y88500D02*
D03*
X26000Y128500D02*
D03*
X28500Y123500D02*
D03*
X26000Y118500D02*
D03*
X28500Y113500D02*
D03*
X26000Y108500D02*
D03*
X28500Y103500D02*
D03*
X26000Y98500D02*
D03*
X28500Y93500D02*
D03*
X26000Y88500D02*
D03*
X21000Y128500D02*
D03*
X23500Y123500D02*
D03*
X21000Y118500D02*
D03*
X23500Y113500D02*
D03*
X21000Y108500D02*
D03*
X23500Y103500D02*
D03*
X21000Y98500D02*
D03*
X23500Y93500D02*
D03*
X21000Y88500D02*
D03*
X16000Y128500D02*
D03*
X18500Y123500D02*
D03*
X16000Y118500D02*
D03*
X18500Y113500D02*
D03*
X16000Y108500D02*
D03*
X18500Y103500D02*
D03*
X16000Y98500D02*
D03*
X18500Y93500D02*
D03*
X16000Y88500D02*
D03*
X11000Y128500D02*
D03*
X13500Y123500D02*
D03*
X11000Y118500D02*
D03*
X13500Y113500D02*
D03*
X11000Y108500D02*
D03*
X13500Y103500D02*
D03*
X11000Y98500D02*
D03*
X13500Y93500D02*
D03*
X11000Y88500D02*
D03*
X6000Y128500D02*
D03*
X8500Y123500D02*
D03*
X6000Y118500D02*
D03*
X8500Y113500D02*
D03*
X6000Y108500D02*
D03*
X8500Y103500D02*
D03*
X6000Y98500D02*
D03*
X8500Y93500D02*
D03*
X6000Y88500D02*
D03*
X1000Y128500D02*
D03*
X3500Y123500D02*
D03*
X1000Y118500D02*
D03*
X3500Y113500D02*
D03*
X1000Y108500D02*
D03*
X3500Y103500D02*
D03*
X1000Y98500D02*
D03*
X3500Y93500D02*
D03*
X1000Y88500D02*
D03*
X-4000Y128500D02*
D03*
X-1500Y123500D02*
D03*
X-4000Y118500D02*
D03*
X-1500Y113500D02*
D03*
X-4000Y108500D02*
D03*
X-1500Y103500D02*
D03*
X-4000Y98500D02*
D03*
X-1500Y93500D02*
D03*
X-4000Y88500D02*
D03*
X-9000Y128500D02*
D03*
X-6500Y123500D02*
D03*
X-9000Y118500D02*
D03*
X-6500Y113500D02*
D03*
X-9000Y108500D02*
D03*
X-6500Y103500D02*
D03*
X-9000Y98500D02*
D03*
X-6500Y93500D02*
D03*
X-9000Y88500D02*
D03*
X-14000Y128500D02*
D03*
X-11500Y123500D02*
D03*
X-14000Y118500D02*
D03*
X-11500Y113500D02*
D03*
X-14000Y108500D02*
D03*
X-11500Y103500D02*
D03*
X-14000Y98500D02*
D03*
X-11500Y93500D02*
D03*
X-14000Y88500D02*
D03*
X-19000Y128500D02*
D03*
X-16500Y123500D02*
D03*
X-19000Y118500D02*
D03*
X-16500Y113500D02*
D03*
X-19000Y108500D02*
D03*
X-16500Y103500D02*
D03*
X-19000Y98500D02*
D03*
X-16500Y93500D02*
D03*
X-19000Y88500D02*
D03*
X-24000Y128500D02*
D03*
X-21500Y123500D02*
D03*
X-24000Y118500D02*
D03*
X-21500Y113500D02*
D03*
X-24000Y108500D02*
D03*
X-21500Y103500D02*
D03*
X-24000Y98500D02*
D03*
X-21500Y93500D02*
D03*
X-24000Y88500D02*
D03*
X-29000Y128500D02*
D03*
X-26500Y123500D02*
D03*
X-29000Y118500D02*
D03*
X-26500Y113500D02*
D03*
X-29000Y108500D02*
D03*
X-26500Y103500D02*
D03*
X-29000Y98500D02*
D03*
X-26500Y93500D02*
D03*
X-29000Y88500D02*
D03*
X-34000Y128500D02*
D03*
X-31500Y123500D02*
D03*
Y113500D02*
D03*
X-34000Y108500D02*
D03*
X-31500Y103500D02*
D03*
X-34000Y98500D02*
D03*
X-31500Y93500D02*
D03*
X-34000Y88500D02*
D03*
X-39000Y128500D02*
D03*
X-36500Y123500D02*
D03*
Y103500D02*
D03*
X-39000Y98500D02*
D03*
X-36500Y93500D02*
D03*
X-39000Y88500D02*
D03*
X-44000Y128500D02*
D03*
X-41500Y103500D02*
D03*
X-44000Y98500D02*
D03*
X-41500Y93500D02*
D03*
X-44000Y88500D02*
D03*
X-49000Y128500D02*
D03*
X-46500Y103500D02*
D03*
X-49000Y98500D02*
D03*
X-46500Y93500D02*
D03*
X-49000Y88500D02*
D03*
X-54000Y128500D02*
D03*
X-51500Y123500D02*
D03*
X-54000Y118500D02*
D03*
Y108500D02*
D03*
X-51500Y103500D02*
D03*
X-54000Y98500D02*
D03*
X-51500Y93500D02*
D03*
X-54000Y88500D02*
D03*
X-59000Y128500D02*
D03*
X-56500Y123500D02*
D03*
X-59000Y118500D02*
D03*
X-56500Y113500D02*
D03*
X-59000Y108500D02*
D03*
X-56500Y103500D02*
D03*
X-59000Y98500D02*
D03*
X-56500Y93500D02*
D03*
X-59000Y88500D02*
D03*
X86000Y68500D02*
D03*
X88500Y63500D02*
D03*
X86000Y58500D02*
D03*
X88500Y53500D02*
D03*
X86000Y48500D02*
D03*
X88500Y43500D02*
D03*
X86000Y38500D02*
D03*
X88500Y33500D02*
D03*
X86000Y28500D02*
D03*
X81000Y68500D02*
D03*
X83500Y63500D02*
D03*
X81000Y58500D02*
D03*
X83500Y53500D02*
D03*
X81000Y48500D02*
D03*
X83500Y43500D02*
D03*
X81000Y38500D02*
D03*
X83500Y33500D02*
D03*
X81000Y28500D02*
D03*
X76000Y68500D02*
D03*
X78500Y63500D02*
D03*
X76000Y58500D02*
D03*
X78500Y53500D02*
D03*
X76000Y48500D02*
D03*
X78500Y43500D02*
D03*
X76000Y38500D02*
D03*
X78500Y33500D02*
D03*
X76000Y28500D02*
D03*
X71000Y68500D02*
D03*
X73500Y63500D02*
D03*
X71000Y58500D02*
D03*
X73500Y53500D02*
D03*
X71000Y48500D02*
D03*
X73500Y43500D02*
D03*
X71000Y38500D02*
D03*
X73500Y33500D02*
D03*
X71000Y28500D02*
D03*
X66000Y68500D02*
D03*
X68500Y63500D02*
D03*
X66000Y58500D02*
D03*
X68500Y53500D02*
D03*
X66000Y48500D02*
D03*
X68500Y43500D02*
D03*
X66000Y38500D02*
D03*
X68500Y33500D02*
D03*
X66000Y28500D02*
D03*
X61000Y68500D02*
D03*
X63500Y63500D02*
D03*
X61000Y58500D02*
D03*
X63500Y53500D02*
D03*
X61000Y48500D02*
D03*
X63500Y43500D02*
D03*
X61000Y38500D02*
D03*
X63500Y33500D02*
D03*
X61000Y28500D02*
D03*
X56000Y68500D02*
D03*
X58500Y63500D02*
D03*
X56000Y58500D02*
D03*
X58500Y53500D02*
D03*
X56000Y48500D02*
D03*
X58500Y43500D02*
D03*
X56000Y38500D02*
D03*
X58500Y33500D02*
D03*
X56000Y28500D02*
D03*
X51000Y68500D02*
D03*
X53500Y63500D02*
D03*
X51000Y58500D02*
D03*
X53500Y53500D02*
D03*
X51000Y48500D02*
D03*
X53500Y43500D02*
D03*
X51000Y38500D02*
D03*
X53500Y33500D02*
D03*
X51000Y28500D02*
D03*
X46000Y68500D02*
D03*
X48500Y63500D02*
D03*
X46000Y58500D02*
D03*
X48500Y53500D02*
D03*
X46000Y48500D02*
D03*
X48500Y43500D02*
D03*
X46000Y38500D02*
D03*
X48500Y33500D02*
D03*
X46000Y28500D02*
D03*
X41000Y68500D02*
D03*
X43500Y63500D02*
D03*
X41000Y58500D02*
D03*
X43500Y53500D02*
D03*
X41000Y48500D02*
D03*
X43500Y43500D02*
D03*
X41000Y38500D02*
D03*
X43500Y33500D02*
D03*
X41000Y28500D02*
D03*
X36000Y68500D02*
D03*
X38500Y63500D02*
D03*
X36000Y58500D02*
D03*
X38500Y53500D02*
D03*
X36000Y48500D02*
D03*
X38500Y43500D02*
D03*
X36000Y38500D02*
D03*
X38500Y33500D02*
D03*
X36000Y28500D02*
D03*
X31000Y68500D02*
D03*
X33500Y43500D02*
D03*
X31000Y38500D02*
D03*
X33500Y33500D02*
D03*
X31000Y28500D02*
D03*
X26000Y68500D02*
D03*
Y38500D02*
D03*
X28500Y33500D02*
D03*
X26000Y28500D02*
D03*
X21000Y68500D02*
D03*
Y38500D02*
D03*
X23500Y33500D02*
D03*
X21000Y28500D02*
D03*
X16000Y68500D02*
D03*
Y38500D02*
D03*
X18500Y33500D02*
D03*
X16000Y28500D02*
D03*
X11000Y68500D02*
D03*
Y38500D02*
D03*
X13500Y33500D02*
D03*
X11000Y28500D02*
D03*
X6000Y68500D02*
D03*
X8500Y63500D02*
D03*
X6000Y58500D02*
D03*
X8500Y53500D02*
D03*
X6000Y48500D02*
D03*
X8500Y43500D02*
D03*
X6000Y38500D02*
D03*
X8500Y33500D02*
D03*
X6000Y28500D02*
D03*
X1000Y68500D02*
D03*
X3500Y63500D02*
D03*
X1000Y58500D02*
D03*
X3500Y53500D02*
D03*
X1000Y48500D02*
D03*
X3500Y43500D02*
D03*
X1000Y38500D02*
D03*
X3500Y33500D02*
D03*
X1000Y28500D02*
D03*
X-4000Y68500D02*
D03*
X-1500Y63500D02*
D03*
X-4000Y58500D02*
D03*
X-1500Y53500D02*
D03*
X-4000Y48500D02*
D03*
X-1500Y43500D02*
D03*
X-4000Y38500D02*
D03*
X-1500Y33500D02*
D03*
X-4000Y28500D02*
D03*
X-9000Y68500D02*
D03*
X-6500Y63500D02*
D03*
X-9000Y58500D02*
D03*
X-6500Y53500D02*
D03*
X-9000Y48500D02*
D03*
X-6500Y43500D02*
D03*
X-9000Y38500D02*
D03*
X-6500Y33500D02*
D03*
X-9000Y28500D02*
D03*
X-14000Y68500D02*
D03*
X-11500Y63500D02*
D03*
X-14000Y58500D02*
D03*
X-11500Y53500D02*
D03*
X-14000Y48500D02*
D03*
X-11500Y43500D02*
D03*
X-14000Y38500D02*
D03*
X-11500Y33500D02*
D03*
X-14000Y28500D02*
D03*
X-19000Y68500D02*
D03*
X-16500Y63500D02*
D03*
X-19000Y58500D02*
D03*
X-16500Y53500D02*
D03*
X-19000Y48500D02*
D03*
X-16500Y43500D02*
D03*
X-19000Y38500D02*
D03*
X-16500Y33500D02*
D03*
X-19000Y28500D02*
D03*
X-24000Y68500D02*
D03*
X-21500Y63500D02*
D03*
X-24000Y58500D02*
D03*
X-21500Y53500D02*
D03*
Y43500D02*
D03*
X-24000Y38500D02*
D03*
X-21500Y33500D02*
D03*
X-24000Y28500D02*
D03*
X-29000Y68500D02*
D03*
X-26500Y63500D02*
D03*
X-29000Y58500D02*
D03*
X-26500Y53500D02*
D03*
Y33500D02*
D03*
X-29000Y28500D02*
D03*
X-34000Y68500D02*
D03*
X-31500Y63500D02*
D03*
X-34000Y58500D02*
D03*
X-31500Y33500D02*
D03*
X-34000Y28500D02*
D03*
X-39000Y68500D02*
D03*
X-36500Y63500D02*
D03*
X-39000Y58500D02*
D03*
X-36500Y33500D02*
D03*
X-39000Y28500D02*
D03*
X-44000Y68500D02*
D03*
X-41500Y63500D02*
D03*
X-44000Y58500D02*
D03*
X-41500Y53500D02*
D03*
X-44000Y48500D02*
D03*
Y38500D02*
D03*
X-41500Y33500D02*
D03*
X-44000Y28500D02*
D03*
X-49000Y68500D02*
D03*
X-46500Y63500D02*
D03*
X-49000Y58500D02*
D03*
X-46500Y53500D02*
D03*
X-49000Y48500D02*
D03*
X-46500Y43500D02*
D03*
X-49000Y38500D02*
D03*
X-46500Y33500D02*
D03*
X-49000Y28500D02*
D03*
X-54000Y68500D02*
D03*
X-51500Y63500D02*
D03*
X-54000Y58500D02*
D03*
X-51500Y53500D02*
D03*
X-54000Y48500D02*
D03*
X-51500Y43500D02*
D03*
X-54000Y38500D02*
D03*
X-51500Y33500D02*
D03*
X-54000Y28500D02*
D03*
X-59000Y68500D02*
D03*
X-56500Y63500D02*
D03*
X-59000Y58500D02*
D03*
X-56500Y53500D02*
D03*
X-59000Y48500D02*
D03*
X-56500Y43500D02*
D03*
X-59000Y38500D02*
D03*
X-56500Y33500D02*
D03*
X-59000Y28500D02*
D03*
X111000Y8500D02*
D03*
Y-1500D02*
D03*
Y-11500D02*
D03*
Y-21500D02*
D03*
X108500Y13500D02*
D03*
X106000Y8500D02*
D03*
X108500Y3500D02*
D03*
Y-26500D02*
D03*
X106000Y-31500D02*
D03*
X103500Y13500D02*
D03*
X101000Y8500D02*
D03*
X103500Y3500D02*
D03*
Y-26500D02*
D03*
X101000Y-31500D02*
D03*
X98500Y13500D02*
D03*
X96000Y8500D02*
D03*
X98500Y3500D02*
D03*
Y-26500D02*
D03*
X96000Y-31500D02*
D03*
X93500Y13500D02*
D03*
X91000Y8500D02*
D03*
X93500Y3500D02*
D03*
Y-26500D02*
D03*
X91000Y-31500D02*
D03*
X88500Y13500D02*
D03*
X86000Y8500D02*
D03*
X88500Y3500D02*
D03*
Y-26500D02*
D03*
X86000Y-31500D02*
D03*
X83500Y13500D02*
D03*
X81000Y8500D02*
D03*
X83500Y3500D02*
D03*
X81000Y-1500D02*
D03*
X83500Y-6500D02*
D03*
X81000Y-11500D02*
D03*
X83500Y-16500D02*
D03*
X81000Y-21500D02*
D03*
X83500Y-26500D02*
D03*
X81000Y-31500D02*
D03*
X78500Y13500D02*
D03*
X76000Y8500D02*
D03*
X78500Y3500D02*
D03*
X76000Y-1500D02*
D03*
X78500Y-6500D02*
D03*
X76000Y-11500D02*
D03*
X78500Y-16500D02*
D03*
X76000Y-21500D02*
D03*
X78500Y-26500D02*
D03*
X76000Y-31500D02*
D03*
X73500Y13500D02*
D03*
X71000Y8500D02*
D03*
X73500Y3500D02*
D03*
X71000Y-1500D02*
D03*
X73500Y-6500D02*
D03*
X71000Y-11500D02*
D03*
X73500Y-16500D02*
D03*
X71000Y-21500D02*
D03*
X73500Y-26500D02*
D03*
X71000Y-31500D02*
D03*
X68500Y13500D02*
D03*
X66000Y8500D02*
D03*
X68500Y3500D02*
D03*
X66000Y-1500D02*
D03*
X68500Y-6500D02*
D03*
X66000Y-11500D02*
D03*
X68500Y-16500D02*
D03*
X66000Y-21500D02*
D03*
X68500Y-26500D02*
D03*
X66000Y-31500D02*
D03*
X63500Y13500D02*
D03*
X61000Y8500D02*
D03*
X63500Y3500D02*
D03*
X61000Y-1500D02*
D03*
X63500Y-6500D02*
D03*
X61000Y-11500D02*
D03*
X63500Y-16500D02*
D03*
X61000Y-21500D02*
D03*
X63500Y-26500D02*
D03*
X61000Y-31500D02*
D03*
X58500Y13500D02*
D03*
X56000Y8500D02*
D03*
X58500Y3500D02*
D03*
X56000Y-1500D02*
D03*
X58500Y-6500D02*
D03*
X56000Y-11500D02*
D03*
X58500Y-16500D02*
D03*
X56000Y-21500D02*
D03*
X58500Y-26500D02*
D03*
X56000Y-31500D02*
D03*
X53500Y13500D02*
D03*
X51000Y8500D02*
D03*
X53500Y3500D02*
D03*
X51000Y-1500D02*
D03*
X53500Y-6500D02*
D03*
X51000Y-11500D02*
D03*
X53500Y-16500D02*
D03*
X51000Y-21500D02*
D03*
X53500Y-26500D02*
D03*
X51000Y-31500D02*
D03*
X48500Y13500D02*
D03*
X46000Y8500D02*
D03*
X48500Y3500D02*
D03*
X46000Y-1500D02*
D03*
X48500Y-6500D02*
D03*
X46000Y-11500D02*
D03*
X48500Y-16500D02*
D03*
X46000Y-21500D02*
D03*
X48500Y-26500D02*
D03*
X46000Y-31500D02*
D03*
X43500Y13500D02*
D03*
X41000Y8500D02*
D03*
X43500Y3500D02*
D03*
X41000Y-1500D02*
D03*
X43500Y-6500D02*
D03*
X41000Y-11500D02*
D03*
X43500Y-16500D02*
D03*
X41000Y-21500D02*
D03*
X43500Y-26500D02*
D03*
X41000Y-31500D02*
D03*
X38500Y13500D02*
D03*
X36000Y8500D02*
D03*
X38500Y3500D02*
D03*
X36000Y-1500D02*
D03*
X38500Y-6500D02*
D03*
X36000Y-11500D02*
D03*
X38500Y-16500D02*
D03*
X36000Y-21500D02*
D03*
X38500Y-26500D02*
D03*
X36000Y-31500D02*
D03*
X33500Y13500D02*
D03*
X31000Y8500D02*
D03*
X33500Y3500D02*
D03*
X31000Y-1500D02*
D03*
X33500Y-6500D02*
D03*
X31000Y-11500D02*
D03*
X33500Y-16500D02*
D03*
X31000Y-21500D02*
D03*
X33500Y-26500D02*
D03*
X31000Y-31500D02*
D03*
X28500Y13500D02*
D03*
X26000Y8500D02*
D03*
X28500Y3500D02*
D03*
X26000Y-1500D02*
D03*
X28500Y-6500D02*
D03*
X26000Y-11500D02*
D03*
X28500Y-16500D02*
D03*
X26000Y-21500D02*
D03*
X28500Y-26500D02*
D03*
X26000Y-31500D02*
D03*
X23500Y13500D02*
D03*
X21000Y8500D02*
D03*
X23500Y3500D02*
D03*
Y-6500D02*
D03*
Y-16500D02*
D03*
X21000Y-21500D02*
D03*
X23500Y-26500D02*
D03*
X21000Y-31500D02*
D03*
X18500Y13500D02*
D03*
X16000Y8500D02*
D03*
X18500Y3500D02*
D03*
Y-16500D02*
D03*
X16000Y-21500D02*
D03*
X18500Y-26500D02*
D03*
X16000Y-31500D02*
D03*
X13500Y13500D02*
D03*
X11000Y8500D02*
D03*
X13500Y3500D02*
D03*
Y-16500D02*
D03*
X11000Y-21500D02*
D03*
X13500Y-26500D02*
D03*
X11000Y-31500D02*
D03*
X8500Y13500D02*
D03*
X6000Y8500D02*
D03*
X8500Y3500D02*
D03*
X6000Y-1500D02*
D03*
X8500Y-6500D02*
D03*
X6000Y-11500D02*
D03*
X8500Y-16500D02*
D03*
X6000Y-21500D02*
D03*
X8500Y-26500D02*
D03*
X6000Y-31500D02*
D03*
X3500Y13500D02*
D03*
X1000Y8500D02*
D03*
X3500Y3500D02*
D03*
X1000Y-1500D02*
D03*
X3500Y-6500D02*
D03*
X1000Y-11500D02*
D03*
X3500Y-16500D02*
D03*
X1000Y-21500D02*
D03*
X3500Y-26500D02*
D03*
X1000Y-31500D02*
D03*
X-1500Y13500D02*
D03*
X-4000Y8500D02*
D03*
X-1500Y3500D02*
D03*
X-4000Y-1500D02*
D03*
X-1500Y-6500D02*
D03*
X-4000Y-11500D02*
D03*
X-1500Y-16500D02*
D03*
X-4000Y-21500D02*
D03*
X-1500Y-26500D02*
D03*
X-4000Y-31500D02*
D03*
X-6500Y13500D02*
D03*
X-9000Y8500D02*
D03*
X-6500Y3500D02*
D03*
X-9000Y-1500D02*
D03*
X-6500Y-6500D02*
D03*
X-9000Y-11500D02*
D03*
X-6500Y-16500D02*
D03*
X-9000Y-21500D02*
D03*
X-6500Y-26500D02*
D03*
X-9000Y-31500D02*
D03*
X-11500Y13500D02*
D03*
Y3500D02*
D03*
Y-6500D02*
D03*
Y-16500D02*
D03*
Y-26500D02*
D03*
X111000Y-46500D02*
D03*
Y-56500D02*
D03*
Y-66500D02*
D03*
Y-76500D02*
D03*
Y-86500D02*
D03*
Y-96500D02*
D03*
Y-106500D02*
D03*
X106000Y-46500D02*
D03*
X108500Y-51500D02*
D03*
X106000Y-56500D02*
D03*
X108500Y-61500D02*
D03*
X106000Y-66500D02*
D03*
X108500Y-71500D02*
D03*
X106000Y-76500D02*
D03*
X108500Y-81500D02*
D03*
X106000Y-86500D02*
D03*
X108500Y-91500D02*
D03*
X106000Y-96500D02*
D03*
X108500Y-101500D02*
D03*
X106000Y-106500D02*
D03*
X108500Y-111500D02*
D03*
X106000Y-116500D02*
D03*
X101000Y-46500D02*
D03*
X103500Y-51500D02*
D03*
X101000Y-56500D02*
D03*
X103500Y-61500D02*
D03*
X101000Y-66500D02*
D03*
X103500Y-71500D02*
D03*
X101000Y-76500D02*
D03*
X103500Y-81500D02*
D03*
X101000Y-86500D02*
D03*
X103500Y-91500D02*
D03*
X101000Y-96500D02*
D03*
X103500Y-101500D02*
D03*
X101000Y-106500D02*
D03*
X103500Y-111500D02*
D03*
X101000Y-116500D02*
D03*
X96000Y-46500D02*
D03*
X98500Y-51500D02*
D03*
X96000Y-56500D02*
D03*
X98500Y-61500D02*
D03*
X96000Y-66500D02*
D03*
X98500Y-71500D02*
D03*
X96000Y-76500D02*
D03*
X98500Y-81500D02*
D03*
X96000Y-86500D02*
D03*
X98500Y-91500D02*
D03*
X96000Y-96500D02*
D03*
X98500Y-101500D02*
D03*
X96000Y-106500D02*
D03*
X98500Y-111500D02*
D03*
X96000Y-116500D02*
D03*
X91000Y-46500D02*
D03*
X93500Y-51500D02*
D03*
X91000Y-56500D02*
D03*
X93500Y-61500D02*
D03*
X91000Y-66500D02*
D03*
X93500Y-71500D02*
D03*
X91000Y-76500D02*
D03*
X93500Y-81500D02*
D03*
X91000Y-86500D02*
D03*
X93500Y-91500D02*
D03*
X91000Y-96500D02*
D03*
X93500Y-101500D02*
D03*
X91000Y-106500D02*
D03*
X93500Y-111500D02*
D03*
X91000Y-116500D02*
D03*
X86000Y-46500D02*
D03*
X88500Y-51500D02*
D03*
X86000Y-56500D02*
D03*
X88500Y-61500D02*
D03*
X86000Y-66500D02*
D03*
X88500Y-71500D02*
D03*
X86000Y-76500D02*
D03*
X88500Y-81500D02*
D03*
X86000Y-86500D02*
D03*
X88500Y-91500D02*
D03*
X86000Y-96500D02*
D03*
X88500Y-101500D02*
D03*
X86000Y-106500D02*
D03*
X88500Y-111500D02*
D03*
X86000Y-116500D02*
D03*
X81000Y-46500D02*
D03*
X83500Y-51500D02*
D03*
X81000Y-56500D02*
D03*
X83500Y-61500D02*
D03*
X81000Y-66500D02*
D03*
X83500Y-71500D02*
D03*
X81000Y-76500D02*
D03*
X83500Y-81500D02*
D03*
X81000Y-86500D02*
D03*
X83500Y-91500D02*
D03*
X81000Y-96500D02*
D03*
X83500Y-101500D02*
D03*
X81000Y-106500D02*
D03*
X83500Y-111500D02*
D03*
X81000Y-116500D02*
D03*
X76000Y-46500D02*
D03*
X78500Y-51500D02*
D03*
X76000Y-56500D02*
D03*
X78500Y-61500D02*
D03*
X76000Y-66500D02*
D03*
X78500Y-71500D02*
D03*
X76000Y-76500D02*
D03*
X78500Y-81500D02*
D03*
X76000Y-86500D02*
D03*
X78500Y-91500D02*
D03*
X76000Y-96500D02*
D03*
X78500Y-101500D02*
D03*
X76000Y-106500D02*
D03*
X78500Y-111500D02*
D03*
X76000Y-116500D02*
D03*
X71000Y-46500D02*
D03*
X73500Y-51500D02*
D03*
X71000Y-56500D02*
D03*
X73500Y-61500D02*
D03*
X71000Y-66500D02*
D03*
X73500Y-71500D02*
D03*
X71000Y-76500D02*
D03*
X73500Y-81500D02*
D03*
X71000Y-86500D02*
D03*
X73500Y-91500D02*
D03*
X71000Y-96500D02*
D03*
X73500Y-101500D02*
D03*
X71000Y-106500D02*
D03*
X73500Y-111500D02*
D03*
X71000Y-116500D02*
D03*
X66000Y-46500D02*
D03*
X68500Y-51500D02*
D03*
X66000Y-56500D02*
D03*
X68500Y-61500D02*
D03*
X66000Y-66500D02*
D03*
X68500Y-71500D02*
D03*
X66000Y-76500D02*
D03*
X68500Y-81500D02*
D03*
X66000Y-86500D02*
D03*
X68500Y-91500D02*
D03*
X66000Y-96500D02*
D03*
X68500Y-101500D02*
D03*
X66000Y-106500D02*
D03*
X68500Y-111500D02*
D03*
X66000Y-116500D02*
D03*
X61000Y-46500D02*
D03*
X63500Y-51500D02*
D03*
X61000Y-56500D02*
D03*
X63500Y-61500D02*
D03*
X61000Y-66500D02*
D03*
X63500Y-71500D02*
D03*
X61000Y-76500D02*
D03*
X63500Y-81500D02*
D03*
X61000Y-86500D02*
D03*
X63500Y-91500D02*
D03*
X61000Y-96500D02*
D03*
X63500Y-101500D02*
D03*
X61000Y-106500D02*
D03*
X63500Y-111500D02*
D03*
X61000Y-116500D02*
D03*
X56000Y-46500D02*
D03*
X58500Y-51500D02*
D03*
X56000Y-56500D02*
D03*
X58500Y-61500D02*
D03*
Y-71500D02*
D03*
X56000Y-76500D02*
D03*
X58500Y-81500D02*
D03*
X56000Y-86500D02*
D03*
X58500Y-91500D02*
D03*
X56000Y-96500D02*
D03*
X58500Y-101500D02*
D03*
Y-111500D02*
D03*
X56000Y-116500D02*
D03*
X51000Y-46500D02*
D03*
X53500Y-51500D02*
D03*
Y-71500D02*
D03*
X51000Y-76500D02*
D03*
X53500Y-81500D02*
D03*
X51000Y-86500D02*
D03*
X53500Y-91500D02*
D03*
X46000Y-46500D02*
D03*
Y-76500D02*
D03*
X48500Y-81500D02*
D03*
X46000Y-86500D02*
D03*
X48500Y-91500D02*
D03*
X41000Y-46500D02*
D03*
Y-76500D02*
D03*
X43500Y-81500D02*
D03*
X41000Y-86500D02*
D03*
X43500Y-91500D02*
D03*
X36000Y-46500D02*
D03*
X38500Y-51500D02*
D03*
X36000Y-76500D02*
D03*
X38500Y-81500D02*
D03*
X36000Y-86500D02*
D03*
X38500Y-91500D02*
D03*
X36000Y-96500D02*
D03*
Y-106500D02*
D03*
X23500Y-51500D02*
D03*
X21000Y-56500D02*
D03*
X23500Y-61500D02*
D03*
X21000Y-66500D02*
D03*
X23500Y-71500D02*
D03*
X21000Y-76500D02*
D03*
X23500Y-81500D02*
D03*
X21000Y-86500D02*
D03*
X23500Y-91500D02*
D03*
Y-101500D02*
D03*
Y-111500D02*
D03*
X16000Y-56500D02*
D03*
X18500Y-61500D02*
D03*
X16000Y-66500D02*
D03*
X18500Y-71500D02*
D03*
X16000Y-76500D02*
D03*
X18500Y-81500D02*
D03*
X16000Y-86500D02*
D03*
X18500Y-91500D02*
D03*
X11000Y-56500D02*
D03*
X13500Y-61500D02*
D03*
X11000Y-66500D02*
D03*
X13500Y-71500D02*
D03*
X11000Y-76500D02*
D03*
X13500Y-81500D02*
D03*
X11000Y-86500D02*
D03*
X13500Y-91500D02*
D03*
X6000Y-46500D02*
D03*
X8500Y-51500D02*
D03*
X6000Y-56500D02*
D03*
X8500Y-61500D02*
D03*
X6000Y-66500D02*
D03*
X8500Y-71500D02*
D03*
X6000Y-76500D02*
D03*
X8500Y-81500D02*
D03*
X6000Y-86500D02*
D03*
X8500Y-91500D02*
D03*
X6000Y-116500D02*
D03*
X1000Y-46500D02*
D03*
X3500Y-51500D02*
D03*
X1000Y-56500D02*
D03*
X3500Y-61500D02*
D03*
X1000Y-66500D02*
D03*
X3500Y-71500D02*
D03*
X1000Y-76500D02*
D03*
X3500Y-81500D02*
D03*
X1000Y-86500D02*
D03*
X3500Y-91500D02*
D03*
X1000Y-96500D02*
D03*
X3500Y-101500D02*
D03*
X1000Y-106500D02*
D03*
X3500Y-111500D02*
D03*
X1000Y-116500D02*
D03*
X-4000Y-46500D02*
D03*
X-1500Y-51500D02*
D03*
X-4000Y-56500D02*
D03*
X-1500Y-61500D02*
D03*
X-4000Y-66500D02*
D03*
X-1500Y-71500D02*
D03*
X-4000Y-76500D02*
D03*
X-1500Y-81500D02*
D03*
X-4000Y-86500D02*
D03*
X-1500Y-91500D02*
D03*
X-4000Y-96500D02*
D03*
X-1500Y-101500D02*
D03*
X-4000Y-106500D02*
D03*
X-1500Y-111500D02*
D03*
X-4000Y-116500D02*
D03*
X-9000Y-46500D02*
D03*
X-6500Y-51500D02*
D03*
X-9000Y-56500D02*
D03*
X-6500Y-61500D02*
D03*
X-9000Y-66500D02*
D03*
X-6500Y-71500D02*
D03*
X-9000Y-76500D02*
D03*
X-6500Y-81500D02*
D03*
X-9000Y-86500D02*
D03*
X-6500Y-91500D02*
D03*
X-9000Y-96500D02*
D03*
X-6500Y-101500D02*
D03*
X-9000Y-106500D02*
D03*
X-6500Y-111500D02*
D03*
X-9000Y-116500D02*
D03*
X-11500Y-51500D02*
D03*
Y-61500D02*
D03*
Y-71500D02*
D03*
Y-81500D02*
D03*
Y-91500D02*
D03*
Y-101500D02*
D03*
Y-111500D02*
D03*
X179750Y-189000D02*
D03*
X173500Y-201500D02*
D03*
X179750Y-214000D02*
D03*
X173500Y-226500D02*
D03*
X179750Y-239000D02*
D03*
X173500Y-251500D02*
D03*
X167250Y-189000D02*
D03*
X161000Y-201500D02*
D03*
X154750Y-189000D02*
D03*
X148500Y-201500D02*
D03*
X154750Y-214000D02*
D03*
X148500Y-226500D02*
D03*
Y-251500D02*
D03*
X142250Y-214000D02*
D03*
X136000Y-226500D02*
D03*
X142250Y-239000D02*
D03*
X136000Y-251500D02*
D03*
X129750Y-214000D02*
D03*
X123500Y-226500D02*
D03*
X129750Y-239000D02*
D03*
X123500Y-251500D02*
D03*
X117250Y-239000D02*
D03*
X104750D02*
D03*
X86000Y-251500D02*
D03*
X73500D02*
D03*
X67250Y-189000D02*
D03*
X61000Y-251500D02*
D03*
X54750Y-189000D02*
D03*
X48500Y-251500D02*
D03*
X42250Y-189000D02*
D03*
Y-239000D02*
D03*
X36000Y-251500D02*
D03*
X29750Y-189000D02*
D03*
Y-239000D02*
D03*
X23500Y-251500D02*
D03*
X17250Y-189000D02*
D03*
X11000Y-226500D02*
D03*
X17250Y-239000D02*
D03*
X11000Y-251500D02*
D03*
X4750Y-189000D02*
D03*
Y-239000D02*
D03*
X-1500Y-251500D02*
D03*
X-7750Y-189000D02*
D03*
Y-239000D02*
D03*
X-14000Y-251500D02*
D03*
X-20250Y-189000D02*
D03*
Y-239000D02*
D03*
X-26500Y-251500D02*
D03*
X-39000Y-176500D02*
D03*
X-32750Y-239000D02*
D03*
X-39000Y-251500D02*
D03*
X-51500Y-26500D02*
D03*
Y-51500D02*
D03*
Y-76500D02*
D03*
Y-101500D02*
D03*
Y-126500D02*
D03*
Y-151500D02*
D03*
Y-201500D02*
D03*
X-45250Y-239000D02*
D03*
X-51500Y-251500D02*
D03*
X-57750Y-14000D02*
D03*
X-64000Y-26500D02*
D03*
X-57750Y-39000D02*
D03*
X-64000Y-51500D02*
D03*
X-57750Y-64000D02*
D03*
X-64000Y-76500D02*
D03*
X-57750Y-89000D02*
D03*
X-64000Y-101500D02*
D03*
X-57750Y-114000D02*
D03*
X-64000Y-126500D02*
D03*
X-57750Y-139000D02*
D03*
X-64000Y-151500D02*
D03*
X-57750Y-189000D02*
D03*
X-64000Y-201500D02*
D03*
Y-226500D02*
D03*
X-57750Y-239000D02*
D03*
X-64000Y-251500D02*
D03*
X-70250Y-14000D02*
D03*
X-76500Y-26500D02*
D03*
X-70250Y-39000D02*
D03*
X-76500Y-51500D02*
D03*
X-70250Y-64000D02*
D03*
X-76500Y-76500D02*
D03*
X-70250Y-89000D02*
D03*
X-76500Y-101500D02*
D03*
X-70250Y-114000D02*
D03*
X-76500Y-126500D02*
D03*
X-70250Y-139000D02*
D03*
X-76500Y-176500D02*
D03*
X-70250Y-189000D02*
D03*
X-76500Y-201500D02*
D03*
Y-226500D02*
D03*
X-70250Y-239000D02*
D03*
X-76500Y-251500D02*
D03*
X-89000Y248500D02*
D03*
Y223500D02*
D03*
Y198500D02*
D03*
Y148500D02*
D03*
Y123500D02*
D03*
Y73500D02*
D03*
Y48500D02*
D03*
Y23500D02*
D03*
Y-1500D02*
D03*
X-82750Y-14000D02*
D03*
X-89000Y-26500D02*
D03*
X-82750Y-39000D02*
D03*
X-89000Y-51500D02*
D03*
X-82750Y-64000D02*
D03*
X-89000Y-76500D02*
D03*
X-82750Y-89000D02*
D03*
X-89000Y-101500D02*
D03*
X-82750Y-114000D02*
D03*
X-89000Y-126500D02*
D03*
X-82750Y-164000D02*
D03*
X-89000Y-176500D02*
D03*
X-82750Y-189000D02*
D03*
X-89000Y-201500D02*
D03*
X-82750Y-214000D02*
D03*
Y-239000D02*
D03*
X-89000Y-251500D02*
D03*
X-101500Y248500D02*
D03*
X-95250Y236000D02*
D03*
X-101500Y223500D02*
D03*
Y198500D02*
D03*
X-95250Y186000D02*
D03*
Y161000D02*
D03*
X-101500Y148500D02*
D03*
X-95250Y136000D02*
D03*
X-101500Y123500D02*
D03*
X-95250Y111000D02*
D03*
Y86000D02*
D03*
X-101500Y73500D02*
D03*
Y48500D02*
D03*
X-95250Y36000D02*
D03*
X-101500Y23500D02*
D03*
X-95250Y11000D02*
D03*
X-101500Y-1500D02*
D03*
X-95250Y-14000D02*
D03*
X-101500Y-26500D02*
D03*
X-95250Y-39000D02*
D03*
X-101500Y-51500D02*
D03*
X-95250Y-64000D02*
D03*
X-101500Y-76500D02*
D03*
X-95250Y-89000D02*
D03*
X-101500Y-101500D02*
D03*
X-95250Y-114000D02*
D03*
X-101500Y-151500D02*
D03*
X-95250Y-164000D02*
D03*
X-101500Y-176500D02*
D03*
X-95250Y-189000D02*
D03*
X-101500Y-201500D02*
D03*
X-95250Y-214000D02*
D03*
Y-239000D02*
D03*
X-101500Y-251500D02*
D03*
X-114000Y248500D02*
D03*
X-107750Y236000D02*
D03*
X-114000Y223500D02*
D03*
Y-26500D02*
D03*
X-107750Y-39000D02*
D03*
X-114000Y-51500D02*
D03*
X-107750Y-64000D02*
D03*
X-114000Y-76500D02*
D03*
X-107750Y-89000D02*
D03*
X-114000Y-101500D02*
D03*
X-107750Y-139000D02*
D03*
X-114000Y-151500D02*
D03*
X-107750Y-164000D02*
D03*
X-114000Y-176500D02*
D03*
X-107750Y-189000D02*
D03*
X-114000Y-201500D02*
D03*
X-107750Y-214000D02*
D03*
Y-239000D02*
D03*
X-114000Y-251500D02*
D03*
X-126500Y248500D02*
D03*
X-120250Y236000D02*
D03*
X-126500Y223500D02*
D03*
X-120250Y211000D02*
D03*
Y186000D02*
D03*
Y161000D02*
D03*
X-126500Y148500D02*
D03*
X-120250Y136000D02*
D03*
X-126500Y123500D02*
D03*
X-120250Y111000D02*
D03*
Y86000D02*
D03*
X-126500Y73500D02*
D03*
X-120250Y61000D02*
D03*
X-126500Y48500D02*
D03*
X-120250Y36000D02*
D03*
X-126500Y23500D02*
D03*
X-120250Y11000D02*
D03*
X-126500Y-1500D02*
D03*
X-120250Y-39000D02*
D03*
X-126500Y-51500D02*
D03*
X-120250Y-64000D02*
D03*
X-126500Y-76500D02*
D03*
X-120250Y-89000D02*
D03*
X-126500Y-126500D02*
D03*
X-120250Y-139000D02*
D03*
Y-164000D02*
D03*
Y-189000D02*
D03*
Y-214000D02*
D03*
X-126500Y-251500D02*
D03*
X-139000Y248500D02*
D03*
X-132750Y236000D02*
D03*
X-139000Y223500D02*
D03*
X-132750Y211000D02*
D03*
Y186000D02*
D03*
X-139000Y148500D02*
D03*
Y73500D02*
D03*
X-132750Y61000D02*
D03*
X-139000Y48500D02*
D03*
X-132750Y36000D02*
D03*
X-139000Y23500D02*
D03*
X-132750Y11000D02*
D03*
Y-14000D02*
D03*
X-139000Y-26500D02*
D03*
X-132750Y-114000D02*
D03*
Y-139000D02*
D03*
X-139000Y-151500D02*
D03*
X-132750Y-164000D02*
D03*
X-139000Y-201500D02*
D03*
X-132750Y-239000D02*
D03*
X-139000Y-251500D02*
D03*
X-145250Y236000D02*
D03*
X-151500Y223500D02*
D03*
X-145250Y211000D02*
D03*
X-151500Y198500D02*
D03*
X-145250Y186000D02*
D03*
X-151500Y173500D02*
D03*
Y148500D02*
D03*
Y123500D02*
D03*
Y98500D02*
D03*
Y73500D02*
D03*
Y23500D02*
D03*
Y-1500D02*
D03*
Y-26500D02*
D03*
Y-76500D02*
D03*
X-145250Y-89000D02*
D03*
X-151500Y-101500D02*
D03*
Y-126500D02*
D03*
Y-151500D02*
D03*
X-145250Y-164000D02*
D03*
Y-189000D02*
D03*
Y-214000D02*
D03*
X-151500Y-226500D02*
D03*
X-145250Y-239000D02*
D03*
X-151500Y-251500D02*
D03*
X-164000Y223500D02*
D03*
X-157750Y211000D02*
D03*
X-164000Y198500D02*
D03*
X-157750Y186000D02*
D03*
X-164000Y173500D02*
D03*
X-157750Y161000D02*
D03*
X-164000Y148500D02*
D03*
X-157750Y136000D02*
D03*
X-164000Y123500D02*
D03*
X-157750Y111000D02*
D03*
X-164000Y98500D02*
D03*
X-157750Y86000D02*
D03*
X-164000Y73500D02*
D03*
X-157750Y36000D02*
D03*
X-164000Y23500D02*
D03*
X-157750Y11000D02*
D03*
X-164000Y-1500D02*
D03*
X-157750Y-14000D02*
D03*
X-164000Y-26500D02*
D03*
X-157750Y-39000D02*
D03*
X-164000Y-51500D02*
D03*
X-157750Y-89000D02*
D03*
Y-164000D02*
D03*
X-164000Y-201500D02*
D03*
X-157750Y-214000D02*
D03*
X-176500Y248500D02*
D03*
Y223500D02*
D03*
X-170250Y211000D02*
D03*
X-176500Y198500D02*
D03*
X-170250Y186000D02*
D03*
X-176500Y173500D02*
D03*
X-170250Y161000D02*
D03*
X-176500Y148500D02*
D03*
X-170250Y136000D02*
D03*
X-176500Y123500D02*
D03*
X-170250Y111000D02*
D03*
X-176500Y98500D02*
D03*
X-170250Y86000D02*
D03*
X-176500Y73500D02*
D03*
Y48500D02*
D03*
X-170250Y36000D02*
D03*
X-176500Y23500D02*
D03*
X-170250Y11000D02*
D03*
X-176500Y-1500D02*
D03*
X-170250Y-14000D02*
D03*
X-176500Y-26500D02*
D03*
X-170250Y-39000D02*
D03*
X-176500Y-51500D02*
D03*
Y-76500D02*
D03*
Y-101500D02*
D03*
Y-126500D02*
D03*
Y-151500D02*
D03*
Y-176500D02*
D03*
X-170250Y-189000D02*
D03*
X-176500Y-201500D02*
D03*
X-170250Y-214000D02*
D03*
X-176500Y-226500D02*
D03*
Y-251500D02*
D03*
X67088Y-135125D02*
D03*
X27461Y-144986D02*
D03*
X2532Y-122676D02*
D03*
X47648Y-139986D02*
D03*
X-142925Y160831D02*
D03*
X-142172Y125346D02*
D03*
M02*
