M48
;Layer_Color=9474304
;FILE_FORMAT=2:5
INCH,LZ
;TYPE=PLATED
T1F00S00C0.01000
T2F00S00C0.03000
T3F00S00C0.03100
T4F00S00C0.04016
T5F00S00C0.04300
T6F00S00C0.04528
T7F00S00C0.04724
T8F00S00C0.07800
T9F00S00C0.08100
T10F00S00C0.08268
T11F00S00C0.12500
T12F00S00C0.15591
%
T01
X017975Y-0239
Y-0214
Y-0189
X016725
X015475
X0161Y-02015
X01735
Y-02265
Y-02515
X01485
X0136
X01235
X012975Y-0239
X014225
X01485Y-02265
X0136
X01235
X012975Y-0214
X014225
X015475
X01485Y-02015
X011725Y-0239
X010475
X0086Y-02515
X00735
X0061
X00485
X0036
X00235
X002975Y-0239
X004225
Y-0189
X005475
X006725
X002975
X0027461Y-0144986
X0047648Y-0139986
X0067088Y-0135125
X0066Y-01165
X0071
X0076
X0081
X0086
X0091
X0096
X0101
X0106
X0061
X0056
X0006
X0001
X-0004
X-0009
X0002532Y-0122676
X-00515Y-01265
X-0064
X-00765
X-0089
X-007025Y-0139
X-005775
X-00515Y-01515
X-0064
X-008275Y-0164
X-009525
X-010775
X-012025
X-013275
Y-0139
X-012025
X-010775
X-01015Y-01515
X-0114
Y-01765
X-01015
X-0089
X-00765
X-007025Y-0189
X-005775
X-00515Y-02015
X-0064
X-00765
X-0089
X-01015
X-0114
X-010775Y-0189
X-009525
X-008275
Y-0214
X-009525
X-010775
X-012025
Y-0189
X-010775Y-0239
X-009525
X-008275
X-007025
X-005775
X-004525
X-003275
X-002025
X-000775
X000475
X001725
X0011Y-02265
Y-02515
X-00015
X-0014
X-00265
X-0039
X-00515
X-0064
X-00765
X-0089
X-01015
X-0114
X-01265
X-013275Y-0239
X-00765Y-02265
X-0064
X-0039Y-01765
X-002025Y-0189
X-000775
X000475
X001725
X-01265Y-01265
X-01515
Y-01515
X-0139
X-014525Y-0164
X-015775
X-01765Y-01515
Y-01265
Y-01765
X-017025Y-0189
X-0164Y-02015
X-01765
X-017025Y-0214
X-015775
X-014525
X-0139Y-02015
X-014525Y-0189
X-01515Y-02265
X-014525Y-0239
X-0139Y-02515
X-01515
X-01765
Y-02265
Y-01015
X-01515
X-014525Y-0089
X-015775
X-01515Y-00765
X-01765
Y-00515
X-0164
X-015775Y-0039
X-017025
X-0164Y-00265
X-01515
X-0139
X-015775Y-0014
X-017025
X-0164Y-00015
X-01515
X-015775Y0011
X-017025
X-0164Y00235
X-01515
X-0139
X-015775Y0036
X-017025
X-01765Y00235
Y-00015
Y-00265
X-013275Y-0014
X-01265Y-00015
X-012025Y0011
X-013275
X-01265Y00235
X-012025Y0036
X-013275
X-009525
X-0089Y00235
X-01015
X-009525Y0011
X-0089Y-00015
X-01015
X-009525Y-0014
X-008275
X-007025
X-005775
X-00515Y-00265
X-0064
X-00765
X-0089
X-01015
X-0114
X-010775Y-0039
X-009525
X-008275
X-007025
X-005775
X-00515Y-00515
X-0064
X-00765
X-0089
X-01015
X-0114
X-01265
X-012025Y-0039
Y-0064
X-010775
X-009525
X-008275
X-007025
X-005775
X-00515Y-00765
X-0064
X-00765
X-0089
X-01015
X-0114
X-01265
X-012025Y-0089
X-010775
X-009525
X-008275
X-007025
X-005775
X-00515Y-01015
X-0064
X-00765
X-0089
X-01015
X-0114
X-009525Y-0114
X-008275
X-007025
X-005775
X-00115Y-01115
X-00065
X-00015
X00035
X0001Y-01065
X-0004
X-0009
X-00065Y-01015
X-00015
X00035
X0001Y-00965
X-0004
X-0009
X-00065Y-00915
X-00015
X00035
X00085
X00135
X00185
X0021Y-00865
X0016
X0011
X0006
X0001
X-0004
X-0009
X-00065Y-00815
X-00015
X00035
X00085
X00135
X00185
X0021Y-00765
X0016
X0011
X0006
X0001
X-0004
X-0009
X-00065Y-00715
X-00015
X00035
X00085
X00135
X00185
X0021Y-00665
X0016
X0011
X0006
X0001
X-0004
X-0009
X-00065Y-00615
X-00015
X00035
X00085
X00135
X00185
X0021Y-00565
X0016
X0011
X0006
X0001
X-0004
X-0009
X-00065Y-00515
X-00015
X00035
X00085
X0006Y-00465
X0001
X-0004
X-0009
X-00115Y-00515
Y-00615
Y-00715
Y-00815
Y-00915
Y-01015
X-0009Y-00315
X-0004
X0001
X0006
X0011
X0016
X0021
X00185Y-00265
X00135
X00085
X00035
X-00015
X-00065
X-00115
X-0009Y-00215
X-0004
X0001
X0006
X0011
X0016
X0021
X00185Y-00165
X00135
X00085
X00035
X-00015
X-00065
X-00115
X-0009Y-00115
X-0004
X0001
X0006
X00085Y-00065
X00035
X-00015
X-00065
X-00115
X-0009Y-00015
X-0004
X0001
X0006
X00085Y00035
X00135
X00185
X0021Y00085
X0016
X0011
X0006
X0001
X-0004
X-0009
X-00065Y00135
X-00015
X00035
X00085
X00135
X00185
X0021Y00285
X0016
X0011
X0006
X0001
X-0004
X-0009
X-0014
X-0019
X-0024
X-0029
X-0034
X-0039
X-0044
X-0049
X-0054
X-0059
X-00565Y00335
X-00515
X-00465
X-00415
X-00365
X-00315
X-00265
X-00215
X-00165
X-00115
X-00065
X-00015
X00035
X00085
X00135
X00185
X0021Y00385
X0016
X0011
X0006
X0001
X-0004
X-0009
X-0014
X-0019
X-0024
X-0044
X-0049
X-0054
X-0059
X-00115Y00135
Y00035
X-00065
X-00015
X00035
X-013275Y-0114
X00235Y-01115
Y-01015
Y-00915
Y-00815
Y-00715
Y-00615
Y-00515
X00385
X0041Y-00465
X0046
X0051
X0056
X0061
X0066
X0071
X0076
X0081
X0086
X0091
X0096
X0101
X0106
X0111
X01085Y-00515
X01035
X00985
X00935
X00885
X00835
X00785
X00735
X00685
X00635
X00585
X00535
X0056Y-00565
X0061
X0066
X0071
X0076
X0081
X0086
X0091
X0096
X0101
X0106
X0111
X01085Y-00615
X01035
X00985
X00935
X00885
X00835
X00785
X00735
X00685
X00635
X00585
X0061Y-00665
X0066
X0071
X0076
X0081
X0086
X0091
X0096
X0101
X0106
X0111
X01085Y-00715
X01035
X00985
X00935
X00885
X00835
X00785
X00735
X00685
X00635
X00585
X00535
X0056Y-00765
X0061
X0066
X0071
X0076
X0081
X0086
X0091
X0096
X0101
X0106
X0111
X01085Y-00815
X01035
X00985
X00935
X00885
X00835
X00785
X00735
X00685
X00635
X00585
X00535
X00485
X00435
X00385
X0041Y-00765
X0046
X0051
Y-00865
X0056
X0061
X0066
X0071
X0076
X0081
X0086
X0091
X0096
X0101
X0106
X0111
X01085Y-00915
X01035
X00985
X00935
X00885
X00835
X00785
X00735
X00685
X00635
X00585
X00535
X00485
X00435
X00385
X0041Y-00865
X0046
X0036
Y-00765
Y-00965
Y-01065
X0061
X0066
X0071
X0076
X0081
X0086
X0091
X0096
X0101
X0106
X0111
X01085Y-01015
X01035
X00985
X00935
X00885
X00835
X00785
X00735
X00685
X00635
X00585
X0061Y-00965
X0066
X0071
X0076
X0081
X0086
X0091
X0096
X0101
X0106
X0111
X01085Y-01115
X01035
X00985
X00935
X00885
X00835
X00785
X00735
X00685
X00635
X00585
X0056Y-00965
Y-00315
X0061
X0066
X0071
X0076
X0081
X0086
X0091
X0096
X0101
X0106
X01085Y-00265
X01035
X00985
X00935
X00885
X00835
X00785
X00735
X00685
X00635
X00585
X00535
X00485
X00435
X00385
X00335
X00285
X00235
X0026Y-00215
X0031
X0036
X0041
X0046
X0051
X0056
X0061
X0066
X0071
X0076
X0081
X00835Y-00165
X00785
X00735
X00685
X00635
X00585
X00535
X00485
X00435
X00385
X00335
X00285
X00235
X0026Y-00115
X0031
X0036
X0041
X0046
X0051
X0056
X0061
X0066
X0071
X0076
X0081
X00835Y-00065
X00785
X00735
X00685
X00635
X00585
X00535
X00485
X00435
X00385
X00335
X00285
X00235
X0026Y-00015
X0031
X0036
X0041
X0046
X0051
X0056
X0061
X0066
X0071
X0076
X0081
X00835Y00035
X00885
X00935
X00985
X01035
X01085
X0111Y00085
X0106
X0101
X0096
X0091
X0086
X0081
X0076
X0071
X0066
X0061
X0056
X0051
X0046
X0041
X0036
X0031
X0026
X00285Y00135
X00335
X00385
X00435
X00485
X00535
X00585
X00635
X00685
X00735
X00785
X00835
X00885
X00935
X00985
X01035
X01085
X0111Y-00015
Y-00115
Y-00215
X00785Y00035
X00735
X00685
X00635
X00585
X00535
X00485
X00435
X00385
X00335
X00285
X00235
Y00135
X0026Y00285
X0031
X0036
X0041
X0046
X0051
X0056
X0061
X0066
X0071
X0076
X0081
X0086
X00885Y00335
X00835
X00785
X00735
X00685
X00635
X00585
X00535
X00485
X00435
X00385
X00335
X00285
X00235
X0026Y00385
X0031
X0036
X0041
X0046
X0051
X0056
X0061
X0066
X0071
X0076
X0081
X0086
X0051Y-00315
X0046
X0041
X0036
X0031
X0026
X0036Y-00465
X00385Y00435
X00435
X00485
X00535
X00585
X00635
X00685
X00735
X00785
X00835
X00885
X0086Y00485
X0081
X0076
X0071
X0066
X0061
X0056
X0051
X0046
X0041
X0036
X00385Y00535
X00435
X00485
X00535
X00585
X00635
X00685
X00735
X00785
X00835
X00885
X0086Y00585
X0081
X0076
X0071
X0066
X0061
X0056
X0051
X0046
X0041
X0036
X00385Y00635
X00435
X00485
X00535
X00585
X00635
X00685
X00735
X00785
X00835
X00885
X0086Y00685
X0081
X0076
X0071
X0066
X0061
X0056
X0051
X0046
X0041
X0036
X0031
X0026
Y00885
X0031
X0036
X0041
X0046
X0051
X0056
X0061
X0066
X0071
X0076
X0081
X0086
X00885Y00935
X0086Y00985
X00885Y01035
X0086Y01085
X00885Y01135
X0086Y01185
X0081
X0076
X0071
X0066
X0061
X0056
X0051
X0046
X0041
X0036
X0031
X0026
X00285Y01235
X00335
X00385
X00435
X00485
X00535
X00585
X00635
X00685
X00735
X00785
X00835
X00885
X0086Y01285
X0081
X0076
X0071
X0066
X0061
X0056
X0051
X0046
X0041
X0036
X0031
X0026
X00235Y01235
Y01135
X00285
X00335
X00385
X00435
X00485
X00535
X00585
X0061Y01085
X0056
X0051
X0046
X0041
X0036
X0031
X0026
X00285Y01035
X00335
X00385
X00435
X00485
X00535
X00585
X0061Y00985
X0056
X0051
X0046
X0041
X0036
X0031
X0026
X00285Y00935
X00335
X00385
X00435
X00485
X00535
X00585
X00235
Y01035
Y01485
X00285
X00335
X00385
X00435
X00485
X00535
X00585
X00635
X00685
X00735
X00785
X00835
X00885
X0086Y01535
X0081
X0076
X0071
X0066
X0061
X0056
X0051
X0046
X0041
X0036
X0031
X0026
X00285Y01585
X00335
X00385
X00435
X00485
X00535
X00585
X00635
X00685
X00735
X00785
X00835
X00885
X0086Y01635
X0081
X0076
X0071
X0066
X0061
X0056
X0051
X0046
X0041
X0036
X00385Y01685
X00435
X00485
X00535
X00585
X00635
X00685
X00735
X00785
X00835
X00885
X0086Y01735
X0081
X0076
X0071
X0066
X0061
X0056
X0051
X0046
X0041
X0036
X00385Y01785
X00435
X00485
X00535
X00585
X00635
X00685
X00735
X00785
X00835
X00885
X0086Y01835
X0081
X0076
X0071
X0066
X0061
X0056
X0051
X0046
X0041
X0036
X00385Y01885
X00435
X00485
X00535
X00585
X00635
X00685
X00735
X00785
X00835
X00885
X00335
X00285
X00235
Y01585
X00335Y00435
X00085
X00035
X-00015
X-00065
X-00115
X-00165
X-00215
X-0019Y00485
X-0014
X-0009
X-0004
X0001
X0006
X00085Y00535
X00035
X-00015
X-00065
X-00115
X-00165
X-00215
X-00265
X-0024Y00585
X-0019
X-0014
X-0009
X-0004
X0001
X0006
X00085Y00635
X00035
X-00015
X-00065
X-00115
X-00165
X-00215
X-00265
X-00315
X-00365
X-00415
X-00465
X-00515
X-00565
X-0054Y00685
X-0049
X-0044
X-0039
X-0034
X-0029
X-0024
X-0019
X-0014
X-0009
X-0004
X0001
X0006
X0011
X0016
X0021
Y00885
X0016
X0011
X0006
X0001
X-0004
X-0009
X-0014
X-0019
X-0024
X-0029
X-0034
X-0039
X-0044
X-0049
X-0054
X-0059
X-00565Y00935
X-00515
X-00465
X-00415
X-00365
X-00315
X-00265
X-00215
X-00165
X-00115
X-00065
X-00015
X00035
X00085
X00135
X00185
X0021Y00985
X0016
X0011
X0006
X0001
X-0004
X-0009
X-0014
X-0019
X-0024
X-0029
X-0034
X-0039
X-0044
X-0049
X-0054
X-0059
X-00565Y01035
X-00515
X-00465
X-00415
X-00365
X-00315
X-00265
X-00215
X-00165
X-00115
X-00065
X-00015
X00035
X00085
X00135
X00185
X0021Y01085
X0016
X0011
X0006
X0001
X-0004
X-0009
X-0014
X-0019
X-0024
X-0029
X-0034
X-00315Y01135
X-00265
X-00215
X-00165
X-00115
X-00065
X-00015
X00035
X00085
X00135
X00185
X0021Y01185
X0016
X0011
X0006
X0001
X-0004
X-0009
X-0014
X-0019
X-0024
X-0029
X-00265Y01235
X-00215
X-00165
X-00115
X-00065
X-00015
X00035
X00085
X00135
X00185
X0021Y01285
X0016
X0011
X0006
X0001
X-0004
X-0009
X-0014
X-0019
X-0024
X-0029
X-0034
X-0039
X-0044
X-0049
X-0054
X-0059
X-00565Y01235
X-00515
X-0054Y01185
X-0059
X-00565Y01135
X-0054Y01085
X-0059
X-00365Y01235
X-00315
Y01485
X-00265
X-00215
X-00165
X-00115
X-00065
X-00015
X00035
X00085
X00135
X00185
X0021Y01535
X0016
X0011
X0006
X0001
X-0004
X-0009
X-0014
X-0019
X-0024
X-0029
X-0039
X-0044
X-0049
X-0054
X-0059
X-00565Y01585
X-00515
X-00465
X-0044Y01635
X-0049
X-0054
X-0059
X-00565Y01685
X-00515
X-00465
X-00415
X-0039Y01735
X-0034
X-0029
X-0024
X-0019
X-0014
X-0009
X-0004
X0001
X0006
X00085Y01785
X00035
X-00015
X-00065
X-00115
X-00165
X-00215
X-00265
X-00315
X-00365
X-00415
X-00465
X-00515
X-00565
X-0054Y01835
X-0049
X-0044
X-0039
X-0034
X-0029
X-0024
X-0019
X-0014
X-0009
X-0004
X0001
X0006
X00085Y01885
X00135
X00185
X00035
X-00015
X-00065
X-00115
X-00165
X-00215
X-00265
X-00315
X-00365
X-00415
X-00465
X-00515
X-00565
X-0059Y01835
Y01735
X-0054
X-0049
X-0044
X-00215Y01685
X-00165
X-00115
X-00065
X-00015
X00035
X00085
X0006Y01635
X0001
X-0004
X-0009
X-0014
X-0019
X-00165Y01585
X-00115
X-00065
X-00015
X00035
X00085
X00135
X00185
X-00215
X-00365Y01485
X-00415
X-00465
X-00515
X-00565
X-0089
X-01015
X-009525Y0161
Y0186
X-012025
X-013275
X-012025Y0161
X-01265Y01485
X-012025Y0136
X-01265Y01235
X-012025Y0111
X-009525
X-0089Y01235
X-01015
X-009525Y0136
Y0086
X-0089Y00735
X-01015
Y00485
X-0089
X-0059
X-0054
X-0049
X-0044
X-00415Y00535
X-00465
X-00515
X-00565
X-0054Y00585
X-0049
X-0044
X-0039
X-0034
X-0029
X-0059
Y00685
X-00565Y00435
X-00515
X-00465
X-01265Y00485
X-012025Y0061
X-013275
X-01265Y00735
X-012025Y0086
X-0139Y00735
X-01515
X-0164
X-01765
X-017025Y0086
X-015775
X-01515Y00985
X-0164
X-01765
X-017025Y0111
X-015775
X-01515Y01235
X-0142172Y0125346
X-0164Y01235
X-01765
X-017025Y0136
X-015775
X-01515Y01485
X-0139
X-0142925Y0160831
X-015775Y0161
X-017025
X-0164Y01735
X-01515
X-014525Y0186
X-015775
X-017025
X-01765Y01735
Y01485
X-0164
X-01765Y00485
X-0139
X-01515Y01985
X-0164
X-01765
X-017025Y0211
X-015775
X-014525
X-0139Y02235
X-01515
X-0164
X-01765
Y02485
X-0139
X-014525Y0236
X-013275
X-012025
X-010775
X-009525
X-0089Y02485
X-01015
X-0114
X-01265
Y02235
X-0114
X-01015
X-0089
Y01985
X-01015
X-012025Y0211
X-013275
X-0059Y02135
X-0054
X-0049
X-0044
X-0039
X-0034
X-0029
X-0024
X-0019
X-0014
X-0009
X-0004
X0001
X0006
X0011
X0016
X0021
X00185Y02185
X00135
X00085
X00035
X-00015
X-00065
X-00115
X-00165
X-00215
X-00265
X-00315
X-00365
X-00415
X-00465
X-00515
X-00565
X-0054Y02235
X-0049
X-0039
X-0034
X-0029
X-0024
X-0019
X-0014
X-0009
X-0004
X0001
X0006
X0011
X0016
X0021
X00185Y02285
X00135
X00085
X00035
X-00015
X-00065
X-00115
X-00165
X-00215
X-00265
X-00315
X-0029Y02335
X-0024
X-0019
X-0014
X-0009
X-0004
X0001
X0006
X0011
X0016
X0021
X00185Y02385
X00135
X00085
X00035
X-00015
X-00065
X-00115
X-00165
X-00215
X-00265
X-00315
X-0029Y02435
X-0024
X-0019
X-0014
X-0009
X-0004
X0001
X0006
X0011
X0016
X0021
X00185Y02485
X00135
X00085
X00035
X-00015
X-00065
X-00115
X-00165
X-00215
X-00265
X-00315
X-00365
X-00415
X-00465
X-00515
X-00565
X-0054Y02435
X-0049
X-0044
X-0039
X-0034
X-00515Y02385
X-00565
X-0054Y02335
X-0059
X-00565Y02285
X-0059Y02235
X-00565Y02085
X-00515
X-00465
X-00415
X-00365
X-00315
X-00265
X-00215
X-00165
X-00115
X-00065
X-00015
X00035
X00085
X00135
X00185
X0021Y02035
X0016
X0011
X0006
X0001
X-0004
X-0009
X-0014
X-0019
X-0024
X-0029
X-0034
X-0039
X-0044
X-0049
X-0054
X-0059
Y02435
X0026
X0031
X0036
X0041
X0046
X0051
X0056
X0061
X0066
X0071
X0076
X0081
X0086
X00885Y02485
X00835
X00785
X00735
X00685
X00635
X00585
X00535
X00485
X00435
X00385
X00335
X00285
X00235
Y02385
X00285
X00335
X00385
X00435
X00485
X00535
X00585
X00635
X00685
X00735
X00785
X00835
X00885
X0086Y02335
X00885Y02285
X0086Y02235
X00885Y02185
X0086Y02135
X00885Y02085
X00835
X00785
X00735
X00685
X00635
X00585
X00535
X00485
X00435
X00385
X00335
X00285
X00235
X0026Y02135
X0031
X0036
X0041
X0046
X0051
X0056
X0061
X00585Y02185
X00535
X00485
X00435
X00385
X00335
X00285
X00235
X0026Y02235
X0031
X0036
X0041
X0046
X0051
X0056
X0061
X00585Y02285
X00535
X00485
X00435
X00385
X00335
X00285
X00235
X0026Y02335
X0031
X0036
X0041
X0046
X0051
X0056
X0061
Y02035
X0066
X0071
X0076
X0081
X0086
X0056
X0051
X0046
X0041
X0036
X0031
X0026
T02
X0099039Y-0134649
T03
X0171962Y-0135046
T04
X0025Y-0222441
X0035
X0045
X0055
Y-0212441
X0045
X0035
X0025
X0015
Y-0222441
X0005
X-0005
X-0015
X-0025
X-0035
X-0045
X-0055
Y-0212441
X-0045
X-0035
X-0025
X-0015
X-0005
X0005
T05
X-0092887Y0059626
Y0099626
X-0093045Y0177855
Y0217855
T06
X-013588Y-0037028
Y-0005532
X0015695
Y-0047855
T07
X0088477Y-0211603
X0095957Y-0174201
X0155799
X017076Y-0211603
T08
X-0042887Y0114626
X-0043045Y0232855
T09
X-0032887Y0044626
X-0033045Y0162855
T10
X-0148704Y-0199904
Y-0175494
X-0148378Y-0140618
Y-0116208
T11
X0161417Y-0238189
X-0161417
X0161417Y0051181
X-0161417
Y0238189
X0161417
T12
X0045222Y-0062682
X0096474Y-0012421
X0073255Y0104784
X0022003Y0054523
Y0172634
X0073255Y0222894
M30
