M48
;Layer_Color=9474304
;FILE_FORMAT=2:5
INCH,LZ
;TYPE=PLATED
T1F00S00C0.01000
T2F00S00C0.01968
T3F00S00C0.02000
T4F00S00C0.02800
T5F00S00C0.03150
T6F00S00C0.03543
T7F00S00C0.03898
T8F00S00C0.04016
T9F00S00C0.05906
T10F00S00C0.07087
T11F00S00C0.12500
;TYPE=NON_PLATED
T12F00S00C0.10827
T13F00S00C0.12598
T14F00S00C0.12598
%
T01
X0051Y-02165
X0061
X0066013Y-0225921
X0086Y-02265
Y-02065
X0096
X0091Y-01965
X0081
X008424Y-0192511
X0076Y-01865
X0072392Y-0198
X007016Y-0196018
X0067928Y-0198
X0065696Y-0196018
X0063464Y-0198
X0061232Y-0196018
X0059Y-0198
X0051Y-01965
X0041
X0031
X0036Y-01865
X0046
X0056
X0061Y-01765
X0051
X0056Y-01665
X0046
X0036
X0026
X0031Y-01565
X0041
X0051
X0061
X0056Y-01465
X0046
X0036
X0026
X0031Y-01365
X0041
X0051
X0061
X0056Y-01265
X0046
X0051Y-01165
X0061
X0081
X0091
X0101
X0111
X0116Y-01265
X0111Y-01365
X0101
X0091
X0081
X0086Y-01265
X0076
Y-01465
X0086
X0106
X01215Y-01495
X0124277Y-014726
X0136Y-01465
X0141Y-01365
X0151
X0161
X0156Y-01265
X0146
X0141Y-01165
X0161
X0156Y-01465
X0161Y-01565
X0151
X0141
X0131
X0136Y-01665
X0126
X0123246Y-0176328
X0131Y-01765
X0146Y-01865
X0156359Y-0199602
X01641
X0171Y-02165
X0176Y-02265
Y-02465
X0171Y-02565
X0161
X0151
X0146Y-02465
X0130922Y-0234288
X0123181
X0129917Y-022735
X0137658
X0137156Y-0219106
X0144897
X0132619Y-0209722
X0111521Y-0212633
Y-0205598
Y-0219669
X0101605Y-0188225
X0106Y-01665
X0096
X0087023Y-0176328
X0076Y-01665
Y-02065
X0026Y-01865
X0031Y-01765
X0026Y-01265
X0031Y-01165
X0041
X0156Y-01665
X0161Y-01765
X0021
X0016Y-01665
X0006
X-0004
X-0014
X-0009Y-01565
X0001
X0011
X0021
X0016Y-01465
X0021Y-01365
X0011
X0001
X-0009
X-0019
X-0029
X-0039
X-0034Y-01465
X-0014
X-0004
Y-01265
X0001Y-01165
X0011
X0021
X-0009
X-0019
X-0029
X-0039
X-0044Y-01265
X-0024
X-0019Y-01565
X-0034Y-01665
X-0044
X-0054
X-0064
X-0074
X-0069Y-01765
X-0059
X-0049
X-0039
X-0029
X-0024Y-01865
X-0014
X-0009Y-01965
X-0019
X-0029
X-0039
X-0034Y-01865
X-0044
X-0054
X-0049Y-01565
X-0059
X-0054Y-01465
X-0064
X-0074
X-0069Y-01365
X-0059
X-0064Y-01265
X-0074
X-0084
X-0079Y-01165
X-0069
X-0059
X-0079Y-01365
X-0099
X-0104Y-01465
X-0102225Y-015352
X-0109Y-01565
X-0104Y-01665
X-0099Y-01765
X-0089
X-0099Y-01965
X-0109
X-0119
X-0129
X-0124Y-02065
X-0114
X-0104
X-0094
X-0099Y-02165
X-0109
X-0119
X-0129
X-0124Y-02265
X-0114
X-0104
X-0094
X-0084
X-0074
X-0069Y-02365
X-0079
X-0089
X-0099
X-0109
X-0119
X-0129
X-0124Y-02465
X-0129Y-02565
X-0119Y-01765
X-0124Y-01465
Y-01265
X-0119Y-01165
X-0109
X-0099
X-0129
X-0034Y-02065
X-0024
X-0005Y-0204
X0006Y-01865
X0016
X0021Y-01965
X0001Y-01765
X-0022304Y-023035
X-0031971Y-0231442
X-0041951Y-0232378
X-0134Y-02265
X-0144
X-0139Y-02165
X-0149
X-0144Y-02065
X-0134
X-0139Y-01965
X-0149
Y-01765
X-0144Y-01665
X-0149Y-01565
Y-0139504
X-0139Y-01365
X-0134Y-01265
X-0144
X-0139Y-01165
X-0161199Y-0114179
X-0179Y-01165
Y-01365
Y-01565
X-0174Y-01665
X-0179Y-01765
X-0174Y-01865
Y-02265
X-0179Y-02365
X-0174Y-02465
X-0169Y-02565
X-0159
X-0149
X-0139
X-0134Y-02465
X-0144
X-0139Y-02365
X-0179Y-02565
X-0169115Y-0110451
X-0171771Y-0099417
X-0179Y-00965
X-0174Y-00865
X-0179Y-00765
X-0174Y-00665
X-0179Y-00565
X-0174Y-00465
X-0179Y-00365
X-0174Y-00265
X-0179Y-00165
X-0174Y-00065
X-0179Y00035
X-0174Y00135
X-0179Y00235
X-0174Y00335
X-0144
X-0134
X-0139Y00235
X-0134Y00135
X-0144
X-0139Y00035
X-0149
X-0144Y-00065
X-0134
X-0139Y-00165
X-0149
X-0144Y-00265
X-0134
X-0143875Y-0041211
X-0149Y-00365
X-0134Y-00665
Y-00865
Y-01065
X-0147002Y-0101878
X-0150847Y-0095226
X-0129Y-00965
X-0119
X-0109
X-0099
X-0095432Y-0089675
X-0094Y-01065
X-0084
X-0074
X-0064
X-0059Y-00965
X-0069
X-0079
X-0064Y-00865
X-0044
X-0034
X-0024
X-0014
X-0019Y-00765
X-0029
X-0039
X-0049
X-0044Y-00665
X-0034
X-0024
X-0019Y-00565
X-0009
X0001
X0011
X0021
X0016Y-00665
X0006
X-0004
X0001Y-00765
X0006Y-00865
X0016
X0021Y-00765
Y-00965
X0011
X0001
X-0004Y-01065
X-0014
X-0024
X-0034
X-0044
X-0039Y-00965
X-0029
X-0019
X0016Y-01065
X0011Y-00365
X0001
X-0003629Y-0039471
X-0000235Y-0027599
X-0000492Y-0021614
X0001Y-00165
X0006Y-00065
X0011Y00035
X0021
X0016Y00135
X0006
X-0004
X-0011811Y000848
X-0014Y-00065
X-0024
X-0034
X-0044
X-0054
X-0064
X-0074
X-0084Y00135
X-0094
X-0089Y00235
X-0099
X-0094Y00335
X-0084
X-0104
X-0114
X-0129Y00235
X-0124Y00135
X-0119Y00035
X-0129
X-0124Y-00065
X-0114
X-0104
X-0119Y-00165
X-0129
Y-00765
X-0119
X-0114Y-00865
X-0124
Y-01065
X-0114
X-0104
X-0089Y-00765
X-0054Y-00665
Y-00265
X-0044
X-0034
X-0024
X-0014
X0016
X0021Y-00165
Y00235
X0011
X0001
X0006Y00335
X0016
X-0004
X-0014
X-0024
X-0019Y00235
X-0049
X-0054Y00335
Y00135
X-0050596Y0005295
X-0049Y-00165
X-0039
X0001Y00035
X0026Y00135
X0031Y00235
X0036Y00335
X0026
X0051Y00235
Y00035
X0041
X0036Y-00065
X0031Y-00165
X0046Y-00265
X0056
X0061Y-00165
X0081
X0091
X0096Y-00265
X0106
X0111Y-00165
X0121
X0126Y-00065
X0136
X0146
X0156
X0161Y00035
X0149626Y0006263
X0156Y00135
X0136
X0126
X0116
X0106
X0096
X0086
X0091Y00235
X0101
X0111
X0121
X0131
X0141
X0136Y00335
X0126
X0116
X0106
X0096
X0086
X0091Y00035
X0101
X0111
X0121
X0116Y-00065
X0106
X0086
X0076
Y-00265
X0086
X0091Y-00365
X0101
X0109004Y-0039851
X0096Y-00465
X0086
X0076
X0081Y-00365
Y-00565
X0091
X0086Y-00665
X0076
X0081Y-00765
X0091
X0101
X0111
X0117366Y-0077799
X0116Y-00865
X0106
X0111Y-00965
X0101
X0091
X0081
X0086Y-00865
X0076
Y-01065
X0086
X0106
X0136
X0141Y-00965
X0151
X0161
X0156Y-00865
X0161Y-00765
X0156Y-00665
X0146
X0151Y-00565
X0161
X0156Y-00465
X0161Y-00365
X0151
X0141
X0131
X0136Y-00265
X0146
X0156
X0161Y-00165
X0151
X0141
X0126Y-00265
X0136Y-00465
X0141Y-00565
Y-00765
X0136Y-00865
X0130587Y-0083123
X012868Y-0088274
X0124674Y-0084935
X0131Y-00965
X0156Y-01065
X0121Y-00565
X0061
X0051
X0041
X0031
X0036Y-00465
X0046
X0056
X0061Y-00365
X0051
X0041
X0026Y-00465
Y-00665
X0036
X0046
X0056
X0061Y-00765
X0051
X0056Y-00865
X0046
X0036
X0026
X0031Y-00765
Y-00965
X0041
X0051
X0061
X0056Y-01065
X0046
X0036
X0026
X0171Y00235
X0176Y00335
Y00535
X0171Y00635
X0176Y00735
X0166
X0171Y00835
X0176Y00935
X0166Y01135
Y01335
X0156
X0155006Y0127828
X0151Y01435
X0161
X0156Y01535
X0154545Y0165934
X0158536Y0167831
X0151Y01635
X0148196Y017599
X0144503Y017605
X0146Y01935
X0136
X0126
X0131Y01835
X0121
X0111
X0105949Y0182829
X0106Y01935
X0086
X0076
X0081Y01835
X0091
X0096Y01735
X0086339Y0168864
X0083738
X0081138
X0076Y01735
X0066
X0056
X0061Y01835
X0051
X0056Y01935
X0046
X0040012Y017256
X0028324Y017403
X0026485Y0175869
X0024647Y0177707
X0027999Y0152173
X0028325Y0143479
Y0133856
X0027215Y0123494
X0040898Y0107011
X0056Y01135
X0063359Y0116426
X0061Y01035
X0071
X0069204Y0095548
X0071383Y0093579
X0073273Y0091479
X0075307Y0089445
X0078316Y0085273
X0081219
X0083828
X0091Y00835
X0101
X0111
X0121
X0131
X0136Y00935
X0126
X0116
X0106
X0096
X0091Y01035
X0111
X0121
X0131
X0136Y01135
X0137988Y0121168
X0137999Y0124878
X0136Y01335
X0126
X0116
X0107361Y0132588
X0108715Y012521
X0104595Y0121168
X0106Y01135
X0116
X0126
X0131Y01435
X0130231Y0149604
X01225Y015
X0119702Y0149929
X011699
X0113359Y0154061
Y0160501
X0114877Y0163028
X01175Y01635
X01205Y0163
X0111Y01635
X0097761Y0157295
X0096972Y0147809
X0091613Y0146265
X00885Y01425
X0085738Y0151512
X0076Y01535
X0066
X0056
X0061Y01635
X0071
Y01435
X0061
X0051
X0056Y01335
X0051Y01635
X0107416Y014463
X0100463Y0136979
X0121Y01435
X0125489Y0153984
X0126Y01735
X0161Y01835
X0166Y01935
X0141Y01435
X0150556Y0100401
X0150011Y0084053
X0154007Y0081601
X0149647Y0077151
X0136Y00735
X0126
X0116
X0106
X0096
X0086
X0073Y0072
X0071Y0074
X0068571Y0079106
X0075034Y006993
X0057632Y0072425
X0055598Y0074459
X0053563Y0076494
X0051529Y0078528
X004173Y0082243
X0035509
X0026Y00735
Y00935
X0057439Y0090431
X0051Y00635
Y00435
X0031
X0036Y00535
X0026
X0086
X0096
X0106
X0116
X0126
X0131Y00635
X0121
Y00435
X0131
X0111
X0101
X0091
Y00635
X0101
X0016Y00735
X0006
X-0004
X-0014
X-0024
X-0019Y00835
X-0009
X-0004Y00935
X0006
X0016
X0011Y01035
X0001
X-0009
X-0019
X-0029
X-0039
X-0034Y01135
X-0024
X-0014
X-0004
X0006
X-0009Y01235
X-0019
X-0018503Y0137505
X-0020341Y0139344
X-002218Y0141182
X-0029Y01435
X-0039
X-0049
X-0048834Y0150676
X-0052385Y0150631
X-0054Y01535
X-0064
X-0074
X-0069Y01635
X-0079
X-0089
X-0099
X-0109
X-0104Y01735
X-0094
X-0084
X-0074
X-0060346Y0173599
X-0051643Y0173572
X-0048691Y0173593
X-0041867Y017572
X-0042848Y0169713
X-0039Y01635
X-0029
X-0031938Y0183443
X-0031815Y019325
X-0024Y01935
X-0014
X-0009Y01835
X0001
X0011
X002097Y0181384
X0022808Y0179546
X0016Y01935
X0006Y01735
X-0004
X-0019Y01835
X-0049
X-0062339Y0187935
Y0197748
X-007774Y0194067
X-0079Y01835
X-0089
X-0099
X-0109
X-0119
X-0129
X-0126977Y0194466
X-0114Y01935
X-0104
X-0114Y01735
Y01535
X-0104
X-0094
X-0089Y01435
X-0079
X-0069
X-0059
X-0054Y01335
X-0044
X-0034
X-0014826Y0133828
X-0016664Y0135667
X-0004Y01335
X0020583Y0133856
Y0143479
X0021868Y0156421
X0009653Y0148826
X0007583Y0150738
X-0053369Y0166009
X-0064Y01335
X-0074
X-0084
X-0094
X-0104
X-0114
X-0124
X-0119Y01435
X-0109
X-0099
Y01235
X-0109
X-0119
X-0114Y01135
X-0104
X-0099Y01035
X-0104Y00935
X-0114
X-0124
X-0119Y01035
X-0124Y01135
X-0074
X-0064
X-0054
X-0049Y01235
X-0059
X-0069
X-0079
X-0069Y01035
Y00835
X-0059
X-0049
X-0039
X-0029
X-0024Y00935
X-0014
X-0034
X-0044
X-0054
Y00735
X-0044
X-0049Y00635
X-0059
X-0069
X-0079
X-0089
X-0099
X-0094Y00535
X-0084
X-0074
X-0064
X-0054
X-0049Y00435
X-0059
X-0069
X-0079
X-0089
X-0099
X-0109
X-0104Y00535
X-0113518Y00629
X-01145Y00655
X-0122
X-0122125Y0062514
X-0104Y00735
X-0099Y00835
X-0089
X-0084Y00735
X-0074
X-0064
X-0034Y00535
X-0014
X-0004
X0001Y00435
X0011
X0021
X-0139
X-0149
X-0144Y00535
X-0149Y00635
X-0147419Y0073059
X-014263
X-0137842
X-0134Y00935
X-0144
X-0139Y01035
X-0134Y01135
X-0144
X-0139Y01235
X-0149
X-0144Y01335
X-0154
X-0164
X-0159Y01435
X-0149
X-0164Y01535
X-0174
X-0169Y01635
X-0179
X-0174Y01735
X-0164
X-0159Y01835
X-0169
X-0179
X-0174Y01935
X-0144
X-0164Y01135
X-0169Y01035
X-0179
X-0174Y00935
X-0179Y00835
X-0174Y00735
X-0169Y00635
X-0179
Y00435
X-0161863Y007689
Y0087025
X-0169Y02035
X-0179
X-0174Y02135
X-0164
X-0154
X-0144
X-0134
X-0139Y02235
X-0149
X-0159
X-0169
X-0179
Y02435
X-0174Y02535
X-0164
X-0154
X-0144
X-0134
X-0139Y02435
X-0134Y02335
X-0144
X-0139Y02035
X-0149
X-0129
X-0124Y02135
X-0129Y02235
Y02435
X-0114Y02335
X-0094
X-0084
X-0074
X-0064
X-0054
X-0059Y02235
X-0069
X-0079
X-0089
X-0084Y02135
X-0074
X-0094
X-0109Y02035
X-0089Y02435
X-0079
X-0074Y02535
X-0084
X-0042608Y0222593
X-0044Y02135
X-0046922Y0211705
X-0050226Y0205261
X-0043863Y0200891
X-0031631Y0203669
X-0019Y02035
X-0014Y02135
X-0024
Y02335
X-0014
X-0004
X0006
X0016
Y02135
X0021Y02035
X0026Y02135
X0039346Y0209253
X0041Y02035
X0044507Y0216893
X0056Y02135
X0058459Y0220146
X0066Y02135
X0076
X0086
X0096
X0106
X0116
X0126
X0131Y02235
X0141
X0151
X0161
X0171
X0176Y02335
Y02535
X0166
X0156
X0146
X0136
X0126
X0116
X0106
X0096
X0086
X0076
X0081Y02435
X0091
X0101
X0111
X0121
X0131
X0141
X0146Y02335
X0116
X0106
X0096
X0101Y02235
X0111
X0121
Y02035
X0111
X0101
X0091
X0081
X0071
X0061
X0066Y02335
X0076
X0081Y02235
X0091
X0071Y02435
X0056Y02335
X0046
X0026
X0141Y02035
X0151
X0161
T02
X-0175352Y0116764
Y0137236
X-0119736Y0252513
X-0099264
T03
X0133678Y0159172
X0137615
X0141552
Y0163109
Y0167046
X0137615
Y0163109
X0133678
Y0167046
T04
X-0105951Y0005134
X0165275Y00321
X0151512Y0091365
X0178979Y0100007
X-01304Y008983
X-0130245Y0073611
X-0056119Y0227401
T05
X0091896Y01964
X0101896
X0111896
X0121896
X0116896Y02064
X0106896
X0096896
X0126896
T06
X-0166417Y-0185551
X-0156417
Y-0175551
Y-0165551
Y-0155551
Y-0145551
Y-0135551
Y-0125551
Y-0115551
X-0166417
Y-0125551
Y-0135551
Y-0145551
Y-0155551
Y-0165551
Y-0175551
Y-0105551
X-0156417
Y-0095551
Y-0085551
Y-0075551
Y-0065551
Y-0055551
Y-0045551
Y-0035551
Y-0025551
Y-0015551
Y-0005551
Y0004449
X-0166417
Y-0005551
Y-0015551
Y-0025551
Y-0035551
Y-0045551
Y-0055551
Y-0065551
Y-0075551
Y-0085551
Y-0095551
T07
X0037795Y-0178858
Y-0161142
Y-0128858
X0012205
X-0012205
X-0037795
X0012205Y-0161142
Y-0178858
Y-0111142
X-0012205
X-0037795
X0012205Y-0078858
Y-0061142
X0037795
Y-0078858
Y-0111142
T08
X0025Y-0222441
Y-0212441
X0035
X0045
X0055
Y-0222441
X0045
X0035
X0015
Y-0212441
X0005
X-0005
X-0015
X-0025
X-0035
X-0045
X-0055
Y-0222441
X-0045
X-0035
X-0025
X-0015
X-0005
X0005
T09
X0095964Y-0220472
T10
X0108454Y-0190669
X0130108
Y-0127677
X0108454
Y-0064685
X0130108
T11
X0161417Y-0238189
X-0161417
X0161417Y0051181
X-0161417
Y0238189
X0161417
T12
X-0070866Y-0204724
X-0161417
Y0023622
X-0070866
T13
X0086896Y02314
X0131904
T14
X0146643Y-0208386
Y-0172953
Y-0145394
Y-0109961
Y-0082402
Y-0046969
M30
