G04*
G04 #@! TF.GenerationSoftware,Altium Limited,Altium Designer,18.0.11 (651)*
G04*
G04 Layer_Color=16711935*
%FSLAX25Y25*%
%MOIN*%
G70*
G01*
G75*
G04:AMPARAMS|DCode=124|XSize=90.55mil|YSize=177.17mil|CornerRadius=6.3mil|HoleSize=0mil|Usage=FLASHONLY|Rotation=270.000|XOffset=0mil|YOffset=0mil|HoleType=Round|Shape=RoundedRectangle|*
%AMROUNDEDRECTD124*
21,1,0.09055,0.16457,0,0,270.0*
21,1,0.07795,0.17717,0,0,270.0*
1,1,0.01260,-0.08228,-0.03898*
1,1,0.01260,-0.08228,0.03898*
1,1,0.01260,0.08228,0.03898*
1,1,0.01260,0.08228,-0.03898*
%
%ADD124ROUNDEDRECTD124*%
G04:AMPARAMS|DCode=125|XSize=90.55mil|YSize=177.17mil|CornerRadius=6.3mil|HoleSize=0mil|Usage=FLASHONLY|Rotation=180.000|XOffset=0mil|YOffset=0mil|HoleType=Round|Shape=RoundedRectangle|*
%AMROUNDEDRECTD125*
21,1,0.09055,0.16457,0,0,180.0*
21,1,0.07795,0.17717,0,0,180.0*
1,1,0.01260,-0.03898,0.08228*
1,1,0.01260,0.03898,0.08228*
1,1,0.01260,0.03898,-0.08228*
1,1,0.01260,-0.03898,-0.08228*
%
%ADD125ROUNDEDRECTD125*%
%ADD126C,0.26575*%
%ADD127R,0.06306X0.06306*%
%ADD128C,0.06306*%
%ADD129C,0.10243*%
%ADD130C,0.00400*%
%ADD131C,0.25400*%
%ADD132C,0.07487*%
%ADD133R,0.07487X0.07487*%
%ADD134C,0.05518*%
%ADD135R,0.05518X0.05518*%
%ADD162C,0.03900*%
D124*
X-175352Y116764D02*
D03*
Y137236D02*
D03*
D125*
X-119736Y252513D02*
D03*
X-99264D02*
D03*
D126*
X-161417Y23622D02*
D03*
X-70866D02*
D03*
X-161417Y-204724D02*
D03*
X-70866D02*
D03*
D127*
X-156417Y-185551D02*
D03*
D128*
Y-175551D02*
D03*
Y-165551D02*
D03*
Y-155551D02*
D03*
Y-145551D02*
D03*
Y-135551D02*
D03*
Y-125551D02*
D03*
Y-115551D02*
D03*
Y-105551D02*
D03*
Y-95551D02*
D03*
Y-85551D02*
D03*
Y-75551D02*
D03*
Y-65551D02*
D03*
Y-55551D02*
D03*
Y-45551D02*
D03*
Y-35551D02*
D03*
Y-25551D02*
D03*
Y-15551D02*
D03*
Y-5551D02*
D03*
Y4449D02*
D03*
X-166417Y-185551D02*
D03*
Y-175551D02*
D03*
Y-165551D02*
D03*
Y-155551D02*
D03*
Y-145551D02*
D03*
Y-135551D02*
D03*
Y-125551D02*
D03*
Y-115551D02*
D03*
Y-105551D02*
D03*
Y-95551D02*
D03*
Y-85551D02*
D03*
Y-75551D02*
D03*
Y-65551D02*
D03*
Y-55551D02*
D03*
Y-45551D02*
D03*
Y-35551D02*
D03*
Y-25551D02*
D03*
Y-15551D02*
D03*
Y-5551D02*
D03*
Y4449D02*
D03*
X37795Y-61142D02*
D03*
X12205D02*
D03*
Y-78858D02*
D03*
X37795D02*
D03*
X-37795Y-128858D02*
D03*
X-12205D02*
D03*
Y-111142D02*
D03*
X-37795D02*
D03*
X37795D02*
D03*
X12205D02*
D03*
Y-128858D02*
D03*
X37795D02*
D03*
Y-161142D02*
D03*
X12205D02*
D03*
Y-178858D02*
D03*
X37795D02*
D03*
D129*
X108454Y-190669D02*
D03*
X130108D02*
D03*
X108454Y-64685D02*
D03*
X130108D02*
D03*
X108454Y-127677D02*
D03*
X130108D02*
D03*
X95964Y-220472D02*
D03*
D130*
X146643Y-208386D02*
D03*
Y-172953D02*
D03*
Y-82402D02*
D03*
Y-46969D02*
D03*
Y-145394D02*
D03*
Y-109961D02*
D03*
X86896Y231400D02*
D03*
X131904D02*
D03*
D131*
X161417Y-238189D02*
D03*
X-161417D02*
D03*
X161417Y51181D02*
D03*
X-161417D02*
D03*
X161417Y238189D02*
D03*
X-161417D02*
D03*
D132*
X55000Y-212441D02*
D03*
X45000D02*
D03*
X35000D02*
D03*
X25000D02*
D03*
X15000D02*
D03*
X5000D02*
D03*
X-5000D02*
D03*
X-15000D02*
D03*
X-25000D02*
D03*
X-35000D02*
D03*
X-45000D02*
D03*
X-55000D02*
D03*
X55000Y-222441D02*
D03*
X45000D02*
D03*
X35000D02*
D03*
X25000D02*
D03*
X15000D02*
D03*
X5000D02*
D03*
X-5000D02*
D03*
X-15000D02*
D03*
X-25000D02*
D03*
X-35000D02*
D03*
X-45000D02*
D03*
D133*
X-55000D02*
D03*
D134*
X91896Y196400D02*
D03*
X96896Y206400D02*
D03*
X101896Y196400D02*
D03*
X106896Y206400D02*
D03*
X111896Y196400D02*
D03*
X116896Y206400D02*
D03*
X121896Y196400D02*
D03*
D135*
X126896Y206400D02*
D03*
D162*
X137615Y159172D02*
D03*
X141552Y167046D02*
D03*
Y163109D02*
D03*
Y159172D02*
D03*
X137615Y167046D02*
D03*
Y163109D02*
D03*
X133678Y167046D02*
D03*
Y163109D02*
D03*
Y159172D02*
D03*
M02*
