G04*
G04 #@! TF.GenerationSoftware,Altium Limited,Altium Designer,18.0.11 (651)*
G04*
G04 Layer_Color=8388736*
%FSLAX25Y25*%
%MOIN*%
G70*
G01*
G75*
%ADD74C,0.01500*%
%ADD75R,0.05400X0.02900*%
%ADD76R,0.03747X0.03156*%
%ADD77R,0.03943X0.08077*%
%ADD78R,0.12802X0.08077*%
%ADD79R,0.03550X0.03550*%
%ADD80C,0.03937*%
%ADD81R,0.03156X0.03747*%
%ADD82R,0.02762X0.01778*%
%ADD83R,0.04731X0.07093*%
G04:AMPARAMS|DCode=84|XSize=39.37mil|YSize=161.42mil|CornerRadius=3.74mil|HoleSize=0mil|Usage=FLASHONLY|Rotation=270.000|XOffset=0mil|YOffset=0mil|HoleType=Round|Shape=RoundedRectangle|*
%AMROUNDEDRECTD84*
21,1,0.03937,0.15394,0,0,270.0*
21,1,0.03189,0.16142,0,0,270.0*
1,1,0.00748,-0.07697,-0.01595*
1,1,0.00748,-0.07697,0.01595*
1,1,0.00748,0.07697,0.01595*
1,1,0.00748,0.07697,-0.01595*
%
%ADD84ROUNDEDRECTD84*%
G04:AMPARAMS|DCode=85|XSize=39.37mil|YSize=161.42mil|CornerRadius=3.74mil|HoleSize=0mil|Usage=FLASHONLY|Rotation=180.000|XOffset=0mil|YOffset=0mil|HoleType=Round|Shape=RoundedRectangle|*
%AMROUNDEDRECTD85*
21,1,0.03937,0.15394,0,0,180.0*
21,1,0.03189,0.16142,0,0,180.0*
1,1,0.00748,-0.01595,0.07697*
1,1,0.00748,0.01595,0.07697*
1,1,0.00748,0.01595,-0.07697*
1,1,0.00748,-0.01595,-0.07697*
%
%ADD85ROUNDEDRECTD85*%
%ADD86R,0.20085X0.20085*%
%ADD87R,0.05124X0.03943*%
%ADD88R,0.03943X0.05124*%
%ADD89R,0.03943X0.03550*%
%ADD90C,0.03400*%
%ADD91R,0.05912X0.04731*%
%ADD92R,0.04731X0.04731*%
%ADD93R,0.07487X0.04337*%
%ADD94R,0.03550X0.03943*%
%ADD95R,0.07093X0.04731*%
%ADD96R,0.02565X0.03550*%
%ADD97O,0.05321X0.02565*%
%ADD98R,0.03077X0.04022*%
%ADD99R,0.05715X0.01975*%
%ADD100R,0.06699X0.08668*%
%ADD101R,0.07880X0.07487*%
%ADD102R,0.07880X0.07880*%
G04:AMPARAMS|DCode=103|XSize=59.12mil|YSize=47.31mil|CornerRadius=0mil|HoleSize=0mil|Usage=FLASHONLY|Rotation=225.000|XOffset=0mil|YOffset=0mil|HoleType=Round|Shape=Rectangle|*
%AMROTATEDRECTD103*
4,1,4,0.00418,0.03763,0.03763,0.00418,-0.00418,-0.03763,-0.03763,-0.00418,0.00418,0.03763,0.0*
%
%ADD103ROTATEDRECTD103*%

G04:AMPARAMS|DCode=104|XSize=39.43mil|YSize=35.5mil|CornerRadius=0mil|HoleSize=0mil|Usage=FLASHONLY|Rotation=225.000|XOffset=0mil|YOffset=0mil|HoleType=Round|Shape=Rectangle|*
%AMROTATEDRECTD104*
4,1,4,0.00139,0.02649,0.02649,0.00139,-0.00139,-0.02649,-0.02649,-0.00139,0.00139,0.02649,0.0*
%
%ADD104ROTATEDRECTD104*%

G04:AMPARAMS|DCode=105|XSize=38.65mil|YSize=34.32mil|CornerRadius=0mil|HoleSize=0mil|Usage=FLASHONLY|Rotation=135.000|XOffset=0mil|YOffset=0mil|HoleType=Round|Shape=Rectangle|*
%AMROTATEDRECTD105*
4,1,4,0.02580,-0.00153,0.00153,-0.02580,-0.02580,0.00153,-0.00153,0.02580,0.02580,-0.00153,0.0*
%
%ADD105ROTATEDRECTD105*%

G04:AMPARAMS|DCode=106|XSize=38.65mil|YSize=30.38mil|CornerRadius=0mil|HoleSize=0mil|Usage=FLASHONLY|Rotation=225.000|XOffset=0mil|YOffset=0mil|HoleType=Round|Shape=Rectangle|*
%AMROTATEDRECTD106*
4,1,4,0.00292,0.02440,0.02440,0.00292,-0.00292,-0.02440,-0.02440,-0.00292,0.00292,0.02440,0.0*
%
%ADD106ROTATEDRECTD106*%

G04:AMPARAMS|DCode=107|XSize=37.47mil|YSize=31.56mil|CornerRadius=0mil|HoleSize=0mil|Usage=FLASHONLY|Rotation=45.000|XOffset=0mil|YOffset=0mil|HoleType=Round|Shape=Rectangle|*
%AMROTATEDRECTD107*
4,1,4,-0.00209,-0.02440,-0.02440,-0.00209,0.00209,0.02440,0.02440,0.00209,-0.00209,-0.02440,0.0*
%
%ADD107ROTATEDRECTD107*%

G04:AMPARAMS|DCode=108|XSize=37.47mil|YSize=31.56mil|CornerRadius=0mil|HoleSize=0mil|Usage=FLASHONLY|Rotation=135.000|XOffset=0mil|YOffset=0mil|HoleType=Round|Shape=Rectangle|*
%AMROTATEDRECTD108*
4,1,4,0.02440,-0.00209,0.00209,-0.02440,-0.02440,0.00209,-0.00209,0.02440,0.02440,-0.00209,0.0*
%
%ADD108ROTATEDRECTD108*%

%ADD109R,0.02959X0.03353*%
%ADD110R,0.16148X0.08274*%
%ADD111O,0.02565X0.06896*%
%ADD112R,0.09455X0.12605*%
%ADD113R,0.01339X0.04488*%
%ADD114R,0.04731X0.05912*%
%ADD115R,0.06306X0.04337*%
G04:AMPARAMS|DCode=116|XSize=74.87mil|YSize=35.5mil|CornerRadius=0mil|HoleSize=0mil|Usage=FLASHONLY|Rotation=45.000|XOffset=0mil|YOffset=0mil|HoleType=Round|Shape=Rectangle|*
%AMROTATEDRECTD116*
4,1,4,-0.01392,-0.03902,-0.03902,-0.01392,0.01392,0.03902,0.03902,0.01392,-0.01392,-0.03902,0.0*
%
%ADD116ROTATEDRECTD116*%

%ADD117R,0.02900X0.05400*%
G04:AMPARAMS|DCode=118|XSize=39.43mil|YSize=35.5mil|CornerRadius=0mil|HoleSize=0mil|Usage=FLASHONLY|Rotation=135.000|XOffset=0mil|YOffset=0mil|HoleType=Round|Shape=Rectangle|*
%AMROTATEDRECTD118*
4,1,4,0.02649,-0.00139,0.00139,-0.02649,-0.02649,0.00139,-0.00139,0.02649,0.02649,-0.00139,0.0*
%
%ADD118ROTATEDRECTD118*%

%ADD119R,0.03550X0.02368*%
%ADD120R,0.02368X0.03550*%
%ADD121R,0.13465X0.13465*%
%ADD122R,0.04409X0.01654*%
%ADD123R,0.01654X0.04409*%
G04:AMPARAMS|DCode=124|XSize=90.55mil|YSize=177.17mil|CornerRadius=6.3mil|HoleSize=0mil|Usage=FLASHONLY|Rotation=270.000|XOffset=0mil|YOffset=0mil|HoleType=Round|Shape=RoundedRectangle|*
%AMROUNDEDRECTD124*
21,1,0.09055,0.16457,0,0,270.0*
21,1,0.07795,0.17717,0,0,270.0*
1,1,0.01260,-0.08228,-0.03898*
1,1,0.01260,-0.08228,0.03898*
1,1,0.01260,0.08228,0.03898*
1,1,0.01260,0.08228,-0.03898*
%
%ADD124ROUNDEDRECTD124*%
G04:AMPARAMS|DCode=125|XSize=90.55mil|YSize=177.17mil|CornerRadius=6.3mil|HoleSize=0mil|Usage=FLASHONLY|Rotation=180.000|XOffset=0mil|YOffset=0mil|HoleType=Round|Shape=RoundedRectangle|*
%AMROUNDEDRECTD125*
21,1,0.09055,0.16457,0,0,180.0*
21,1,0.07795,0.17717,0,0,180.0*
1,1,0.01260,-0.03898,0.08228*
1,1,0.01260,0.03898,0.08228*
1,1,0.01260,0.03898,-0.08228*
1,1,0.01260,-0.03898,-0.08228*
%
%ADD125ROUNDEDRECTD125*%
%ADD126C,0.26575*%
%ADD127R,0.06306X0.06306*%
%ADD128C,0.06306*%
%ADD129C,0.10243*%
%ADD130C,0.00400*%
%ADD131C,0.25400*%
%ADD132C,0.07487*%
%ADD133R,0.07487X0.07487*%
%ADD134C,0.05518*%
%ADD135R,0.05518X0.05518*%
G36*
X130566Y156318D02*
X129642Y155393D01*
X126158Y155392D01*
Y157046D01*
X130568D01*
X130566Y156318D01*
D02*
G37*
G36*
X131552Y151652D02*
X129898D01*
X129899Y155136D01*
X130824Y156060D01*
X131552Y156061D01*
Y151652D01*
D02*
G37*
G36*
Y170156D02*
X130824Y170158D01*
X129899Y171082D01*
X129898Y174565D01*
X131552D01*
Y170156D01*
D02*
G37*
G36*
X129642Y170825D02*
X130566Y169899D01*
X130568Y169172D01*
X126158D01*
Y170826D01*
X129642Y170825D01*
D02*
G37*
G36*
X149072Y155392D02*
X145588Y155393D01*
X144664Y156318D01*
X144662Y157046D01*
X149072D01*
Y155392D01*
D02*
G37*
G36*
X144405Y156060D02*
X145331Y155136D01*
X145332Y151652D01*
X143678D01*
Y156061D01*
X144405Y156060D01*
D02*
G37*
G36*
X145331Y171082D02*
X144405Y170158D01*
X143678Y170156D01*
Y174565D01*
X145332D01*
X145331Y171082D01*
D02*
G37*
G36*
X149072Y169172D02*
X144662D01*
X144664Y169899D01*
X145588Y170825D01*
X149072Y170826D01*
Y169172D01*
D02*
G37*
D74*
X-133248Y-152854D02*
Y-149854D01*
X-133248Y-166098D02*
Y-163098D01*
X84285Y-185566D02*
Y-182566D01*
X83069Y-220472D02*
X86069D01*
X-86544Y202459D02*
Y205459D01*
X104374Y-153759D02*
X107374D01*
D75*
X-133248Y-149729D02*
D03*
Y-152929D02*
D03*
Y-156129D02*
D03*
X-133248Y-162972D02*
D03*
Y-166173D02*
D03*
Y-169372D02*
D03*
X84285Y-182441D02*
D03*
Y-185641D02*
D03*
Y-188841D02*
D03*
X-79711Y205731D02*
D03*
Y202187D02*
D03*
X-86544Y201959D02*
D03*
Y205959D02*
D03*
D76*
X-133307Y-180905D02*
D03*
Y-175984D02*
D03*
X-127655Y-175984D02*
D03*
Y-180905D02*
D03*
X144855Y5897D02*
D03*
Y10819D02*
D03*
X139359Y5897D02*
D03*
Y10819D02*
D03*
X-129149Y-140224D02*
D03*
Y-135302D02*
D03*
X-123936D02*
D03*
Y-140224D02*
D03*
X-72810Y-83925D02*
D03*
Y-79004D02*
D03*
X-77925Y-83925D02*
D03*
Y-79004D02*
D03*
X-83040Y-83925D02*
D03*
Y-79004D02*
D03*
X-67695Y-83925D02*
D03*
Y-79004D02*
D03*
X-134895Y-54946D02*
D03*
Y-59868D02*
D03*
X67518Y127360D02*
D03*
Y132282D02*
D03*
X62416D02*
D03*
Y127360D02*
D03*
X91746Y-185585D02*
D03*
Y-190506D02*
D03*
X96750Y-176403D02*
D03*
Y-181324D02*
D03*
X117170Y-107658D02*
D03*
Y-102736D02*
D03*
X83991Y-164192D02*
D03*
Y-169114D02*
D03*
X-88714Y-149459D02*
D03*
Y-154380D02*
D03*
X-83650Y-149459D02*
D03*
Y-154380D02*
D03*
X-88695Y-163417D02*
D03*
Y-168338D02*
D03*
X-22168Y45328D02*
D03*
Y50249D02*
D03*
D77*
X169277Y122252D02*
D03*
X160221D02*
D03*
X151166D02*
D03*
D78*
X160221Y100007D02*
D03*
D79*
X123150Y0D02*
D03*
X116850D02*
D03*
D80*
X-82615Y155396D02*
D03*
X111171Y63991D02*
D03*
X-23056Y-145084D02*
D03*
D81*
X106951Y149802D02*
D03*
X102029D02*
D03*
X106951Y164850D02*
D03*
X102029D02*
D03*
X96940Y137065D02*
D03*
X92019D02*
D03*
X-11228Y-22663D02*
D03*
X-6306D02*
D03*
X-11228Y-17595D02*
D03*
X-6306D02*
D03*
X96940Y142154D02*
D03*
X92019D02*
D03*
X103592Y-50741D02*
D03*
X108513D02*
D03*
X125716Y-50666D02*
D03*
X120795D02*
D03*
X121935Y-118609D02*
D03*
X117014D02*
D03*
X112331Y-112249D02*
D03*
X117253D02*
D03*
X86569Y-153537D02*
D03*
X91490D02*
D03*
X95509Y-153565D02*
D03*
X100430D02*
D03*
X-79569Y-158899D02*
D03*
X-74648D02*
D03*
X-88654Y-172896D02*
D03*
X-83733D02*
D03*
X-34315Y36481D02*
D03*
X-39236D02*
D03*
X-43473Y36478D02*
D03*
X-48395D02*
D03*
X5004Y51578D02*
D03*
X82D02*
D03*
D82*
X108329Y159883D02*
D03*
Y157324D02*
D03*
Y154765D02*
D03*
X100652D02*
D03*
Y157324D02*
D03*
Y159883D02*
D03*
D83*
X170542Y131193D02*
D03*
X160305D02*
D03*
X-44567Y48377D02*
D03*
X-34330D02*
D03*
D84*
X-176139Y127000D02*
D03*
D85*
X-109500Y253300D02*
D03*
D86*
X490Y202112D02*
D03*
D87*
X35376Y232560D02*
D03*
Y227560D02*
D03*
Y222560D02*
D03*
Y217560D02*
D03*
Y212560D02*
D03*
Y207560D02*
D03*
Y202560D02*
D03*
Y197560D02*
D03*
Y192560D02*
D03*
Y187560D02*
D03*
Y182560D02*
D03*
Y177560D02*
D03*
Y172560D02*
D03*
Y167560D02*
D03*
X-36624D02*
D03*
Y172560D02*
D03*
Y177560D02*
D03*
Y182560D02*
D03*
Y187560D02*
D03*
Y192560D02*
D03*
Y197560D02*
D03*
Y202560D02*
D03*
Y207560D02*
D03*
Y212560D02*
D03*
Y217560D02*
D03*
Y222560D02*
D03*
Y227560D02*
D03*
Y232560D02*
D03*
D88*
X21868Y161060D02*
D03*
X16868D02*
D03*
X11868D02*
D03*
X6868D02*
D03*
X1868D02*
D03*
X-3132D02*
D03*
X-8132D02*
D03*
X-13132D02*
D03*
X-18132D02*
D03*
X-23124D02*
D03*
D89*
X-95065Y-83859D02*
D03*
Y-78938D02*
D03*
X96804Y-185615D02*
D03*
Y-190536D02*
D03*
X111827Y-107616D02*
D03*
Y-102695D02*
D03*
X89491Y-164192D02*
D03*
Y-169114D02*
D03*
X-83631Y-163417D02*
D03*
Y-168338D02*
D03*
X-27206Y50256D02*
D03*
Y45335D02*
D03*
D90*
X-46049Y222578D02*
D03*
X40128Y163138D02*
D03*
X40529Y212610D02*
D03*
Y217501D02*
D03*
D91*
X-164107Y95687D02*
D03*
Y101198D02*
D03*
X-45143Y227671D02*
D03*
Y233183D02*
D03*
X-8197Y858D02*
D03*
Y-4654D02*
D03*
D92*
X-54942Y205502D02*
D03*
X-62029D02*
D03*
X-54942Y182039D02*
D03*
X-62028D02*
D03*
D93*
X-54840Y198626D02*
D03*
Y188784D02*
D03*
D94*
X99503Y127338D02*
D03*
X104424D02*
D03*
X151907Y174559D02*
D03*
X156828D02*
D03*
Y190470D02*
D03*
X151907D02*
D03*
X151907Y180325D02*
D03*
X156828D02*
D03*
X104366Y-176031D02*
D03*
X109287D02*
D03*
X-65527Y-158899D02*
D03*
X-70448D02*
D03*
X-83821Y-158898D02*
D03*
X-88742D02*
D03*
X-88687Y-143821D02*
D03*
X-83766D02*
D03*
X-34288Y41625D02*
D03*
X-39209D02*
D03*
X9829Y51578D02*
D03*
X14751D02*
D03*
D95*
X143384Y131404D02*
D03*
Y121168D02*
D03*
D96*
X-101744Y-86320D02*
D03*
X-109224D02*
D03*
Y-76477D02*
D03*
X-105484D02*
D03*
X-101744D02*
D03*
X104231Y-171172D02*
D03*
X96750D02*
D03*
Y-161133D02*
D03*
X100491D02*
D03*
X104231D02*
D03*
X-37980Y5154D02*
D03*
X-45461D02*
D03*
Y14997D02*
D03*
X-41721D02*
D03*
X-37980D02*
D03*
D97*
X-115352Y-130240D02*
D03*
Y-135240D02*
D03*
Y-140240D02*
D03*
Y-145240D02*
D03*
Y-150240D02*
D03*
Y-155240D02*
D03*
Y-160240D02*
D03*
X-94683Y-130240D02*
D03*
Y-135240D02*
D03*
Y-140240D02*
D03*
Y-145240D02*
D03*
Y-150240D02*
D03*
Y-155240D02*
D03*
Y-160240D02*
D03*
X93798Y112338D02*
D03*
Y117338D02*
D03*
Y122337D02*
D03*
Y127338D02*
D03*
X73129Y112338D02*
D03*
Y117338D02*
D03*
Y122337D02*
D03*
Y127338D02*
D03*
D98*
X156966Y185397D02*
D03*
X151769D02*
D03*
D99*
X167969Y172979D02*
D03*
Y162742D02*
D03*
Y165302D02*
D03*
Y170420D02*
D03*
Y167861D02*
D03*
D100*
X168461Y180066D02*
D03*
Y155656D02*
D03*
D101*
X178500Y152900D02*
D03*
Y182821D02*
D03*
D102*
Y163136D02*
D03*
Y172585D02*
D03*
D103*
X-132725Y156552D02*
D03*
X-128828Y152655D02*
D03*
D104*
X-107471Y232994D02*
D03*
X-103991Y229514D02*
D03*
D105*
X-150200Y169631D02*
D03*
X-146776Y173055D02*
D03*
X-146694Y166124D02*
D03*
X-143270Y169549D02*
D03*
X-143222Y162578D02*
D03*
X-139798Y166002D02*
D03*
X-139719Y159063D02*
D03*
X-136294Y162488D02*
D03*
D106*
X-110222Y235711D02*
D03*
X-113924Y239414D02*
D03*
D107*
X-107213Y220129D02*
D03*
X-110693Y223609D02*
D03*
D108*
X-110735Y229927D02*
D03*
X-114215Y226447D02*
D03*
D109*
X-34290Y31601D02*
D03*
X-30549Y22743D02*
D03*
X-38030D02*
D03*
D110*
X-23599Y459D02*
D03*
Y15026D02*
D03*
D111*
X-60605Y-25556D02*
D03*
X-65605D02*
D03*
X-70605D02*
D03*
X-75605D02*
D03*
X-80605D02*
D03*
X-85605D02*
D03*
X-90605D02*
D03*
X-95605D02*
D03*
X-100605D02*
D03*
X-105605D02*
D03*
X-110605D02*
D03*
X-115605D02*
D03*
X-120605D02*
D03*
X-125605D02*
D03*
X-60605Y-62367D02*
D03*
X-65605D02*
D03*
X-70605D02*
D03*
X-75605D02*
D03*
X-80605D02*
D03*
X-85605D02*
D03*
X-90605D02*
D03*
X-95605D02*
D03*
X-100605D02*
D03*
X-105605D02*
D03*
X-110605D02*
D03*
X-115605D02*
D03*
X-120605D02*
D03*
X-125605D02*
D03*
D112*
X-36024Y66929D02*
D03*
X36024D02*
D03*
D113*
X29528Y60236D02*
D03*
X27559D02*
D03*
X25591D02*
D03*
X23622D02*
D03*
X21654D02*
D03*
X19685D02*
D03*
X17717D02*
D03*
X15748D02*
D03*
X13780D02*
D03*
X11811D02*
D03*
X9843D02*
D03*
X7874D02*
D03*
X5906D02*
D03*
X3937D02*
D03*
X1969D02*
D03*
X0D02*
D03*
X-29528D02*
D03*
X-27559D02*
D03*
X-25591D02*
D03*
X-23622D02*
D03*
X-21654D02*
D03*
X-19685D02*
D03*
X-17717D02*
D03*
X-15748D02*
D03*
X-13780D02*
D03*
X-11811D02*
D03*
X-9843D02*
D03*
X-7874D02*
D03*
X-5906D02*
D03*
X-3937D02*
D03*
X-1968D02*
D03*
D114*
X-99892Y-18245D02*
D03*
X-105404D02*
D03*
D115*
X-154780Y127009D02*
D03*
Y119135D02*
D03*
Y111261D02*
D03*
Y103387D02*
D03*
Y95513D02*
D03*
Y87639D02*
D03*
Y79765D02*
D03*
Y71891D02*
D03*
X-89820Y127009D02*
D03*
Y119135D02*
D03*
Y111261D02*
D03*
Y103387D02*
D03*
Y95513D02*
D03*
Y87639D02*
D03*
Y79765D02*
D03*
Y71891D02*
D03*
D116*
X-122350Y159169D02*
D03*
X-125412Y162231D02*
D03*
X-128474Y165294D02*
D03*
X-131536Y168356D02*
D03*
X-134599Y171418D02*
D03*
X-137661Y174480D02*
D03*
X-140723Y177543D02*
D03*
X-149075Y185895D02*
D03*
X-152137Y188957D02*
D03*
X-155200Y192019D02*
D03*
X-158262Y195081D02*
D03*
X-161324Y198143D02*
D03*
X-128797Y230670D02*
D03*
X-125735Y227608D02*
D03*
X-122673Y224546D02*
D03*
X-119610Y221484D02*
D03*
X-116548Y218421D02*
D03*
X-108196Y210070D02*
D03*
X-105134Y207007D02*
D03*
X-102072Y203945D02*
D03*
X-99010Y200883D02*
D03*
X-95947Y197821D02*
D03*
X-92885Y194758D02*
D03*
X-89823Y191696D02*
D03*
D117*
X86569Y-220472D02*
D03*
X82569D02*
D03*
X110649Y-153759D02*
D03*
X107449D02*
D03*
X104249D02*
D03*
D118*
X-117149Y236284D02*
D03*
X-120629Y232804D02*
D03*
D119*
X-74107Y86040D02*
D03*
Y89189D02*
D03*
Y92339D02*
D03*
Y95489D02*
D03*
X-80800Y86040D02*
D03*
Y89189D02*
D03*
Y92339D02*
D03*
Y95489D02*
D03*
D120*
X-124950Y58988D02*
D03*
X-128099D02*
D03*
X-131249D02*
D03*
X-134399D02*
D03*
X-124950Y52296D02*
D03*
X-128099D02*
D03*
X-131249D02*
D03*
X-134399D02*
D03*
X-110392Y58988D02*
D03*
X-113542D02*
D03*
X-116691D02*
D03*
X-119841D02*
D03*
X-110392Y52296D02*
D03*
X-113542D02*
D03*
X-116691D02*
D03*
X-119841D02*
D03*
D121*
X137615Y163109D02*
D03*
D122*
X128363Y160156D02*
D03*
Y162125D02*
D03*
Y164093D02*
D03*
Y166062D02*
D03*
Y168030D02*
D03*
X146867D02*
D03*
Y166062D02*
D03*
Y164093D02*
D03*
Y162125D02*
D03*
Y160156D02*
D03*
Y158187D02*
D03*
X128363D02*
D03*
D123*
X132694Y172361D02*
D03*
X134662D02*
D03*
X136631D02*
D03*
X138599D02*
D03*
X140568D02*
D03*
X142536D02*
D03*
Y153857D02*
D03*
X140568D02*
D03*
X138599D02*
D03*
X136631D02*
D03*
X134662D02*
D03*
X132694D02*
D03*
D124*
X-175352Y116764D02*
D03*
Y137236D02*
D03*
D125*
X-119736Y252513D02*
D03*
X-99264D02*
D03*
D126*
X-161417Y23622D02*
D03*
X-70866D02*
D03*
X-161417Y-204724D02*
D03*
X-70866D02*
D03*
D127*
X-156417Y-185551D02*
D03*
D128*
Y-175551D02*
D03*
Y-165551D02*
D03*
Y-155551D02*
D03*
Y-145551D02*
D03*
Y-135551D02*
D03*
Y-125551D02*
D03*
Y-115551D02*
D03*
Y-105551D02*
D03*
Y-95551D02*
D03*
Y-85551D02*
D03*
Y-75551D02*
D03*
Y-65551D02*
D03*
Y-55551D02*
D03*
Y-45551D02*
D03*
Y-35551D02*
D03*
Y-25551D02*
D03*
Y-15551D02*
D03*
Y-5551D02*
D03*
Y4449D02*
D03*
X-166417Y-185551D02*
D03*
Y-175551D02*
D03*
Y-165551D02*
D03*
Y-155551D02*
D03*
Y-145551D02*
D03*
Y-135551D02*
D03*
Y-125551D02*
D03*
Y-115551D02*
D03*
Y-105551D02*
D03*
Y-95551D02*
D03*
Y-85551D02*
D03*
Y-75551D02*
D03*
Y-65551D02*
D03*
Y-55551D02*
D03*
Y-45551D02*
D03*
Y-35551D02*
D03*
Y-25551D02*
D03*
Y-15551D02*
D03*
Y-5551D02*
D03*
Y4449D02*
D03*
X37795Y-61142D02*
D03*
X12205D02*
D03*
Y-78858D02*
D03*
X37795D02*
D03*
X-37795Y-128858D02*
D03*
X-12205D02*
D03*
Y-111142D02*
D03*
X-37795D02*
D03*
X37795D02*
D03*
X12205D02*
D03*
Y-128858D02*
D03*
X37795D02*
D03*
Y-161142D02*
D03*
X12205D02*
D03*
Y-178858D02*
D03*
X37795D02*
D03*
D129*
X108454Y-190669D02*
D03*
X130108D02*
D03*
X108454Y-64685D02*
D03*
X130108D02*
D03*
X108454Y-127677D02*
D03*
X130108D02*
D03*
X95964Y-220472D02*
D03*
D130*
X146643Y-208386D02*
D03*
Y-172953D02*
D03*
Y-82402D02*
D03*
Y-46969D02*
D03*
Y-145394D02*
D03*
Y-109961D02*
D03*
X86896Y231400D02*
D03*
X131904D02*
D03*
D131*
X161417Y-238189D02*
D03*
X-161417D02*
D03*
X161417Y51181D02*
D03*
X-161417D02*
D03*
X161417Y238189D02*
D03*
X-161417D02*
D03*
D132*
X55000Y-212441D02*
D03*
X45000D02*
D03*
X35000D02*
D03*
X25000D02*
D03*
X15000D02*
D03*
X5000D02*
D03*
X-5000D02*
D03*
X-15000D02*
D03*
X-25000D02*
D03*
X-35000D02*
D03*
X-45000D02*
D03*
X-55000D02*
D03*
X55000Y-222441D02*
D03*
X45000D02*
D03*
X35000D02*
D03*
X25000D02*
D03*
X15000D02*
D03*
X5000D02*
D03*
X-5000D02*
D03*
X-15000D02*
D03*
X-25000D02*
D03*
X-35000D02*
D03*
X-45000D02*
D03*
D133*
X-55000D02*
D03*
D134*
X91896Y196400D02*
D03*
X96896Y206400D02*
D03*
X101896Y196400D02*
D03*
X106896Y206400D02*
D03*
X111896Y196400D02*
D03*
X116896Y206400D02*
D03*
X121896Y196400D02*
D03*
D135*
X126896Y206400D02*
D03*
M02*
