G04*
G04 #@! TF.GenerationSoftware,Altium Limited,Altium Designer,18.0.11 (651)*
G04*
G04 Layer_Physical_Order=2*
G04 Layer_Color=16711680*
%FSLAX25Y25*%
%MOIN*%
G70*
G01*
G75*
%ADD13C,0.01000*%
%ADD22C,0.00700*%
%ADD74C,0.01500*%
%ADD141C,0.00800*%
%ADD142C,0.02000*%
%ADD144C,0.06000*%
%ADD145C,0.05000*%
%ADD146C,0.03500*%
G04:AMPARAMS|DCode=148|XSize=86.61mil|YSize=173.23mil|CornerRadius=4.33mil|HoleSize=0mil|Usage=FLASHONLY|Rotation=270.000|XOffset=0mil|YOffset=0mil|HoleType=Round|Shape=RoundedRectangle|*
%AMROUNDEDRECTD148*
21,1,0.08661,0.16457,0,0,270.0*
21,1,0.07795,0.17323,0,0,270.0*
1,1,0.00866,-0.08228,-0.03898*
1,1,0.00866,-0.08228,0.03898*
1,1,0.00866,0.08228,0.03898*
1,1,0.00866,0.08228,-0.03898*
%
%ADD148ROUNDEDRECTD148*%
G04:AMPARAMS|DCode=149|XSize=86.61mil|YSize=173.23mil|CornerRadius=4.33mil|HoleSize=0mil|Usage=FLASHONLY|Rotation=180.000|XOffset=0mil|YOffset=0mil|HoleType=Round|Shape=RoundedRectangle|*
%AMROUNDEDRECTD149*
21,1,0.08661,0.16457,0,0,180.0*
21,1,0.07795,0.17323,0,0,180.0*
1,1,0.00866,-0.03898,0.08228*
1,1,0.00866,0.03898,0.08228*
1,1,0.00866,0.03898,-0.08228*
1,1,0.00866,-0.03898,-0.08228*
%
%ADD149ROUNDEDRECTD149*%
%ADD150C,0.23622*%
%ADD151R,0.05906X0.05906*%
%ADD152C,0.05906*%
%ADD153C,0.09843*%
%ADD154C,0.25000*%
%ADD155C,0.07087*%
%ADD156R,0.07087X0.07087*%
%ADD157C,0.05118*%
%ADD158R,0.05118X0.05118*%
%ADD159C,0.02000*%
%ADD160C,0.05000*%
%ADD161C,0.03500*%
G36*
X-69917Y238583D02*
X-69840Y238193D01*
X-69619Y237862D01*
X-69288Y237641D01*
X-68898Y237563D01*
X68898D01*
X69288Y237641D01*
X69619Y237862D01*
X69840Y238193D01*
X69917Y238583D01*
Y261185D01*
X177165Y261185D01*
X177840D01*
X179165Y260922D01*
X180412Y260405D01*
X181535Y259655D01*
X182490Y258700D01*
X183240Y257578D01*
X183756Y256330D01*
X184020Y255006D01*
X184020Y254331D01*
X184020Y-254331D01*
Y-255006D01*
X183756Y-256330D01*
X183240Y-257577D01*
X182490Y-258700D01*
X181535Y-259655D01*
X180412Y-260405D01*
X179165Y-260922D01*
X177840Y-261185D01*
X177165Y-261185D01*
X120000D01*
Y-238189D01*
X101535D01*
Y-220472D01*
X101533Y-220466D01*
X101344Y-219031D01*
X100787Y-217688D01*
X99902Y-216535D01*
X98749Y-215650D01*
X97406Y-215093D01*
X95964Y-214903D01*
X94523Y-215093D01*
X93180Y-215650D01*
X92027Y-216535D01*
X91142Y-217688D01*
X90585Y-219031D01*
X90396Y-220466D01*
X90394Y-220472D01*
Y-238189D01*
X-120000D01*
Y-261185D01*
X-177165D01*
X-177840D01*
X-179165Y-260922D01*
X-180412Y-260405D01*
X-181535Y-259655D01*
X-182490Y-258700D01*
X-183240Y-257578D01*
X-183756Y-256330D01*
X-184020Y-255006D01*
X-184020Y-254331D01*
X-184020Y111098D01*
X-183633Y111416D01*
X-183580Y111405D01*
X-175852D01*
Y116764D01*
Y122123D01*
X-183520D01*
X-183716Y122180D01*
X-184020Y122429D01*
Y131571D01*
X-183633Y131888D01*
X-183580Y131877D01*
X-175852D01*
Y137236D01*
Y142595D01*
X-183520D01*
X-183716Y142652D01*
X-184020Y142902D01*
Y254331D01*
Y255006D01*
X-183756Y256330D01*
X-183240Y257577D01*
X-182490Y258700D01*
X-181535Y259655D01*
X-180412Y260405D01*
X-179165Y260922D01*
X-177840Y261185D01*
X-177165Y261185D01*
X-125401D01*
X-125083Y260799D01*
X-125095Y260741D01*
Y253013D01*
X-119736D01*
X-114377D01*
Y260741D01*
X-114389Y260799D01*
X-114072Y261185D01*
X-104928D01*
X-104611Y260799D01*
X-104623Y260741D01*
Y253013D01*
X-99264D01*
X-93905D01*
Y260741D01*
X-93916Y260799D01*
X-93599Y261185D01*
X-69917D01*
Y238583D01*
D02*
G37*
G36*
X100886Y-259842D02*
X-100886D01*
Y-250000D01*
X91043D01*
Y-220472D01*
X100886D01*
Y-259842D01*
D02*
G37*
%LPC*%
G36*
X-93905Y252013D02*
X-98764D01*
Y242823D01*
X-95366D01*
X-94807Y242934D01*
X-94333Y243251D01*
X-94016Y243725D01*
X-93905Y244284D01*
Y252013D01*
D02*
G37*
G36*
X-99764D02*
X-104623D01*
Y244284D01*
X-104511Y243725D01*
X-104195Y243251D01*
X-103721Y242934D01*
X-103161Y242823D01*
X-99764D01*
Y252013D01*
D02*
G37*
G36*
X-114377D02*
X-119236D01*
Y242823D01*
X-115839D01*
X-115279Y242934D01*
X-114805Y243251D01*
X-114489Y243725D01*
X-114377Y244284D01*
Y252013D01*
D02*
G37*
G36*
X-120236D02*
X-125095D01*
Y244284D01*
X-124984Y243725D01*
X-124667Y243251D01*
X-124193Y242934D01*
X-123634Y242823D01*
X-120236D01*
Y252013D01*
D02*
G37*
G36*
X161417Y251329D02*
X159362Y251168D01*
X157357Y250686D01*
X155452Y249897D01*
X153694Y248820D01*
X152126Y247481D01*
X150786Y245913D01*
X149709Y244155D01*
X148920Y242250D01*
X148439Y240245D01*
X148277Y238189D01*
X148439Y236133D01*
X148920Y234128D01*
X149709Y232223D01*
X150786Y230465D01*
X152126Y228897D01*
X153694Y227558D01*
X155452Y226481D01*
X157357Y225692D01*
X159362Y225210D01*
X161417Y225048D01*
X163473Y225210D01*
X165478Y225692D01*
X167383Y226481D01*
X169141Y227558D01*
X170709Y228897D01*
X172048Y230465D01*
X173126Y232223D01*
X173915Y234128D01*
X174396Y236133D01*
X174558Y238189D01*
X174396Y240245D01*
X173915Y242250D01*
X173126Y244155D01*
X172048Y245913D01*
X170709Y247481D01*
X169141Y248820D01*
X167383Y249897D01*
X165478Y250686D01*
X163473Y251168D01*
X161417Y251329D01*
D02*
G37*
G36*
X-161417D02*
X-163473Y251168D01*
X-165478Y250686D01*
X-167383Y249897D01*
X-169141Y248820D01*
X-170709Y247481D01*
X-172048Y245913D01*
X-173126Y244155D01*
X-173915Y242250D01*
X-174396Y240245D01*
X-174558Y238189D01*
X-174396Y236133D01*
X-173915Y234128D01*
X-173126Y232223D01*
X-172048Y230465D01*
X-170709Y228897D01*
X-169141Y227558D01*
X-167383Y226481D01*
X-165478Y225692D01*
X-163473Y225210D01*
X-161417Y225048D01*
X-159362Y225210D01*
X-157357Y225692D01*
X-155452Y226481D01*
X-153694Y227558D01*
X-152126Y228897D01*
X-150786Y230465D01*
X-149709Y232223D01*
X-148920Y234128D01*
X-148439Y236133D01*
X-148277Y238189D01*
X-148439Y240245D01*
X-148920Y242250D01*
X-149709Y244155D01*
X-150786Y245913D01*
X-152126Y247481D01*
X-153694Y248820D01*
X-155452Y249897D01*
X-157357Y250686D01*
X-159362Y251168D01*
X-161417Y251329D01*
D02*
G37*
G36*
X131904Y238333D02*
X130552Y238199D01*
X129251Y237805D01*
X128052Y237164D01*
X127002Y236302D01*
X126140Y235251D01*
X125499Y234053D01*
X125105Y232752D01*
X124971Y231400D01*
X125105Y230047D01*
X125499Y228747D01*
X126140Y227548D01*
X127002Y226498D01*
X128052Y225636D01*
X129251Y224995D01*
X130552Y224601D01*
X131904Y224467D01*
X133256Y224601D01*
X134557Y224995D01*
X135756Y225636D01*
X136806Y226498D01*
X137668Y227548D01*
X138309Y228747D01*
X138703Y230047D01*
X138837Y231400D01*
X138703Y232752D01*
X138309Y234053D01*
X137668Y235251D01*
X136806Y236302D01*
X135756Y237164D01*
X134557Y237805D01*
X133256Y238199D01*
X131904Y238333D01*
D02*
G37*
G36*
X86896D02*
X85544Y238199D01*
X84243Y237805D01*
X83044Y237164D01*
X81994Y236302D01*
X81132Y235251D01*
X80491Y234053D01*
X80097Y232752D01*
X79963Y231400D01*
X80097Y230047D01*
X80491Y228747D01*
X81132Y227548D01*
X81994Y226498D01*
X83044Y225636D01*
X84243Y224995D01*
X85544Y224601D01*
X86896Y224467D01*
X88248Y224601D01*
X89549Y224995D01*
X90747Y225636D01*
X91798Y226498D01*
X92660Y227548D01*
X93301Y228747D01*
X93695Y230047D01*
X93829Y231400D01*
X93695Y232752D01*
X93301Y234053D01*
X92660Y235251D01*
X91798Y236302D01*
X90747Y237164D01*
X89549Y237805D01*
X88248Y238199D01*
X86896Y238333D01*
D02*
G37*
G36*
X44507Y218525D02*
X43883Y218400D01*
X43354Y218047D01*
X43000Y217517D01*
X42876Y216893D01*
X42907Y216735D01*
X38625Y212454D01*
X38404Y212123D01*
X38327Y211733D01*
Y210496D01*
X38193Y210407D01*
X37839Y209878D01*
X37715Y209253D01*
X37839Y208629D01*
X38193Y208100D01*
X38722Y207746D01*
X39346Y207622D01*
X39971Y207746D01*
X40500Y208100D01*
X40854Y208629D01*
X40978Y209253D01*
X40854Y209878D01*
X40500Y210407D01*
X40366Y210496D01*
Y211310D01*
X44349Y215293D01*
X44507Y215262D01*
X45131Y215386D01*
X45661Y215740D01*
X46014Y216269D01*
X46138Y216893D01*
X46014Y217517D01*
X45661Y218047D01*
X45131Y218400D01*
X44507Y218525D01*
D02*
G37*
G36*
X107396Y209924D02*
Y206900D01*
X110420D01*
X110363Y207329D01*
X110005Y208195D01*
X109434Y208938D01*
X108691Y209509D01*
X107825Y209867D01*
X107396Y209924D01*
D02*
G37*
G36*
X106396Y209924D02*
X105967Y209867D01*
X105101Y209509D01*
X104358Y208938D01*
X103787Y208195D01*
X103428Y207329D01*
X103372Y206900D01*
X106396D01*
Y209924D01*
D02*
G37*
G36*
X96896Y209586D02*
X96071Y209478D01*
X95303Y209159D01*
X94643Y208653D01*
X94137Y207993D01*
X93818Y207225D01*
X93710Y206400D01*
X93818Y205575D01*
X94137Y204807D01*
X94643Y204147D01*
X95303Y203641D01*
X96071Y203322D01*
X96896Y203214D01*
X97721Y203322D01*
X98489Y203641D01*
X99149Y204147D01*
X99655Y204807D01*
X99974Y205575D01*
X100082Y206400D01*
X99974Y207225D01*
X99655Y207993D01*
X99149Y208653D01*
X98489Y209159D01*
X97721Y209478D01*
X96896Y209586D01*
D02*
G37*
G36*
X106396Y205900D02*
X103372D01*
X103428Y205471D01*
X103787Y204605D01*
X104358Y203862D01*
X105101Y203291D01*
X105967Y202933D01*
X106396Y202876D01*
Y205900D01*
D02*
G37*
G36*
X110420D02*
X107396D01*
Y202876D01*
X107825Y202933D01*
X108691Y203291D01*
X109434Y203862D01*
X110005Y204605D01*
X110363Y205471D01*
X110420Y205900D01*
D02*
G37*
G36*
X68098Y231032D02*
X-56119D01*
X-57059Y230909D01*
X-57935Y230546D01*
X-58687Y229969D01*
X-59264Y229217D01*
X-59626Y228341D01*
X-59750Y227401D01*
X-59626Y226462D01*
X-59264Y225586D01*
X-58687Y224834D01*
X-57935Y224257D01*
X-57059Y223894D01*
X-56119Y223770D01*
X-44347D01*
X-44080Y223270D01*
X-44115Y223217D01*
X-44239Y222593D01*
X-44115Y221969D01*
X-43762Y221439D01*
X-43232Y221086D01*
X-42608Y220961D01*
X-41984Y221086D01*
X-41454Y221439D01*
X-41271Y221713D01*
X-41142Y221800D01*
X-40762Y222180D01*
X54839D01*
X56835Y220184D01*
X56827Y220146D01*
X56952Y219522D01*
X57305Y218992D01*
X57835Y218639D01*
X58459Y218515D01*
X59083Y218639D01*
X59612Y218992D01*
X59966Y219522D01*
X60090Y220146D01*
X59966Y220770D01*
X59612Y221300D01*
X59083Y221653D01*
X58459Y221777D01*
X58421Y221770D01*
X56882Y223308D01*
X57074Y223770D01*
X66594D01*
X74342Y216022D01*
X75094Y215445D01*
X75970Y215082D01*
X76910Y214958D01*
X76910Y214958D01*
X129680D01*
X129819Y214458D01*
X124920Y209559D01*
X123737D01*
Y208181D01*
X123389Y207340D01*
X123265Y206400D01*
Y202904D01*
X119328Y198968D01*
X118751Y198215D01*
X118517Y197651D01*
X118017Y197750D01*
Y203445D01*
X118489Y203641D01*
X119149Y204147D01*
X119655Y204807D01*
X119974Y205575D01*
X120082Y206400D01*
X119974Y207225D01*
X119655Y207993D01*
X119149Y208653D01*
X118489Y209159D01*
X117721Y209478D01*
X116896Y209586D01*
X116071Y209478D01*
X115303Y209159D01*
X114643Y208653D01*
X114137Y207993D01*
X113818Y207225D01*
X113710Y206400D01*
X113818Y205575D01*
X114137Y204807D01*
X114643Y204147D01*
X115303Y203641D01*
X115774Y203445D01*
Y197643D01*
X115274Y197544D01*
X115005Y198195D01*
X114434Y198938D01*
X113691Y199509D01*
X112825Y199867D01*
X112396Y199924D01*
Y196400D01*
Y192535D01*
X112471Y192382D01*
X105156Y185066D01*
X104912Y184702D01*
X104827Y184273D01*
X104827Y184273D01*
Y184004D01*
X104795Y183982D01*
X104441Y183453D01*
X104317Y182829D01*
X104441Y182204D01*
X104795Y181675D01*
X105324Y181322D01*
X105949Y181198D01*
X106573Y181322D01*
X107102Y181675D01*
X107456Y182204D01*
X107580Y182829D01*
X107456Y183453D01*
X107159Y183897D01*
X117689Y194427D01*
X117689Y194427D01*
X117932Y194791D01*
X117995Y195105D01*
X118381Y195194D01*
X118503Y195185D01*
X118751Y194584D01*
X119328Y193832D01*
X120080Y193255D01*
X120956Y192893D01*
X121896Y192769D01*
X122836Y192893D01*
X123712Y193255D01*
X124463Y193832D01*
X129464Y198832D01*
X130041Y199584D01*
X130403Y200460D01*
X130527Y201400D01*
X130527Y201400D01*
Y204896D01*
X133989Y208358D01*
X162745D01*
X168748Y202356D01*
Y98539D01*
X165205Y94996D01*
X151512D01*
X150573Y94873D01*
X149697Y94510D01*
X148945Y93933D01*
X148368Y93181D01*
X148005Y92305D01*
X147881Y91365D01*
X148005Y90426D01*
X148368Y89550D01*
X148945Y88798D01*
X149697Y88221D01*
X150573Y87858D01*
X151512Y87734D01*
X166709D01*
X167649Y87858D01*
X168525Y88221D01*
X169276Y88798D01*
X174946Y94468D01*
X174946Y94468D01*
X175523Y95219D01*
X175886Y96095D01*
X176010Y97035D01*
X176010Y97035D01*
Y97211D01*
X176510Y97364D01*
X177163Y96863D01*
X178039Y96500D01*
X178979Y96377D01*
X179918Y96500D01*
X180794Y96863D01*
X181546Y97440D01*
X182123Y98192D01*
X182486Y99068D01*
X182610Y100007D01*
Y206593D01*
X182486Y207533D01*
X182123Y208409D01*
X181546Y209161D01*
X169550Y221157D01*
X168798Y221734D01*
X167923Y222097D01*
X166983Y222220D01*
X78414D01*
X70665Y229969D01*
X69913Y230546D01*
X69037Y230909D01*
X68098Y231032D01*
D02*
G37*
G36*
X111396Y199924D02*
X110967Y199867D01*
X110101Y199509D01*
X109358Y198938D01*
X108787Y198195D01*
X108429Y197329D01*
X108372Y196900D01*
X111396D01*
Y199924D01*
D02*
G37*
G36*
X-46922Y213336D02*
X-47546Y213212D01*
X-48076Y212858D01*
X-48429Y212329D01*
X-48553Y211705D01*
X-48429Y211081D01*
X-48076Y210551D01*
X-48044Y210530D01*
Y201354D01*
X-54209Y195188D01*
X-76565D01*
X-76587Y195220D01*
X-77116Y195574D01*
X-77740Y195698D01*
X-78364Y195574D01*
X-78894Y195220D01*
X-79247Y194691D01*
X-79372Y194067D01*
X-79247Y193443D01*
X-78894Y192913D01*
X-78364Y192560D01*
X-77740Y192436D01*
X-77116Y192560D01*
X-76587Y192913D01*
X-76565Y192945D01*
X-53744D01*
X-53744Y192945D01*
X-53315Y193031D01*
X-52951Y193274D01*
X-46129Y200096D01*
X-46129Y200096D01*
X-45886Y200460D01*
X-45801Y200889D01*
Y210530D01*
X-45769Y210551D01*
X-45415Y211081D01*
X-45291Y211705D01*
X-45415Y212329D01*
X-45769Y212858D01*
X-46298Y213212D01*
X-46922Y213336D01*
D02*
G37*
G36*
X-126477Y196406D02*
Y194966D01*
X-125037D01*
X-125093Y195247D01*
X-125535Y195908D01*
X-126197Y196350D01*
X-126477Y196406D01*
D02*
G37*
G36*
X-127477D02*
X-127758Y196350D01*
X-128419Y195908D01*
X-128861Y195247D01*
X-128917Y194966D01*
X-127477D01*
Y196406D01*
D02*
G37*
G36*
X101896Y199586D02*
X101071Y199478D01*
X100303Y199159D01*
X99643Y198653D01*
X99137Y197993D01*
X98818Y197225D01*
X98710Y196400D01*
X98818Y195575D01*
X99137Y194807D01*
X99643Y194147D01*
X100303Y193640D01*
X101071Y193322D01*
X101896Y193214D01*
X102721Y193322D01*
X103489Y193640D01*
X104149Y194147D01*
X104655Y194807D01*
X104974Y195575D01*
X105082Y196400D01*
X104974Y197225D01*
X104655Y197993D01*
X104149Y198653D01*
X103489Y199159D01*
X102721Y199478D01*
X101896Y199586D01*
D02*
G37*
G36*
X91896D02*
X91071Y199478D01*
X90303Y199159D01*
X89643Y198653D01*
X89136Y197993D01*
X88818Y197225D01*
X88710Y196400D01*
X88818Y195575D01*
X89136Y194807D01*
X89643Y194147D01*
X90303Y193640D01*
X91071Y193322D01*
X91896Y193214D01*
X92721Y193322D01*
X93489Y193640D01*
X94149Y194147D01*
X94655Y194807D01*
X94974Y195575D01*
X95082Y196400D01*
X94974Y197225D01*
X94655Y197993D01*
X94149Y198653D01*
X93489Y199159D01*
X92721Y199478D01*
X91896Y199586D01*
D02*
G37*
G36*
X111396Y195900D02*
X108372D01*
X108429Y195471D01*
X108787Y194605D01*
X109358Y193862D01*
X110101Y193291D01*
X110967Y192932D01*
X111396Y192876D01*
Y195900D01*
D02*
G37*
G36*
X-125037Y193966D02*
X-126477D01*
Y192526D01*
X-126197Y192582D01*
X-125535Y193024D01*
X-125093Y193686D01*
X-125037Y193966D01*
D02*
G37*
G36*
X-127477D02*
X-128917D01*
X-128861Y193686D01*
X-128419Y193024D01*
X-127758Y192582D01*
X-127477Y192526D01*
Y193966D01*
D02*
G37*
G36*
X144003Y177990D02*
X143723Y177934D01*
X143061Y177492D01*
X142619Y176830D01*
X142563Y176550D01*
X144003D01*
Y177990D01*
D02*
G37*
G36*
X-48691Y175225D02*
X-49315Y175101D01*
X-49844Y174747D01*
X-49924Y174627D01*
X-50424D01*
X-50489Y174725D01*
X-51018Y175079D01*
X-51643Y175203D01*
X-52267Y175079D01*
X-52796Y174725D01*
X-53150Y174196D01*
X-53274Y173572D01*
X-53150Y172947D01*
X-52796Y172418D01*
X-52764Y172397D01*
Y172039D01*
X-52764Y172039D01*
X-52679Y171610D01*
X-52436Y171246D01*
X-51412Y170223D01*
Y153190D01*
X-52348Y152254D01*
X-52385Y152262D01*
X-53010Y152138D01*
X-53539Y151784D01*
X-53892Y151255D01*
X-54017Y150631D01*
X-53892Y150006D01*
X-53539Y149477D01*
X-53010Y149123D01*
X-52385Y148999D01*
X-51761Y149123D01*
X-51232Y149477D01*
X-50878Y150006D01*
X-50860Y150098D01*
X-50350D01*
X-50341Y150052D01*
X-49987Y149523D01*
X-49458Y149169D01*
X-48834Y149045D01*
X-48209Y149169D01*
X-47680Y149523D01*
X-47326Y150052D01*
X-47202Y150676D01*
X-47326Y151301D01*
X-47569Y151663D01*
Y172419D01*
X-47537Y172440D01*
X-47183Y172969D01*
X-47059Y173593D01*
X-47183Y174218D01*
X-47537Y174747D01*
X-48066Y175101D01*
X-48691Y175225D01*
D02*
G37*
G36*
X144003Y175550D02*
X142563D01*
X142619Y175270D01*
X143061Y174608D01*
X143723Y174166D01*
X144003Y174110D01*
Y175550D01*
D02*
G37*
G36*
X86339Y170495D02*
X85714Y170371D01*
X85398Y170160D01*
X85039Y170058D01*
X84679Y170160D01*
X84363Y170371D01*
X83738Y170495D01*
X83114Y170371D01*
X82798Y170160D01*
X82438Y170058D01*
X82079Y170160D01*
X81763Y170371D01*
X81138Y170495D01*
X80514Y170371D01*
X79985Y170017D01*
X79631Y169488D01*
X79507Y168864D01*
X79631Y168239D01*
X79985Y167710D01*
X80021Y167686D01*
Y166894D01*
X80021Y166894D01*
X80107Y166465D01*
X80350Y166101D01*
X95326Y151125D01*
X95326Y151125D01*
X95690Y150881D01*
X96119Y150796D01*
X96119Y150796D01*
X114444D01*
X114444Y150796D01*
X114873Y150881D01*
X115237Y151125D01*
X115316Y151204D01*
X115705Y150885D01*
X115483Y150554D01*
X115359Y149929D01*
X115483Y149305D01*
X115837Y148776D01*
X116366Y148422D01*
X116990Y148298D01*
X117615Y148422D01*
X118144Y148776D01*
X118548D01*
X119078Y148422D01*
X119702Y148298D01*
X120326Y148422D01*
X120855Y148776D01*
X120864Y148788D01*
X121455Y148774D01*
X121876Y148493D01*
X122500Y148369D01*
X123124Y148493D01*
X123653Y148846D01*
X124007Y149376D01*
X124131Y150000D01*
X124007Y150624D01*
X123653Y151154D01*
X123124Y151507D01*
X122570Y151618D01*
X121622Y152566D01*
Y161825D01*
X121653Y161846D01*
X122007Y162376D01*
X122131Y163000D01*
X122007Y163624D01*
X121653Y164154D01*
X121124Y164507D01*
X120500Y164631D01*
X119876Y164507D01*
X119483Y164244D01*
X119257Y164187D01*
X118866Y164335D01*
X118654Y164654D01*
X118124Y165007D01*
X117500Y165131D01*
X116876Y165007D01*
X116347Y164654D01*
X116031Y164181D01*
X115502Y164535D01*
X114877Y164659D01*
X114253Y164535D01*
X113724Y164181D01*
X113370Y163652D01*
X113246Y163028D01*
X113332Y162598D01*
X113344Y162380D01*
X112998Y162060D01*
X112735Y162008D01*
X112205Y161654D01*
X111852Y161125D01*
X111728Y160501D01*
X111852Y159877D01*
X112205Y159347D01*
X112735Y158994D01*
X113359Y158870D01*
X113397Y158877D01*
X114406Y157868D01*
Y155810D01*
X113906Y155584D01*
X113359Y155693D01*
X112735Y155569D01*
X112205Y155215D01*
X112184Y155183D01*
X98117D01*
X98077Y155217D01*
X98217Y155754D01*
X98385Y155788D01*
X98914Y156141D01*
X99268Y156671D01*
X99392Y157295D01*
X99268Y157919D01*
X98914Y158449D01*
X98385Y158802D01*
X97761Y158926D01*
X97136Y158802D01*
X96607Y158449D01*
X96586Y158417D01*
X95935D01*
X87460Y166892D01*
Y167689D01*
X87492Y167710D01*
X87846Y168239D01*
X87970Y168864D01*
X87846Y169488D01*
X87492Y170017D01*
X86963Y170371D01*
X86339Y170495D01*
D02*
G37*
G36*
X141052Y169754D02*
X140834Y169725D01*
X140165Y169448D01*
X139978Y169305D01*
X139576Y169007D01*
X139002Y169448D01*
X138333Y169725D01*
X138115Y169754D01*
Y167046D01*
X137115D01*
Y169754D01*
X136897Y169725D01*
X136228Y169448D01*
X135654Y169007D01*
X135252Y169305D01*
X135065Y169448D01*
X134396Y169725D01*
X134178Y169754D01*
Y167046D01*
X133678D01*
Y166546D01*
X130970D01*
X130999Y166328D01*
X131276Y165659D01*
X131717Y165085D01*
Y165070D01*
X131276Y164496D01*
X130999Y163827D01*
X130970Y163609D01*
X133678D01*
Y162609D01*
X130970D01*
X130999Y162391D01*
X131276Y161722D01*
X131717Y161147D01*
Y161133D01*
X131276Y160559D01*
X130999Y159890D01*
X130970Y159672D01*
X133678D01*
Y159172D01*
X134178D01*
Y156464D01*
X134396Y156493D01*
X135065Y156770D01*
X135252Y156913D01*
X135654Y157211D01*
X136228Y156770D01*
X136897Y156493D01*
X137115Y156464D01*
Y159172D01*
X138115D01*
Y156464D01*
X138333Y156493D01*
X139002Y156770D01*
X139576Y157211D01*
X139978Y156913D01*
X140165Y156770D01*
X140834Y156493D01*
X141052Y156464D01*
Y159172D01*
X141552D01*
Y159672D01*
X144260D01*
X144231Y159890D01*
X143954Y160559D01*
X143513Y161133D01*
Y161147D01*
X143954Y161722D01*
X144231Y162391D01*
X144260Y162609D01*
X141552D01*
Y163609D01*
X144260D01*
X144231Y163827D01*
X143954Y164496D01*
X143513Y165070D01*
Y165085D01*
X143954Y165659D01*
X144231Y166328D01*
X144260Y166546D01*
X141552D01*
Y167046D01*
X141052D01*
Y169754D01*
D02*
G37*
G36*
X142052D02*
Y167546D01*
X144260D01*
X144231Y167764D01*
X143954Y168433D01*
X143513Y169007D01*
X142939Y169448D01*
X142270Y169725D01*
X142052Y169754D01*
D02*
G37*
G36*
X133178D02*
X132960Y169725D01*
X132291Y169448D01*
X131717Y169007D01*
X131276Y168433D01*
X130999Y167764D01*
X130970Y167546D01*
X133178D01*
Y169754D01*
D02*
G37*
G36*
X158536Y169462D02*
X157912Y169338D01*
X157383Y168984D01*
X157029Y168455D01*
X156905Y167831D01*
X156936Y167673D01*
X156252Y166989D01*
X155745Y167020D01*
X155699Y167088D01*
X155170Y167441D01*
X154545Y167566D01*
X153921Y167441D01*
X153392Y167088D01*
X153038Y166559D01*
X152914Y165934D01*
X153038Y165310D01*
X153392Y164781D01*
X153921Y164427D01*
X154545Y164303D01*
X155170Y164427D01*
X155699Y164781D01*
X155788Y164915D01*
X156640D01*
X157030Y164992D01*
X157361Y165213D01*
X158378Y166231D01*
X158536Y166200D01*
X159161Y166324D01*
X159690Y166677D01*
X160043Y167207D01*
X160168Y167831D01*
X160043Y168455D01*
X159690Y168984D01*
X159161Y169338D01*
X158536Y169462D01*
D02*
G37*
G36*
X144260Y158672D02*
X142052D01*
Y156464D01*
X142270Y156493D01*
X142939Y156770D01*
X143513Y157211D01*
X143954Y157785D01*
X144231Y158454D01*
X144260Y158672D01*
D02*
G37*
G36*
X133178D02*
X130970D01*
X130999Y158454D01*
X131276Y157785D01*
X131717Y157211D01*
X132291Y156770D01*
X132960Y156493D01*
X133178Y156464D01*
Y158672D01*
D02*
G37*
G36*
X20970Y183016D02*
X20346Y182891D01*
X19816Y182538D01*
X19463Y182009D01*
X19338Y181384D01*
X19463Y180760D01*
X19587Y180574D01*
Y177345D01*
X-15192Y142566D01*
X-21370D01*
X-21555Y142690D01*
X-22180Y142814D01*
X-22804Y142690D01*
X-23333Y142336D01*
X-23687Y141807D01*
X-23811Y141182D01*
X-23687Y140558D01*
X-23333Y140029D01*
X-22804Y139675D01*
X-22431Y139601D01*
X-21972Y139344D01*
X-21848Y138720D01*
X-21495Y138190D01*
X-20965Y137837D01*
X-20593Y137763D01*
X-20134Y137505D01*
X-20010Y136881D01*
X-19656Y136352D01*
X-19127Y135998D01*
X-18754Y135924D01*
X-18295Y135667D01*
X-18171Y135043D01*
X-17818Y134513D01*
X-17289Y134160D01*
X-16916Y134086D01*
X-16457Y133828D01*
X-16333Y133204D01*
X-15979Y132675D01*
X-15450Y132321D01*
X-14826Y132197D01*
X-14201Y132321D01*
X-13672Y132675D01*
X-13318Y133204D01*
X-13194Y133828D01*
X-12705Y133922D01*
X-12077D01*
X-12077Y133922D01*
X-11648Y134008D01*
X-11284Y134251D01*
X5501Y151036D01*
X5962Y150789D01*
X5951Y150738D01*
X6076Y150113D01*
X6429Y149584D01*
X6959Y149230D01*
X7583Y149106D01*
X7716Y149133D01*
X8022Y148826D01*
X8146Y148202D01*
X8500Y147673D01*
X9029Y147319D01*
X9653Y147195D01*
X10278Y147319D01*
X10807Y147673D01*
X11161Y148202D01*
X11285Y148826D01*
X11277Y148864D01*
X15481Y153067D01*
X22605D01*
X22605Y153067D01*
X23034Y153153D01*
X23398Y153396D01*
X40805Y170802D01*
X40805Y170802D01*
X41048Y171166D01*
X41085Y171353D01*
X41165Y171407D01*
X41519Y171936D01*
X41643Y172560D01*
X41519Y173185D01*
X41165Y173714D01*
X40636Y174068D01*
X40012Y174192D01*
X39387Y174068D01*
X38858Y173714D01*
X38504Y173185D01*
X38380Y172560D01*
X38504Y171936D01*
X38609Y171779D01*
X23851Y157021D01*
X23292Y157169D01*
X23021Y157575D01*
X22492Y157928D01*
X21868Y158053D01*
X21244Y157928D01*
X20714Y157575D01*
X20693Y157543D01*
X13267D01*
X13267Y157543D01*
X12837Y157457D01*
X12473Y157214D01*
X7931Y152672D01*
X7855Y152683D01*
X7679Y153214D01*
X27112Y172647D01*
X27355D01*
X27355Y172647D01*
X27477Y172672D01*
X27699Y172523D01*
X28324Y172399D01*
X28948Y172523D01*
X29477Y172877D01*
X29831Y173406D01*
X29955Y174030D01*
X29831Y174655D01*
X29477Y175184D01*
X28948Y175538D01*
X28324Y175662D01*
X28117Y175869D01*
X27992Y176493D01*
X27639Y177022D01*
X27110Y177376D01*
X26485Y177500D01*
X26278Y177707D01*
X26154Y178332D01*
X25800Y178861D01*
X25271Y179215D01*
X24898Y179289D01*
X24440Y179546D01*
X24315Y180170D01*
X23962Y180699D01*
X23433Y181053D01*
X22808Y181177D01*
X22601Y181384D01*
X22477Y182009D01*
X22123Y182538D01*
X21594Y182891D01*
X20970Y183016D01*
D02*
G37*
G36*
X145003Y177990D02*
Y176050D01*
Y174110D01*
X145283Y174166D01*
X145945Y174608D01*
X146242Y175052D01*
X146743Y175101D01*
X147074Y174770D01*
Y158898D01*
X138901Y150725D01*
X131406D01*
X131385Y150757D01*
X130855Y151111D01*
X130231Y151235D01*
X129607Y151111D01*
X129077Y150757D01*
X128724Y150228D01*
X128600Y149604D01*
X128724Y148979D01*
X129077Y148450D01*
X129607Y148097D01*
X130231Y147972D01*
X130855Y148097D01*
X131385Y148450D01*
X131406Y148482D01*
X139366D01*
X139366Y148482D01*
X139795Y148568D01*
X140159Y148811D01*
X148989Y157641D01*
X148989Y157641D01*
X149232Y158004D01*
X149317Y158434D01*
X149317Y158434D01*
Y174815D01*
X149349Y174837D01*
X149703Y175366D01*
X149827Y175990D01*
X149703Y176614D01*
X149349Y177144D01*
X148820Y177497D01*
X148196Y177621D01*
X147571Y177497D01*
X147042Y177144D01*
X146882Y176904D01*
X146722Y176881D01*
X146309Y176947D01*
X145945Y177492D01*
X145283Y177934D01*
X145003Y177990D01*
D02*
G37*
G36*
X85738Y153144D02*
X85114Y153020D01*
X84584Y152666D01*
X84231Y152137D01*
X84107Y151512D01*
X84231Y150888D01*
X84584Y150359D01*
X84616Y150338D01*
Y145262D01*
X84616Y145262D01*
X84702Y144833D01*
X84945Y144469D01*
X86876Y142538D01*
X86869Y142500D01*
X86993Y141876D01*
X87347Y141347D01*
X87876Y140993D01*
X88500Y140869D01*
X89124Y140993D01*
X89653Y141347D01*
X90007Y141876D01*
X90131Y142500D01*
X90007Y143124D01*
X89653Y143654D01*
X89124Y144007D01*
X88500Y144131D01*
X88462Y144124D01*
X86860Y145727D01*
Y150338D01*
X86892Y150359D01*
X87245Y150888D01*
X87369Y151512D01*
X87245Y152137D01*
X86892Y152666D01*
X86362Y153020D01*
X85738Y153144D01*
D02*
G37*
G36*
X-167124Y142595D02*
X-174852D01*
Y137736D01*
X-165663D01*
Y141134D01*
X-165774Y141693D01*
X-166091Y142167D01*
X-166565Y142484D01*
X-167124Y142595D01*
D02*
G37*
G36*
X-165663Y136736D02*
X-174852D01*
Y131877D01*
X-167124D01*
X-166565Y131989D01*
X-166091Y132305D01*
X-165774Y132779D01*
X-165663Y133339D01*
Y136736D01*
D02*
G37*
G36*
X100463Y138610D02*
X99839Y138486D01*
X99310Y138133D01*
X98956Y137603D01*
X98832Y136979D01*
X98956Y136355D01*
X99310Y135826D01*
X99342Y135804D01*
Y129775D01*
X99342Y129775D01*
X99427Y129346D01*
X99670Y128982D01*
X105694Y122959D01*
X105375Y122571D01*
X105219Y122675D01*
X104595Y122799D01*
X103970Y122675D01*
X103441Y122321D01*
X103087Y121792D01*
X102963Y121168D01*
X103087Y120544D01*
X103441Y120014D01*
X103970Y119661D01*
X104595Y119536D01*
X105219Y119661D01*
X105748Y120014D01*
X105770Y120046D01*
X136813D01*
X136834Y120014D01*
X137364Y119661D01*
X137988Y119536D01*
X138612Y119661D01*
X139141Y120014D01*
X139495Y120544D01*
X139619Y121168D01*
X139495Y121792D01*
X139141Y122321D01*
X138612Y122675D01*
X138176Y122762D01*
X138157Y122804D01*
X138187Y123284D01*
X138623Y123371D01*
X139152Y123724D01*
X139506Y124254D01*
X139630Y124878D01*
X139506Y125502D01*
X139152Y126031D01*
X138623Y126385D01*
X137999Y126509D01*
X137375Y126385D01*
X136845Y126031D01*
X136492Y125502D01*
X136367Y124878D01*
X136375Y124840D01*
X135424Y123889D01*
X110358D01*
X110091Y124389D01*
X110222Y124586D01*
X110346Y125210D01*
X110222Y125834D01*
X109868Y126364D01*
X109339Y126717D01*
X108715Y126841D01*
X108483Y127260D01*
Y131413D01*
X108514Y131434D01*
X108868Y131964D01*
X108992Y132588D01*
X108868Y133212D01*
X108514Y133741D01*
X107985Y134095D01*
X107361Y134219D01*
X106737Y134095D01*
X106208Y133741D01*
X105854Y133212D01*
X105730Y132588D01*
X105854Y131964D01*
X106208Y131434D01*
X106239Y131413D01*
Y126564D01*
X106239Y126564D01*
X106307Y126225D01*
X106055Y126006D01*
X105894Y125931D01*
X101585Y130240D01*
Y135804D01*
X101617Y135826D01*
X101971Y136355D01*
X102095Y136979D01*
X101971Y137603D01*
X101617Y138133D01*
X101088Y138486D01*
X100463Y138610D01*
D02*
G37*
G36*
X-167124Y122123D02*
X-174852D01*
Y117264D01*
X-165663D01*
Y120661D01*
X-165774Y121221D01*
X-166091Y121695D01*
X-166565Y122011D01*
X-167124Y122123D01*
D02*
G37*
G36*
X63859Y118365D02*
Y116926D01*
X65299D01*
X65243Y117206D01*
X64801Y117868D01*
X64139Y118309D01*
X63859Y118365D01*
D02*
G37*
G36*
X62859D02*
X62579Y118309D01*
X61917Y117868D01*
X61475Y117206D01*
X61419Y116926D01*
X62859D01*
Y118365D01*
D02*
G37*
G36*
X65299Y115926D02*
X63859D01*
Y114486D01*
X64139Y114542D01*
X64801Y114984D01*
X65243Y115645D01*
X65299Y115926D01*
D02*
G37*
G36*
X62859D02*
X61419D01*
X61475Y115645D01*
X61917Y114984D01*
X62579Y114542D01*
X62859Y114486D01*
Y115926D01*
D02*
G37*
G36*
X-165663Y116264D02*
X-174852D01*
Y111405D01*
X-167124D01*
X-166565Y111516D01*
X-166091Y111833D01*
X-165774Y112307D01*
X-165663Y112866D01*
Y116264D01*
D02*
G37*
G36*
X69204Y97179D02*
X68580Y97055D01*
X68050Y96701D01*
X67697Y96172D01*
X67572Y95548D01*
X67697Y94924D01*
X67887Y94639D01*
X53218Y79970D01*
X52251D01*
X52153Y80035D01*
X51529Y80159D01*
X50905Y80035D01*
X50375Y79682D01*
X50022Y79152D01*
X49897Y78528D01*
X50022Y77904D01*
X50375Y77375D01*
X50905Y77021D01*
X51503Y76902D01*
X51645Y76854D01*
X51890Y76610D01*
X51937Y76468D01*
X52056Y75869D01*
X52410Y75340D01*
X52939Y74986D01*
X53538Y74867D01*
X53679Y74820D01*
X53924Y74576D01*
X53971Y74434D01*
X54090Y73835D01*
X54444Y73306D01*
X54973Y72952D01*
X55572Y72833D01*
X55714Y72786D01*
X55958Y72541D01*
X56006Y72399D01*
X56125Y71801D01*
X56478Y71271D01*
X57008Y70918D01*
X57632Y70794D01*
X58256Y70918D01*
X58785Y71271D01*
X59139Y71801D01*
X59263Y72425D01*
X59139Y73049D01*
X58819Y73528D01*
Y75611D01*
X71466Y88257D01*
X74204D01*
X74683Y87937D01*
X75307Y87813D01*
X75931Y87937D01*
X76460Y88291D01*
X76814Y88820D01*
X76938Y89445D01*
X76814Y90069D01*
X76460Y90598D01*
X75931Y90952D01*
X75332Y91071D01*
X75191Y91118D01*
X74946Y91363D01*
X74899Y91505D01*
X74780Y92103D01*
X74426Y92633D01*
X73897Y92986D01*
X73425Y93080D01*
X73004Y93528D01*
X73014Y93579D01*
X72890Y94203D01*
X72536Y94733D01*
X72007Y95086D01*
X71383Y95210D01*
X71273Y95189D01*
X70835Y95548D01*
X70711Y96172D01*
X70357Y96701D01*
X69828Y97055D01*
X69204Y97179D01*
D02*
G37*
G36*
X83828Y86904D02*
X83204Y86780D01*
X82675Y86426D01*
X82373D01*
X81844Y86780D01*
X81219Y86904D01*
X80595Y86780D01*
X80066Y86426D01*
X80018Y86354D01*
X79518D01*
X79469Y86426D01*
X78940Y86780D01*
X78316Y86904D01*
X77691Y86780D01*
X77162Y86426D01*
X76809Y85897D01*
X76684Y85273D01*
X76809Y84648D01*
X77162Y84119D01*
X77194Y84098D01*
Y81570D01*
X71213Y75589D01*
X71000Y75631D01*
X70376Y75507D01*
X69846Y75153D01*
X69493Y74624D01*
X69369Y74000D01*
X69493Y73376D01*
X69846Y72847D01*
X70376Y72493D01*
X70935Y72382D01*
X71103Y72288D01*
X71288Y72103D01*
X71382Y71935D01*
X71493Y71376D01*
X71846Y70846D01*
X72376Y70493D01*
X73000Y70369D01*
X73068Y70382D01*
X73422Y70029D01*
X73402Y69930D01*
X73526Y69305D01*
X73880Y68776D01*
X74409Y68423D01*
X75034Y68298D01*
X75658Y68423D01*
X76187Y68776D01*
X76541Y69305D01*
X76665Y69930D01*
X76541Y70554D01*
X76222Y71032D01*
Y71486D01*
X82309Y77573D01*
X82309Y77573D01*
X82552Y77937D01*
X82637Y78366D01*
X82637Y78366D01*
Y80993D01*
X84621Y82977D01*
X84621Y82977D01*
X84864Y83341D01*
X84950Y83770D01*
Y84098D01*
X84982Y84119D01*
X85335Y84648D01*
X85460Y85273D01*
X85335Y85897D01*
X84982Y86426D01*
X84452Y86780D01*
X83828Y86904D01*
D02*
G37*
G36*
X41730Y83875D02*
X41105Y83751D01*
X40576Y83397D01*
X40555Y83365D01*
X36684D01*
X36663Y83397D01*
X36134Y83751D01*
X35509Y83875D01*
X34885Y83751D01*
X34356Y83397D01*
X34002Y82868D01*
X33878Y82243D01*
X34002Y81619D01*
X34356Y81090D01*
X34885Y80736D01*
X35509Y80612D01*
X36134Y80736D01*
X36663Y81090D01*
X36684Y81122D01*
X40555D01*
X40576Y81090D01*
X41105Y80736D01*
X41730Y80612D01*
X42354Y80736D01*
X42883Y81090D01*
X43237Y81619D01*
X43361Y82243D01*
X43237Y82868D01*
X42883Y83397D01*
X42354Y83751D01*
X41730Y83875D01*
D02*
G37*
G36*
X-130400Y92957D02*
X-131210Y92850D01*
X-131964Y92538D01*
X-132611Y92041D01*
X-133108Y91393D01*
X-133421Y90639D01*
X-133527Y89830D01*
X-133421Y89021D01*
X-133108Y88266D01*
X-132797Y87860D01*
Y75378D01*
X-132953Y75174D01*
X-133265Y74420D01*
X-133372Y73611D01*
X-133265Y72801D01*
X-132953Y72047D01*
X-132456Y71400D01*
X-131808Y70903D01*
X-131054Y70590D01*
X-130245Y70484D01*
X-129436Y70590D01*
X-128682Y70903D01*
X-128034Y71400D01*
X-127537Y72047D01*
X-127225Y72801D01*
X-127118Y73611D01*
X-127225Y74420D01*
X-127537Y75174D01*
X-128004Y75783D01*
Y87860D01*
X-127693Y88266D01*
X-127380Y89021D01*
X-127274Y89830D01*
X-127380Y90639D01*
X-127693Y91393D01*
X-128190Y92041D01*
X-128837Y92538D01*
X-129591Y92850D01*
X-130400Y92957D01*
D02*
G37*
G36*
X-114500Y67131D02*
X-115124Y67007D01*
X-115654Y66654D01*
X-115675Y66622D01*
X-120825D01*
X-120846Y66654D01*
X-121376Y67007D01*
X-122000Y67131D01*
X-122624Y67007D01*
X-123153Y66654D01*
X-123507Y66124D01*
X-123631Y65500D01*
X-123507Y64876D01*
X-123153Y64346D01*
X-123158Y63748D01*
X-123279Y63668D01*
X-123632Y63138D01*
X-123756Y62514D01*
X-123632Y61890D01*
X-123279Y61361D01*
X-122749Y61007D01*
X-122125Y60883D01*
X-121501Y61007D01*
X-120972Y61361D01*
X-120618Y61890D01*
X-120510Y62435D01*
X-120166Y62778D01*
X-116334D01*
X-115656Y62100D01*
X-115656Y62100D01*
X-115293Y61857D01*
X-114863Y61772D01*
X-114831Y61778D01*
X-114693D01*
X-114672Y61747D01*
X-114143Y61393D01*
X-113518Y61269D01*
X-112894Y61393D01*
X-112365Y61747D01*
X-112011Y62276D01*
X-111887Y62900D01*
X-112011Y63524D01*
X-112365Y64053D01*
X-112763Y64320D01*
X-112993Y64876D01*
X-112869Y65500D01*
X-112993Y66124D01*
X-113347Y66654D01*
X-113876Y67007D01*
X-114500Y67131D01*
D02*
G37*
G36*
X161417Y64322D02*
X159362Y64160D01*
X157357Y63679D01*
X155452Y62889D01*
X153694Y61812D01*
X152126Y60473D01*
X150786Y58905D01*
X149709Y57147D01*
X148920Y55242D01*
X148439Y53237D01*
X148277Y51181D01*
X148439Y49126D01*
X148920Y47121D01*
X149709Y45215D01*
X150786Y43457D01*
X152126Y41890D01*
X153694Y40550D01*
X155452Y39473D01*
X157357Y38684D01*
X159362Y38203D01*
X161417Y38041D01*
X163473Y38203D01*
X165478Y38684D01*
X167383Y39473D01*
X169141Y40550D01*
X170709Y41890D01*
X172048Y43457D01*
X173126Y45215D01*
X173915Y47121D01*
X174396Y49126D01*
X174558Y51181D01*
X174396Y53237D01*
X173915Y55242D01*
X173126Y57147D01*
X172048Y58905D01*
X170709Y60473D01*
X169141Y61812D01*
X167383Y62889D01*
X165478Y63679D01*
X163473Y64160D01*
X161417Y64322D01*
D02*
G37*
G36*
X-161417D02*
X-163473Y64160D01*
X-165478Y63679D01*
X-167383Y62889D01*
X-169141Y61812D01*
X-170709Y60473D01*
X-172048Y58905D01*
X-173126Y57147D01*
X-173915Y55242D01*
X-174396Y53237D01*
X-174558Y51181D01*
X-174396Y49126D01*
X-173915Y47121D01*
X-173126Y45215D01*
X-172048Y43457D01*
X-170709Y41890D01*
X-169141Y40550D01*
X-167383Y39473D01*
X-165478Y38684D01*
X-163473Y38203D01*
X-161417Y38041D01*
X-159362Y38203D01*
X-157357Y38684D01*
X-155452Y39473D01*
X-153694Y40550D01*
X-152126Y41890D01*
X-150786Y43457D01*
X-149709Y45215D01*
X-148920Y47121D01*
X-148439Y49126D01*
X-148277Y51181D01*
X-148439Y53237D01*
X-148920Y55242D01*
X-149709Y57147D01*
X-150786Y58905D01*
X-152126Y60473D01*
X-153694Y61812D01*
X-155452Y62889D01*
X-157357Y63679D01*
X-159362Y64160D01*
X-161417Y64322D01*
D02*
G37*
G36*
X-70866Y36071D02*
X-72814Y35918D01*
X-74713Y35462D01*
X-76518Y34715D01*
X-78184Y33694D01*
X-79669Y32425D01*
X-80938Y30940D01*
X-81959Y29274D01*
X-82706Y27469D01*
X-83162Y25570D01*
X-83315Y23622D01*
X-83162Y21675D01*
X-82706Y19775D01*
X-81959Y17970D01*
X-80938Y16305D01*
X-79669Y14819D01*
X-78184Y13550D01*
X-76518Y12530D01*
X-74713Y11782D01*
X-72814Y11326D01*
X-70866Y11173D01*
X-68919Y11326D01*
X-67019Y11782D01*
X-65214Y12530D01*
X-63549Y13550D01*
X-62063Y14819D01*
X-60794Y16305D01*
X-59774Y17970D01*
X-59026Y19775D01*
X-58570Y21675D01*
X-58417Y23622D01*
X-58570Y25570D01*
X-59026Y27469D01*
X-59774Y29274D01*
X-60794Y30940D01*
X-62063Y32425D01*
X-63549Y33694D01*
X-65214Y34715D01*
X-67019Y35462D01*
X-68919Y35918D01*
X-70866Y36071D01*
D02*
G37*
G36*
X-161417D02*
X-163365Y35918D01*
X-165264Y35462D01*
X-167069Y34715D01*
X-168735Y33694D01*
X-170220Y32425D01*
X-171489Y30940D01*
X-172510Y29274D01*
X-173257Y27469D01*
X-173713Y25570D01*
X-173867Y23622D01*
X-173713Y21675D01*
X-173257Y19775D01*
X-172510Y17970D01*
X-171489Y16305D01*
X-170220Y14819D01*
X-168735Y13550D01*
X-167069Y12530D01*
X-165264Y11782D01*
X-163365Y11326D01*
X-161417Y11173D01*
X-159470Y11326D01*
X-157570Y11782D01*
X-155765Y12530D01*
X-154100Y13550D01*
X-152614Y14819D01*
X-151346Y16305D01*
X-150325Y17970D01*
X-149577Y19775D01*
X-149121Y21675D01*
X-148968Y23622D01*
X-149121Y25570D01*
X-149577Y27469D01*
X-150325Y29274D01*
X-151346Y30940D01*
X-152614Y32425D01*
X-154100Y33694D01*
X-155765Y34715D01*
X-157570Y35462D01*
X-159470Y35918D01*
X-161417Y36071D01*
D02*
G37*
G36*
X-155917Y8370D02*
Y4949D01*
X-152496D01*
X-152566Y5481D01*
X-152965Y6442D01*
X-153598Y7268D01*
X-154424Y7902D01*
X-155385Y8300D01*
X-155917Y8370D01*
D02*
G37*
G36*
X-156917D02*
X-157449Y8300D01*
X-158411Y7902D01*
X-159237Y7268D01*
X-159870Y6442D01*
X-160268Y5481D01*
X-160338Y4949D01*
X-156917D01*
Y8370D01*
D02*
G37*
G36*
X-166417Y8032D02*
X-167345Y7910D01*
X-168209Y7552D01*
X-168951Y6983D01*
X-169521Y6241D01*
X-169879Y5376D01*
X-170001Y4449D01*
X-169879Y3521D01*
X-169521Y2657D01*
X-168951Y1915D01*
X-168209Y1345D01*
X-167345Y988D01*
X-166417Y865D01*
X-165490Y988D01*
X-164626Y1345D01*
X-163883Y1915D01*
X-163314Y2657D01*
X-162956Y3521D01*
X-162834Y4449D01*
X-162956Y5376D01*
X-163314Y6241D01*
X-163883Y6983D01*
X-164626Y7552D01*
X-165490Y7910D01*
X-166417Y8032D01*
D02*
G37*
G36*
X-152496Y3949D02*
X-155917D01*
Y528D01*
X-155385Y598D01*
X-154424Y996D01*
X-153598Y1630D01*
X-152965Y2455D01*
X-152566Y3417D01*
X-152496Y3949D01*
D02*
G37*
G36*
X-156917D02*
X-160338D01*
X-160268Y3417D01*
X-159870Y2455D01*
X-159237Y1630D01*
X-158411Y996D01*
X-157449Y598D01*
X-156917Y528D01*
Y3949D01*
D02*
G37*
G36*
X-156417Y-1968D02*
X-157345Y-2090D01*
X-158209Y-2448D01*
X-158951Y-3017D01*
X-159521Y-3760D01*
X-159879Y-4624D01*
X-160001Y-5551D01*
X-159879Y-6479D01*
X-159521Y-7343D01*
X-158951Y-8085D01*
X-158209Y-8654D01*
X-157345Y-9013D01*
X-156417Y-9135D01*
X-155490Y-9013D01*
X-154626Y-8654D01*
X-153884Y-8085D01*
X-153314Y-7343D01*
X-152956Y-6479D01*
X-152834Y-5551D01*
X-152956Y-4624D01*
X-153314Y-3760D01*
X-153884Y-3017D01*
X-154626Y-2448D01*
X-155490Y-2090D01*
X-156417Y-1968D01*
D02*
G37*
G36*
X-166417D02*
X-167345Y-2090D01*
X-168209Y-2448D01*
X-168951Y-3017D01*
X-169521Y-3760D01*
X-169879Y-4624D01*
X-170001Y-5551D01*
X-169879Y-6479D01*
X-169521Y-7343D01*
X-168951Y-8085D01*
X-168209Y-8654D01*
X-167345Y-9013D01*
X-166417Y-9135D01*
X-165490Y-9013D01*
X-164626Y-8654D01*
X-163883Y-8085D01*
X-163314Y-7343D01*
X-162956Y-6479D01*
X-162834Y-5551D01*
X-162956Y-4624D01*
X-163314Y-3760D01*
X-163883Y-3017D01*
X-164626Y-2448D01*
X-165490Y-2090D01*
X-166417Y-1968D01*
D02*
G37*
G36*
X-156417Y-11968D02*
X-157345Y-12090D01*
X-158209Y-12448D01*
X-158951Y-13017D01*
X-159521Y-13759D01*
X-159879Y-14624D01*
X-160001Y-15551D01*
X-159879Y-16479D01*
X-159521Y-17343D01*
X-158951Y-18085D01*
X-158209Y-18654D01*
X-157345Y-19013D01*
X-156417Y-19135D01*
X-155490Y-19013D01*
X-154626Y-18654D01*
X-153884Y-18085D01*
X-153314Y-17343D01*
X-152956Y-16479D01*
X-152834Y-15551D01*
X-152956Y-14624D01*
X-153314Y-13759D01*
X-153884Y-13017D01*
X-154626Y-12448D01*
X-155490Y-12090D01*
X-156417Y-11968D01*
D02*
G37*
G36*
X-166417D02*
X-167345Y-12090D01*
X-168209Y-12448D01*
X-168951Y-13017D01*
X-169521Y-13759D01*
X-169879Y-14624D01*
X-170001Y-15551D01*
X-169879Y-16479D01*
X-169521Y-17343D01*
X-168951Y-18085D01*
X-168209Y-18654D01*
X-167345Y-19013D01*
X-166417Y-19135D01*
X-165490Y-19013D01*
X-164626Y-18654D01*
X-163883Y-18085D01*
X-163314Y-17343D01*
X-162956Y-16479D01*
X-162834Y-15551D01*
X-162956Y-14624D01*
X-163314Y-13759D01*
X-163883Y-13017D01*
X-164626Y-12448D01*
X-165490Y-12090D01*
X-166417Y-11968D01*
D02*
G37*
G36*
X-165917Y-21630D02*
Y-25051D01*
X-162496D01*
X-162566Y-24519D01*
X-162965Y-23558D01*
X-163598Y-22732D01*
X-164424Y-22098D01*
X-165385Y-21700D01*
X-165917Y-21630D01*
D02*
G37*
G36*
X-166917D02*
X-167449Y-21700D01*
X-168411Y-22098D01*
X-169237Y-22732D01*
X-169870Y-23558D01*
X-170268Y-24519D01*
X-170338Y-25051D01*
X-166917D01*
Y-21630D01*
D02*
G37*
G36*
X-156417Y-21968D02*
X-157345Y-22090D01*
X-158209Y-22448D01*
X-158951Y-23017D01*
X-159521Y-23760D01*
X-159879Y-24624D01*
X-160001Y-25551D01*
X-159879Y-26479D01*
X-159521Y-27343D01*
X-158951Y-28085D01*
X-158209Y-28655D01*
X-157345Y-29013D01*
X-156417Y-29135D01*
X-155490Y-29013D01*
X-154626Y-28655D01*
X-153884Y-28085D01*
X-153314Y-27343D01*
X-152956Y-26479D01*
X-152834Y-25551D01*
X-152956Y-24624D01*
X-153314Y-23760D01*
X-153884Y-23017D01*
X-154626Y-22448D01*
X-155490Y-22090D01*
X-156417Y-21968D01*
D02*
G37*
G36*
X-492Y-19983D02*
X-1116Y-20107D01*
X-1645Y-20460D01*
X-1999Y-20989D01*
X-2123Y-21614D01*
X-1999Y-22238D01*
X-1645Y-22767D01*
X-1357Y-22960D01*
Y-26425D01*
X-1389Y-26446D01*
X-1743Y-26975D01*
X-1867Y-27599D01*
X-1743Y-28224D01*
X-1389Y-28753D01*
X-860Y-29107D01*
X-235Y-29231D01*
X389Y-29107D01*
X918Y-28753D01*
X1272Y-28224D01*
X1396Y-27599D01*
X1272Y-26975D01*
X918Y-26446D01*
X886Y-26425D01*
Y-22431D01*
X1015Y-22238D01*
X1139Y-21614D01*
X1015Y-20989D01*
X662Y-20460D01*
X132Y-20107D01*
X-492Y-19983D01*
D02*
G37*
G36*
X-162496Y-26051D02*
X-165917D01*
Y-29472D01*
X-165385Y-29402D01*
X-164424Y-29004D01*
X-163598Y-28370D01*
X-162965Y-27545D01*
X-162566Y-26583D01*
X-162496Y-26051D01*
D02*
G37*
G36*
X-166917D02*
X-170338D01*
X-170268Y-26583D01*
X-169870Y-27545D01*
X-169237Y-28370D01*
X-168411Y-29004D01*
X-167449Y-29402D01*
X-166917Y-29472D01*
Y-26051D01*
D02*
G37*
G36*
X-3129Y-37531D02*
Y-38971D01*
X-1690D01*
X-1745Y-38690D01*
X-2187Y-38029D01*
X-2849Y-37587D01*
X-3129Y-37531D01*
D02*
G37*
G36*
X-4129D02*
X-4410Y-37587D01*
X-5071Y-38029D01*
X-5513Y-38690D01*
X-5569Y-38971D01*
X-4129D01*
Y-37531D01*
D02*
G37*
G36*
X-156417Y-31968D02*
X-157345Y-32090D01*
X-158209Y-32448D01*
X-158951Y-33017D01*
X-159521Y-33759D01*
X-159879Y-34624D01*
X-160001Y-35551D01*
X-159879Y-36479D01*
X-159521Y-37343D01*
X-158951Y-38085D01*
X-158209Y-38655D01*
X-157345Y-39013D01*
X-156417Y-39135D01*
X-155490Y-39013D01*
X-154626Y-38655D01*
X-153884Y-38085D01*
X-153314Y-37343D01*
X-152956Y-36479D01*
X-152834Y-35551D01*
X-152956Y-34624D01*
X-153314Y-33759D01*
X-153884Y-33017D01*
X-154626Y-32448D01*
X-155490Y-32090D01*
X-156417Y-31968D01*
D02*
G37*
G36*
X-1690Y-39971D02*
X-3129D01*
Y-41410D01*
X-2849Y-41355D01*
X-2187Y-40913D01*
X-1745Y-40251D01*
X-1690Y-39971D01*
D02*
G37*
G36*
X-4129D02*
X-5569D01*
X-5513Y-40251D01*
X-5071Y-40913D01*
X-4410Y-41355D01*
X-4129Y-41410D01*
Y-39971D01*
D02*
G37*
G36*
X165275Y35226D02*
X164466Y35120D01*
X163712Y34807D01*
X163064Y34310D01*
X162567Y33663D01*
X162255Y32909D01*
X162149Y32100D01*
X162255Y31290D01*
X162567Y30536D01*
X163064Y29889D01*
X163644Y29444D01*
Y17323D01*
X154215Y7895D01*
X149497D01*
X148873Y7771D01*
X148343Y7417D01*
X147990Y6888D01*
X147866Y6263D01*
X147990Y5639D01*
X148343Y5110D01*
X148873Y4756D01*
X149497Y4632D01*
X150299D01*
X150491Y4170D01*
X107850Y-38471D01*
X107497Y-39000D01*
X107372Y-39624D01*
Y-39851D01*
X107497Y-40475D01*
X107850Y-41004D01*
X108379Y-41358D01*
X109004Y-41482D01*
X109628Y-41358D01*
X110157Y-41004D01*
X110511Y-40475D01*
X110524Y-40411D01*
X156045Y5110D01*
X166429Y15494D01*
X166782Y16023D01*
X166907Y16648D01*
Y29444D01*
X167486Y29889D01*
X167983Y30536D01*
X168296Y31290D01*
X168402Y32100D01*
X168296Y32909D01*
X167983Y33663D01*
X167486Y34310D01*
X166839Y34807D01*
X166085Y35120D01*
X165275Y35226D01*
D02*
G37*
G36*
X-166417Y-31968D02*
X-167345Y-32090D01*
X-168209Y-32448D01*
X-168951Y-33017D01*
X-169521Y-33759D01*
X-169879Y-34624D01*
X-170001Y-35551D01*
X-169879Y-36479D01*
X-169521Y-37343D01*
X-168951Y-38085D01*
X-168209Y-38655D01*
X-167345Y-39013D01*
X-166417Y-39135D01*
X-165490Y-39013D01*
X-164820Y-38735D01*
X-161551Y-42004D01*
X-161551Y-42004D01*
X-161187Y-42247D01*
X-160758Y-42333D01*
X-160758Y-42333D01*
X-158880D01*
X-158710Y-42832D01*
X-158951Y-43017D01*
X-159521Y-43760D01*
X-159879Y-44624D01*
X-160001Y-45551D01*
X-159879Y-46479D01*
X-159521Y-47343D01*
X-158951Y-48085D01*
X-158209Y-48654D01*
X-157345Y-49013D01*
X-156417Y-49135D01*
X-155490Y-49013D01*
X-154626Y-48654D01*
X-153884Y-48085D01*
X-153314Y-47343D01*
X-152956Y-46479D01*
X-152834Y-45551D01*
X-152956Y-44624D01*
X-153314Y-43760D01*
X-153884Y-43017D01*
X-154124Y-42832D01*
X-153955Y-42333D01*
X-145050D01*
X-145028Y-42364D01*
X-144499Y-42718D01*
X-143875Y-42842D01*
X-143251Y-42718D01*
X-142721Y-42364D01*
X-142368Y-41835D01*
X-142244Y-41211D01*
X-142368Y-40587D01*
X-142721Y-40058D01*
X-143251Y-39704D01*
X-143875Y-39580D01*
X-144499Y-39704D01*
X-145028Y-40058D01*
X-145050Y-40089D01*
X-160293D01*
X-163234Y-37149D01*
X-162956Y-36479D01*
X-162834Y-35551D01*
X-162956Y-34624D01*
X-163314Y-33759D01*
X-163883Y-33017D01*
X-164626Y-32448D01*
X-165490Y-32090D01*
X-166417Y-31968D01*
D02*
G37*
G36*
X-165917Y-41630D02*
Y-45051D01*
X-162496D01*
X-162566Y-44519D01*
X-162965Y-43558D01*
X-163598Y-42732D01*
X-164424Y-42099D01*
X-165385Y-41700D01*
X-165917Y-41630D01*
D02*
G37*
G36*
X-166917D02*
X-167449Y-41700D01*
X-168411Y-42099D01*
X-169237Y-42732D01*
X-169870Y-43558D01*
X-170268Y-44519D01*
X-170338Y-45051D01*
X-166917D01*
Y-41630D01*
D02*
G37*
G36*
X-162496Y-46051D02*
X-165917D01*
Y-49472D01*
X-165385Y-49402D01*
X-164424Y-49004D01*
X-163598Y-48370D01*
X-162965Y-47545D01*
X-162566Y-46583D01*
X-162496Y-46051D01*
D02*
G37*
G36*
X-166917D02*
X-170338D01*
X-170268Y-46583D01*
X-169870Y-47545D01*
X-169237Y-48370D01*
X-168411Y-49004D01*
X-167449Y-49402D01*
X-166917Y-49472D01*
Y-46051D01*
D02*
G37*
G36*
X146643Y-40036D02*
X145291Y-40169D01*
X143990Y-40564D01*
X142791Y-41204D01*
X141741Y-42066D01*
X140879Y-43117D01*
X140238Y-44316D01*
X139844Y-45616D01*
X139710Y-46969D01*
X139844Y-48321D01*
X140238Y-49622D01*
X140879Y-50820D01*
X141741Y-51871D01*
X142791Y-52733D01*
X143990Y-53373D01*
X145291Y-53768D01*
X146643Y-53901D01*
X147995Y-53768D01*
X149296Y-53373D01*
X150495Y-52733D01*
X151545Y-51871D01*
X152407Y-50820D01*
X153048Y-49622D01*
X153442Y-48321D01*
X153576Y-46969D01*
X153442Y-45616D01*
X153048Y-44316D01*
X152407Y-43117D01*
X151545Y-42066D01*
X150495Y-41204D01*
X149296Y-40564D01*
X147995Y-40169D01*
X146643Y-40036D01*
D02*
G37*
G36*
X-156417Y-51968D02*
X-157345Y-52090D01*
X-158209Y-52448D01*
X-158951Y-53017D01*
X-159521Y-53759D01*
X-159879Y-54624D01*
X-160001Y-55551D01*
X-159879Y-56479D01*
X-159521Y-57343D01*
X-158951Y-58085D01*
X-158209Y-58654D01*
X-157345Y-59013D01*
X-156417Y-59135D01*
X-155490Y-59013D01*
X-154626Y-58654D01*
X-153884Y-58085D01*
X-153314Y-57343D01*
X-152956Y-56479D01*
X-152834Y-55551D01*
X-152956Y-54624D01*
X-153314Y-53759D01*
X-153884Y-53017D01*
X-154626Y-52448D01*
X-155490Y-52090D01*
X-156417Y-51968D01*
D02*
G37*
G36*
X-166417D02*
X-167345Y-52090D01*
X-168209Y-52448D01*
X-168951Y-53017D01*
X-169521Y-53759D01*
X-169879Y-54624D01*
X-170001Y-55551D01*
X-169879Y-56479D01*
X-169521Y-57343D01*
X-168951Y-58085D01*
X-168209Y-58654D01*
X-167345Y-59013D01*
X-166417Y-59135D01*
X-165490Y-59013D01*
X-164626Y-58654D01*
X-163883Y-58085D01*
X-163314Y-57343D01*
X-162956Y-56479D01*
X-162834Y-55551D01*
X-162956Y-54624D01*
X-163314Y-53759D01*
X-163883Y-53017D01*
X-164626Y-52448D01*
X-165490Y-52090D01*
X-166417Y-51968D01*
D02*
G37*
G36*
X37795Y-57558D02*
X36868Y-57680D01*
X36004Y-58038D01*
X35261Y-58608D01*
X34692Y-59350D01*
X34334Y-60214D01*
X34212Y-61142D01*
X34334Y-62069D01*
X34692Y-62933D01*
X35261Y-63676D01*
X36004Y-64245D01*
X36868Y-64603D01*
X37795Y-64725D01*
X38723Y-64603D01*
X39587Y-64245D01*
X40329Y-63676D01*
X40899Y-62933D01*
X41257Y-62069D01*
X41379Y-61142D01*
X41257Y-60214D01*
X40899Y-59350D01*
X40329Y-58608D01*
X39587Y-58038D01*
X38723Y-57680D01*
X37795Y-57558D01*
D02*
G37*
G36*
X12205D02*
X11277Y-57680D01*
X10413Y-58038D01*
X9671Y-58608D01*
X9102Y-59350D01*
X8743Y-60214D01*
X8621Y-61142D01*
X8743Y-62069D01*
X9102Y-62933D01*
X9671Y-63676D01*
X10413Y-64245D01*
X11277Y-64603D01*
X12205Y-64725D01*
X13132Y-64603D01*
X13996Y-64245D01*
X14739Y-63676D01*
X15308Y-62933D01*
X15666Y-62069D01*
X15788Y-61142D01*
X15666Y-60214D01*
X15308Y-59350D01*
X14739Y-58608D01*
X13996Y-58038D01*
X13132Y-57680D01*
X12205Y-57558D01*
D02*
G37*
G36*
X-155917Y-61630D02*
Y-65051D01*
X-152496D01*
X-152566Y-64519D01*
X-152965Y-63558D01*
X-153598Y-62732D01*
X-154424Y-62098D01*
X-155385Y-61700D01*
X-155917Y-61630D01*
D02*
G37*
G36*
X-156917D02*
X-157449Y-61700D01*
X-158411Y-62098D01*
X-159237Y-62732D01*
X-159870Y-63558D01*
X-160268Y-64519D01*
X-160338Y-65051D01*
X-156917D01*
Y-61630D01*
D02*
G37*
G36*
X-166417Y-61968D02*
X-167345Y-62090D01*
X-168209Y-62448D01*
X-168951Y-63017D01*
X-169521Y-63759D01*
X-169879Y-64624D01*
X-170001Y-65551D01*
X-169879Y-66479D01*
X-169521Y-67343D01*
X-168951Y-68085D01*
X-168209Y-68655D01*
X-167345Y-69012D01*
X-166417Y-69135D01*
X-165490Y-69012D01*
X-164626Y-68655D01*
X-163883Y-68085D01*
X-163314Y-67343D01*
X-162956Y-66479D01*
X-162834Y-65551D01*
X-162956Y-64624D01*
X-163314Y-63759D01*
X-163883Y-63017D01*
X-164626Y-62448D01*
X-165490Y-62090D01*
X-166417Y-61968D01*
D02*
G37*
G36*
X-152496Y-66051D02*
X-155917D01*
Y-69472D01*
X-155385Y-69402D01*
X-154424Y-69004D01*
X-153598Y-68370D01*
X-152965Y-67545D01*
X-152566Y-66583D01*
X-152496Y-66051D01*
D02*
G37*
G36*
X-156917D02*
X-160338D01*
X-160268Y-66583D01*
X-159870Y-67545D01*
X-159237Y-68370D01*
X-158411Y-69004D01*
X-157449Y-69402D01*
X-156917Y-69472D01*
Y-66051D01*
D02*
G37*
G36*
X38295Y-74937D02*
Y-78358D01*
X41716D01*
X41646Y-77826D01*
X41248Y-76865D01*
X40615Y-76039D01*
X39789Y-75405D01*
X38827Y-75007D01*
X38295Y-74937D01*
D02*
G37*
G36*
X37295D02*
X36764Y-75007D01*
X35802Y-75405D01*
X34976Y-76039D01*
X34343Y-76865D01*
X33944Y-77826D01*
X33874Y-78358D01*
X37295D01*
Y-74937D01*
D02*
G37*
G36*
X12705D02*
Y-78358D01*
X16126D01*
X16056Y-77826D01*
X15657Y-76865D01*
X15024Y-76039D01*
X14198Y-75405D01*
X13237Y-75007D01*
X12705Y-74937D01*
D02*
G37*
G36*
X11705D02*
X11173Y-75007D01*
X10211Y-75405D01*
X9386Y-76039D01*
X8752Y-76865D01*
X8354Y-77826D01*
X8284Y-78358D01*
X11705D01*
Y-74937D01*
D02*
G37*
G36*
X-156417Y-71968D02*
X-157345Y-72090D01*
X-158209Y-72448D01*
X-158951Y-73017D01*
X-159521Y-73760D01*
X-159879Y-74624D01*
X-160001Y-75551D01*
X-159879Y-76479D01*
X-159521Y-77343D01*
X-158951Y-78085D01*
X-158209Y-78654D01*
X-157345Y-79013D01*
X-156417Y-79135D01*
X-155490Y-79013D01*
X-154626Y-78654D01*
X-153884Y-78085D01*
X-153314Y-77343D01*
X-152956Y-76479D01*
X-152834Y-75551D01*
X-152956Y-74624D01*
X-153314Y-73760D01*
X-153884Y-73017D01*
X-154626Y-72448D01*
X-155490Y-72090D01*
X-156417Y-71968D01*
D02*
G37*
G36*
X-166417D02*
X-167345Y-72090D01*
X-168209Y-72448D01*
X-168951Y-73017D01*
X-169521Y-73760D01*
X-169879Y-74624D01*
X-170001Y-75551D01*
X-169879Y-76479D01*
X-169521Y-77343D01*
X-168951Y-78085D01*
X-168209Y-78654D01*
X-167345Y-79013D01*
X-166417Y-79135D01*
X-165490Y-79013D01*
X-164626Y-78654D01*
X-163883Y-78085D01*
X-163314Y-77343D01*
X-162956Y-76479D01*
X-162834Y-75551D01*
X-162956Y-74624D01*
X-163314Y-73760D01*
X-163883Y-73017D01*
X-164626Y-72448D01*
X-165490Y-72090D01*
X-166417Y-71968D01*
D02*
G37*
G36*
X41716Y-79358D02*
X38295D01*
Y-82779D01*
X38827Y-82709D01*
X39789Y-82311D01*
X40615Y-81677D01*
X41248Y-80852D01*
X41646Y-79890D01*
X41716Y-79358D01*
D02*
G37*
G36*
X37295D02*
X33874D01*
X33944Y-79890D01*
X34343Y-80852D01*
X34976Y-81677D01*
X35802Y-82311D01*
X36764Y-82709D01*
X37295Y-82779D01*
Y-79358D01*
D02*
G37*
G36*
X16126D02*
X12705D01*
Y-82779D01*
X13237Y-82709D01*
X14198Y-82311D01*
X15024Y-81677D01*
X15657Y-80852D01*
X16056Y-79890D01*
X16126Y-79358D01*
D02*
G37*
G36*
X11705D02*
X8284D01*
X8354Y-79890D01*
X8752Y-80852D01*
X9386Y-81677D01*
X10211Y-82311D01*
X11173Y-82709D01*
X11705Y-82779D01*
Y-79358D01*
D02*
G37*
G36*
X130108Y-59116D02*
X128666Y-59306D01*
X127323Y-59862D01*
X126170Y-60747D01*
X125285Y-61901D01*
X124729Y-63244D01*
X124539Y-64685D01*
X124729Y-66127D01*
X125285Y-67470D01*
X126170Y-68623D01*
X127323Y-69508D01*
X128666Y-70064D01*
X129568Y-70183D01*
Y-81880D01*
X129434Y-81969D01*
X129080Y-82499D01*
X128956Y-83123D01*
X129080Y-83747D01*
X129434Y-84277D01*
X129963Y-84630D01*
X130587Y-84754D01*
X131212Y-84630D01*
X131741Y-84277D01*
X132095Y-83747D01*
X132219Y-83123D01*
X132095Y-82499D01*
X131741Y-81969D01*
X131607Y-81880D01*
Y-70040D01*
X132892Y-69508D01*
X134045Y-68623D01*
X134930Y-67470D01*
X135487Y-66127D01*
X135677Y-64685D01*
X135487Y-63244D01*
X134930Y-61901D01*
X134045Y-60747D01*
X132892Y-59862D01*
X131549Y-59306D01*
X130108Y-59116D01*
D02*
G37*
G36*
X-156417Y-81968D02*
X-157345Y-82090D01*
X-158209Y-82448D01*
X-158951Y-83017D01*
X-159521Y-83759D01*
X-159879Y-84624D01*
X-160001Y-85551D01*
X-159879Y-86479D01*
X-159521Y-87343D01*
X-158951Y-88085D01*
X-158291Y-88591D01*
X-158337Y-88914D01*
X-158425Y-89091D01*
X-161291D01*
X-163234Y-87149D01*
X-162956Y-86479D01*
X-162834Y-85551D01*
X-162956Y-84624D01*
X-163314Y-83759D01*
X-163883Y-83017D01*
X-164626Y-82448D01*
X-165490Y-82090D01*
X-166417Y-81968D01*
X-167345Y-82090D01*
X-168209Y-82448D01*
X-168951Y-83017D01*
X-169521Y-83759D01*
X-169879Y-84624D01*
X-170001Y-85551D01*
X-169879Y-86479D01*
X-169521Y-87343D01*
X-168951Y-88085D01*
X-168209Y-88655D01*
X-167345Y-89012D01*
X-166417Y-89135D01*
X-165490Y-89012D01*
X-164820Y-88735D01*
X-162549Y-91006D01*
X-162549Y-91006D01*
X-162185Y-91249D01*
X-161756Y-91335D01*
X-161756Y-91335D01*
X-156244D01*
X-156125Y-91502D01*
X-156407Y-91969D01*
X-156417Y-91968D01*
X-157345Y-92090D01*
X-158209Y-92448D01*
X-158951Y-93017D01*
X-159521Y-93760D01*
X-159879Y-94624D01*
X-160001Y-95551D01*
X-159879Y-96479D01*
X-159521Y-97343D01*
X-158951Y-98085D01*
X-158209Y-98655D01*
X-157345Y-99013D01*
X-156417Y-99135D01*
X-155490Y-99013D01*
X-154626Y-98655D01*
X-153884Y-98085D01*
X-153314Y-97343D01*
X-152956Y-96479D01*
X-152869Y-95821D01*
X-152363Y-95805D01*
X-152354Y-95850D01*
X-152000Y-96379D01*
X-151968Y-96401D01*
Y-137657D01*
X-151968Y-137657D01*
X-151883Y-138086D01*
X-151640Y-138450D01*
X-150624Y-139466D01*
X-150631Y-139504D01*
X-150507Y-140128D01*
X-150154Y-140658D01*
X-149624Y-141011D01*
X-149000Y-141136D01*
X-148376Y-141011D01*
X-147846Y-140658D01*
X-147493Y-140128D01*
X-147369Y-139504D01*
X-147493Y-138880D01*
X-147846Y-138351D01*
X-148376Y-137997D01*
X-149000Y-137873D01*
X-149038Y-137880D01*
X-149725Y-137193D01*
Y-96401D01*
X-149693Y-96379D01*
X-149340Y-95850D01*
X-149215Y-95226D01*
X-149340Y-94602D01*
X-149693Y-94072D01*
X-150223Y-93719D01*
X-150501Y-93663D01*
X-154744Y-89420D01*
X-154906Y-89312D01*
X-154866Y-88754D01*
X-154626Y-88655D01*
X-153884Y-88085D01*
X-153314Y-87343D01*
X-152956Y-86479D01*
X-152834Y-85551D01*
X-152956Y-84624D01*
X-153314Y-83759D01*
X-153884Y-83017D01*
X-154626Y-82448D01*
X-155490Y-82090D01*
X-156417Y-81968D01*
D02*
G37*
G36*
X146643Y-75469D02*
X145291Y-75602D01*
X143990Y-75997D01*
X142791Y-76637D01*
X141741Y-77500D01*
X140879Y-78550D01*
X140238Y-79749D01*
X139844Y-81049D01*
X139710Y-82402D01*
X139844Y-83754D01*
X140238Y-85055D01*
X140879Y-86253D01*
X141741Y-87304D01*
X142791Y-88166D01*
X143990Y-88806D01*
X145291Y-89201D01*
X146643Y-89334D01*
X147995Y-89201D01*
X149296Y-88806D01*
X150495Y-88166D01*
X151545Y-87304D01*
X152407Y-86253D01*
X153048Y-85055D01*
X153442Y-83754D01*
X153576Y-82402D01*
X153442Y-81049D01*
X153048Y-79749D01*
X152407Y-78550D01*
X151545Y-77500D01*
X150495Y-76637D01*
X149296Y-75997D01*
X147995Y-75602D01*
X146643Y-75469D01*
D02*
G37*
G36*
X108454Y-59116D02*
X107013Y-59306D01*
X105670Y-59862D01*
X104516Y-60747D01*
X103631Y-61901D01*
X103075Y-63244D01*
X102885Y-64685D01*
X103075Y-66127D01*
X103631Y-67470D01*
X104516Y-68623D01*
X105670Y-69508D01*
X107013Y-70064D01*
X108454Y-70254D01*
X109895Y-70064D01*
X111095Y-69567D01*
X117216Y-75688D01*
X117051Y-76230D01*
X116741Y-76292D01*
X116212Y-76645D01*
X115858Y-77175D01*
X115734Y-77799D01*
X115858Y-78423D01*
X116212Y-78952D01*
X116741Y-79306D01*
X116972Y-79352D01*
X123163Y-85543D01*
X123167Y-85560D01*
X123520Y-86089D01*
X124049Y-86443D01*
X124674Y-86567D01*
X125298Y-86443D01*
X125827Y-86089D01*
X126181Y-85560D01*
X126214Y-85393D01*
X126757Y-85228D01*
X127660Y-86132D01*
Y-87031D01*
X127526Y-87120D01*
X127173Y-87650D01*
X127049Y-88274D01*
X127173Y-88898D01*
X127526Y-89427D01*
X128056Y-89781D01*
X128680Y-89905D01*
X129304Y-89781D01*
X129833Y-89427D01*
X130187Y-88898D01*
X130311Y-88274D01*
X130187Y-87650D01*
X129833Y-87120D01*
X129700Y-87031D01*
Y-85732D01*
X129622Y-85341D01*
X129401Y-85011D01*
X129284Y-84894D01*
X129240Y-84828D01*
X112671Y-68259D01*
X113277Y-67470D01*
X113833Y-66127D01*
X114023Y-64685D01*
X113833Y-63244D01*
X113277Y-61901D01*
X112392Y-60747D01*
X111239Y-59862D01*
X109895Y-59306D01*
X108454Y-59116D01*
D02*
G37*
G36*
X-105951Y8261D02*
X-106760Y8155D01*
X-107514Y7842D01*
X-108162Y7345D01*
X-108659Y6698D01*
X-108971Y5944D01*
X-109078Y5134D01*
X-108971Y4325D01*
X-108659Y3571D01*
X-108162Y2923D01*
X-107514Y2427D01*
X-106760Y2114D01*
X-105951Y2008D01*
X-105219Y2104D01*
X-102469Y-646D01*
Y-85035D01*
X-102469Y-85035D01*
X-102286Y-85952D01*
X-101767Y-86730D01*
X-97127Y-91370D01*
X-96349Y-91889D01*
X-95432Y-92071D01*
X-94516Y-91889D01*
X-93738Y-91370D01*
X-93219Y-90592D01*
X-93036Y-89675D01*
X-93219Y-88758D01*
X-93738Y-87981D01*
X-97676Y-84043D01*
Y347D01*
X-97859Y1263D01*
X-98378Y2041D01*
X-98378Y2041D01*
X-99379Y3041D01*
X-99187Y3503D01*
X-50757D01*
X-50133Y3627D01*
X-49603Y3981D01*
X-49443Y4142D01*
X-49089Y4671D01*
X-48965Y5295D01*
X-49089Y5920D01*
X-49443Y6449D01*
X-49972Y6803D01*
X-50596Y6927D01*
X-51220Y6803D01*
X-51275Y6766D01*
X-103103D01*
X-103166Y6829D01*
X-103530Y7072D01*
X-103740Y7345D01*
X-104387Y7842D01*
X-105142Y8155D01*
X-105951Y8261D01*
D02*
G37*
G36*
X-165917Y-91630D02*
Y-95051D01*
X-162496D01*
X-162566Y-94519D01*
X-162965Y-93558D01*
X-163598Y-92732D01*
X-164424Y-92098D01*
X-165385Y-91700D01*
X-165917Y-91630D01*
D02*
G37*
G36*
X-166917D02*
X-167449Y-91700D01*
X-168411Y-92098D01*
X-169237Y-92732D01*
X-169870Y-93558D01*
X-170268Y-94519D01*
X-170338Y-95051D01*
X-166917D01*
Y-91630D01*
D02*
G37*
G36*
X-162496Y-96051D02*
X-165917D01*
Y-99472D01*
X-165385Y-99402D01*
X-164424Y-99004D01*
X-163598Y-98370D01*
X-162965Y-97545D01*
X-162566Y-96583D01*
X-162496Y-96051D01*
D02*
G37*
G36*
X-166917D02*
X-170338D01*
X-170268Y-96583D01*
X-169870Y-97545D01*
X-169237Y-98370D01*
X-168411Y-99004D01*
X-167449Y-99402D01*
X-166917Y-99472D01*
Y-96051D01*
D02*
G37*
G36*
X-156417Y-101968D02*
X-157345Y-102090D01*
X-158209Y-102448D01*
X-158951Y-103017D01*
X-159521Y-103760D01*
X-159879Y-104624D01*
X-160001Y-105551D01*
X-159879Y-106479D01*
X-159521Y-107343D01*
X-158951Y-108085D01*
X-158209Y-108654D01*
X-157345Y-109012D01*
X-156417Y-109135D01*
X-155490Y-109012D01*
X-154626Y-108654D01*
X-153884Y-108085D01*
X-153314Y-107343D01*
X-152956Y-106479D01*
X-152834Y-105551D01*
X-152956Y-104624D01*
X-153314Y-103760D01*
X-153884Y-103017D01*
X-154626Y-102448D01*
X-155490Y-102090D01*
X-156417Y-101968D01*
D02*
G37*
G36*
X-166417D02*
X-167345Y-102090D01*
X-168209Y-102448D01*
X-168951Y-103017D01*
X-169521Y-103760D01*
X-169879Y-104624D01*
X-170001Y-105551D01*
X-169879Y-106479D01*
X-169521Y-107343D01*
X-168951Y-108085D01*
X-168209Y-108654D01*
X-167539Y-108932D01*
Y-108961D01*
X-167539Y-108961D01*
X-167454Y-109390D01*
X-167210Y-109754D01*
X-165336Y-111628D01*
X-165395Y-111803D01*
X-165595Y-112076D01*
X-166417Y-111968D01*
X-167345Y-112090D01*
X-168209Y-112448D01*
X-168951Y-113017D01*
X-169521Y-113760D01*
X-169879Y-114624D01*
X-170001Y-115551D01*
X-169879Y-116479D01*
X-169521Y-117343D01*
X-168951Y-118085D01*
X-168209Y-118655D01*
X-167345Y-119012D01*
X-166417Y-119135D01*
X-165490Y-119012D01*
X-164626Y-118655D01*
X-163883Y-118085D01*
X-163314Y-117343D01*
X-162956Y-116479D01*
X-162834Y-115551D01*
X-162840Y-115503D01*
X-162360Y-115322D01*
X-162353Y-115332D01*
X-161823Y-115686D01*
X-161199Y-115810D01*
X-160575Y-115686D01*
X-160494Y-115632D01*
X-159958Y-115875D01*
X-159879Y-116479D01*
X-159521Y-117343D01*
X-158951Y-118085D01*
X-158209Y-118655D01*
X-157345Y-119012D01*
X-156417Y-119135D01*
X-155490Y-119012D01*
X-154626Y-118655D01*
X-153884Y-118085D01*
X-153314Y-117343D01*
X-152956Y-116479D01*
X-152834Y-115551D01*
X-152956Y-114624D01*
X-153314Y-113760D01*
X-153884Y-113017D01*
X-154626Y-112448D01*
X-155490Y-112090D01*
X-156417Y-111968D01*
X-157345Y-112090D01*
X-158209Y-112448D01*
X-158951Y-113017D01*
X-159242Y-113396D01*
X-159267Y-113405D01*
X-159832Y-113344D01*
X-160046Y-113025D01*
X-160575Y-112672D01*
X-161199Y-112548D01*
X-161237Y-112555D01*
X-164652Y-109140D01*
X-164515Y-108570D01*
X-163883Y-108085D01*
X-163314Y-107343D01*
X-162956Y-106479D01*
X-162834Y-105551D01*
X-162956Y-104624D01*
X-163314Y-103760D01*
X-163883Y-103017D01*
X-164626Y-102448D01*
X-165490Y-102090D01*
X-166417Y-101968D01*
D02*
G37*
G36*
X37795Y-107558D02*
X36868Y-107680D01*
X36004Y-108038D01*
X35261Y-108608D01*
X34692Y-109350D01*
X34334Y-110214D01*
X34212Y-111142D01*
X34334Y-112069D01*
X34692Y-112933D01*
X35261Y-113676D01*
X36004Y-114245D01*
X36868Y-114603D01*
X37795Y-114725D01*
X38723Y-114603D01*
X39587Y-114245D01*
X40329Y-113676D01*
X40899Y-112933D01*
X41257Y-112069D01*
X41379Y-111142D01*
X41257Y-110214D01*
X40899Y-109350D01*
X40329Y-108608D01*
X39587Y-108038D01*
X38723Y-107680D01*
X37795Y-107558D01*
D02*
G37*
G36*
X12205D02*
X11277Y-107680D01*
X10413Y-108038D01*
X9671Y-108608D01*
X9102Y-109350D01*
X8743Y-110214D01*
X8621Y-111142D01*
X8743Y-112069D01*
X9102Y-112933D01*
X9671Y-113676D01*
X10413Y-114245D01*
X11277Y-114603D01*
X12205Y-114725D01*
X13132Y-114603D01*
X13996Y-114245D01*
X14739Y-113676D01*
X15308Y-112933D01*
X15666Y-112069D01*
X15788Y-111142D01*
X15666Y-110214D01*
X15308Y-109350D01*
X14739Y-108608D01*
X13996Y-108038D01*
X13132Y-107680D01*
X12205Y-107558D01*
D02*
G37*
G36*
X-12205D02*
X-13132Y-107680D01*
X-13996Y-108038D01*
X-14739Y-108608D01*
X-15308Y-109350D01*
X-15666Y-110214D01*
X-15788Y-111142D01*
X-15666Y-112069D01*
X-15308Y-112933D01*
X-14739Y-113676D01*
X-13996Y-114245D01*
X-13132Y-114603D01*
X-12205Y-114725D01*
X-11277Y-114603D01*
X-10413Y-114245D01*
X-9671Y-113676D01*
X-9101Y-112933D01*
X-8743Y-112069D01*
X-8621Y-111142D01*
X-8743Y-110214D01*
X-9101Y-109350D01*
X-9671Y-108608D01*
X-10413Y-108038D01*
X-11277Y-107680D01*
X-12205Y-107558D01*
D02*
G37*
G36*
X-37795D02*
X-38723Y-107680D01*
X-39587Y-108038D01*
X-40329Y-108608D01*
X-40898Y-109350D01*
X-41256Y-110214D01*
X-41379Y-111142D01*
X-41256Y-112069D01*
X-40898Y-112933D01*
X-40329Y-113676D01*
X-39587Y-114245D01*
X-38723Y-114603D01*
X-37795Y-114725D01*
X-36868Y-114603D01*
X-36004Y-114245D01*
X-35261Y-113676D01*
X-34692Y-112933D01*
X-34334Y-112069D01*
X-34212Y-111142D01*
X-34334Y-110214D01*
X-34692Y-109350D01*
X-35261Y-108608D01*
X-36004Y-108038D01*
X-36868Y-107680D01*
X-37795Y-107558D01*
D02*
G37*
G36*
X146643Y-103028D02*
X145291Y-103161D01*
X143990Y-103556D01*
X142791Y-104196D01*
X141741Y-105059D01*
X140879Y-106109D01*
X140238Y-107308D01*
X139844Y-108608D01*
X139710Y-109961D01*
X139844Y-111313D01*
X140238Y-112614D01*
X140879Y-113812D01*
X141741Y-114863D01*
X142791Y-115725D01*
X143990Y-116366D01*
X145291Y-116760D01*
X146643Y-116893D01*
X147995Y-116760D01*
X149296Y-116366D01*
X150495Y-115725D01*
X151545Y-114863D01*
X152407Y-113812D01*
X153048Y-112614D01*
X153442Y-111313D01*
X153576Y-109961D01*
X153442Y-108608D01*
X153048Y-107308D01*
X152407Y-106109D01*
X151545Y-105059D01*
X150495Y-104196D01*
X149296Y-103556D01*
X147995Y-103161D01*
X146643Y-103028D01*
D02*
G37*
G36*
X-165917Y-121630D02*
Y-125051D01*
X-162496D01*
X-162566Y-124519D01*
X-162965Y-123558D01*
X-163598Y-122732D01*
X-164424Y-122099D01*
X-165385Y-121700D01*
X-165917Y-121630D01*
D02*
G37*
G36*
X-166917D02*
X-167449Y-121700D01*
X-168411Y-122099D01*
X-169237Y-122732D01*
X-169870Y-123558D01*
X-170268Y-124519D01*
X-170338Y-125051D01*
X-166917D01*
Y-121630D01*
D02*
G37*
G36*
X-11705Y-124937D02*
Y-128358D01*
X-8284D01*
X-8354Y-127826D01*
X-8752Y-126865D01*
X-9386Y-126039D01*
X-10211Y-125405D01*
X-11173Y-125007D01*
X-11705Y-124937D01*
D02*
G37*
G36*
X-37295D02*
Y-128358D01*
X-33874D01*
X-33944Y-127826D01*
X-34343Y-126865D01*
X-34976Y-126039D01*
X-35802Y-125405D01*
X-36763Y-125007D01*
X-37295Y-124937D01*
D02*
G37*
G36*
X38295D02*
Y-128358D01*
X41716D01*
X41646Y-127826D01*
X41248Y-126865D01*
X40615Y-126039D01*
X39789Y-125405D01*
X38827Y-125007D01*
X38295Y-124937D01*
D02*
G37*
G36*
X37295D02*
X36764Y-125007D01*
X35802Y-125405D01*
X34976Y-126039D01*
X34343Y-126865D01*
X33944Y-127826D01*
X33874Y-128358D01*
X37295D01*
Y-124937D01*
D02*
G37*
G36*
X12705D02*
Y-128358D01*
X16126D01*
X16056Y-127826D01*
X15657Y-126865D01*
X15024Y-126039D01*
X14198Y-125405D01*
X13237Y-125007D01*
X12705Y-124937D01*
D02*
G37*
G36*
X11705D02*
X11173Y-125007D01*
X10211Y-125405D01*
X9386Y-126039D01*
X8752Y-126865D01*
X8354Y-127826D01*
X8284Y-128358D01*
X11705D01*
Y-124937D01*
D02*
G37*
G36*
X-12705Y-124937D02*
X-13237Y-125007D01*
X-14198Y-125405D01*
X-15024Y-126039D01*
X-15657Y-126865D01*
X-16056Y-127826D01*
X-16126Y-128358D01*
X-12705D01*
Y-124937D01*
D02*
G37*
G36*
X-38295D02*
X-38827Y-125007D01*
X-39789Y-125405D01*
X-40614Y-126039D01*
X-41248Y-126865D01*
X-41646Y-127826D01*
X-41716Y-128358D01*
X-38295D01*
Y-124937D01*
D02*
G37*
G36*
X-156417Y-121968D02*
X-157345Y-122090D01*
X-158209Y-122448D01*
X-158951Y-123017D01*
X-159521Y-123759D01*
X-159879Y-124624D01*
X-160001Y-125551D01*
X-159879Y-126479D01*
X-159521Y-127343D01*
X-158951Y-128085D01*
X-158209Y-128655D01*
X-157345Y-129013D01*
X-156417Y-129135D01*
X-155490Y-129013D01*
X-154626Y-128655D01*
X-153884Y-128085D01*
X-153314Y-127343D01*
X-152956Y-126479D01*
X-152834Y-125551D01*
X-152956Y-124624D01*
X-153314Y-123759D01*
X-153884Y-123017D01*
X-154626Y-122448D01*
X-155490Y-122090D01*
X-156417Y-121968D01*
D02*
G37*
G36*
X-162496Y-126051D02*
X-165917D01*
Y-129472D01*
X-165385Y-129402D01*
X-164424Y-129004D01*
X-163598Y-128370D01*
X-162965Y-127545D01*
X-162566Y-126583D01*
X-162496Y-126051D01*
D02*
G37*
G36*
X-166917D02*
X-170338D01*
X-170268Y-126583D01*
X-169870Y-127545D01*
X-169237Y-128370D01*
X-168411Y-129004D01*
X-167449Y-129402D01*
X-166917Y-129472D01*
Y-126051D01*
D02*
G37*
G36*
X-8284Y-129358D02*
X-11705D01*
Y-132779D01*
X-11173Y-132709D01*
X-10211Y-132311D01*
X-9386Y-131677D01*
X-8752Y-130851D01*
X-8354Y-129890D01*
X-8284Y-129358D01*
D02*
G37*
G36*
X-33874D02*
X-37295D01*
Y-132779D01*
X-36763Y-132709D01*
X-35802Y-132311D01*
X-34976Y-131677D01*
X-34343Y-130851D01*
X-33944Y-129890D01*
X-33874Y-129358D01*
D02*
G37*
G36*
X41716D02*
X38295D01*
Y-132779D01*
X38827Y-132709D01*
X39789Y-132311D01*
X40615Y-131677D01*
X41248Y-130851D01*
X41646Y-129890D01*
X41716Y-129358D01*
D02*
G37*
G36*
X37295D02*
X33874D01*
X33944Y-129890D01*
X34343Y-130851D01*
X34976Y-131677D01*
X35802Y-132311D01*
X36764Y-132709D01*
X37295Y-132779D01*
Y-129358D01*
D02*
G37*
G36*
X16126D02*
X12705D01*
Y-132779D01*
X13237Y-132709D01*
X14198Y-132311D01*
X15024Y-131677D01*
X15657Y-130851D01*
X16056Y-129890D01*
X16126Y-129358D01*
D02*
G37*
G36*
X11705D02*
X8284D01*
X8354Y-129890D01*
X8752Y-130851D01*
X9386Y-131677D01*
X10211Y-132311D01*
X11173Y-132709D01*
X11705Y-132779D01*
Y-129358D01*
D02*
G37*
G36*
X-12705D02*
X-16126D01*
X-16056Y-129890D01*
X-15657Y-130851D01*
X-15024Y-131677D01*
X-14198Y-132311D01*
X-13237Y-132709D01*
X-12705Y-132779D01*
Y-129358D01*
D02*
G37*
G36*
X-38295D02*
X-41716D01*
X-41646Y-129890D01*
X-41248Y-130851D01*
X-40614Y-131677D01*
X-39789Y-132311D01*
X-38827Y-132709D01*
X-38295Y-132779D01*
Y-129358D01*
D02*
G37*
G36*
X-156417Y-131968D02*
X-157345Y-132090D01*
X-158209Y-132448D01*
X-158951Y-133017D01*
X-159521Y-133759D01*
X-159879Y-134624D01*
X-160001Y-135551D01*
X-159879Y-136479D01*
X-159521Y-137343D01*
X-158951Y-138085D01*
X-158209Y-138654D01*
X-157345Y-139013D01*
X-156417Y-139135D01*
X-155490Y-139013D01*
X-154626Y-138654D01*
X-153884Y-138085D01*
X-153314Y-137343D01*
X-152956Y-136479D01*
X-152834Y-135551D01*
X-152956Y-134624D01*
X-153314Y-133759D01*
X-153884Y-133017D01*
X-154626Y-132448D01*
X-155490Y-132090D01*
X-156417Y-131968D01*
D02*
G37*
G36*
X-166417D02*
X-167345Y-132090D01*
X-168209Y-132448D01*
X-168951Y-133017D01*
X-169521Y-133759D01*
X-169879Y-134624D01*
X-170001Y-135551D01*
X-169879Y-136479D01*
X-169521Y-137343D01*
X-168951Y-138085D01*
X-168209Y-138654D01*
X-167345Y-139013D01*
X-166417Y-139135D01*
X-165490Y-139013D01*
X-164626Y-138654D01*
X-163883Y-138085D01*
X-163314Y-137343D01*
X-162956Y-136479D01*
X-162834Y-135551D01*
X-162956Y-134624D01*
X-163314Y-133759D01*
X-163883Y-133017D01*
X-164626Y-132448D01*
X-165490Y-132090D01*
X-166417Y-131968D01*
D02*
G37*
G36*
X-155917Y-141630D02*
Y-145051D01*
X-152496D01*
X-152566Y-144519D01*
X-152965Y-143558D01*
X-153598Y-142732D01*
X-154424Y-142098D01*
X-155385Y-141700D01*
X-155917Y-141630D01*
D02*
G37*
G36*
X-156917D02*
X-157449Y-141700D01*
X-158411Y-142098D01*
X-159237Y-142732D01*
X-159870Y-143558D01*
X-160268Y-144519D01*
X-160338Y-145051D01*
X-156917D01*
Y-141630D01*
D02*
G37*
G36*
X130108Y-122108D02*
X128666Y-122298D01*
X127323Y-122854D01*
X126170Y-123739D01*
X125285Y-124893D01*
X124729Y-126236D01*
X124539Y-127677D01*
X124729Y-129119D01*
X125285Y-130462D01*
X126170Y-131615D01*
X127323Y-132500D01*
X128666Y-133056D01*
X129088Y-133112D01*
Y-134258D01*
X123556Y-139790D01*
X123335Y-140121D01*
X123258Y-140511D01*
Y-145860D01*
X123020Y-146056D01*
X122520Y-145820D01*
Y-140723D01*
X122442Y-140333D01*
X122221Y-140002D01*
X113018Y-130799D01*
X113277Y-130462D01*
X113833Y-129119D01*
X114023Y-127677D01*
X113833Y-126236D01*
X113277Y-124893D01*
X112392Y-123739D01*
X111239Y-122854D01*
X109895Y-122298D01*
X108454Y-122108D01*
X107013Y-122298D01*
X105670Y-122854D01*
X104516Y-123739D01*
X103631Y-124893D01*
X103075Y-126236D01*
X102885Y-127677D01*
X103075Y-129119D01*
X103631Y-130462D01*
X104516Y-131615D01*
X105670Y-132500D01*
X107013Y-133056D01*
X108454Y-133246D01*
X109895Y-133056D01*
X111239Y-132500D01*
X111576Y-132241D01*
X120480Y-141146D01*
Y-148257D01*
X120346Y-148346D01*
X119993Y-148876D01*
X119869Y-149500D01*
X119993Y-150124D01*
X120346Y-150654D01*
X120876Y-151007D01*
X121500Y-151131D01*
X122124Y-151007D01*
X122653Y-150654D01*
X123007Y-150124D01*
X123131Y-149500D01*
X123021Y-148947D01*
X123183Y-148767D01*
X123426Y-148616D01*
X123653Y-148767D01*
X124277Y-148892D01*
X124901Y-148767D01*
X125431Y-148414D01*
X125784Y-147885D01*
X125909Y-147260D01*
X125784Y-146636D01*
X125431Y-146107D01*
X125297Y-146017D01*
Y-140934D01*
X130829Y-135402D01*
X131050Y-135071D01*
X131127Y-134681D01*
Y-133112D01*
X131549Y-133056D01*
X132892Y-132500D01*
X134045Y-131615D01*
X134930Y-130462D01*
X135487Y-129119D01*
X135677Y-127677D01*
X135487Y-126236D01*
X134930Y-124893D01*
X134045Y-123739D01*
X132892Y-122854D01*
X131549Y-122298D01*
X130108Y-122108D01*
D02*
G37*
G36*
X-166417Y-141968D02*
X-167345Y-142090D01*
X-168209Y-142448D01*
X-168951Y-143017D01*
X-169521Y-143760D01*
X-169879Y-144624D01*
X-170001Y-145551D01*
X-169879Y-146479D01*
X-169521Y-147343D01*
X-168951Y-148085D01*
X-168209Y-148654D01*
X-167345Y-149012D01*
X-166417Y-149135D01*
X-165490Y-149012D01*
X-164626Y-148654D01*
X-163883Y-148085D01*
X-163314Y-147343D01*
X-162956Y-146479D01*
X-162834Y-145551D01*
X-162956Y-144624D01*
X-163314Y-143760D01*
X-163883Y-143017D01*
X-164626Y-142448D01*
X-165490Y-142090D01*
X-166417Y-141968D01*
D02*
G37*
G36*
X-152496Y-146051D02*
X-155917D01*
Y-149472D01*
X-155385Y-149402D01*
X-154424Y-149004D01*
X-153598Y-148370D01*
X-152965Y-147545D01*
X-152566Y-146583D01*
X-152496Y-146051D01*
D02*
G37*
G36*
X-156917D02*
X-160338D01*
X-160268Y-146583D01*
X-159870Y-147545D01*
X-159237Y-148370D01*
X-158411Y-149004D01*
X-157449Y-149402D01*
X-156917Y-149472D01*
Y-146051D01*
D02*
G37*
G36*
X146643Y-138461D02*
X145291Y-138594D01*
X143990Y-138989D01*
X142791Y-139629D01*
X141741Y-140491D01*
X140879Y-141542D01*
X140238Y-142741D01*
X139844Y-144041D01*
X139710Y-145394D01*
X139844Y-146746D01*
X140238Y-148047D01*
X140879Y-149245D01*
X141741Y-150296D01*
X142791Y-151158D01*
X143990Y-151798D01*
X145291Y-152193D01*
X146643Y-152326D01*
X147995Y-152193D01*
X149296Y-151798D01*
X150495Y-151158D01*
X151545Y-150296D01*
X152407Y-149245D01*
X153048Y-148047D01*
X153442Y-146746D01*
X153576Y-145394D01*
X153442Y-144041D01*
X153048Y-142741D01*
X152407Y-141542D01*
X151545Y-140491D01*
X150495Y-139629D01*
X149296Y-138989D01*
X147995Y-138594D01*
X146643Y-138461D01*
D02*
G37*
G36*
X-156417Y-151968D02*
X-157345Y-152090D01*
X-158209Y-152448D01*
X-158951Y-153017D01*
X-159521Y-153760D01*
X-159879Y-154624D01*
X-160001Y-155551D01*
X-159879Y-156479D01*
X-159521Y-157343D01*
X-158951Y-158085D01*
X-158209Y-158654D01*
X-157345Y-159012D01*
X-156417Y-159135D01*
X-155490Y-159012D01*
X-154626Y-158654D01*
X-153884Y-158085D01*
X-153314Y-157343D01*
X-152956Y-156479D01*
X-152834Y-155551D01*
X-152956Y-154624D01*
X-153314Y-153760D01*
X-153884Y-153017D01*
X-154626Y-152448D01*
X-155490Y-152090D01*
X-156417Y-151968D01*
D02*
G37*
G36*
X-166417D02*
X-167345Y-152090D01*
X-168209Y-152448D01*
X-168951Y-153017D01*
X-169521Y-153760D01*
X-169879Y-154624D01*
X-170001Y-155551D01*
X-169879Y-156479D01*
X-169521Y-157343D01*
X-168951Y-158085D01*
X-168209Y-158654D01*
X-167345Y-159012D01*
X-166417Y-159135D01*
X-165490Y-159012D01*
X-164626Y-158654D01*
X-163883Y-158085D01*
X-163314Y-157343D01*
X-162956Y-156479D01*
X-162834Y-155551D01*
X-162956Y-154624D01*
X-163314Y-153760D01*
X-163883Y-153017D01*
X-164626Y-152448D01*
X-165490Y-152090D01*
X-166417Y-151968D01*
D02*
G37*
G36*
X37795Y-157558D02*
X36868Y-157680D01*
X36004Y-158038D01*
X35261Y-158608D01*
X34692Y-159350D01*
X34334Y-160214D01*
X34212Y-161142D01*
X34334Y-162069D01*
X34692Y-162933D01*
X35261Y-163676D01*
X36004Y-164245D01*
X36868Y-164603D01*
X37795Y-164725D01*
X38723Y-164603D01*
X39587Y-164245D01*
X40329Y-163676D01*
X40899Y-162933D01*
X41257Y-162069D01*
X41379Y-161142D01*
X41257Y-160214D01*
X40899Y-159350D01*
X40329Y-158608D01*
X39587Y-158038D01*
X38723Y-157680D01*
X37795Y-157558D01*
D02*
G37*
G36*
X12205D02*
X11277Y-157680D01*
X10413Y-158038D01*
X9671Y-158608D01*
X9102Y-159350D01*
X8743Y-160214D01*
X8621Y-161142D01*
X8743Y-162069D01*
X9102Y-162933D01*
X9671Y-163676D01*
X10413Y-164245D01*
X11277Y-164603D01*
X12205Y-164725D01*
X13132Y-164603D01*
X13996Y-164245D01*
X14739Y-163676D01*
X15308Y-162933D01*
X15666Y-162069D01*
X15788Y-161142D01*
X15666Y-160214D01*
X15308Y-159350D01*
X14739Y-158608D01*
X13996Y-158038D01*
X13132Y-157680D01*
X12205Y-157558D01*
D02*
G37*
G36*
X-165917Y-161630D02*
Y-165051D01*
X-162496D01*
X-162566Y-164519D01*
X-162965Y-163558D01*
X-163598Y-162732D01*
X-164424Y-162099D01*
X-165385Y-161700D01*
X-165917Y-161630D01*
D02*
G37*
G36*
X-166917D02*
X-167449Y-161700D01*
X-168411Y-162099D01*
X-169237Y-162732D01*
X-169870Y-163558D01*
X-170268Y-164519D01*
X-170338Y-165051D01*
X-166917D01*
Y-161630D01*
D02*
G37*
G36*
X-162496Y-166051D02*
X-165917D01*
Y-169472D01*
X-165385Y-169402D01*
X-164424Y-169004D01*
X-163598Y-168370D01*
X-162965Y-167545D01*
X-162566Y-166583D01*
X-162496Y-166051D01*
D02*
G37*
G36*
X-166917D02*
X-170338D01*
X-170268Y-166583D01*
X-169870Y-167545D01*
X-169237Y-168370D01*
X-168411Y-169004D01*
X-167449Y-169402D01*
X-166917Y-169472D01*
Y-166051D01*
D02*
G37*
G36*
X-156417Y-161968D02*
X-157345Y-162090D01*
X-158209Y-162448D01*
X-158951Y-163017D01*
X-159521Y-163760D01*
X-159879Y-164624D01*
X-160001Y-165551D01*
X-159879Y-166479D01*
X-159521Y-167343D01*
X-158951Y-168085D01*
X-158209Y-168655D01*
X-157345Y-169012D01*
X-156417Y-169135D01*
X-155490Y-169012D01*
X-154820Y-168735D01*
X-153486Y-170069D01*
Y-172782D01*
X-153986Y-172939D01*
X-154626Y-172448D01*
X-155490Y-172090D01*
X-156417Y-171968D01*
X-157345Y-172090D01*
X-158209Y-172448D01*
X-158951Y-173017D01*
X-159521Y-173759D01*
X-159879Y-174624D01*
X-160001Y-175551D01*
X-159879Y-176479D01*
X-159521Y-177343D01*
X-158951Y-178085D01*
X-158209Y-178655D01*
X-157345Y-179013D01*
X-156417Y-179135D01*
X-155490Y-179013D01*
X-154820Y-178735D01*
X-142597Y-190958D01*
X-142596Y-190958D01*
X-142233Y-191201D01*
X-141804Y-191287D01*
X-64990D01*
X-47564Y-208712D01*
X-47597Y-209211D01*
X-47955Y-209486D01*
X-48619Y-210351D01*
X-49037Y-211359D01*
X-49179Y-212441D01*
X-49037Y-213523D01*
X-48619Y-214530D01*
X-47955Y-215396D01*
X-47089Y-216060D01*
X-46082Y-216478D01*
X-45000Y-216620D01*
X-43918Y-216478D01*
X-42911Y-216060D01*
X-42045Y-215396D01*
X-41381Y-214530D01*
X-40963Y-213523D01*
X-40821Y-212441D01*
X-40963Y-211359D01*
X-41381Y-210351D01*
X-42045Y-209486D01*
X-42167Y-209393D01*
X-42006Y-208919D01*
X-40108D01*
X-38636Y-210391D01*
X-39037Y-211359D01*
X-39179Y-212441D01*
X-39037Y-213523D01*
X-38619Y-214530D01*
X-37955Y-215396D01*
X-37089Y-216060D01*
X-36082Y-216478D01*
X-35000Y-216620D01*
X-33918Y-216478D01*
X-32910Y-216060D01*
X-32045Y-215396D01*
X-31381Y-214530D01*
X-30963Y-213523D01*
X-30821Y-212441D01*
X-30963Y-211359D01*
X-31381Y-210351D01*
X-32045Y-209486D01*
X-32910Y-208822D01*
X-33918Y-208404D01*
X-35000Y-208262D01*
X-36082Y-208404D01*
X-37050Y-208805D01*
X-38850Y-207005D01*
X-39214Y-206762D01*
X-39643Y-206676D01*
X-39643Y-206676D01*
X-44111D01*
X-63015Y-187772D01*
X-63379Y-187529D01*
X-63808Y-187444D01*
X-63808Y-187444D01*
X-140676D01*
X-151243Y-176877D01*
Y-169604D01*
X-151243Y-169604D01*
X-151329Y-169175D01*
X-151572Y-168811D01*
X-151572Y-168811D01*
X-153234Y-167149D01*
X-152956Y-166479D01*
X-152834Y-165551D01*
X-152956Y-164624D01*
X-153314Y-163760D01*
X-153884Y-163017D01*
X-154626Y-162448D01*
X-155490Y-162090D01*
X-156417Y-161968D01*
D02*
G37*
G36*
X123246Y-174696D02*
X122621Y-174820D01*
X122092Y-175174D01*
X122071Y-175206D01*
X88198D01*
X88177Y-175174D01*
X87647Y-174820D01*
X87023Y-174696D01*
X86399Y-174820D01*
X85869Y-175174D01*
X85516Y-175703D01*
X85392Y-176328D01*
X85516Y-176952D01*
X85869Y-177481D01*
X86399Y-177835D01*
X87023Y-177959D01*
X87647Y-177835D01*
X88177Y-177481D01*
X88198Y-177449D01*
X122071D01*
X122092Y-177481D01*
X122621Y-177835D01*
X123246Y-177959D01*
X123870Y-177835D01*
X124399Y-177481D01*
X124753Y-176952D01*
X124877Y-176328D01*
X124753Y-175703D01*
X124399Y-175174D01*
X123870Y-174820D01*
X123246Y-174696D01*
D02*
G37*
G36*
X38295Y-174937D02*
Y-178358D01*
X41716D01*
X41646Y-177826D01*
X41248Y-176865D01*
X40615Y-176039D01*
X39789Y-175405D01*
X38827Y-175007D01*
X38295Y-174937D01*
D02*
G37*
G36*
X37295D02*
X36764Y-175007D01*
X35802Y-175405D01*
X34976Y-176039D01*
X34343Y-176865D01*
X33944Y-177826D01*
X33874Y-178358D01*
X37295D01*
Y-174937D01*
D02*
G37*
G36*
X12705D02*
Y-178358D01*
X16126D01*
X16056Y-177826D01*
X15657Y-176865D01*
X15024Y-176039D01*
X14198Y-175405D01*
X13237Y-175007D01*
X12705Y-174937D01*
D02*
G37*
G36*
X11705D02*
X11173Y-175007D01*
X10211Y-175405D01*
X9386Y-176039D01*
X8752Y-176865D01*
X8354Y-177826D01*
X8284Y-178358D01*
X11705D01*
Y-174937D01*
D02*
G37*
G36*
X146643Y-166020D02*
X145291Y-166154D01*
X143990Y-166548D01*
X142791Y-167189D01*
X141741Y-168051D01*
X140879Y-169101D01*
X140238Y-170300D01*
X139844Y-171600D01*
X139710Y-172953D01*
X139844Y-174305D01*
X140238Y-175606D01*
X140879Y-176804D01*
X141741Y-177855D01*
X142791Y-178717D01*
X143990Y-179358D01*
X145291Y-179752D01*
X146643Y-179886D01*
X147995Y-179752D01*
X149296Y-179358D01*
X150495Y-178717D01*
X151545Y-177855D01*
X152407Y-176804D01*
X153048Y-175606D01*
X153442Y-174305D01*
X153576Y-172953D01*
X153442Y-171600D01*
X153048Y-170300D01*
X152407Y-169101D01*
X151545Y-168051D01*
X150495Y-167189D01*
X149296Y-166548D01*
X147995Y-166154D01*
X146643Y-166020D01*
D02*
G37*
G36*
X41716Y-179358D02*
X38295D01*
Y-182779D01*
X38827Y-182709D01*
X39789Y-182311D01*
X40615Y-181677D01*
X41248Y-180851D01*
X41646Y-179890D01*
X41716Y-179358D01*
D02*
G37*
G36*
X37295D02*
X33874D01*
X33944Y-179890D01*
X34343Y-180851D01*
X34976Y-181677D01*
X35802Y-182311D01*
X36764Y-182709D01*
X37295Y-182779D01*
Y-179358D01*
D02*
G37*
G36*
X16126D02*
X12705D01*
Y-182779D01*
X13237Y-182709D01*
X14198Y-182311D01*
X15024Y-181677D01*
X15657Y-180851D01*
X16056Y-179890D01*
X16126Y-179358D01*
D02*
G37*
G36*
X11705D02*
X8284D01*
X8354Y-179890D01*
X8752Y-180851D01*
X9386Y-181677D01*
X10211Y-182311D01*
X11173Y-182709D01*
X11705Y-182779D01*
Y-179358D01*
D02*
G37*
G36*
X108454Y-185100D02*
X107013Y-185290D01*
X105670Y-185847D01*
X104516Y-186732D01*
X103668Y-187836D01*
X103469Y-187843D01*
X103143Y-187757D01*
X103112Y-187600D01*
X102758Y-187071D01*
X102229Y-186717D01*
X101605Y-186593D01*
X100980Y-186717D01*
X100451Y-187071D01*
X96643Y-190880D01*
X84240D01*
X83615Y-191004D01*
X83086Y-191357D01*
X82732Y-191887D01*
X82608Y-192511D01*
X82732Y-193135D01*
X83086Y-193665D01*
X83615Y-194018D01*
X84240Y-194142D01*
X97318D01*
X97943Y-194018D01*
X98472Y-193665D01*
X102519Y-189617D01*
X102993Y-189850D01*
X102885Y-190669D01*
X103075Y-192111D01*
X103631Y-193454D01*
X104516Y-194607D01*
X105670Y-195492D01*
X107013Y-196048D01*
X108454Y-196238D01*
X109895Y-196048D01*
X111239Y-195492D01*
X112392Y-194607D01*
X113277Y-193454D01*
X113833Y-192111D01*
X114023Y-190669D01*
X113833Y-189228D01*
X113277Y-187885D01*
X112392Y-186732D01*
X111239Y-185847D01*
X109895Y-185290D01*
X108454Y-185100D01*
D02*
G37*
G36*
X-152865Y-181998D02*
X-159970D01*
Y-189104D01*
X-152865D01*
Y-181998D01*
D02*
G37*
G36*
X130608Y-184769D02*
Y-190169D01*
X136008D01*
X135943Y-189509D01*
X135605Y-188392D01*
X135055Y-187364D01*
X134315Y-186462D01*
X133413Y-185722D01*
X132385Y-185172D01*
X131268Y-184834D01*
X130608Y-184769D01*
D02*
G37*
G36*
X129608D02*
X128947Y-184834D01*
X127831Y-185172D01*
X126802Y-185722D01*
X125900Y-186462D01*
X125160Y-187364D01*
X124611Y-188392D01*
X124272Y-189509D01*
X124207Y-190169D01*
X129608D01*
Y-184769D01*
D02*
G37*
G36*
X65696Y-194386D02*
X65072Y-194511D01*
X64543Y-194864D01*
X64189Y-195394D01*
X64065Y-196018D01*
X63628Y-196382D01*
X63612Y-196379D01*
X63565Y-196389D01*
X63464Y-196369D01*
X63297Y-196402D01*
X62863Y-196018D01*
X62739Y-195394D01*
X62386Y-194864D01*
X61856Y-194511D01*
X61232Y-194386D01*
X60608Y-194511D01*
X60079Y-194864D01*
X59725Y-195394D01*
X59601Y-196018D01*
X59167Y-196402D01*
X59000Y-196369D01*
X58376Y-196493D01*
X57846Y-196846D01*
X57493Y-197376D01*
X57369Y-198000D01*
X57433Y-198326D01*
X57015Y-198744D01*
X5659D01*
X5659Y-198744D01*
X5230Y-198829D01*
X4866Y-199073D01*
X4866Y-199073D01*
X1060Y-202878D01*
X-3825D01*
X-3847Y-202847D01*
X-4376Y-202493D01*
X-5000Y-202369D01*
X-5624Y-202493D01*
X-6154Y-202847D01*
X-6507Y-203376D01*
X-6631Y-204000D01*
X-6547Y-204426D01*
X-6861Y-204926D01*
X-18607D01*
X-18607Y-204926D01*
X-19036Y-205012D01*
X-19400Y-205255D01*
X-22950Y-208805D01*
X-23918Y-208404D01*
X-25000Y-208262D01*
X-26082Y-208404D01*
X-27090Y-208822D01*
X-27955Y-209486D01*
X-28619Y-210351D01*
X-29037Y-211359D01*
X-29179Y-212441D01*
X-29037Y-213523D01*
X-28619Y-214530D01*
X-27955Y-215396D01*
X-27090Y-216060D01*
X-26082Y-216478D01*
X-25000Y-216620D01*
X-23918Y-216478D01*
X-22910Y-216060D01*
X-22045Y-215396D01*
X-21381Y-214530D01*
X-20963Y-213523D01*
X-20821Y-212441D01*
X-20963Y-211359D01*
X-21364Y-210391D01*
X-18143Y-207170D01*
X-11968D01*
X-11777Y-207631D01*
X-12950Y-208805D01*
X-13918Y-208404D01*
X-15000Y-208262D01*
X-16082Y-208404D01*
X-17089Y-208822D01*
X-17955Y-209486D01*
X-18619Y-210351D01*
X-19037Y-211359D01*
X-19179Y-212441D01*
X-19037Y-213523D01*
X-18619Y-214530D01*
X-17955Y-215396D01*
X-17089Y-216060D01*
X-16082Y-216478D01*
X-15000Y-216620D01*
X-13918Y-216478D01*
X-12911Y-216060D01*
X-12045Y-215396D01*
X-11381Y-214530D01*
X-10963Y-213523D01*
X-10821Y-212441D01*
X-10963Y-211359D01*
X-11364Y-210391D01*
X-9742Y-208769D01*
X-7843D01*
X-7673Y-209269D01*
X-7955Y-209486D01*
X-8619Y-210351D01*
X-9037Y-211359D01*
X-9179Y-212441D01*
X-9037Y-213523D01*
X-8619Y-214530D01*
X-7955Y-215396D01*
X-7090Y-216060D01*
X-6082Y-216478D01*
X-5000Y-216620D01*
X-3918Y-216478D01*
X-2911Y-216060D01*
X-2045Y-215396D01*
X-1381Y-214530D01*
X-963Y-213523D01*
X-821Y-212441D01*
X-963Y-211359D01*
X-1381Y-210351D01*
X-2045Y-209486D01*
X-2259Y-209321D01*
X-2089Y-208822D01*
X2089D01*
X2259Y-209321D01*
X2045Y-209486D01*
X1381Y-210351D01*
X963Y-211359D01*
X821Y-212441D01*
X963Y-213523D01*
X1381Y-214530D01*
X2045Y-215396D01*
X2911Y-216060D01*
X3918Y-216478D01*
X5000Y-216620D01*
X6082Y-216478D01*
X7090Y-216060D01*
X7955Y-215396D01*
X8619Y-214530D01*
X9037Y-213523D01*
X9179Y-212441D01*
X9037Y-211359D01*
X8619Y-210351D01*
X7955Y-209486D01*
X7090Y-208822D01*
X6121Y-208421D01*
Y-207777D01*
X8109Y-205790D01*
X59996D01*
X59996Y-205790D01*
X60425Y-205705D01*
X60789Y-205461D01*
X66378Y-199872D01*
X66878Y-200079D01*
Y-217806D01*
X58866Y-225818D01*
X58783Y-225795D01*
X58591Y-225224D01*
X58969Y-224732D01*
X59426Y-223627D01*
X59517Y-222941D01*
X50483D01*
X50574Y-223627D01*
X51031Y-224732D01*
X51704Y-225608D01*
X51575Y-226108D01*
X47848D01*
X47678Y-225608D01*
X47955Y-225396D01*
X48619Y-224531D01*
X49037Y-223523D01*
X49179Y-222441D01*
X49037Y-221359D01*
X48619Y-220351D01*
X47955Y-219486D01*
X47089Y-218822D01*
X46082Y-218404D01*
X45000Y-218262D01*
X43918Y-218404D01*
X42911Y-218822D01*
X42045Y-219486D01*
X41381Y-220351D01*
X40963Y-221359D01*
X40821Y-222441D01*
X40963Y-223523D01*
X41381Y-224531D01*
X42045Y-225396D01*
X42322Y-225608D01*
X42152Y-226108D01*
X37848D01*
X37678Y-225608D01*
X37955Y-225396D01*
X38619Y-224531D01*
X39037Y-223523D01*
X39179Y-222441D01*
X39037Y-221359D01*
X38619Y-220351D01*
X37955Y-219486D01*
X37089Y-218822D01*
X36082Y-218404D01*
X35000Y-218262D01*
X33918Y-218404D01*
X32910Y-218822D01*
X32045Y-219486D01*
X31381Y-220351D01*
X30963Y-221359D01*
X30821Y-222441D01*
X30963Y-223523D01*
X31381Y-224531D01*
X32045Y-225396D01*
X32322Y-225608D01*
X32152Y-226108D01*
X27848D01*
X27678Y-225608D01*
X27955Y-225396D01*
X28619Y-224531D01*
X29037Y-223523D01*
X29179Y-222441D01*
X29037Y-221359D01*
X28619Y-220351D01*
X27955Y-219486D01*
X27090Y-218822D01*
X26082Y-218404D01*
X25000Y-218262D01*
X23918Y-218404D01*
X22910Y-218822D01*
X22045Y-219486D01*
X21381Y-220351D01*
X20963Y-221359D01*
X20821Y-222441D01*
X20963Y-223523D01*
X21381Y-224531D01*
X22045Y-225396D01*
X22322Y-225608D01*
X22152Y-226108D01*
X17848D01*
X17678Y-225608D01*
X17955Y-225396D01*
X18619Y-224531D01*
X19037Y-223523D01*
X19179Y-222441D01*
X19037Y-221359D01*
X18619Y-220351D01*
X17955Y-219486D01*
X17089Y-218822D01*
X16082Y-218404D01*
X15000Y-218262D01*
X13918Y-218404D01*
X12911Y-218822D01*
X12045Y-219486D01*
X11381Y-220351D01*
X10963Y-221359D01*
X10821Y-222441D01*
X10963Y-223523D01*
X11381Y-224531D01*
X12045Y-225396D01*
X12322Y-225608D01*
X12152Y-226108D01*
X7848D01*
X7678Y-225608D01*
X7955Y-225396D01*
X8619Y-224531D01*
X9037Y-223523D01*
X9179Y-222441D01*
X9037Y-221359D01*
X8619Y-220351D01*
X7955Y-219486D01*
X7090Y-218822D01*
X6082Y-218404D01*
X5000Y-218262D01*
X3918Y-218404D01*
X2911Y-218822D01*
X2045Y-219486D01*
X1381Y-220351D01*
X963Y-221359D01*
X821Y-222441D01*
X963Y-223523D01*
X1381Y-224531D01*
X2045Y-225396D01*
X2322Y-225608D01*
X2152Y-226108D01*
X-2152D01*
X-2322Y-225608D01*
X-2045Y-225396D01*
X-1381Y-224531D01*
X-963Y-223523D01*
X-821Y-222441D01*
X-963Y-221359D01*
X-1381Y-220351D01*
X-2045Y-219486D01*
X-2911Y-218822D01*
X-3918Y-218404D01*
X-5000Y-218262D01*
X-6082Y-218404D01*
X-7090Y-218822D01*
X-7955Y-219486D01*
X-8619Y-220351D01*
X-9037Y-221359D01*
X-9179Y-222441D01*
X-9037Y-223523D01*
X-8619Y-224531D01*
X-7955Y-225396D01*
X-7678Y-225608D01*
X-7848Y-226108D01*
X-9747D01*
X-11364Y-224490D01*
X-10963Y-223523D01*
X-10821Y-222441D01*
X-10963Y-221359D01*
X-11381Y-220351D01*
X-12045Y-219486D01*
X-12911Y-218822D01*
X-13918Y-218404D01*
X-15000Y-218262D01*
X-16082Y-218404D01*
X-17089Y-218822D01*
X-17955Y-219486D01*
X-18619Y-220351D01*
X-19037Y-221359D01*
X-19179Y-222441D01*
X-19037Y-223523D01*
X-18619Y-224531D01*
X-17955Y-225396D01*
X-17089Y-226060D01*
X-16082Y-226478D01*
X-15000Y-226620D01*
X-13918Y-226478D01*
X-12950Y-226077D01*
X-11235Y-227792D01*
X-11442Y-228292D01*
X-17563D01*
X-21364Y-224490D01*
X-20963Y-223523D01*
X-20821Y-222441D01*
X-20963Y-221359D01*
X-21381Y-220351D01*
X-22045Y-219486D01*
X-22910Y-218822D01*
X-23918Y-218404D01*
X-25000Y-218262D01*
X-26082Y-218404D01*
X-27090Y-218822D01*
X-27955Y-219486D01*
X-28619Y-220351D01*
X-29037Y-221359D01*
X-29179Y-222441D01*
X-29037Y-223523D01*
X-28619Y-224531D01*
X-27955Y-225396D01*
X-27090Y-226060D01*
X-26082Y-226478D01*
X-25000Y-226620D01*
X-23918Y-226478D01*
X-22950Y-226077D01*
X-18820Y-230207D01*
X-18456Y-230450D01*
X-18027Y-230535D01*
X-18027Y-230535D01*
X47302D01*
X47302Y-230535D01*
X47732Y-230450D01*
X48096Y-230207D01*
X48351Y-229951D01*
X59703D01*
X59703Y-229951D01*
X60132Y-229866D01*
X60496Y-229623D01*
X63926Y-226193D01*
X64469Y-226357D01*
X64506Y-226545D01*
X64860Y-227074D01*
X65389Y-227428D01*
X66013Y-227552D01*
X66638Y-227428D01*
X67167Y-227074D01*
X67520Y-226545D01*
X67645Y-225921D01*
X67520Y-225296D01*
X67346Y-225036D01*
X72493Y-219889D01*
X72736Y-219525D01*
X72822Y-219096D01*
X72822Y-219096D01*
Y-199546D01*
X73017Y-199507D01*
X73546Y-199153D01*
X73900Y-198624D01*
X74024Y-198000D01*
X73900Y-197376D01*
X73546Y-196846D01*
X73017Y-196493D01*
X72392Y-196369D01*
X72225Y-196402D01*
X71792Y-196018D01*
X71668Y-195394D01*
X71314Y-194864D01*
X70785Y-194511D01*
X70160Y-194386D01*
X69536Y-194511D01*
X69007Y-194864D01*
X68653Y-195394D01*
X68529Y-196018D01*
X68096Y-196402D01*
X67928Y-196369D01*
X67761Y-196402D01*
X67328Y-196018D01*
X67203Y-195394D01*
X66850Y-194864D01*
X66321Y-194511D01*
X65696Y-194386D01*
D02*
G37*
G36*
X129608Y-191169D02*
X124207D01*
X124272Y-191830D01*
X124611Y-192946D01*
X125160Y-193975D01*
X125900Y-194877D01*
X126802Y-195617D01*
X127831Y-196166D01*
X128947Y-196505D01*
X129608Y-196570D01*
Y-191169D01*
D02*
G37*
G36*
X136008D02*
X130608D01*
Y-196570D01*
X131268Y-196505D01*
X132385Y-196166D01*
X133413Y-195617D01*
X134315Y-194877D01*
X135055Y-193975D01*
X135605Y-192946D01*
X135943Y-191830D01*
X136008Y-191169D01*
D02*
G37*
G36*
X55500Y-207924D02*
Y-211941D01*
X59517D01*
X59426Y-211255D01*
X58969Y-210150D01*
X58240Y-209201D01*
X57291Y-208472D01*
X56186Y-208015D01*
X55500Y-207924D01*
D02*
G37*
G36*
X54500D02*
X53814Y-208015D01*
X52709Y-208472D01*
X51760Y-209201D01*
X51031Y-210150D01*
X50574Y-211255D01*
X50483Y-211941D01*
X54500D01*
Y-207924D01*
D02*
G37*
G36*
X146643Y-201453D02*
X145291Y-201587D01*
X143990Y-201981D01*
X142791Y-202622D01*
X141741Y-203484D01*
X140879Y-204534D01*
X140238Y-205733D01*
X139844Y-207033D01*
X139710Y-208386D01*
X139844Y-209738D01*
X140238Y-211039D01*
X140879Y-212238D01*
X141741Y-213288D01*
X142791Y-214150D01*
X143990Y-214791D01*
X145291Y-215185D01*
X146643Y-215319D01*
X147995Y-215185D01*
X149296Y-214791D01*
X150495Y-214150D01*
X151545Y-213288D01*
X152407Y-212238D01*
X153048Y-211039D01*
X153442Y-209738D01*
X153576Y-208386D01*
X153442Y-207033D01*
X153048Y-205733D01*
X152407Y-204534D01*
X151545Y-203484D01*
X150495Y-202622D01*
X149296Y-201981D01*
X147995Y-201587D01*
X146643Y-201453D01*
D02*
G37*
G36*
X45000Y-208262D02*
X43918Y-208404D01*
X42911Y-208822D01*
X42045Y-209486D01*
X41381Y-210351D01*
X40963Y-211359D01*
X40821Y-212441D01*
X40963Y-213523D01*
X41381Y-214530D01*
X42045Y-215396D01*
X42911Y-216060D01*
X43918Y-216478D01*
X45000Y-216620D01*
X46082Y-216478D01*
X47089Y-216060D01*
X47955Y-215396D01*
X48619Y-214530D01*
X49037Y-213523D01*
X49179Y-212441D01*
X49037Y-211359D01*
X48619Y-210351D01*
X47955Y-209486D01*
X47089Y-208822D01*
X46082Y-208404D01*
X45000Y-208262D01*
D02*
G37*
G36*
X35000D02*
X33918Y-208404D01*
X32910Y-208822D01*
X32045Y-209486D01*
X31381Y-210351D01*
X30963Y-211359D01*
X30821Y-212441D01*
X30963Y-213523D01*
X31381Y-214530D01*
X32045Y-215396D01*
X32910Y-216060D01*
X33918Y-216478D01*
X35000Y-216620D01*
X36082Y-216478D01*
X37089Y-216060D01*
X37955Y-215396D01*
X38619Y-214530D01*
X39037Y-213523D01*
X39179Y-212441D01*
X39037Y-211359D01*
X38619Y-210351D01*
X37955Y-209486D01*
X37089Y-208822D01*
X36082Y-208404D01*
X35000Y-208262D01*
D02*
G37*
G36*
X25000D02*
X23918Y-208404D01*
X22910Y-208822D01*
X22045Y-209486D01*
X21381Y-210351D01*
X20963Y-211359D01*
X20821Y-212441D01*
X20963Y-213523D01*
X21381Y-214530D01*
X22045Y-215396D01*
X22910Y-216060D01*
X23918Y-216478D01*
X25000Y-216620D01*
X26082Y-216478D01*
X27090Y-216060D01*
X27955Y-215396D01*
X28619Y-214530D01*
X29037Y-213523D01*
X29179Y-212441D01*
X29037Y-211359D01*
X28619Y-210351D01*
X27955Y-209486D01*
X27090Y-208822D01*
X26082Y-208404D01*
X25000Y-208262D01*
D02*
G37*
G36*
X15000D02*
X13918Y-208404D01*
X12911Y-208822D01*
X12045Y-209486D01*
X11381Y-210351D01*
X10963Y-211359D01*
X10821Y-212441D01*
X10963Y-213523D01*
X11381Y-214530D01*
X12045Y-215396D01*
X12911Y-216060D01*
X13918Y-216478D01*
X15000Y-216620D01*
X16082Y-216478D01*
X17089Y-216060D01*
X17955Y-215396D01*
X18619Y-214530D01*
X19037Y-213523D01*
X19179Y-212441D01*
X19037Y-211359D01*
X18619Y-210351D01*
X17955Y-209486D01*
X17089Y-208822D01*
X16082Y-208404D01*
X15000Y-208262D01*
D02*
G37*
G36*
X-55000D02*
X-56082Y-208404D01*
X-57090Y-208822D01*
X-57955Y-209486D01*
X-58619Y-210351D01*
X-59037Y-211359D01*
X-59179Y-212441D01*
X-59037Y-213523D01*
X-58619Y-214530D01*
X-57955Y-215396D01*
X-57090Y-216060D01*
X-56082Y-216478D01*
X-55000Y-216620D01*
X-53918Y-216478D01*
X-52911Y-216060D01*
X-52045Y-215396D01*
X-51381Y-214530D01*
X-50963Y-213523D01*
X-50821Y-212441D01*
X-50963Y-211359D01*
X-51381Y-210351D01*
X-52045Y-209486D01*
X-52911Y-208822D01*
X-53918Y-208404D01*
X-55000Y-208262D01*
D02*
G37*
G36*
X59517Y-212941D02*
X55500D01*
Y-216958D01*
X56186Y-216867D01*
X57291Y-216409D01*
X58240Y-215681D01*
X58969Y-214732D01*
X59426Y-213627D01*
X59517Y-212941D01*
D02*
G37*
G36*
X54500D02*
X50483D01*
X50574Y-213627D01*
X51031Y-214732D01*
X51760Y-215681D01*
X52709Y-216409D01*
X53814Y-216867D01*
X54500Y-216958D01*
Y-212941D01*
D02*
G37*
G36*
X-70866Y-192275D02*
X-72814Y-192428D01*
X-74713Y-192884D01*
X-76518Y-193632D01*
X-78184Y-194653D01*
X-79669Y-195921D01*
X-80938Y-197407D01*
X-81959Y-199073D01*
X-82706Y-200877D01*
X-83162Y-202777D01*
X-83315Y-204724D01*
X-83162Y-206672D01*
X-82706Y-208572D01*
X-81959Y-210376D01*
X-80938Y-212042D01*
X-79669Y-213527D01*
X-78184Y-214796D01*
X-76518Y-215817D01*
X-74713Y-216564D01*
X-72814Y-217021D01*
X-70866Y-217174D01*
X-68919Y-217021D01*
X-67019Y-216564D01*
X-65214Y-215817D01*
X-63549Y-214796D01*
X-62063Y-213527D01*
X-60794Y-212042D01*
X-59774Y-210376D01*
X-59026Y-208572D01*
X-58570Y-206672D01*
X-58417Y-204724D01*
X-58570Y-202777D01*
X-59026Y-200877D01*
X-59774Y-199073D01*
X-60794Y-197407D01*
X-62063Y-195921D01*
X-63549Y-194653D01*
X-65214Y-193632D01*
X-67019Y-192884D01*
X-68919Y-192428D01*
X-70866Y-192275D01*
D02*
G37*
G36*
X-161417D02*
X-163365Y-192428D01*
X-165264Y-192884D01*
X-167069Y-193632D01*
X-168735Y-194653D01*
X-170220Y-195921D01*
X-171489Y-197407D01*
X-172510Y-199073D01*
X-173257Y-200877D01*
X-173713Y-202777D01*
X-173867Y-204724D01*
X-173713Y-206672D01*
X-173257Y-208572D01*
X-172510Y-210376D01*
X-171489Y-212042D01*
X-170220Y-213527D01*
X-168735Y-214796D01*
X-167069Y-215817D01*
X-165264Y-216564D01*
X-163365Y-217021D01*
X-161417Y-217174D01*
X-159470Y-217021D01*
X-157570Y-216564D01*
X-155765Y-215817D01*
X-154100Y-214796D01*
X-152614Y-213527D01*
X-151346Y-212042D01*
X-150325Y-210376D01*
X-149577Y-208572D01*
X-149121Y-206672D01*
X-148968Y-204724D01*
X-149121Y-202777D01*
X-149577Y-200877D01*
X-150325Y-199073D01*
X-151346Y-197407D01*
X-152614Y-195921D01*
X-154100Y-194653D01*
X-155765Y-193632D01*
X-157570Y-192884D01*
X-159470Y-192428D01*
X-161417Y-192275D01*
D02*
G37*
G36*
X55500Y-217924D02*
Y-221941D01*
X59517D01*
X59426Y-221255D01*
X58969Y-220150D01*
X58240Y-219201D01*
X57291Y-218472D01*
X56186Y-218015D01*
X55500Y-217924D01*
D02*
G37*
G36*
X54500D02*
X53814Y-218015D01*
X52709Y-218472D01*
X51760Y-219201D01*
X51031Y-220150D01*
X50574Y-221255D01*
X50483Y-221941D01*
X54500D01*
Y-217924D01*
D02*
G37*
G36*
X-166417Y-171968D02*
X-167345Y-172090D01*
X-168209Y-172448D01*
X-168951Y-173017D01*
X-169521Y-173759D01*
X-169879Y-174624D01*
X-170001Y-175551D01*
X-169879Y-176479D01*
X-169544Y-177286D01*
Y-183816D01*
X-169855Y-184567D01*
X-181138Y-195850D01*
X-181635Y-196498D01*
X-181947Y-197252D01*
X-182054Y-198061D01*
X-182054Y-198061D01*
Y-211489D01*
X-182054Y-211489D01*
X-181947Y-212298D01*
X-181635Y-213053D01*
X-181138Y-213700D01*
X-170820Y-224019D01*
X-170820Y-224019D01*
X-170172Y-224516D01*
X-169418Y-224828D01*
X-168609Y-224934D01*
X-164466D01*
X-164407Y-225434D01*
X-165478Y-225692D01*
X-167383Y-226481D01*
X-169141Y-227558D01*
X-170709Y-228897D01*
X-172048Y-230465D01*
X-173126Y-232223D01*
X-173915Y-234128D01*
X-174396Y-236133D01*
X-174558Y-238189D01*
X-174396Y-240245D01*
X-173915Y-242250D01*
X-173126Y-244155D01*
X-172048Y-245913D01*
X-170709Y-247481D01*
X-169141Y-248820D01*
X-167383Y-249897D01*
X-165478Y-250686D01*
X-163473Y-251168D01*
X-161417Y-251329D01*
X-159362Y-251168D01*
X-157357Y-250686D01*
X-155452Y-249897D01*
X-153694Y-248820D01*
X-152126Y-247481D01*
X-150786Y-245913D01*
X-149709Y-244155D01*
X-148920Y-242250D01*
X-148439Y-240245D01*
X-148277Y-238189D01*
X-148439Y-236133D01*
X-148920Y-234128D01*
X-149709Y-232223D01*
X-150786Y-230465D01*
X-152126Y-228897D01*
X-153694Y-227558D01*
X-155452Y-226481D01*
X-157357Y-225692D01*
X-158428Y-225434D01*
X-158369Y-224934D01*
X-59143D01*
Y-226584D01*
X-50857D01*
Y-218298D01*
X-59143D01*
Y-218681D01*
X-167314D01*
X-175800Y-210194D01*
Y-199356D01*
X-165433Y-188989D01*
X-164626Y-188654D01*
X-163883Y-188085D01*
X-163314Y-187343D01*
X-162956Y-186479D01*
X-162834Y-185551D01*
X-162956Y-184624D01*
X-163291Y-183816D01*
Y-177287D01*
X-162956Y-176479D01*
X-162834Y-175551D01*
X-162956Y-174624D01*
X-163314Y-173759D01*
X-163883Y-173017D01*
X-164626Y-172448D01*
X-165490Y-172090D01*
X-166417Y-171968D01*
D02*
G37*
G36*
X-35000Y-218262D02*
X-36082Y-218404D01*
X-37089Y-218822D01*
X-37955Y-219486D01*
X-38619Y-220351D01*
X-39037Y-221359D01*
X-39179Y-222441D01*
X-39037Y-223523D01*
X-38619Y-224531D01*
X-37955Y-225396D01*
X-37089Y-226060D01*
X-36082Y-226478D01*
X-35000Y-226620D01*
X-33918Y-226478D01*
X-32910Y-226060D01*
X-32045Y-225396D01*
X-31381Y-224531D01*
X-30963Y-223523D01*
X-30821Y-222441D01*
X-30963Y-221359D01*
X-31381Y-220351D01*
X-32045Y-219486D01*
X-32910Y-218822D01*
X-33918Y-218404D01*
X-35000Y-218262D01*
D02*
G37*
G36*
X-45000D02*
X-46082Y-218404D01*
X-47089Y-218822D01*
X-47955Y-219486D01*
X-48619Y-220351D01*
X-49037Y-221359D01*
X-49179Y-222441D01*
X-49037Y-223523D01*
X-48619Y-224531D01*
X-47955Y-225396D01*
X-47089Y-226060D01*
X-46082Y-226478D01*
X-45000Y-226620D01*
X-43918Y-226478D01*
X-42911Y-226060D01*
X-42045Y-225396D01*
X-41381Y-224531D01*
X-40963Y-223523D01*
X-40821Y-222441D01*
X-40963Y-221359D01*
X-41381Y-220351D01*
X-42045Y-219486D01*
X-42911Y-218822D01*
X-43918Y-218404D01*
X-45000Y-218262D01*
D02*
G37*
G36*
X161417Y-225048D02*
X159362Y-225210D01*
X157357Y-225692D01*
X155452Y-226481D01*
X153694Y-227558D01*
X152126Y-228897D01*
X150786Y-230465D01*
X149709Y-232223D01*
X148920Y-234128D01*
X148439Y-236133D01*
X148277Y-238189D01*
X148439Y-240245D01*
X148920Y-242250D01*
X149709Y-244155D01*
X150786Y-245913D01*
X152126Y-247481D01*
X153694Y-248820D01*
X155452Y-249897D01*
X157357Y-250686D01*
X159362Y-251168D01*
X161417Y-251329D01*
X163473Y-251168D01*
X165478Y-250686D01*
X167383Y-249897D01*
X169141Y-248820D01*
X170709Y-247481D01*
X172048Y-245913D01*
X173126Y-244155D01*
X173915Y-242250D01*
X174396Y-240245D01*
X174558Y-238189D01*
X174396Y-236133D01*
X173915Y-234128D01*
X173126Y-232223D01*
X172048Y-230465D01*
X170709Y-228897D01*
X169141Y-227558D01*
X167383Y-226481D01*
X165478Y-225692D01*
X163473Y-225210D01*
X161417Y-225048D01*
D02*
G37*
G36*
X146462Y-253794D02*
X122285D01*
Y-260476D01*
X146462D01*
Y-253794D01*
D02*
G37*
%LPD*%
D13*
X-155537Y-90213D02*
X-150524Y-95226D01*
X107361Y126564D02*
X108715Y125210D01*
X107361Y126564D02*
Y132588D01*
X122371Y150000D02*
X122500D01*
X121802Y150569D02*
X122371Y150000D01*
X121802Y150569D02*
Y150799D01*
X120500Y152101D02*
X121802Y150799D01*
X120500Y152101D02*
Y163000D01*
X96442Y154061D02*
X113359D01*
X115528Y153001D02*
Y158332D01*
X114444Y151918D02*
X115528Y153001D01*
X96119Y151918D02*
X114444D01*
X105949Y182829D02*
Y184273D01*
X116896Y195220D01*
Y206400D01*
X107471Y122768D02*
X135889D01*
X100463Y129775D02*
X107471Y122768D01*
X100463Y129775D02*
Y136979D01*
X135889Y122768D02*
X137999Y124878D01*
X130231Y149604D02*
X139366D01*
X104595Y121168D02*
X137988D01*
X81516Y78366D02*
Y81457D01*
X83828Y83770D01*
Y85273D01*
X79916Y83903D02*
X81252Y85239D01*
X70100Y-218433D02*
Y-196018D01*
X75100Y71950D02*
X81516Y78366D01*
X75100Y69996D02*
Y71950D01*
X75034Y69930D02*
X75100Y69996D01*
X73000Y72000D02*
Y72113D01*
X71000Y73790D02*
Y74000D01*
Y73790D02*
X78316Y81106D01*
X68000Y-218270D02*
Y-198000D01*
X63612Y-198790D02*
Y-197501D01*
X71700Y-198693D02*
X72392Y-198000D01*
X59000D02*
Y-197500D01*
Y-198345D02*
Y-198000D01*
X57479Y-199866D02*
X59000Y-198345D01*
X5659Y-199866D02*
X57479D01*
X61268Y-198817D02*
Y-195922D01*
X58616Y-201468D02*
X61268Y-198817D01*
X6319Y-201468D02*
X58616D01*
X71700Y-219096D02*
Y-198693D01*
X65802Y-198863D02*
Y-196172D01*
X59996Y-204668D02*
X65802Y-198863D01*
Y-196172D02*
X65956Y-196018D01*
X66013Y-224782D02*
X71700Y-219096D01*
X66013Y-225921D02*
Y-224782D01*
X-51643Y173572D02*
Y173644D01*
Y172039D02*
Y173572D01*
Y172039D02*
X-50291Y170687D01*
Y152726D02*
Y170687D01*
X-52385Y150631D02*
X-50291Y152726D01*
X-48691Y150676D02*
Y173593D01*
X-53744Y194067D02*
X-46922Y200889D01*
Y211705D01*
X81143Y166894D02*
Y168864D01*
X28062Y173769D02*
Y174476D01*
X27355Y173769D02*
X28062Y174476D01*
X137615Y163109D02*
X141552D01*
X133678D02*
X137615D01*
Y159172D02*
Y163109D01*
Y167046D01*
X-14826Y133828D02*
X-13610Y135044D01*
X-12077D01*
X-16664Y135667D02*
X-15687Y136644D01*
X-12740D01*
X-18503Y137505D02*
X-17764Y138244D01*
X-13402D01*
X-20341Y139344D02*
X-19841Y139844D01*
X-14065D01*
X-22180Y141182D02*
X-21918Y141444D01*
X-14728D01*
X117279Y150218D02*
Y160669D01*
X116990Y149929D02*
X117279Y150218D01*
X114920Y163028D02*
X117279Y160669D01*
X117500Y162711D02*
X118879Y161332D01*
Y151010D02*
X119702Y150188D01*
Y149929D02*
Y150188D01*
X118879Y151010D02*
Y161332D01*
X117500Y162711D02*
Y163500D01*
X114877Y163028D02*
X114920D01*
X79916Y79029D02*
Y83903D01*
X73000Y72113D02*
X79916Y79029D01*
X59703Y-228830D02*
X70100Y-218433D01*
X47886Y-228830D02*
X59703D01*
X47302Y-229414D02*
X47886Y-228830D01*
X-25000Y-222441D02*
X-18027Y-229414D01*
X47302D01*
X78316Y81106D02*
Y85273D01*
X59040Y-227230D02*
X68000Y-218270D01*
X-15000Y-222441D02*
X-10211Y-227230D01*
X59040D01*
X113359Y160501D02*
X115528Y158332D01*
X57697Y72491D02*
Y76075D01*
X57992Y76369D01*
X57992D01*
Y76369D01*
X71001Y89379D01*
X69204Y94370D02*
Y95548D01*
X53682Y78848D02*
X69204Y94370D01*
X70676Y93579D02*
X71383D01*
X75241Y89379D02*
X75307Y89445D01*
X71001Y89379D02*
X75241D01*
X73207Y91413D02*
X73273Y91479D01*
X70773Y91413D02*
X73207D01*
X55663Y76304D02*
X70773Y91413D01*
X53590Y76494D02*
X70676Y93579D01*
X85738Y145262D02*
X88500Y142500D01*
X85738Y145262D02*
Y151512D01*
X83738Y166764D02*
Y168864D01*
Y166764D02*
X96442Y154061D01*
X86339Y166427D02*
Y168864D01*
X81143Y166894D02*
X96119Y151918D01*
X95471Y157295D02*
X97761D01*
X86339Y166427D02*
X95471Y157295D01*
X57632Y72425D02*
X57697Y72491D01*
X-166417Y-108961D02*
Y-105551D01*
Y-108961D02*
X-161199Y-114179D01*
X55303Y223302D02*
X58459Y220146D01*
X-41226Y223302D02*
X55303D01*
X-41935Y222593D02*
X-41226Y223302D01*
X-42608Y222593D02*
X-41935D01*
X53563Y76494D02*
X53590D01*
X55663Y74525D02*
Y76304D01*
X55598Y74459D02*
X55663Y74525D01*
X51849Y78848D02*
X53682D01*
X51529Y78528D02*
X51849Y78848D01*
X-150847Y-137657D02*
X-149000Y-139504D01*
X-150847Y-137657D02*
Y-95226D01*
X-150524D01*
X-156417Y-175551D02*
X-141804Y-190165D01*
X-156417Y-165551D02*
X-152365Y-169604D01*
X-45000Y-212441D02*
Y-209690D01*
X-141804Y-190165D02*
X-64525D01*
X-45000Y-209690D01*
X-152365Y-177341D02*
Y-169604D01*
Y-177341D02*
X-141141Y-188565D01*
X-63808D01*
X-44576Y-207798D01*
X-39643D01*
X-35000Y-212441D01*
X7644Y-204668D02*
X59996D01*
X87023Y-176328D02*
X123246D01*
X-161756Y-90213D02*
X-155537D01*
X-166417Y-85551D02*
X-161756Y-90213D01*
X-166417Y-35551D02*
X-160758Y-41211D01*
X-143875D01*
X5000Y-207313D02*
X7644Y-204668D01*
X5000Y-212441D02*
Y-207313D01*
X-15000Y-212441D02*
X-10207Y-207648D01*
X6982Y-203068D02*
X59333D01*
X63612Y-198790D01*
X-25000Y-212441D02*
X-18607Y-206048D01*
X-5922D01*
X-5870Y-206100D01*
X-10207Y-207648D02*
X-6585D01*
X-6533Y-207700D01*
X2350D01*
X-5870Y-206100D02*
X1687D01*
X6319Y-201468D01*
X2350Y-207700D02*
X6982Y-203068D01*
X-5000Y-204000D02*
X1524D01*
X5659Y-199866D01*
X-235Y-27599D02*
Y-21870D01*
X-492Y-21614D02*
X-235Y-21870D01*
X35509Y82243D02*
X41730D01*
X40012Y171595D02*
Y172560D01*
X7583Y150738D02*
X13267Y156421D01*
X21868D01*
X9653Y148826D02*
X15016Y154189D01*
X22605D01*
X40012Y171595D01*
X24385Y176032D02*
Y177446D01*
X24647Y177707D01*
X-12077Y135044D02*
X26648Y173769D01*
X27355D01*
X28062D02*
X28324Y174030D01*
X22547Y176456D02*
Y179284D01*
X22808Y179546D01*
X-14728Y141444D02*
X20708Y176880D01*
Y181123D01*
X20970Y181384D01*
X-77740Y194067D02*
X-53744D01*
X-14065Y139844D02*
X22547Y176456D01*
X-13402Y138244D02*
X24385Y176032D01*
X-12740Y136644D02*
X26485Y175869D01*
X-122125Y62514D02*
X-122016D01*
X-120630Y63900D01*
X-114863Y62893D02*
X-114857Y62900D01*
X-115870Y63900D02*
X-114863Y62893D01*
X-114857Y62900D02*
X-113518D01*
X-120630Y63900D02*
X-115870D01*
X-122000Y65500D02*
X-114500D01*
X148196Y158434D02*
Y175990D01*
X139366Y149604D02*
X148196Y158434D01*
D22*
X142829Y-256260D02*
X143412Y-255677D01*
X144579D01*
X145162Y-256260D01*
Y-258593D01*
X144579Y-259176D01*
X143412D01*
X142829Y-258593D01*
X139330Y-255677D02*
X140497D01*
X139913D01*
Y-258593D01*
X140497Y-259176D01*
X141080D01*
X141663Y-258593D01*
X138164Y-255677D02*
Y-259176D01*
Y-257427D01*
X135831D01*
Y-255677D01*
Y-259176D01*
X130583Y-255094D02*
Y-256260D01*
X131166Y-256844D01*
X128834Y-259176D02*
X127667D01*
X128251D01*
Y-255677D01*
X128834Y-256260D01*
X125918Y-255677D02*
X123585D01*
Y-256260D01*
X125918Y-258593D01*
Y-259176D01*
D74*
X117366Y-77799D02*
X124502Y-84935D01*
X124674D01*
D141*
X130587Y-67482D02*
X131746Y-66324D01*
X130108Y-64685D02*
X131746Y-66324D01*
X108454Y-65484D02*
Y-64685D01*
Y-65484D02*
X128519Y-85549D01*
X108454Y-127677D02*
X121500Y-140723D01*
Y-149500D02*
Y-140723D01*
X124277Y-147260D02*
Y-140511D01*
X130108Y-134681D01*
Y-127677D01*
X130587Y-83123D02*
Y-67482D01*
X128508Y-85560D02*
X128519Y-85549D01*
X128508Y-85560D02*
X128680Y-85732D01*
Y-88274D02*
Y-85732D01*
X156640Y165934D02*
X158536Y167831D01*
X154545Y165934D02*
X156640D01*
X39346Y211733D02*
X44507Y216893D01*
X39346Y209253D02*
Y211733D01*
D142*
X154891Y6263D02*
X165275Y16648D01*
X109004Y-39624D02*
X154891Y6263D01*
X149626D02*
X154891D01*
X149497D02*
X149626D01*
X-104860Y5134D02*
X-50757D01*
X-105951D02*
X-104860D01*
X-50757D02*
X-50596Y5295D01*
X165275Y16648D02*
Y32100D01*
X109004Y-39851D02*
Y-39624D01*
X84240Y-192511D02*
X97318D01*
X101605Y-188225D01*
D144*
X172379Y97035D02*
Y203860D01*
X166709Y91365D02*
X172379Y97035D01*
X151512Y91365D02*
X166709D01*
X164249Y211989D02*
X172379Y203860D01*
X132485Y211989D02*
X164249D01*
X76910Y218589D02*
X166983D01*
X178979Y206593D01*
X126896Y206400D02*
X132485Y211989D01*
X126896Y201400D02*
Y206400D01*
X121896Y196400D02*
X126896Y201400D01*
X178979Y100007D02*
Y206593D01*
X68098Y227401D02*
X76910Y218589D01*
X-56119Y227401D02*
X68098D01*
D145*
X-168609Y-221808D02*
X-55633D01*
X-178927Y-211489D02*
X-168609Y-221808D01*
X-166417Y-185551D02*
Y-175551D01*
X-178927Y-198061D02*
X-166417Y-185551D01*
X-178927Y-211489D02*
Y-198061D01*
D146*
X-130513Y74040D02*
X-130164Y73691D01*
X-130400Y74153D02*
Y89830D01*
X-130513Y74040D02*
X-130400Y74153D01*
X-130245Y73611D02*
X-130164Y73691D01*
X-104860Y5134D02*
X-100072Y347D01*
Y-85035D02*
X-95432Y-89675D01*
X-100072Y-85035D02*
Y347D01*
D148*
X-175352Y116764D02*
D03*
Y137236D02*
D03*
D149*
X-119736Y252513D02*
D03*
X-99264D02*
D03*
D150*
X-161417Y23622D02*
D03*
X-70866D02*
D03*
X-161417Y-204724D02*
D03*
X-70866D02*
D03*
D151*
X-156417Y-185551D02*
D03*
D152*
Y-175551D02*
D03*
Y-165551D02*
D03*
Y-155551D02*
D03*
Y-145551D02*
D03*
Y-135551D02*
D03*
Y-125551D02*
D03*
Y-115551D02*
D03*
Y-105551D02*
D03*
Y-95551D02*
D03*
Y-85551D02*
D03*
Y-75551D02*
D03*
Y-65551D02*
D03*
Y-55551D02*
D03*
Y-45551D02*
D03*
Y-35551D02*
D03*
Y-25551D02*
D03*
Y-15551D02*
D03*
Y-5551D02*
D03*
Y4449D02*
D03*
X-166417Y-185551D02*
D03*
Y-175551D02*
D03*
Y-165551D02*
D03*
Y-155551D02*
D03*
Y-145551D02*
D03*
Y-135551D02*
D03*
Y-125551D02*
D03*
Y-115551D02*
D03*
Y-105551D02*
D03*
Y-95551D02*
D03*
Y-85551D02*
D03*
Y-75551D02*
D03*
Y-65551D02*
D03*
Y-55551D02*
D03*
Y-45551D02*
D03*
Y-35551D02*
D03*
Y-25551D02*
D03*
Y-15551D02*
D03*
Y-5551D02*
D03*
Y4449D02*
D03*
X37795Y-61142D02*
D03*
X12205D02*
D03*
Y-78858D02*
D03*
X37795D02*
D03*
X-37795Y-128858D02*
D03*
X-12205D02*
D03*
Y-111142D02*
D03*
X-37795D02*
D03*
X37795D02*
D03*
X12205D02*
D03*
Y-128858D02*
D03*
X37795D02*
D03*
Y-161142D02*
D03*
X12205D02*
D03*
Y-178858D02*
D03*
X37795D02*
D03*
D153*
X108454Y-190669D02*
D03*
X130108D02*
D03*
X108454Y-64685D02*
D03*
X130108D02*
D03*
X108454Y-127677D02*
D03*
X130108D02*
D03*
X95964Y-220472D02*
D03*
D154*
X161417Y-238189D02*
D03*
X-161417D02*
D03*
X161417Y51181D02*
D03*
X-161417D02*
D03*
X161417Y238189D02*
D03*
X-161417D02*
D03*
D155*
X55000Y-212441D02*
D03*
X45000D02*
D03*
X35000D02*
D03*
X25000D02*
D03*
X15000D02*
D03*
X5000D02*
D03*
X-5000D02*
D03*
X-15000D02*
D03*
X-25000D02*
D03*
X-35000D02*
D03*
X-45000D02*
D03*
X-55000D02*
D03*
X55000Y-222441D02*
D03*
X45000D02*
D03*
X35000D02*
D03*
X25000D02*
D03*
X15000D02*
D03*
X5000D02*
D03*
X-5000D02*
D03*
X-15000D02*
D03*
X-25000D02*
D03*
X-35000D02*
D03*
X-45000D02*
D03*
D156*
X-55000D02*
D03*
D157*
X91896Y196400D02*
D03*
X96896Y206400D02*
D03*
X101896Y196400D02*
D03*
X106896Y206400D02*
D03*
X111896Y196400D02*
D03*
X116896Y206400D02*
D03*
X121896Y196400D02*
D03*
D158*
X126896Y206400D02*
D03*
D159*
X132619Y-209722D02*
D03*
X111521Y-212633D02*
D03*
X-22304Y-230350D02*
D03*
X-31971Y-231442D02*
D03*
X-41951Y-232378D02*
D03*
X-102225Y-153520D02*
D03*
X-171771Y-99417D02*
D03*
X-169115Y-110451D02*
D03*
X-147002Y-101878D02*
D03*
X111521Y-205598D02*
D03*
Y-219669D02*
D03*
X-11811Y8480D02*
D03*
X125489Y153984D02*
D03*
X96972Y147809D02*
D03*
X91613Y146265D02*
D03*
X107416Y144630D02*
D03*
X155006Y127828D02*
D03*
X150556Y100401D02*
D03*
X154007Y81601D02*
D03*
X150011Y84053D02*
D03*
X149647Y77151D02*
D03*
X27999Y152173D02*
D03*
X-42848Y169713D02*
D03*
X-41867Y175720D02*
D03*
X-31631Y203669D02*
D03*
X-31815Y193250D02*
D03*
X-31938Y183443D02*
D03*
X-137842Y73059D02*
D03*
X-147419D02*
D03*
X-161863Y76890D02*
D03*
Y87025D02*
D03*
X-142630Y73059D02*
D03*
X68571Y79106D02*
D03*
X40898Y107011D02*
D03*
X57439Y90431D02*
D03*
X27215Y123494D02*
D03*
X20583Y133856D02*
D03*
X28325D02*
D03*
X20583Y143479D02*
D03*
X28325D02*
D03*
X156359Y-199602D02*
D03*
X164100D02*
D03*
X137156Y-219106D02*
D03*
X144897D02*
D03*
X129917Y-227350D02*
D03*
X137658D02*
D03*
X130922Y-234288D02*
D03*
X123181D02*
D03*
X-50226Y205261D02*
D03*
X-43863Y200891D02*
D03*
X-62339Y197748D02*
D03*
Y187935D02*
D03*
X-60346Y173599D02*
D03*
X-53369Y166009D02*
D03*
X176000Y253500D02*
D03*
Y233500D02*
D03*
X171000Y223500D02*
D03*
X176000Y93500D02*
D03*
X171000Y83500D02*
D03*
X176000Y73500D02*
D03*
X171000Y63500D02*
D03*
X176000Y53500D02*
D03*
Y33500D02*
D03*
X171000Y23500D02*
D03*
Y-216500D02*
D03*
X176000Y-226500D02*
D03*
Y-246500D02*
D03*
X171000Y-256500D02*
D03*
X166000Y253500D02*
D03*
X161000Y223500D02*
D03*
Y203500D02*
D03*
X166000Y193500D02*
D03*
X161000Y183500D02*
D03*
Y143500D02*
D03*
X166000Y133500D02*
D03*
Y113500D02*
D03*
Y73500D02*
D03*
X161000Y3500D02*
D03*
Y-16500D02*
D03*
Y-36500D02*
D03*
Y-56500D02*
D03*
Y-76500D02*
D03*
Y-96500D02*
D03*
Y-116500D02*
D03*
Y-136500D02*
D03*
Y-156500D02*
D03*
Y-176500D02*
D03*
Y-256500D02*
D03*
X156000Y253500D02*
D03*
X151000Y223500D02*
D03*
Y203500D02*
D03*
Y163500D02*
D03*
X156000Y153500D02*
D03*
X151000Y143500D02*
D03*
X156000Y133500D02*
D03*
Y13500D02*
D03*
Y-6500D02*
D03*
X151000Y-16500D02*
D03*
X156000Y-26500D02*
D03*
X151000Y-36500D02*
D03*
X156000Y-46500D02*
D03*
X151000Y-56500D02*
D03*
X156000Y-66500D02*
D03*
Y-86500D02*
D03*
X151000Y-96500D02*
D03*
X156000Y-106500D02*
D03*
Y-126500D02*
D03*
X151000Y-136500D02*
D03*
X156000Y-146500D02*
D03*
X151000Y-156500D02*
D03*
X156000Y-166500D02*
D03*
X151000Y-256500D02*
D03*
X146000Y253500D02*
D03*
X141000Y243500D02*
D03*
X146000Y233500D02*
D03*
X141000Y223500D02*
D03*
Y203500D02*
D03*
X146000Y193500D02*
D03*
X141000Y143500D02*
D03*
Y23500D02*
D03*
X146000Y-6500D02*
D03*
X141000Y-16500D02*
D03*
X146000Y-26500D02*
D03*
X141000Y-36500D02*
D03*
Y-56500D02*
D03*
X146000Y-66500D02*
D03*
X141000Y-76500D02*
D03*
Y-96500D02*
D03*
Y-116500D02*
D03*
X146000Y-126500D02*
D03*
X141000Y-136500D02*
D03*
Y-156500D02*
D03*
X146000Y-186500D02*
D03*
Y-246500D02*
D03*
X136000Y253500D02*
D03*
X131000Y243500D02*
D03*
Y223500D02*
D03*
X136000Y193500D02*
D03*
X131000Y183500D02*
D03*
Y143500D02*
D03*
X136000Y133500D02*
D03*
Y113500D02*
D03*
X131000Y103500D02*
D03*
X136000Y93500D02*
D03*
X131000Y83500D02*
D03*
X136000Y73500D02*
D03*
X131000Y63500D02*
D03*
Y43500D02*
D03*
X136000Y33500D02*
D03*
X131000Y23500D02*
D03*
X136000Y13500D02*
D03*
Y-6500D02*
D03*
Y-26500D02*
D03*
X131000Y-36500D02*
D03*
X136000Y-46500D02*
D03*
Y-86500D02*
D03*
X131000Y-96500D02*
D03*
X136000Y-106500D02*
D03*
Y-146500D02*
D03*
X131000Y-156500D02*
D03*
X136000Y-166500D02*
D03*
X131000Y-176500D02*
D03*
X126000Y253500D02*
D03*
X121000Y243500D02*
D03*
Y223500D02*
D03*
X126000Y213500D02*
D03*
X121000Y203500D02*
D03*
X126000Y193500D02*
D03*
X121000Y183500D02*
D03*
X126000Y173500D02*
D03*
X121000Y143500D02*
D03*
X126000Y133500D02*
D03*
Y113500D02*
D03*
X121000Y103500D02*
D03*
X126000Y93500D02*
D03*
X121000Y83500D02*
D03*
X126000Y73500D02*
D03*
X121000Y63500D02*
D03*
X126000Y53500D02*
D03*
X121000Y43500D02*
D03*
X126000Y33500D02*
D03*
X121000Y23500D02*
D03*
X126000Y13500D02*
D03*
X121000Y3500D02*
D03*
X126000Y-6500D02*
D03*
X121000Y-16500D02*
D03*
X126000Y-26500D02*
D03*
X121000Y-56500D02*
D03*
X126000Y-166500D02*
D03*
X116000Y253500D02*
D03*
X111000Y243500D02*
D03*
X116000Y233500D02*
D03*
X111000Y223500D02*
D03*
X116000Y213500D02*
D03*
X111000Y203500D02*
D03*
Y183500D02*
D03*
Y163500D02*
D03*
X116000Y133500D02*
D03*
Y113500D02*
D03*
X111000Y103500D02*
D03*
X116000Y93500D02*
D03*
X111000Y83500D02*
D03*
X116000Y73500D02*
D03*
Y53500D02*
D03*
X111000Y43500D02*
D03*
X116000Y33500D02*
D03*
X111000Y23500D02*
D03*
X116000Y13500D02*
D03*
X111000Y3500D02*
D03*
X116000Y-6500D02*
D03*
X111000Y-16500D02*
D03*
Y-76500D02*
D03*
X116000Y-86500D02*
D03*
X111000Y-96500D02*
D03*
Y-116500D02*
D03*
X116000Y-126500D02*
D03*
X111000Y-136500D02*
D03*
X106000Y253500D02*
D03*
X101000Y243500D02*
D03*
X106000Y233500D02*
D03*
X101000Y223500D02*
D03*
X106000Y213500D02*
D03*
X101000Y203500D02*
D03*
X106000Y193500D02*
D03*
Y113500D02*
D03*
Y93500D02*
D03*
X101000Y83500D02*
D03*
X106000Y73500D02*
D03*
X101000Y63500D02*
D03*
X106000Y53500D02*
D03*
X101000Y43500D02*
D03*
X106000Y33500D02*
D03*
X101000Y23500D02*
D03*
X106000Y13500D02*
D03*
X101000Y3500D02*
D03*
X106000Y-6500D02*
D03*
Y-26500D02*
D03*
X101000Y-36500D02*
D03*
Y-76500D02*
D03*
X106000Y-86500D02*
D03*
X101000Y-96500D02*
D03*
X106000Y-106500D02*
D03*
X101000Y-116500D02*
D03*
Y-136500D02*
D03*
X106000Y-146500D02*
D03*
Y-166500D02*
D03*
X96000Y253500D02*
D03*
X91000Y243500D02*
D03*
X96000Y233500D02*
D03*
X91000Y223500D02*
D03*
X96000Y213500D02*
D03*
X91000Y203500D02*
D03*
Y183500D02*
D03*
X96000Y173500D02*
D03*
X91000Y103500D02*
D03*
X96000Y93500D02*
D03*
X91000Y83500D02*
D03*
X96000Y73500D02*
D03*
X91000Y63500D02*
D03*
X96000Y53500D02*
D03*
X91000Y43500D02*
D03*
X96000Y33500D02*
D03*
X91000Y23500D02*
D03*
X96000Y13500D02*
D03*
X91000Y3500D02*
D03*
Y-16500D02*
D03*
X96000Y-26500D02*
D03*
X91000Y-36500D02*
D03*
X96000Y-46500D02*
D03*
X91000Y-56500D02*
D03*
Y-76500D02*
D03*
Y-96500D02*
D03*
Y-116500D02*
D03*
Y-136500D02*
D03*
X96000Y-166500D02*
D03*
X91000Y-196500D02*
D03*
X96000Y-206500D02*
D03*
X86000Y253500D02*
D03*
X81000Y243500D02*
D03*
Y223500D02*
D03*
X86000Y213500D02*
D03*
X81000Y203500D02*
D03*
X86000Y193500D02*
D03*
X81000Y183500D02*
D03*
X86000Y73500D02*
D03*
Y53500D02*
D03*
Y33500D02*
D03*
Y13500D02*
D03*
Y-6500D02*
D03*
X81000Y-16500D02*
D03*
X86000Y-26500D02*
D03*
X81000Y-36500D02*
D03*
X86000Y-46500D02*
D03*
X81000Y-56500D02*
D03*
X86000Y-66500D02*
D03*
X81000Y-76500D02*
D03*
X86000Y-86500D02*
D03*
X81000Y-96500D02*
D03*
X86000Y-106500D02*
D03*
X81000Y-116500D02*
D03*
X86000Y-126500D02*
D03*
X81000Y-136500D02*
D03*
X86000Y-146500D02*
D03*
X81000Y-196500D02*
D03*
X86000Y-206500D02*
D03*
Y-226500D02*
D03*
X76000Y253500D02*
D03*
X71000Y243500D02*
D03*
X76000Y233500D02*
D03*
Y213500D02*
D03*
X71000Y203500D02*
D03*
X76000Y193500D02*
D03*
Y173500D02*
D03*
X71000Y163500D02*
D03*
X76000Y153500D02*
D03*
X71000Y143500D02*
D03*
Y103500D02*
D03*
X76000Y-6500D02*
D03*
Y-26500D02*
D03*
Y-46500D02*
D03*
Y-66500D02*
D03*
Y-86500D02*
D03*
Y-106500D02*
D03*
Y-126500D02*
D03*
Y-146500D02*
D03*
Y-166500D02*
D03*
Y-186500D02*
D03*
Y-206500D02*
D03*
X66000Y233500D02*
D03*
Y213500D02*
D03*
X61000Y203500D02*
D03*
Y183500D02*
D03*
X66000Y173500D02*
D03*
X61000Y163500D02*
D03*
X66000Y153500D02*
D03*
X61000Y143500D02*
D03*
Y103500D02*
D03*
Y-16500D02*
D03*
Y-36500D02*
D03*
Y-56500D02*
D03*
Y-76500D02*
D03*
Y-96500D02*
D03*
Y-116500D02*
D03*
Y-136500D02*
D03*
Y-156500D02*
D03*
Y-176500D02*
D03*
Y-216500D02*
D03*
X56000Y233500D02*
D03*
Y213500D02*
D03*
Y193500D02*
D03*
X51000Y183500D02*
D03*
X56000Y173500D02*
D03*
X51000Y163500D02*
D03*
X56000Y153500D02*
D03*
X51000Y143500D02*
D03*
X56000Y133500D02*
D03*
Y113500D02*
D03*
X51000Y63500D02*
D03*
Y43500D02*
D03*
Y23500D02*
D03*
Y3500D02*
D03*
X56000Y-26500D02*
D03*
X51000Y-36500D02*
D03*
X56000Y-46500D02*
D03*
X51000Y-56500D02*
D03*
X56000Y-66500D02*
D03*
X51000Y-76500D02*
D03*
X56000Y-86500D02*
D03*
X51000Y-96500D02*
D03*
X56000Y-106500D02*
D03*
X51000Y-116500D02*
D03*
X56000Y-126500D02*
D03*
X51000Y-136500D02*
D03*
X56000Y-146500D02*
D03*
X51000Y-156500D02*
D03*
X56000Y-166500D02*
D03*
X51000Y-176500D02*
D03*
X56000Y-186500D02*
D03*
X51000Y-196500D02*
D03*
Y-216500D02*
D03*
X46000Y233500D02*
D03*
X41000Y203500D02*
D03*
X46000Y193500D02*
D03*
X41000Y3500D02*
D03*
X46000Y-26500D02*
D03*
X41000Y-36500D02*
D03*
X46000Y-46500D02*
D03*
X41000Y-56500D02*
D03*
X46000Y-66500D02*
D03*
Y-86500D02*
D03*
X41000Y-96500D02*
D03*
X46000Y-106500D02*
D03*
X41000Y-116500D02*
D03*
X46000Y-126500D02*
D03*
X41000Y-136500D02*
D03*
X46000Y-146500D02*
D03*
X41000Y-156500D02*
D03*
X46000Y-166500D02*
D03*
Y-186500D02*
D03*
X41000Y-196500D02*
D03*
X36000Y53500D02*
D03*
X31000Y43500D02*
D03*
X36000Y33500D02*
D03*
X31000Y23500D02*
D03*
X36000Y-6500D02*
D03*
X31000Y-16500D02*
D03*
X36000Y-46500D02*
D03*
X31000Y-56500D02*
D03*
X36000Y-66500D02*
D03*
X31000Y-76500D02*
D03*
X36000Y-86500D02*
D03*
X31000Y-96500D02*
D03*
X36000Y-106500D02*
D03*
X31000Y-116500D02*
D03*
Y-136500D02*
D03*
X36000Y-146500D02*
D03*
X31000Y-156500D02*
D03*
X36000Y-166500D02*
D03*
X31000Y-176500D02*
D03*
X36000Y-186500D02*
D03*
X31000Y-196500D02*
D03*
X26000Y233500D02*
D03*
Y213500D02*
D03*
X21000Y203500D02*
D03*
X26000Y93500D02*
D03*
Y73500D02*
D03*
Y53500D02*
D03*
X21000Y43500D02*
D03*
X26000Y33500D02*
D03*
X21000Y23500D02*
D03*
X26000Y13500D02*
D03*
X21000Y3500D02*
D03*
Y-16500D02*
D03*
X26000Y-46500D02*
D03*
X21000Y-56500D02*
D03*
X26000Y-66500D02*
D03*
X21000Y-76500D02*
D03*
X26000Y-86500D02*
D03*
X21000Y-96500D02*
D03*
X26000Y-106500D02*
D03*
X21000Y-116500D02*
D03*
X26000Y-126500D02*
D03*
X21000Y-136500D02*
D03*
X26000Y-146500D02*
D03*
X21000Y-156500D02*
D03*
X26000Y-166500D02*
D03*
X21000Y-176500D02*
D03*
X26000Y-186500D02*
D03*
X21000Y-196500D02*
D03*
X16000Y233500D02*
D03*
Y213500D02*
D03*
Y193500D02*
D03*
X11000Y183500D02*
D03*
Y103500D02*
D03*
X16000Y93500D02*
D03*
Y73500D02*
D03*
X11000Y43500D02*
D03*
X16000Y33500D02*
D03*
X11000Y23500D02*
D03*
X16000Y13500D02*
D03*
X11000Y3500D02*
D03*
X16000Y-26500D02*
D03*
X11000Y-36500D02*
D03*
Y-56500D02*
D03*
X16000Y-66500D02*
D03*
Y-86500D02*
D03*
X11000Y-96500D02*
D03*
X16000Y-106500D02*
D03*
X11000Y-116500D02*
D03*
Y-136500D02*
D03*
X16000Y-146500D02*
D03*
X11000Y-156500D02*
D03*
X16000Y-166500D02*
D03*
Y-186500D02*
D03*
X6000Y233500D02*
D03*
X1000Y183500D02*
D03*
X6000Y173500D02*
D03*
Y113500D02*
D03*
X1000Y103500D02*
D03*
X6000Y93500D02*
D03*
Y73500D02*
D03*
X1000Y43500D02*
D03*
X6000Y33500D02*
D03*
X1000Y23500D02*
D03*
X6000Y13500D02*
D03*
X1000Y3500D02*
D03*
X6000Y-6500D02*
D03*
X1000Y-16500D02*
D03*
Y-36500D02*
D03*
Y-56500D02*
D03*
X6000Y-66500D02*
D03*
X1000Y-76500D02*
D03*
X6000Y-86500D02*
D03*
X1000Y-96500D02*
D03*
Y-116500D02*
D03*
Y-136500D02*
D03*
Y-156500D02*
D03*
X6000Y-166500D02*
D03*
X1000Y-176500D02*
D03*
X6000Y-186500D02*
D03*
X-4000Y233500D02*
D03*
X-9000Y183500D02*
D03*
X-4000Y173500D02*
D03*
Y133500D02*
D03*
X-9000Y123500D02*
D03*
X-4000Y113500D02*
D03*
X-9000Y103500D02*
D03*
X-4000Y93500D02*
D03*
X-9000Y83500D02*
D03*
X-4000Y73500D02*
D03*
Y53500D02*
D03*
Y33500D02*
D03*
Y13500D02*
D03*
X-9000Y-56500D02*
D03*
X-4000Y-66500D02*
D03*
Y-106500D02*
D03*
X-9000Y-116500D02*
D03*
X-4000Y-126500D02*
D03*
X-9000Y-136500D02*
D03*
X-4000Y-146500D02*
D03*
X-9000Y-156500D02*
D03*
X-4000Y-166500D02*
D03*
X-9000Y-196500D02*
D03*
X-14000Y233500D02*
D03*
Y213500D02*
D03*
X-19000Y203500D02*
D03*
X-14000Y193500D02*
D03*
X-19000Y183500D02*
D03*
Y123500D02*
D03*
X-14000Y113500D02*
D03*
X-19000Y103500D02*
D03*
X-14000Y93500D02*
D03*
X-19000Y83500D02*
D03*
X-14000Y73500D02*
D03*
Y53500D02*
D03*
Y33500D02*
D03*
X-19000Y23500D02*
D03*
X-14000Y-6500D02*
D03*
Y-26500D02*
D03*
X-19000Y-56500D02*
D03*
Y-76500D02*
D03*
X-14000Y-86500D02*
D03*
X-19000Y-96500D02*
D03*
X-14000Y-106500D02*
D03*
X-19000Y-116500D02*
D03*
Y-136500D02*
D03*
X-14000Y-146500D02*
D03*
X-19000Y-156500D02*
D03*
X-14000Y-166500D02*
D03*
Y-186500D02*
D03*
X-19000Y-196500D02*
D03*
X-24000Y233500D02*
D03*
Y213500D02*
D03*
Y193500D02*
D03*
X-29000Y163500D02*
D03*
Y143500D02*
D03*
X-24000Y113500D02*
D03*
X-29000Y103500D02*
D03*
X-24000Y93500D02*
D03*
X-29000Y83500D02*
D03*
X-24000Y73500D02*
D03*
Y33500D02*
D03*
Y-6500D02*
D03*
Y-26500D02*
D03*
Y-66500D02*
D03*
X-29000Y-76500D02*
D03*
X-24000Y-86500D02*
D03*
X-29000Y-96500D02*
D03*
X-24000Y-106500D02*
D03*
X-29000Y-116500D02*
D03*
X-24000Y-126500D02*
D03*
X-29000Y-136500D02*
D03*
Y-176500D02*
D03*
X-24000Y-186500D02*
D03*
X-29000Y-196500D02*
D03*
X-24000Y-206500D02*
D03*
X-39000Y163500D02*
D03*
Y143500D02*
D03*
X-34000Y133500D02*
D03*
Y113500D02*
D03*
X-39000Y103500D02*
D03*
X-34000Y93500D02*
D03*
X-39000Y83500D02*
D03*
X-34000Y53500D02*
D03*
Y-6500D02*
D03*
X-39000Y-16500D02*
D03*
X-34000Y-26500D02*
D03*
Y-66500D02*
D03*
X-39000Y-76500D02*
D03*
X-34000Y-86500D02*
D03*
X-39000Y-96500D02*
D03*
X-34000Y-106500D02*
D03*
X-39000Y-116500D02*
D03*
Y-136500D02*
D03*
X-34000Y-146500D02*
D03*
Y-166500D02*
D03*
X-39000Y-176500D02*
D03*
X-34000Y-186500D02*
D03*
X-39000Y-196500D02*
D03*
X-34000Y-206500D02*
D03*
X-44000Y213500D02*
D03*
X-49000Y183500D02*
D03*
Y143500D02*
D03*
X-44000Y133500D02*
D03*
X-49000Y123500D02*
D03*
X-44000Y93500D02*
D03*
X-49000Y83500D02*
D03*
X-44000Y73500D02*
D03*
X-49000Y63500D02*
D03*
Y43500D02*
D03*
Y23500D02*
D03*
X-44000Y-6500D02*
D03*
X-49000Y-16500D02*
D03*
X-44000Y-26500D02*
D03*
Y-66500D02*
D03*
X-49000Y-76500D02*
D03*
X-44000Y-86500D02*
D03*
Y-106500D02*
D03*
Y-126500D02*
D03*
X-49000Y-156500D02*
D03*
X-44000Y-166500D02*
D03*
X-49000Y-176500D02*
D03*
X-44000Y-186500D02*
D03*
X-54000Y233500D02*
D03*
X-59000Y223500D02*
D03*
X-54000Y153500D02*
D03*
X-59000Y143500D02*
D03*
X-54000Y133500D02*
D03*
X-59000Y123500D02*
D03*
X-54000Y113500D02*
D03*
Y93500D02*
D03*
X-59000Y83500D02*
D03*
X-54000Y73500D02*
D03*
X-59000Y63500D02*
D03*
X-54000Y53500D02*
D03*
X-59000Y43500D02*
D03*
X-54000Y33500D02*
D03*
Y13500D02*
D03*
Y-6500D02*
D03*
Y-26500D02*
D03*
Y-66500D02*
D03*
X-59000Y-96500D02*
D03*
Y-116500D02*
D03*
Y-136500D02*
D03*
X-54000Y-146500D02*
D03*
X-59000Y-156500D02*
D03*
X-54000Y-166500D02*
D03*
X-59000Y-176500D02*
D03*
X-54000Y-186500D02*
D03*
X-64000Y233500D02*
D03*
X-69000Y223500D02*
D03*
Y163500D02*
D03*
X-64000Y153500D02*
D03*
X-69000Y143500D02*
D03*
X-64000Y133500D02*
D03*
X-69000Y123500D02*
D03*
X-64000Y113500D02*
D03*
X-69000Y103500D02*
D03*
Y83500D02*
D03*
X-64000Y73500D02*
D03*
X-69000Y63500D02*
D03*
X-64000Y53500D02*
D03*
X-69000Y43500D02*
D03*
X-64000Y-6500D02*
D03*
Y-86500D02*
D03*
X-69000Y-96500D02*
D03*
X-64000Y-106500D02*
D03*
X-69000Y-116500D02*
D03*
X-64000Y-126500D02*
D03*
X-69000Y-136500D02*
D03*
X-64000Y-146500D02*
D03*
Y-166500D02*
D03*
X-69000Y-176500D02*
D03*
Y-236500D02*
D03*
X-74000Y253500D02*
D03*
X-79000Y243500D02*
D03*
X-74000Y233500D02*
D03*
X-79000Y223500D02*
D03*
X-74000Y213500D02*
D03*
X-79000Y183500D02*
D03*
X-74000Y173500D02*
D03*
X-79000Y163500D02*
D03*
X-74000Y153500D02*
D03*
X-79000Y143500D02*
D03*
X-74000Y133500D02*
D03*
X-79000Y123500D02*
D03*
X-74000Y113500D02*
D03*
Y73500D02*
D03*
X-79000Y63500D02*
D03*
X-74000Y53500D02*
D03*
X-79000Y43500D02*
D03*
X-74000Y-6500D02*
D03*
X-79000Y-96500D02*
D03*
X-74000Y-106500D02*
D03*
X-79000Y-116500D02*
D03*
X-74000Y-126500D02*
D03*
X-79000Y-136500D02*
D03*
X-74000Y-146500D02*
D03*
Y-166500D02*
D03*
Y-226500D02*
D03*
X-79000Y-236500D02*
D03*
X-84000Y253500D02*
D03*
X-89000Y243500D02*
D03*
X-84000Y233500D02*
D03*
X-89000Y223500D02*
D03*
X-84000Y213500D02*
D03*
X-89000Y183500D02*
D03*
X-84000Y173500D02*
D03*
X-89000Y163500D02*
D03*
Y143500D02*
D03*
X-84000Y133500D02*
D03*
X-89000Y83500D02*
D03*
X-84000Y73500D02*
D03*
X-89000Y63500D02*
D03*
X-84000Y53500D02*
D03*
X-89000Y43500D02*
D03*
X-84000Y33500D02*
D03*
X-89000Y23500D02*
D03*
X-84000Y13500D02*
D03*
X-89000Y-76500D02*
D03*
X-84000Y-106500D02*
D03*
Y-126500D02*
D03*
X-89000Y-176500D02*
D03*
X-84000Y-226500D02*
D03*
X-89000Y-236500D02*
D03*
X-94000Y233500D02*
D03*
Y213500D02*
D03*
X-99000Y183500D02*
D03*
X-94000Y173500D02*
D03*
X-99000Y163500D02*
D03*
X-94000Y153500D02*
D03*
X-99000Y143500D02*
D03*
X-94000Y133500D02*
D03*
X-99000Y123500D02*
D03*
Y103500D02*
D03*
Y83500D02*
D03*
Y63500D02*
D03*
X-94000Y53500D02*
D03*
X-99000Y43500D02*
D03*
X-94000Y33500D02*
D03*
X-99000Y23500D02*
D03*
X-94000Y13500D02*
D03*
X-99000Y-96500D02*
D03*
X-94000Y-106500D02*
D03*
X-99000Y-116500D02*
D03*
Y-136500D02*
D03*
Y-176500D02*
D03*
Y-196500D02*
D03*
X-94000Y-206500D02*
D03*
X-99000Y-216500D02*
D03*
X-94000Y-226500D02*
D03*
X-99000Y-236500D02*
D03*
X-109000Y203500D02*
D03*
X-104000Y193500D02*
D03*
X-109000Y183500D02*
D03*
X-104000Y173500D02*
D03*
X-109000Y163500D02*
D03*
X-104000Y153500D02*
D03*
X-109000Y143500D02*
D03*
X-104000Y133500D02*
D03*
X-109000Y123500D02*
D03*
X-104000Y113500D02*
D03*
Y93500D02*
D03*
Y73500D02*
D03*
Y53500D02*
D03*
X-109000Y43500D02*
D03*
X-104000Y33500D02*
D03*
Y-6500D02*
D03*
X-109000Y-96500D02*
D03*
X-104000Y-106500D02*
D03*
X-109000Y-116500D02*
D03*
X-104000Y-146500D02*
D03*
X-109000Y-156500D02*
D03*
X-104000Y-166500D02*
D03*
X-109000Y-196500D02*
D03*
X-104000Y-206500D02*
D03*
X-109000Y-216500D02*
D03*
X-104000Y-226500D02*
D03*
X-109000Y-236500D02*
D03*
X-114000Y233500D02*
D03*
Y193500D02*
D03*
X-119000Y183500D02*
D03*
X-114000Y173500D02*
D03*
Y153500D02*
D03*
X-119000Y143500D02*
D03*
X-114000Y133500D02*
D03*
X-119000Y123500D02*
D03*
X-114000Y113500D02*
D03*
X-119000Y103500D02*
D03*
X-114000Y93500D02*
D03*
Y33500D02*
D03*
X-119000Y3500D02*
D03*
X-114000Y-6500D02*
D03*
X-119000Y-16500D02*
D03*
Y-76500D02*
D03*
X-114000Y-86500D02*
D03*
X-119000Y-96500D02*
D03*
X-114000Y-106500D02*
D03*
X-119000Y-116500D02*
D03*
Y-176500D02*
D03*
Y-196500D02*
D03*
X-114000Y-206500D02*
D03*
X-119000Y-216500D02*
D03*
X-114000Y-226500D02*
D03*
X-119000Y-236500D02*
D03*
X-129000Y243500D02*
D03*
Y223500D02*
D03*
X-124000Y213500D02*
D03*
X-129000Y203500D02*
D03*
Y183500D02*
D03*
X-124000Y133500D02*
D03*
Y113500D02*
D03*
Y93500D02*
D03*
X-129000Y23500D02*
D03*
X-124000Y13500D02*
D03*
X-129000Y3500D02*
D03*
X-124000Y-6500D02*
D03*
X-129000Y-16500D02*
D03*
Y-76500D02*
D03*
X-124000Y-86500D02*
D03*
X-129000Y-96500D02*
D03*
X-124000Y-106500D02*
D03*
X-129000Y-116500D02*
D03*
X-124000Y-126500D02*
D03*
Y-146500D02*
D03*
X-129000Y-196500D02*
D03*
X-124000Y-206500D02*
D03*
X-129000Y-216500D02*
D03*
X-124000Y-226500D02*
D03*
X-129000Y-236500D02*
D03*
X-124000Y-246500D02*
D03*
X-129000Y-256500D02*
D03*
X-134000Y253500D02*
D03*
X-139000Y243500D02*
D03*
X-134000Y233500D02*
D03*
X-139000Y223500D02*
D03*
X-134000Y213500D02*
D03*
X-139000Y203500D02*
D03*
Y123500D02*
D03*
X-134000Y113500D02*
D03*
X-139000Y103500D02*
D03*
X-134000Y93500D02*
D03*
X-139000Y43500D02*
D03*
X-134000Y33500D02*
D03*
X-139000Y23500D02*
D03*
X-134000Y13500D02*
D03*
X-139000Y3500D02*
D03*
X-134000Y-6500D02*
D03*
X-139000Y-16500D02*
D03*
X-134000Y-26500D02*
D03*
Y-66500D02*
D03*
Y-86500D02*
D03*
Y-106500D02*
D03*
X-139000Y-116500D02*
D03*
X-134000Y-126500D02*
D03*
X-139000Y-136500D02*
D03*
Y-196500D02*
D03*
X-134000Y-206500D02*
D03*
X-139000Y-216500D02*
D03*
X-134000Y-226500D02*
D03*
X-139000Y-236500D02*
D03*
X-134000Y-246500D02*
D03*
X-139000Y-256500D02*
D03*
X-144000Y253500D02*
D03*
Y233500D02*
D03*
X-149000Y223500D02*
D03*
X-144000Y213500D02*
D03*
X-149000Y203500D02*
D03*
X-144000Y193500D02*
D03*
X-149000Y143500D02*
D03*
X-144000Y133500D02*
D03*
X-149000Y123500D02*
D03*
X-144000Y113500D02*
D03*
Y93500D02*
D03*
X-149000Y63500D02*
D03*
X-144000Y53500D02*
D03*
X-149000Y43500D02*
D03*
X-144000Y33500D02*
D03*
Y13500D02*
D03*
X-149000Y3500D02*
D03*
X-144000Y-6500D02*
D03*
X-149000Y-16500D02*
D03*
X-144000Y-26500D02*
D03*
X-149000Y-36500D02*
D03*
X-144000Y-126500D02*
D03*
X-149000Y-156500D02*
D03*
X-144000Y-166500D02*
D03*
X-149000Y-176500D02*
D03*
Y-196500D02*
D03*
X-144000Y-206500D02*
D03*
X-149000Y-216500D02*
D03*
X-144000Y-226500D02*
D03*
Y-246500D02*
D03*
X-149000Y-256500D02*
D03*
X-154000Y253500D02*
D03*
X-159000Y223500D02*
D03*
X-154000Y213500D02*
D03*
X-159000Y183500D02*
D03*
Y143500D02*
D03*
X-154000Y133500D02*
D03*
X-159000Y-256500D02*
D03*
X-164000Y253500D02*
D03*
X-169000Y223500D02*
D03*
X-164000Y213500D02*
D03*
X-169000Y203500D02*
D03*
Y183500D02*
D03*
X-164000Y173500D02*
D03*
X-169000Y163500D02*
D03*
X-164000Y153500D02*
D03*
Y133500D02*
D03*
Y113500D02*
D03*
X-169000Y103500D02*
D03*
Y63500D02*
D03*
Y-256500D02*
D03*
X-174000Y253500D02*
D03*
X-179000Y243500D02*
D03*
Y223500D02*
D03*
X-174000Y213500D02*
D03*
X-179000Y203500D02*
D03*
X-174000Y193500D02*
D03*
X-179000Y183500D02*
D03*
X-174000Y173500D02*
D03*
X-179000Y163500D02*
D03*
X-174000Y153500D02*
D03*
X-179000Y103500D02*
D03*
X-174000Y93500D02*
D03*
X-179000Y83500D02*
D03*
X-174000Y73500D02*
D03*
X-179000Y63500D02*
D03*
Y43500D02*
D03*
X-174000Y33500D02*
D03*
X-179000Y23500D02*
D03*
X-174000Y13500D02*
D03*
X-179000Y3500D02*
D03*
X-174000Y-6500D02*
D03*
X-179000Y-16500D02*
D03*
X-174000Y-26500D02*
D03*
X-179000Y-36500D02*
D03*
X-174000Y-46500D02*
D03*
X-179000Y-56500D02*
D03*
X-174000Y-66500D02*
D03*
X-179000Y-76500D02*
D03*
X-174000Y-86500D02*
D03*
X-179000Y-96500D02*
D03*
Y-116500D02*
D03*
Y-136500D02*
D03*
Y-156500D02*
D03*
X-174000Y-166500D02*
D03*
X-179000Y-176500D02*
D03*
X-174000Y-186500D02*
D03*
Y-226500D02*
D03*
X-179000Y-236500D02*
D03*
X-174000Y-246500D02*
D03*
X-179000Y-256500D02*
D03*
X108715Y125210D02*
D03*
X107361Y132588D02*
D03*
X122500Y150000D02*
D03*
X120500Y163000D02*
D03*
X113359Y154061D02*
D03*
X105949Y182829D02*
D03*
X137988Y121168D02*
D03*
X137999Y124878D02*
D03*
X130231Y149604D02*
D03*
X83828Y85273D02*
D03*
X73000Y72000D02*
D03*
X71000Y74000D02*
D03*
X75034Y69930D02*
D03*
X72392Y-198000D02*
D03*
X67928D02*
D03*
X63464D02*
D03*
X61232Y-196018D02*
D03*
X59000Y-198000D02*
D03*
X66013Y-225921D02*
D03*
X149626Y6263D02*
D03*
X-51643Y173572D02*
D03*
X-52385Y150631D02*
D03*
X-48834Y150676D02*
D03*
X-48691Y173593D02*
D03*
X-46922Y211705D02*
D03*
X144503Y176050D02*
D03*
X-126977Y194466D02*
D03*
X-3629Y-39471D02*
D03*
X63359Y116426D02*
D03*
X109004Y-39851D02*
D03*
X84240Y-192511D02*
D03*
X101605Y-188225D02*
D03*
X70160Y-196018D02*
D03*
X-95432Y-89675D02*
D03*
X-50596Y5295D02*
D03*
X119702Y149929D02*
D03*
X116990D02*
D03*
X100463Y136979D02*
D03*
X117500Y163500D02*
D03*
X114877Y163028D02*
D03*
X81219Y85273D02*
D03*
X78316D02*
D03*
X113359Y160501D02*
D03*
X104595Y121168D02*
D03*
X69204Y95548D02*
D03*
X71383Y93579D02*
D03*
X73273Y91479D02*
D03*
X75307Y89445D02*
D03*
X88500Y142500D02*
D03*
X85738Y151512D02*
D03*
X83738Y168864D02*
D03*
X81138D02*
D03*
X86339D02*
D03*
X97761Y157295D02*
D03*
X57632Y72425D02*
D03*
X-161199Y-114179D02*
D03*
X58459Y220146D02*
D03*
X-42608Y222593D02*
D03*
X53563Y76494D02*
D03*
X55598Y74459D02*
D03*
X51529Y78528D02*
D03*
X-150847Y-95226D02*
D03*
X121500Y-149500D02*
D03*
X124277Y-147260D02*
D03*
X130587Y-83123D02*
D03*
X128680Y-88274D02*
D03*
X117366Y-77799D02*
D03*
X124674Y-84935D02*
D03*
X87023Y-176328D02*
D03*
X123246D02*
D03*
X65696Y-196018D02*
D03*
X-149000Y-139504D02*
D03*
X-143875Y-41211D02*
D03*
X-5000Y-204000D02*
D03*
X40012Y172560D02*
D03*
X-235Y-27599D02*
D03*
X-492Y-21614D02*
D03*
X41730Y82243D02*
D03*
X35509D02*
D03*
X7583Y150738D02*
D03*
X9653Y148826D02*
D03*
X21868Y156421D02*
D03*
X24647Y177707D02*
D03*
X26485Y175869D02*
D03*
X28324Y174030D02*
D03*
X22808Y179546D02*
D03*
X20970Y181384D02*
D03*
X-77740Y194067D02*
D03*
X-18503Y137505D02*
D03*
X-20341Y139344D02*
D03*
X-22180Y141182D02*
D03*
X-14826Y133828D02*
D03*
X-16664Y135667D02*
D03*
X-122125Y62514D02*
D03*
X-113518Y62900D02*
D03*
X-114500Y65500D02*
D03*
X-122000D02*
D03*
X158536Y167831D02*
D03*
X154545Y165934D02*
D03*
X44507Y216893D02*
D03*
X39346Y209253D02*
D03*
X148196Y175990D02*
D03*
D160*
X151512Y91365D02*
D03*
X-130400Y89830D02*
D03*
X-130245Y73611D02*
D03*
X-105951Y5134D02*
D03*
X165275Y32100D02*
D03*
X178979Y100007D02*
D03*
X-56119Y227401D02*
D03*
D161*
X137615Y159172D02*
D03*
X141552Y167046D02*
D03*
Y163109D02*
D03*
Y159172D02*
D03*
X137615Y167046D02*
D03*
Y163109D02*
D03*
X133678Y167046D02*
D03*
Y163109D02*
D03*
Y159172D02*
D03*
M02*
