G04*
G04 #@! TF.GenerationSoftware,Altium Limited,Altium Designer,18.0.11 (651)*
G04*
G04 Layer_Color=16711935*
%FSLAX25Y25*%
%MOIN*%
G70*
G01*
G75*
%ADD10C,0.00600*%
%ADD12C,0.00394*%
%ADD13C,0.01000*%
D10*
X-4126Y-255415D02*
Y-254103D01*
Y-254759D01*
X-8062D01*
X-7406Y-255415D01*
X-4126Y-252135D02*
Y-250823D01*
Y-251479D01*
X-8062D01*
X-7406Y-252135D01*
X-4126Y-248855D02*
X-4782D01*
Y-248199D01*
X-4126D01*
Y-248855D01*
X-7406Y-245575D02*
X-8062Y-244919D01*
Y-243607D01*
X-7406Y-242951D01*
X-6750D01*
X-6094Y-243607D01*
Y-244263D01*
Y-243607D01*
X-5438Y-242951D01*
X-4782D01*
X-4126Y-243607D01*
Y-244919D01*
X-4782Y-245575D01*
X-8062Y-241640D02*
Y-239016D01*
X-7406D01*
X-4782Y-241640D01*
X-4126D01*
Y-237704D02*
X-8062D01*
X-6750Y-236392D01*
X-8062Y-235080D01*
X-4126D01*
Y-233768D02*
X-8062D01*
X-6750Y-232456D01*
X-8062Y-231144D01*
X-4126D01*
X-1899Y-252791D02*
Y-255415D01*
X69D01*
Y-254103D01*
Y-255415D01*
X2037D01*
Y-251479D02*
X-1899D01*
Y-249511D01*
X-1243Y-248855D01*
X69D01*
X725Y-249511D01*
Y-251479D01*
Y-250167D02*
X2037Y-248855D01*
X-1899Y-245575D02*
Y-246887D01*
X-1243Y-247543D01*
X1381D01*
X2037Y-246887D01*
Y-245575D01*
X1381Y-244919D01*
X-1243D01*
X-1899Y-245575D01*
X2037Y-243607D02*
X-1899D01*
X-587Y-242296D01*
X-1899Y-240984D01*
X2037D01*
X4920Y-252791D02*
X4264Y-253447D01*
Y-254759D01*
X4920Y-255415D01*
X7544D01*
X8200Y-254759D01*
Y-253447D01*
X7544Y-252791D01*
X4264Y-248855D02*
Y-251479D01*
X8200D01*
Y-248855D01*
X6232Y-251479D02*
Y-250167D01*
X8200Y-247543D02*
X4264D01*
X8200Y-244919D01*
X4264D01*
Y-243607D02*
Y-240984D01*
Y-242296D01*
X8200D01*
X4264Y-237048D02*
Y-239672D01*
X8200D01*
Y-237048D01*
X6232Y-239672D02*
Y-238360D01*
X8200Y-235736D02*
X4264D01*
Y-233768D01*
X4920Y-233112D01*
X6232D01*
X6888Y-233768D01*
Y-235736D01*
Y-234424D02*
X8200Y-233112D01*
X-140094Y-211359D02*
X-141078Y-210375D01*
X-143046D01*
X-144030Y-211359D01*
Y-212343D01*
X-143046Y-213327D01*
X-141078D01*
X-140094Y-214311D01*
Y-215295D01*
X-141078Y-216279D01*
X-143046D01*
X-144030Y-215295D01*
X-138126Y-210375D02*
Y-216279D01*
X-135174D01*
X-134190Y-215295D01*
Y-211359D01*
X-135174Y-210375D01*
X-138126D01*
X-122383Y-211359D02*
X-123367Y-210375D01*
X-125335D01*
X-126319Y-211359D01*
Y-215295D01*
X-125335Y-216279D01*
X-123367D01*
X-122383Y-215295D01*
X-119431Y-212343D02*
X-117464D01*
X-116480Y-213327D01*
Y-216279D01*
X-119431D01*
X-120415Y-215295D01*
X-119431Y-214311D01*
X-116480D01*
X-114512Y-212343D02*
Y-216279D01*
Y-214311D01*
X-113528Y-213327D01*
X-112544Y-212343D01*
X-111560D01*
X-104673Y-210375D02*
Y-216279D01*
X-107624D01*
X-108608Y-215295D01*
Y-213327D01*
X-107624Y-212343D01*
X-104673D01*
X-67174Y-183921D02*
X-59303D01*
X-63239D01*
Y-178673D01*
X-67174D01*
X-59303D01*
X-67174Y-176049D02*
X-59303D01*
Y-172113D01*
X-60615Y-170801D01*
X-65862D01*
X-67174Y-172113D01*
Y-176049D01*
X-59303Y-168178D02*
X-67174D01*
X-64550Y-165554D01*
X-67174Y-162930D01*
X-59303D01*
X-67174Y-160306D02*
Y-157682D01*
Y-158994D01*
X-59303D01*
Y-160306D01*
Y-157682D01*
X-65123Y-63689D02*
X-60204D01*
X-59220Y-62705D01*
Y-60737D01*
X-60204Y-59753D01*
X-65123D01*
X-64140Y-53849D02*
X-65123Y-54833D01*
Y-56801D01*
X-64140Y-57785D01*
X-63156D01*
X-62172Y-56801D01*
Y-54833D01*
X-61188Y-53849D01*
X-60204D01*
X-59220Y-54833D01*
Y-56801D01*
X-60204Y-57785D01*
X-65123Y-51881D02*
X-59220D01*
Y-48930D01*
X-60204Y-47946D01*
X-61188D01*
X-62172Y-48930D01*
Y-51881D01*
Y-48930D01*
X-63156Y-47946D01*
X-64140D01*
X-65123Y-48930D01*
Y-51881D01*
X-64821Y-13465D02*
X-59901D01*
X-58917Y-12481D01*
Y-10514D01*
X-59901Y-9530D01*
X-64821D01*
X-63837Y-3626D02*
X-64821Y-4610D01*
Y-6578D01*
X-63837Y-7562D01*
X-62853D01*
X-61869Y-6578D01*
Y-4610D01*
X-60885Y-3626D01*
X-59901D01*
X-58917Y-4610D01*
Y-6578D01*
X-59901Y-7562D01*
X-64821Y-1658D02*
X-58917D01*
Y1294D01*
X-59901Y2278D01*
X-60885D01*
X-61869Y1294D01*
Y-1658D01*
Y1294D01*
X-62853Y2278D01*
X-63837D01*
X-64821Y1294D01*
Y-1658D01*
X-187324Y-297850D02*
X-189324Y-298850D01*
X-191323Y-300850D01*
Y-302849D01*
X-190323Y-303849D01*
X-188324D01*
X-187324Y-302849D01*
Y-301849D01*
X-188324Y-300850D01*
X-191323D01*
X-185325Y-303849D02*
Y-302849D01*
X-184325D01*
Y-303849D01*
X-185325D01*
X-180327Y-298850D02*
X-179327Y-297850D01*
X-177328D01*
X-176328Y-298850D01*
Y-302849D01*
X-177328Y-303849D01*
X-179327D01*
X-180327Y-302849D01*
Y-298850D01*
X-174328D02*
X-173329Y-297850D01*
X-171329D01*
X-170330Y-298850D01*
Y-302849D01*
X-171329Y-303849D01*
X-173329D01*
X-174328Y-302849D01*
Y-298850D01*
X-168331Y-303849D02*
Y-299850D01*
X-167331D01*
X-166331Y-300850D01*
Y-303849D01*
Y-300850D01*
X-165331Y-299850D01*
X-164332Y-300850D01*
Y-303849D01*
X-162332D02*
Y-299850D01*
X-161333D01*
X-160333Y-300850D01*
Y-303849D01*
Y-300850D01*
X-159333Y-299850D01*
X-158334Y-300850D01*
Y-303849D01*
X-214266Y-263793D02*
X-213267Y-265792D01*
X-211267Y-267792D01*
X-209268D01*
X-208268Y-266792D01*
Y-264793D01*
X-209268Y-263793D01*
X-210268D01*
X-211267Y-264793D01*
Y-267792D01*
X-208268Y-261794D02*
X-209268D01*
Y-260794D01*
X-208268D01*
Y-261794D01*
Y-256795D02*
Y-254796D01*
Y-255796D01*
X-214266D01*
X-213267Y-256795D01*
Y-251797D02*
X-214266Y-250797D01*
Y-248798D01*
X-213267Y-247798D01*
X-209268D01*
X-208268Y-248798D01*
Y-250797D01*
X-209268Y-251797D01*
X-213267D01*
X-208268Y-245799D02*
X-212267D01*
Y-244799D01*
X-211267Y-243799D01*
X-208268D01*
X-211267D01*
X-212267Y-242800D01*
X-211267Y-241800D01*
X-208268D01*
Y-239801D02*
X-212267D01*
Y-238801D01*
X-211267Y-237801D01*
X-208268D01*
X-211267D01*
X-212267Y-236802D01*
X-211267Y-235802D01*
X-208268D01*
X-21094Y-282495D02*
X-20094Y-283494D01*
X-18095D01*
X-17095Y-282495D01*
Y-278496D01*
X-18095Y-277496D01*
X-20094D01*
X-21094Y-278496D01*
Y-279496D01*
X-20094Y-280495D01*
X-17095D01*
X-12097Y-283494D02*
Y-277496D01*
X-15096Y-280495D01*
X-11097D01*
X-9098Y-283494D02*
Y-282495D01*
X-8098D01*
Y-283494D01*
X-9098D01*
X-4099Y-278496D02*
X-3100Y-277496D01*
X-1100D01*
X-100Y-278496D01*
Y-282495D01*
X-1100Y-283494D01*
X-3100D01*
X-4099Y-282495D01*
Y-278496D01*
X1899D02*
X2898Y-277496D01*
X4898D01*
X5898Y-278496D01*
Y-282495D01*
X4898Y-283494D01*
X2898D01*
X1899Y-282495D01*
Y-278496D01*
X7897Y-283494D02*
Y-279496D01*
X8897D01*
X9896Y-280495D01*
Y-283494D01*
Y-280495D01*
X10896Y-279496D01*
X11896Y-280495D01*
Y-283494D01*
X13895D02*
Y-279496D01*
X14895D01*
X15894Y-280495D01*
Y-283494D01*
Y-280495D01*
X16894Y-279496D01*
X17894Y-280495D01*
Y-283494D01*
X206772Y-23593D02*
Y-21594D01*
Y-22593D01*
X200774D01*
X201773Y-23593D01*
Y-18595D02*
X200774Y-17595D01*
Y-15596D01*
X201773Y-14596D01*
X202773D01*
X203773Y-15596D01*
Y-16595D01*
Y-15596D01*
X204772Y-14596D01*
X205772D01*
X206772Y-15596D01*
Y-17595D01*
X205772Y-18595D01*
X201773Y-12596D02*
X200774Y-11597D01*
Y-9597D01*
X201773Y-8598D01*
X202773D01*
X203773Y-9597D01*
Y-10597D01*
Y-9597D01*
X204772Y-8598D01*
X205772D01*
X206772Y-9597D01*
Y-11597D01*
X205772Y-12596D01*
X206772Y-6598D02*
X205772D01*
Y-5599D01*
X206772D01*
Y-6598D01*
Y2399D02*
Y-1600D01*
X202773Y2399D01*
X201773D01*
X200774Y1399D01*
Y-600D01*
X201773Y-1600D01*
Y4398D02*
X200774Y5398D01*
Y7397D01*
X201773Y8397D01*
X205772D01*
X206772Y7397D01*
Y5398D01*
X205772Y4398D01*
X201773D01*
X206772Y10396D02*
X202773D01*
Y11396D01*
X203773Y12395D01*
X206772D01*
X203773D01*
X202773Y13395D01*
X203773Y14395D01*
X206772D01*
Y16394D02*
X202773D01*
Y17394D01*
X203773Y18394D01*
X206772D01*
X203773D01*
X202773Y19393D01*
X203773Y20393D01*
X206772D01*
D12*
X-36024Y75394D02*
X36024D01*
D13*
X-57087Y25591D02*
G03*
X-68898Y37402I-11811J0D01*
G01*
Y-218504D02*
G03*
X-57087Y-206693I0J11811D01*
G01*
X-175197D02*
G03*
X-163386Y-218504I11811J0D01*
G01*
Y37402D02*
G03*
X-175197Y25591I0J-11811D01*
G01*
X157470Y-172953D02*
G03*
X157470Y-172953I-10827J0D01*
G01*
Y-208386D02*
G03*
X157470Y-208386I-10827J0D01*
G01*
Y-46969D02*
G03*
X157470Y-46969I-10827J0D01*
G01*
Y-82402D02*
G03*
X157470Y-82402I-10827J0D01*
G01*
Y-109961D02*
G03*
X157470Y-109961I-10827J0D01*
G01*
Y-145394D02*
G03*
X157470Y-145394I-10827J0D01*
G01*
X-175197Y-206693D02*
Y25591D01*
X-163386Y-218504D02*
X-68898D01*
X-57087Y-206693D02*
Y25591D01*
X-163386Y37402D02*
X-68898D01*
X-161417Y-289453D02*
X-155417Y-287453D01*
X-161417Y-289453D02*
X-155417Y-291453D01*
X-191039D02*
X-185039Y-289453D01*
X-191039Y-287453D02*
X-185039Y-289453D01*
X-161417D02*
X-151417D01*
X-195039D02*
X-185039D01*
Y-290453D02*
Y-255331D01*
X-161417Y-290453D02*
Y-251889D01*
X-203070Y-232189D02*
X-201070Y-238189D01*
X-199070Y-232189D01*
X-201070Y-262205D02*
X-199070Y-268205D01*
X-203070D02*
X-201070Y-262205D01*
Y-238189D02*
Y-228189D01*
Y-272205D02*
Y-262205D01*
X-202070D02*
X-178165D01*
X-202070Y-238189D02*
X-175117D01*
X-185039Y-279895D02*
X-179039Y-277895D01*
X-185039Y-279895D02*
X-179039Y-281895D01*
X179039D02*
X185039Y-279895D01*
X179039Y-277895D02*
X185039Y-279895D01*
X-185039D02*
X-22694D01*
X19494D02*
X185039D01*
X-185039Y-280895D02*
Y-255331D01*
X185039Y-280895D02*
Y-255331D01*
X203173Y262205D02*
X205173Y256205D01*
X201173D02*
X203173Y262205D01*
X201173Y-256205D02*
X203173Y-262205D01*
X205173Y-256205D01*
X203173Y21993D02*
Y262205D01*
Y-262205D02*
Y-25193D01*
X178165Y262205D02*
X204173D01*
X178165Y-262205D02*
X204173D01*
X215992Y5275D02*
Y9274D01*
X217991D01*
X218657Y8607D01*
Y7274D01*
X217991Y6608D01*
X215992D01*
X220657Y5275D02*
X221990D01*
X222656Y5942D01*
Y7274D01*
X221990Y7941D01*
X220657D01*
X219990Y7274D01*
Y5942D01*
X220657Y5275D01*
X223989Y7941D02*
Y5942D01*
X224656Y5275D01*
X225322Y5942D01*
X225989Y5275D01*
X226655Y5942D01*
Y7941D01*
X229987Y5275D02*
X228654D01*
X227988Y5942D01*
Y7274D01*
X228654Y7941D01*
X229987D01*
X230654Y7274D01*
Y6608D01*
X227988D01*
X231986Y7941D02*
Y5275D01*
Y6608D01*
X232653Y7274D01*
X233319Y7941D01*
X233986D01*
X239984Y9274D02*
Y5275D01*
X242650D01*
X246649Y9274D02*
X243983D01*
Y5275D01*
X246649D01*
X243983Y7274D02*
X245316D01*
X247981Y9274D02*
Y5275D01*
X249981D01*
X250647Y5942D01*
Y8607D01*
X249981Y9274D01*
X247981D01*
X255979Y5275D02*
X257312D01*
X256645D01*
Y7941D01*
X255979D01*
X259311Y5275D02*
X261310D01*
X261977Y5942D01*
X261310Y6608D01*
X259978D01*
X259311Y7274D01*
X259978Y7941D01*
X261977D01*
X215992Y-1923D02*
X217325D01*
X216658D01*
Y2075D01*
X215992Y1409D01*
X221990Y-1923D02*
X219324D01*
X221990Y742D01*
Y1409D01*
X221323Y2075D01*
X219990D01*
X219324Y1409D01*
X223323D02*
X223989Y2075D01*
X225322D01*
X225989Y1409D01*
Y-1257D01*
X225322Y-1923D01*
X223989D01*
X223323Y-1257D01*
Y1409D01*
X227321D02*
X227988Y2075D01*
X229321D01*
X229987Y1409D01*
Y-1257D01*
X229321Y-1923D01*
X227988D01*
X227321Y-1257D01*
Y1409D01*
X231320Y-1923D02*
Y742D01*
X231986D01*
X232653Y76D01*
Y-1923D01*
Y76D01*
X233319Y742D01*
X233986Y76D01*
Y-1923D01*
X235319D02*
X236652D01*
X235985D01*
Y742D01*
X235319D01*
X238651Y-1923D02*
X239984D01*
X239317D01*
Y2075D01*
X238651D01*
X245982Y742D02*
Y-1923D01*
Y-591D01*
X246649Y76D01*
X247315Y742D01*
X247981D01*
X249981Y-1923D02*
X251314D01*
X250647D01*
Y742D01*
X249981D01*
X254646Y-3256D02*
X255312D01*
X255979Y-2590D01*
Y742D01*
X253979D01*
X253313Y76D01*
Y-1257D01*
X253979Y-1923D01*
X255979D01*
X257312Y2075D02*
Y-1923D01*
Y76D01*
X257978Y742D01*
X259311D01*
X259978Y76D01*
Y-1923D01*
X261977Y1409D02*
Y742D01*
X261310D01*
X262643D01*
X261977D01*
Y-1257D01*
X262643Y-1923D01*
X216658Y-10455D02*
X217991D01*
X218657Y-9788D01*
Y-8455D01*
X217991Y-7789D01*
X216658D01*
X215992Y-8455D01*
Y-9788D01*
X216658Y-10455D01*
X220657D02*
Y-7123D01*
Y-8455D01*
X219990D01*
X221323D01*
X220657D01*
Y-7123D01*
X221323Y-6456D01*
X229987Y-7789D02*
X227988D01*
X227321Y-8455D01*
Y-9788D01*
X227988Y-10455D01*
X229987D01*
X233319D02*
X231986D01*
X231320Y-9788D01*
Y-8455D01*
X231986Y-7789D01*
X233319D01*
X233986Y-8455D01*
Y-9122D01*
X231320D01*
X235319Y-10455D02*
Y-7789D01*
X237318D01*
X237985Y-8455D01*
Y-10455D01*
X239984Y-7123D02*
Y-7789D01*
X239317D01*
X240650D01*
X239984D01*
Y-9788D01*
X240650Y-10455D01*
X244649D02*
X243316D01*
X242650Y-9788D01*
Y-8455D01*
X243316Y-7789D01*
X244649D01*
X245316Y-8455D01*
Y-9122D01*
X242650D01*
X246649Y-7789D02*
Y-10455D01*
Y-9122D01*
X247315Y-8455D01*
X247981Y-7789D01*
X248648D01*
X255312D02*
X256645D01*
X257312Y-8455D01*
Y-10455D01*
X255312D01*
X254646Y-9788D01*
X255312Y-9122D01*
X257312D01*
X258645Y-10455D02*
Y-7789D01*
X260644D01*
X261310Y-8455D01*
Y-10455D01*
X265309Y-6456D02*
Y-10455D01*
X263310D01*
X262643Y-9788D01*
Y-8455D01*
X263310Y-7789D01*
X265309D01*
X215992Y-14987D02*
X217325Y-17653D01*
X218657Y-14987D01*
X221990Y-17653D02*
X220657D01*
X219990Y-16987D01*
Y-15654D01*
X220657Y-14987D01*
X221990D01*
X222656Y-15654D01*
Y-16320D01*
X219990D01*
X223989Y-14987D02*
Y-17653D01*
Y-16320D01*
X224656Y-15654D01*
X225322Y-14987D01*
X225989D01*
X228654Y-14321D02*
Y-14987D01*
X227988D01*
X229321D01*
X228654D01*
Y-16987D01*
X229321Y-17653D01*
X231320D02*
X232653D01*
X231986D01*
Y-14987D01*
X231320D01*
X237318D02*
X235319D01*
X234652Y-15654D01*
Y-16987D01*
X235319Y-17653D01*
X237318D01*
X239317Y-14987D02*
X240650D01*
X241317Y-15654D01*
Y-17653D01*
X239317D01*
X238651Y-16987D01*
X239317Y-16320D01*
X241317D01*
X242650Y-17653D02*
X243983D01*
X243316D01*
Y-13655D01*
X242650D01*
X245982Y-17653D02*
X247315D01*
X246649D01*
Y-13655D01*
X245982D01*
X249314Y-14987D02*
Y-16987D01*
X249981Y-17653D01*
X251980D01*
Y-18320D01*
X251314Y-18986D01*
X250647D01*
X251980Y-17653D02*
Y-14987D01*
X218657Y-22852D02*
X216658D01*
X215992Y-23519D01*
Y-24852D01*
X216658Y-25518D01*
X218657D01*
X221990D02*
X220657D01*
X219990Y-24852D01*
Y-23519D01*
X220657Y-22852D01*
X221990D01*
X222656Y-23519D01*
Y-24185D01*
X219990D01*
X223989Y-25518D02*
Y-22852D01*
X225989D01*
X226655Y-23519D01*
Y-25518D01*
X228654Y-22186D02*
Y-22852D01*
X227988D01*
X229321D01*
X228654D01*
Y-24852D01*
X229321Y-25518D01*
X233319D02*
X231986D01*
X231320Y-24852D01*
Y-23519D01*
X231986Y-22852D01*
X233319D01*
X233986Y-23519D01*
Y-24185D01*
X231320D01*
X235319Y-22852D02*
Y-25518D01*
Y-24185D01*
X235985Y-23519D01*
X236652Y-22852D01*
X237318D01*
M02*
