G04*
G04 #@! TF.GenerationSoftware,Altium Limited,Altium Designer,18.0.11 (651)*
G04*
G04 Layer_Color=8388736*
%FSLAX25Y25*%
%MOIN*%
G70*
G01*
G75*
%ADD21R,0.03156X0.03747*%
%ADD22R,0.03943X0.03550*%
%ADD23R,0.07093X0.04534*%
%ADD24O,0.02762X0.06109*%
%ADD25C,0.25400*%
%ADD26C,0.05518*%
%ADD27R,0.05518X0.05518*%
%ADD28C,0.00400*%
%ADD29C,0.07487*%
%ADD30R,0.07487X0.07487*%
%ADD31C,0.12211*%
%ADD32C,0.07880*%
%ADD33C,0.06306*%
%ADD34R,0.06306X0.06306*%
D21*
X95039Y12500D02*
D03*
X99961Y12500D02*
D03*
X99961Y17500D02*
D03*
X95039D02*
D03*
X-94297Y27000D02*
D03*
X-99218D02*
D03*
X-94297Y12800D02*
D03*
X-99218D02*
D03*
X-94297Y-3386D02*
D03*
X-99218D02*
D03*
X-94297Y-11479D02*
D03*
X-99218D02*
D03*
X-94297Y4707D02*
D03*
X-99218D02*
D03*
D22*
X87500Y-32961D02*
D03*
Y-28039D02*
D03*
X92500Y-32961D02*
D03*
Y-28039D02*
D03*
X97500Y-32961D02*
D03*
X97500Y-28039D02*
D03*
D23*
X88000Y19610D02*
D03*
Y8390D02*
D03*
X78500Y8390D02*
D03*
Y19610D02*
D03*
D24*
X83000Y-21228D02*
D03*
X88000D02*
D03*
X93000D02*
D03*
X98000D02*
D03*
X83000Y228D02*
D03*
X88000D02*
D03*
X93000D02*
D03*
X98000D02*
D03*
D25*
X161417Y-54724D02*
D03*
X-161417D02*
D03*
X161417Y54724D02*
D03*
X-161417D02*
D03*
D26*
X-118543Y-17504D02*
D03*
X-128543Y-12504D02*
D03*
X-118543Y-7504D02*
D03*
X-128543Y-2504D02*
D03*
X-118543Y2496D02*
D03*
X-128543Y7496D02*
D03*
X-118543Y12496D02*
D03*
D27*
X-128543Y17496D02*
D03*
D28*
X-153543Y-22504D02*
D03*
Y22504D02*
D03*
D29*
X55000Y-28976D02*
D03*
X45000D02*
D03*
X35000D02*
D03*
X25000D02*
D03*
X15000D02*
D03*
X5000D02*
D03*
X-5000D02*
D03*
X-15000D02*
D03*
X-25000D02*
D03*
X-35000D02*
D03*
X-45000D02*
D03*
X-55000D02*
D03*
X55000Y-38976D02*
D03*
X45000D02*
D03*
X35000D02*
D03*
X25000D02*
D03*
X15000D02*
D03*
X5000D02*
D03*
X-5000D02*
D03*
X-15000D02*
D03*
X-25000D02*
D03*
X-35000D02*
D03*
X-45000D02*
D03*
X45000Y62913D02*
D03*
X35000D02*
D03*
X25000D02*
D03*
X15000D02*
D03*
X5000D02*
D03*
X-5000D02*
D03*
X-15000D02*
D03*
X-25000D02*
D03*
X-35000D02*
D03*
X-45000D02*
D03*
X-55000D02*
D03*
X55000Y52913D02*
D03*
X45000D02*
D03*
X35000D02*
D03*
X25000D02*
D03*
X15000D02*
D03*
X5000D02*
D03*
X-5000D02*
D03*
X-15000D02*
D03*
X-25000D02*
D03*
X-35000D02*
D03*
X-45000D02*
D03*
X-55000D02*
D03*
D30*
Y-38976D02*
D03*
X55000Y62913D02*
D03*
D31*
X-59842Y6299D02*
D03*
X59842D02*
D03*
D32*
X41339Y8268D02*
D03*
X24803D02*
D03*
X8268D02*
D03*
X-8268D02*
D03*
X-24803D02*
D03*
X-41339D02*
D03*
X41339Y-8268D02*
D03*
X24803D02*
D03*
X8268D02*
D03*
X-8268D02*
D03*
X-24803D02*
D03*
X-41339D02*
D03*
D33*
X161417Y17874D02*
D03*
Y-7874D02*
D03*
D34*
Y7874D02*
D03*
Y-17874D02*
D03*
M02*
