G04*
G04 #@! TF.GenerationSoftware,Altium Limited,Altium Designer,18.0.11 (651)*
G04*
G04 Layer_Color=32896*
%FSLAX25Y25*%
%MOIN*%
G70*
G01*
G75*
%ADD13C,0.01000*%
D13*
X35339Y-2232D02*
X47339D01*
X35339Y-11268D02*
X38303Y-14232D01*
X35339Y-11268D02*
Y-2232D01*
X38303Y-14232D02*
X44374D01*
X47339Y-11268D01*
Y-2232D01*
X18803Y14303D02*
X30803D01*
X18803Y5268D02*
X21768Y2303D01*
X18803Y5268D02*
Y14303D01*
X21768Y2303D02*
X27839D01*
X30803Y5268D01*
Y14303D01*
X2268D02*
X14268D01*
X2268Y5268D02*
X5232Y2303D01*
X2268Y5268D02*
Y14303D01*
X5232Y2303D02*
X11303D01*
X14268Y5268D01*
Y17500D01*
X-14268Y-2232D02*
X-2268D01*
X-14268Y-11268D02*
X-11303Y-14232D01*
X-14268Y-11268D02*
Y-2232D01*
X-11303Y-14232D02*
X-5232D01*
X-2268Y-11268D01*
Y-2232D01*
X-30803D02*
X-18803D01*
X-30803Y-11268D02*
X-27839Y-14232D01*
X-30803Y-11268D02*
Y-2232D01*
X-27839Y-14232D02*
X-21768D01*
X-18803Y-11268D01*
Y-2232D01*
X-35339Y5268D02*
Y14303D01*
X-38303Y2303D02*
X-35339Y5268D01*
X-44374Y2303D02*
X-38303D01*
X-47339Y5268D02*
Y14303D01*
Y5268D02*
X-44374Y2303D01*
X-47339Y14303D02*
X-35339D01*
X35339D02*
X47339D01*
Y2303D02*
Y14303D01*
X35339Y2303D02*
Y14303D01*
Y2303D02*
X47339D01*
X18803Y-2232D02*
X30803D01*
Y-14232D02*
Y-2232D01*
X18803Y-14232D02*
Y-2232D01*
Y-14232D02*
X30803D01*
X2268Y-2232D02*
X14268D01*
Y-14232D02*
Y-2232D01*
X2268Y-14232D02*
Y-2232D01*
Y-14232D02*
X14268D01*
X-14268Y14303D02*
X-2268D01*
Y2303D02*
Y14303D01*
X-14268Y2303D02*
Y17500D01*
Y2303D02*
X-2268D01*
X-30803Y14303D02*
X-18803D01*
Y2303D02*
Y14303D01*
X-30803Y2303D02*
Y14303D01*
Y2303D02*
X-18803D01*
X-47339Y-14232D02*
X-35339D01*
X-47339D02*
Y-2232D01*
X-35339Y-14232D02*
Y-2232D01*
X-47339D02*
X-35339D01*
X-14268Y17500D02*
X14268D01*
M02*
