G04*
G04 #@! TF.GenerationSoftware,Altium Limited,Altium Designer,18.0.11 (651)*
G04*
G04 Layer_Color=65535*
%FSLAX25Y25*%
%MOIN*%
G70*
G01*
G75*
%ADD10C,0.02362*%
%ADD11C,0.00984*%
%ADD12C,0.00787*%
%ADD13C,0.01000*%
%ADD14C,0.00100*%
%ADD15C,0.00600*%
%ADD16C,0.00700*%
G36*
X-132664Y-54249D02*
X-133892D01*
Y-53113D01*
X-132664D01*
Y-54249D01*
D02*
G37*
G36*
X-141165Y-53022D02*
X-141064Y-53031D01*
X-140945Y-53040D01*
X-140817Y-53058D01*
X-140679Y-53077D01*
X-140377Y-53132D01*
X-140066Y-53223D01*
X-139919Y-53278D01*
X-139772Y-53351D01*
X-139626Y-53425D01*
X-139498Y-53516D01*
X-139488Y-53525D01*
X-139470Y-53544D01*
X-139434Y-53571D01*
X-139388Y-53608D01*
X-139333Y-53663D01*
X-139269Y-53718D01*
X-139205Y-53791D01*
X-139131Y-53873D01*
X-139058Y-53974D01*
X-138985Y-54075D01*
X-138911Y-54185D01*
X-138847Y-54313D01*
X-138783Y-54441D01*
X-138719Y-54588D01*
X-138664Y-54735D01*
X-138628Y-54899D01*
X-139910Y-55138D01*
Y-55128D01*
X-139919Y-55119D01*
X-139937Y-55064D01*
X-139974Y-54973D01*
X-140029Y-54872D01*
X-140093Y-54753D01*
X-140185Y-54625D01*
X-140295Y-54506D01*
X-140423Y-54396D01*
X-140441Y-54387D01*
X-140487Y-54350D01*
X-140569Y-54304D01*
X-140679Y-54258D01*
X-140817Y-54203D01*
X-140972Y-54167D01*
X-141156Y-54130D01*
X-141357Y-54121D01*
X-141440D01*
X-141495Y-54130D01*
X-141568Y-54139D01*
X-141650Y-54148D01*
X-141742Y-54167D01*
X-141843Y-54185D01*
X-142053Y-54249D01*
X-142172Y-54295D01*
X-142282Y-54350D01*
X-142392Y-54414D01*
X-142502Y-54478D01*
X-142603Y-54570D01*
X-142704Y-54661D01*
X-142713Y-54670D01*
X-142722Y-54689D01*
X-142750Y-54716D01*
X-142777Y-54762D01*
X-142814Y-54817D01*
X-142859Y-54890D01*
X-142905Y-54973D01*
X-142951Y-55064D01*
X-142997Y-55165D01*
X-143043Y-55284D01*
X-143079Y-55422D01*
X-143125Y-55559D01*
X-143152Y-55715D01*
X-143180Y-55880D01*
X-143189Y-56063D01*
X-143198Y-56255D01*
Y-56264D01*
Y-56301D01*
Y-56365D01*
X-143189Y-56438D01*
X-143180Y-56539D01*
X-143171Y-56649D01*
X-143152Y-56768D01*
X-143134Y-56896D01*
X-143079Y-57180D01*
X-142988Y-57464D01*
X-142923Y-57602D01*
X-142859Y-57730D01*
X-142786Y-57858D01*
X-142694Y-57968D01*
X-142685Y-57977D01*
X-142667Y-57995D01*
X-142640Y-58023D01*
X-142603Y-58060D01*
X-142548Y-58096D01*
X-142493Y-58151D01*
X-142420Y-58197D01*
X-142337Y-58252D01*
X-142246Y-58307D01*
X-142154Y-58353D01*
X-141925Y-58444D01*
X-141797Y-58481D01*
X-141669Y-58508D01*
X-141522Y-58527D01*
X-141376Y-58536D01*
X-141302D01*
X-141220Y-58527D01*
X-141119Y-58518D01*
X-140991Y-58499D01*
X-140853Y-58472D01*
X-140707Y-58435D01*
X-140560Y-58380D01*
X-140551D01*
X-140542Y-58371D01*
X-140487Y-58353D01*
X-140414Y-58316D01*
X-140313Y-58270D01*
X-140203Y-58215D01*
X-140084Y-58151D01*
X-139965Y-58078D01*
X-139855Y-57995D01*
Y-57180D01*
X-141330D01*
Y-56099D01*
X-138545D01*
Y-58655D01*
X-138563Y-58673D01*
X-138591Y-58692D01*
X-138618Y-58719D01*
X-138664Y-58756D01*
X-138719Y-58792D01*
X-138774Y-58838D01*
X-138847Y-58893D01*
X-139012Y-58994D01*
X-139214Y-59113D01*
X-139452Y-59232D01*
X-139727Y-59351D01*
X-139736D01*
X-139763Y-59360D01*
X-139800Y-59379D01*
X-139855Y-59397D01*
X-139928Y-59415D01*
X-140011Y-59443D01*
X-140102Y-59470D01*
X-140212Y-59498D01*
X-140322Y-59525D01*
X-140450Y-59553D01*
X-140716Y-59598D01*
X-141000Y-59635D01*
X-141293Y-59644D01*
X-141394D01*
X-141458Y-59635D01*
X-141550D01*
X-141650Y-59626D01*
X-141760Y-59608D01*
X-141888Y-59589D01*
X-142154Y-59544D01*
X-142456Y-59470D01*
X-142750Y-59360D01*
X-142896Y-59296D01*
X-143043Y-59223D01*
X-143052Y-59214D01*
X-143079Y-59205D01*
X-143116Y-59177D01*
X-143162Y-59140D01*
X-143226Y-59104D01*
X-143299Y-59049D01*
X-143372Y-58985D01*
X-143464Y-58912D01*
X-143638Y-58747D01*
X-143830Y-58536D01*
X-144004Y-58298D01*
X-144160Y-58023D01*
Y-58014D01*
X-144178Y-57986D01*
X-144197Y-57941D01*
X-144215Y-57886D01*
X-144243Y-57812D01*
X-144279Y-57721D01*
X-144316Y-57629D01*
X-144343Y-57510D01*
X-144380Y-57391D01*
X-144417Y-57263D01*
X-144481Y-56970D01*
X-144517Y-56649D01*
X-144536Y-56310D01*
Y-56301D01*
Y-56264D01*
Y-56209D01*
X-144527Y-56145D01*
Y-56054D01*
X-144517Y-55953D01*
X-144499Y-55843D01*
X-144481Y-55715D01*
X-144435Y-55440D01*
X-144362Y-55138D01*
X-144261Y-54835D01*
X-144197Y-54680D01*
X-144123Y-54533D01*
X-144114Y-54524D01*
X-144105Y-54496D01*
X-144078Y-54460D01*
X-144041Y-54405D01*
X-144004Y-54341D01*
X-143949Y-54267D01*
X-143885Y-54185D01*
X-143812Y-54093D01*
X-143730Y-53993D01*
X-143638Y-53901D01*
X-143537Y-53800D01*
X-143427Y-53699D01*
X-143308Y-53599D01*
X-143180Y-53507D01*
X-142896Y-53333D01*
X-142887D01*
X-142869Y-53315D01*
X-142832Y-53306D01*
X-142786Y-53278D01*
X-142722Y-53260D01*
X-142649Y-53232D01*
X-142566Y-53205D01*
X-142465Y-53168D01*
X-142365Y-53141D01*
X-142246Y-53113D01*
X-142117Y-53086D01*
X-141980Y-53058D01*
X-141687Y-53022D01*
X-141357Y-53013D01*
X-141238D01*
X-141165Y-53022D01*
D02*
G37*
G36*
X-127141Y-59525D02*
X-128286D01*
Y-58847D01*
X-128295Y-58866D01*
X-128332Y-58912D01*
X-128396Y-58985D01*
X-128478Y-59067D01*
X-128579Y-59159D01*
X-128689Y-59260D01*
X-128817Y-59351D01*
X-128964Y-59434D01*
X-128982Y-59443D01*
X-129028Y-59461D01*
X-129110Y-59498D01*
X-129202Y-59525D01*
X-129321Y-59562D01*
X-129458Y-59598D01*
X-129596Y-59617D01*
X-129742Y-59626D01*
X-129816D01*
X-129880Y-59617D01*
X-129944Y-59608D01*
X-130026Y-59589D01*
X-130118Y-59571D01*
X-130209Y-59544D01*
X-130319Y-59516D01*
X-130429Y-59470D01*
X-130539Y-59415D01*
X-130658Y-59351D01*
X-130768Y-59278D01*
X-130887Y-59196D01*
X-130997Y-59095D01*
X-131107Y-58985D01*
X-131116Y-58976D01*
X-131135Y-58957D01*
X-131162Y-58921D01*
X-131199Y-58866D01*
X-131235Y-58802D01*
X-131290Y-58719D01*
X-131336Y-58628D01*
X-131391Y-58518D01*
X-131446Y-58399D01*
X-131492Y-58261D01*
X-131547Y-58115D01*
X-131583Y-57959D01*
X-131620Y-57785D01*
X-131648Y-57602D01*
X-131666Y-57400D01*
X-131675Y-57189D01*
Y-57180D01*
Y-57134D01*
Y-57079D01*
X-131666Y-56997D01*
X-131657Y-56896D01*
X-131648Y-56786D01*
X-131629Y-56658D01*
X-131602Y-56521D01*
X-131538Y-56228D01*
X-131492Y-56081D01*
X-131446Y-55935D01*
X-131382Y-55788D01*
X-131309Y-55651D01*
X-131226Y-55513D01*
X-131125Y-55394D01*
X-131116Y-55385D01*
X-131098Y-55367D01*
X-131070Y-55339D01*
X-131025Y-55293D01*
X-130970Y-55247D01*
X-130906Y-55202D01*
X-130823Y-55147D01*
X-130741Y-55083D01*
X-130640Y-55028D01*
X-130539Y-54973D01*
X-130301Y-54872D01*
X-130164Y-54835D01*
X-130026Y-54808D01*
X-129880Y-54790D01*
X-129724Y-54780D01*
X-129651D01*
X-129596Y-54790D01*
X-129522Y-54799D01*
X-129449Y-54817D01*
X-129358Y-54835D01*
X-129266Y-54863D01*
X-129156Y-54899D01*
X-129046Y-54936D01*
X-128936Y-54991D01*
X-128826Y-55055D01*
X-128707Y-55128D01*
X-128588Y-55220D01*
X-128478Y-55312D01*
X-128368Y-55431D01*
Y-53113D01*
X-127141D01*
Y-59525D01*
D02*
G37*
G36*
X-135064Y-54790D02*
X-134964Y-54808D01*
X-134844Y-54835D01*
X-134707Y-54881D01*
X-134560Y-54936D01*
X-134414Y-55019D01*
X-134799Y-56081D01*
X-134808Y-56072D01*
X-134853Y-56054D01*
X-134908Y-56017D01*
X-134991Y-55980D01*
X-135073Y-55944D01*
X-135174Y-55907D01*
X-135275Y-55889D01*
X-135376Y-55880D01*
X-135422D01*
X-135467Y-55889D01*
X-135522Y-55898D01*
X-135596Y-55916D01*
X-135669Y-55944D01*
X-135742Y-55980D01*
X-135815Y-56026D01*
X-135825Y-56035D01*
X-135843Y-56054D01*
X-135880Y-56090D01*
X-135916Y-56145D01*
X-135962Y-56218D01*
X-136008Y-56310D01*
X-136054Y-56420D01*
X-136090Y-56548D01*
Y-56567D01*
X-136099Y-56594D01*
X-136109Y-56621D01*
X-136118Y-56667D01*
Y-56722D01*
X-136127Y-56796D01*
X-136136Y-56878D01*
X-136145Y-56979D01*
X-136154Y-57089D01*
X-136163Y-57217D01*
X-136173Y-57354D01*
X-136182Y-57510D01*
Y-57693D01*
X-136191Y-57886D01*
Y-58096D01*
Y-59525D01*
X-137418D01*
Y-54881D01*
X-136273D01*
Y-55541D01*
X-136264Y-55532D01*
X-136228Y-55476D01*
X-136173Y-55394D01*
X-136099Y-55293D01*
X-136026Y-55193D01*
X-135934Y-55083D01*
X-135852Y-54991D01*
X-135760Y-54927D01*
X-135751Y-54918D01*
X-135715Y-54899D01*
X-135669Y-54881D01*
X-135605Y-54854D01*
X-135522Y-54826D01*
X-135431Y-54799D01*
X-135330Y-54790D01*
X-135220Y-54780D01*
X-135147D01*
X-135064Y-54790D01*
D02*
G37*
G36*
X-102629Y-54790D02*
X-102537Y-54799D01*
X-102436Y-54808D01*
X-102326Y-54817D01*
X-102097Y-54854D01*
X-101868Y-54909D01*
X-101649Y-54991D01*
X-101548Y-55037D01*
X-101456Y-55092D01*
X-101447D01*
X-101438Y-55110D01*
X-101383Y-55147D01*
X-101301Y-55220D01*
X-101200Y-55321D01*
X-101090Y-55449D01*
X-100980Y-55605D01*
X-100888Y-55797D01*
X-100806Y-56008D01*
X-101960Y-56218D01*
Y-56209D01*
X-101978Y-56173D01*
X-101997Y-56127D01*
X-102024Y-56063D01*
X-102070Y-55999D01*
X-102116Y-55935D01*
X-102180Y-55861D01*
X-102253Y-55806D01*
X-102262Y-55797D01*
X-102290Y-55779D01*
X-102336Y-55761D01*
X-102400Y-55733D01*
X-102482Y-55705D01*
X-102583Y-55678D01*
X-102702Y-55669D01*
X-102839Y-55660D01*
X-102913D01*
X-103004Y-55669D01*
X-103105Y-55678D01*
X-103215Y-55696D01*
X-103334Y-55715D01*
X-103435Y-55751D01*
X-103526Y-55797D01*
X-103535D01*
X-103545Y-55815D01*
X-103591Y-55861D01*
X-103645Y-55944D01*
X-103655Y-55989D01*
X-103664Y-56044D01*
Y-56054D01*
Y-56063D01*
X-103645Y-56127D01*
X-103609Y-56200D01*
X-103581Y-56237D01*
X-103545Y-56273D01*
X-103535Y-56283D01*
X-103499Y-56292D01*
X-103481Y-56310D01*
X-103444Y-56319D01*
X-103398Y-56337D01*
X-103343Y-56365D01*
X-103270Y-56383D01*
X-103197Y-56411D01*
X-103105Y-56438D01*
X-102995Y-56466D01*
X-102876Y-56502D01*
X-102739Y-56539D01*
X-102583Y-56576D01*
X-102409Y-56621D01*
X-102400D01*
X-102363Y-56631D01*
X-102317Y-56640D01*
X-102253Y-56658D01*
X-102171Y-56686D01*
X-102079Y-56704D01*
X-101978Y-56741D01*
X-101868Y-56768D01*
X-101639Y-56850D01*
X-101420Y-56942D01*
X-101209Y-57043D01*
X-101117Y-57107D01*
X-101035Y-57162D01*
X-101016Y-57180D01*
X-100971Y-57226D01*
X-100916Y-57299D01*
X-100842Y-57400D01*
X-100769Y-57528D01*
X-100714Y-57684D01*
X-100668Y-57867D01*
X-100650Y-58078D01*
Y-58087D01*
Y-58105D01*
Y-58142D01*
X-100659Y-58188D01*
X-100668Y-58234D01*
X-100678Y-58298D01*
X-100714Y-58454D01*
X-100778Y-58618D01*
X-100824Y-58710D01*
X-100879Y-58802D01*
X-100943Y-58893D01*
X-101007Y-58985D01*
X-101099Y-59076D01*
X-101190Y-59168D01*
X-101200Y-59177D01*
X-101218Y-59186D01*
X-101245Y-59214D01*
X-101291Y-59241D01*
X-101346Y-59278D01*
X-101410Y-59315D01*
X-101493Y-59351D01*
X-101584Y-59397D01*
X-101694Y-59443D01*
X-101804Y-59479D01*
X-101942Y-59516D01*
X-102079Y-59553D01*
X-102235Y-59580D01*
X-102400Y-59608D01*
X-102574Y-59617D01*
X-102766Y-59626D01*
X-102858D01*
X-102922Y-59617D01*
X-103004D01*
X-103096Y-59608D01*
X-103197Y-59598D01*
X-103306Y-59580D01*
X-103545Y-59534D01*
X-103801Y-59470D01*
X-104039Y-59379D01*
X-104268Y-59250D01*
X-104278Y-59241D01*
X-104296Y-59232D01*
X-104323Y-59214D01*
X-104360Y-59177D01*
X-104452Y-59095D01*
X-104561Y-58976D01*
X-104681Y-58829D01*
X-104800Y-58646D01*
X-104900Y-58444D01*
X-104983Y-58206D01*
X-103746Y-58014D01*
Y-58032D01*
X-103728Y-58069D01*
X-103709Y-58133D01*
X-103682Y-58215D01*
X-103636Y-58307D01*
X-103581Y-58389D01*
X-103517Y-58481D01*
X-103435Y-58554D01*
X-103426Y-58563D01*
X-103389Y-58582D01*
X-103334Y-58609D01*
X-103261Y-58646D01*
X-103169Y-58683D01*
X-103050Y-58710D01*
X-102922Y-58728D01*
X-102766Y-58737D01*
X-102684D01*
X-102601Y-58728D01*
X-102500Y-58719D01*
X-102381Y-58692D01*
X-102262Y-58664D01*
X-102152Y-58618D01*
X-102052Y-58563D01*
X-102042Y-58554D01*
X-102024Y-58545D01*
X-101997Y-58518D01*
X-101969Y-58481D01*
X-101942Y-58435D01*
X-101914Y-58380D01*
X-101896Y-58316D01*
X-101887Y-58243D01*
Y-58234D01*
Y-58215D01*
X-101896Y-58160D01*
X-101923Y-58078D01*
X-101978Y-58005D01*
X-101997Y-57986D01*
X-102024Y-57977D01*
X-102061Y-57950D01*
X-102116Y-57931D01*
X-102189Y-57904D01*
X-102281Y-57876D01*
X-102391Y-57849D01*
X-102409D01*
X-102455Y-57831D01*
X-102528Y-57812D01*
X-102629Y-57794D01*
X-102748Y-57766D01*
X-102876Y-57730D01*
X-103023Y-57693D01*
X-103178Y-57647D01*
X-103499Y-57556D01*
X-103655Y-57510D01*
X-103801Y-57455D01*
X-103948Y-57409D01*
X-104076Y-57354D01*
X-104177Y-57299D01*
X-104268Y-57253D01*
X-104278Y-57244D01*
X-104296Y-57235D01*
X-104314Y-57217D01*
X-104351Y-57180D01*
X-104442Y-57098D01*
X-104534Y-56979D01*
X-104635Y-56832D01*
X-104726Y-56658D01*
X-104763Y-56557D01*
X-104781Y-56447D01*
X-104800Y-56328D01*
X-104809Y-56209D01*
Y-56200D01*
Y-56182D01*
Y-56154D01*
X-104800Y-56109D01*
X-104790Y-56054D01*
X-104781Y-55999D01*
X-104754Y-55852D01*
X-104699Y-55696D01*
X-104607Y-55522D01*
X-104561Y-55440D01*
X-104497Y-55357D01*
X-104424Y-55275D01*
X-104342Y-55193D01*
X-104332Y-55183D01*
X-104323Y-55174D01*
X-104287Y-55156D01*
X-104250Y-55128D01*
X-104204Y-55101D01*
X-104140Y-55064D01*
X-104067Y-55028D01*
X-103975Y-54982D01*
X-103884Y-54945D01*
X-103774Y-54909D01*
X-103645Y-54872D01*
X-103517Y-54844D01*
X-103371Y-54817D01*
X-103215Y-54799D01*
X-103041Y-54780D01*
X-102702D01*
X-102629Y-54790D01*
D02*
G37*
G36*
X-107511D02*
X-107429D01*
X-107255Y-54808D01*
X-107053Y-54826D01*
X-106851Y-54863D01*
X-106659Y-54918D01*
X-106577Y-54945D01*
X-106494Y-54982D01*
X-106485D01*
X-106476Y-54991D01*
X-106430Y-55019D01*
X-106357Y-55055D01*
X-106274Y-55119D01*
X-106174Y-55183D01*
X-106082Y-55275D01*
X-106000Y-55367D01*
X-105926Y-55476D01*
X-105917Y-55495D01*
X-105899Y-55532D01*
X-105871Y-55614D01*
X-105862Y-55660D01*
X-105844Y-55724D01*
X-105825Y-55797D01*
X-105816Y-55870D01*
X-105798Y-55962D01*
X-105789Y-56063D01*
X-105780Y-56173D01*
X-105771Y-56301D01*
X-105761Y-56429D01*
Y-56576D01*
X-105780Y-58005D01*
Y-58014D01*
Y-58032D01*
Y-58060D01*
Y-58105D01*
Y-58215D01*
X-105771Y-58344D01*
Y-58499D01*
X-105752Y-58646D01*
X-105743Y-58792D01*
X-105725Y-58912D01*
Y-58921D01*
X-105716Y-58957D01*
X-105697Y-59021D01*
X-105670Y-59095D01*
X-105642Y-59186D01*
X-105596Y-59287D01*
X-105551Y-59406D01*
X-105496Y-59525D01*
X-106714D01*
Y-59516D01*
X-106723Y-59507D01*
X-106732Y-59470D01*
X-106751Y-59434D01*
X-106769Y-59388D01*
X-106787Y-59324D01*
X-106806Y-59250D01*
X-106833Y-59168D01*
Y-59159D01*
X-106842Y-59150D01*
X-106851Y-59104D01*
X-106870Y-59058D01*
X-106879Y-59021D01*
X-106897Y-59031D01*
X-106934Y-59067D01*
X-106998Y-59122D01*
X-107080Y-59196D01*
X-107181Y-59269D01*
X-107291Y-59342D01*
X-107419Y-59415D01*
X-107548Y-59479D01*
X-107566Y-59489D01*
X-107612Y-59498D01*
X-107685Y-59525D01*
X-107777Y-59553D01*
X-107896Y-59580D01*
X-108024Y-59598D01*
X-108161Y-59617D01*
X-108317Y-59626D01*
X-108381D01*
X-108436Y-59617D01*
X-108491D01*
X-108564Y-59608D01*
X-108729Y-59580D01*
X-108903Y-59534D01*
X-109096Y-59461D01*
X-109279Y-59369D01*
X-109444Y-59241D01*
Y-59232D01*
X-109462Y-59223D01*
X-109508Y-59168D01*
X-109572Y-59086D01*
X-109645Y-58976D01*
X-109719Y-58829D01*
X-109783Y-58664D01*
X-109828Y-58472D01*
X-109838Y-58371D01*
X-109847Y-58261D01*
Y-58252D01*
Y-58243D01*
Y-58197D01*
X-109838Y-58124D01*
X-109819Y-58023D01*
X-109801Y-57922D01*
X-109774Y-57803D01*
X-109728Y-57684D01*
X-109664Y-57565D01*
X-109654Y-57547D01*
X-109627Y-57510D01*
X-109590Y-57455D01*
X-109526Y-57391D01*
X-109453Y-57318D01*
X-109361Y-57235D01*
X-109260Y-57162D01*
X-109141Y-57098D01*
X-109123Y-57089D01*
X-109077Y-57070D01*
X-109004Y-57043D01*
X-108894Y-56997D01*
X-108757Y-56951D01*
X-108583Y-56906D01*
X-108390Y-56850D01*
X-108161Y-56805D01*
X-108152D01*
X-108125Y-56796D01*
X-108079Y-56786D01*
X-108024Y-56777D01*
X-107951Y-56768D01*
X-107877Y-56750D01*
X-107694Y-56704D01*
X-107493Y-56658D01*
X-107300Y-56612D01*
X-107117Y-56557D01*
X-107044Y-56530D01*
X-106971Y-56502D01*
Y-56383D01*
Y-56365D01*
Y-56328D01*
X-106980Y-56264D01*
X-106989Y-56182D01*
X-107016Y-56099D01*
X-107044Y-56017D01*
X-107090Y-55944D01*
X-107154Y-55879D01*
X-107163Y-55870D01*
X-107190Y-55852D01*
X-107236Y-55834D01*
X-107300Y-55797D01*
X-107392Y-55770D01*
X-107502Y-55751D01*
X-107639Y-55733D01*
X-107804Y-55724D01*
X-107859D01*
X-107914Y-55733D01*
X-107987Y-55742D01*
X-108070Y-55761D01*
X-108161Y-55779D01*
X-108244Y-55815D01*
X-108317Y-55861D01*
X-108326Y-55870D01*
X-108344Y-55889D01*
X-108381Y-55916D01*
X-108418Y-55962D01*
X-108473Y-56026D01*
X-108519Y-56109D01*
X-108564Y-56200D01*
X-108610Y-56310D01*
X-109719Y-56109D01*
Y-56099D01*
X-109709Y-56081D01*
X-109700Y-56044D01*
X-109682Y-55999D01*
X-109664Y-55944D01*
X-109636Y-55879D01*
X-109572Y-55733D01*
X-109480Y-55568D01*
X-109370Y-55403D01*
X-109233Y-55247D01*
X-109077Y-55110D01*
X-109068D01*
X-109059Y-55092D01*
X-109031Y-55083D01*
X-108995Y-55055D01*
X-108940Y-55037D01*
X-108885Y-55009D01*
X-108812Y-54973D01*
X-108738Y-54945D01*
X-108647Y-54918D01*
X-108546Y-54881D01*
X-108427Y-54854D01*
X-108308Y-54835D01*
X-108170Y-54808D01*
X-108033Y-54799D01*
X-107877Y-54780D01*
X-107575D01*
X-107511Y-54790D01*
D02*
G37*
G36*
X-110790Y-59525D02*
X-112018D01*
Y-53113D01*
X-110790D01*
Y-59525D01*
D02*
G37*
G36*
X-113273D02*
X-114500D01*
Y-53113D01*
X-113273D01*
Y-59525D01*
D02*
G37*
G36*
X-117449Y-54790D02*
X-117367D01*
X-117193Y-54808D01*
X-116992Y-54826D01*
X-116790Y-54863D01*
X-116598Y-54918D01*
X-116515Y-54945D01*
X-116433Y-54982D01*
X-116424D01*
X-116414Y-54991D01*
X-116369Y-55019D01*
X-116295Y-55055D01*
X-116213Y-55119D01*
X-116112Y-55183D01*
X-116021Y-55275D01*
X-115938Y-55367D01*
X-115865Y-55476D01*
X-115856Y-55495D01*
X-115837Y-55532D01*
X-115810Y-55614D01*
X-115801Y-55660D01*
X-115782Y-55724D01*
X-115764Y-55797D01*
X-115755Y-55870D01*
X-115737Y-55962D01*
X-115727Y-56063D01*
X-115718Y-56173D01*
X-115709Y-56301D01*
X-115700Y-56429D01*
Y-56576D01*
X-115718Y-58005D01*
Y-58014D01*
Y-58032D01*
Y-58060D01*
Y-58105D01*
Y-58215D01*
X-115709Y-58344D01*
Y-58499D01*
X-115691Y-58646D01*
X-115682Y-58792D01*
X-115663Y-58912D01*
Y-58921D01*
X-115654Y-58957D01*
X-115636Y-59021D01*
X-115608Y-59095D01*
X-115581Y-59186D01*
X-115535Y-59287D01*
X-115489Y-59406D01*
X-115434Y-59525D01*
X-116653Y-59525D01*
Y-59516D01*
X-116662Y-59507D01*
X-116671Y-59470D01*
X-116689Y-59434D01*
X-116708Y-59388D01*
X-116726Y-59324D01*
X-116744Y-59250D01*
X-116772Y-59168D01*
Y-59159D01*
X-116781Y-59150D01*
X-116790Y-59104D01*
X-116808Y-59058D01*
X-116817Y-59021D01*
X-116836Y-59031D01*
X-116873Y-59067D01*
X-116937Y-59122D01*
X-117019Y-59196D01*
X-117120Y-59269D01*
X-117230Y-59342D01*
X-117358Y-59415D01*
X-117486Y-59479D01*
X-117505Y-59489D01*
X-117550Y-59498D01*
X-117624Y-59525D01*
X-117715Y-59553D01*
X-117834Y-59580D01*
X-117963Y-59598D01*
X-118100Y-59617D01*
X-118256Y-59626D01*
X-118320D01*
X-118375Y-59617D01*
X-118430D01*
X-118503Y-59608D01*
X-118668Y-59580D01*
X-118842Y-59534D01*
X-119034Y-59461D01*
X-119217Y-59369D01*
X-119382Y-59241D01*
Y-59232D01*
X-119401Y-59223D01*
X-119446Y-59168D01*
X-119510Y-59086D01*
X-119584Y-58976D01*
X-119657Y-58829D01*
X-119721Y-58664D01*
X-119767Y-58472D01*
X-119776Y-58371D01*
X-119785Y-58261D01*
Y-58252D01*
Y-58243D01*
Y-58197D01*
X-119776Y-58124D01*
X-119758Y-58023D01*
X-119740Y-57922D01*
X-119712Y-57803D01*
X-119666Y-57684D01*
X-119602Y-57565D01*
X-119593Y-57547D01*
X-119565Y-57510D01*
X-119529Y-57455D01*
X-119465Y-57391D01*
X-119392Y-57318D01*
X-119300Y-57235D01*
X-119199Y-57162D01*
X-119080Y-57098D01*
X-119062Y-57089D01*
X-119016Y-57070D01*
X-118943Y-57043D01*
X-118833Y-56997D01*
X-118695Y-56951D01*
X-118521Y-56906D01*
X-118329Y-56850D01*
X-118100Y-56805D01*
X-118091D01*
X-118063Y-56796D01*
X-118017Y-56786D01*
X-117963Y-56777D01*
X-117889Y-56768D01*
X-117816Y-56750D01*
X-117633Y-56704D01*
X-117431Y-56658D01*
X-117239Y-56612D01*
X-117056Y-56557D01*
X-116982Y-56530D01*
X-116909Y-56502D01*
Y-56383D01*
Y-56365D01*
Y-56328D01*
X-116918Y-56264D01*
X-116927Y-56182D01*
X-116955Y-56099D01*
X-116982Y-56017D01*
X-117028Y-55944D01*
X-117092Y-55880D01*
X-117102Y-55870D01*
X-117129Y-55852D01*
X-117175Y-55834D01*
X-117239Y-55797D01*
X-117331Y-55770D01*
X-117440Y-55751D01*
X-117578Y-55733D01*
X-117743Y-55724D01*
X-117798D01*
X-117853Y-55733D01*
X-117926Y-55742D01*
X-118008Y-55761D01*
X-118100Y-55779D01*
X-118182Y-55815D01*
X-118256Y-55861D01*
X-118265Y-55870D01*
X-118283Y-55889D01*
X-118320Y-55916D01*
X-118356Y-55962D01*
X-118411Y-56026D01*
X-118457Y-56109D01*
X-118503Y-56200D01*
X-118549Y-56310D01*
X-119657Y-56109D01*
Y-56099D01*
X-119648Y-56081D01*
X-119639Y-56044D01*
X-119621Y-55999D01*
X-119602Y-55944D01*
X-119575Y-55880D01*
X-119510Y-55733D01*
X-119419Y-55568D01*
X-119309Y-55403D01*
X-119172Y-55247D01*
X-119016Y-55110D01*
X-119007D01*
X-118998Y-55092D01*
X-118970Y-55083D01*
X-118933Y-55055D01*
X-118878Y-55037D01*
X-118824Y-55009D01*
X-118750Y-54973D01*
X-118677Y-54945D01*
X-118585Y-54918D01*
X-118485Y-54881D01*
X-118366Y-54854D01*
X-118246Y-54835D01*
X-118109Y-54808D01*
X-117972Y-54799D01*
X-117816Y-54780D01*
X-117514D01*
X-117449Y-54790D01*
D02*
G37*
G36*
X-122927Y-53122D02*
X-122744Y-53132D01*
X-122561Y-53141D01*
X-122378Y-53159D01*
X-122222Y-53177D01*
X-122204D01*
X-122158Y-53187D01*
X-122084Y-53205D01*
X-121993Y-53232D01*
X-121892Y-53269D01*
X-121782Y-53315D01*
X-121663Y-53370D01*
X-121553Y-53443D01*
X-121544Y-53452D01*
X-121498Y-53480D01*
X-121443Y-53525D01*
X-121379Y-53590D01*
X-121297Y-53663D01*
X-121214Y-53754D01*
X-121132Y-53864D01*
X-121059Y-53983D01*
X-121049Y-54002D01*
X-121031Y-54038D01*
X-120994Y-54112D01*
X-120958Y-54203D01*
X-120921Y-54313D01*
X-120885Y-54432D01*
X-120866Y-54579D01*
X-120857Y-54725D01*
Y-54735D01*
Y-54744D01*
Y-54799D01*
X-120866Y-54890D01*
X-120885Y-55000D01*
X-120921Y-55119D01*
X-120958Y-55266D01*
X-121022Y-55403D01*
X-121104Y-55550D01*
X-121114Y-55568D01*
X-121150Y-55614D01*
X-121205Y-55678D01*
X-121278Y-55761D01*
X-121370Y-55852D01*
X-121489Y-55944D01*
X-121617Y-56035D01*
X-121764Y-56118D01*
X-121755D01*
X-121736Y-56127D01*
X-121709Y-56136D01*
X-121663Y-56154D01*
X-121562Y-56191D01*
X-121434Y-56255D01*
X-121288Y-56338D01*
X-121141Y-56438D01*
X-120994Y-56557D01*
X-120866Y-56704D01*
X-120848Y-56722D01*
X-120811Y-56777D01*
X-120765Y-56860D01*
X-120701Y-56979D01*
X-120646Y-57116D01*
X-120591Y-57281D01*
X-120555Y-57464D01*
X-120546Y-57666D01*
Y-57675D01*
Y-57684D01*
Y-57739D01*
X-120555Y-57831D01*
X-120573Y-57941D01*
X-120601Y-58069D01*
X-120637Y-58206D01*
X-120683Y-58362D01*
X-120756Y-58518D01*
X-120765Y-58536D01*
X-120793Y-58582D01*
X-120839Y-58664D01*
X-120903Y-58756D01*
X-120985Y-58857D01*
X-121077Y-58966D01*
X-121187Y-59076D01*
X-121315Y-59177D01*
X-121333Y-59186D01*
X-121379Y-59214D01*
X-121452Y-59260D01*
X-121553Y-59305D01*
X-121681Y-59360D01*
X-121828Y-59415D01*
X-121993Y-59452D01*
X-122176Y-59489D01*
X-122213D01*
X-122249Y-59498D01*
X-122341D01*
X-122414Y-59507D01*
X-122588D01*
X-122698Y-59516D01*
X-122964D01*
X-123129Y-59525D01*
X-125913D01*
Y-53113D01*
X-123101D01*
X-122927Y-53122D01*
D02*
G37*
G36*
X-132664Y-59525D02*
X-133892D01*
Y-54881D01*
X-132664D01*
Y-59525D01*
D02*
G37*
G36*
X-98287Y-54881D02*
X-97444D01*
Y-55861D01*
X-98287D01*
Y-57739D01*
Y-57748D01*
Y-57766D01*
Y-57794D01*
Y-57831D01*
Y-57922D01*
Y-58032D01*
X-98278Y-58151D01*
Y-58252D01*
Y-58344D01*
X-98269Y-58380D01*
Y-58399D01*
X-98259Y-58417D01*
X-98241Y-58454D01*
X-98213Y-58499D01*
X-98159Y-58554D01*
X-98140Y-58563D01*
X-98104Y-58582D01*
X-98030Y-58600D01*
X-97948Y-58609D01*
X-97911D01*
X-97875Y-58600D01*
X-97820Y-58591D01*
X-97746Y-58582D01*
X-97664Y-58563D01*
X-97563Y-58536D01*
X-97453Y-58499D01*
X-97343Y-59443D01*
X-97352D01*
X-97362Y-59452D01*
X-97417Y-59470D01*
X-97508Y-59498D01*
X-97627Y-59534D01*
X-97774Y-59571D01*
X-97939Y-59598D01*
X-98113Y-59617D01*
X-98314Y-59626D01*
X-98369D01*
X-98433Y-59617D01*
X-98516Y-59608D01*
X-98607Y-59598D01*
X-98708Y-59580D01*
X-98818Y-59553D01*
X-98919Y-59516D01*
X-98928Y-59507D01*
X-98965Y-59498D01*
X-99010Y-59470D01*
X-99065Y-59443D01*
X-99194Y-59351D01*
X-99258Y-59296D01*
X-99313Y-59232D01*
X-99322Y-59223D01*
X-99331Y-59196D01*
X-99349Y-59159D01*
X-99377Y-59104D01*
X-99404Y-59040D01*
X-99432Y-58957D01*
X-99459Y-58866D01*
X-99478Y-58756D01*
Y-58747D01*
X-99487Y-58710D01*
Y-58655D01*
X-99496Y-58563D01*
X-99505Y-58444D01*
Y-58298D01*
X-99514Y-58206D01*
Y-58105D01*
Y-58005D01*
Y-57886D01*
Y-55861D01*
X-100082D01*
Y-54881D01*
X-99514D01*
Y-53956D01*
X-98287Y-53232D01*
Y-54881D01*
D02*
G37*
G36*
X-141348Y-60936D02*
X-141247Y-60945D01*
X-141128Y-60963D01*
X-141000Y-60982D01*
X-140853Y-61009D01*
X-140707Y-61046D01*
X-140551Y-61101D01*
X-140395Y-61156D01*
X-140231Y-61220D01*
X-140075Y-61302D01*
X-139919Y-61394D01*
X-139763Y-61504D01*
X-139626Y-61623D01*
X-139617D01*
X-139608Y-61641D01*
X-139580Y-61669D01*
X-139553Y-61696D01*
X-139516Y-61742D01*
X-139479Y-61797D01*
X-139424Y-61852D01*
X-139379Y-61925D01*
X-139269Y-62090D01*
X-139159Y-62292D01*
X-139058Y-62530D01*
X-138966Y-62805D01*
X-140249Y-63107D01*
Y-63098D01*
X-140258Y-63089D01*
Y-63061D01*
X-140276Y-63024D01*
X-140304Y-62933D01*
X-140349Y-62823D01*
X-140423Y-62695D01*
X-140505Y-62566D01*
X-140606Y-62447D01*
X-140734Y-62328D01*
X-140753Y-62319D01*
X-140798Y-62282D01*
X-140872Y-62237D01*
X-140972Y-62182D01*
X-141101Y-62127D01*
X-141247Y-62081D01*
X-141421Y-62044D01*
X-141604Y-62035D01*
X-141669D01*
X-141724Y-62044D01*
X-141788Y-62053D01*
X-141852Y-62063D01*
X-142017Y-62099D01*
X-142200Y-62163D01*
X-142392Y-62255D01*
X-142493Y-62310D01*
X-142585Y-62374D01*
X-142676Y-62456D01*
X-142759Y-62548D01*
X-142768Y-62557D01*
X-142777Y-62576D01*
X-142795Y-62603D01*
X-142823Y-62649D01*
X-142859Y-62704D01*
X-142896Y-62768D01*
X-142933Y-62850D01*
X-142979Y-62951D01*
X-143015Y-63052D01*
X-143061Y-63180D01*
X-143098Y-63318D01*
X-143125Y-63464D01*
X-143162Y-63629D01*
X-143180Y-63803D01*
X-143189Y-63995D01*
X-143198Y-64206D01*
Y-64215D01*
Y-64261D01*
Y-64325D01*
X-143189Y-64398D01*
Y-64499D01*
X-143171Y-64618D01*
X-143162Y-64737D01*
X-143143Y-64875D01*
X-143088Y-65159D01*
X-143015Y-65443D01*
X-142969Y-65580D01*
X-142905Y-65708D01*
X-142841Y-65827D01*
X-142768Y-65928D01*
X-142759Y-65937D01*
X-142750Y-65946D01*
X-142722Y-65974D01*
X-142685Y-66010D01*
X-142649Y-66047D01*
X-142594Y-66093D01*
X-142456Y-66185D01*
X-142301Y-66276D01*
X-142099Y-66359D01*
X-141879Y-66423D01*
X-141760Y-66432D01*
X-141632Y-66441D01*
X-141577D01*
X-141540Y-66432D01*
X-141449Y-66423D01*
X-141321Y-66404D01*
X-141183Y-66359D01*
X-141037Y-66304D01*
X-140890Y-66230D01*
X-140743Y-66120D01*
X-140725Y-66102D01*
X-140679Y-66056D01*
X-140615Y-65974D01*
X-140533Y-65864D01*
X-140450Y-65717D01*
X-140359Y-65543D01*
X-140276Y-65324D01*
X-140203Y-65076D01*
X-138948Y-65461D01*
Y-65470D01*
X-138957Y-65507D01*
X-138976Y-65562D01*
X-139003Y-65635D01*
X-139040Y-65727D01*
X-139076Y-65827D01*
X-139122Y-65937D01*
X-139177Y-66056D01*
X-139314Y-66313D01*
X-139479Y-66569D01*
X-139681Y-66817D01*
X-139800Y-66936D01*
X-139919Y-67036D01*
X-139928Y-67046D01*
X-139946Y-67055D01*
X-139983Y-67082D01*
X-140038Y-67119D01*
X-140102Y-67155D01*
X-140185Y-67201D01*
X-140276Y-67247D01*
X-140377Y-67293D01*
X-140496Y-67339D01*
X-140624Y-67384D01*
X-140762Y-67430D01*
X-140918Y-67467D01*
X-141073Y-67504D01*
X-141247Y-67531D01*
X-141421Y-67540D01*
X-141614Y-67549D01*
X-141669D01*
X-141733Y-67540D01*
X-141824Y-67531D01*
X-141934Y-67522D01*
X-142062Y-67504D01*
X-142200Y-67476D01*
X-142356Y-67440D01*
X-142520Y-67394D01*
X-142694Y-67339D01*
X-142869Y-67265D01*
X-143043Y-67183D01*
X-143217Y-67082D01*
X-143391Y-66963D01*
X-143565Y-66835D01*
X-143720Y-66679D01*
X-143730Y-66670D01*
X-143757Y-66643D01*
X-143794Y-66588D01*
X-143849Y-66523D01*
X-143913Y-66432D01*
X-143977Y-66322D01*
X-144050Y-66203D01*
X-144123Y-66056D01*
X-144206Y-65891D01*
X-144279Y-65717D01*
X-144343Y-65516D01*
X-144407Y-65305D01*
X-144462Y-65076D01*
X-144499Y-64838D01*
X-144527Y-64572D01*
X-144536Y-64298D01*
Y-64288D01*
Y-64279D01*
Y-64224D01*
X-144527Y-64142D01*
Y-64032D01*
X-144508Y-63904D01*
X-144490Y-63748D01*
X-144462Y-63574D01*
X-144435Y-63391D01*
X-144389Y-63189D01*
X-144334Y-62988D01*
X-144270Y-62786D01*
X-144188Y-62576D01*
X-144096Y-62374D01*
X-143986Y-62173D01*
X-143858Y-61989D01*
X-143711Y-61815D01*
X-143702Y-61806D01*
X-143675Y-61779D01*
X-143629Y-61733D01*
X-143565Y-61678D01*
X-143482Y-61605D01*
X-143382Y-61531D01*
X-143262Y-61458D01*
X-143134Y-61366D01*
X-142979Y-61284D01*
X-142823Y-61211D01*
X-142640Y-61128D01*
X-142447Y-61064D01*
X-142236Y-61009D01*
X-142017Y-60963D01*
X-141788Y-60936D01*
X-141540Y-60927D01*
X-141430D01*
X-141348Y-60936D01*
D02*
G37*
G36*
X-78886Y-67440D02*
X-80031D01*
Y-66762D01*
X-80040Y-66780D01*
X-80077Y-66826D01*
X-80141Y-66899D01*
X-80223Y-66982D01*
X-80324Y-67073D01*
X-80434Y-67174D01*
X-80562Y-67265D01*
X-80709Y-67348D01*
X-80727Y-67357D01*
X-80773Y-67375D01*
X-80855Y-67412D01*
X-80947Y-67440D01*
X-81066Y-67476D01*
X-81203Y-67513D01*
X-81341Y-67531D01*
X-81487Y-67540D01*
X-81561D01*
X-81625Y-67531D01*
X-81689Y-67522D01*
X-81771Y-67504D01*
X-81863Y-67485D01*
X-81954Y-67458D01*
X-82064Y-67430D01*
X-82174Y-67384D01*
X-82284Y-67330D01*
X-82403Y-67265D01*
X-82513Y-67192D01*
X-82632Y-67110D01*
X-82742Y-67009D01*
X-82852Y-66899D01*
X-82861Y-66890D01*
X-82880Y-66872D01*
X-82907Y-66835D01*
X-82944Y-66780D01*
X-82981Y-66716D01*
X-83035Y-66633D01*
X-83081Y-66542D01*
X-83136Y-66432D01*
X-83191Y-66313D01*
X-83237Y-66175D01*
X-83292Y-66029D01*
X-83328Y-65873D01*
X-83365Y-65699D01*
X-83393Y-65516D01*
X-83411Y-65314D01*
X-83420Y-65104D01*
Y-65095D01*
Y-65049D01*
Y-64994D01*
X-83411Y-64911D01*
X-83402Y-64811D01*
X-83393Y-64701D01*
X-83374Y-64572D01*
X-83347Y-64435D01*
X-83283Y-64142D01*
X-83237Y-63995D01*
X-83191Y-63849D01*
X-83127Y-63702D01*
X-83054Y-63565D01*
X-82971Y-63427D01*
X-82871Y-63308D01*
X-82861Y-63299D01*
X-82843Y-63281D01*
X-82816Y-63253D01*
X-82770Y-63208D01*
X-82715Y-63162D01*
X-82651Y-63116D01*
X-82568Y-63061D01*
X-82486Y-62997D01*
X-82385Y-62942D01*
X-82284Y-62887D01*
X-82046Y-62786D01*
X-81909Y-62749D01*
X-81771Y-62722D01*
X-81625Y-62704D01*
X-81469Y-62695D01*
X-81396D01*
X-81341Y-62704D01*
X-81268Y-62713D01*
X-81194Y-62731D01*
X-81103Y-62749D01*
X-81011Y-62777D01*
X-80901Y-62814D01*
X-80791Y-62850D01*
X-80681Y-62905D01*
X-80571Y-62969D01*
X-80452Y-63043D01*
X-80333Y-63134D01*
X-80223Y-63226D01*
X-80113Y-63345D01*
Y-61027D01*
X-78886D01*
Y-67440D01*
D02*
G37*
G36*
X-84327Y-62704D02*
X-84226Y-62722D01*
X-84107Y-62749D01*
X-83970Y-62795D01*
X-83823Y-62850D01*
X-83677Y-62933D01*
X-84061Y-63995D01*
X-84070Y-63986D01*
X-84116Y-63968D01*
X-84171Y-63931D01*
X-84254Y-63895D01*
X-84336Y-63858D01*
X-84437Y-63821D01*
X-84538Y-63803D01*
X-84638Y-63794D01*
X-84684D01*
X-84730Y-63803D01*
X-84785Y-63812D01*
X-84858Y-63830D01*
X-84932Y-63858D01*
X-85005Y-63895D01*
X-85078Y-63940D01*
X-85087Y-63950D01*
X-85106Y-63968D01*
X-85142Y-64004D01*
X-85179Y-64059D01*
X-85225Y-64133D01*
X-85271Y-64224D01*
X-85316Y-64334D01*
X-85353Y-64463D01*
Y-64481D01*
X-85362Y-64508D01*
X-85371Y-64536D01*
X-85380Y-64582D01*
Y-64636D01*
X-85390Y-64710D01*
X-85399Y-64792D01*
X-85408Y-64893D01*
X-85417Y-65003D01*
X-85426Y-65131D01*
X-85435Y-65269D01*
X-85444Y-65424D01*
Y-65608D01*
X-85454Y-65800D01*
Y-66010D01*
Y-67440D01*
X-86681D01*
Y-62795D01*
X-85536D01*
Y-63455D01*
X-85527Y-63446D01*
X-85490Y-63391D01*
X-85435Y-63308D01*
X-85362Y-63208D01*
X-85289Y-63107D01*
X-85197Y-62997D01*
X-85115Y-62905D01*
X-85023Y-62841D01*
X-85014Y-62832D01*
X-84977Y-62814D01*
X-84932Y-62795D01*
X-84867Y-62768D01*
X-84785Y-62740D01*
X-84693Y-62713D01*
X-84593Y-62704D01*
X-84483Y-62695D01*
X-84409D01*
X-84327Y-62704D01*
D02*
G37*
G36*
X-72813Y-67440D02*
X-73921D01*
X-75790Y-62795D01*
X-74498D01*
X-73628Y-65168D01*
X-73372Y-65965D01*
X-73362Y-65956D01*
X-73353Y-65919D01*
X-73335Y-65864D01*
X-73317Y-65800D01*
X-73271Y-65662D01*
X-73252Y-65608D01*
X-73243Y-65562D01*
Y-65553D01*
X-73234Y-65525D01*
X-73225Y-65488D01*
X-73207Y-65443D01*
X-73188Y-65378D01*
X-73170Y-65314D01*
X-73115Y-65168D01*
X-72236Y-62795D01*
X-70972D01*
X-72813Y-67440D01*
D02*
G37*
G36*
X-107218Y-62255D02*
X-109535D01*
X-109728Y-63345D01*
X-109719D01*
X-109709Y-63336D01*
X-109654Y-63308D01*
X-109572Y-63281D01*
X-109471Y-63235D01*
X-109343Y-63198D01*
X-109205Y-63171D01*
X-109050Y-63143D01*
X-108894Y-63134D01*
X-108812D01*
X-108757Y-63143D01*
X-108683Y-63153D01*
X-108601Y-63162D01*
X-108509Y-63180D01*
X-108409Y-63208D01*
X-108189Y-63281D01*
X-108079Y-63327D01*
X-107960Y-63391D01*
X-107841Y-63455D01*
X-107722Y-63537D01*
X-107612Y-63629D01*
X-107502Y-63739D01*
X-107493Y-63748D01*
X-107474Y-63766D01*
X-107447Y-63803D01*
X-107410Y-63849D01*
X-107374Y-63904D01*
X-107319Y-63977D01*
X-107273Y-64059D01*
X-107218Y-64151D01*
X-107163Y-64261D01*
X-107117Y-64380D01*
X-107062Y-64508D01*
X-107026Y-64646D01*
X-106989Y-64792D01*
X-106961Y-64948D01*
X-106943Y-65113D01*
X-106934Y-65287D01*
Y-65296D01*
Y-65324D01*
Y-65360D01*
X-106943Y-65424D01*
X-106952Y-65488D01*
X-106961Y-65571D01*
X-106971Y-65662D01*
X-106989Y-65763D01*
X-107044Y-65983D01*
X-107126Y-66221D01*
X-107181Y-66340D01*
X-107245Y-66469D01*
X-107319Y-66588D01*
X-107401Y-66707D01*
X-107410Y-66716D01*
X-107429Y-66743D01*
X-107465Y-66789D01*
X-107511Y-66835D01*
X-107575Y-66908D01*
X-107658Y-66972D01*
X-107749Y-67055D01*
X-107850Y-67128D01*
X-107969Y-67211D01*
X-108097Y-67293D01*
X-108244Y-67357D01*
X-108390Y-67421D01*
X-108564Y-67476D01*
X-108738Y-67522D01*
X-108931Y-67549D01*
X-109132Y-67559D01*
X-109215D01*
X-109279Y-67549D01*
X-109352Y-67540D01*
X-109444Y-67531D01*
X-109545Y-67522D01*
X-109645Y-67504D01*
X-109874Y-67449D01*
X-110122Y-67357D01*
X-110241Y-67311D01*
X-110360Y-67247D01*
X-110470Y-67174D01*
X-110580Y-67091D01*
X-110589Y-67082D01*
X-110607Y-67073D01*
X-110635Y-67046D01*
X-110671Y-67000D01*
X-110708Y-66954D01*
X-110763Y-66899D01*
X-110818Y-66826D01*
X-110873Y-66752D01*
X-110928Y-66661D01*
X-110983Y-66569D01*
X-111092Y-66349D01*
X-111184Y-66093D01*
X-111212Y-65956D01*
X-111239Y-65809D01*
X-110012Y-65681D01*
Y-65699D01*
X-110003Y-65754D01*
X-109984Y-65827D01*
X-109957Y-65919D01*
X-109920Y-66029D01*
X-109865Y-66139D01*
X-109792Y-66240D01*
X-109709Y-66340D01*
X-109700Y-66349D01*
X-109664Y-66377D01*
X-109609Y-66413D01*
X-109535Y-66459D01*
X-109453Y-66505D01*
X-109352Y-66542D01*
X-109233Y-66569D01*
X-109114Y-66578D01*
X-109096D01*
X-109050Y-66569D01*
X-108976Y-66560D01*
X-108885Y-66542D01*
X-108784Y-66505D01*
X-108674Y-66450D01*
X-108564Y-66368D01*
X-108464Y-66267D01*
X-108454Y-66249D01*
X-108418Y-66203D01*
X-108381Y-66130D01*
X-108326Y-66029D01*
X-108280Y-65891D01*
X-108235Y-65727D01*
X-108207Y-65534D01*
X-108198Y-65314D01*
Y-65305D01*
Y-65287D01*
Y-65259D01*
Y-65214D01*
X-108207Y-65113D01*
X-108235Y-64975D01*
X-108262Y-64829D01*
X-108308Y-64682D01*
X-108372Y-64545D01*
X-108464Y-64417D01*
X-108473Y-64407D01*
X-108509Y-64371D01*
X-108573Y-64325D01*
X-108647Y-64261D01*
X-108748Y-64206D01*
X-108867Y-64160D01*
X-109004Y-64124D01*
X-109151Y-64114D01*
X-109205D01*
X-109242Y-64124D01*
X-109343Y-64142D01*
X-109471Y-64169D01*
X-109618Y-64224D01*
X-109774Y-64307D01*
X-109856Y-64362D01*
X-109938Y-64426D01*
X-110021Y-64499D01*
X-110103Y-64582D01*
X-111092Y-64444D01*
X-110460Y-61110D01*
X-107218D01*
Y-62255D01*
D02*
G37*
G36*
X-68214Y-61018D02*
X-68132Y-61027D01*
X-68041Y-61037D01*
X-67940Y-61055D01*
X-67830Y-61073D01*
X-67592Y-61137D01*
X-67344Y-61229D01*
X-67225Y-61284D01*
X-67106Y-61348D01*
X-66996Y-61431D01*
X-66886Y-61522D01*
X-66877Y-61531D01*
X-66859Y-61550D01*
X-66831Y-61577D01*
X-66804Y-61614D01*
X-66758Y-61659D01*
X-66712Y-61724D01*
X-66667Y-61797D01*
X-66611Y-61870D01*
X-66511Y-62063D01*
X-66419Y-62273D01*
X-66392Y-62392D01*
X-66364Y-62521D01*
X-66346Y-62658D01*
X-66337Y-62795D01*
Y-62805D01*
Y-62814D01*
Y-62869D01*
X-66346Y-62951D01*
X-66355Y-63061D01*
X-66373Y-63189D01*
X-66401Y-63327D01*
X-66438Y-63473D01*
X-66492Y-63620D01*
X-66502Y-63638D01*
X-66520Y-63684D01*
X-66557Y-63766D01*
X-66611Y-63867D01*
X-66685Y-63986D01*
X-66767Y-64124D01*
X-66868Y-64279D01*
X-66987Y-64435D01*
X-66996Y-64444D01*
X-67033Y-64490D01*
X-67088Y-64554D01*
X-67170Y-64646D01*
X-67280Y-64756D01*
X-67418Y-64902D01*
X-67592Y-65058D01*
X-67793Y-65250D01*
X-67802Y-65259D01*
X-67821Y-65269D01*
X-67848Y-65296D01*
X-67885Y-65333D01*
X-67986Y-65424D01*
X-68105Y-65534D01*
X-68233Y-65653D01*
X-68352Y-65772D01*
X-68462Y-65873D01*
X-68498Y-65919D01*
X-68535Y-65956D01*
X-68544Y-65965D01*
X-68563Y-65983D01*
X-68590Y-66020D01*
X-68627Y-66066D01*
X-68709Y-66175D01*
X-68783Y-66294D01*
X-66337D01*
Y-67440D01*
X-70642D01*
Y-67430D01*
Y-67412D01*
X-70633Y-67375D01*
X-70624Y-67330D01*
X-70614Y-67275D01*
X-70605Y-67201D01*
X-70569Y-67046D01*
X-70514Y-66862D01*
X-70440Y-66652D01*
X-70349Y-66441D01*
X-70230Y-66221D01*
Y-66212D01*
X-70211Y-66194D01*
X-70193Y-66157D01*
X-70157Y-66111D01*
X-70120Y-66056D01*
X-70065Y-65983D01*
X-70001Y-65901D01*
X-69928Y-65809D01*
X-69836Y-65699D01*
X-69735Y-65589D01*
X-69625Y-65461D01*
X-69497Y-65324D01*
X-69360Y-65177D01*
X-69204Y-65021D01*
X-69030Y-64856D01*
X-68847Y-64682D01*
X-68837Y-64673D01*
X-68810Y-64646D01*
X-68773Y-64609D01*
X-68718Y-64554D01*
X-68645Y-64499D01*
X-68572Y-64426D01*
X-68407Y-64261D01*
X-68233Y-64087D01*
X-68068Y-63913D01*
X-67995Y-63840D01*
X-67931Y-63757D01*
X-67876Y-63693D01*
X-67830Y-63638D01*
X-67821Y-63620D01*
X-67793Y-63574D01*
X-67747Y-63501D01*
X-67702Y-63400D01*
X-67656Y-63281D01*
X-67610Y-63162D01*
X-67582Y-63024D01*
X-67573Y-62887D01*
Y-62878D01*
Y-62869D01*
Y-62823D01*
X-67582Y-62740D01*
X-67601Y-62649D01*
X-67628Y-62548D01*
X-67665Y-62447D01*
X-67720Y-62347D01*
X-67793Y-62255D01*
X-67802Y-62246D01*
X-67830Y-62218D01*
X-67885Y-62182D01*
X-67949Y-62136D01*
X-68041Y-62099D01*
X-68141Y-62063D01*
X-68269Y-62035D01*
X-68407Y-62026D01*
X-68471D01*
X-68535Y-62035D01*
X-68627Y-62053D01*
X-68718Y-62081D01*
X-68819Y-62127D01*
X-68920Y-62182D01*
X-69011Y-62264D01*
X-69021Y-62273D01*
X-69048Y-62310D01*
X-69085Y-62365D01*
X-69131Y-62447D01*
X-69176Y-62548D01*
X-69213Y-62685D01*
X-69250Y-62841D01*
X-69268Y-63024D01*
X-70495Y-62905D01*
Y-62896D01*
X-70486Y-62859D01*
Y-62814D01*
X-70468Y-62740D01*
X-70450Y-62658D01*
X-70431Y-62566D01*
X-70404Y-62456D01*
X-70376Y-62347D01*
X-70285Y-62108D01*
X-70166Y-61870D01*
X-70092Y-61751D01*
X-70010Y-61650D01*
X-69918Y-61550D01*
X-69818Y-61458D01*
X-69808Y-61449D01*
X-69790Y-61440D01*
X-69763Y-61412D01*
X-69717Y-61385D01*
X-69653Y-61357D01*
X-69589Y-61311D01*
X-69506Y-61275D01*
X-69424Y-61229D01*
X-69323Y-61192D01*
X-69213Y-61147D01*
X-69094Y-61110D01*
X-68966Y-61082D01*
X-68682Y-61027D01*
X-68526Y-61018D01*
X-68370Y-61009D01*
X-68279D01*
X-68214Y-61018D01*
D02*
G37*
G36*
X-89585Y-62704D02*
X-89502D01*
X-89328Y-62722D01*
X-89127Y-62740D01*
X-88925Y-62777D01*
X-88733Y-62832D01*
X-88651Y-62859D01*
X-88568Y-62896D01*
X-88559D01*
X-88550Y-62905D01*
X-88504Y-62933D01*
X-88431Y-62969D01*
X-88348Y-63033D01*
X-88248Y-63098D01*
X-88156Y-63189D01*
X-88073Y-63281D01*
X-88000Y-63391D01*
X-87991Y-63409D01*
X-87973Y-63446D01*
X-87945Y-63528D01*
X-87936Y-63574D01*
X-87918Y-63638D01*
X-87899Y-63711D01*
X-87890Y-63785D01*
X-87872Y-63876D01*
X-87863Y-63977D01*
X-87854Y-64087D01*
X-87844Y-64215D01*
X-87835Y-64343D01*
Y-64490D01*
X-87854Y-65919D01*
Y-65928D01*
Y-65946D01*
Y-65974D01*
Y-66020D01*
Y-66130D01*
X-87844Y-66258D01*
Y-66413D01*
X-87826Y-66560D01*
X-87817Y-66707D01*
X-87799Y-66826D01*
Y-66835D01*
X-87789Y-66872D01*
X-87771Y-66936D01*
X-87744Y-67009D01*
X-87716Y-67101D01*
X-87670Y-67201D01*
X-87625Y-67320D01*
X-87570Y-67440D01*
X-88788D01*
Y-67430D01*
X-88797Y-67421D01*
X-88806Y-67384D01*
X-88824Y-67348D01*
X-88843Y-67302D01*
X-88861Y-67238D01*
X-88880Y-67165D01*
X-88907Y-67082D01*
Y-67073D01*
X-88916Y-67064D01*
X-88925Y-67018D01*
X-88944Y-66972D01*
X-88953Y-66936D01*
X-88971Y-66945D01*
X-89008Y-66982D01*
X-89072Y-67036D01*
X-89154Y-67110D01*
X-89255Y-67183D01*
X-89365Y-67256D01*
X-89493Y-67330D01*
X-89622Y-67394D01*
X-89640Y-67403D01*
X-89686Y-67412D01*
X-89759Y-67440D01*
X-89850Y-67467D01*
X-89970Y-67494D01*
X-90098Y-67513D01*
X-90235Y-67531D01*
X-90391Y-67540D01*
X-90455D01*
X-90510Y-67531D01*
X-90565D01*
X-90638Y-67522D01*
X-90803Y-67494D01*
X-90977Y-67449D01*
X-91170Y-67375D01*
X-91353Y-67284D01*
X-91518Y-67155D01*
Y-67146D01*
X-91536Y-67137D01*
X-91582Y-67082D01*
X-91646Y-67000D01*
X-91719Y-66890D01*
X-91792Y-66743D01*
X-91856Y-66578D01*
X-91902Y-66386D01*
X-91912Y-66285D01*
X-91921Y-66175D01*
Y-66166D01*
Y-66157D01*
Y-66111D01*
X-91912Y-66038D01*
X-91893Y-65937D01*
X-91875Y-65837D01*
X-91847Y-65717D01*
X-91802Y-65598D01*
X-91737Y-65479D01*
X-91728Y-65461D01*
X-91701Y-65424D01*
X-91664Y-65369D01*
X-91600Y-65305D01*
X-91527Y-65232D01*
X-91435Y-65149D01*
X-91334Y-65076D01*
X-91215Y-65012D01*
X-91197Y-65003D01*
X-91151Y-64985D01*
X-91078Y-64957D01*
X-90968Y-64911D01*
X-90831Y-64865D01*
X-90657Y-64820D01*
X-90464Y-64765D01*
X-90235Y-64719D01*
X-90226D01*
X-90199Y-64710D01*
X-90153Y-64701D01*
X-90098Y-64692D01*
X-90025Y-64682D01*
X-89951Y-64664D01*
X-89768Y-64618D01*
X-89566Y-64572D01*
X-89374Y-64527D01*
X-89191Y-64472D01*
X-89118Y-64444D01*
X-89044Y-64417D01*
Y-64298D01*
Y-64279D01*
Y-64243D01*
X-89053Y-64179D01*
X-89063Y-64096D01*
X-89090Y-64014D01*
X-89118Y-63931D01*
X-89164Y-63858D01*
X-89228Y-63794D01*
X-89237Y-63785D01*
X-89264Y-63766D01*
X-89310Y-63748D01*
X-89374Y-63711D01*
X-89466Y-63684D01*
X-89576Y-63665D01*
X-89713Y-63647D01*
X-89878Y-63638D01*
X-89933D01*
X-89988Y-63647D01*
X-90061Y-63656D01*
X-90144Y-63675D01*
X-90235Y-63693D01*
X-90318Y-63730D01*
X-90391Y-63775D01*
X-90400Y-63785D01*
X-90418Y-63803D01*
X-90455Y-63830D01*
X-90492Y-63876D01*
X-90547Y-63940D01*
X-90592Y-64023D01*
X-90638Y-64114D01*
X-90684Y-64224D01*
X-91792Y-64023D01*
Y-64014D01*
X-91783Y-63995D01*
X-91774Y-63959D01*
X-91756Y-63913D01*
X-91737Y-63858D01*
X-91710Y-63794D01*
X-91646Y-63647D01*
X-91554Y-63482D01*
X-91444Y-63318D01*
X-91307Y-63162D01*
X-91151Y-63024D01*
X-91142D01*
X-91133Y-63006D01*
X-91105Y-62997D01*
X-91069Y-62969D01*
X-91014Y-62951D01*
X-90959Y-62924D01*
X-90886Y-62887D01*
X-90812Y-62859D01*
X-90721Y-62832D01*
X-90620Y-62795D01*
X-90501Y-62768D01*
X-90382Y-62749D01*
X-90244Y-62722D01*
X-90107Y-62713D01*
X-89951Y-62695D01*
X-89649D01*
X-89585Y-62704D01*
D02*
G37*
G36*
X-100531Y-61037D02*
X-100348Y-61046D01*
X-100165Y-61055D01*
X-99981Y-61073D01*
X-99826Y-61092D01*
X-99807D01*
X-99762Y-61101D01*
X-99688Y-61119D01*
X-99597Y-61147D01*
X-99496Y-61183D01*
X-99386Y-61229D01*
X-99267Y-61284D01*
X-99157Y-61357D01*
X-99148Y-61366D01*
X-99102Y-61394D01*
X-99047Y-61440D01*
X-98983Y-61504D01*
X-98901Y-61577D01*
X-98818Y-61669D01*
X-98736Y-61779D01*
X-98662Y-61898D01*
X-98653Y-61916D01*
X-98635Y-61953D01*
X-98598Y-62026D01*
X-98562Y-62117D01*
X-98525Y-62227D01*
X-98488Y-62347D01*
X-98470Y-62493D01*
X-98461Y-62640D01*
Y-62649D01*
Y-62658D01*
Y-62713D01*
X-98470Y-62805D01*
X-98488Y-62914D01*
X-98525Y-63033D01*
X-98562Y-63180D01*
X-98626Y-63318D01*
X-98708Y-63464D01*
X-98717Y-63482D01*
X-98754Y-63528D01*
X-98809Y-63592D01*
X-98882Y-63675D01*
X-98974Y-63766D01*
X-99093Y-63858D01*
X-99221Y-63950D01*
X-99368Y-64032D01*
X-99359D01*
X-99340Y-64041D01*
X-99313Y-64050D01*
X-99267Y-64069D01*
X-99166Y-64105D01*
X-99038Y-64169D01*
X-98891Y-64252D01*
X-98745Y-64353D01*
X-98598Y-64472D01*
X-98470Y-64618D01*
X-98452Y-64636D01*
X-98415Y-64692D01*
X-98369Y-64774D01*
X-98305Y-64893D01*
X-98250Y-65030D01*
X-98195Y-65195D01*
X-98159Y-65378D01*
X-98149Y-65580D01*
Y-65589D01*
Y-65598D01*
Y-65653D01*
X-98159Y-65745D01*
X-98177Y-65855D01*
X-98204Y-65983D01*
X-98241Y-66120D01*
X-98287Y-66276D01*
X-98360Y-66432D01*
X-98369Y-66450D01*
X-98397Y-66496D01*
X-98443Y-66578D01*
X-98507Y-66670D01*
X-98589Y-66771D01*
X-98681Y-66881D01*
X-98791Y-66991D01*
X-98919Y-67091D01*
X-98937Y-67101D01*
X-98983Y-67128D01*
X-99056Y-67174D01*
X-99157Y-67220D01*
X-99285Y-67275D01*
X-99432Y-67330D01*
X-99597Y-67366D01*
X-99780Y-67403D01*
X-99817D01*
X-99853Y-67412D01*
X-99945D01*
X-100018Y-67421D01*
X-100192D01*
X-100302Y-67430D01*
X-100568D01*
X-100733Y-67440D01*
X-103517D01*
Y-61027D01*
X-100705D01*
X-100531Y-61037D01*
D02*
G37*
G36*
X-112641Y-65076D02*
X-111844D01*
Y-66148D01*
X-112641D01*
Y-67440D01*
X-113831D01*
Y-66148D01*
X-116442Y-66148D01*
Y-65085D01*
X-113676Y-61009D01*
X-112641D01*
Y-65076D01*
D02*
G37*
G36*
X-123907Y-61018D02*
X-123825Y-61027D01*
X-123733Y-61037D01*
X-123633Y-61055D01*
X-123523Y-61073D01*
X-123284Y-61137D01*
X-123037Y-61229D01*
X-122918Y-61284D01*
X-122799Y-61348D01*
X-122689Y-61431D01*
X-122579Y-61522D01*
X-122570Y-61531D01*
X-122552Y-61550D01*
X-122524Y-61577D01*
X-122497Y-61614D01*
X-122451Y-61659D01*
X-122405Y-61724D01*
X-122359Y-61797D01*
X-122304Y-61870D01*
X-122204Y-62063D01*
X-122112Y-62273D01*
X-122084Y-62392D01*
X-122057Y-62521D01*
X-122039Y-62658D01*
X-122029Y-62795D01*
Y-62805D01*
Y-62814D01*
Y-62869D01*
X-122039Y-62951D01*
X-122048Y-63061D01*
X-122066Y-63189D01*
X-122094Y-63327D01*
X-122130Y-63473D01*
X-122185Y-63620D01*
X-122194Y-63638D01*
X-122213Y-63684D01*
X-122249Y-63766D01*
X-122304Y-63867D01*
X-122378Y-63986D01*
X-122460Y-64124D01*
X-122561Y-64279D01*
X-122680Y-64435D01*
X-122689Y-64444D01*
X-122726Y-64490D01*
X-122781Y-64554D01*
X-122863Y-64646D01*
X-122973Y-64756D01*
X-123110Y-64902D01*
X-123284Y-65058D01*
X-123486Y-65250D01*
X-123495Y-65259D01*
X-123513Y-65269D01*
X-123541Y-65296D01*
X-123578Y-65333D01*
X-123678Y-65424D01*
X-123797Y-65534D01*
X-123926Y-65653D01*
X-124045Y-65772D01*
X-124155Y-65873D01*
X-124191Y-65919D01*
X-124228Y-65956D01*
X-124237Y-65965D01*
X-124255Y-65983D01*
X-124283Y-66020D01*
X-124320Y-66066D01*
X-124402Y-66175D01*
X-124475Y-66294D01*
X-122029D01*
Y-67440D01*
X-126335D01*
Y-67430D01*
Y-67412D01*
X-126326Y-67375D01*
X-126316Y-67330D01*
X-126307Y-67275D01*
X-126298Y-67201D01*
X-126261Y-67046D01*
X-126207Y-66862D01*
X-126133Y-66652D01*
X-126042Y-66441D01*
X-125923Y-66221D01*
Y-66212D01*
X-125904Y-66194D01*
X-125886Y-66157D01*
X-125849Y-66111D01*
X-125813Y-66056D01*
X-125758Y-65983D01*
X-125694Y-65901D01*
X-125620Y-65809D01*
X-125529Y-65699D01*
X-125428Y-65589D01*
X-125318Y-65461D01*
X-125190Y-65324D01*
X-125052Y-65177D01*
X-124897Y-65021D01*
X-124723Y-64856D01*
X-124539Y-64682D01*
X-124530Y-64673D01*
X-124503Y-64646D01*
X-124466Y-64609D01*
X-124411Y-64554D01*
X-124338Y-64499D01*
X-124265Y-64426D01*
X-124100Y-64261D01*
X-123926Y-64087D01*
X-123761Y-63913D01*
X-123688Y-63840D01*
X-123623Y-63757D01*
X-123568Y-63693D01*
X-123523Y-63638D01*
X-123513Y-63620D01*
X-123486Y-63574D01*
X-123440Y-63501D01*
X-123394Y-63400D01*
X-123349Y-63281D01*
X-123303Y-63162D01*
X-123275Y-63024D01*
X-123266Y-62887D01*
Y-62878D01*
Y-62869D01*
Y-62823D01*
X-123275Y-62740D01*
X-123294Y-62649D01*
X-123321Y-62548D01*
X-123358Y-62447D01*
X-123413Y-62347D01*
X-123486Y-62255D01*
X-123495Y-62246D01*
X-123523Y-62218D01*
X-123578Y-62182D01*
X-123642Y-62136D01*
X-123733Y-62099D01*
X-123834Y-62063D01*
X-123962Y-62035D01*
X-124100Y-62026D01*
X-124164D01*
X-124228Y-62035D01*
X-124320Y-62053D01*
X-124411Y-62081D01*
X-124512Y-62127D01*
X-124613Y-62182D01*
X-124704Y-62264D01*
X-124713Y-62273D01*
X-124741Y-62310D01*
X-124777Y-62365D01*
X-124823Y-62447D01*
X-124869Y-62548D01*
X-124906Y-62685D01*
X-124942Y-62841D01*
X-124961Y-63024D01*
X-126188Y-62905D01*
Y-62896D01*
X-126179Y-62859D01*
Y-62814D01*
X-126161Y-62740D01*
X-126142Y-62658D01*
X-126124Y-62566D01*
X-126097Y-62456D01*
X-126069Y-62347D01*
X-125978Y-62108D01*
X-125858Y-61870D01*
X-125785Y-61751D01*
X-125703Y-61650D01*
X-125611Y-61550D01*
X-125510Y-61458D01*
X-125501Y-61449D01*
X-125483Y-61440D01*
X-125455Y-61412D01*
X-125410Y-61385D01*
X-125346Y-61357D01*
X-125281Y-61311D01*
X-125199Y-61275D01*
X-125117Y-61229D01*
X-125016Y-61192D01*
X-124906Y-61147D01*
X-124787Y-61110D01*
X-124659Y-61082D01*
X-124374Y-61027D01*
X-124219Y-61018D01*
X-124063Y-61009D01*
X-123971D01*
X-123907Y-61018D01*
D02*
G37*
G36*
X-126591Y-67440D02*
X-128002D01*
X-128551Y-65983D01*
X-131125D01*
X-131657Y-67440D01*
X-133022D01*
X-130530Y-61027D01*
X-129156D01*
X-126591Y-67440D01*
D02*
G37*
G36*
X-133205Y-62108D02*
X-135092D01*
Y-67440D01*
X-136383D01*
Y-62108D01*
X-138289D01*
Y-61027D01*
X-133205D01*
Y-62108D01*
D02*
G37*
G36*
X-94797Y-62704D02*
X-94705Y-62713D01*
X-94604Y-62731D01*
X-94485Y-62749D01*
X-94357Y-62777D01*
X-94229Y-62814D01*
X-94091Y-62859D01*
X-93945Y-62914D01*
X-93798Y-62988D01*
X-93652Y-63061D01*
X-93515Y-63153D01*
X-93377Y-63262D01*
X-93249Y-63382D01*
X-93240Y-63391D01*
X-93221Y-63409D01*
X-93185Y-63455D01*
X-93139Y-63501D01*
X-93093Y-63574D01*
X-93038Y-63656D01*
X-92974Y-63748D01*
X-92910Y-63858D01*
X-92846Y-63977D01*
X-92782Y-64105D01*
X-92727Y-64252D01*
X-92681Y-64398D01*
X-92635Y-64563D01*
X-92598Y-64737D01*
X-92580Y-64921D01*
X-92571Y-65113D01*
Y-65122D01*
Y-65159D01*
Y-65214D01*
X-92580Y-65287D01*
X-92589Y-65378D01*
X-92608Y-65479D01*
X-92626Y-65598D01*
X-92653Y-65717D01*
X-92690Y-65855D01*
X-92736Y-65992D01*
X-92791Y-66139D01*
X-92864Y-66285D01*
X-92937Y-66432D01*
X-93029Y-66578D01*
X-93139Y-66716D01*
X-93258Y-66853D01*
X-93267Y-66862D01*
X-93286Y-66881D01*
X-93331Y-66917D01*
X-93377Y-66963D01*
X-93450Y-67009D01*
X-93524Y-67073D01*
X-93624Y-67128D01*
X-93725Y-67192D01*
X-93844Y-67256D01*
X-93972Y-67320D01*
X-94119Y-67384D01*
X-94266Y-67430D01*
X-94431Y-67476D01*
X-94595Y-67513D01*
X-94779Y-67531D01*
X-94971Y-67540D01*
X-95035D01*
X-95081Y-67531D01*
X-95136D01*
X-95200Y-67522D01*
X-95356Y-67504D01*
X-95548Y-67467D01*
X-95749Y-67421D01*
X-95969Y-67348D01*
X-96189Y-67256D01*
X-96198D01*
X-96217Y-67247D01*
X-96244Y-67229D01*
X-96281Y-67201D01*
X-96391Y-67137D01*
X-96519Y-67046D01*
X-96656Y-66926D01*
X-96803Y-66780D01*
X-96940Y-66606D01*
X-97069Y-66413D01*
Y-66404D01*
X-97078Y-66386D01*
X-97096Y-66359D01*
X-97114Y-66313D01*
X-97133Y-66258D01*
X-97160Y-66194D01*
X-97188Y-66120D01*
X-97215Y-66038D01*
X-97243Y-65937D01*
X-97270Y-65837D01*
X-97316Y-65608D01*
X-97352Y-65342D01*
X-97362Y-65058D01*
Y-65049D01*
Y-65030D01*
Y-64994D01*
X-97352Y-64957D01*
Y-64902D01*
X-97343Y-64829D01*
X-97325Y-64682D01*
X-97288Y-64499D01*
X-97233Y-64298D01*
X-97169Y-64087D01*
X-97069Y-63876D01*
Y-63867D01*
X-97050Y-63849D01*
X-97041Y-63821D01*
X-97014Y-63785D01*
X-96940Y-63675D01*
X-96849Y-63547D01*
X-96730Y-63409D01*
X-96583Y-63262D01*
X-96409Y-63125D01*
X-96217Y-62997D01*
X-96207D01*
X-96189Y-62988D01*
X-96162Y-62969D01*
X-96116Y-62951D01*
X-96070Y-62924D01*
X-96006Y-62905D01*
X-95933Y-62878D01*
X-95850Y-62841D01*
X-95667Y-62786D01*
X-95456Y-62740D01*
X-95218Y-62704D01*
X-94971Y-62695D01*
X-94870D01*
X-94797Y-62704D01*
D02*
G37*
G36*
X-118970Y-61018D02*
X-118897Y-61027D01*
X-118805Y-61046D01*
X-118704Y-61064D01*
X-118595Y-61092D01*
X-118485Y-61128D01*
X-118366Y-61174D01*
X-118246Y-61229D01*
X-118127Y-61293D01*
X-118008Y-61366D01*
X-117889Y-61458D01*
X-117779Y-61559D01*
X-117678Y-61678D01*
X-117669Y-61687D01*
X-117651Y-61715D01*
X-117624Y-61760D01*
X-117578Y-61834D01*
X-117532Y-61916D01*
X-117477Y-62026D01*
X-117422Y-62154D01*
X-117358Y-62301D01*
X-117303Y-62466D01*
X-117248Y-62658D01*
X-117193Y-62878D01*
X-117147Y-63107D01*
X-117102Y-63372D01*
X-117074Y-63656D01*
X-117056Y-63959D01*
X-117046Y-64288D01*
Y-64298D01*
Y-64307D01*
Y-64334D01*
Y-64371D01*
Y-64463D01*
X-117056Y-64582D01*
X-117065Y-64737D01*
X-117083Y-64911D01*
X-117102Y-65095D01*
X-117129Y-65296D01*
X-117156Y-65516D01*
X-117202Y-65727D01*
X-117248Y-65946D01*
X-117312Y-66166D01*
X-117385Y-66368D01*
X-117468Y-66569D01*
X-117569Y-66743D01*
X-117678Y-66908D01*
X-117688Y-66917D01*
X-117706Y-66936D01*
X-117734Y-66972D01*
X-117770Y-67009D01*
X-117825Y-67055D01*
X-117889Y-67110D01*
X-117972Y-67174D01*
X-118054Y-67229D01*
X-118155Y-67293D01*
X-118265Y-67357D01*
X-118384Y-67412D01*
X-118512Y-67458D01*
X-118649Y-67494D01*
X-118796Y-67531D01*
X-118961Y-67549D01*
X-119126Y-67559D01*
X-119172D01*
X-119217Y-67549D01*
X-119281D01*
X-119364Y-67540D01*
X-119456Y-67522D01*
X-119556Y-67494D01*
X-119666Y-67467D01*
X-119785Y-67430D01*
X-119914Y-67384D01*
X-120033Y-67330D01*
X-120161Y-67256D01*
X-120289Y-67174D01*
X-120408Y-67082D01*
X-120527Y-66972D01*
X-120637Y-66844D01*
X-120646Y-66835D01*
X-120665Y-66807D01*
X-120692Y-66762D01*
X-120729Y-66698D01*
X-120765Y-66624D01*
X-120820Y-66514D01*
X-120866Y-66395D01*
X-120921Y-66249D01*
X-120976Y-66084D01*
X-121022Y-65901D01*
X-121077Y-65690D01*
X-121114Y-65461D01*
X-121150Y-65195D01*
X-121178Y-64921D01*
X-121196Y-64609D01*
X-121205Y-64279D01*
Y-64270D01*
Y-64261D01*
Y-64233D01*
Y-64197D01*
Y-64105D01*
X-121196Y-63986D01*
X-121187Y-63830D01*
X-121168Y-63666D01*
X-121150Y-63473D01*
X-121123Y-63272D01*
X-121095Y-63061D01*
X-121049Y-62841D01*
X-121004Y-62630D01*
X-120940Y-62411D01*
X-120866Y-62209D01*
X-120784Y-62008D01*
X-120692Y-61834D01*
X-120582Y-61669D01*
X-120573Y-61659D01*
X-120555Y-61641D01*
X-120527Y-61605D01*
X-120482Y-61568D01*
X-120436Y-61513D01*
X-120372Y-61458D01*
X-120289Y-61403D01*
X-120207Y-61339D01*
X-120106Y-61275D01*
X-119996Y-61220D01*
X-119877Y-61165D01*
X-119749Y-61110D01*
X-119611Y-61073D01*
X-119456Y-61037D01*
X-119300Y-61018D01*
X-119126Y-61009D01*
X-119034D01*
X-118970Y-61018D01*
D02*
G37*
G36*
X-94759Y37817D02*
X-95249D01*
Y38271D01*
X-94759D01*
Y37817D01*
D02*
G37*
G36*
X-90949Y37602D02*
X-90908Y37598D01*
X-90864Y37591D01*
X-90817Y37580D01*
X-90766Y37565D01*
X-90714Y37547D01*
X-90707Y37543D01*
X-90693Y37536D01*
X-90667Y37525D01*
X-90638Y37506D01*
X-90605Y37484D01*
X-90572Y37459D01*
X-90539Y37429D01*
X-90509Y37397D01*
X-90506Y37393D01*
X-90499Y37382D01*
X-90487Y37360D01*
X-90473Y37338D01*
X-90455Y37305D01*
X-90440Y37268D01*
X-90425Y37232D01*
X-90414Y37188D01*
Y37184D01*
X-90411Y37166D01*
X-90403Y37140D01*
X-90400Y37104D01*
X-90392Y37056D01*
X-90389Y37001D01*
X-90385Y36935D01*
Y36858D01*
Y35709D01*
X-90876D01*
Y36654D01*
Y36657D01*
Y36668D01*
Y36683D01*
Y36701D01*
Y36727D01*
Y36752D01*
X-90879Y36815D01*
X-90883Y36880D01*
X-90890Y36943D01*
X-90897Y37001D01*
X-90901Y37023D01*
X-90908Y37042D01*
Y37045D01*
X-90916Y37056D01*
X-90923Y37071D01*
X-90934Y37093D01*
X-90967Y37137D01*
X-90985Y37159D01*
X-91011Y37177D01*
X-91015Y37181D01*
X-91022Y37184D01*
X-91036Y37192D01*
X-91058Y37203D01*
X-91084Y37214D01*
X-91110Y37221D01*
X-91143Y37225D01*
X-91179Y37228D01*
X-91201D01*
X-91227Y37225D01*
X-91256Y37221D01*
X-91293Y37210D01*
X-91329Y37199D01*
X-91370Y37181D01*
X-91410Y37155D01*
X-91413Y37151D01*
X-91425Y37144D01*
X-91443Y37126D01*
X-91465Y37107D01*
X-91487Y37078D01*
X-91509Y37049D01*
X-91531Y37009D01*
X-91545Y36968D01*
Y36965D01*
X-91553Y36946D01*
X-91556Y36917D01*
X-91564Y36873D01*
X-91567Y36848D01*
X-91571Y36815D01*
X-91575Y36782D01*
Y36741D01*
X-91578Y36701D01*
X-91582Y36654D01*
Y36602D01*
Y36547D01*
Y35709D01*
X-92072D01*
Y37565D01*
X-91615D01*
Y37290D01*
X-91611Y37294D01*
X-91604Y37305D01*
X-91589Y37320D01*
X-91571Y37338D01*
X-91549Y37364D01*
X-91520Y37389D01*
X-91487Y37418D01*
X-91446Y37448D01*
X-91406Y37477D01*
X-91359Y37506D01*
X-91311Y37532D01*
X-91256Y37558D01*
X-91198Y37576D01*
X-91139Y37591D01*
X-91073Y37602D01*
X-91007Y37605D01*
X-90982D01*
X-90949Y37602D01*
D02*
G37*
G36*
X-97544D02*
X-97518Y37598D01*
X-97485Y37591D01*
X-97449Y37583D01*
X-97409Y37572D01*
X-97368Y37561D01*
X-97324Y37543D01*
X-97277Y37521D01*
X-97233Y37499D01*
X-97185Y37466D01*
X-97138Y37433D01*
X-97094Y37393D01*
X-97050Y37349D01*
X-97046Y37345D01*
X-97039Y37338D01*
X-97028Y37323D01*
X-97013Y37301D01*
X-96999Y37276D01*
X-96977Y37247D01*
X-96958Y37210D01*
X-96936Y37166D01*
X-96914Y37118D01*
X-96896Y37067D01*
X-96874Y37009D01*
X-96860Y36946D01*
X-96845Y36877D01*
X-96834Y36807D01*
X-96827Y36727D01*
X-96823Y36646D01*
Y36643D01*
Y36624D01*
Y36602D01*
X-96827Y36569D01*
X-96830Y36529D01*
X-96834Y36485D01*
X-96841Y36438D01*
X-96852Y36383D01*
X-96878Y36266D01*
X-96896Y36207D01*
X-96922Y36145D01*
X-96947Y36086D01*
X-96977Y36031D01*
X-97013Y35976D01*
X-97054Y35925D01*
X-97057Y35922D01*
X-97065Y35914D01*
X-97075Y35903D01*
X-97094Y35885D01*
X-97116Y35867D01*
X-97141Y35845D01*
X-97174Y35823D01*
X-97207Y35797D01*
X-97244Y35775D01*
X-97288Y35750D01*
X-97379Y35709D01*
X-97430Y35691D01*
X-97485Y35680D01*
X-97544Y35673D01*
X-97603Y35669D01*
X-97628D01*
X-97658Y35673D01*
X-97694Y35676D01*
X-97738Y35684D01*
X-97786Y35695D01*
X-97837Y35709D01*
X-97884Y35728D01*
X-97892Y35731D01*
X-97906Y35739D01*
X-97932Y35757D01*
X-97965Y35779D01*
X-98001Y35805D01*
X-98045Y35841D01*
X-98093Y35885D01*
X-98144Y35936D01*
Y34999D01*
X-98635D01*
Y37565D01*
X-98177D01*
Y37290D01*
X-98173Y37298D01*
X-98163Y37312D01*
X-98141Y37338D01*
X-98115Y37371D01*
X-98082Y37407D01*
X-98038Y37444D01*
X-97994Y37481D01*
X-97939Y37517D01*
X-97932Y37521D01*
X-97914Y37532D01*
X-97881Y37547D01*
X-97840Y37561D01*
X-97789Y37576D01*
X-97731Y37591D01*
X-97668Y37602D01*
X-97599Y37605D01*
X-97566D01*
X-97544Y37602D01*
D02*
G37*
G36*
X-87410Y35709D02*
X-87900D01*
Y38271D01*
X-87410D01*
Y35709D01*
D02*
G37*
G36*
X-89078Y37602D02*
X-89046D01*
X-88976Y37594D01*
X-88895Y37587D01*
X-88815Y37572D01*
X-88738Y37550D01*
X-88705Y37539D01*
X-88672Y37525D01*
X-88669D01*
X-88665Y37521D01*
X-88647Y37510D01*
X-88617Y37495D01*
X-88584Y37470D01*
X-88544Y37444D01*
X-88507Y37407D01*
X-88475Y37371D01*
X-88445Y37327D01*
X-88442Y37320D01*
X-88434Y37305D01*
X-88423Y37272D01*
X-88420Y37254D01*
X-88412Y37228D01*
X-88405Y37199D01*
X-88401Y37170D01*
X-88394Y37133D01*
X-88390Y37093D01*
X-88387Y37049D01*
X-88383Y36998D01*
X-88379Y36946D01*
Y36888D01*
X-88387Y36317D01*
Y36313D01*
Y36306D01*
Y36295D01*
Y36277D01*
Y36233D01*
X-88383Y36181D01*
Y36119D01*
X-88376Y36061D01*
X-88372Y36002D01*
X-88365Y35954D01*
Y35951D01*
X-88361Y35936D01*
X-88354Y35911D01*
X-88343Y35881D01*
X-88332Y35845D01*
X-88314Y35805D01*
X-88295Y35757D01*
X-88273Y35709D01*
X-88760D01*
Y35713D01*
X-88764Y35717D01*
X-88767Y35731D01*
X-88775Y35746D01*
X-88782Y35764D01*
X-88789Y35790D01*
X-88797Y35819D01*
X-88808Y35852D01*
Y35856D01*
X-88811Y35859D01*
X-88815Y35878D01*
X-88822Y35896D01*
X-88826Y35911D01*
X-88833Y35907D01*
X-88848Y35892D01*
X-88873Y35870D01*
X-88906Y35841D01*
X-88947Y35812D01*
X-88991Y35783D01*
X-89042Y35753D01*
X-89093Y35728D01*
X-89100Y35724D01*
X-89119Y35720D01*
X-89148Y35709D01*
X-89185Y35698D01*
X-89232Y35687D01*
X-89283Y35680D01*
X-89338Y35673D01*
X-89401Y35669D01*
X-89426D01*
X-89448Y35673D01*
X-89470D01*
X-89499Y35676D01*
X-89565Y35687D01*
X-89635Y35706D01*
X-89712Y35735D01*
X-89785Y35772D01*
X-89851Y35823D01*
Y35826D01*
X-89858Y35830D01*
X-89876Y35852D01*
X-89902Y35885D01*
X-89931Y35929D01*
X-89960Y35987D01*
X-89986Y36053D01*
X-90004Y36130D01*
X-90008Y36170D01*
X-90012Y36214D01*
Y36218D01*
Y36222D01*
Y36240D01*
X-90008Y36269D01*
X-90001Y36309D01*
X-89993Y36350D01*
X-89982Y36397D01*
X-89964Y36445D01*
X-89938Y36492D01*
X-89935Y36500D01*
X-89924Y36514D01*
X-89909Y36536D01*
X-89884Y36562D01*
X-89854Y36591D01*
X-89818Y36624D01*
X-89777Y36654D01*
X-89730Y36679D01*
X-89723Y36683D01*
X-89704Y36690D01*
X-89675Y36701D01*
X-89631Y36720D01*
X-89576Y36738D01*
X-89507Y36756D01*
X-89430Y36778D01*
X-89338Y36796D01*
X-89335D01*
X-89324Y36800D01*
X-89305Y36804D01*
X-89283Y36807D01*
X-89254Y36811D01*
X-89225Y36818D01*
X-89152Y36837D01*
X-89071Y36855D01*
X-88994Y36873D01*
X-88921Y36895D01*
X-88892Y36906D01*
X-88863Y36917D01*
Y36965D01*
Y36972D01*
Y36987D01*
X-88866Y37012D01*
X-88870Y37045D01*
X-88881Y37078D01*
X-88892Y37111D01*
X-88910Y37140D01*
X-88936Y37166D01*
X-88939Y37170D01*
X-88950Y37177D01*
X-88969Y37184D01*
X-88994Y37199D01*
X-89031Y37210D01*
X-89075Y37217D01*
X-89130Y37225D01*
X-89196Y37228D01*
X-89218D01*
X-89240Y37225D01*
X-89269Y37221D01*
X-89302Y37214D01*
X-89338Y37206D01*
X-89371Y37192D01*
X-89401Y37173D01*
X-89404Y37170D01*
X-89411Y37162D01*
X-89426Y37151D01*
X-89441Y37133D01*
X-89463Y37107D01*
X-89481Y37075D01*
X-89499Y37038D01*
X-89518Y36994D01*
X-89960Y37075D01*
Y37078D01*
X-89957Y37085D01*
X-89953Y37100D01*
X-89946Y37118D01*
X-89938Y37140D01*
X-89928Y37166D01*
X-89902Y37225D01*
X-89865Y37290D01*
X-89821Y37356D01*
X-89767Y37418D01*
X-89704Y37473D01*
X-89701D01*
X-89697Y37481D01*
X-89686Y37484D01*
X-89671Y37495D01*
X-89649Y37503D01*
X-89627Y37514D01*
X-89598Y37528D01*
X-89569Y37539D01*
X-89532Y37550D01*
X-89492Y37565D01*
X-89444Y37576D01*
X-89397Y37583D01*
X-89342Y37594D01*
X-89287Y37598D01*
X-89225Y37605D01*
X-89104D01*
X-89078Y37602D01*
D02*
G37*
G36*
X-94759Y35709D02*
X-95249D01*
Y37565D01*
X-94759D01*
Y35709D01*
D02*
G37*
G36*
X-93346Y37602D02*
X-93309Y37598D01*
X-93269Y37591D01*
X-93221Y37583D01*
X-93170Y37572D01*
X-93119Y37558D01*
X-93064Y37539D01*
X-93006Y37517D01*
X-92947Y37488D01*
X-92888Y37459D01*
X-92834Y37422D01*
X-92779Y37378D01*
X-92727Y37331D01*
X-92724Y37327D01*
X-92716Y37320D01*
X-92702Y37301D01*
X-92684Y37283D01*
X-92665Y37254D01*
X-92643Y37221D01*
X-92618Y37184D01*
X-92592Y37140D01*
X-92566Y37093D01*
X-92541Y37042D01*
X-92519Y36983D01*
X-92501Y36924D01*
X-92482Y36858D01*
X-92468Y36789D01*
X-92460Y36716D01*
X-92457Y36639D01*
Y36635D01*
Y36621D01*
Y36599D01*
X-92460Y36569D01*
X-92464Y36533D01*
X-92471Y36492D01*
X-92479Y36445D01*
X-92489Y36397D01*
X-92504Y36342D01*
X-92523Y36288D01*
X-92544Y36229D01*
X-92574Y36170D01*
X-92603Y36112D01*
X-92640Y36053D01*
X-92684Y35998D01*
X-92731Y35943D01*
X-92735Y35940D01*
X-92742Y35932D01*
X-92760Y35918D01*
X-92779Y35900D01*
X-92808Y35881D01*
X-92837Y35856D01*
X-92878Y35834D01*
X-92918Y35808D01*
X-92965Y35783D01*
X-93017Y35757D01*
X-93075Y35731D01*
X-93134Y35713D01*
X-93200Y35695D01*
X-93265Y35680D01*
X-93339Y35673D01*
X-93415Y35669D01*
X-93441D01*
X-93459Y35673D01*
X-93481D01*
X-93507Y35676D01*
X-93569Y35684D01*
X-93646Y35698D01*
X-93727Y35717D01*
X-93814Y35746D01*
X-93902Y35783D01*
X-93906D01*
X-93913Y35786D01*
X-93924Y35794D01*
X-93939Y35805D01*
X-93983Y35830D01*
X-94034Y35867D01*
X-94089Y35914D01*
X-94147Y35973D01*
X-94202Y36042D01*
X-94254Y36119D01*
Y36123D01*
X-94257Y36130D01*
X-94265Y36141D01*
X-94272Y36160D01*
X-94279Y36181D01*
X-94290Y36207D01*
X-94301Y36236D01*
X-94312Y36269D01*
X-94323Y36309D01*
X-94334Y36350D01*
X-94353Y36441D01*
X-94367Y36547D01*
X-94371Y36661D01*
Y36665D01*
Y36672D01*
Y36687D01*
X-94367Y36701D01*
Y36723D01*
X-94363Y36752D01*
X-94356Y36811D01*
X-94341Y36884D01*
X-94319Y36965D01*
X-94294Y37049D01*
X-94254Y37133D01*
Y37137D01*
X-94246Y37144D01*
X-94243Y37155D01*
X-94232Y37170D01*
X-94202Y37214D01*
X-94166Y37265D01*
X-94118Y37320D01*
X-94060Y37378D01*
X-93990Y37433D01*
X-93913Y37484D01*
X-93910D01*
X-93902Y37488D01*
X-93891Y37495D01*
X-93873Y37503D01*
X-93855Y37514D01*
X-93829Y37521D01*
X-93800Y37532D01*
X-93767Y37547D01*
X-93694Y37569D01*
X-93609Y37587D01*
X-93514Y37602D01*
X-93415Y37605D01*
X-93375D01*
X-93346Y37602D01*
D02*
G37*
G36*
X-95919Y37565D02*
X-95582D01*
Y37173D01*
X-95919D01*
Y36423D01*
Y36419D01*
Y36412D01*
Y36401D01*
Y36386D01*
Y36350D01*
Y36306D01*
X-95915Y36258D01*
Y36218D01*
Y36181D01*
X-95912Y36167D01*
Y36160D01*
X-95908Y36152D01*
X-95901Y36138D01*
X-95890Y36119D01*
X-95868Y36097D01*
X-95860Y36094D01*
X-95846Y36086D01*
X-95816Y36079D01*
X-95784Y36075D01*
X-95769D01*
X-95754Y36079D01*
X-95732Y36083D01*
X-95703Y36086D01*
X-95670Y36094D01*
X-95630Y36105D01*
X-95586Y36119D01*
X-95542Y35742D01*
X-95546D01*
X-95549Y35739D01*
X-95571Y35731D01*
X-95608Y35720D01*
X-95655Y35706D01*
X-95714Y35691D01*
X-95780Y35680D01*
X-95849Y35673D01*
X-95930Y35669D01*
X-95952D01*
X-95977Y35673D01*
X-96011Y35676D01*
X-96047Y35680D01*
X-96087Y35687D01*
X-96131Y35698D01*
X-96171Y35713D01*
X-96175Y35717D01*
X-96190Y35720D01*
X-96208Y35731D01*
X-96230Y35742D01*
X-96281Y35779D01*
X-96307Y35801D01*
X-96329Y35826D01*
X-96333Y35830D01*
X-96336Y35841D01*
X-96343Y35856D01*
X-96355Y35878D01*
X-96365Y35903D01*
X-96377Y35936D01*
X-96387Y35973D01*
X-96395Y36017D01*
Y36020D01*
X-96398Y36035D01*
Y36057D01*
X-96402Y36094D01*
X-96406Y36141D01*
Y36200D01*
X-96409Y36236D01*
Y36277D01*
Y36317D01*
Y36364D01*
Y37173D01*
X-96636D01*
Y37565D01*
X-96409D01*
Y37935D01*
X-95919Y38224D01*
Y37565D01*
D02*
G37*
G36*
X-100212Y38308D02*
X-100172D01*
X-100124Y38301D01*
X-100069Y38293D01*
X-100007Y38282D01*
X-99941Y38268D01*
X-99868Y38249D01*
X-99795Y38227D01*
X-99722Y38198D01*
X-99645Y38165D01*
X-99568Y38125D01*
X-99495Y38077D01*
X-99425Y38022D01*
X-99359Y37960D01*
X-99356Y37957D01*
X-99345Y37946D01*
X-99326Y37924D01*
X-99304Y37894D01*
X-99279Y37861D01*
X-99253Y37817D01*
X-99220Y37766D01*
X-99187Y37708D01*
X-99158Y37642D01*
X-99125Y37569D01*
X-99099Y37488D01*
X-99070Y37400D01*
X-99052Y37305D01*
X-99034Y37206D01*
X-99023Y37096D01*
X-99019Y36983D01*
Y36976D01*
Y36957D01*
X-99023Y36924D01*
Y36880D01*
X-99030Y36829D01*
X-99037Y36767D01*
X-99048Y36701D01*
X-99063Y36628D01*
X-99081Y36551D01*
X-99103Y36471D01*
X-99129Y36390D01*
X-99162Y36309D01*
X-99202Y36229D01*
X-99246Y36152D01*
X-99301Y36079D01*
X-99359Y36009D01*
X-99363Y36006D01*
X-99374Y35995D01*
X-99392Y35976D01*
X-99422Y35954D01*
X-99454Y35929D01*
X-99495Y35900D01*
X-99542Y35867D01*
X-99597Y35837D01*
X-99660Y35805D01*
X-99725Y35772D01*
X-99802Y35742D01*
X-99883Y35717D01*
X-99967Y35695D01*
X-100058Y35676D01*
X-100157Y35665D01*
X-100260Y35662D01*
X-100285D01*
X-100315Y35665D01*
X-100355Y35669D01*
X-100402Y35673D01*
X-100457Y35680D01*
X-100520Y35691D01*
X-100585Y35706D01*
X-100659Y35724D01*
X-100732Y35746D01*
X-100809Y35775D01*
X-100882Y35808D01*
X-100959Y35848D01*
X-101032Y35896D01*
X-101102Y35947D01*
X-101167Y36009D01*
X-101171Y36013D01*
X-101182Y36024D01*
X-101197Y36046D01*
X-101219Y36072D01*
X-101244Y36108D01*
X-101274Y36152D01*
X-101303Y36203D01*
X-101336Y36258D01*
X-101369Y36324D01*
X-101398Y36397D01*
X-101427Y36474D01*
X-101453Y36562D01*
X-101471Y36654D01*
X-101489Y36752D01*
X-101500Y36858D01*
X-101504Y36968D01*
Y36972D01*
Y36987D01*
Y37005D01*
X-101500Y37034D01*
Y37067D01*
X-101497Y37107D01*
X-101493Y37151D01*
X-101489Y37199D01*
X-101475Y37301D01*
X-101453Y37411D01*
X-101427Y37521D01*
X-101387Y37627D01*
Y37631D01*
X-101383Y37634D01*
X-101380Y37645D01*
X-101372Y37660D01*
X-101354Y37697D01*
X-101325Y37744D01*
X-101292Y37799D01*
X-101252Y37854D01*
X-101204Y37916D01*
X-101153Y37975D01*
X-101149Y37979D01*
X-101145Y37982D01*
X-101127Y38001D01*
X-101094Y38030D01*
X-101054Y38063D01*
X-101003Y38103D01*
X-100948Y38140D01*
X-100886Y38176D01*
X-100820Y38209D01*
X-100816D01*
X-100809Y38213D01*
X-100794Y38220D01*
X-100776Y38224D01*
X-100754Y38235D01*
X-100728Y38242D01*
X-100695Y38249D01*
X-100659Y38260D01*
X-100578Y38279D01*
X-100483Y38297D01*
X-100381Y38308D01*
X-100267Y38311D01*
X-100241D01*
X-100212Y38308D01*
D02*
G37*
G36*
X-72832Y34033D02*
X-73322Y34033D01*
Y34487D01*
X-72832Y34487D01*
Y34033D01*
D02*
G37*
G36*
X-85744Y34033D02*
X-86235D01*
Y34487D01*
X-85744D01*
Y34033D01*
D02*
G37*
G36*
X-92098D02*
X-92588D01*
Y34487D01*
X-92098D01*
Y34033D01*
D02*
G37*
G36*
X-93613Y33817D02*
X-93566Y33810D01*
X-93511Y33799D01*
X-93452Y33784D01*
X-93394Y33766D01*
X-93339Y33737D01*
X-93331Y33733D01*
X-93317Y33722D01*
X-93291Y33700D01*
X-93258Y33674D01*
X-93225Y33641D01*
X-93189Y33597D01*
X-93156Y33550D01*
X-93126Y33491D01*
X-93123Y33488D01*
X-93119Y33469D01*
X-93112Y33440D01*
X-93101Y33400D01*
X-93090Y33345D01*
X-93082Y33279D01*
X-93079Y33202D01*
X-93075Y33107D01*
Y31925D01*
X-93566D01*
Y32983D01*
Y32986D01*
Y32994D01*
Y33008D01*
Y33026D01*
Y33048D01*
X-93569Y33074D01*
X-93573Y33129D01*
X-93577Y33191D01*
X-93587Y33250D01*
X-93599Y33301D01*
X-93609Y33319D01*
X-93617Y33338D01*
X-93621Y33341D01*
X-93632Y33356D01*
X-93646Y33371D01*
X-93668Y33393D01*
X-93697Y33411D01*
X-93734Y33429D01*
X-93778Y33440D01*
X-93829Y33444D01*
X-93847D01*
X-93866Y33440D01*
X-93891Y33436D01*
X-93921Y33429D01*
X-93954Y33415D01*
X-93990Y33400D01*
X-94023Y33378D01*
X-94027Y33374D01*
X-94038Y33367D01*
X-94052Y33352D01*
X-94074Y33330D01*
X-94096Y33305D01*
X-94118Y33275D01*
X-94137Y33239D01*
X-94155Y33195D01*
Y33187D01*
X-94162Y33173D01*
X-94166Y33144D01*
X-94173Y33103D01*
X-94181Y33048D01*
X-94184Y32983D01*
X-94191Y32906D01*
Y32814D01*
Y31925D01*
X-94682D01*
Y32939D01*
Y32942D01*
Y32950D01*
Y32964D01*
Y32983D01*
Y33030D01*
X-94686Y33085D01*
X-94689Y33144D01*
X-94693Y33198D01*
X-94700Y33250D01*
X-94708Y33272D01*
X-94711Y33286D01*
Y33290D01*
X-94715Y33301D01*
X-94722Y33316D01*
X-94730Y33330D01*
X-94755Y33371D01*
X-94773Y33389D01*
X-94792Y33404D01*
X-94795Y33407D01*
X-94803Y33411D01*
X-94814Y33418D01*
X-94832Y33426D01*
X-94854Y33433D01*
X-94880Y33436D01*
X-94909Y33444D01*
X-94960D01*
X-94982Y33440D01*
X-95011Y33436D01*
X-95041Y33429D01*
X-95077Y33418D01*
X-95110Y33404D01*
X-95147Y33382D01*
X-95150Y33378D01*
X-95161Y33371D01*
X-95176Y33356D01*
X-95194Y33338D01*
X-95216Y33312D01*
X-95238Y33279D01*
X-95257Y33242D01*
X-95275Y33202D01*
Y33198D01*
X-95282Y33180D01*
X-95286Y33151D01*
X-95293Y33111D01*
X-95300Y33059D01*
X-95304Y32994D01*
X-95311Y32913D01*
Y32822D01*
Y31925D01*
X-95802D01*
Y33781D01*
X-95348D01*
Y33524D01*
X-95344Y33528D01*
X-95337Y33539D01*
X-95322Y33554D01*
X-95304Y33572D01*
X-95282Y33594D01*
X-95253Y33619D01*
X-95224Y33645D01*
X-95187Y33674D01*
X-95147Y33700D01*
X-95103Y33726D01*
X-95004Y33773D01*
X-94949Y33795D01*
X-94894Y33810D01*
X-94836Y33817D01*
X-94773Y33821D01*
X-94744D01*
X-94711Y33817D01*
X-94667Y33810D01*
X-94620Y33802D01*
X-94568Y33788D01*
X-94517Y33770D01*
X-94466Y33744D01*
X-94459Y33740D01*
X-94444Y33729D01*
X-94418Y33715D01*
X-94389Y33689D01*
X-94356Y33660D01*
X-94319Y33619D01*
X-94283Y33575D01*
X-94250Y33524D01*
X-94243Y33532D01*
X-94228Y33550D01*
X-94202Y33575D01*
X-94173Y33608D01*
X-94133Y33641D01*
X-94089Y33678D01*
X-94038Y33715D01*
X-93986Y33744D01*
X-93979Y33748D01*
X-93961Y33755D01*
X-93932Y33770D01*
X-93895Y33784D01*
X-93851Y33795D01*
X-93800Y33810D01*
X-93745Y33817D01*
X-93686Y33821D01*
X-93653D01*
X-93613Y33817D01*
D02*
G37*
G36*
X-66046Y33817D02*
X-66006Y33810D01*
X-65958Y33799D01*
X-65903Y33781D01*
X-65845Y33759D01*
X-65786Y33726D01*
X-65940Y33301D01*
X-65944Y33305D01*
X-65962Y33312D01*
X-65984Y33327D01*
X-66017Y33341D01*
X-66050Y33356D01*
X-66090Y33371D01*
X-66130Y33378D01*
X-66171Y33382D01*
X-66189D01*
X-66207Y33378D01*
X-66229Y33374D01*
X-66258Y33367D01*
X-66288Y33356D01*
X-66317Y33341D01*
X-66346Y33323D01*
X-66350Y33319D01*
X-66357Y33312D01*
X-66372Y33297D01*
X-66386Y33275D01*
X-66405Y33246D01*
X-66423Y33209D01*
X-66441Y33166D01*
X-66456Y33114D01*
Y33107D01*
X-66460Y33096D01*
X-66463Y33085D01*
X-66467Y33067D01*
Y33045D01*
X-66471Y33015D01*
X-66474Y32983D01*
X-66478Y32942D01*
X-66482Y32898D01*
X-66485Y32847D01*
X-66489Y32792D01*
X-66493Y32730D01*
Y32657D01*
X-66496Y32580D01*
Y32496D01*
Y31925D01*
X-66987D01*
Y33781D01*
X-66529D01*
Y33517D01*
X-66526Y33521D01*
X-66511Y33543D01*
X-66489Y33575D01*
X-66460Y33616D01*
X-66430Y33656D01*
X-66394Y33700D01*
X-66361Y33737D01*
X-66324Y33762D01*
X-66321Y33766D01*
X-66306Y33773D01*
X-66288Y33781D01*
X-66262Y33792D01*
X-66229Y33802D01*
X-66192Y33813D01*
X-66152Y33817D01*
X-66108Y33821D01*
X-66079D01*
X-66046Y33817D01*
D02*
G37*
G36*
X-96237Y33817D02*
X-96197Y33810D01*
X-96149Y33799D01*
X-96095Y33781D01*
X-96036Y33759D01*
X-95977Y33726D01*
X-96131Y33301D01*
X-96135Y33305D01*
X-96153Y33312D01*
X-96175Y33327D01*
X-96208Y33341D01*
X-96241Y33356D01*
X-96281Y33371D01*
X-96322Y33378D01*
X-96362Y33382D01*
X-96380D01*
X-96398Y33378D01*
X-96420Y33374D01*
X-96450Y33367D01*
X-96479Y33356D01*
X-96508Y33341D01*
X-96538Y33323D01*
X-96541Y33319D01*
X-96548Y33312D01*
X-96563Y33297D01*
X-96578Y33275D01*
X-96596Y33246D01*
X-96614Y33209D01*
X-96633Y33166D01*
X-96647Y33114D01*
Y33107D01*
X-96651Y33096D01*
X-96655Y33085D01*
X-96658Y33067D01*
Y33045D01*
X-96662Y33015D01*
X-96666Y32983D01*
X-96669Y32942D01*
X-96673Y32898D01*
X-96677Y32847D01*
X-96680Y32792D01*
X-96684Y32730D01*
Y32657D01*
X-96688Y32580D01*
Y32496D01*
Y31925D01*
X-97178D01*
Y33781D01*
X-96720D01*
Y33517D01*
X-96717Y33521D01*
X-96702Y33543D01*
X-96680Y33575D01*
X-96651Y33616D01*
X-96622Y33656D01*
X-96585Y33700D01*
X-96552Y33737D01*
X-96516Y33762D01*
X-96512Y33766D01*
X-96497Y33773D01*
X-96479Y33781D01*
X-96453Y33791D01*
X-96420Y33802D01*
X-96384Y33813D01*
X-96343Y33817D01*
X-96300Y33821D01*
X-96270D01*
X-96237Y33817D01*
D02*
G37*
G36*
X-81934D02*
X-81894Y33813D01*
X-81850Y33806D01*
X-81802Y33795D01*
X-81751Y33781D01*
X-81700Y33762D01*
X-81692Y33759D01*
X-81678Y33751D01*
X-81652Y33740D01*
X-81623Y33722D01*
X-81590Y33700D01*
X-81557Y33674D01*
X-81524Y33645D01*
X-81495Y33612D01*
X-81491Y33608D01*
X-81484Y33597D01*
X-81473Y33575D01*
X-81458Y33554D01*
X-81440Y33521D01*
X-81425Y33484D01*
X-81411Y33447D01*
X-81400Y33404D01*
Y33400D01*
X-81396Y33382D01*
X-81389Y33356D01*
X-81385Y33319D01*
X-81378Y33272D01*
X-81374Y33217D01*
X-81371Y33151D01*
Y33074D01*
Y31925D01*
X-81861D01*
Y32869D01*
Y32873D01*
Y32884D01*
Y32898D01*
Y32917D01*
Y32942D01*
Y32968D01*
X-81865Y33030D01*
X-81868Y33096D01*
X-81875Y33158D01*
X-81883Y33217D01*
X-81887Y33239D01*
X-81894Y33257D01*
Y33261D01*
X-81901Y33272D01*
X-81909Y33286D01*
X-81919Y33308D01*
X-81952Y33352D01*
X-81971Y33374D01*
X-81996Y33393D01*
X-82000Y33396D01*
X-82007Y33400D01*
X-82022Y33407D01*
X-82044Y33418D01*
X-82069Y33429D01*
X-82095Y33436D01*
X-82128Y33440D01*
X-82165Y33444D01*
X-82187D01*
X-82212Y33440D01*
X-82241Y33436D01*
X-82278Y33426D01*
X-82315Y33415D01*
X-82355Y33396D01*
X-82395Y33371D01*
X-82399Y33367D01*
X-82410Y33360D01*
X-82428Y33341D01*
X-82450Y33323D01*
X-82472Y33294D01*
X-82494Y33264D01*
X-82516Y33224D01*
X-82531Y33184D01*
Y33180D01*
X-82538Y33162D01*
X-82542Y33133D01*
X-82549Y33089D01*
X-82553Y33063D01*
X-82556Y33030D01*
X-82560Y32997D01*
Y32957D01*
X-82564Y32917D01*
X-82567Y32869D01*
Y32818D01*
Y32763D01*
Y31925D01*
X-83058D01*
Y33781D01*
X-82600D01*
Y33506D01*
X-82597Y33510D01*
X-82589Y33521D01*
X-82575Y33535D01*
X-82556Y33554D01*
X-82534Y33579D01*
X-82505Y33605D01*
X-82472Y33634D01*
X-82432Y33663D01*
X-82392Y33693D01*
X-82344Y33722D01*
X-82296Y33748D01*
X-82241Y33773D01*
X-82183Y33791D01*
X-82124Y33806D01*
X-82059Y33817D01*
X-81993Y33821D01*
X-81967D01*
X-81934Y33817D01*
D02*
G37*
G36*
X-90473D02*
X-90433Y33813D01*
X-90389Y33806D01*
X-90341Y33795D01*
X-90290Y33781D01*
X-90239Y33762D01*
X-90231Y33759D01*
X-90217Y33751D01*
X-90191Y33740D01*
X-90162Y33722D01*
X-90129Y33700D01*
X-90096Y33674D01*
X-90063Y33645D01*
X-90034Y33612D01*
X-90030Y33608D01*
X-90023Y33597D01*
X-90012Y33575D01*
X-89997Y33554D01*
X-89979Y33521D01*
X-89964Y33484D01*
X-89950Y33447D01*
X-89938Y33404D01*
Y33400D01*
X-89935Y33382D01*
X-89928Y33356D01*
X-89924Y33319D01*
X-89917Y33272D01*
X-89913Y33217D01*
X-89909Y33151D01*
Y33074D01*
Y31925D01*
X-90400D01*
Y32869D01*
Y32873D01*
Y32884D01*
Y32898D01*
Y32917D01*
Y32942D01*
Y32968D01*
X-90403Y33030D01*
X-90407Y33096D01*
X-90414Y33158D01*
X-90422Y33217D01*
X-90425Y33239D01*
X-90433Y33257D01*
Y33261D01*
X-90440Y33272D01*
X-90447Y33286D01*
X-90458Y33308D01*
X-90491Y33352D01*
X-90509Y33374D01*
X-90535Y33393D01*
X-90539Y33396D01*
X-90546Y33400D01*
X-90561Y33407D01*
X-90583Y33418D01*
X-90608Y33429D01*
X-90634Y33436D01*
X-90667Y33440D01*
X-90703Y33444D01*
X-90725D01*
X-90751Y33440D01*
X-90780Y33436D01*
X-90817Y33426D01*
X-90854Y33415D01*
X-90894Y33396D01*
X-90934Y33371D01*
X-90938Y33367D01*
X-90949Y33360D01*
X-90967Y33341D01*
X-90989Y33323D01*
X-91011Y33294D01*
X-91033Y33264D01*
X-91055Y33224D01*
X-91070Y33184D01*
Y33180D01*
X-91077Y33162D01*
X-91080Y33133D01*
X-91088Y33089D01*
X-91091Y33063D01*
X-91095Y33030D01*
X-91099Y32997D01*
Y32957D01*
X-91102Y32917D01*
X-91106Y32869D01*
Y32818D01*
Y32763D01*
Y31925D01*
X-91597D01*
Y33781D01*
X-91139D01*
Y33506D01*
X-91135Y33510D01*
X-91128Y33521D01*
X-91113Y33535D01*
X-91095Y33554D01*
X-91073Y33579D01*
X-91044Y33605D01*
X-91011Y33634D01*
X-90971Y33663D01*
X-90930Y33693D01*
X-90883Y33722D01*
X-90835Y33748D01*
X-90780Y33773D01*
X-90722Y33791D01*
X-90663Y33806D01*
X-90597Y33817D01*
X-90531Y33821D01*
X-90506D01*
X-90473Y33817D01*
D02*
G37*
G36*
X-71558Y33817D02*
X-71521Y33813D01*
X-71481Y33810D01*
X-71437Y33806D01*
X-71346Y33792D01*
X-71254Y33770D01*
X-71166Y33737D01*
X-71126Y33718D01*
X-71090Y33696D01*
X-71086D01*
X-71082Y33689D01*
X-71060Y33674D01*
X-71027Y33645D01*
X-70987Y33605D01*
X-70943Y33554D01*
X-70899Y33491D01*
X-70863Y33415D01*
X-70830Y33330D01*
X-71291Y33246D01*
Y33250D01*
X-71298Y33264D01*
X-71306Y33283D01*
X-71316Y33308D01*
X-71335Y33334D01*
X-71353Y33360D01*
X-71379Y33389D01*
X-71408Y33411D01*
X-71412Y33415D01*
X-71423Y33422D01*
X-71441Y33429D01*
X-71466Y33440D01*
X-71499Y33451D01*
X-71540Y33462D01*
X-71587Y33466D01*
X-71642Y33469D01*
X-71671D01*
X-71708Y33466D01*
X-71748Y33462D01*
X-71792Y33455D01*
X-71840Y33447D01*
X-71880Y33433D01*
X-71917Y33415D01*
X-71920D01*
X-71924Y33407D01*
X-71942Y33389D01*
X-71964Y33356D01*
X-71968Y33338D01*
X-71972Y33316D01*
Y33312D01*
Y33308D01*
X-71964Y33283D01*
X-71950Y33253D01*
X-71939Y33239D01*
X-71924Y33224D01*
X-71920Y33220D01*
X-71906Y33217D01*
X-71898Y33209D01*
X-71884Y33206D01*
X-71865Y33198D01*
X-71843Y33188D01*
X-71814Y33180D01*
X-71785Y33169D01*
X-71748Y33158D01*
X-71704Y33147D01*
X-71657Y33133D01*
X-71602Y33118D01*
X-71540Y33103D01*
X-71470Y33085D01*
X-71466D01*
X-71452Y33081D01*
X-71434Y33078D01*
X-71408Y33070D01*
X-71375Y33059D01*
X-71338Y33052D01*
X-71298Y33037D01*
X-71254Y33026D01*
X-71163Y32994D01*
X-71075Y32957D01*
X-70991Y32917D01*
X-70954Y32891D01*
X-70921Y32869D01*
X-70914Y32862D01*
X-70895Y32844D01*
X-70874Y32814D01*
X-70844Y32774D01*
X-70815Y32723D01*
X-70793Y32660D01*
X-70775Y32587D01*
X-70767Y32503D01*
Y32500D01*
Y32492D01*
Y32478D01*
X-70771Y32459D01*
X-70775Y32441D01*
X-70778Y32415D01*
X-70793Y32353D01*
X-70819Y32287D01*
X-70837Y32251D01*
X-70859Y32214D01*
X-70885Y32177D01*
X-70910Y32141D01*
X-70947Y32104D01*
X-70983Y32068D01*
X-70987Y32064D01*
X-70994Y32060D01*
X-71005Y32049D01*
X-71024Y32038D01*
X-71046Y32024D01*
X-71071Y32009D01*
X-71104Y31994D01*
X-71141Y31976D01*
X-71185Y31958D01*
X-71229Y31943D01*
X-71284Y31929D01*
X-71338Y31914D01*
X-71401Y31903D01*
X-71466Y31892D01*
X-71536Y31888D01*
X-71613Y31885D01*
X-71649D01*
X-71675Y31888D01*
X-71708D01*
X-71745Y31892D01*
X-71785Y31896D01*
X-71829Y31903D01*
X-71924Y31921D01*
X-72026Y31947D01*
X-72122Y31983D01*
X-72213Y32035D01*
X-72217Y32038D01*
X-72224Y32042D01*
X-72235Y32049D01*
X-72250Y32064D01*
X-72286Y32097D01*
X-72330Y32144D01*
X-72378Y32203D01*
X-72425Y32276D01*
X-72466Y32357D01*
X-72499Y32452D01*
X-72004Y32529D01*
Y32521D01*
X-71997Y32507D01*
X-71990Y32481D01*
X-71979Y32448D01*
X-71961Y32412D01*
X-71939Y32379D01*
X-71913Y32342D01*
X-71880Y32313D01*
X-71876Y32309D01*
X-71862Y32302D01*
X-71840Y32291D01*
X-71811Y32276D01*
X-71774Y32262D01*
X-71726Y32251D01*
X-71675Y32243D01*
X-71613Y32240D01*
X-71580D01*
X-71547Y32243D01*
X-71507Y32247D01*
X-71459Y32258D01*
X-71412Y32269D01*
X-71368Y32287D01*
X-71327Y32309D01*
X-71324Y32313D01*
X-71316Y32316D01*
X-71306Y32327D01*
X-71294Y32342D01*
X-71284Y32360D01*
X-71272Y32382D01*
X-71265Y32408D01*
X-71262Y32437D01*
Y32441D01*
Y32448D01*
X-71265Y32470D01*
X-71276Y32503D01*
X-71298Y32532D01*
X-71306Y32540D01*
X-71316Y32543D01*
X-71331Y32554D01*
X-71353Y32562D01*
X-71382Y32573D01*
X-71419Y32584D01*
X-71463Y32595D01*
X-71470D01*
X-71488Y32602D01*
X-71518Y32609D01*
X-71558Y32617D01*
X-71606Y32628D01*
X-71657Y32642D01*
X-71715Y32657D01*
X-71778Y32675D01*
X-71906Y32712D01*
X-71968Y32730D01*
X-72026Y32752D01*
X-72085Y32770D01*
X-72136Y32792D01*
X-72176Y32814D01*
X-72213Y32833D01*
X-72217Y32836D01*
X-72224Y32840D01*
X-72231Y32847D01*
X-72246Y32862D01*
X-72283Y32895D01*
X-72319Y32942D01*
X-72360Y33001D01*
X-72396Y33070D01*
X-72411Y33111D01*
X-72418Y33155D01*
X-72425Y33202D01*
X-72429Y33250D01*
Y33253D01*
Y33261D01*
Y33272D01*
X-72425Y33290D01*
X-72422Y33312D01*
X-72418Y33334D01*
X-72407Y33393D01*
X-72385Y33455D01*
X-72349Y33524D01*
X-72330Y33557D01*
X-72305Y33590D01*
X-72275Y33623D01*
X-72242Y33656D01*
X-72239Y33660D01*
X-72235Y33663D01*
X-72220Y33671D01*
X-72206Y33682D01*
X-72188Y33693D01*
X-72162Y33707D01*
X-72133Y33722D01*
X-72096Y33740D01*
X-72059Y33755D01*
X-72016Y33770D01*
X-71964Y33784D01*
X-71913Y33795D01*
X-71855Y33806D01*
X-71792Y33813D01*
X-71723Y33821D01*
X-71587D01*
X-71558Y33817D01*
D02*
G37*
G36*
X-74537Y33817D02*
X-74501Y33813D01*
X-74460Y33810D01*
X-74417Y33806D01*
X-74325Y33791D01*
X-74234Y33770D01*
X-74146Y33737D01*
X-74105Y33718D01*
X-74069Y33696D01*
X-74065D01*
X-74061Y33689D01*
X-74040Y33674D01*
X-74006Y33645D01*
X-73966Y33605D01*
X-73922Y33554D01*
X-73878Y33491D01*
X-73842Y33415D01*
X-73809Y33330D01*
X-74270Y33246D01*
Y33250D01*
X-74277Y33264D01*
X-74285Y33283D01*
X-74296Y33308D01*
X-74314Y33334D01*
X-74332Y33360D01*
X-74358Y33389D01*
X-74387Y33411D01*
X-74391Y33415D01*
X-74402Y33422D01*
X-74420Y33429D01*
X-74446Y33440D01*
X-74479Y33451D01*
X-74519Y33462D01*
X-74567Y33466D01*
X-74621Y33469D01*
X-74651D01*
X-74687Y33466D01*
X-74728Y33462D01*
X-74771Y33455D01*
X-74819Y33447D01*
X-74859Y33433D01*
X-74896Y33415D01*
X-74900D01*
X-74903Y33407D01*
X-74922Y33389D01*
X-74944Y33356D01*
X-74947Y33338D01*
X-74951Y33316D01*
Y33312D01*
Y33308D01*
X-74944Y33283D01*
X-74929Y33253D01*
X-74918Y33239D01*
X-74903Y33224D01*
X-74900Y33220D01*
X-74885Y33217D01*
X-74878Y33209D01*
X-74863Y33206D01*
X-74845Y33198D01*
X-74823Y33187D01*
X-74793Y33180D01*
X-74764Y33169D01*
X-74728Y33158D01*
X-74684Y33147D01*
X-74636Y33133D01*
X-74581Y33118D01*
X-74519Y33103D01*
X-74449Y33085D01*
X-74446D01*
X-74431Y33081D01*
X-74413Y33078D01*
X-74387Y33070D01*
X-74354Y33059D01*
X-74318Y33052D01*
X-74277Y33037D01*
X-74234Y33026D01*
X-74142Y32994D01*
X-74054Y32957D01*
X-73970Y32917D01*
X-73933Y32891D01*
X-73900Y32869D01*
X-73893Y32862D01*
X-73875Y32844D01*
X-73853Y32814D01*
X-73823Y32774D01*
X-73794Y32723D01*
X-73772Y32660D01*
X-73754Y32587D01*
X-73747Y32503D01*
Y32500D01*
Y32492D01*
Y32478D01*
X-73750Y32459D01*
X-73754Y32441D01*
X-73758Y32415D01*
X-73772Y32353D01*
X-73798Y32287D01*
X-73816Y32251D01*
X-73838Y32214D01*
X-73864Y32177D01*
X-73889Y32141D01*
X-73926Y32104D01*
X-73963Y32068D01*
X-73966Y32064D01*
X-73974Y32060D01*
X-73985Y32049D01*
X-74003Y32038D01*
X-74025Y32024D01*
X-74050Y32009D01*
X-74083Y31994D01*
X-74120Y31976D01*
X-74164Y31958D01*
X-74208Y31943D01*
X-74263Y31929D01*
X-74318Y31914D01*
X-74380Y31903D01*
X-74446Y31892D01*
X-74515Y31888D01*
X-74592Y31885D01*
X-74629D01*
X-74654Y31888D01*
X-74687D01*
X-74724Y31892D01*
X-74764Y31896D01*
X-74808Y31903D01*
X-74903Y31921D01*
X-75006Y31947D01*
X-75101Y31983D01*
X-75192Y32035D01*
X-75196Y32038D01*
X-75203Y32042D01*
X-75214Y32049D01*
X-75229Y32064D01*
X-75266Y32097D01*
X-75309Y32144D01*
X-75357Y32203D01*
X-75405Y32276D01*
X-75445Y32357D01*
X-75478Y32452D01*
X-74984Y32529D01*
Y32521D01*
X-74976Y32507D01*
X-74969Y32481D01*
X-74958Y32448D01*
X-74940Y32412D01*
X-74918Y32379D01*
X-74892Y32342D01*
X-74859Y32313D01*
X-74856Y32309D01*
X-74841Y32302D01*
X-74819Y32291D01*
X-74790Y32276D01*
X-74753Y32262D01*
X-74706Y32251D01*
X-74654Y32243D01*
X-74592Y32240D01*
X-74559D01*
X-74526Y32243D01*
X-74486Y32247D01*
X-74438Y32258D01*
X-74391Y32269D01*
X-74347Y32287D01*
X-74307Y32309D01*
X-74303Y32313D01*
X-74296Y32316D01*
X-74285Y32327D01*
X-74274Y32342D01*
X-74263Y32360D01*
X-74252Y32382D01*
X-74244Y32408D01*
X-74241Y32437D01*
Y32441D01*
Y32448D01*
X-74244Y32470D01*
X-74255Y32503D01*
X-74277Y32532D01*
X-74285Y32540D01*
X-74296Y32543D01*
X-74310Y32554D01*
X-74332Y32562D01*
X-74362Y32573D01*
X-74398Y32584D01*
X-74442Y32595D01*
X-74449D01*
X-74468Y32602D01*
X-74497Y32609D01*
X-74537Y32617D01*
X-74585Y32628D01*
X-74636Y32642D01*
X-74695Y32657D01*
X-74757Y32675D01*
X-74885Y32712D01*
X-74947Y32730D01*
X-75006Y32752D01*
X-75064Y32770D01*
X-75116Y32792D01*
X-75156Y32814D01*
X-75192Y32833D01*
X-75196Y32836D01*
X-75203Y32840D01*
X-75211Y32847D01*
X-75225Y32862D01*
X-75262Y32895D01*
X-75299Y32942D01*
X-75339Y33001D01*
X-75375Y33070D01*
X-75390Y33111D01*
X-75397Y33155D01*
X-75405Y33202D01*
X-75408Y33250D01*
Y33253D01*
Y33261D01*
Y33272D01*
X-75405Y33290D01*
X-75401Y33312D01*
X-75397Y33334D01*
X-75386Y33393D01*
X-75364Y33455D01*
X-75328Y33524D01*
X-75309Y33557D01*
X-75284Y33590D01*
X-75255Y33623D01*
X-75222Y33656D01*
X-75218Y33660D01*
X-75214Y33663D01*
X-75200Y33671D01*
X-75185Y33682D01*
X-75167Y33693D01*
X-75141Y33707D01*
X-75112Y33722D01*
X-75075Y33740D01*
X-75039Y33755D01*
X-74995Y33770D01*
X-74944Y33784D01*
X-74892Y33795D01*
X-74834Y33806D01*
X-74771Y33813D01*
X-74702Y33821D01*
X-74567D01*
X-74537Y33817D01*
D02*
G37*
G36*
X-72832Y31925D02*
X-73322Y31925D01*
Y33781D01*
X-72832Y33781D01*
Y31925D01*
D02*
G37*
G36*
X-78680Y34483D02*
X-78644D01*
X-78600Y34479D01*
X-78556D01*
X-78457Y34468D01*
X-78358Y34458D01*
X-78267Y34439D01*
X-78227Y34428D01*
X-78190Y34417D01*
X-78186D01*
X-78183Y34414D01*
X-78161Y34403D01*
X-78124Y34384D01*
X-78084Y34359D01*
X-78036Y34326D01*
X-77985Y34282D01*
X-77934Y34231D01*
X-77890Y34168D01*
Y34165D01*
X-77886Y34161D01*
X-77879Y34150D01*
X-77872Y34139D01*
X-77853Y34103D01*
X-77831Y34051D01*
X-77813Y33993D01*
X-77795Y33923D01*
X-77780Y33850D01*
X-77776Y33766D01*
Y33762D01*
Y33755D01*
Y33737D01*
X-77780Y33718D01*
Y33693D01*
X-77784Y33663D01*
X-77798Y33597D01*
X-77817Y33524D01*
X-77850Y33444D01*
X-77890Y33363D01*
X-77919Y33327D01*
X-77948Y33290D01*
X-77952Y33286D01*
X-77956Y33283D01*
X-77967Y33272D01*
X-77981Y33261D01*
X-77996Y33246D01*
X-78018Y33228D01*
X-78044Y33209D01*
X-78073Y33191D01*
X-78106Y33169D01*
X-78146Y33151D01*
X-78186Y33129D01*
X-78230Y33111D01*
X-78281Y33092D01*
X-78333Y33078D01*
X-78388Y33063D01*
X-78450Y33052D01*
X-78446D01*
X-78443Y33048D01*
X-78421Y33034D01*
X-78391Y33015D01*
X-78355Y32990D01*
X-78311Y32957D01*
X-78263Y32924D01*
X-78219Y32884D01*
X-78175Y32840D01*
X-78172Y32833D01*
X-78153Y32818D01*
X-78131Y32789D01*
X-78098Y32745D01*
X-78076Y32715D01*
X-78054Y32686D01*
X-78032Y32653D01*
X-78007Y32613D01*
X-77978Y32573D01*
X-77948Y32525D01*
X-77915Y32478D01*
X-77882Y32423D01*
X-77568Y31925D01*
X-78186D01*
X-78560Y32481D01*
X-78563Y32485D01*
X-78567Y32496D01*
X-78578Y32510D01*
X-78592Y32529D01*
X-78607Y32551D01*
X-78626Y32580D01*
X-78669Y32638D01*
X-78713Y32704D01*
X-78761Y32763D01*
X-78801Y32818D01*
X-78819Y32836D01*
X-78834Y32855D01*
X-78838Y32858D01*
X-78845Y32869D01*
X-78863Y32880D01*
X-78882Y32898D01*
X-78904Y32917D01*
X-78933Y32935D01*
X-78962Y32950D01*
X-78992Y32964D01*
X-78995D01*
X-79006Y32968D01*
X-79028Y32975D01*
X-79054Y32979D01*
X-79090Y32986D01*
X-79134Y32990D01*
X-79189Y32994D01*
X-79354D01*
Y31925D01*
X-79870D01*
Y34487D01*
X-78717D01*
X-78680Y34483D01*
D02*
G37*
G36*
X-85744Y31925D02*
X-86235D01*
Y33781D01*
X-85744D01*
Y31925D01*
D02*
G37*
G36*
X-88603Y33817D02*
X-88570D01*
X-88500Y33810D01*
X-88420Y33802D01*
X-88339Y33788D01*
X-88262Y33766D01*
X-88229Y33755D01*
X-88196Y33740D01*
X-88193D01*
X-88189Y33737D01*
X-88171Y33726D01*
X-88142Y33711D01*
X-88108Y33685D01*
X-88068Y33660D01*
X-88032Y33623D01*
X-87999Y33586D01*
X-87969Y33543D01*
X-87966Y33535D01*
X-87959Y33521D01*
X-87947Y33488D01*
X-87944Y33469D01*
X-87937Y33444D01*
X-87929Y33415D01*
X-87925Y33385D01*
X-87918Y33349D01*
X-87915Y33308D01*
X-87911Y33264D01*
X-87907Y33213D01*
X-87904Y33162D01*
Y33103D01*
X-87911Y32532D01*
Y32529D01*
Y32521D01*
Y32510D01*
Y32492D01*
Y32448D01*
X-87907Y32397D01*
Y32335D01*
X-87900Y32276D01*
X-87896Y32218D01*
X-87889Y32170D01*
Y32166D01*
X-87885Y32152D01*
X-87878Y32126D01*
X-87867Y32097D01*
X-87856Y32060D01*
X-87838Y32020D01*
X-87819Y31972D01*
X-87797Y31925D01*
X-88284D01*
Y31929D01*
X-88288Y31932D01*
X-88292Y31947D01*
X-88299Y31962D01*
X-88306Y31980D01*
X-88314Y32005D01*
X-88321Y32035D01*
X-88332Y32068D01*
Y32071D01*
X-88335Y32075D01*
X-88339Y32093D01*
X-88346Y32111D01*
X-88350Y32126D01*
X-88357Y32122D01*
X-88372Y32108D01*
X-88398Y32086D01*
X-88431Y32057D01*
X-88471Y32027D01*
X-88515Y31998D01*
X-88566Y31969D01*
X-88617Y31943D01*
X-88625Y31940D01*
X-88643Y31936D01*
X-88672Y31925D01*
X-88709Y31914D01*
X-88756Y31903D01*
X-88808Y31896D01*
X-88863Y31888D01*
X-88925Y31885D01*
X-88950D01*
X-88972Y31888D01*
X-88994D01*
X-89024Y31892D01*
X-89089Y31903D01*
X-89159Y31921D01*
X-89236Y31951D01*
X-89309Y31987D01*
X-89375Y32038D01*
Y32042D01*
X-89382Y32046D01*
X-89401Y32068D01*
X-89426Y32100D01*
X-89455Y32144D01*
X-89485Y32203D01*
X-89510Y32269D01*
X-89529Y32346D01*
X-89532Y32386D01*
X-89536Y32430D01*
Y32434D01*
Y32437D01*
Y32456D01*
X-89532Y32485D01*
X-89525Y32525D01*
X-89518Y32565D01*
X-89507Y32613D01*
X-89488Y32660D01*
X-89463Y32708D01*
X-89459Y32715D01*
X-89448Y32730D01*
X-89433Y32752D01*
X-89408Y32778D01*
X-89378Y32807D01*
X-89342Y32840D01*
X-89302Y32869D01*
X-89254Y32895D01*
X-89247Y32898D01*
X-89228Y32906D01*
X-89199Y32917D01*
X-89155Y32935D01*
X-89100Y32953D01*
X-89031Y32972D01*
X-88954Y32994D01*
X-88863Y33012D01*
X-88859D01*
X-88848Y33015D01*
X-88829Y33019D01*
X-88808Y33023D01*
X-88778Y33026D01*
X-88749Y33034D01*
X-88676Y33052D01*
X-88595Y33070D01*
X-88518Y33089D01*
X-88445Y33111D01*
X-88416Y33122D01*
X-88387Y33133D01*
Y33180D01*
Y33187D01*
Y33202D01*
X-88390Y33228D01*
X-88394Y33261D01*
X-88405Y33294D01*
X-88416Y33327D01*
X-88434Y33356D01*
X-88460Y33382D01*
X-88463Y33385D01*
X-88475Y33393D01*
X-88493Y33400D01*
X-88518Y33415D01*
X-88555Y33426D01*
X-88599Y33433D01*
X-88654Y33440D01*
X-88720Y33444D01*
X-88742D01*
X-88764Y33440D01*
X-88793Y33436D01*
X-88826Y33429D01*
X-88863Y33422D01*
X-88895Y33407D01*
X-88925Y33389D01*
X-88928Y33385D01*
X-88936Y33378D01*
X-88950Y33367D01*
X-88965Y33349D01*
X-88987Y33323D01*
X-89005Y33290D01*
X-89024Y33253D01*
X-89042Y33209D01*
X-89485Y33290D01*
Y33294D01*
X-89481Y33301D01*
X-89477Y33316D01*
X-89470Y33334D01*
X-89463Y33356D01*
X-89452Y33382D01*
X-89426Y33440D01*
X-89389Y33506D01*
X-89346Y33572D01*
X-89291Y33634D01*
X-89228Y33689D01*
X-89225D01*
X-89221Y33696D01*
X-89210Y33700D01*
X-89196Y33711D01*
X-89174Y33718D01*
X-89152Y33729D01*
X-89122Y33744D01*
X-89093Y33755D01*
X-89056Y33766D01*
X-89016Y33781D01*
X-88969Y33791D01*
X-88921Y33799D01*
X-88866Y33810D01*
X-88811Y33813D01*
X-88749Y33821D01*
X-88628D01*
X-88603Y33817D01*
D02*
G37*
G36*
X-92098Y31925D02*
X-92588D01*
Y33781D01*
X-92098D01*
Y31925D01*
D02*
G37*
G36*
X-99473Y34055D02*
X-100227D01*
Y31925D01*
X-100743D01*
Y34055D01*
X-101504D01*
Y34487D01*
X-99473D01*
Y34055D01*
D02*
G37*
G36*
X-68242Y33817D02*
X-68205Y33813D01*
X-68165Y33806D01*
X-68118Y33799D01*
X-68066Y33788D01*
X-68015Y33773D01*
X-67960Y33755D01*
X-67902Y33733D01*
X-67843Y33704D01*
X-67785Y33674D01*
X-67730Y33638D01*
X-67675Y33594D01*
X-67624Y33546D01*
X-67620Y33543D01*
X-67612Y33535D01*
X-67598Y33517D01*
X-67580Y33499D01*
X-67561Y33469D01*
X-67539Y33436D01*
X-67514Y33400D01*
X-67488Y33356D01*
X-67462Y33308D01*
X-67437Y33257D01*
X-67415Y33198D01*
X-67397Y33140D01*
X-67378Y33074D01*
X-67364Y33005D01*
X-67356Y32931D01*
X-67353Y32855D01*
Y32851D01*
Y32836D01*
Y32814D01*
X-67356Y32785D01*
X-67360Y32748D01*
X-67367Y32708D01*
X-67375Y32660D01*
X-67386Y32613D01*
X-67400Y32558D01*
X-67418Y32503D01*
X-67440Y32445D01*
X-67470Y32386D01*
X-67499Y32327D01*
X-67536Y32269D01*
X-67580Y32214D01*
X-67627Y32159D01*
X-67631Y32155D01*
X-67638Y32148D01*
X-67656Y32133D01*
X-67675Y32115D01*
X-67704Y32097D01*
X-67733Y32071D01*
X-67774Y32049D01*
X-67814Y32024D01*
X-67861Y31998D01*
X-67913Y31972D01*
X-67971Y31947D01*
X-68030Y31929D01*
X-68096Y31910D01*
X-68161Y31896D01*
X-68235Y31888D01*
X-68312Y31885D01*
X-68337D01*
X-68356Y31888D01*
X-68378D01*
X-68403Y31892D01*
X-68465Y31899D01*
X-68542Y31914D01*
X-68623Y31932D01*
X-68711Y31962D01*
X-68798Y31998D01*
X-68802D01*
X-68809Y32002D01*
X-68820Y32009D01*
X-68835Y32020D01*
X-68879Y32046D01*
X-68930Y32082D01*
X-68985Y32130D01*
X-69044Y32188D01*
X-69099Y32258D01*
X-69150Y32335D01*
Y32338D01*
X-69153Y32346D01*
X-69161Y32357D01*
X-69168Y32375D01*
X-69175Y32397D01*
X-69186Y32423D01*
X-69197Y32452D01*
X-69208Y32485D01*
X-69219Y32525D01*
X-69230Y32565D01*
X-69248Y32657D01*
X-69263Y32763D01*
X-69267Y32877D01*
Y32880D01*
Y32887D01*
Y32902D01*
X-69263Y32917D01*
Y32939D01*
X-69260Y32968D01*
X-69252Y33026D01*
X-69238Y33100D01*
X-69216Y33180D01*
X-69190Y33264D01*
X-69150Y33349D01*
Y33352D01*
X-69142Y33360D01*
X-69139Y33371D01*
X-69128Y33385D01*
X-69099Y33429D01*
X-69062Y33480D01*
X-69014Y33535D01*
X-68956Y33594D01*
X-68886Y33649D01*
X-68809Y33700D01*
X-68806D01*
X-68798Y33704D01*
X-68787Y33711D01*
X-68769Y33718D01*
X-68751Y33729D01*
X-68725Y33737D01*
X-68696Y33748D01*
X-68663Y33762D01*
X-68590Y33784D01*
X-68506Y33802D01*
X-68410Y33817D01*
X-68312Y33821D01*
X-68271D01*
X-68242Y33817D01*
D02*
G37*
G36*
X-69823Y33781D02*
X-69486D01*
Y33389D01*
X-69823D01*
Y32639D01*
Y32635D01*
Y32628D01*
Y32617D01*
Y32602D01*
Y32565D01*
Y32521D01*
X-69819Y32474D01*
Y32434D01*
Y32397D01*
X-69816Y32382D01*
Y32375D01*
X-69812Y32368D01*
X-69805Y32353D01*
X-69794Y32335D01*
X-69772Y32313D01*
X-69765Y32309D01*
X-69750Y32302D01*
X-69721Y32294D01*
X-69688Y32291D01*
X-69673D01*
X-69658Y32294D01*
X-69636Y32298D01*
X-69607Y32302D01*
X-69574Y32309D01*
X-69534Y32320D01*
X-69490Y32335D01*
X-69446Y31958D01*
X-69450D01*
X-69454Y31954D01*
X-69476Y31947D01*
X-69512Y31936D01*
X-69560Y31921D01*
X-69618Y31907D01*
X-69684Y31896D01*
X-69754Y31888D01*
X-69834Y31885D01*
X-69856D01*
X-69882Y31888D01*
X-69915Y31892D01*
X-69951Y31896D01*
X-69991Y31903D01*
X-70035Y31914D01*
X-70076Y31929D01*
X-70079Y31932D01*
X-70094Y31936D01*
X-70112Y31947D01*
X-70134Y31958D01*
X-70186Y31994D01*
X-70211Y32016D01*
X-70233Y32042D01*
X-70237Y32046D01*
X-70240Y32057D01*
X-70248Y32071D01*
X-70259Y32093D01*
X-70270Y32119D01*
X-70281Y32152D01*
X-70292Y32188D01*
X-70299Y32232D01*
Y32236D01*
X-70303Y32251D01*
Y32273D01*
X-70306Y32309D01*
X-70310Y32357D01*
Y32415D01*
X-70314Y32452D01*
Y32492D01*
Y32532D01*
Y32580D01*
Y33389D01*
X-70540D01*
Y33781D01*
X-70314D01*
Y34150D01*
X-69823Y34439D01*
Y33781D01*
D02*
G37*
G36*
X-76517Y33817D02*
X-76484Y33813D01*
X-76444Y33806D01*
X-76400Y33799D01*
X-76349Y33788D01*
X-76298Y33773D01*
X-76247Y33755D01*
X-76192Y33733D01*
X-76137Y33704D01*
X-76085Y33674D01*
X-76030Y33638D01*
X-75983Y33594D01*
X-75935Y33546D01*
X-75932Y33543D01*
X-75924Y33535D01*
X-75913Y33517D01*
X-75899Y33495D01*
X-75880Y33466D01*
X-75862Y33429D01*
X-75840Y33389D01*
X-75818Y33338D01*
X-75796Y33283D01*
X-75774Y33220D01*
X-75756Y33155D01*
X-75738Y33078D01*
X-75723Y32997D01*
X-75712Y32909D01*
X-75705Y32814D01*
Y32712D01*
X-76934D01*
Y32708D01*
Y32701D01*
Y32690D01*
X-76931Y32675D01*
X-76927Y32635D01*
X-76920Y32587D01*
X-76905Y32532D01*
X-76883Y32474D01*
X-76854Y32423D01*
X-76817Y32371D01*
X-76814Y32368D01*
X-76796Y32353D01*
X-76774Y32335D01*
X-76741Y32313D01*
X-76700Y32287D01*
X-76649Y32269D01*
X-76594Y32254D01*
X-76536Y32251D01*
X-76517D01*
X-76495Y32254D01*
X-76466Y32258D01*
X-76437Y32265D01*
X-76404Y32276D01*
X-76371Y32291D01*
X-76342Y32313D01*
X-76338Y32316D01*
X-76327Y32324D01*
X-76312Y32338D01*
X-76298Y32360D01*
X-76276Y32390D01*
X-76257Y32426D01*
X-76239Y32467D01*
X-76221Y32518D01*
X-75730Y32437D01*
Y32434D01*
X-75734Y32426D01*
X-75741Y32412D01*
X-75749Y32393D01*
X-75760Y32371D01*
X-75771Y32346D01*
X-75804Y32283D01*
X-75844Y32218D01*
X-75899Y32148D01*
X-75957Y32082D01*
X-76030Y32024D01*
X-76034D01*
X-76038Y32016D01*
X-76052Y32013D01*
X-76067Y32002D01*
X-76085Y31991D01*
X-76111Y31980D01*
X-76137Y31969D01*
X-76170Y31954D01*
X-76243Y31929D01*
X-76331Y31907D01*
X-76429Y31892D01*
X-76539Y31885D01*
X-76561D01*
X-76587Y31888D01*
X-76620D01*
X-76660Y31896D01*
X-76704Y31903D01*
X-76755Y31910D01*
X-76810Y31925D01*
X-76865Y31940D01*
X-76927Y31962D01*
X-76986Y31987D01*
X-77044Y32016D01*
X-77103Y32053D01*
X-77158Y32097D01*
X-77205Y32144D01*
X-77253Y32199D01*
X-77257Y32203D01*
X-77260Y32210D01*
X-77271Y32225D01*
X-77282Y32243D01*
X-77297Y32269D01*
X-77311Y32298D01*
X-77326Y32335D01*
X-77345Y32375D01*
X-77363Y32419D01*
X-77377Y32467D01*
X-77392Y32518D01*
X-77407Y32576D01*
X-77418Y32635D01*
X-77429Y32697D01*
X-77432Y32767D01*
X-77436Y32836D01*
Y32840D01*
Y32858D01*
Y32880D01*
X-77432Y32913D01*
X-77429Y32950D01*
X-77425Y32997D01*
X-77418Y33045D01*
X-77407Y33100D01*
X-77377Y33213D01*
X-77359Y33275D01*
X-77337Y33334D01*
X-77308Y33393D01*
X-77275Y33451D01*
X-77238Y33506D01*
X-77198Y33557D01*
X-77194Y33561D01*
X-77187Y33568D01*
X-77172Y33583D01*
X-77154Y33597D01*
X-77132Y33619D01*
X-77103Y33641D01*
X-77070Y33663D01*
X-77030Y33689D01*
X-76989Y33715D01*
X-76942Y33737D01*
X-76891Y33759D01*
X-76839Y33781D01*
X-76781Y33795D01*
X-76719Y33810D01*
X-76653Y33817D01*
X-76587Y33821D01*
X-76547D01*
X-76517Y33817D01*
D02*
G37*
G36*
X-84331D02*
X-84295Y33813D01*
X-84254Y33806D01*
X-84207Y33799D01*
X-84156Y33788D01*
X-84105Y33773D01*
X-84050Y33755D01*
X-83991Y33733D01*
X-83933Y33704D01*
X-83874Y33674D01*
X-83819Y33638D01*
X-83764Y33594D01*
X-83713Y33546D01*
X-83709Y33543D01*
X-83702Y33535D01*
X-83687Y33517D01*
X-83669Y33499D01*
X-83651Y33469D01*
X-83629Y33436D01*
X-83603Y33400D01*
X-83577Y33356D01*
X-83552Y33308D01*
X-83526Y33257D01*
X-83504Y33198D01*
X-83486Y33140D01*
X-83468Y33074D01*
X-83453Y33005D01*
X-83446Y32931D01*
X-83442Y32855D01*
Y32851D01*
Y32836D01*
Y32814D01*
X-83446Y32785D01*
X-83449Y32748D01*
X-83457Y32708D01*
X-83464Y32660D01*
X-83475Y32613D01*
X-83490Y32558D01*
X-83508Y32503D01*
X-83530Y32445D01*
X-83559Y32386D01*
X-83588Y32327D01*
X-83625Y32269D01*
X-83669Y32214D01*
X-83716Y32159D01*
X-83720Y32155D01*
X-83728Y32148D01*
X-83746Y32133D01*
X-83764Y32115D01*
X-83793Y32097D01*
X-83823Y32071D01*
X-83863Y32049D01*
X-83903Y32024D01*
X-83951Y31998D01*
X-84002Y31972D01*
X-84061Y31947D01*
X-84119Y31929D01*
X-84185Y31910D01*
X-84251Y31896D01*
X-84324Y31888D01*
X-84401Y31885D01*
X-84427D01*
X-84445Y31888D01*
X-84467D01*
X-84492Y31892D01*
X-84555Y31899D01*
X-84632Y31914D01*
X-84712Y31932D01*
X-84800Y31962D01*
X-84888Y31998D01*
X-84891D01*
X-84899Y32002D01*
X-84910Y32009D01*
X-84924Y32020D01*
X-84968Y32046D01*
X-85019Y32082D01*
X-85074Y32130D01*
X-85133Y32188D01*
X-85188Y32258D01*
X-85239Y32335D01*
Y32338D01*
X-85243Y32346D01*
X-85250Y32357D01*
X-85257Y32375D01*
X-85265Y32397D01*
X-85276Y32423D01*
X-85287Y32452D01*
X-85298Y32485D01*
X-85309Y32525D01*
X-85320Y32565D01*
X-85338Y32657D01*
X-85352Y32763D01*
X-85356Y32876D01*
Y32880D01*
Y32887D01*
Y32902D01*
X-85352Y32917D01*
Y32939D01*
X-85349Y32968D01*
X-85342Y33026D01*
X-85327Y33100D01*
X-85305Y33180D01*
X-85279Y33264D01*
X-85239Y33349D01*
Y33352D01*
X-85232Y33360D01*
X-85228Y33371D01*
X-85217Y33385D01*
X-85188Y33429D01*
X-85151Y33480D01*
X-85104Y33535D01*
X-85045Y33594D01*
X-84976Y33649D01*
X-84899Y33700D01*
X-84895D01*
X-84888Y33704D01*
X-84877Y33711D01*
X-84858Y33718D01*
X-84840Y33729D01*
X-84815Y33737D01*
X-84785Y33748D01*
X-84752Y33762D01*
X-84679Y33784D01*
X-84595Y33802D01*
X-84500Y33817D01*
X-84401Y33821D01*
X-84361D01*
X-84331Y33817D01*
D02*
G37*
G36*
X-86904Y33781D02*
X-86568D01*
Y33389D01*
X-86904D01*
Y32638D01*
Y32635D01*
Y32628D01*
Y32617D01*
Y32602D01*
Y32565D01*
Y32521D01*
X-86901Y32474D01*
Y32434D01*
Y32397D01*
X-86897Y32382D01*
Y32375D01*
X-86893Y32368D01*
X-86886Y32353D01*
X-86875Y32335D01*
X-86853Y32313D01*
X-86846Y32309D01*
X-86831Y32302D01*
X-86802Y32294D01*
X-86769Y32291D01*
X-86754D01*
X-86740Y32294D01*
X-86718Y32298D01*
X-86688Y32302D01*
X-86655Y32309D01*
X-86615Y32320D01*
X-86571Y32335D01*
X-86527Y31958D01*
X-86531D01*
X-86535Y31954D01*
X-86557Y31947D01*
X-86593Y31936D01*
X-86641Y31921D01*
X-86699Y31907D01*
X-86765Y31896D01*
X-86835Y31888D01*
X-86915Y31885D01*
X-86937D01*
X-86963Y31888D01*
X-86996Y31892D01*
X-87033Y31896D01*
X-87073Y31903D01*
X-87117Y31914D01*
X-87157Y31929D01*
X-87161Y31932D01*
X-87175Y31936D01*
X-87194Y31947D01*
X-87216Y31958D01*
X-87267Y31994D01*
X-87292Y32016D01*
X-87314Y32042D01*
X-87318Y32046D01*
X-87322Y32057D01*
X-87329Y32071D01*
X-87340Y32093D01*
X-87351Y32119D01*
X-87362Y32152D01*
X-87373Y32188D01*
X-87380Y32232D01*
Y32236D01*
X-87384Y32251D01*
Y32273D01*
X-87388Y32309D01*
X-87391Y32357D01*
Y32415D01*
X-87395Y32452D01*
Y32492D01*
Y32532D01*
Y32580D01*
Y33389D01*
X-87622D01*
Y33781D01*
X-87395D01*
Y34150D01*
X-86904Y34439D01*
Y33781D01*
D02*
G37*
G36*
X-98368Y33817D02*
X-98335Y33813D01*
X-98294Y33806D01*
X-98250Y33799D01*
X-98199Y33788D01*
X-98148Y33773D01*
X-98097Y33755D01*
X-98042Y33733D01*
X-97987Y33704D01*
X-97936Y33674D01*
X-97881Y33638D01*
X-97833Y33594D01*
X-97786Y33546D01*
X-97782Y33543D01*
X-97775Y33535D01*
X-97764Y33517D01*
X-97749Y33495D01*
X-97731Y33466D01*
X-97712Y33429D01*
X-97690Y33389D01*
X-97668Y33338D01*
X-97646Y33283D01*
X-97624Y33220D01*
X-97606Y33155D01*
X-97588Y33078D01*
X-97573Y32997D01*
X-97562Y32909D01*
X-97555Y32814D01*
Y32712D01*
X-98785D01*
Y32708D01*
Y32701D01*
Y32690D01*
X-98781Y32675D01*
X-98777Y32635D01*
X-98770Y32587D01*
X-98756Y32532D01*
X-98734Y32474D01*
X-98704Y32423D01*
X-98668Y32371D01*
X-98664Y32368D01*
X-98646Y32353D01*
X-98624Y32335D01*
X-98591Y32313D01*
X-98550Y32287D01*
X-98499Y32269D01*
X-98444Y32254D01*
X-98386Y32251D01*
X-98368D01*
X-98346Y32254D01*
X-98316Y32258D01*
X-98287Y32265D01*
X-98254Y32276D01*
X-98221Y32291D01*
X-98192Y32313D01*
X-98188Y32316D01*
X-98177Y32324D01*
X-98163Y32338D01*
X-98148Y32360D01*
X-98126Y32390D01*
X-98108Y32426D01*
X-98089Y32467D01*
X-98071Y32518D01*
X-97581Y32437D01*
Y32434D01*
X-97584Y32426D01*
X-97592Y32412D01*
X-97599Y32393D01*
X-97610Y32371D01*
X-97621Y32346D01*
X-97654Y32283D01*
X-97694Y32218D01*
X-97749Y32148D01*
X-97808Y32082D01*
X-97881Y32024D01*
X-97884D01*
X-97888Y32016D01*
X-97903Y32013D01*
X-97917Y32002D01*
X-97936Y31991D01*
X-97961Y31980D01*
X-97987Y31969D01*
X-98020Y31954D01*
X-98093Y31929D01*
X-98181Y31907D01*
X-98280Y31892D01*
X-98390Y31885D01*
X-98411D01*
X-98437Y31888D01*
X-98470D01*
X-98510Y31896D01*
X-98554Y31903D01*
X-98605Y31910D01*
X-98660Y31925D01*
X-98715Y31940D01*
X-98777Y31962D01*
X-98836Y31987D01*
X-98895Y32016D01*
X-98953Y32053D01*
X-99008Y32097D01*
X-99056Y32144D01*
X-99103Y32199D01*
X-99107Y32203D01*
X-99111Y32210D01*
X-99121Y32225D01*
X-99132Y32243D01*
X-99147Y32269D01*
X-99162Y32298D01*
X-99176Y32335D01*
X-99195Y32375D01*
X-99213Y32419D01*
X-99228Y32467D01*
X-99242Y32518D01*
X-99257Y32576D01*
X-99268Y32635D01*
X-99279Y32697D01*
X-99282Y32767D01*
X-99286Y32836D01*
Y32840D01*
Y32858D01*
Y32880D01*
X-99282Y32913D01*
X-99279Y32950D01*
X-99275Y32997D01*
X-99268Y33045D01*
X-99257Y33100D01*
X-99228Y33213D01*
X-99209Y33275D01*
X-99187Y33334D01*
X-99158Y33393D01*
X-99125Y33451D01*
X-99089Y33506D01*
X-99048Y33557D01*
X-99045Y33561D01*
X-99037Y33568D01*
X-99023Y33583D01*
X-99004Y33597D01*
X-98982Y33619D01*
X-98953Y33641D01*
X-98920Y33663D01*
X-98880Y33689D01*
X-98840Y33715D01*
X-98792Y33737D01*
X-98741Y33759D01*
X-98690Y33781D01*
X-98631Y33795D01*
X-98569Y33810D01*
X-98503Y33817D01*
X-98437Y33821D01*
X-98397D01*
X-98368Y33817D01*
D02*
G37*
G36*
X170417Y18504D02*
X172075D01*
Y17387D01*
X170417D01*
Y15710D01*
X169272D01*
Y17387D01*
X167614D01*
Y18504D01*
X169272D01*
Y20190D01*
X170417D01*
Y18504D01*
D02*
G37*
G36*
Y-7346D02*
X172075D01*
Y-8463D01*
X170417D01*
Y-10140D01*
X169272D01*
Y-8463D01*
X167614D01*
Y-7346D01*
X169272D01*
Y-5660D01*
X170417D01*
Y-7346D01*
D02*
G37*
%LPC*%
G36*
X-129394Y-55724D02*
X-129412D01*
X-129467Y-55733D01*
X-129550Y-55742D01*
X-129651Y-55770D01*
X-129770Y-55806D01*
X-129889Y-55870D01*
X-130008Y-55953D01*
X-130127Y-56072D01*
X-130136Y-56090D01*
X-130173Y-56136D01*
X-130219Y-56218D01*
X-130274Y-56328D01*
X-130329Y-56475D01*
X-130374Y-56658D01*
X-130411Y-56869D01*
X-130420Y-57107D01*
Y-57116D01*
Y-57144D01*
Y-57180D01*
Y-57226D01*
X-130411Y-57290D01*
Y-57354D01*
X-130393Y-57519D01*
X-130374Y-57693D01*
X-130338Y-57867D01*
X-130283Y-58041D01*
X-130255Y-58115D01*
X-130219Y-58179D01*
Y-58188D01*
X-130200Y-58197D01*
X-130164Y-58252D01*
X-130099Y-58325D01*
X-130008Y-58417D01*
X-129889Y-58508D01*
X-129742Y-58582D01*
X-129577Y-58637D01*
X-129495Y-58646D01*
X-129394Y-58655D01*
X-129376D01*
X-129321Y-58646D01*
X-129238Y-58637D01*
X-129138Y-58609D01*
X-129028Y-58563D01*
X-128909Y-58508D01*
X-128790Y-58417D01*
X-128671Y-58298D01*
X-128661Y-58280D01*
X-128625Y-58234D01*
X-128579Y-58151D01*
X-128515Y-58032D01*
X-128460Y-57876D01*
X-128414Y-57693D01*
X-128377Y-57473D01*
X-128368Y-57226D01*
Y-57217D01*
Y-57189D01*
Y-57153D01*
Y-57098D01*
X-128377Y-57034D01*
X-128387Y-56951D01*
X-128405Y-56786D01*
X-128442Y-56594D01*
X-128487Y-56411D01*
X-128561Y-56228D01*
X-128606Y-56154D01*
X-128661Y-56081D01*
X-128671Y-56063D01*
X-128716Y-56026D01*
X-128771Y-55971D01*
X-128863Y-55898D01*
X-128964Y-55834D01*
X-129092Y-55779D01*
X-129229Y-55742D01*
X-129394Y-55724D01*
D02*
G37*
G36*
X-106971Y-57299D02*
X-106980D01*
X-107016Y-57318D01*
X-107071Y-57327D01*
X-107154Y-57354D01*
X-107255Y-57382D01*
X-107392Y-57418D01*
X-107538Y-57455D01*
X-107722Y-57492D01*
X-107731D01*
X-107740Y-57501D01*
X-107767D01*
X-107804Y-57510D01*
X-107887Y-57528D01*
X-107996Y-57556D01*
X-108106Y-57592D01*
X-108216Y-57629D01*
X-108308Y-57666D01*
X-108381Y-57702D01*
X-108390Y-57711D01*
X-108418Y-57730D01*
X-108454Y-57766D01*
X-108500Y-57822D01*
X-108546Y-57886D01*
X-108583Y-57959D01*
X-108610Y-58041D01*
X-108619Y-58133D01*
Y-58142D01*
Y-58179D01*
X-108610Y-58224D01*
X-108592Y-58289D01*
X-108573Y-58362D01*
X-108546Y-58435D01*
X-108500Y-58508D01*
X-108436Y-58582D01*
X-108427Y-58591D01*
X-108399Y-58609D01*
X-108363Y-58637D01*
X-108299Y-58673D01*
X-108235Y-58710D01*
X-108143Y-58737D01*
X-108051Y-58756D01*
X-107941Y-58765D01*
X-107887D01*
X-107822Y-58756D01*
X-107740Y-58737D01*
X-107648Y-58710D01*
X-107538Y-58673D01*
X-107429Y-58627D01*
X-107319Y-58554D01*
X-107309Y-58545D01*
X-107282Y-58527D01*
X-107245Y-58490D01*
X-107200Y-58444D01*
X-107145Y-58380D01*
X-107099Y-58307D01*
X-107053Y-58234D01*
X-107026Y-58142D01*
Y-58133D01*
X-107016Y-58115D01*
X-107007Y-58069D01*
X-106998Y-58005D01*
X-106989Y-57931D01*
X-106980Y-57822D01*
X-106971Y-57702D01*
Y-57547D01*
Y-57299D01*
D02*
G37*
G36*
X-116909Y-57299D02*
X-116918D01*
X-116955Y-57318D01*
X-117010Y-57327D01*
X-117092Y-57354D01*
X-117193Y-57382D01*
X-117331Y-57418D01*
X-117477Y-57455D01*
X-117660Y-57492D01*
X-117669D01*
X-117678Y-57501D01*
X-117706D01*
X-117743Y-57510D01*
X-117825Y-57528D01*
X-117935Y-57556D01*
X-118045Y-57592D01*
X-118155Y-57629D01*
X-118246Y-57666D01*
X-118320Y-57702D01*
X-118329Y-57712D01*
X-118356Y-57730D01*
X-118393Y-57766D01*
X-118439Y-57822D01*
X-118485Y-57886D01*
X-118521Y-57959D01*
X-118549Y-58041D01*
X-118558Y-58133D01*
Y-58142D01*
Y-58179D01*
X-118549Y-58224D01*
X-118530Y-58289D01*
X-118512Y-58362D01*
X-118485Y-58435D01*
X-118439Y-58508D01*
X-118375Y-58582D01*
X-118366Y-58591D01*
X-118338Y-58609D01*
X-118301Y-58637D01*
X-118237Y-58673D01*
X-118173Y-58710D01*
X-118082Y-58737D01*
X-117990Y-58756D01*
X-117880Y-58765D01*
X-117825D01*
X-117761Y-58756D01*
X-117678Y-58737D01*
X-117587Y-58710D01*
X-117477Y-58673D01*
X-117367Y-58628D01*
X-117257Y-58554D01*
X-117248Y-58545D01*
X-117221Y-58527D01*
X-117184Y-58490D01*
X-117138Y-58444D01*
X-117083Y-58380D01*
X-117037Y-58307D01*
X-116992Y-58234D01*
X-116964Y-58142D01*
Y-58133D01*
X-116955Y-58115D01*
X-116946Y-58069D01*
X-116937Y-58005D01*
X-116927Y-57931D01*
X-116918Y-57822D01*
X-116909Y-57702D01*
Y-57547D01*
Y-57299D01*
D02*
G37*
G36*
X-123321Y-54176D02*
X-124622D01*
Y-55660D01*
X-123376D01*
X-123211Y-55651D01*
X-122927D01*
X-122872Y-55641D01*
X-122817D01*
X-122781Y-55632D01*
X-122717Y-55623D01*
X-122643Y-55596D01*
X-122561Y-55568D01*
X-122469Y-55532D01*
X-122378Y-55476D01*
X-122304Y-55412D01*
X-122295Y-55403D01*
X-122277Y-55376D01*
X-122240Y-55339D01*
X-122204Y-55275D01*
X-122176Y-55202D01*
X-122140Y-55119D01*
X-122121Y-55019D01*
X-122112Y-54909D01*
Y-54899D01*
Y-54863D01*
X-122121Y-54808D01*
X-122130Y-54735D01*
X-122149Y-54661D01*
X-122185Y-54588D01*
X-122222Y-54506D01*
X-122277Y-54432D01*
X-122286Y-54423D01*
X-122304Y-54405D01*
X-122350Y-54368D01*
X-122396Y-54331D01*
X-122469Y-54295D01*
X-122552Y-54258D01*
X-122652Y-54222D01*
X-122772Y-54203D01*
X-122781D01*
X-122817Y-54194D01*
X-122927D01*
X-122982Y-54185D01*
X-123220D01*
X-123321Y-54176D01*
D02*
G37*
G36*
X-123275Y-56722D02*
X-124622D01*
Y-58444D01*
X-123202D01*
X-123056Y-58435D01*
X-122900D01*
X-122762Y-58426D01*
X-122634Y-58417D01*
X-122579D01*
X-122543Y-58408D01*
X-122533D01*
X-122497Y-58399D01*
X-122442Y-58380D01*
X-122369Y-58353D01*
X-122295Y-58316D01*
X-122222Y-58280D01*
X-122140Y-58215D01*
X-122066Y-58151D01*
X-122057Y-58142D01*
X-122039Y-58115D01*
X-122011Y-58069D01*
X-121975Y-58005D01*
X-121938Y-57931D01*
X-121911Y-57831D01*
X-121892Y-57721D01*
X-121883Y-57602D01*
Y-57592D01*
Y-57556D01*
X-121892Y-57501D01*
X-121901Y-57437D01*
X-121920Y-57354D01*
X-121947Y-57281D01*
X-121984Y-57199D01*
X-122029Y-57116D01*
X-122039Y-57107D01*
X-122057Y-57079D01*
X-122084Y-57043D01*
X-122130Y-57006D01*
X-122185Y-56951D01*
X-122258Y-56906D01*
X-122341Y-56860D01*
X-122433Y-56823D01*
X-122442Y-56814D01*
X-122488Y-56805D01*
X-122524Y-56796D01*
X-122561Y-56786D01*
X-122616Y-56777D01*
X-122671Y-56768D01*
X-122744Y-56759D01*
X-122827Y-56750D01*
X-122918D01*
X-123028Y-56741D01*
X-123147Y-56731D01*
X-123275Y-56722D01*
D02*
G37*
G36*
X-81139Y-63638D02*
X-81158D01*
X-81213Y-63647D01*
X-81295Y-63656D01*
X-81396Y-63684D01*
X-81515Y-63721D01*
X-81634Y-63785D01*
X-81753Y-63867D01*
X-81872Y-63986D01*
X-81881Y-64004D01*
X-81918Y-64050D01*
X-81964Y-64133D01*
X-82019Y-64243D01*
X-82074Y-64389D01*
X-82119Y-64572D01*
X-82156Y-64783D01*
X-82165Y-65021D01*
Y-65030D01*
Y-65058D01*
Y-65095D01*
Y-65140D01*
X-82156Y-65204D01*
Y-65269D01*
X-82138Y-65433D01*
X-82119Y-65608D01*
X-82083Y-65781D01*
X-82028Y-65956D01*
X-82000Y-66029D01*
X-81964Y-66093D01*
Y-66102D01*
X-81945Y-66111D01*
X-81909Y-66166D01*
X-81845Y-66240D01*
X-81753Y-66331D01*
X-81634Y-66423D01*
X-81487Y-66496D01*
X-81322Y-66551D01*
X-81240Y-66560D01*
X-81139Y-66569D01*
X-81121D01*
X-81066Y-66560D01*
X-80984Y-66551D01*
X-80883Y-66523D01*
X-80773Y-66478D01*
X-80654Y-66423D01*
X-80535Y-66331D01*
X-80416Y-66212D01*
X-80406Y-66194D01*
X-80370Y-66148D01*
X-80324Y-66066D01*
X-80260Y-65946D01*
X-80205Y-65791D01*
X-80159Y-65608D01*
X-80123Y-65388D01*
X-80113Y-65140D01*
Y-65131D01*
Y-65104D01*
Y-65067D01*
Y-65012D01*
X-80123Y-64948D01*
X-80132Y-64865D01*
X-80150Y-64701D01*
X-80187Y-64508D01*
X-80233Y-64325D01*
X-80306Y-64142D01*
X-80352Y-64069D01*
X-80406Y-63995D01*
X-80416Y-63977D01*
X-80462Y-63940D01*
X-80516Y-63885D01*
X-80608Y-63812D01*
X-80709Y-63748D01*
X-80837Y-63693D01*
X-80974Y-63656D01*
X-81139Y-63638D01*
D02*
G37*
G36*
X-89044Y-65214D02*
X-89053D01*
X-89090Y-65232D01*
X-89145Y-65241D01*
X-89228Y-65269D01*
X-89328Y-65296D01*
X-89466Y-65333D01*
X-89612Y-65369D01*
X-89796Y-65406D01*
X-89805D01*
X-89814Y-65415D01*
X-89841D01*
X-89878Y-65424D01*
X-89960Y-65443D01*
X-90070Y-65470D01*
X-90180Y-65507D01*
X-90290Y-65543D01*
X-90382Y-65580D01*
X-90455Y-65617D01*
X-90464Y-65626D01*
X-90492Y-65644D01*
X-90528Y-65681D01*
X-90574Y-65736D01*
X-90620Y-65800D01*
X-90657Y-65873D01*
X-90684Y-65956D01*
X-90693Y-66047D01*
Y-66056D01*
Y-66093D01*
X-90684Y-66139D01*
X-90666Y-66203D01*
X-90647Y-66276D01*
X-90620Y-66349D01*
X-90574Y-66423D01*
X-90510Y-66496D01*
X-90501Y-66505D01*
X-90473Y-66523D01*
X-90437Y-66551D01*
X-90373Y-66588D01*
X-90308Y-66624D01*
X-90217Y-66652D01*
X-90125Y-66670D01*
X-90015Y-66679D01*
X-89960D01*
X-89896Y-66670D01*
X-89814Y-66652D01*
X-89722Y-66624D01*
X-89612Y-66588D01*
X-89502Y-66542D01*
X-89393Y-66469D01*
X-89383Y-66459D01*
X-89356Y-66441D01*
X-89319Y-66404D01*
X-89273Y-66359D01*
X-89218Y-66294D01*
X-89173Y-66221D01*
X-89127Y-66148D01*
X-89099Y-66056D01*
Y-66047D01*
X-89090Y-66029D01*
X-89081Y-65983D01*
X-89072Y-65919D01*
X-89063Y-65846D01*
X-89053Y-65736D01*
X-89044Y-65617D01*
Y-65461D01*
Y-65214D01*
D02*
G37*
G36*
X-100925Y-62090D02*
X-102226D01*
Y-63574D01*
X-100980D01*
X-100815Y-63565D01*
X-100531D01*
X-100476Y-63556D01*
X-100421D01*
X-100384Y-63547D01*
X-100320Y-63537D01*
X-100247Y-63510D01*
X-100165Y-63482D01*
X-100073Y-63446D01*
X-99981Y-63391D01*
X-99908Y-63327D01*
X-99899Y-63318D01*
X-99881Y-63290D01*
X-99844Y-63253D01*
X-99807Y-63189D01*
X-99780Y-63116D01*
X-99743Y-63033D01*
X-99725Y-62933D01*
X-99716Y-62823D01*
Y-62814D01*
Y-62777D01*
X-99725Y-62722D01*
X-99734Y-62649D01*
X-99752Y-62576D01*
X-99789Y-62502D01*
X-99826Y-62420D01*
X-99881Y-62347D01*
X-99890Y-62337D01*
X-99908Y-62319D01*
X-99954Y-62282D01*
X-100000Y-62246D01*
X-100073Y-62209D01*
X-100155Y-62173D01*
X-100256Y-62136D01*
X-100375Y-62117D01*
X-100384D01*
X-100421Y-62108D01*
X-100531D01*
X-100586Y-62099D01*
X-100824D01*
X-100925Y-62090D01*
D02*
G37*
G36*
X-100879Y-64636D02*
X-102226D01*
Y-66359D01*
X-100806D01*
X-100659Y-66349D01*
X-100504D01*
X-100366Y-66340D01*
X-100238Y-66331D01*
X-100183D01*
X-100146Y-66322D01*
X-100137D01*
X-100101Y-66313D01*
X-100046Y-66294D01*
X-99972Y-66267D01*
X-99899Y-66230D01*
X-99826Y-66194D01*
X-99743Y-66130D01*
X-99670Y-66066D01*
X-99661Y-66056D01*
X-99642Y-66029D01*
X-99615Y-65983D01*
X-99578Y-65919D01*
X-99542Y-65846D01*
X-99514Y-65745D01*
X-99496Y-65635D01*
X-99487Y-65516D01*
Y-65507D01*
Y-65470D01*
X-99496Y-65415D01*
X-99505Y-65351D01*
X-99523Y-65269D01*
X-99551Y-65195D01*
X-99588Y-65113D01*
X-99633Y-65030D01*
X-99642Y-65021D01*
X-99661Y-64994D01*
X-99688Y-64957D01*
X-99734Y-64921D01*
X-99789Y-64865D01*
X-99862Y-64820D01*
X-99945Y-64774D01*
X-100036Y-64737D01*
X-100046Y-64728D01*
X-100091Y-64719D01*
X-100128Y-64710D01*
X-100165Y-64701D01*
X-100220Y-64692D01*
X-100275Y-64682D01*
X-100348Y-64673D01*
X-100430Y-64664D01*
X-100522D01*
X-100632Y-64655D01*
X-100751Y-64646D01*
X-100879Y-64636D01*
D02*
G37*
G36*
X-113831Y-62905D02*
X-115297Y-65076D01*
X-113831D01*
Y-62905D01*
D02*
G37*
G36*
X-129861Y-62521D02*
X-130731Y-64902D01*
X-128973D01*
X-129861Y-62521D01*
D02*
G37*
G36*
X-94971Y-63693D02*
X-95017D01*
X-95053Y-63702D01*
X-95145Y-63711D01*
X-95255Y-63739D01*
X-95383Y-63785D01*
X-95521Y-63849D01*
X-95658Y-63940D01*
X-95786Y-64069D01*
X-95795Y-64087D01*
X-95832Y-64133D01*
X-95887Y-64224D01*
X-95942Y-64334D01*
X-96006Y-64490D01*
X-96052Y-64664D01*
X-96088Y-64875D01*
X-96107Y-65122D01*
Y-65131D01*
Y-65149D01*
Y-65186D01*
X-96098Y-65232D01*
Y-65296D01*
X-96088Y-65360D01*
X-96070Y-65507D01*
X-96024Y-65681D01*
X-95969Y-65855D01*
X-95896Y-66029D01*
X-95786Y-66175D01*
X-95768Y-66194D01*
X-95731Y-66230D01*
X-95658Y-66294D01*
X-95557Y-66359D01*
X-95438Y-66423D01*
X-95301Y-66487D01*
X-95145Y-66523D01*
X-94971Y-66542D01*
X-94925D01*
X-94889Y-66533D01*
X-94806Y-66523D01*
X-94687Y-66496D01*
X-94568Y-66450D01*
X-94431Y-66386D01*
X-94293Y-66294D01*
X-94165Y-66175D01*
X-94147Y-66157D01*
X-94110Y-66111D01*
X-94064Y-66020D01*
X-94000Y-65901D01*
X-93936Y-65754D01*
X-93890Y-65571D01*
X-93853Y-65360D01*
X-93835Y-65113D01*
Y-65104D01*
Y-65085D01*
Y-65049D01*
X-93844Y-65003D01*
Y-64948D01*
X-93853Y-64875D01*
X-93872Y-64728D01*
X-93918Y-64563D01*
X-93972Y-64389D01*
X-94055Y-64215D01*
X-94165Y-64069D01*
X-94183Y-64050D01*
X-94220Y-64014D01*
X-94293Y-63950D01*
X-94385Y-63876D01*
X-94504Y-63812D01*
X-94641Y-63748D01*
X-94797Y-63711D01*
X-94971Y-63693D01*
D02*
G37*
G36*
X-119126Y-62026D02*
X-119162D01*
X-119208Y-62035D01*
X-119263Y-62044D01*
X-119327Y-62063D01*
X-119392Y-62090D01*
X-119465Y-62127D01*
X-119529Y-62173D01*
X-119538Y-62182D01*
X-119556Y-62200D01*
X-119584Y-62237D01*
X-119621Y-62292D01*
X-119666Y-62365D01*
X-119712Y-62447D01*
X-119758Y-62557D01*
X-119794Y-62685D01*
Y-62695D01*
X-119804Y-62704D01*
Y-62740D01*
X-119813Y-62777D01*
X-119822Y-62832D01*
X-119831Y-62896D01*
X-119840Y-62969D01*
X-119850Y-63061D01*
X-119868Y-63171D01*
X-119877Y-63290D01*
X-119886Y-63418D01*
X-119895Y-63565D01*
X-119904Y-63721D01*
Y-63895D01*
X-119914Y-64087D01*
Y-64288D01*
Y-64298D01*
Y-64334D01*
Y-64398D01*
Y-64472D01*
Y-64563D01*
X-119904Y-64673D01*
Y-64783D01*
X-119895Y-64911D01*
X-119886Y-65168D01*
X-119868Y-65424D01*
X-119859Y-65543D01*
X-119840Y-65653D01*
X-119822Y-65754D01*
X-119804Y-65846D01*
X-119794Y-65864D01*
X-119785Y-65910D01*
X-119758Y-65983D01*
X-119730Y-66075D01*
X-119685Y-66166D01*
X-119639Y-66258D01*
X-119584Y-66340D01*
X-119529Y-66404D01*
X-119520Y-66414D01*
X-119501Y-66423D01*
X-119465Y-66450D01*
X-119410Y-66469D01*
X-119355Y-66496D01*
X-119281Y-66523D01*
X-119208Y-66533D01*
X-119126Y-66542D01*
X-119089D01*
X-119043Y-66533D01*
X-118998Y-66523D01*
X-118933Y-66505D01*
X-118869Y-66487D01*
X-118805Y-66450D01*
X-118741Y-66404D01*
X-118732Y-66395D01*
X-118714Y-66377D01*
X-118677Y-66340D01*
X-118640Y-66285D01*
X-118595Y-66212D01*
X-118549Y-66130D01*
X-118503Y-66020D01*
X-118466Y-65891D01*
Y-65882D01*
X-118457Y-65873D01*
Y-65837D01*
X-118448Y-65800D01*
X-118439Y-65745D01*
X-118430Y-65681D01*
X-118411Y-65608D01*
X-118402Y-65516D01*
X-118393Y-65415D01*
X-118375Y-65296D01*
X-118366Y-65168D01*
X-118356Y-65021D01*
X-118347Y-64856D01*
Y-64682D01*
X-118338Y-64490D01*
Y-64288D01*
Y-64279D01*
Y-64243D01*
Y-64179D01*
Y-64105D01*
Y-64014D01*
X-118347Y-63913D01*
Y-63794D01*
X-118356Y-63675D01*
X-118366Y-63418D01*
X-118384Y-63162D01*
X-118402Y-63043D01*
X-118421Y-62924D01*
X-118439Y-62823D01*
X-118457Y-62740D01*
Y-62731D01*
X-118466Y-62722D01*
X-118475Y-62676D01*
X-118503Y-62603D01*
X-118530Y-62511D01*
X-118576Y-62420D01*
X-118622Y-62319D01*
X-118677Y-62237D01*
X-118741Y-62173D01*
X-118750Y-62163D01*
X-118769Y-62145D01*
X-118805Y-62127D01*
X-118851Y-62099D01*
X-118906Y-62072D01*
X-118970Y-62044D01*
X-119043Y-62035D01*
X-119126Y-62026D01*
D02*
G37*
G36*
X-97734Y37217D02*
X-97742D01*
X-97764Y37214D01*
X-97796Y37210D01*
X-97840Y37199D01*
X-97888Y37184D01*
X-97936Y37159D01*
X-97987Y37126D01*
X-98034Y37078D01*
X-98038Y37071D01*
X-98053Y37053D01*
X-98071Y37020D01*
X-98093Y36976D01*
X-98115Y36917D01*
X-98133Y36844D01*
X-98148Y36760D01*
X-98152Y36665D01*
Y36661D01*
Y36650D01*
Y36635D01*
X-98148Y36613D01*
Y36588D01*
X-98144Y36558D01*
X-98137Y36489D01*
X-98122Y36416D01*
X-98100Y36339D01*
X-98071Y36266D01*
X-98053Y36233D01*
X-98031Y36203D01*
X-98023Y36196D01*
X-98009Y36181D01*
X-97983Y36156D01*
X-97947Y36130D01*
X-97903Y36105D01*
X-97851Y36079D01*
X-97793Y36064D01*
X-97727Y36057D01*
X-97720D01*
X-97698Y36061D01*
X-97665Y36064D01*
X-97628Y36075D01*
X-97581Y36090D01*
X-97533Y36116D01*
X-97485Y36149D01*
X-97442Y36192D01*
X-97438Y36200D01*
X-97423Y36218D01*
X-97405Y36251D01*
X-97394Y36273D01*
X-97383Y36299D01*
X-97372Y36328D01*
X-97361Y36361D01*
X-97350Y36397D01*
X-97343Y36441D01*
X-97335Y36485D01*
X-97328Y36533D01*
X-97324Y36584D01*
Y36643D01*
Y36646D01*
Y36657D01*
Y36672D01*
Y36690D01*
X-97328Y36716D01*
X-97332Y36741D01*
X-97339Y36804D01*
X-97354Y36877D01*
X-97376Y36946D01*
X-97405Y37016D01*
X-97445Y37075D01*
X-97449Y37082D01*
X-97467Y37096D01*
X-97493Y37118D01*
X-97526Y37148D01*
X-97566Y37173D01*
X-97617Y37195D01*
X-97672Y37210D01*
X-97734Y37217D01*
D02*
G37*
G36*
X-88863Y36599D02*
X-88866D01*
X-88881Y36591D01*
X-88903Y36588D01*
X-88936Y36577D01*
X-88976Y36566D01*
X-89031Y36551D01*
X-89089Y36536D01*
X-89163Y36522D01*
X-89166D01*
X-89170Y36518D01*
X-89181D01*
X-89196Y36514D01*
X-89228Y36507D01*
X-89272Y36496D01*
X-89316Y36481D01*
X-89360Y36467D01*
X-89397Y36452D01*
X-89426Y36438D01*
X-89430Y36434D01*
X-89441Y36427D01*
X-89455Y36412D01*
X-89474Y36390D01*
X-89492Y36364D01*
X-89507Y36335D01*
X-89518Y36302D01*
X-89521Y36266D01*
Y36262D01*
Y36247D01*
X-89518Y36229D01*
X-89510Y36203D01*
X-89503Y36174D01*
X-89492Y36145D01*
X-89474Y36116D01*
X-89448Y36086D01*
X-89444Y36083D01*
X-89433Y36075D01*
X-89419Y36064D01*
X-89393Y36050D01*
X-89368Y36035D01*
X-89331Y36024D01*
X-89294Y36017D01*
X-89250Y36013D01*
X-89228D01*
X-89203Y36017D01*
X-89170Y36024D01*
X-89133Y36035D01*
X-89089Y36050D01*
X-89046Y36068D01*
X-89002Y36097D01*
X-88998Y36101D01*
X-88987Y36108D01*
X-88972Y36123D01*
X-88954Y36141D01*
X-88932Y36167D01*
X-88914Y36196D01*
X-88895Y36225D01*
X-88884Y36262D01*
Y36266D01*
X-88881Y36273D01*
X-88877Y36291D01*
X-88873Y36317D01*
X-88870Y36346D01*
X-88866Y36390D01*
X-88863Y36438D01*
Y36500D01*
Y36599D01*
D02*
G37*
G36*
X-93415Y37206D02*
X-93434D01*
X-93449Y37203D01*
X-93485Y37199D01*
X-93529Y37188D01*
X-93580Y37170D01*
X-93635Y37144D01*
X-93690Y37107D01*
X-93741Y37056D01*
X-93745Y37049D01*
X-93760Y37031D01*
X-93782Y36994D01*
X-93804Y36950D01*
X-93829Y36888D01*
X-93847Y36818D01*
X-93862Y36734D01*
X-93869Y36635D01*
Y36632D01*
Y36624D01*
Y36610D01*
X-93866Y36591D01*
Y36566D01*
X-93862Y36540D01*
X-93855Y36481D01*
X-93836Y36412D01*
X-93814Y36342D01*
X-93785Y36273D01*
X-93741Y36214D01*
X-93734Y36207D01*
X-93719Y36192D01*
X-93690Y36167D01*
X-93650Y36141D01*
X-93602Y36116D01*
X-93547Y36090D01*
X-93485Y36075D01*
X-93415Y36068D01*
X-93397D01*
X-93383Y36072D01*
X-93350Y36075D01*
X-93302Y36086D01*
X-93255Y36105D01*
X-93200Y36130D01*
X-93145Y36167D01*
X-93093Y36214D01*
X-93086Y36222D01*
X-93072Y36240D01*
X-93053Y36277D01*
X-93028Y36324D01*
X-93002Y36383D01*
X-92984Y36456D01*
X-92969Y36540D01*
X-92962Y36639D01*
Y36643D01*
Y36650D01*
Y36665D01*
X-92965Y36683D01*
Y36705D01*
X-92969Y36734D01*
X-92976Y36793D01*
X-92995Y36858D01*
X-93017Y36928D01*
X-93050Y36998D01*
X-93093Y37056D01*
X-93101Y37064D01*
X-93115Y37078D01*
X-93145Y37104D01*
X-93181Y37133D01*
X-93229Y37159D01*
X-93284Y37184D01*
X-93346Y37199D01*
X-93415Y37206D01*
D02*
G37*
G36*
X-100260Y37869D02*
X-100289D01*
X-100315Y37865D01*
X-100340Y37861D01*
X-100373Y37858D01*
X-100446Y37843D01*
X-100527Y37814D01*
X-100571Y37799D01*
X-100615Y37777D01*
X-100655Y37752D01*
X-100699Y37722D01*
X-100739Y37689D01*
X-100776Y37649D01*
X-100779Y37645D01*
X-100783Y37638D01*
X-100794Y37627D01*
X-100805Y37609D01*
X-100820Y37583D01*
X-100838Y37558D01*
X-100856Y37521D01*
X-100871Y37484D01*
X-100889Y37440D01*
X-100908Y37389D01*
X-100926Y37338D01*
X-100941Y37276D01*
X-100952Y37214D01*
X-100962Y37144D01*
X-100966Y37067D01*
X-100970Y36987D01*
Y36983D01*
Y36968D01*
Y36946D01*
X-100966Y36913D01*
X-100962Y36880D01*
X-100959Y36837D01*
X-100952Y36793D01*
X-100944Y36741D01*
X-100922Y36635D01*
X-100886Y36525D01*
X-100864Y36471D01*
X-100838Y36419D01*
X-100805Y36372D01*
X-100772Y36328D01*
X-100768Y36324D01*
X-100761Y36317D01*
X-100750Y36306D01*
X-100735Y36295D01*
X-100717Y36277D01*
X-100692Y36258D01*
X-100662Y36236D01*
X-100633Y36218D01*
X-100560Y36174D01*
X-100472Y36141D01*
X-100421Y36127D01*
X-100370Y36116D01*
X-100318Y36108D01*
X-100260Y36105D01*
X-100230D01*
X-100208Y36108D01*
X-100183Y36112D01*
X-100154Y36116D01*
X-100080Y36134D01*
X-100000Y36160D01*
X-99960Y36178D01*
X-99916Y36196D01*
X-99875Y36222D01*
X-99831Y36251D01*
X-99791Y36284D01*
X-99755Y36324D01*
X-99751Y36328D01*
X-99747Y36335D01*
X-99736Y36346D01*
X-99722Y36364D01*
X-99707Y36390D01*
X-99692Y36419D01*
X-99674Y36452D01*
X-99652Y36492D01*
X-99634Y36536D01*
X-99616Y36588D01*
X-99601Y36643D01*
X-99586Y36701D01*
X-99572Y36767D01*
X-99561Y36837D01*
X-99557Y36913D01*
X-99553Y36994D01*
Y36998D01*
Y37012D01*
Y37034D01*
X-99557Y37067D01*
X-99561Y37104D01*
X-99564Y37144D01*
X-99568Y37192D01*
X-99579Y37239D01*
X-99601Y37345D01*
X-99634Y37455D01*
X-99656Y37510D01*
X-99681Y37558D01*
X-99714Y37605D01*
X-99747Y37649D01*
X-99751Y37653D01*
X-99755Y37660D01*
X-99766Y37671D01*
X-99784Y37682D01*
X-99802Y37700D01*
X-99824Y37719D01*
X-99853Y37737D01*
X-99883Y37759D01*
X-99919Y37781D01*
X-99956Y37799D01*
X-100044Y37836D01*
X-100095Y37847D01*
X-100146Y37858D01*
X-100201Y37865D01*
X-100260Y37869D01*
D02*
G37*
G36*
X-78761Y34055D02*
X-79354D01*
Y33404D01*
X-78852D01*
X-78776Y33407D01*
X-78699Y33411D01*
X-78622Y33415D01*
X-78589Y33418D01*
X-78560Y33422D01*
X-78534Y33429D01*
X-78512Y33433D01*
X-78508D01*
X-78497Y33440D01*
X-78479Y33447D01*
X-78457Y33458D01*
X-78435Y33473D01*
X-78409Y33491D01*
X-78388Y33517D01*
X-78366Y33543D01*
X-78362Y33546D01*
X-78358Y33557D01*
X-78347Y33572D01*
X-78336Y33594D01*
X-78329Y33623D01*
X-78318Y33656D01*
X-78314Y33693D01*
X-78311Y33733D01*
Y33740D01*
Y33755D01*
X-78314Y33781D01*
X-78318Y33810D01*
X-78329Y33843D01*
X-78340Y33876D01*
X-78358Y33912D01*
X-78380Y33942D01*
X-78384Y33945D01*
X-78391Y33956D01*
X-78409Y33967D01*
X-78431Y33985D01*
X-78457Y34004D01*
X-78490Y34018D01*
X-78530Y34033D01*
X-78574Y34044D01*
X-78578D01*
X-78589Y34048D01*
X-78611D01*
X-78647Y34051D01*
X-78724D01*
X-78761Y34055D01*
D02*
G37*
G36*
X-88387Y32814D02*
X-88390D01*
X-88405Y32807D01*
X-88427Y32803D01*
X-88460Y32792D01*
X-88500Y32781D01*
X-88555Y32767D01*
X-88614Y32752D01*
X-88687Y32737D01*
X-88691D01*
X-88694Y32734D01*
X-88705D01*
X-88720Y32730D01*
X-88753Y32723D01*
X-88797Y32712D01*
X-88841Y32697D01*
X-88884Y32682D01*
X-88921Y32668D01*
X-88950Y32653D01*
X-88954Y32649D01*
X-88965Y32642D01*
X-88980Y32628D01*
X-88998Y32606D01*
X-89016Y32580D01*
X-89031Y32551D01*
X-89042Y32518D01*
X-89046Y32481D01*
Y32478D01*
Y32463D01*
X-89042Y32445D01*
X-89034Y32419D01*
X-89027Y32390D01*
X-89016Y32360D01*
X-88998Y32331D01*
X-88972Y32302D01*
X-88969Y32298D01*
X-88958Y32291D01*
X-88943Y32280D01*
X-88917Y32265D01*
X-88892Y32251D01*
X-88855Y32240D01*
X-88819Y32232D01*
X-88775Y32229D01*
X-88753D01*
X-88727Y32232D01*
X-88694Y32240D01*
X-88657Y32251D01*
X-88614Y32265D01*
X-88570Y32283D01*
X-88526Y32313D01*
X-88522Y32316D01*
X-88511Y32324D01*
X-88497Y32338D01*
X-88478Y32357D01*
X-88456Y32382D01*
X-88438Y32412D01*
X-88420Y32441D01*
X-88409Y32478D01*
Y32481D01*
X-88405Y32489D01*
X-88401Y32507D01*
X-88398Y32532D01*
X-88394Y32562D01*
X-88390Y32606D01*
X-88387Y32653D01*
Y32715D01*
Y32814D01*
D02*
G37*
G36*
X-68312Y33422D02*
X-68330D01*
X-68344Y33418D01*
X-68381Y33415D01*
X-68425Y33404D01*
X-68476Y33385D01*
X-68531Y33360D01*
X-68586Y33323D01*
X-68637Y33272D01*
X-68641Y33264D01*
X-68656Y33246D01*
X-68678Y33209D01*
X-68700Y33166D01*
X-68725Y33103D01*
X-68743Y33034D01*
X-68758Y32950D01*
X-68765Y32851D01*
Y32847D01*
Y32840D01*
Y32825D01*
X-68762Y32807D01*
Y32781D01*
X-68758Y32756D01*
X-68751Y32697D01*
X-68733Y32628D01*
X-68711Y32558D01*
X-68681Y32489D01*
X-68637Y32430D01*
X-68630Y32423D01*
X-68615Y32408D01*
X-68586Y32382D01*
X-68546Y32357D01*
X-68498Y32331D01*
X-68443Y32305D01*
X-68381Y32291D01*
X-68312Y32283D01*
X-68293D01*
X-68279Y32287D01*
X-68246Y32291D01*
X-68198Y32302D01*
X-68151Y32320D01*
X-68096Y32346D01*
X-68041Y32382D01*
X-67989Y32430D01*
X-67982Y32437D01*
X-67967Y32456D01*
X-67949Y32492D01*
X-67924Y32540D01*
X-67898Y32598D01*
X-67880Y32671D01*
X-67865Y32756D01*
X-67858Y32855D01*
Y32858D01*
Y32866D01*
Y32880D01*
X-67861Y32898D01*
Y32920D01*
X-67865Y32950D01*
X-67872Y33008D01*
X-67891Y33074D01*
X-67913Y33144D01*
X-67946Y33213D01*
X-67989Y33272D01*
X-67997Y33279D01*
X-68011Y33294D01*
X-68041Y33319D01*
X-68077Y33349D01*
X-68125Y33374D01*
X-68180Y33400D01*
X-68242Y33415D01*
X-68312Y33422D01*
D02*
G37*
G36*
X-76558Y33444D02*
X-76583D01*
X-76613Y33436D01*
X-76653Y33429D01*
X-76693Y33415D01*
X-76737Y33396D01*
X-76784Y33367D01*
X-76825Y33327D01*
X-76828Y33323D01*
X-76839Y33305D01*
X-76858Y33279D01*
X-76876Y33242D01*
X-76898Y33198D01*
X-76913Y33144D01*
X-76924Y33081D01*
X-76927Y33012D01*
X-76192D01*
Y33015D01*
Y33023D01*
Y33030D01*
X-76195Y33045D01*
X-76199Y33085D01*
X-76210Y33129D01*
X-76221Y33180D01*
X-76243Y33235D01*
X-76268Y33286D01*
X-76305Y33330D01*
X-76309Y33334D01*
X-76323Y33349D01*
X-76345Y33367D01*
X-76375Y33389D01*
X-76411Y33407D01*
X-76455Y33426D01*
X-76503Y33440D01*
X-76558Y33444D01*
D02*
G37*
G36*
X-84401Y33422D02*
X-84419D01*
X-84434Y33418D01*
X-84470Y33415D01*
X-84514Y33404D01*
X-84566Y33385D01*
X-84620Y33360D01*
X-84675Y33323D01*
X-84727Y33272D01*
X-84730Y33264D01*
X-84745Y33246D01*
X-84767Y33209D01*
X-84789Y33166D01*
X-84815Y33103D01*
X-84833Y33034D01*
X-84847Y32950D01*
X-84855Y32851D01*
Y32847D01*
Y32840D01*
Y32825D01*
X-84851Y32807D01*
Y32781D01*
X-84847Y32756D01*
X-84840Y32697D01*
X-84822Y32628D01*
X-84800Y32558D01*
X-84771Y32489D01*
X-84727Y32430D01*
X-84719Y32423D01*
X-84705Y32408D01*
X-84675Y32382D01*
X-84635Y32357D01*
X-84588Y32331D01*
X-84533Y32305D01*
X-84470Y32291D01*
X-84401Y32283D01*
X-84383D01*
X-84368Y32287D01*
X-84335Y32291D01*
X-84288Y32302D01*
X-84240Y32320D01*
X-84185Y32346D01*
X-84130Y32382D01*
X-84079Y32430D01*
X-84071Y32437D01*
X-84057Y32456D01*
X-84039Y32492D01*
X-84013Y32540D01*
X-83987Y32598D01*
X-83969Y32671D01*
X-83954Y32756D01*
X-83947Y32855D01*
Y32858D01*
Y32866D01*
Y32880D01*
X-83951Y32898D01*
Y32920D01*
X-83954Y32950D01*
X-83962Y33008D01*
X-83980Y33074D01*
X-84002Y33144D01*
X-84035Y33213D01*
X-84079Y33272D01*
X-84086Y33279D01*
X-84101Y33294D01*
X-84130Y33319D01*
X-84167Y33349D01*
X-84214Y33374D01*
X-84269Y33400D01*
X-84331Y33415D01*
X-84401Y33422D01*
D02*
G37*
G36*
X-98408Y33444D02*
X-98433D01*
X-98463Y33436D01*
X-98503Y33429D01*
X-98543Y33415D01*
X-98587Y33396D01*
X-98635Y33367D01*
X-98675Y33327D01*
X-98679Y33323D01*
X-98690Y33305D01*
X-98708Y33279D01*
X-98726Y33242D01*
X-98748Y33198D01*
X-98763Y33144D01*
X-98774Y33081D01*
X-98777Y33012D01*
X-98042D01*
Y33015D01*
Y33023D01*
Y33030D01*
X-98045Y33045D01*
X-98049Y33085D01*
X-98060Y33129D01*
X-98071Y33180D01*
X-98093Y33235D01*
X-98119Y33286D01*
X-98155Y33330D01*
X-98159Y33334D01*
X-98173Y33349D01*
X-98195Y33367D01*
X-98225Y33389D01*
X-98261Y33407D01*
X-98305Y33426D01*
X-98353Y33440D01*
X-98408Y33444D01*
D02*
G37*
%LPD*%
D10*
X97587Y-8138D02*
G03*
X97587Y-8138I-1181J0D01*
G01*
D11*
X101839Y228D02*
G03*
X101839Y228I-492J0D01*
G01*
D12*
X90953Y12032D02*
Y15969D01*
X85047Y12032D02*
Y15969D01*
X80658Y-16799D02*
X80658Y-4201D01*
X100343Y-16799D02*
Y-4201D01*
X80658Y-16799D02*
X100343D01*
X80658Y-4201D02*
X100343D01*
X75547Y12032D02*
Y15969D01*
X81453Y12032D02*
Y15969D01*
X156417Y2874D02*
Y22874D01*
Y2874D02*
X166417D01*
Y22874D01*
X156417D02*
X166417D01*
X156417Y-22874D02*
Y-2874D01*
Y-22874D02*
X166417D01*
Y-2874D01*
X156417D02*
X166417D01*
D13*
X-113701Y-30000D02*
Y30000D01*
X-184252Y-30000D02*
X-113701D01*
X-184252D02*
Y30000D01*
X-113701D01*
X-61024Y-45276D02*
X61024D01*
Y-78740D02*
Y-23976D01*
X-61024Y-78740D02*
X61024D01*
X-61024D02*
Y-23976D01*
X61024D01*
X-61417Y78740D02*
X60630D01*
X-61024Y47913D02*
X61024D01*
Y101614D01*
X-61024D02*
X61024D01*
X-61024Y47913D02*
Y101614D01*
Y68819D02*
X61024D01*
X-104662Y12611D02*
X-102434D01*
X-106675Y10599D02*
X-104662Y12611D01*
X-106675Y-1263D02*
Y10599D01*
Y-1263D02*
X-104950Y-2989D01*
X-102721D01*
X-91147Y4632D02*
X-88775D01*
X-87265Y3122D01*
Y-9783D02*
Y3122D01*
X-89005Y-11524D02*
X-87265Y-9783D01*
X-91293Y-11524D02*
X-89005D01*
X96644Y-39759D02*
X95977Y-40426D01*
Y-41758D01*
X96644Y-42425D01*
X99309D01*
X99976Y-41758D01*
Y-40426D01*
X99309Y-39759D01*
X96644Y-38426D02*
X95977Y-37760D01*
Y-36427D01*
X96644Y-35760D01*
X97310D01*
X97977Y-36427D01*
Y-37093D01*
Y-36427D01*
X98643Y-35760D01*
X99309D01*
X99976Y-36427D01*
Y-37760D01*
X99309Y-38426D01*
X91224Y-39865D02*
X90557Y-40531D01*
Y-41864D01*
X91224Y-42531D01*
X93889D01*
X94556Y-41864D01*
Y-40531D01*
X93889Y-39865D01*
X94556Y-35866D02*
Y-38532D01*
X91890Y-35866D01*
X91224D01*
X90557Y-36533D01*
Y-37865D01*
X91224Y-38532D01*
X85483Y-39288D02*
X84817Y-39955D01*
Y-41288D01*
X85483Y-41954D01*
X88149D01*
X88816Y-41288D01*
Y-39955D01*
X88149Y-39288D01*
X88816Y-37955D02*
Y-36622D01*
Y-37289D01*
X84817D01*
X85483Y-37955D01*
X80370Y11151D02*
Y7819D01*
X81036Y7153D01*
X82369D01*
X83036Y7819D01*
Y11151D01*
X84369Y7153D02*
X85702D01*
X85035D01*
Y11151D01*
X84369Y10485D01*
X75105Y25798D02*
Y29796D01*
X77104D01*
X77771Y29130D01*
Y27797D01*
X77104Y27130D01*
X75105D01*
X76438D02*
X77771Y25798D01*
X79103Y26464D02*
X79770Y25798D01*
X81103D01*
X81769Y26464D01*
Y29130D01*
X81103Y29796D01*
X79770D01*
X79103Y29130D01*
Y28463D01*
X79770Y27797D01*
X81769D01*
X103179Y15025D02*
Y19024D01*
X105178D01*
X105844Y18358D01*
Y17025D01*
X105178Y16358D01*
X103179D01*
X104511D02*
X105844Y15025D01*
X107177Y18358D02*
X107844Y19024D01*
X109177D01*
X109843Y18358D01*
Y17691D01*
X109177Y17025D01*
X109843Y16358D01*
Y15692D01*
X109177Y15025D01*
X107844D01*
X107177Y15692D01*
Y16358D01*
X107844Y17025D01*
X107177Y17691D01*
Y18358D01*
X107844Y17025D02*
X109177D01*
X84522Y25738D02*
Y29737D01*
X86522D01*
X87188Y29070D01*
Y27737D01*
X86522Y27071D01*
X84522D01*
X85855D02*
X87188Y25738D01*
X88521Y29737D02*
X91187D01*
Y29070D01*
X88521Y26404D01*
Y25738D01*
X103343Y8386D02*
Y12385D01*
X105343D01*
X106009Y11718D01*
Y10385D01*
X105343Y9719D01*
X103343D01*
X104676D02*
X106009Y8386D01*
X110008Y12385D02*
X108675Y11718D01*
X107342Y10385D01*
Y9052D01*
X108008Y8386D01*
X109341D01*
X110008Y9052D01*
Y9719D01*
X109341Y10385D01*
X107342D01*
X-89300Y25000D02*
Y28999D01*
X-87301D01*
X-86634Y28332D01*
Y26999D01*
X-87301Y26333D01*
X-89300D01*
X-87967D02*
X-86634Y25000D01*
X-85301Y28332D02*
X-84635Y28999D01*
X-83302D01*
X-82635Y28332D01*
Y27666D01*
X-83302Y26999D01*
X-83968D01*
X-83302D01*
X-82635Y26333D01*
Y25666D01*
X-83302Y25000D01*
X-84635D01*
X-85301Y25666D01*
X-59119Y23324D02*
X-60452D01*
X-59785D01*
Y19992D01*
X-60452Y19325D01*
X-61118D01*
X-61785Y19992D01*
X-57786Y19325D02*
X-56453D01*
X-57120D01*
Y23324D01*
X-57786Y22657D01*
X-61167Y40797D02*
Y44796D01*
X-59168D01*
X-58501Y44129D01*
Y42796D01*
X-59168Y42130D01*
X-61167D01*
X-57168Y40797D02*
X-55835D01*
X-56502D01*
Y44796D01*
X-57168Y44129D01*
X-60500Y-20500D02*
Y-16501D01*
X-58501D01*
X-57834Y-17168D01*
Y-18501D01*
X-58501Y-19167D01*
X-60500D01*
X-53835Y-20500D02*
X-56501D01*
X-53835Y-17834D01*
Y-17168D01*
X-54502Y-16501D01*
X-55835D01*
X-56501Y-17168D01*
X173800Y3500D02*
X169801D01*
Y5499D01*
X170468Y6166D01*
X171801D01*
X172467Y5499D01*
Y3500D01*
X170468Y7499D02*
X169801Y8165D01*
Y9498D01*
X170468Y10165D01*
X171134D01*
X171801Y9498D01*
Y8832D01*
Y9498D01*
X172467Y10165D01*
X173134D01*
X173800Y9498D01*
Y8165D01*
X173134Y7499D01*
X146999Y15898D02*
X143000D01*
Y12899D01*
X144999Y13899D01*
X145999D01*
X146999Y12899D01*
Y10900D01*
X145999Y9900D01*
X144000D01*
X143000Y10900D01*
X148998Y15898D02*
Y11899D01*
X150997Y9900D01*
X152997Y11899D01*
Y15898D01*
X173800Y-22300D02*
X169801D01*
Y-20301D01*
X170468Y-19634D01*
X171801D01*
X172467Y-20301D01*
Y-22300D01*
X173800Y-16302D02*
X169801D01*
X171801Y-18301D01*
Y-15635D01*
X132000Y-10902D02*
X133000Y-9902D01*
X134999D01*
X135999Y-10902D01*
Y-11901D01*
X134999Y-12901D01*
X133999D01*
X134999D01*
X135999Y-13901D01*
Y-14900D01*
X134999Y-15900D01*
X133000D01*
X132000Y-14900D01*
X137998Y-15900D02*
Y-14900D01*
X138998D01*
Y-15900D01*
X137998D01*
X142996Y-10902D02*
X143996Y-9902D01*
X145995D01*
X146995Y-10902D01*
Y-11901D01*
X145995Y-12901D01*
X144996D01*
X145995D01*
X146995Y-13901D01*
Y-14900D01*
X145995Y-15900D01*
X143996D01*
X142996Y-14900D01*
X148995Y-9902D02*
Y-13901D01*
X150994Y-15900D01*
X152993Y-13901D01*
Y-9902D01*
X-85000Y10800D02*
Y14799D01*
X-83001D01*
X-82334Y14132D01*
Y12799D01*
X-83001Y12133D01*
X-85000D01*
X-83667D02*
X-82334Y10800D01*
X-81001D02*
X-79668D01*
X-80335D01*
Y14799D01*
X-81001Y14132D01*
X-85000Y-5400D02*
Y-1401D01*
X-83001D01*
X-82334Y-2068D01*
Y-3401D01*
X-83001Y-4067D01*
X-85000D01*
X-83667D02*
X-82334Y-5400D01*
X-78335D02*
X-81001D01*
X-78335Y-2734D01*
Y-2068D01*
X-79002Y-1401D01*
X-80335D01*
X-81001Y-2068D01*
X-85000Y-13500D02*
Y-9501D01*
X-83001D01*
X-82334Y-10168D01*
Y-11501D01*
X-83001Y-12167D01*
X-85000D01*
X-83667D02*
X-82334Y-13500D01*
X-79002D02*
Y-9501D01*
X-81001Y-11501D01*
X-78335D01*
X-85000Y2700D02*
Y6699D01*
X-83001D01*
X-82334Y6032D01*
Y4699D01*
X-83001Y4033D01*
X-85000D01*
X-83667D02*
X-82334Y2700D01*
X-78335Y6699D02*
X-81001D01*
Y4699D01*
X-79668Y5366D01*
X-79002D01*
X-78335Y4699D01*
Y3366D01*
X-79002Y2700D01*
X-80335D01*
X-81001Y3366D01*
X-181134Y37499D02*
X-182467D01*
X-181801D01*
Y34166D01*
X-182467Y33500D01*
X-183133D01*
X-183800Y34166D01*
X-177136Y33500D02*
X-179801D01*
X-177136Y36166D01*
Y36832D01*
X-177802Y37499D01*
X-179135D01*
X-179801Y36832D01*
X-183800Y-39500D02*
Y-33502D01*
X-180801D01*
X-179801Y-34502D01*
Y-36501D01*
X-180801Y-37501D01*
X-183800D01*
X-181801D02*
X-179801Y-39500D01*
X-173803Y-34502D02*
X-174803Y-33502D01*
X-176802D01*
X-177802Y-34502D01*
Y-35501D01*
X-176802Y-36501D01*
X-174803D01*
X-173803Y-37501D01*
Y-38500D01*
X-174803Y-39500D01*
X-176802D01*
X-177802Y-38500D01*
X-168805Y-39500D02*
Y-33502D01*
X-171804Y-36501D01*
X-167805D01*
X-165806Y-34502D02*
X-164806Y-33502D01*
X-162807D01*
X-161807Y-34502D01*
Y-35501D01*
X-162807Y-36501D01*
X-161807Y-37501D01*
Y-38500D01*
X-162807Y-39500D01*
X-164806D01*
X-165806Y-38500D01*
Y-37501D01*
X-164806Y-36501D01*
X-165806Y-35501D01*
Y-34502D01*
X-164806Y-36501D02*
X-162807D01*
X-155809Y-33502D02*
X-159808D01*
Y-36501D01*
X-157808Y-35501D01*
X-156809D01*
X-155809Y-36501D01*
Y-38500D01*
X-156809Y-39500D01*
X-158808D01*
X-159808Y-38500D01*
D14*
X86039Y-52320D02*
X88239D01*
X85739Y-52420D02*
X88539D01*
X85439Y-52520D02*
X88839D01*
X85239Y-52620D02*
X89039D01*
X85039Y-52720D02*
X89239D01*
X84839Y-52820D02*
X89439D01*
X84739Y-52920D02*
X89639D01*
X84639Y-53020D02*
X89839D01*
X84539Y-53120D02*
X89939D01*
X84539Y-53220D02*
X87139D01*
X87239D02*
X90039D01*
X84539Y-53320D02*
X86339D01*
X88039D02*
X90239D01*
X84639Y-53420D02*
X85939D01*
X88339D02*
X90339D01*
X84639Y-53520D02*
X85539D01*
X88539D02*
X90439D01*
X84739Y-53620D02*
X85239D01*
X88739D02*
X90539D01*
X88939Y-53720D02*
X90639D01*
X89039Y-53820D02*
X90739D01*
X89239Y-53920D02*
X90839D01*
X86239Y-54020D02*
X87439D01*
X89339D02*
X90839D01*
X85839Y-54120D02*
X87839D01*
X89439D02*
X90939D01*
X85639Y-54220D02*
X88139D01*
X89539D02*
X91039D01*
X85439Y-54320D02*
X88339D01*
X89639D02*
X91039D01*
X85339Y-54420D02*
X88539D01*
X89739D02*
X91139D01*
X85239Y-54520D02*
X88739D01*
X89839D02*
X91139D01*
X85239Y-54620D02*
X88839D01*
X89939D02*
X91239D01*
X85239Y-54720D02*
X88939D01*
X90039D02*
X91239D01*
X85239Y-54820D02*
X89039D01*
X90139D02*
X91339D01*
X85239Y-54920D02*
X86539D01*
X87239D02*
X89239D01*
X90139D02*
X91339D01*
X85239Y-55020D02*
X86239D01*
X87639D02*
X89239D01*
X90239D02*
X91439D01*
X85339Y-55120D02*
X86039D01*
X87839D02*
X89339D01*
X90339D02*
X91439D01*
X85439Y-55220D02*
X85739D01*
X88039D02*
X89439D01*
X90439D02*
X91439D01*
X88239Y-55320D02*
X89539D01*
X90439D02*
X91539D01*
X88339Y-55420D02*
X89539D01*
X90539D02*
X91539D01*
X88439Y-55520D02*
X89639D01*
X90639D02*
X91439D01*
X133639D02*
X135039D01*
X88539Y-55620D02*
X89639D01*
X90739D02*
X91339D01*
X133639D02*
X135039D01*
X88639Y-55720D02*
X89739D01*
X90839D02*
X91139D01*
X133639D02*
X135039D01*
X88739Y-55820D02*
X89739D01*
X93939D02*
X95339D01*
X133639D02*
X135039D01*
X86539Y-55920D02*
X88139D01*
X88839D02*
X89839D01*
X93239D02*
X96239D01*
X133639D02*
X135039D01*
X70639Y-56020D02*
X72139D01*
X76939D02*
X78439D01*
X83339D02*
X84739D01*
X86539D02*
X88139D01*
X88839D02*
X89839D01*
X92839D02*
X96739D01*
X101239D02*
X108739D01*
X116139D02*
X117639D01*
X133639D02*
X135039D01*
X70639Y-56120D02*
X72139D01*
X76939D02*
X78539D01*
X83239D02*
X84739D01*
X86539D02*
X88139D01*
X88939D02*
X89839D01*
X92539D02*
X97139D01*
X101139D02*
X108739D01*
X116139D02*
X117639D01*
X133639D02*
X135039D01*
X70639Y-56220D02*
X72139D01*
X76839D02*
X78539D01*
X83239D02*
X84739D01*
X86539D02*
X88139D01*
X89039D02*
X89839D01*
X92339D02*
X97539D01*
X101139D02*
X108739D01*
X116139D02*
X117639D01*
X133639D02*
X135039D01*
X70639Y-56320D02*
X72239D01*
X76839D02*
X78539D01*
X83239D02*
X84639D01*
X86539D02*
X88139D01*
X89039D02*
X89739D01*
X92139D02*
X97839D01*
X101139D02*
X108739D01*
X116139D02*
X117639D01*
X133639D02*
X135039D01*
X70739Y-56420D02*
X72239D01*
X76839D02*
X78539D01*
X83139D02*
X84639D01*
X86539D02*
X88139D01*
X89139D02*
X89639D01*
X91939D02*
X98139D01*
X101139D02*
X108739D01*
X116139D02*
X117639D01*
X133639D02*
X135039D01*
X70739Y-56520D02*
X72239D01*
X76839D02*
X78639D01*
X83139D02*
X84639D01*
X86539D02*
X88139D01*
X89139D02*
X89439D01*
X91739D02*
X98439D01*
X101139D02*
X108739D01*
X116139D02*
X117639D01*
X133639D02*
X135039D01*
X70739Y-56620D02*
X72339D01*
X76739D02*
X78639D01*
X83139D02*
X84639D01*
X86539D02*
X88139D01*
X91639D02*
X98539D01*
X101139D02*
X108739D01*
X116139D02*
X117639D01*
X133639D02*
X135039D01*
X70739Y-56720D02*
X72339D01*
X76739D02*
X78639D01*
X83139D02*
X84539D01*
X86539D02*
X88139D01*
X91439D02*
X98539D01*
X101139D02*
X108739D01*
X116139D02*
X117639D01*
X133639D02*
X135039D01*
X70839Y-56820D02*
X72339D01*
X76739D02*
X78639D01*
X83039D02*
X84539D01*
X86539D02*
X88139D01*
X91339D02*
X98539D01*
X101139D02*
X108739D01*
X116139D02*
X117639D01*
X133639D02*
X135039D01*
X70839Y-56920D02*
X72339D01*
X76739D02*
X78739D01*
X83039D02*
X84539D01*
X86539D02*
X88139D01*
X91239D02*
X98539D01*
X101139D02*
X108739D01*
X116139D02*
X117639D01*
X133639D02*
X135039D01*
X70839Y-57020D02*
X72439D01*
X76639D02*
X78739D01*
X83039D02*
X84539D01*
X86539D02*
X88139D01*
X91139D02*
X98539D01*
X101139D02*
X108739D01*
X116139D02*
X117639D01*
X133639D02*
X135039D01*
X70939Y-57120D02*
X72439D01*
X76639D02*
X78739D01*
X83039D02*
X84439D01*
X86539D02*
X88139D01*
X91039D02*
X93939D01*
X95239D02*
X98539D01*
X101139D02*
X108739D01*
X116139D02*
X117639D01*
X133639D02*
X135039D01*
X70939Y-57220D02*
X72439D01*
X76639D02*
X78739D01*
X82939D02*
X84439D01*
X86539D02*
X88139D01*
X90939D02*
X93439D01*
X95839D02*
X98539D01*
X101139D02*
X108739D01*
X116139D02*
X117639D01*
X133639D02*
X135039D01*
X70939Y-57320D02*
X72439D01*
X76639D02*
X78839D01*
X82939D02*
X84439D01*
X86539D02*
X88139D01*
X90839D02*
X93139D01*
X96339D02*
X98539D01*
X101139D02*
X108739D01*
X116139D02*
X117639D01*
X133639D02*
X135039D01*
X70939Y-57420D02*
X72539D01*
X76639D02*
X78839D01*
X82939D02*
X84439D01*
X90739D02*
X92839D01*
X96639D02*
X98539D01*
X101139D02*
X102639D01*
X116139D02*
X117639D01*
X133639D02*
X135039D01*
X71039Y-57520D02*
X72539D01*
X76539D02*
X78839D01*
X82939D02*
X84339D01*
X90739D02*
X92639D01*
X96939D02*
X98539D01*
X101139D02*
X102639D01*
X116139D02*
X117639D01*
X133639D02*
X135039D01*
X71039Y-57620D02*
X72539D01*
X76539D02*
X78839D01*
X82839D02*
X84339D01*
X90639D02*
X92539D01*
X97139D02*
X98539D01*
X101139D02*
X102639D01*
X116139D02*
X117639D01*
X133639D02*
X135039D01*
X71039Y-57720D02*
X72539D01*
X76539D02*
X78939D01*
X82839D02*
X84339D01*
X90539D02*
X92439D01*
X97439D02*
X98539D01*
X101139D02*
X102639D01*
X116139D02*
X117639D01*
X133639D02*
X135039D01*
X71039Y-57820D02*
X72639D01*
X76539D02*
X78939D01*
X82839D02*
X84239D01*
X90539D02*
X92339D01*
X97639D02*
X98539D01*
X101139D02*
X102639D01*
X116139D02*
X117639D01*
X133639D02*
X135039D01*
X71139Y-57920D02*
X72639D01*
X76439D02*
X78939D01*
X82839D02*
X84239D01*
X90539D02*
X92239D01*
X97839D02*
X98539D01*
X101139D02*
X102639D01*
X116139D02*
X117639D01*
X133639D02*
X135039D01*
X71139Y-58020D02*
X72639D01*
X76439D02*
X77639D01*
X77739D02*
X78939D01*
X82739D02*
X84239D01*
X90439D02*
X92139D01*
X97939D02*
X98539D01*
X101139D02*
X102639D01*
X116139D02*
X117639D01*
X133639D02*
X135039D01*
X71139Y-58120D02*
X72639D01*
X76439D02*
X77639D01*
X77739D02*
X79039D01*
X82739D02*
X84239D01*
X90439D02*
X92039D01*
X98139D02*
X98539D01*
X101139D02*
X102639D01*
X116139D02*
X117639D01*
X133639D02*
X135039D01*
X71139Y-58220D02*
X72739D01*
X76439D02*
X77539D01*
X77739D02*
X79039D01*
X82739D02*
X84139D01*
X90339D02*
X92039D01*
X98239D02*
X98539D01*
X101139D02*
X102639D01*
X116139D02*
X117639D01*
X133639D02*
X135039D01*
X71239Y-58320D02*
X72739D01*
X76339D02*
X77539D01*
X77739D02*
X79039D01*
X82739D02*
X84139D01*
X90339D02*
X91939D01*
X98439D02*
X98539D01*
X101139D02*
X102639D01*
X116139D02*
X117639D01*
X133639D02*
X135039D01*
X71239Y-58420D02*
X72739D01*
X76339D02*
X77539D01*
X77839D02*
X79039D01*
X82739D02*
X84139D01*
X90339D02*
X91939D01*
X101139D02*
X102639D01*
X116139D02*
X117639D01*
X133639D02*
X135039D01*
X71239Y-58520D02*
X72739D01*
X76339D02*
X77539D01*
X77839D02*
X79139D01*
X82639D02*
X84139D01*
X90339D02*
X91839D01*
X101139D02*
X102639D01*
X116139D02*
X117639D01*
X133639D02*
X135039D01*
X71239Y-58620D02*
X72839D01*
X76339D02*
X77439D01*
X77839D02*
X79139D01*
X82639D02*
X84039D01*
X90339D02*
X91839D01*
X101139D02*
X102639D01*
X116139D02*
X117639D01*
X133639D02*
X135039D01*
X71339Y-58720D02*
X72839D01*
X76239D02*
X77439D01*
X77839D02*
X79139D01*
X82639D02*
X84039D01*
X90239D02*
X91839D01*
X101139D02*
X102639D01*
X116139D02*
X117639D01*
X126439D02*
X128439D01*
X133639D02*
X135039D01*
X137139D02*
X138739D01*
X71339Y-58820D02*
X72839D01*
X76239D02*
X77439D01*
X77939D02*
X79139D01*
X82639D02*
X84039D01*
X90239D02*
X91839D01*
X101139D02*
X102639D01*
X116139D02*
X117639D01*
X125739D02*
X129039D01*
X133639D02*
X135039D01*
X136739D02*
X139039D01*
X71339Y-58920D02*
X72839D01*
X76239D02*
X77439D01*
X77939D02*
X79239D01*
X82539D02*
X84039D01*
X86639D02*
X88039D01*
X90239D02*
X91839D01*
X101139D02*
X102639D01*
X116139D02*
X117639D01*
X125139D02*
X129339D01*
X133639D02*
X135039D01*
X136439D02*
X139339D01*
X71439Y-59020D02*
X72939D01*
X76239D02*
X77339D01*
X77939D02*
X79239D01*
X82539D02*
X83939D01*
X86639D02*
X88039D01*
X90239D02*
X91839D01*
X101139D02*
X102639D01*
X116139D02*
X117639D01*
X124739D02*
X129639D01*
X133639D02*
X135039D01*
X136239D02*
X139439D01*
X71439Y-59120D02*
X72939D01*
X76139D02*
X77339D01*
X77939D02*
X79239D01*
X82539D02*
X83939D01*
X86639D02*
X88039D01*
X90239D02*
X91839D01*
X101139D02*
X102639D01*
X116139D02*
X117639D01*
X124639D02*
X129839D01*
X133639D02*
X135039D01*
X136039D02*
X139639D01*
X71439Y-59220D02*
X72939D01*
X76139D02*
X77339D01*
X78039D02*
X79239D01*
X82539D02*
X83939D01*
X86639D02*
X88039D01*
X90239D02*
X91839D01*
X101139D02*
X102639D01*
X116139D02*
X117639D01*
X124639D02*
X130039D01*
X133639D02*
X135039D01*
X135939D02*
X139739D01*
X71439Y-59320D02*
X72939D01*
X76139D02*
X77339D01*
X78039D02*
X79339D01*
X82439D02*
X83939D01*
X86639D02*
X88039D01*
X90239D02*
X91839D01*
X101139D02*
X102639D01*
X116139D02*
X117639D01*
X124639D02*
X130139D01*
X133639D02*
X135039D01*
X135739D02*
X139939D01*
X71539Y-59420D02*
X73039D01*
X76139D02*
X77239D01*
X78039D02*
X79339D01*
X82439D02*
X83839D01*
X86639D02*
X88039D01*
X90239D02*
X91839D01*
X101139D02*
X102639D01*
X116139D02*
X117639D01*
X124639D02*
X130239D01*
X133639D02*
X135039D01*
X135539D02*
X140039D01*
X71539Y-59520D02*
X73039D01*
X76039D02*
X77239D01*
X78039D02*
X79339D01*
X82439D02*
X83839D01*
X86639D02*
X88039D01*
X90339D02*
X91939D01*
X101139D02*
X102639D01*
X116139D02*
X117639D01*
X124639D02*
X130439D01*
X133639D02*
X135039D01*
X135439D02*
X140139D01*
X71539Y-59620D02*
X73039D01*
X76039D02*
X77239D01*
X78139D02*
X79339D01*
X82439D02*
X83839D01*
X86639D02*
X88039D01*
X90339D02*
X91939D01*
X101139D02*
X102639D01*
X116139D02*
X117639D01*
X124639D02*
X130439D01*
X133639D02*
X135039D01*
X135339D02*
X140239D01*
X71539Y-59720D02*
X73039D01*
X76039D02*
X77239D01*
X78139D02*
X79439D01*
X82339D02*
X83839D01*
X86639D02*
X88039D01*
X90339D02*
X91939D01*
X101139D02*
X102639D01*
X116139D02*
X117639D01*
X124639D02*
X130539D01*
X133639D02*
X140239D01*
X71639Y-59820D02*
X73139D01*
X76039D02*
X77139D01*
X78139D02*
X79439D01*
X82339D02*
X83739D01*
X86639D02*
X88039D01*
X90339D02*
X92039D01*
X101139D02*
X102639D01*
X116139D02*
X117639D01*
X124639D02*
X130639D01*
X133639D02*
X140339D01*
X71639Y-59920D02*
X73139D01*
X75939D02*
X77139D01*
X78139D02*
X79439D01*
X82339D02*
X83739D01*
X86639D02*
X88039D01*
X90339D02*
X92139D01*
X101139D02*
X102639D01*
X116139D02*
X117639D01*
X124639D02*
X127239D01*
X127639D02*
X130739D01*
X133639D02*
X140439D01*
X71639Y-60020D02*
X73139D01*
X75939D02*
X77139D01*
X78239D02*
X79439D01*
X82339D02*
X83739D01*
X86639D02*
X88039D01*
X90339D02*
X92139D01*
X101139D02*
X102639D01*
X116139D02*
X117639D01*
X124639D02*
X126339D01*
X128539D02*
X130739D01*
X133639D02*
X137139D01*
X138039D02*
X140539D01*
X71639Y-60120D02*
X73139D01*
X75939D02*
X77139D01*
X78239D02*
X79539D01*
X82239D02*
X83639D01*
X86639D02*
X88039D01*
X90439D02*
X92239D01*
X101139D02*
X102639D01*
X116139D02*
X117639D01*
X124639D02*
X125939D01*
X128839D02*
X130839D01*
X133639D02*
X136739D01*
X138439D02*
X140539D01*
X71739Y-60220D02*
X73239D01*
X75939D02*
X77039D01*
X78239D02*
X79539D01*
X82239D02*
X83639D01*
X86639D02*
X88039D01*
X90439D02*
X92339D01*
X101139D02*
X102639D01*
X116139D02*
X117639D01*
X124639D02*
X125539D01*
X129039D02*
X130839D01*
X133639D02*
X136439D01*
X138639D02*
X140639D01*
X71739Y-60320D02*
X73239D01*
X75839D02*
X77039D01*
X78239D02*
X79539D01*
X82239D02*
X83639D01*
X86639D02*
X88039D01*
X90539D02*
X92539D01*
X101139D02*
X102639D01*
X116139D02*
X117639D01*
X124639D02*
X125239D01*
X129239D02*
X130939D01*
X133639D02*
X136139D01*
X138839D02*
X140639D01*
X71739Y-60420D02*
X73239D01*
X75839D02*
X77039D01*
X78339D02*
X79539D01*
X82239D02*
X83639D01*
X86639D02*
X88039D01*
X90539D02*
X92739D01*
X101139D02*
X102639D01*
X116139D02*
X117639D01*
X124639D02*
X124939D01*
X129339D02*
X130939D01*
X133639D02*
X135939D01*
X138939D02*
X140739D01*
X71839Y-60520D02*
X73239D01*
X75839D02*
X77039D01*
X78339D02*
X79639D01*
X82139D02*
X83539D01*
X86639D02*
X88039D01*
X90539D02*
X92939D01*
X101139D02*
X108739D01*
X116139D02*
X117639D01*
X129439D02*
X131039D01*
X133639D02*
X135739D01*
X139039D02*
X140739D01*
X71839Y-60620D02*
X73339D01*
X75839D02*
X76939D01*
X78339D02*
X79639D01*
X82139D02*
X83539D01*
X86639D02*
X88039D01*
X90639D02*
X93239D01*
X101139D02*
X108739D01*
X116139D02*
X117639D01*
X129439D02*
X131039D01*
X133639D02*
X135639D01*
X139139D02*
X140839D01*
X71839Y-60720D02*
X73339D01*
X75739D02*
X76939D01*
X78339D02*
X79639D01*
X82139D02*
X83539D01*
X86639D02*
X88039D01*
X90739D02*
X93739D01*
X101139D02*
X108739D01*
X116139D02*
X117639D01*
X129539D02*
X131039D01*
X133639D02*
X135439D01*
X139139D02*
X140839D01*
X71839Y-60820D02*
X73339D01*
X75739D02*
X76939D01*
X78439D02*
X79639D01*
X82139D02*
X83539D01*
X86639D02*
X88039D01*
X90739D02*
X94239D01*
X101139D02*
X108739D01*
X116139D02*
X117639D01*
X129539D02*
X131039D01*
X133639D02*
X135339D01*
X139239D02*
X140839D01*
X71939Y-60920D02*
X73339D01*
X75739D02*
X76939D01*
X78439D02*
X79739D01*
X82039D02*
X83439D01*
X86639D02*
X88039D01*
X90839D02*
X94739D01*
X101139D02*
X108739D01*
X116139D02*
X117639D01*
X129639D02*
X131039D01*
X133639D02*
X135139D01*
X139339D02*
X140939D01*
X71939Y-61020D02*
X73439D01*
X75739D02*
X76839D01*
X78439D02*
X79739D01*
X82039D02*
X83439D01*
X86639D02*
X88039D01*
X90939D02*
X95339D01*
X101139D02*
X108739D01*
X116139D02*
X117639D01*
X129639D02*
X131139D01*
X133639D02*
X135139D01*
X139339D02*
X140939D01*
X71939Y-61120D02*
X73439D01*
X75639D02*
X76839D01*
X78439D02*
X79739D01*
X82039D02*
X83439D01*
X86639D02*
X88039D01*
X91039D02*
X95839D01*
X101139D02*
X108739D01*
X116139D02*
X117639D01*
X129639D02*
X131139D01*
X133639D02*
X135039D01*
X139439D02*
X140939D01*
X71939Y-61220D02*
X73439D01*
X75639D02*
X76839D01*
X78539D02*
X79739D01*
X82039D02*
X83439D01*
X86639D02*
X88039D01*
X91139D02*
X96239D01*
X101139D02*
X108739D01*
X116139D02*
X117639D01*
X129739D02*
X131139D01*
X133639D02*
X135039D01*
X139439D02*
X141039D01*
X72039Y-61320D02*
X73439D01*
X75639D02*
X76839D01*
X78539D02*
X79839D01*
X81939D02*
X83339D01*
X86639D02*
X88039D01*
X91239D02*
X96639D01*
X101139D02*
X108739D01*
X116139D02*
X117639D01*
X129739D02*
X131139D01*
X133639D02*
X135039D01*
X139539D02*
X141039D01*
X72039Y-61420D02*
X73539D01*
X75639D02*
X76739D01*
X78539D02*
X79839D01*
X81939D02*
X83339D01*
X86639D02*
X88039D01*
X91339D02*
X96939D01*
X101139D02*
X108739D01*
X116139D02*
X117639D01*
X129739D02*
X131139D01*
X133639D02*
X135039D01*
X139539D02*
X141039D01*
X72039Y-61520D02*
X73539D01*
X75539D02*
X76739D01*
X78539D02*
X79839D01*
X81939D02*
X83339D01*
X86639D02*
X88039D01*
X91539D02*
X97239D01*
X101139D02*
X108739D01*
X116139D02*
X117639D01*
X129739D02*
X131139D01*
X133639D02*
X135039D01*
X139539D02*
X141039D01*
X72039Y-61620D02*
X73539D01*
X75539D02*
X76739D01*
X78639D02*
X79839D01*
X81939D02*
X83339D01*
X86639D02*
X88039D01*
X91639D02*
X97439D01*
X101139D02*
X108739D01*
X116139D02*
X117639D01*
X129739D02*
X131139D01*
X133639D02*
X135039D01*
X139539D02*
X141139D01*
X72139Y-61720D02*
X73539D01*
X75539D02*
X76739D01*
X78639D02*
X79939D01*
X81839D02*
X83239D01*
X86639D02*
X88039D01*
X91839D02*
X97639D01*
X101139D02*
X108739D01*
X116139D02*
X117639D01*
X129739D02*
X131139D01*
X133639D02*
X135039D01*
X139639D02*
X141139D01*
X72139Y-61820D02*
X73639D01*
X75539D02*
X76639D01*
X78639D02*
X79939D01*
X81839D02*
X83239D01*
X86639D02*
X88039D01*
X92039D02*
X97839D01*
X101139D02*
X108739D01*
X116139D02*
X117639D01*
X129339D02*
X131139D01*
X133639D02*
X135039D01*
X139639D02*
X141139D01*
X72139Y-61920D02*
X73639D01*
X75439D02*
X76639D01*
X78639D02*
X79939D01*
X81839D02*
X83239D01*
X86639D02*
X88039D01*
X92339D02*
X97939D01*
X101139D02*
X102639D01*
X116139D02*
X117639D01*
X127939D02*
X131139D01*
X133639D02*
X135039D01*
X139639D02*
X141139D01*
X72139Y-62020D02*
X73639D01*
X75439D02*
X76639D01*
X78739D02*
X79939D01*
X81839D02*
X83239D01*
X86639D02*
X88039D01*
X92539D02*
X98039D01*
X101139D02*
X102639D01*
X116139D02*
X117639D01*
X127039D02*
X131139D01*
X133639D02*
X135039D01*
X139639D02*
X141139D01*
X72239Y-62120D02*
X73639D01*
X75439D02*
X76639D01*
X78739D02*
X80039D01*
X81739D02*
X83139D01*
X86639D02*
X88039D01*
X92939D02*
X98239D01*
X101139D02*
X102639D01*
X116139D02*
X117639D01*
X126539D02*
X131139D01*
X133639D02*
X135039D01*
X139639D02*
X141139D01*
X72239Y-62220D02*
X73739D01*
X75439D02*
X76539D01*
X78739D02*
X80039D01*
X81739D02*
X83139D01*
X86639D02*
X88039D01*
X93339D02*
X98339D01*
X101139D02*
X102639D01*
X116139D02*
X117639D01*
X126139D02*
X131139D01*
X133639D02*
X135039D01*
X139739D02*
X141139D01*
X72239Y-62320D02*
X73739D01*
X75339D02*
X76539D01*
X78739D02*
X80039D01*
X81739D02*
X83139D01*
X86639D02*
X88039D01*
X93839D02*
X98439D01*
X101139D02*
X102639D01*
X116139D02*
X117639D01*
X125839D02*
X131139D01*
X133639D02*
X135039D01*
X139739D02*
X141139D01*
X72339Y-62420D02*
X73739D01*
X75339D02*
X76539D01*
X78839D02*
X80039D01*
X81739D02*
X83139D01*
X86639D02*
X88039D01*
X94439D02*
X98539D01*
X101139D02*
X102639D01*
X116139D02*
X117639D01*
X125539D02*
X131139D01*
X133639D02*
X135039D01*
X139739D02*
X141239D01*
X72339Y-62520D02*
X73739D01*
X75339D02*
X76539D01*
X78839D02*
X80139D01*
X81639D02*
X83039D01*
X86639D02*
X88039D01*
X95039D02*
X98539D01*
X101139D02*
X102639D01*
X116139D02*
X117639D01*
X125339D02*
X131139D01*
X133639D02*
X135039D01*
X139739D02*
X141239D01*
X72339Y-62620D02*
X73839D01*
X75339D02*
X76439D01*
X78839D02*
X80139D01*
X81639D02*
X83039D01*
X86639D02*
X88039D01*
X95539D02*
X98639D01*
X101139D02*
X102639D01*
X116139D02*
X117639D01*
X125139D02*
X131139D01*
X133639D02*
X135039D01*
X139739D02*
X141239D01*
X72339Y-62720D02*
X73839D01*
X75239D02*
X76439D01*
X78839D02*
X80139D01*
X81639D02*
X83039D01*
X86639D02*
X88039D01*
X95939D02*
X98639D01*
X101139D02*
X102639D01*
X116139D02*
X117639D01*
X124939D02*
X131139D01*
X133639D02*
X135039D01*
X139739D02*
X141239D01*
X72439Y-62820D02*
X73839D01*
X75239D02*
X76439D01*
X78939D02*
X80139D01*
X81639D02*
X82939D01*
X86639D02*
X88039D01*
X96339D02*
X98739D01*
X101139D02*
X102639D01*
X116139D02*
X117639D01*
X124839D02*
X131139D01*
X133639D02*
X135039D01*
X139739D02*
X141239D01*
X72439Y-62920D02*
X73839D01*
X75239D02*
X76439D01*
X78939D02*
X80239D01*
X81539D02*
X82939D01*
X86639D02*
X88039D01*
X96539D02*
X98739D01*
X101139D02*
X102639D01*
X116139D02*
X117639D01*
X124739D02*
X131139D01*
X133639D02*
X135039D01*
X139739D02*
X141239D01*
X72439Y-63020D02*
X73939D01*
X75239D02*
X76339D01*
X78939D02*
X80239D01*
X81539D02*
X82939D01*
X86639D02*
X88039D01*
X96739D02*
X98839D01*
X101139D02*
X102639D01*
X116139D02*
X117639D01*
X124639D02*
X128639D01*
X129739D02*
X131139D01*
X133639D02*
X135039D01*
X139739D02*
X141239D01*
X72439Y-63120D02*
X73939D01*
X75139D02*
X76339D01*
X78939D02*
X80239D01*
X81539D02*
X82939D01*
X86639D02*
X88039D01*
X96839D02*
X98839D01*
X101139D02*
X102639D01*
X116139D02*
X117639D01*
X124539D02*
X127639D01*
X129739D02*
X131139D01*
X133639D02*
X135039D01*
X139739D02*
X141239D01*
X72539Y-63220D02*
X73939D01*
X75139D02*
X76339D01*
X79039D02*
X80239D01*
X81539D02*
X82839D01*
X86639D02*
X88039D01*
X97039D02*
X98939D01*
X101139D02*
X102639D01*
X116139D02*
X117639D01*
X124439D02*
X126939D01*
X129739D02*
X131139D01*
X133639D02*
X135039D01*
X139739D02*
X141239D01*
X72539Y-63320D02*
X73939D01*
X75139D02*
X76339D01*
X79039D02*
X80339D01*
X81439D02*
X82839D01*
X86639D02*
X88039D01*
X97139D02*
X98939D01*
X101139D02*
X102639D01*
X116139D02*
X117639D01*
X124339D02*
X126639D01*
X129739D02*
X131139D01*
X133639D02*
X135039D01*
X139739D02*
X141239D01*
X72539Y-63420D02*
X74039D01*
X75139D02*
X76239D01*
X79039D02*
X80339D01*
X81439D02*
X82839D01*
X86639D02*
X88039D01*
X97239D02*
X98939D01*
X101139D02*
X102639D01*
X116139D02*
X117639D01*
X124239D02*
X126339D01*
X129739D02*
X131139D01*
X133639D02*
X135039D01*
X139739D02*
X141239D01*
X72539Y-63520D02*
X74039D01*
X75039D02*
X76239D01*
X79039D02*
X80339D01*
X81439D02*
X82839D01*
X86639D02*
X88039D01*
X97239D02*
X98939D01*
X101139D02*
X102639D01*
X116139D02*
X117639D01*
X124139D02*
X126139D01*
X129739D02*
X131139D01*
X133639D02*
X135039D01*
X139739D02*
X141239D01*
X72639Y-63620D02*
X74039D01*
X75039D02*
X76239D01*
X79139D02*
X80339D01*
X81439D02*
X82739D01*
X86639D02*
X88039D01*
X97339D02*
X98939D01*
X101139D02*
X102639D01*
X116139D02*
X117639D01*
X124139D02*
X125939D01*
X129739D02*
X131139D01*
X133639D02*
X135039D01*
X139739D02*
X141239D01*
X72639Y-63720D02*
X74039D01*
X75039D02*
X76239D01*
X79139D02*
X80439D01*
X81339D02*
X82739D01*
X86639D02*
X88039D01*
X97339D02*
X98939D01*
X101139D02*
X102639D01*
X116139D02*
X117639D01*
X124039D02*
X125839D01*
X129739D02*
X131139D01*
X133639D02*
X135039D01*
X139739D02*
X141239D01*
X72639Y-63820D02*
X74139D01*
X75039D02*
X76139D01*
X79139D02*
X80439D01*
X81339D02*
X82739D01*
X86639D02*
X88039D01*
X97339D02*
X99039D01*
X101139D02*
X102639D01*
X116139D02*
X117639D01*
X124039D02*
X125739D01*
X129739D02*
X131139D01*
X133639D02*
X135039D01*
X139739D02*
X141139D01*
X72739Y-63920D02*
X74139D01*
X74939D02*
X76139D01*
X79139D02*
X80439D01*
X81339D02*
X82739D01*
X86639D02*
X88039D01*
X97439D02*
X99039D01*
X101139D02*
X102639D01*
X116139D02*
X117639D01*
X124039D02*
X125639D01*
X129739D02*
X131139D01*
X133639D02*
X135039D01*
X139739D02*
X141139D01*
X72739Y-64020D02*
X74139D01*
X74939D02*
X76139D01*
X79239D02*
X80439D01*
X81339D02*
X82639D01*
X86639D02*
X88039D01*
X97439D02*
X99039D01*
X101139D02*
X102639D01*
X116139D02*
X117639D01*
X123939D02*
X125539D01*
X129739D02*
X131139D01*
X133639D02*
X135039D01*
X139739D02*
X141139D01*
X72739Y-64120D02*
X74139D01*
X74939D02*
X76139D01*
X79239D02*
X80539D01*
X81239D02*
X82639D01*
X86639D02*
X88039D01*
X97439D02*
X99039D01*
X101139D02*
X102639D01*
X116139D02*
X117639D01*
X123939D02*
X125539D01*
X129739D02*
X131139D01*
X133639D02*
X135039D01*
X139639D02*
X141139D01*
X72739Y-64220D02*
X74239D01*
X74939D02*
X76139D01*
X79239D02*
X80539D01*
X81239D02*
X82639D01*
X86639D02*
X88039D01*
X97439D02*
X99039D01*
X101139D02*
X102639D01*
X116139D02*
X117639D01*
X123939D02*
X125439D01*
X129739D02*
X131139D01*
X133639D02*
X135039D01*
X139639D02*
X141139D01*
X72839Y-64320D02*
X74239D01*
X74839D02*
X76039D01*
X79239D02*
X80539D01*
X81239D02*
X82639D01*
X86639D02*
X88039D01*
X97439D02*
X99039D01*
X101139D02*
X102639D01*
X116139D02*
X117639D01*
X123939D02*
X125439D01*
X129739D02*
X131139D01*
X133639D02*
X135039D01*
X139639D02*
X141139D01*
X72839Y-64420D02*
X74239D01*
X74839D02*
X76039D01*
X79339D02*
X80539D01*
X81239D02*
X82539D01*
X86639D02*
X88039D01*
X97439D02*
X99039D01*
X101139D02*
X102639D01*
X116139D02*
X117639D01*
X123939D02*
X125339D01*
X129739D02*
X131139D01*
X133639D02*
X135039D01*
X139639D02*
X141039D01*
X72839Y-64520D02*
X74239D01*
X74839D02*
X76039D01*
X79339D02*
X80639D01*
X81139D02*
X82539D01*
X86639D02*
X88039D01*
X97439D02*
X99039D01*
X101139D02*
X102639D01*
X116139D02*
X117639D01*
X123839D02*
X125339D01*
X129739D02*
X131139D01*
X133639D02*
X135039D01*
X139639D02*
X141039D01*
X72839Y-64620D02*
X74339D01*
X74839D02*
X76039D01*
X79339D02*
X80639D01*
X81139D02*
X82539D01*
X86639D02*
X88039D01*
X97439D02*
X98939D01*
X101139D02*
X102639D01*
X116139D02*
X117639D01*
X123839D02*
X125339D01*
X129739D02*
X131139D01*
X133639D02*
X135039D01*
X139539D02*
X141039D01*
X72939Y-64720D02*
X74339D01*
X74739D02*
X75939D01*
X79339D02*
X80639D01*
X81139D02*
X82539D01*
X86639D02*
X88039D01*
X97439D02*
X98939D01*
X101139D02*
X102639D01*
X116139D02*
X117639D01*
X123839D02*
X125339D01*
X129739D02*
X131139D01*
X133639D02*
X135039D01*
X139539D02*
X141039D01*
X72939Y-64820D02*
X74339D01*
X74739D02*
X75939D01*
X79439D02*
X80639D01*
X81139D02*
X82439D01*
X86639D02*
X88039D01*
X97439D02*
X98939D01*
X101139D02*
X102639D01*
X116139D02*
X117639D01*
X123839D02*
X125339D01*
X129739D02*
X131139D01*
X133639D02*
X135039D01*
X139539D02*
X140939D01*
X72939Y-64920D02*
X74339D01*
X74739D02*
X75939D01*
X79439D02*
X80739D01*
X81039D02*
X82439D01*
X86639D02*
X88039D01*
X90239D02*
X90339D01*
X97339D02*
X98939D01*
X101139D02*
X102639D01*
X116139D02*
X117639D01*
X123839D02*
X125339D01*
X129739D02*
X131139D01*
X133639D02*
X135039D01*
X139439D02*
X140939D01*
X72939Y-65020D02*
X74439D01*
X74739D02*
X75939D01*
X79439D02*
X80739D01*
X81039D02*
X82439D01*
X86639D02*
X88039D01*
X90239D02*
X90439D01*
X97339D02*
X98939D01*
X101139D02*
X102639D01*
X116139D02*
X117639D01*
X123839D02*
X125339D01*
X129739D02*
X131139D01*
X133639D02*
X135039D01*
X139439D02*
X140939D01*
X73039Y-65120D02*
X74439D01*
X74639D02*
X75839D01*
X79539D02*
X80739D01*
X81039D02*
X82439D01*
X86639D02*
X88039D01*
X90239D02*
X90639D01*
X97339D02*
X98839D01*
X101139D02*
X102639D01*
X116139D02*
X117639D01*
X123839D02*
X125339D01*
X129739D02*
X131139D01*
X133639D02*
X135039D01*
X139339D02*
X140839D01*
X73039Y-65220D02*
X74439D01*
X74639D02*
X75839D01*
X79539D02*
X80739D01*
X81039D02*
X82339D01*
X86639D02*
X88039D01*
X90239D02*
X90739D01*
X97239D02*
X98839D01*
X101139D02*
X102639D01*
X116139D02*
X117639D01*
X123839D02*
X125339D01*
X129739D02*
X131139D01*
X133639D02*
X135039D01*
X139339D02*
X140839D01*
X73039Y-65320D02*
X74439D01*
X74639D02*
X75839D01*
X79539D02*
X80839D01*
X80939D02*
X82339D01*
X86639D02*
X88039D01*
X90239D02*
X90939D01*
X97139D02*
X98739D01*
X101139D02*
X102639D01*
X116139D02*
X117639D01*
X123839D02*
X125339D01*
X129739D02*
X131139D01*
X133639D02*
X135039D01*
X139239D02*
X140839D01*
X73039Y-65420D02*
X74539D01*
X74639D02*
X75839D01*
X79539D02*
X80839D01*
X80939D02*
X82339D01*
X86639D02*
X88039D01*
X90239D02*
X91039D01*
X97139D02*
X98739D01*
X101139D02*
X102639D01*
X116139D02*
X117639D01*
X123839D02*
X125439D01*
X129639D02*
X131139D01*
X133639D02*
X135039D01*
X139239D02*
X140739D01*
X73139Y-65520D02*
X75739D01*
X79639D02*
X80839D01*
X80939D02*
X82239D01*
X86639D02*
X88039D01*
X90239D02*
X91239D01*
X97039D02*
X98739D01*
X101139D02*
X102639D01*
X116139D02*
X117639D01*
X123939D02*
X125439D01*
X129539D02*
X131139D01*
X133639D02*
X135039D01*
X139139D02*
X140739D01*
X73139Y-65620D02*
X75739D01*
X79639D02*
X82239D01*
X86639D02*
X88039D01*
X90239D02*
X91439D01*
X96939D02*
X98639D01*
X101139D02*
X102639D01*
X116139D02*
X117639D01*
X123939D02*
X125439D01*
X129339D02*
X131139D01*
X133639D02*
X135039D01*
X139039D02*
X140639D01*
X73139Y-65720D02*
X75739D01*
X79639D02*
X82239D01*
X86639D02*
X88039D01*
X90239D02*
X91639D01*
X96839D02*
X98639D01*
X101139D02*
X102639D01*
X116139D02*
X117639D01*
X123939D02*
X125539D01*
X129239D02*
X131139D01*
X133639D02*
X135039D01*
X138939D02*
X140639D01*
X73239Y-65820D02*
X75739D01*
X79639D02*
X82239D01*
X86639D02*
X88039D01*
X90239D02*
X91839D01*
X96639D02*
X98539D01*
X101139D02*
X102639D01*
X116139D02*
X117639D01*
X123939D02*
X125639D01*
X129039D02*
X131139D01*
X133639D02*
X135039D01*
X138839D02*
X140539D01*
X73239Y-65920D02*
X75639D01*
X79739D02*
X82139D01*
X86639D02*
X88039D01*
X90239D02*
X92139D01*
X96539D02*
X98439D01*
X101139D02*
X102639D01*
X116139D02*
X117639D01*
X124039D02*
X125739D01*
X128839D02*
X131139D01*
X133639D02*
X135139D01*
X138739D02*
X140539D01*
X73239Y-66020D02*
X75639D01*
X79739D02*
X82139D01*
X86639D02*
X88039D01*
X90239D02*
X92439D01*
X96339D02*
X98439D01*
X101139D02*
X102639D01*
X116139D02*
X117639D01*
X124039D02*
X125839D01*
X128639D02*
X131139D01*
X133639D02*
X135339D01*
X138639D02*
X140439D01*
X73239Y-66120D02*
X75639D01*
X79739D02*
X82139D01*
X86639D02*
X88039D01*
X90239D02*
X92739D01*
X96139D02*
X98339D01*
X101139D02*
X102739D01*
X116139D02*
X117639D01*
X124039D02*
X125939D01*
X128439D02*
X131139D01*
X133639D02*
X135539D01*
X138439D02*
X140339D01*
X73339Y-66220D02*
X75639D01*
X79739D02*
X82139D01*
X86639D02*
X88039D01*
X90239D02*
X93139D01*
X95839D02*
X98239D01*
X101139D02*
X108739D01*
X116139D02*
X123339D01*
X124139D02*
X126139D01*
X128239D02*
X131139D01*
X133639D02*
X135839D01*
X138239D02*
X140339D01*
X73339Y-66320D02*
X75539D01*
X79839D02*
X82039D01*
X86639D02*
X88039D01*
X90239D02*
X93639D01*
X95339D02*
X98139D01*
X101139D02*
X108739D01*
X116139D02*
X123339D01*
X124139D02*
X126539D01*
X127739D02*
X131139D01*
X133639D02*
X136139D01*
X137939D02*
X140239D01*
X73339Y-66420D02*
X75539D01*
X79839D02*
X82039D01*
X86639D02*
X88039D01*
X90239D02*
X98039D01*
X101139D02*
X108739D01*
X116139D02*
X123339D01*
X124239D02*
X131139D01*
X133639D02*
X137039D01*
X137339D02*
X140139D01*
X73339Y-66520D02*
X75539D01*
X79839D02*
X82039D01*
X86639D02*
X88039D01*
X90239D02*
X97939D01*
X101139D02*
X108739D01*
X116139D02*
X123339D01*
X124339D02*
X131139D01*
X133639D02*
X140039D01*
X73439Y-66620D02*
X75539D01*
X79839D02*
X82039D01*
X86639D02*
X88039D01*
X90239D02*
X97839D01*
X101139D02*
X108739D01*
X116139D02*
X123339D01*
X124339D02*
X129639D01*
X129739D02*
X131139D01*
X133639D02*
X139939D01*
X73439Y-66720D02*
X75439D01*
X79939D02*
X81939D01*
X86639D02*
X88039D01*
X90239D02*
X97739D01*
X101139D02*
X108739D01*
X116139D02*
X123339D01*
X124439D02*
X129439D01*
X129739D02*
X131139D01*
X133639D02*
X139839D01*
X73439Y-66820D02*
X75439D01*
X79939D02*
X81939D01*
X86639D02*
X88039D01*
X90339D02*
X97539D01*
X101139D02*
X108739D01*
X116139D02*
X123339D01*
X124539D02*
X129339D01*
X129739D02*
X131139D01*
X133639D02*
X139739D01*
X73439Y-66920D02*
X75439D01*
X79939D02*
X81939D01*
X86639D02*
X88039D01*
X90539D02*
X97439D01*
X101139D02*
X108739D01*
X116139D02*
X123339D01*
X124639D02*
X129139D01*
X129739D02*
X131139D01*
X133639D02*
X139639D01*
X73539Y-67020D02*
X75439D01*
X79939D02*
X81939D01*
X86639D02*
X88039D01*
X90839D02*
X97239D01*
X101139D02*
X108739D01*
X116139D02*
X123339D01*
X124739D02*
X129039D01*
X129739D02*
X131139D01*
X133639D02*
X139539D01*
X73539Y-67120D02*
X75339D01*
X80039D02*
X81839D01*
X86639D02*
X88039D01*
X91139D02*
X97039D01*
X101139D02*
X108739D01*
X116139D02*
X123339D01*
X124839D02*
X128839D01*
X129739D02*
X131139D01*
X133639D02*
X135039D01*
X135239D02*
X139339D01*
X73539Y-67220D02*
X75339D01*
X80039D02*
X81839D01*
X86639D02*
X88039D01*
X91439D02*
X96839D01*
X101139D02*
X108739D01*
X116139D02*
X123339D01*
X125039D02*
X128639D01*
X129739D02*
X131139D01*
X133639D02*
X135039D01*
X135439D02*
X139239D01*
X73539Y-67320D02*
X75339D01*
X80039D02*
X81839D01*
X86639D02*
X88039D01*
X91739D02*
X96639D01*
X101139D02*
X108739D01*
X116139D02*
X123339D01*
X125139D02*
X128439D01*
X129739D02*
X131139D01*
X133639D02*
X135039D01*
X135639D02*
X139039D01*
X73639Y-67420D02*
X75339D01*
X80039D02*
X81839D01*
X86639D02*
X88039D01*
X92139D02*
X96339D01*
X101139D02*
X108739D01*
X116139D02*
X123339D01*
X125339D02*
X128239D01*
X129739D02*
X131139D01*
X133639D02*
X135039D01*
X135839D02*
X138839D01*
X92639Y-67520D02*
X95939D01*
X125539D02*
X127939D01*
X136139D02*
X138639D01*
X93339Y-67620D02*
X95339D01*
X125939D02*
X127539D01*
X136539D02*
X138239D01*
D15*
X-175104Y14372D02*
X-167233D01*
Y10437D01*
X-168545Y9125D01*
X-171169D01*
X-172481Y10437D01*
Y14372D01*
Y11749D02*
X-175104Y9125D01*
X-167233Y1253D02*
Y3877D01*
Y2565D01*
X-173793D01*
X-175104Y3877D01*
Y5189D01*
X-173793Y6501D01*
X-175104Y-5306D02*
X-167233D01*
X-171169Y-1371D01*
Y-6618D01*
X-167233Y-14490D02*
Y-9242D01*
X-171169D01*
X-169857Y-11866D01*
Y-13178D01*
X-171169Y-14490D01*
X-173793D01*
X-175104Y-13178D01*
Y-10554D01*
X-173793Y-9242D01*
D16*
X131055Y-72904D02*
X130472Y-72321D01*
X129306D01*
X128723Y-72904D01*
Y-75237D01*
X129306Y-75820D01*
X130472D01*
X131055Y-75237D01*
X134554Y-72321D02*
X133388D01*
X133971D01*
Y-75237D01*
X133388Y-75820D01*
X132805D01*
X132222Y-75237D01*
X135721Y-72321D02*
Y-75820D01*
Y-74070D01*
X138053D01*
Y-72321D01*
Y-75820D01*
X142718Y-74070D02*
X145051D01*
X143885Y-72904D02*
Y-75237D01*
X149716Y-75820D02*
Y-73487D01*
X150882Y-72321D01*
X152049Y-73487D01*
Y-75820D01*
Y-74070D01*
X149716D01*
X153215Y-72321D02*
Y-75820D01*
X155547D01*
X160796Y-71738D02*
Y-72904D01*
X160213Y-73487D01*
X162545Y-75820D02*
X163711D01*
X163128D01*
Y-72321D01*
X162545Y-72904D01*
X165461D02*
X166044Y-72321D01*
X167210D01*
X167794Y-72904D01*
Y-73487D01*
X167210Y-74070D01*
X167794Y-74653D01*
Y-75237D01*
X167210Y-75820D01*
X166044D01*
X165461Y-75237D01*
Y-74653D01*
X166044Y-74070D01*
X165461Y-73487D01*
Y-72904D01*
X166044Y-74070D02*
X167210D01*
M02*
