G04*
G04 #@! TF.GenerationSoftware,Altium Limited,Altium Designer,18.0.11 (651)*
G04*
G04 Layer_Physical_Order=1*
G04 Layer_Color=255*
%FSLAX25Y25*%
%MOIN*%
G70*
G01*
G75*
%ADD13C,0.01000*%
%ADD16C,0.00700*%
%ADD17R,0.02756X0.03347*%
%ADD18R,0.03543X0.03150*%
%ADD19R,0.06693X0.04134*%
%ADD20O,0.02362X0.05709*%
%ADD35C,0.02000*%
%ADD36C,0.00800*%
%ADD37C,0.06000*%
%ADD38C,0.25000*%
%ADD39C,0.05118*%
%ADD40R,0.05118X0.05118*%
%ADD41C,0.07087*%
%ADD42R,0.07087X0.07087*%
%ADD43C,0.11811*%
%ADD44C,0.07480*%
%ADD45C,0.05906*%
%ADD46R,0.05906X0.05906*%
%ADD47C,0.02000*%
%ADD48C,0.03600*%
%ADD49C,0.04000*%
%ADD50C,0.04000*%
G36*
X-27926Y66306D02*
X-27955Y65868D01*
X-28619Y65003D01*
X-28968Y64161D01*
X-29383Y63995D01*
X-30617D01*
X-31032Y64161D01*
X-31381Y65003D01*
X-32045Y65868D01*
X-32910Y66533D01*
X-33918Y66950D01*
X-35000Y67092D01*
X-36082Y66950D01*
X-37089Y66533D01*
X-37955Y65868D01*
X-38619Y65003D01*
X-38968Y64161D01*
X-39383Y63995D01*
X-40617D01*
X-41032Y64161D01*
X-41381Y65003D01*
X-42045Y65868D01*
X-42911Y66533D01*
X-43918Y66950D01*
X-45000Y67092D01*
X-46082Y66950D01*
X-47089Y66533D01*
X-47955Y65868D01*
X-48619Y65003D01*
X-48968Y64161D01*
X-49383Y63995D01*
X-50617D01*
X-51032Y64161D01*
X-51381Y65003D01*
X-52045Y65868D01*
X-52911Y66533D01*
X-53918Y66950D01*
X-55000Y67092D01*
X-56082Y66950D01*
X-57090Y66533D01*
X-57955Y65868D01*
X-58619Y65003D01*
X-59037Y63995D01*
X-59179Y62913D01*
X-59037Y61832D01*
X-58619Y60824D01*
X-57955Y59958D01*
X-57090Y59294D01*
X-56248Y58946D01*
X-56082Y58530D01*
Y57297D01*
X-56248Y56881D01*
X-57090Y56533D01*
X-57955Y55868D01*
X-58619Y55003D01*
X-59037Y53995D01*
X-59179Y52913D01*
X-59037Y51832D01*
X-58619Y50824D01*
X-57955Y49958D01*
X-57090Y49294D01*
X-56082Y48877D01*
X-55000Y48734D01*
X-53918Y48877D01*
X-53342Y49116D01*
X-52012Y48540D01*
X-51342Y47977D01*
Y27427D01*
X-51342Y27427D01*
X-51256Y26998D01*
X-51013Y26634D01*
X-38059Y13679D01*
X-39150Y12059D01*
X-40206Y12496D01*
X-41339Y12645D01*
X-42472Y12496D01*
X-43527Y12059D01*
X-43569Y12027D01*
X-49376Y17834D01*
X-49740Y18077D01*
X-50169Y18162D01*
X-50169Y18162D01*
X-77080D01*
X-77080Y18162D01*
X-77509Y18077D01*
X-77873Y17834D01*
X-77873Y17834D01*
X-85960Y9746D01*
X-85998Y9754D01*
X-85998Y9754D01*
X-86622Y9630D01*
X-86622Y9630D01*
X-87152Y9276D01*
X-89205Y9355D01*
X-89299Y9388D01*
X-92319Y12408D01*
Y15073D01*
X-95338D01*
X-95608Y15321D01*
X-95948Y15843D01*
X-96503Y16979D01*
X-96460Y17193D01*
Y21734D01*
X-93468Y24727D01*
X-92319D01*
Y29273D01*
X-93184D01*
X-93186Y29282D01*
X-93429Y29646D01*
X-96460Y32677D01*
Y65833D01*
X-89858Y72436D01*
X-34056D01*
X-27926Y66306D01*
D02*
G37*
G36*
X-28968Y51666D02*
X-28619Y50824D01*
X-27955Y49958D01*
X-27090Y49294D01*
X-26082Y48877D01*
X-25000Y48734D01*
X-23918Y48877D01*
X-22910Y49294D01*
X-22045Y49958D01*
X-21381Y50824D01*
X-21032Y51666D01*
X-20617Y51832D01*
X-19383D01*
X-18968Y51666D01*
X-18619Y50824D01*
X-17955Y49958D01*
X-17089Y49294D01*
X-16082Y48877D01*
X-15000Y48734D01*
X-13918Y48877D01*
X-12911Y49294D01*
X-12045Y49958D01*
X-11381Y50824D01*
X-11032Y51666D01*
X-10617Y51832D01*
X-9383D01*
X-8968Y51666D01*
X-8619Y50824D01*
X-7955Y49958D01*
X-7090Y49294D01*
X-6082Y48877D01*
X-5000Y48734D01*
X-3918Y48877D01*
X-2911Y49294D01*
X-2045Y49958D01*
X-1381Y50824D01*
X-1032Y51666D01*
X-617Y51832D01*
X617D01*
X1032Y51666D01*
X1381Y50824D01*
X2045Y49958D01*
X2911Y49294D01*
X3918Y48877D01*
X5000Y48734D01*
X6082Y48877D01*
X7090Y49294D01*
X7955Y49958D01*
X8619Y50824D01*
X8968Y51666D01*
X9383Y51832D01*
X10617D01*
X11032Y51666D01*
X11381Y50824D01*
X12045Y49958D01*
X12911Y49294D01*
X13918Y48877D01*
X15000Y48734D01*
X16082Y48877D01*
X17089Y49294D01*
X17955Y49958D01*
X18619Y50824D01*
X18968Y51666D01*
X19383Y51832D01*
X20617D01*
X21032Y51666D01*
X21381Y50824D01*
X22045Y49958D01*
X22910Y49294D01*
X23918Y48877D01*
X25000Y48734D01*
X26082Y48877D01*
X27090Y49294D01*
X27955Y49958D01*
X28619Y50824D01*
X28968Y51666D01*
X29383Y51832D01*
X30617D01*
X31032Y51666D01*
X31381Y50824D01*
X32045Y49958D01*
X32910Y49294D01*
X33918Y48877D01*
X35000Y48734D01*
X36082Y48877D01*
X37089Y49294D01*
X37955Y49958D01*
X38619Y50824D01*
X38968Y51666D01*
X39383Y51832D01*
X40617D01*
X41032Y51666D01*
X41381Y50824D01*
X42045Y49958D01*
X42911Y49294D01*
X43918Y48877D01*
X45000Y48734D01*
X46082Y48877D01*
X46611Y49096D01*
X48020Y48467D01*
X48611Y47941D01*
Y39677D01*
X48663Y39417D01*
X48709Y39157D01*
X48717Y39145D01*
X48720Y39130D01*
X48867Y38910D01*
X49009Y38688D01*
X58051Y29275D01*
X57267Y27435D01*
X-14921D01*
X-15704Y27332D01*
X-16434Y27030D01*
X-17061Y26549D01*
X-17542Y25922D01*
X-17844Y25193D01*
X-17947Y24409D01*
X-17844Y23626D01*
X-17542Y22896D01*
X-17061Y22270D01*
X-16589Y20800D01*
X-16889Y20077D01*
Y19686D01*
Y-1777D01*
X-18889Y-2606D01*
X-21303Y-192D01*
X-21666Y51D01*
X-22096Y137D01*
X-22096Y137D01*
X-27705D01*
X-32023Y4455D01*
Y13127D01*
X-32108Y13556D01*
X-32351Y13920D01*
X-32351Y13920D01*
X-47499Y29068D01*
Y45857D01*
X-46207Y47148D01*
X-43077D01*
X-43077Y47148D01*
X-42647Y47234D01*
X-42284Y47477D01*
X-40183Y49577D01*
X-38315Y49897D01*
X-37555Y49651D01*
X-37089Y49294D01*
X-36082Y48877D01*
X-35000Y48734D01*
X-33918Y48877D01*
X-32910Y49294D01*
X-32045Y49958D01*
X-31381Y50824D01*
X-31032Y51666D01*
X-30617Y51832D01*
X-29383D01*
X-28968Y51666D01*
D02*
G37*
G36*
X179165Y77457D02*
X180412Y76941D01*
X181535Y76190D01*
X182490Y75236D01*
X183240Y74113D01*
X183756Y72865D01*
X184020Y71541D01*
Y70866D01*
Y-70866D01*
Y-71541D01*
X183756Y-72865D01*
X183240Y-74113D01*
X182490Y-75236D01*
X181535Y-76190D01*
X180412Y-76941D01*
X179165Y-77457D01*
X177840Y-77721D01*
X170845D01*
X169094Y-77120D01*
X169094Y-75721D01*
Y-70438D01*
X127423D01*
Y-75721D01*
X127423Y-77120D01*
X125672Y-77721D01*
X116859D01*
X116057Y-75721D01*
X147108Y-44670D01*
X147685Y-43918D01*
X148048Y-43042D01*
X148172Y-42102D01*
Y-20649D01*
X155864Y-12957D01*
X157428Y-14157D01*
X157465Y-15360D01*
X157465Y-15812D01*
Y-17374D01*
X160917D01*
Y-13921D01*
X159433D01*
X158190Y-11921D01*
X158395Y-11505D01*
X161417D01*
X162357Y-11381D01*
X163233Y-11019D01*
X163985Y-10442D01*
X164562Y-9690D01*
X164925Y-8814D01*
X165048Y-7874D01*
X164925Y-6934D01*
X164562Y-6058D01*
X163985Y-5306D01*
X163233Y-4729D01*
X162357Y-4367D01*
X161417Y-4243D01*
X155812D01*
X154872Y-4367D01*
X153996Y-4729D01*
X153244Y-5306D01*
X153244Y-5306D01*
X143209Y-15341D01*
X141209Y-14513D01*
Y-2302D01*
X155554Y12042D01*
X157465Y11125D01*
X157465Y10118D01*
Y8374D01*
X160917D01*
Y11827D01*
X160068D01*
X159054Y13314D01*
X158963Y13827D01*
X159225Y14243D01*
X161417D01*
X162357Y14367D01*
X163233Y14729D01*
X163985Y15306D01*
X164562Y16059D01*
X164925Y16934D01*
X165048Y17874D01*
X164925Y18814D01*
X164562Y19690D01*
X163985Y20442D01*
X163233Y21019D01*
X162357Y21381D01*
X161417Y21505D01*
X156251D01*
X155311Y21381D01*
X154435Y21019D01*
X153683Y20442D01*
X135011Y1769D01*
X134434Y1017D01*
X134071Y141D01*
X133947Y-798D01*
Y-38227D01*
X108685Y-63489D01*
X105672D01*
X104906Y-61641D01*
X128292Y-38255D01*
X128513Y-37924D01*
X128591Y-37534D01*
Y24428D01*
X132501Y28338D01*
X132659Y28306D01*
X132659Y28306D01*
X133283Y28431D01*
X133656Y28680D01*
X133812Y28784D01*
Y28784D01*
X134062Y29158D01*
X134166Y29313D01*
X134166Y29314D01*
X134290Y29938D01*
X134166Y30562D01*
X134166Y30562D01*
X133812Y31091D01*
X133812Y31091D01*
X133283Y31445D01*
X132618Y31607D01*
X131740Y32412D01*
X131524Y33121D01*
X131170Y33650D01*
X130641Y34004D01*
X129981Y34164D01*
X129170Y35001D01*
X129026Y35645D01*
X128673Y36175D01*
X128143Y36528D01*
X127519Y36652D01*
X126699Y37359D01*
X126547Y38008D01*
X126193Y38537D01*
X125664Y38891D01*
X124970Y39090D01*
X124170Y39959D01*
X124020Y40612D01*
X123666Y41141D01*
X123137Y41495D01*
X122472Y41660D01*
X121661Y42501D01*
X121515Y43148D01*
Y43148D01*
X121161Y43677D01*
X120632Y44031D01*
X119972Y44189D01*
X119126Y45007D01*
X118947Y45684D01*
Y45684D01*
X118593Y46214D01*
X118064Y46567D01*
X117440Y46691D01*
X116636Y47432D01*
X116506Y48062D01*
X116506Y48062D01*
X116152Y48592D01*
X115623Y48945D01*
X114917Y49163D01*
X114137Y50056D01*
X114001Y50694D01*
X114001Y50694D01*
X113647Y51223D01*
X113118Y51577D01*
X112376Y51844D01*
X111606Y52776D01*
X111472Y53382D01*
X111465Y53420D01*
X111111Y53949D01*
X110582Y54303D01*
X109958Y54427D01*
X109181Y54931D01*
X109023Y55576D01*
Y55576D01*
X108670Y56106D01*
X108141Y56459D01*
X107435Y56677D01*
X106655Y57570D01*
X106519Y58208D01*
X106519Y58208D01*
X106165Y58737D01*
X105636Y59091D01*
X105012Y59215D01*
X104175Y59961D01*
X104014Y60617D01*
X103661Y61146D01*
X103131Y61500D01*
X102469Y61663D01*
X101645Y62495D01*
X101488Y63152D01*
Y63152D01*
X101135Y63681D01*
X100605Y64035D01*
X100296Y64096D01*
X99082Y65558D01*
X98729Y66087D01*
X98199Y66441D01*
X98199Y66441D01*
X97759Y66528D01*
X97575Y66565D01*
X97527Y66555D01*
X97527Y66555D01*
X97520Y66554D01*
X96951Y66441D01*
X96422Y66087D01*
X96172Y65714D01*
X96068Y65558D01*
X96068Y65558D01*
X96031Y65374D01*
X95944Y64934D01*
X96068Y64309D01*
X96422Y63780D01*
X96422Y63780D01*
X96556Y63691D01*
Y38155D01*
X96633Y37765D01*
X96854Y37434D01*
X106878Y27411D01*
Y20263D01*
X106853Y20239D01*
X104878Y19377D01*
X104868Y19384D01*
X104587Y19440D01*
Y17500D01*
X103587D01*
Y19721D01*
X102339Y20173D01*
D01*
X100417Y20363D01*
Y23173D01*
X96498D01*
X96495Y23176D01*
X95451Y23978D01*
X95346Y24021D01*
Y25677D01*
X91529D01*
X88622Y28584D01*
X87577Y29386D01*
X86361Y29890D01*
X85056Y30061D01*
X73572D01*
X72266Y29890D01*
X71050Y29386D01*
X70006Y28584D01*
X68419Y26997D01*
X66313Y26549D01*
X65686Y27030D01*
X64956Y27332D01*
X64173Y27435D01*
X64169Y27435D01*
X64165Y27435D01*
X63778D01*
X51466Y40251D01*
Y47377D01*
X51735Y47717D01*
X53466Y48631D01*
X53814Y48487D01*
X54500Y48397D01*
Y52913D01*
X55000D01*
Y53413D01*
X59517D01*
X59426Y54099D01*
X58969Y55205D01*
X58240Y56154D01*
X57958Y56370D01*
X58637Y58370D01*
X59543D01*
Y62413D01*
X55000D01*
Y62913D01*
X54500D01*
Y67457D01*
X50457D01*
Y66551D01*
X48457Y65872D01*
X48240Y66154D01*
X47291Y66882D01*
X46186Y67340D01*
X45000Y67496D01*
X43814Y67340D01*
X42709Y66882D01*
X41760Y66154D01*
X41031Y65205D01*
X40866Y64805D01*
X38726Y64745D01*
X38619Y65003D01*
X37955Y65868D01*
X37089Y66533D01*
X36082Y66950D01*
X35000Y67092D01*
X33918Y66950D01*
X32910Y66533D01*
X32045Y65868D01*
X31381Y65003D01*
X31032Y64161D01*
X30617Y63995D01*
X29383D01*
X28968Y64161D01*
X28619Y65003D01*
X27955Y65868D01*
X27090Y66533D01*
X26082Y66950D01*
X25000Y67092D01*
X23918Y66950D01*
X22910Y66533D01*
X22045Y65868D01*
X21381Y65003D01*
X21032Y64161D01*
X20617Y63995D01*
X19383D01*
X18968Y64161D01*
X18619Y65003D01*
X17955Y65868D01*
X17089Y66533D01*
X16082Y66950D01*
X15000Y67092D01*
X13918Y66950D01*
X12911Y66533D01*
X12045Y65868D01*
X11381Y65003D01*
X11032Y64161D01*
X10617Y63995D01*
X9383D01*
X8968Y64161D01*
X8619Y65003D01*
X7955Y65868D01*
X7090Y66533D01*
X6082Y66950D01*
X5000Y67092D01*
X3918Y66950D01*
X2911Y66533D01*
X2045Y65868D01*
X1381Y65003D01*
X1032Y64161D01*
X617Y63995D01*
X-617D01*
X-1032Y64161D01*
X-1381Y65003D01*
X-2045Y65868D01*
X-2911Y66533D01*
X-3918Y66950D01*
X-5000Y67092D01*
X-6082Y66950D01*
X-7090Y66533D01*
X-7955Y65868D01*
X-8619Y65003D01*
X-8968Y64161D01*
X-9383Y63995D01*
X-10617D01*
X-11032Y64161D01*
X-11381Y65003D01*
X-12045Y65868D01*
X-12911Y66533D01*
X-13918Y66950D01*
X-15000Y67092D01*
X-16082Y66950D01*
X-17050Y66549D01*
X-26221Y75721D01*
X-26068Y76664D01*
X-25500Y77721D01*
X177840D01*
X179165Y77457D01*
D02*
G37*
G36*
X-36072Y5262D02*
X-35866Y5147D01*
Y3327D01*
X-35866Y3327D01*
X-35781Y2898D01*
X-35537Y2534D01*
X-29625Y-3378D01*
X-29625Y-3378D01*
X-29261Y-3621D01*
X-29149Y-3643D01*
X-28797Y-4074D01*
X-28669Y-4330D01*
X-28308Y-5706D01*
X-28594Y-6079D01*
X-29032Y-7135D01*
X-29066Y-7395D01*
X-34396Y-12726D01*
X-36896D01*
X-36917Y-12705D01*
X-37754Y-10726D01*
X-37547Y-10457D01*
X-37110Y-9401D01*
X-36961Y-8268D01*
X-37110Y-7135D01*
X-37547Y-6079D01*
X-38243Y-5172D01*
X-39150Y-4477D01*
X-40206Y-4039D01*
X-41339Y-3890D01*
X-42472Y-4039D01*
X-43527Y-4477D01*
X-43536Y-4484D01*
X-45836Y-2184D01*
Y3848D01*
X-45730Y3948D01*
X-43836Y4714D01*
X-43527Y4477D01*
X-42472Y4039D01*
X-41339Y3890D01*
X-40206Y4039D01*
X-39150Y4477D01*
X-38243Y5172D01*
X-37866Y5664D01*
X-36072Y5262D01*
D02*
G37*
G36*
X102447Y6528D02*
Y-22259D01*
X101175Y-23298D01*
X100530Y-23110D01*
X99816Y-22726D01*
Y-19555D01*
X99678Y-18860D01*
X99284Y-18271D01*
X98695Y-17877D01*
X98000Y-17739D01*
X97305Y-17877D01*
X96716Y-18271D01*
X96611Y-18428D01*
X95913Y-18584D01*
X95087D01*
X94389Y-18428D01*
X94284Y-18271D01*
X93695Y-17877D01*
X93000Y-17739D01*
X92305Y-17877D01*
X92039Y-18055D01*
X90822Y-17689D01*
X90039Y-17180D01*
Y-15135D01*
X89884Y-14354D01*
X89442Y-13693D01*
X88780Y-13251D01*
X88000Y-13095D01*
X87220Y-13251D01*
X86558Y-13693D01*
X86116Y-14354D01*
X85961Y-15135D01*
Y-17180D01*
X85178Y-17689D01*
X83961Y-18055D01*
X83695Y-17877D01*
X83000Y-17739D01*
X82305Y-17877D01*
X81716Y-18271D01*
X81322Y-18860D01*
X81184Y-19555D01*
Y-22902D01*
X81322Y-23596D01*
X81716Y-24186D01*
X82305Y-24579D01*
X83000Y-24718D01*
X83695Y-24579D01*
X85128Y-26027D01*
Y-30214D01*
X84728Y-30386D01*
Y-32461D01*
X87500D01*
Y-33461D01*
X84728D01*
Y-35535D01*
X84728D01*
X85593Y-37178D01*
X85616Y-37296D01*
X86058Y-37957D01*
X86720Y-38399D01*
X87000Y-38455D01*
Y-36516D01*
X88000D01*
Y-38455D01*
X88280Y-38399D01*
X88890Y-37992D01*
X88972Y-37957D01*
X90991Y-37912D01*
X91153Y-37974D01*
X91720Y-38352D01*
X92000Y-38408D01*
Y-36468D01*
X93000D01*
Y-38408D01*
X93280Y-38352D01*
X93890Y-37945D01*
X93972Y-37909D01*
X94051Y-37908D01*
X95927Y-39866D01*
X95916Y-40029D01*
X93445Y-42500D01*
X60544D01*
X60211Y-42239D01*
X59286Y-40500D01*
X59426Y-40162D01*
X59517Y-39476D01*
X55000D01*
Y-38476D01*
X59517D01*
X59426Y-37790D01*
X58969Y-36685D01*
X58240Y-35736D01*
X57377Y-35074D01*
X57291Y-34500D01*
Y-33453D01*
X57377Y-32879D01*
X58240Y-32217D01*
X58969Y-31268D01*
X59426Y-30162D01*
X59517Y-29476D01*
X55000D01*
Y-28976D01*
X54500D01*
Y-24460D01*
X53814Y-24550D01*
X52709Y-25008D01*
X51760Y-25736D01*
X51031Y-26685D01*
X50866Y-27085D01*
X48726Y-27145D01*
X48619Y-26887D01*
X47955Y-26021D01*
X47089Y-25357D01*
X46082Y-24940D01*
X45000Y-24797D01*
X43918Y-24940D01*
X42911Y-25357D01*
X41473Y-25740D01*
X40215Y-25120D01*
X38596Y-23501D01*
X39361Y-21654D01*
X64565D01*
X65288Y-21354D01*
X65842Y-20800D01*
X66142Y-20077D01*
Y-10316D01*
X67120Y-10187D01*
X68337Y-9683D01*
X69381Y-8882D01*
X74886Y-3376D01*
X75688Y-2332D01*
X76192Y-1115D01*
X76363Y190D01*
Y5723D01*
X81467D01*
X81601Y5375D01*
X81800Y3723D01*
X81428Y3474D01*
X80945Y2753D01*
X80776Y1902D01*
Y728D01*
X83000D01*
Y-272D01*
X80776D01*
Y-1445D01*
X80945Y-2296D01*
X81369Y-2929D01*
Y-6246D01*
X81116Y-6624D01*
X81060Y-6904D01*
X84940D01*
X84884Y-6624D01*
X84631Y-6246D01*
Y-3311D01*
X86569Y-2779D01*
X86706Y-2795D01*
X86904Y-2854D01*
X87305Y-3123D01*
X88000Y-3261D01*
X88133Y-3234D01*
X88474Y-4058D01*
X89305Y-5140D01*
X90387Y-5971D01*
X91647Y-6493D01*
X93000Y-6671D01*
X94353Y-6493D01*
X95613Y-5971D01*
X96695Y-5140D01*
X97526Y-4058D01*
X97867Y-3234D01*
X98000Y-3261D01*
X98695Y-3123D01*
X99284Y-2729D01*
X99678Y-2140D01*
X99816Y-1445D01*
Y1902D01*
X99678Y2596D01*
X99578Y2746D01*
X99911Y3549D01*
X100083Y4854D01*
Y6827D01*
X100417D01*
Y8264D01*
X100447Y8269D01*
X102447Y6528D01*
D02*
G37*
G36*
X-92161Y76664D02*
X-92008Y75721D01*
X-99975Y67753D01*
X-100218Y67390D01*
X-100303Y66961D01*
X-100303Y66960D01*
Y29273D01*
X-101196D01*
Y24727D01*
X-100303D01*
Y18320D01*
X-102489Y16134D01*
X-102732Y15770D01*
X-102818Y15341D01*
X-102818Y15341D01*
Y10671D01*
X-102818Y10671D01*
X-102817Y10667D01*
Y9316D01*
X-106056Y6078D01*
X-106299Y5714D01*
X-106384Y5284D01*
X-106384Y5284D01*
Y3624D01*
X-106384Y3545D01*
X-106398Y2757D01*
X-106598Y2029D01*
X-106931Y1261D01*
X-106993Y1156D01*
X-107300Y696D01*
X-107425Y71D01*
X-107300Y-553D01*
X-106947Y-1082D01*
X-107036Y-2963D01*
X-114128Y-10055D01*
X-115784Y-9097D01*
X-115466Y-8329D01*
X-115357Y-7504D01*
X-115466Y-6679D01*
X-115784Y-5911D01*
X-116290Y-5251D01*
X-116950Y-4744D01*
X-117719Y-4426D01*
X-118543Y-4318D01*
X-119368Y-4426D01*
X-120136Y-4744D01*
X-120796Y-5251D01*
X-121303Y-5911D01*
X-121621Y-6679D01*
X-121730Y-7504D01*
X-121621Y-8329D01*
X-121303Y-9097D01*
X-121084Y-9382D01*
X-121475Y-10702D01*
X-121964Y-11382D01*
X-125589D01*
X-125784Y-10911D01*
X-126290Y-10251D01*
X-126950Y-9745D01*
X-127719Y-9426D01*
X-128543Y-9318D01*
X-129368Y-9426D01*
X-130137Y-9745D01*
X-130796Y-10251D01*
X-131303Y-10911D01*
X-131621Y-11679D01*
X-131730Y-12504D01*
X-131621Y-13329D01*
X-131303Y-14097D01*
X-130796Y-14757D01*
X-130137Y-15263D01*
X-129368Y-15582D01*
X-128543Y-15690D01*
X-127719Y-15582D01*
X-126950Y-15263D01*
X-126290Y-14757D01*
X-125784Y-14097D01*
X-125589Y-13625D01*
X-121964D01*
X-121475Y-14306D01*
X-121084Y-15626D01*
X-121303Y-15911D01*
X-121621Y-16679D01*
X-121730Y-17504D01*
X-121621Y-18329D01*
X-121303Y-19097D01*
X-120796Y-19757D01*
X-120136Y-20263D01*
X-119368Y-20582D01*
X-118543Y-20690D01*
X-117719Y-20582D01*
X-116950Y-20263D01*
X-116290Y-19757D01*
X-115784Y-19097D01*
X-115588Y-18625D01*
X-113394D01*
X-113394Y-18625D01*
X-112964Y-18540D01*
X-112601Y-18297D01*
X-106905Y-12601D01*
X-101196D01*
Y-13753D01*
X-96758Y-13753D01*
X-95240Y-13753D01*
X-92319D01*
Y-11088D01*
X-85971Y-4740D01*
X-85971Y-4740D01*
X-85728Y-4376D01*
X-85643Y-3947D01*
Y3459D01*
X-74782Y14319D01*
X-62705D01*
X-62344Y12339D01*
X-63474Y11734D01*
X-64465Y10922D01*
X-65278Y9931D01*
X-65882Y8801D01*
X-66254Y7575D01*
X-66379Y6299D01*
X-66254Y5024D01*
X-65882Y3798D01*
X-65278Y2667D01*
X-64465Y1677D01*
X-63474Y864D01*
X-62344Y260D01*
X-61118Y-112D01*
X-59842Y-238D01*
X-58567Y-112D01*
X-57341Y260D01*
X-56211Y864D01*
X-55220Y1677D01*
X-54407Y2667D01*
X-53803Y3798D01*
X-53431Y5024D01*
X-53306Y6299D01*
X-53431Y7575D01*
X-53803Y8801D01*
X-54407Y9931D01*
X-55220Y10922D01*
X-56211Y11734D01*
X-57341Y12339D01*
X-56980Y14319D01*
X-51297D01*
X-48079Y11102D01*
Y-2648D01*
X-48079Y-2648D01*
X-47994Y-3078D01*
X-47751Y-3442D01*
X-45123Y-6070D01*
X-45130Y-6079D01*
X-45567Y-7135D01*
X-45716Y-8268D01*
X-45567Y-9401D01*
X-45130Y-10457D01*
X-44923Y-10726D01*
X-45760Y-12705D01*
X-45781Y-12726D01*
X-76412D01*
X-77352Y-12850D01*
X-78227Y-13213D01*
X-78979Y-13790D01*
X-79556Y-14541D01*
X-79919Y-15417D01*
X-80043Y-16357D01*
X-79919Y-17297D01*
X-79556Y-18173D01*
X-78979Y-18925D01*
X-78227Y-19502D01*
X-77352Y-19864D01*
X-76412Y-19988D01*
X-48916D01*
X-48151Y-21836D01*
X-50436Y-24121D01*
X-50679Y-24485D01*
X-50710Y-24638D01*
X-51574Y-25139D01*
X-52765Y-25469D01*
X-52911Y-25357D01*
X-53918Y-24940D01*
X-55000Y-24797D01*
X-56082Y-24940D01*
X-57061Y-25345D01*
X-61357D01*
X-62297Y-25469D01*
X-63173Y-25832D01*
X-63925Y-26409D01*
X-66219Y-28704D01*
X-66796Y-29456D01*
X-67159Y-30331D01*
X-67283Y-31271D01*
Y-55820D01*
X-67159Y-56760D01*
X-66796Y-57635D01*
X-66219Y-58387D01*
X-48886Y-75721D01*
X-49687Y-77721D01*
X-177840D01*
X-179165Y-77457D01*
X-180412Y-76941D01*
X-181535Y-76190D01*
X-182490Y-75236D01*
X-183240Y-74113D01*
X-183756Y-72865D01*
X-184020Y-71541D01*
Y-70866D01*
Y70866D01*
Y71541D01*
X-183756Y72865D01*
X-183240Y74113D01*
X-182490Y75236D01*
X-181535Y76190D01*
X-180412Y76941D01*
X-179165Y77457D01*
X-177840Y77721D01*
X-92729D01*
X-92161Y76664D01*
D02*
G37*
G36*
X-28968Y-40224D02*
X-28619Y-41066D01*
X-27955Y-41931D01*
X-27090Y-42595D01*
X-26082Y-43013D01*
X-26020Y-43021D01*
Y-59367D01*
X-25942Y-59757D01*
X-25721Y-60087D01*
X-24168Y-61641D01*
X-24933Y-63489D01*
X-40835D01*
X-51369Y-52954D01*
Y-43120D01*
X-50857D01*
Y-40890D01*
X-48857Y-40492D01*
X-48619Y-41066D01*
X-47955Y-41931D01*
X-47089Y-42595D01*
X-46082Y-43013D01*
X-45000Y-43155D01*
X-43918Y-43013D01*
X-42911Y-42595D01*
X-42045Y-41931D01*
X-41381Y-41066D01*
X-41032Y-40224D01*
X-40617Y-40058D01*
X-39383D01*
X-38968Y-40224D01*
X-38619Y-41066D01*
X-37955Y-41931D01*
X-37089Y-42595D01*
X-36082Y-43013D01*
X-35000Y-43155D01*
X-33918Y-43013D01*
X-32910Y-42595D01*
X-32045Y-41931D01*
X-31381Y-41066D01*
X-31032Y-40224D01*
X-30617Y-40058D01*
X-29383D01*
X-28968Y-40224D01*
D02*
G37*
%LPC*%
G36*
X-24303Y12983D02*
Y8768D01*
X-20088D01*
X-20185Y9505D01*
X-20663Y10658D01*
X-21422Y11648D01*
X-22413Y12408D01*
X-23566Y12886D01*
X-24303Y12983D01*
D02*
G37*
G36*
X-25303D02*
X-26041Y12886D01*
X-27194Y12408D01*
X-28184Y11648D01*
X-28944Y10658D01*
X-29421Y9505D01*
X-29518Y8768D01*
X-25303D01*
Y12983D01*
D02*
G37*
G36*
X-20088Y7768D02*
X-24303D01*
Y3553D01*
X-23566Y3650D01*
X-22413Y4127D01*
X-21422Y4887D01*
X-20663Y5877D01*
X-20185Y7030D01*
X-20088Y7768D01*
D02*
G37*
G36*
X-25303D02*
X-29518D01*
X-29421Y7030D01*
X-28944Y5877D01*
X-28184Y4887D01*
X-27194Y4127D01*
X-26041Y3650D01*
X-25303Y3553D01*
Y7768D01*
D02*
G37*
G36*
X59543Y67457D02*
X55500D01*
Y63413D01*
X59543D01*
Y67457D01*
D02*
G37*
G36*
X59517Y52413D02*
X55500D01*
Y48397D01*
X56186Y48487D01*
X57291Y48945D01*
X58240Y49673D01*
X58969Y50622D01*
X59426Y51727D01*
X59517Y52413D01*
D02*
G37*
G36*
X161417Y67865D02*
X159362Y67703D01*
X157357Y67222D01*
X155452Y66433D01*
X153693Y65355D01*
X152126Y64016D01*
X150786Y62448D01*
X149709Y60690D01*
X148920Y58785D01*
X148439Y56780D01*
X148277Y54724D01*
X148439Y52669D01*
X148920Y50664D01*
X149709Y48759D01*
X150786Y47001D01*
X152126Y45433D01*
X153693Y44093D01*
X155452Y43016D01*
X157357Y42227D01*
X159362Y41746D01*
X161417Y41584D01*
X163473Y41746D01*
X165478Y42227D01*
X167383Y43016D01*
X169141Y44093D01*
X170709Y45433D01*
X172048Y47001D01*
X173126Y48759D01*
X173915Y50664D01*
X174396Y52669D01*
X174558Y54724D01*
X174396Y56780D01*
X173915Y58785D01*
X173126Y60690D01*
X172048Y62448D01*
X170709Y64016D01*
X169141Y65355D01*
X167383Y66433D01*
X165478Y67222D01*
X163473Y67703D01*
X161417Y67865D01*
D02*
G37*
G36*
X161917Y11827D02*
Y8374D01*
X165370D01*
Y11827D01*
X161917D01*
D02*
G37*
G36*
X165370Y7374D02*
X161917D01*
Y3921D01*
X165370D01*
Y7374D01*
D02*
G37*
G36*
X160917D02*
X157465D01*
Y3921D01*
X160917D01*
Y7374D01*
D02*
G37*
G36*
X161917Y-13921D02*
Y-17374D01*
X165370D01*
Y-13921D01*
X161917D01*
D02*
G37*
G36*
X165370Y-18374D02*
X161917D01*
Y-21827D01*
X165370D01*
Y-18374D01*
D02*
G37*
G36*
X160917D02*
X157465D01*
Y-21827D01*
X160917D01*
Y-18374D01*
D02*
G37*
G36*
X161417Y-41584D02*
X159362Y-41746D01*
X157357Y-42227D01*
X155452Y-43016D01*
X153693Y-44093D01*
X152126Y-45433D01*
X150786Y-47001D01*
X149709Y-48759D01*
X148920Y-50664D01*
X148439Y-52669D01*
X148277Y-54724D01*
X148439Y-56780D01*
X148920Y-58785D01*
X149709Y-60690D01*
X150786Y-62448D01*
X152126Y-64016D01*
X153693Y-65355D01*
X155452Y-66433D01*
X157357Y-67222D01*
X159362Y-67703D01*
X161417Y-67865D01*
X163473Y-67703D01*
X165478Y-67222D01*
X167383Y-66433D01*
X169141Y-65355D01*
X170709Y-64016D01*
X172048Y-62448D01*
X173126Y-60690D01*
X173915Y-58785D01*
X174396Y-56780D01*
X174558Y-54724D01*
X174396Y-52669D01*
X173915Y-50664D01*
X173126Y-48759D01*
X172048Y-47001D01*
X170709Y-45433D01*
X169141Y-44093D01*
X167383Y-43016D01*
X165478Y-42227D01*
X163473Y-41746D01*
X161417Y-41584D01*
D02*
G37*
G36*
X84940Y-7904D02*
X83500D01*
Y-9344D01*
X83780Y-9288D01*
X84442Y-8846D01*
X84884Y-8185D01*
X84940Y-7904D01*
D02*
G37*
G36*
X82500D02*
X81060D01*
X81116Y-8185D01*
X81558Y-8846D01*
X82220Y-9288D01*
X82500Y-9344D01*
Y-7904D01*
D02*
G37*
G36*
X55500Y-24460D02*
Y-28476D01*
X59517D01*
X59426Y-27790D01*
X58969Y-26685D01*
X58240Y-25736D01*
X57291Y-25008D01*
X56186Y-24550D01*
X55500Y-24460D01*
D02*
G37*
G36*
X-161417Y67865D02*
X-163473Y67703D01*
X-165478Y67222D01*
X-167383Y66433D01*
X-169141Y65355D01*
X-170709Y64016D01*
X-172048Y62448D01*
X-173126Y60690D01*
X-173915Y58785D01*
X-174396Y56780D01*
X-174558Y54724D01*
X-174396Y52669D01*
X-173915Y50664D01*
X-173126Y48759D01*
X-172048Y47001D01*
X-170709Y45433D01*
X-169141Y44093D01*
X-167383Y43016D01*
X-165478Y42227D01*
X-163473Y41746D01*
X-161417Y41584D01*
X-159362Y41746D01*
X-157357Y42227D01*
X-155452Y43016D01*
X-153693Y44093D01*
X-152126Y45433D01*
X-150786Y47001D01*
X-149709Y48759D01*
X-148920Y50664D01*
X-148439Y52669D01*
X-148277Y54724D01*
X-148439Y56780D01*
X-148920Y58785D01*
X-149709Y60690D01*
X-150786Y62448D01*
X-152126Y64016D01*
X-153693Y65355D01*
X-155452Y66433D01*
X-157357Y67222D01*
X-159362Y67703D01*
X-161417Y67865D01*
D02*
G37*
G36*
X-153543Y29436D02*
X-154896Y29303D01*
X-156196Y28909D01*
X-157395Y28268D01*
X-158445Y27406D01*
X-159308Y26355D01*
X-159948Y25157D01*
X-160343Y23856D01*
X-160476Y22504D01*
X-160343Y21151D01*
X-159948Y19851D01*
X-159308Y18652D01*
X-158445Y17602D01*
X-157395Y16740D01*
X-156196Y16099D01*
X-154896Y15705D01*
X-153543Y15571D01*
X-152191Y15705D01*
X-150890Y16099D01*
X-149692Y16740D01*
X-148641Y17602D01*
X-147779Y18652D01*
X-147138Y19851D01*
X-146744Y21151D01*
X-146611Y22504D01*
X-146744Y23856D01*
X-147138Y25157D01*
X-147779Y26355D01*
X-148641Y27406D01*
X-149692Y28268D01*
X-150890Y28909D01*
X-152191Y29303D01*
X-153543Y29436D01*
D02*
G37*
G36*
X-125384Y20655D02*
X-131702D01*
Y14337D01*
X-125384D01*
Y20655D01*
D02*
G37*
G36*
X-118543Y15682D02*
X-119368Y15574D01*
X-120136Y15256D01*
X-120796Y14749D01*
X-121303Y14089D01*
X-121621Y13321D01*
X-121730Y12496D01*
X-121621Y11671D01*
X-121303Y10903D01*
X-120796Y10243D01*
X-120136Y9737D01*
X-119368Y9418D01*
X-118543Y9310D01*
X-117719Y9418D01*
X-116950Y9737D01*
X-116290Y10243D01*
X-115784Y10903D01*
X-115466Y11671D01*
X-115357Y12496D01*
X-115466Y13321D01*
X-115784Y14089D01*
X-116290Y14749D01*
X-116950Y15256D01*
X-117719Y15574D01*
X-118543Y15682D01*
D02*
G37*
G36*
X-128543Y11086D02*
X-129472Y10964D01*
X-130338Y10605D01*
X-131082Y10034D01*
X-131652Y9291D01*
X-132011Y8425D01*
X-132133Y7496D01*
X-132011Y6567D01*
X-131652Y5701D01*
X-131082Y4958D01*
X-130338Y4387D01*
X-129472Y4029D01*
X-128543Y3906D01*
X-127614Y4029D01*
X-126748Y4387D01*
X-126005Y4958D01*
X-125435Y5701D01*
X-125076Y6567D01*
X-124953Y7496D01*
X-125076Y8425D01*
X-125435Y9291D01*
X-126005Y10034D01*
X-126748Y10605D01*
X-127614Y10964D01*
X-128543Y11086D01*
D02*
G37*
G36*
X-118043Y6020D02*
Y2996D01*
X-115019D01*
X-115076Y3425D01*
X-115435Y4291D01*
X-116005Y5034D01*
X-116748Y5605D01*
X-117614Y5963D01*
X-118043Y6020D01*
D02*
G37*
G36*
X-119043D02*
X-119472Y5963D01*
X-120338Y5605D01*
X-121082Y5034D01*
X-121652Y4291D01*
X-122011Y3425D01*
X-122067Y2996D01*
X-119043D01*
Y6020D01*
D02*
G37*
G36*
Y1996D02*
X-122067D01*
X-122011Y1567D01*
X-121652Y701D01*
X-121082Y-42D01*
X-120338Y-613D01*
X-119472Y-971D01*
X-119043Y-1028D01*
Y1996D01*
D02*
G37*
G36*
X-115019D02*
X-118043D01*
Y-1028D01*
X-117614Y-971D01*
X-116748Y-613D01*
X-116005Y-42D01*
X-115435Y701D01*
X-115076Y1567D01*
X-115019Y1996D01*
D02*
G37*
G36*
X-128043Y1020D02*
Y-2004D01*
X-125019D01*
X-125076Y-1575D01*
X-125435Y-709D01*
X-126005Y34D01*
X-126748Y605D01*
X-127614Y963D01*
X-128043Y1020D01*
D02*
G37*
G36*
X-129043D02*
X-129472Y963D01*
X-130338Y605D01*
X-131082Y34D01*
X-131652Y-709D01*
X-132011Y-1575D01*
X-132067Y-2004D01*
X-129043D01*
Y1020D01*
D02*
G37*
G36*
Y-3004D02*
X-132067D01*
X-132011Y-3433D01*
X-131652Y-4299D01*
X-131082Y-5042D01*
X-130338Y-5613D01*
X-129472Y-5971D01*
X-129043Y-6028D01*
Y-3004D01*
D02*
G37*
G36*
X-125019D02*
X-128043D01*
Y-6028D01*
X-127614Y-5971D01*
X-126748Y-5613D01*
X-126005Y-5042D01*
X-125435Y-4299D01*
X-125076Y-3433D01*
X-125019Y-3004D01*
D02*
G37*
G36*
X-153543Y-15571D02*
X-154896Y-15705D01*
X-156196Y-16099D01*
X-157395Y-16740D01*
X-158445Y-17602D01*
X-159308Y-18652D01*
X-159948Y-19851D01*
X-160343Y-21151D01*
X-160476Y-22504D01*
X-160343Y-23856D01*
X-159948Y-25157D01*
X-159308Y-26355D01*
X-158445Y-27406D01*
X-157395Y-28268D01*
X-156196Y-28909D01*
X-154896Y-29303D01*
X-153543Y-29436D01*
X-152191Y-29303D01*
X-150890Y-28909D01*
X-149692Y-28268D01*
X-148641Y-27406D01*
X-147779Y-26355D01*
X-147138Y-25157D01*
X-146744Y-23856D01*
X-146611Y-22504D01*
X-146744Y-21151D01*
X-147138Y-19851D01*
X-147779Y-18652D01*
X-148641Y-17602D01*
X-149692Y-16740D01*
X-150890Y-16099D01*
X-152191Y-15705D01*
X-153543Y-15571D01*
D02*
G37*
G36*
X-161417Y-41584D02*
X-163473Y-41746D01*
X-165478Y-42227D01*
X-167383Y-43016D01*
X-169141Y-44093D01*
X-170709Y-45433D01*
X-172048Y-47001D01*
X-173126Y-48759D01*
X-173915Y-50664D01*
X-174396Y-52669D01*
X-174558Y-54724D01*
X-174396Y-56780D01*
X-173915Y-58785D01*
X-173126Y-60690D01*
X-172048Y-62448D01*
X-170709Y-64016D01*
X-169141Y-65355D01*
X-167383Y-66433D01*
X-165478Y-67222D01*
X-163473Y-67703D01*
X-161417Y-67865D01*
X-159362Y-67703D01*
X-157357Y-67222D01*
X-155452Y-66433D01*
X-153693Y-65355D01*
X-152126Y-64016D01*
X-150786Y-62448D01*
X-149709Y-60690D01*
X-148920Y-58785D01*
X-148439Y-56780D01*
X-148277Y-54724D01*
X-148439Y-52669D01*
X-148920Y-50664D01*
X-149709Y-48759D01*
X-150786Y-47001D01*
X-152126Y-45433D01*
X-153693Y-44093D01*
X-155452Y-43016D01*
X-157357Y-42227D01*
X-159362Y-41746D01*
X-161417Y-41584D01*
D02*
G37*
%LPD*%
D13*
X-94222Y25558D02*
Y28853D01*
X-99182Y17856D02*
Y66961D01*
X-105793Y-3307D02*
Y71D01*
X-114990Y-12504D02*
X-105793Y-3307D01*
X-128543Y-12504D02*
X-114990D01*
X-86764Y3923D02*
Y5268D01*
X-75247Y15441D02*
X-50832D01*
X-86764Y3923D02*
X-75247Y15441D01*
X-85998Y8122D02*
X-77080Y17041D01*
X-86764Y-3947D02*
Y3923D01*
X-50832Y15441D02*
X-46958Y11566D01*
Y-2648D02*
Y11566D01*
X-50169Y17041D02*
X-41396Y8268D01*
X-77080Y17041D02*
X-50169D01*
X-46958Y-2648D02*
X-41339Y-8268D01*
X-94297Y12800D02*
X-86764Y5268D01*
X-41396Y8268D02*
X-41339D01*
X-94297Y660D02*
X-90368D01*
X-94297D02*
Y4707D01*
X-31194Y-20457D02*
X-23850Y-13113D01*
X-49643Y-34333D02*
Y-24915D01*
Y-34333D02*
X-45000Y-38976D01*
X-49643Y-24915D02*
X-45186Y-20457D01*
X-31194D01*
X-39664Y-33764D02*
X-35000Y-38428D01*
X-39664Y-33764D02*
Y-24451D01*
X-37270Y-22057D01*
X-35000Y-38976D02*
Y-38428D01*
X-37270Y-22057D02*
X-30531D01*
X-23187Y-14713D01*
X-23850Y-13113D02*
X-22689D01*
X-23187Y-14713D02*
X-22027D01*
X-22689Y-13113D02*
X-19519Y-9943D01*
X-22027Y-14713D02*
X-17919Y-10605D01*
X-50220Y58506D02*
X-45812Y62913D01*
X-45000D01*
X-40279Y57635D02*
X-35000Y62913D01*
X-17919Y-10605D02*
Y-5161D01*
X-28169Y-985D02*
X-22096D01*
X-17919Y-5161D01*
X-28832Y-2585D02*
X-22758D01*
X-19519Y-5824D01*
Y-9943D02*
Y-5824D01*
X-118543Y-17504D02*
X-113394D01*
X-107369Y-11479D01*
X-99218D01*
X-25000Y-38976D02*
Y-38717D01*
X-103163Y4415D02*
X-99511D01*
X-99218Y4707D01*
X-25000Y62913D02*
Y64966D01*
X-48620Y46322D02*
X-46672Y48270D01*
X-43077D01*
X-40279Y51068D01*
Y57635D01*
X-105263Y3545D02*
Y5284D01*
X-101696Y8852D01*
Y10671D01*
X-101696Y10671D02*
X-101696Y10671D01*
X-101696Y10671D02*
Y15341D01*
X-94297Y-3386D02*
Y660D01*
Y-11479D02*
X-86764Y-3947D01*
X-99218Y-3386D02*
Y-2500D01*
X-105263Y3545D02*
X-99218Y-2500D01*
Y-11479D02*
Y-3386D01*
Y4707D02*
Y12800D01*
Y15556D01*
X-101696Y15341D02*
X-99182Y17856D01*
X-97582Y32212D02*
X-94222Y28853D01*
X-99218Y15556D02*
X-97582Y17193D01*
Y22199D01*
X-94222Y25558D01*
X-97582Y32212D02*
Y66298D01*
X-90322Y73557D01*
X-33592D01*
X-25000Y64966D01*
X-99182Y66961D02*
X-90985Y75157D01*
X-27244D01*
X-15000Y62913D01*
X-33144Y3990D02*
X-28169Y-985D01*
X-48620Y28603D02*
Y46322D01*
Y28603D02*
X-33144Y13127D01*
Y3990D02*
Y13127D01*
X-50220Y27427D02*
Y58506D01*
X-34744Y3327D02*
X-28832Y-2585D01*
X-34744Y3327D02*
Y11951D01*
X-50220Y27427D02*
X-34744Y11951D01*
D16*
X131055Y-72904D02*
X130472Y-72321D01*
X129306D01*
X128723Y-72904D01*
Y-75237D01*
X129306Y-75820D01*
X130472D01*
X131055Y-75237D01*
X134554Y-72321D02*
X133388D01*
X133971D01*
Y-75237D01*
X133388Y-75820D01*
X132805D01*
X132222Y-75237D01*
X135721Y-72321D02*
Y-75820D01*
Y-74070D01*
X138053D01*
Y-72321D01*
Y-75820D01*
X142718Y-74070D02*
X145051D01*
X143885Y-72904D02*
Y-75237D01*
X149716Y-75820D02*
Y-73487D01*
X150882Y-72321D01*
X152049Y-73487D01*
Y-75820D01*
Y-74070D01*
X149716D01*
X153215Y-72321D02*
Y-75820D01*
X155547D01*
X160796Y-71738D02*
Y-72904D01*
X160213Y-73487D01*
X162545Y-75820D02*
X163711D01*
X163128D01*
Y-72321D01*
X162545Y-72904D01*
X165461D02*
X166044Y-72321D01*
X167210D01*
X167794Y-72904D01*
Y-73487D01*
X167210Y-74070D01*
X167794Y-74653D01*
Y-75237D01*
X167210Y-75820D01*
X166044D01*
X165461Y-75237D01*
Y-74653D01*
X166044Y-74070D01*
X165461Y-73487D01*
Y-72904D01*
X166044Y-74070D02*
X167210D01*
D17*
X95039Y12500D02*
D03*
X99961Y12500D02*
D03*
X99961Y17500D02*
D03*
X95039D02*
D03*
X-94297Y27000D02*
D03*
X-99218D02*
D03*
X-94297Y12800D02*
D03*
X-99218D02*
D03*
X-94297Y-3386D02*
D03*
X-99218D02*
D03*
X-94297Y-11479D02*
D03*
X-99218D02*
D03*
X-94297Y4707D02*
D03*
X-99218D02*
D03*
D18*
X87500Y-32961D02*
D03*
Y-28039D02*
D03*
X92500Y-32961D02*
D03*
Y-28039D02*
D03*
X97500Y-32961D02*
D03*
X97500Y-28039D02*
D03*
D19*
X88000Y19610D02*
D03*
Y8390D02*
D03*
X78500Y8390D02*
D03*
Y19610D02*
D03*
D20*
X83000Y-21228D02*
D03*
X88000D02*
D03*
X93000D02*
D03*
X98000D02*
D03*
X83000Y228D02*
D03*
X88000D02*
D03*
X93000D02*
D03*
X98000D02*
D03*
D35*
X104079Y-24162D02*
Y12500D01*
X100201Y-28039D02*
X104079Y-24162D01*
X97500Y-28039D02*
X100201D01*
X99961Y12500D02*
X104079D01*
X99961Y17500D02*
X104087D01*
X71320Y190D02*
Y15589D01*
X65815Y-5315D02*
X71320Y190D01*
X54922Y-5315D02*
X65815D01*
X71320Y15589D02*
X75341Y19610D01*
X78500D01*
X73572Y25018D02*
X85056D01*
X64436Y15883D02*
X73572Y25018D01*
X35915Y15883D02*
X64436D01*
X33159Y13126D02*
X35915Y15883D01*
X88000Y19610D02*
Y22074D01*
X85056Y25018D02*
X88000Y22074D01*
X41339Y8268D02*
X54922Y-5315D01*
X33159Y88D02*
Y13126D01*
X24803Y-8268D02*
X33159Y88D01*
X87500Y-36516D02*
Y-32961D01*
X97500Y-36421D02*
Y-32961D01*
X92500Y-36468D02*
Y-32961D01*
Y-28039D02*
X97500D01*
X92500Y-28039D02*
X93000Y-27539D01*
X87500Y-28039D02*
X92500D01*
X93000Y-27539D02*
Y-21228D01*
X88000D02*
Y-15135D01*
X83000Y-7404D02*
Y228D01*
X88000Y8390D02*
X88000Y8390D01*
X78500Y8390D02*
X88000D01*
X92929Y19610D02*
X95039Y17500D01*
X88000Y19610D02*
X92929D01*
X95039Y12500D02*
Y17500D01*
Y4854D02*
Y12500D01*
X93000Y2815D02*
X95039Y4854D01*
X93000Y228D02*
Y2815D01*
X88000Y228D02*
Y8390D01*
D36*
X64450Y24675D02*
X64705Y24409D01*
X63860Y25289D02*
X64450Y24675D01*
X59889Y19594D02*
X64705Y24409D01*
X50125Y-40527D02*
X53118Y-43520D01*
X41432Y-44920D02*
X94447D01*
X38036Y-46320D02*
X95027D01*
X32975Y-47720D02*
X95607D01*
X28129Y-49120D02*
X96187D01*
X23606Y-50520D02*
X96767D01*
X18653Y-51920D02*
X97347D01*
X12730Y-53320D02*
X97926D01*
X7465Y-54720D02*
X98506D01*
X3118Y-56120D02*
X99086D01*
X-1837Y-57520D02*
X99666D01*
X-6515Y-58920D02*
X100246D01*
X-11857Y-60320D02*
X100826D01*
X-16780Y-61720D02*
X101406D01*
X-21247Y-63120D02*
X101986D01*
X39972Y-43459D02*
X41432Y-44920D01*
X94447D02*
X109297Y-30070D01*
X35000Y-43284D02*
X38036Y-46320D01*
X95027D02*
X110697Y-30650D01*
X29850Y-44595D02*
X32975Y-47720D01*
X95607D02*
X112097Y-31229D01*
X25000Y-45991D02*
X28129Y-49120D01*
X96187D02*
X113497Y-31809D01*
X19943Y-46856D02*
X23606Y-50520D01*
X96767D02*
X114897Y-32389D01*
X15000Y-48267D02*
X18653Y-51920D01*
X97347D02*
X116297Y-32969D01*
X9713Y-50302D02*
X12730Y-53320D01*
X97926D02*
X117697Y-33549D01*
X5000Y-52255D02*
X7465Y-54720D01*
X98506D02*
X119097Y-34129D01*
X-90Y-52912D02*
X3118Y-56120D01*
X99086D02*
X120497Y-34709D01*
X-5000Y-54356D02*
X-1837Y-57520D01*
X99666D02*
X121897Y-35289D01*
X-9926Y-55509D02*
X-6515Y-58920D01*
X100246D02*
X123371Y-35794D01*
X-15000Y-57177D02*
X-11857Y-60320D01*
X100826D02*
X124771Y-36374D01*
X-20131Y-58369D02*
X-16780Y-61720D01*
X101406D02*
X126171Y-36954D01*
X-25000Y-59367D02*
X-21247Y-63120D01*
X101986D02*
X127571Y-37534D01*
X53118Y-43520D02*
X93867D01*
X102478Y37405D02*
Y59993D01*
X22158Y19594D02*
X59889D01*
X16361Y13796D02*
X22158Y19594D01*
X16361Y-14123D02*
Y13796D01*
X54863Y23765D02*
X54891Y23793D01*
X64843Y24266D02*
X65462Y23622D01*
X64173Y24409D02*
X64705D01*
X64843Y24266D01*
X65462Y23622D02*
X65462Y23622D01*
X35650Y-22574D02*
X39959Y-26883D01*
X24813Y-22574D02*
X35650D01*
X16361Y-14123D02*
X24813Y-22574D01*
X126171Y28652D02*
X130017Y32497D01*
X126171Y-36954D02*
Y28652D01*
X127571Y24850D02*
X132659Y29938D01*
X127571Y-37534D02*
Y24850D01*
X124771Y32273D02*
X127519Y35021D01*
X124771Y-36374D02*
Y32273D01*
X93867Y-43520D02*
X107897Y-29490D01*
X97575Y38155D02*
Y64934D01*
X107897Y-29490D02*
Y27833D01*
X110697Y-30650D02*
Y29185D01*
X102478Y37405D02*
X110697Y29185D01*
X105012Y37342D02*
Y57583D01*
Y37342D02*
X112097Y30257D01*
Y-31229D02*
Y30257D01*
X107499Y37437D02*
Y50438D01*
Y37437D02*
X113497Y31440D01*
Y-31809D02*
Y31440D01*
X109958Y36959D02*
Y52796D01*
Y36959D02*
X114897Y32019D01*
Y-32389D02*
Y32019D01*
X112494Y36704D02*
Y50069D01*
Y36704D02*
X116297Y32901D01*
Y-32969D02*
Y32901D01*
X114999Y36335D02*
Y47438D01*
Y36335D02*
X117697Y33637D01*
Y-33549D02*
Y33637D01*
X117440Y35874D02*
Y45060D01*
Y35874D02*
X119097Y34217D01*
Y-34129D02*
Y34217D01*
X120008Y35286D02*
Y42524D01*
Y35286D02*
X120497Y34797D01*
Y-34709D02*
Y34797D01*
X121897Y-35289D02*
Y39372D01*
X123371Y35716D02*
X125039Y37384D01*
X123371Y-35794D02*
Y35716D01*
X97575Y38155D02*
X107897Y27833D01*
X109297Y-30070D02*
Y28494D01*
X99981Y37810D02*
X109297Y28494D01*
X99981Y37810D02*
Y62528D01*
X107499Y50438D02*
X107516Y50455D01*
Y54952D01*
X121897Y39372D02*
X122513Y39987D01*
X5000Y-28976D02*
X9713Y-33689D01*
Y-50302D02*
Y-33689D01*
X5000Y-52255D02*
Y-38976D01*
X-5000Y-28976D02*
X-90Y-33886D01*
Y-52912D02*
Y-33886D01*
X-5000Y-54356D02*
Y-38976D01*
X-15000Y-28976D02*
X-9926Y-34050D01*
Y-55509D02*
Y-34050D01*
X-15000Y-57177D02*
Y-38976D01*
X-20131Y-58369D02*
Y-33845D01*
X-25000Y-28976D02*
X-20131Y-33845D01*
X-25000Y-59367D02*
Y-38976D01*
X15000Y-48267D02*
Y-38976D01*
Y-28976D02*
X19943Y-33919D01*
Y-46856D02*
Y-33919D01*
X25000Y-45991D02*
Y-38976D01*
Y-28976D02*
X29850Y-33826D01*
Y-44595D02*
Y-33826D01*
X35000Y-43284D02*
Y-38976D01*
Y-28976D02*
X39972Y-33949D01*
Y-43459D02*
Y-33949D01*
X45000Y62913D02*
X50039Y57875D01*
Y39677D02*
Y57875D01*
Y39677D02*
X63860Y25289D01*
X45000Y-31699D02*
Y-28976D01*
Y-31699D02*
X50125Y-36824D01*
X45000Y-38976D02*
Y-35915D01*
X42952Y-33920D02*
X43004D01*
X45000Y-35915D01*
X39959Y-30927D02*
X42952Y-33920D01*
X39959Y-30927D02*
Y-26883D01*
X50125Y-40527D02*
Y-36824D01*
D37*
X-42338Y-67120D02*
X110189D01*
X-45752Y-73720D02*
X112923D01*
X-55000Y-54458D02*
X-42338Y-67120D01*
X110189D02*
X137578Y-39731D01*
X-63652Y-55820D02*
X-45752Y-73720D01*
X112923D02*
X144541Y-42102D01*
X137578Y-798D02*
X156251Y17874D01*
X137578Y-39731D02*
Y-798D01*
X156251Y17874D02*
X161417D01*
X144541Y-19145D02*
X155812Y-7874D01*
X144541Y-42102D02*
Y-19145D01*
X155812Y-7874D02*
X161417D01*
X-61357Y-28976D02*
X-55000D01*
X-63652Y-31271D02*
X-61357Y-28976D01*
X-63652Y-55820D02*
Y-31271D01*
X-55000Y-54458D02*
Y-38976D01*
X-76412Y-16357D02*
X-32893D01*
X-24803Y-8268D01*
D38*
X161417Y-54724D02*
D03*
X-161417D02*
D03*
X161417Y54724D02*
D03*
X-161417D02*
D03*
D39*
X-118543Y-17504D02*
D03*
X-128543Y-12504D02*
D03*
X-118543Y-7504D02*
D03*
X-128543Y-2504D02*
D03*
X-118543Y2496D02*
D03*
X-128543Y7496D02*
D03*
X-118543Y12496D02*
D03*
D40*
X-128543Y17496D02*
D03*
D41*
X55000Y-28976D02*
D03*
X45000D02*
D03*
X35000D02*
D03*
X25000D02*
D03*
X15000D02*
D03*
X5000D02*
D03*
X-5000D02*
D03*
X-15000D02*
D03*
X-25000D02*
D03*
X-35000D02*
D03*
X-45000D02*
D03*
X-55000D02*
D03*
X55000Y-38976D02*
D03*
X45000D02*
D03*
X35000D02*
D03*
X25000D02*
D03*
X15000D02*
D03*
X5000D02*
D03*
X-5000D02*
D03*
X-15000D02*
D03*
X-25000D02*
D03*
X-35000D02*
D03*
X-45000D02*
D03*
X45000Y62913D02*
D03*
X35000D02*
D03*
X25000D02*
D03*
X15000D02*
D03*
X5000D02*
D03*
X-5000D02*
D03*
X-15000D02*
D03*
X-25000D02*
D03*
X-35000D02*
D03*
X-45000D02*
D03*
X-55000D02*
D03*
X55000Y52913D02*
D03*
X45000D02*
D03*
X35000D02*
D03*
X25000D02*
D03*
X15000D02*
D03*
X5000D02*
D03*
X-5000D02*
D03*
X-15000D02*
D03*
X-25000D02*
D03*
X-35000D02*
D03*
X-45000D02*
D03*
X-55000D02*
D03*
D42*
Y-38976D02*
D03*
X55000Y62913D02*
D03*
D43*
X-59842Y6299D02*
D03*
X59842D02*
D03*
D44*
X41339Y8268D02*
D03*
X24803D02*
D03*
X8268D02*
D03*
X-8268D02*
D03*
X-24803D02*
D03*
X-41339D02*
D03*
X41339Y-8268D02*
D03*
X24803D02*
D03*
X8268D02*
D03*
X-8268D02*
D03*
X-24803D02*
D03*
X-41339D02*
D03*
D45*
X161417Y17874D02*
D03*
Y-7874D02*
D03*
D46*
Y7874D02*
D03*
Y-17874D02*
D03*
D47*
X176250Y71000D02*
D03*
Y46000D02*
D03*
X170000Y33500D02*
D03*
X176250Y21000D02*
D03*
X170000Y8500D02*
D03*
X176250Y-4000D02*
D03*
X170000Y-16500D02*
D03*
X176250Y-29000D02*
D03*
X170000Y-41500D02*
D03*
X176250Y-54000D02*
D03*
X170000Y-66500D02*
D03*
X163750Y71000D02*
D03*
X157500Y33500D02*
D03*
X163750Y-29000D02*
D03*
X151250Y71000D02*
D03*
X145000Y58500D02*
D03*
Y33500D02*
D03*
X151250Y21000D02*
D03*
Y-4000D02*
D03*
Y-29000D02*
D03*
X145000Y-66500D02*
D03*
X138750Y71000D02*
D03*
X132500Y58500D02*
D03*
X138750Y46000D02*
D03*
X132500Y33500D02*
D03*
X138750Y21000D02*
D03*
X132500Y8500D02*
D03*
Y-16500D02*
D03*
Y-66500D02*
D03*
X126250Y71000D02*
D03*
X120000Y58500D02*
D03*
X126250Y46000D02*
D03*
X113750Y71000D02*
D03*
X107500Y58500D02*
D03*
X101250Y71000D02*
D03*
Y-4000D02*
D03*
X95000Y-16500D02*
D03*
X88750Y71000D02*
D03*
X82500Y58500D02*
D03*
X76250Y71000D02*
D03*
X70000Y58500D02*
D03*
X76250Y-4000D02*
D03*
X70000Y-16500D02*
D03*
X63750Y71000D02*
D03*
Y-29000D02*
D03*
X51250Y71000D02*
D03*
X38750D02*
D03*
X26250D02*
D03*
X13750D02*
D03*
X1250D02*
D03*
X-5000Y33500D02*
D03*
X-11250Y71000D02*
D03*
Y46000D02*
D03*
X-30000Y33500D02*
D03*
X-23750Y21000D02*
D03*
X-36250Y71000D02*
D03*
Y46000D02*
D03*
X-42500Y33500D02*
D03*
X-36250Y21000D02*
D03*
Y-4000D02*
D03*
Y-54000D02*
D03*
X-48750Y71000D02*
D03*
X-55000Y33500D02*
D03*
X-48750Y-54000D02*
D03*
X-61250Y71000D02*
D03*
Y21000D02*
D03*
Y-4000D02*
D03*
X-67500Y-66500D02*
D03*
X-73750Y71000D02*
D03*
X-80000Y58500D02*
D03*
Y-41500D02*
D03*
X-73750Y-54000D02*
D03*
X-80000Y-66500D02*
D03*
X-86250Y71000D02*
D03*
X-92500Y58500D02*
D03*
X-86250Y46000D02*
D03*
X-92500Y33500D02*
D03*
X-86250Y21000D02*
D03*
X-92500Y-16500D02*
D03*
X-86250Y-29000D02*
D03*
X-92500Y-41500D02*
D03*
X-86250Y-54000D02*
D03*
X-92500Y-66500D02*
D03*
X-98750Y71000D02*
D03*
X-105000Y58500D02*
D03*
Y33500D02*
D03*
Y-16500D02*
D03*
Y-41500D02*
D03*
X-98750Y-54000D02*
D03*
X-105000Y-66500D02*
D03*
X-111250Y71000D02*
D03*
X-117500Y58500D02*
D03*
X-111250Y46000D02*
D03*
X-117500Y33500D02*
D03*
X-111250Y21000D02*
D03*
Y-29000D02*
D03*
X-117500Y-41500D02*
D03*
X-111250Y-54000D02*
D03*
X-117500Y-66500D02*
D03*
X-123750Y71000D02*
D03*
X-130000Y58500D02*
D03*
X-123750Y46000D02*
D03*
X-130000Y33500D02*
D03*
X-123750Y-4000D02*
D03*
X-130000Y-16500D02*
D03*
X-123750Y-29000D02*
D03*
X-130000Y-41500D02*
D03*
X-123750Y-54000D02*
D03*
X-130000Y-66500D02*
D03*
X-136250Y71000D02*
D03*
X-142500Y58500D02*
D03*
X-136250Y46000D02*
D03*
X-142500Y33500D02*
D03*
X-136250Y21000D02*
D03*
X-142500Y8500D02*
D03*
X-136250Y-4000D02*
D03*
X-142500Y-16500D02*
D03*
X-136250Y-29000D02*
D03*
X-142500Y-41500D02*
D03*
X-136250Y-54000D02*
D03*
X-142500Y-66500D02*
D03*
X-148750Y71000D02*
D03*
Y46000D02*
D03*
X-155000Y33500D02*
D03*
Y8500D02*
D03*
X-148750Y-4000D02*
D03*
Y-29000D02*
D03*
X-155000Y-41500D02*
D03*
X-161250Y71000D02*
D03*
X-167500Y33500D02*
D03*
Y8500D02*
D03*
X-161250Y-4000D02*
D03*
X-167500Y-16500D02*
D03*
X-161250Y-29000D02*
D03*
X-167500Y-41500D02*
D03*
X-173750Y71000D02*
D03*
X-180000Y58500D02*
D03*
X-173750Y46000D02*
D03*
X-180000Y33500D02*
D03*
X-173750Y21000D02*
D03*
X-180000Y8500D02*
D03*
X-173750Y-4000D02*
D03*
X-180000Y-16500D02*
D03*
X-173750Y-29000D02*
D03*
X-180000Y-41500D02*
D03*
Y-66500D02*
D03*
X104079Y12500D02*
D03*
X104087Y17500D02*
D03*
X87500Y-36516D02*
D03*
X97500Y-36421D02*
D03*
X92500Y-36468D02*
D03*
X88000Y-15135D02*
D03*
X83000Y-7404D02*
D03*
X132659Y29938D02*
D03*
X130017Y32497D02*
D03*
X99981Y62528D02*
D03*
X97575Y64934D02*
D03*
X112494Y50069D02*
D03*
X109958Y52796D02*
D03*
X107516Y54952D02*
D03*
X102507Y59993D02*
D03*
X105012Y57583D02*
D03*
X114999Y47438D02*
D03*
X117440Y45060D02*
D03*
X120008Y42524D02*
D03*
X122513Y39987D02*
D03*
X125039Y37384D02*
D03*
X127519Y35021D02*
D03*
X-85998Y8122D02*
D03*
X-90368Y660D02*
D03*
X-105793Y71D02*
D03*
X-103163Y4415D02*
D03*
D48*
X-76412Y-16357D02*
D03*
D49*
X64173Y24409D02*
D03*
D50*
X-14921D02*
X64165D01*
M02*
