M48
;Layer_Color=9474304
;FILE_FORMAT=2:5
INCH,LZ
;TYPE=PLATED
T1F00S00C0.01000
T2F00S00C0.02000
T3F00S00C0.03150
T4F00S00C0.03543
T5F00S00C0.04016
T6F00S00C0.05512
T7F00S00C0.12500
;TYPE=NON_PLATED
T8F00S00C0.11811
T9F00S00C0.12598
%
T01
X00925Y-0036468
X00975Y-0036421
X0095Y-00165
X01325
X015125Y-0029
X016375
X017625
X017Y-00165
Y-00415
X017625Y-0054
X017Y-00665
X0145
X01325
X00875Y-0036516
X0088Y-0015135
X0083Y-0007404
X007Y-00165
X006375Y-0029
X-003625Y-0054
X-004875
X-00675Y-00665
X-008
X-00925
X-0105
X-01175
X-013
X-01425
X-013625Y-0054
X-012375
X-011125
X-009875
X-008625
X-007375
X-008Y-00415
X-00925
X-0105
X-01175
X-013
X-01425
X-0155
X-01675
X-018
X-017375Y-0029
X-016125
X-014875
X-013625
X-012375
X-011125
X-0105Y-00165
X-00925
X-008625Y-0029
X-013Y-00165
X-01425
X-01675
X-018
Y-00665
X-017375Y-0004
X-016125
X-014875
X-013625
X-012375
X-0105793Y0000071
X-0103163Y0004415
X-0090368Y000066
X-0085998Y0008122
X-008625Y0021
X-00925Y00335
X-0105
X-01175
X-013
X-01425
X-0155
X-01675
X-018
X-017375Y0046
X-018Y00585
X-017375Y0071
X-016125
X-014875
X-013625
X-012375
X-011125
X-009875
X-008625
X-007375
X-008Y00585
X-00925
X-0105
X-01175
X-013
X-01425
X-013625Y0046
X-012375
X-011125
X-008625
X-011125Y0021
X-013625
X-01425Y00085
X-0155
X-01675
X-018
X-017375Y0021
X-014875Y0046
X-0055Y00335
X-00425
X-003
X-002375Y0021
X-003625
Y0046
X-001125
X-0005Y00335
X000125Y0071
X001375
X002625
X003875
X005125
X006375
X007625
X00825Y00585
X007
X007625Y-0004
X-003625
X-006125
Y0021
Y0071
X-004875
X-003625
X-001125
X008875
X010125
X0097575Y0064934
X0099981Y0062528
X0102507Y0059993
X0105012Y0057583
X01075Y00585
X0107516Y0054952
X0109958Y0052796
X0112494Y0050069
X0114999Y0047438
X011744Y004506
X0120008Y0042524
X0122513Y0039987
X0125039Y0037384
X0127519Y0035021
X0130017Y0032497
X01325Y00335
X0132659Y0029938
X013875Y0021
X015125
X01575Y00335
X017
X017625Y0046
Y0071
X016375
X015125
X013875
X012625
X011375
X012Y00585
X01325
X0145
X013875Y0046
X012625
X0145Y00335
X01325Y00085
X015125Y-0004
X017625
X017Y00085
X017625Y0021
X0104087Y00175
X0104079Y00125
X010125Y-0004
T02
X-0076412Y-0016357
X0064173Y0024409
T03
X-0128543Y-0012504
X-0118543Y-0017504
Y-0007504
Y0002496
Y0012496
X-0128543Y0007496
Y-0002504
Y0017496
T04
X0161417Y-0017874
Y-0007874
Y0007874
Y0017874
T05
X-0055Y-0038976
Y-0028976
X-0045
X-0035
X-0025
X-0015
X-0005
X0005
X0015
X0025
X0035
X0045
X0055
Y-0038976
X0045
X0035
X0025
X0015
X0005
X-0005
X-0015
X-0025
X-0035
X-0045
Y0052913
Y0062913
X-0035
X-0025
X-0015
X-0005
X0005
X0015
X0025
X0035
X0045
X0055
Y0052913
X0045
X0035
X0025
X0015
X0005
X-0005
X-0015
X-0025
X-0035
X-0055
Y0062913
T06
X-0041339Y-0008268
X-0024803
X-0008268
X0008268
X0024803
X0041339
Y0008268
X0024803
X0008268
X-0008268
X-0024803
X-0041339
T07
X0161417Y-0054724
X-0161417
Y0054724
X0161417
T08
X-0059842Y0006299
X0059842
T09
X-0153543Y-0022504
Y0022504
M30
