G04*
G04 #@! TF.GenerationSoftware,Altium Limited,Altium Designer,18.0.11 (651)*
G04*
G04 Layer_Physical_Order=1*
G04 Layer_Color=255*
%FSLAX25Y25*%
%MOIN*%
G70*
G01*
G75*
%ADD14C,0.01000*%
%ADD19R,0.03150X0.03543*%
%ADD20O,0.05709X0.02362*%
%ADD21R,0.03347X0.02756*%
%ADD22R,0.04134X0.06693*%
%ADD23R,0.05315X0.01575*%
%ADD24R,0.07874X0.04921*%
%ADD25R,0.03150X0.03150*%
%ADD26R,0.03543X0.03150*%
%ADD27R,0.02756X0.03347*%
%ADD28R,0.02500X0.05000*%
%ADD29R,0.11811X0.18504*%
%ADD30R,0.01598X0.02551*%
%ADD56C,0.02000*%
%ADD57C,0.10000*%
%ADD58C,0.01500*%
%ADD59C,0.04000*%
%ADD60C,0.02500*%
%ADD61R,0.09843X0.09843*%
%ADD62C,0.09843*%
%ADD63C,0.08600*%
%ADD64C,0.15600*%
%ADD65C,0.16200*%
%ADD66R,0.19685X0.19685*%
%ADD67C,0.15748*%
%ADD68R,0.07874X0.07874*%
%ADD69C,0.19685*%
%ADD70C,0.25000*%
%ADD71R,0.07087X0.07087*%
%ADD72C,0.07087*%
G04:AMPARAMS|DCode=73|XSize=62mil|YSize=62mil|CornerRadius=18.6mil|HoleSize=0mil|Usage=FLASHONLY|Rotation=0.000|XOffset=0mil|YOffset=0mil|HoleType=Round|Shape=RoundedRectangle|*
%AMROUNDEDRECTD73*
21,1,0.06200,0.02480,0,0,0.0*
21,1,0.02480,0.06200,0,0,0.0*
1,1,0.03720,0.01240,-0.01240*
1,1,0.03720,-0.01240,-0.01240*
1,1,0.03720,-0.01240,0.01240*
1,1,0.03720,0.01240,0.01240*
%
%ADD73ROUNDEDRECTD73*%
%ADD74C,0.03800*%
%ADD75C,0.02000*%
G36*
X86609Y252350D02*
X87624Y252028D01*
X88557Y251515D01*
X89371Y250829D01*
X90036Y249998D01*
X90526Y249053D01*
X90823Y248031D01*
X90868Y247500D01*
Y207088D01*
X90868Y207087D01*
X90868Y206512D01*
X90643Y205382D01*
X90203Y204318D01*
X89563Y203360D01*
X88748Y202546D01*
X87791Y201906D01*
X86726Y201465D01*
X85597Y201240D01*
X85021Y201240D01*
X-60105D01*
X-61055Y201430D01*
X-61951Y201800D01*
X-62757Y202339D01*
X-63442Y203025D01*
X-63981Y203831D01*
X-64352Y204726D01*
X-64541Y205677D01*
X-64541Y206162D01*
Y247500D01*
X-64541Y247500D01*
X-64541Y247985D01*
X-64352Y248936D01*
X-63981Y249832D01*
X-63442Y250638D01*
X-62757Y251323D01*
X-61951Y251862D01*
X-61055Y252233D01*
X-60104Y252422D01*
X-59619Y252421D01*
X85021Y252421D01*
X85551Y252467D01*
X86609Y252350D01*
D02*
G37*
G36*
Y193299D02*
X87624Y192978D01*
X88557Y192464D01*
X89371Y191779D01*
X90036Y190948D01*
X90526Y190003D01*
X90823Y188980D01*
X90868Y188450D01*
Y148037D01*
X90868Y148037D01*
X90868Y147461D01*
X90643Y146332D01*
X90203Y145267D01*
X89563Y144310D01*
X88748Y143495D01*
X87791Y142856D01*
X86726Y142415D01*
X85597Y142190D01*
X85021Y142190D01*
X-60105D01*
X-61055Y142379D01*
X-61951Y142750D01*
X-62757Y143289D01*
X-63442Y143974D01*
X-63981Y144780D01*
X-64352Y145676D01*
X-64541Y146627D01*
X-64541Y147111D01*
Y188450D01*
X-64541Y188450D01*
X-64541Y188935D01*
X-64352Y189885D01*
X-63981Y190781D01*
X-63442Y191587D01*
X-62757Y192273D01*
X-61951Y192811D01*
X-61055Y193182D01*
X-60104Y193371D01*
X-59619Y193371D01*
X85021Y193371D01*
X85551Y193417D01*
X86609Y193299D01*
D02*
G37*
G36*
X86500Y134249D02*
X87515Y133927D01*
X88447Y133414D01*
X89262Y132729D01*
X89927Y131897D01*
X90417Y130952D01*
X90713Y129930D01*
X90759Y129400D01*
Y88987D01*
X90759Y88987D01*
X90759Y88411D01*
X90534Y87281D01*
X90093Y86217D01*
X89454Y85260D01*
X88639Y84445D01*
X87682Y83805D01*
X86617Y83364D01*
X85488Y83140D01*
X84912Y83140D01*
X-60214D01*
X-61165Y83329D01*
X-62060Y83700D01*
X-62866Y84238D01*
X-63551Y84924D01*
X-64090Y85730D01*
X-64461Y86626D01*
X-64650Y87576D01*
X-64650Y88061D01*
Y129400D01*
X-64650Y129400D01*
X-64650Y129884D01*
X-64461Y130835D01*
X-64090Y131731D01*
X-63551Y132537D01*
X-62866Y133223D01*
X-62060Y133761D01*
X-61164Y134132D01*
X-60213Y134321D01*
X-59728Y134321D01*
X84912Y134321D01*
X85442Y134367D01*
X86500Y134249D01*
D02*
G37*
G36*
X87046Y74980D02*
X88061Y74659D01*
X88993Y74145D01*
X89808Y73460D01*
X90473Y72629D01*
X90963Y71684D01*
X91259Y70661D01*
X91305Y70131D01*
Y29718D01*
X91305Y29718D01*
X91305Y29142D01*
X91080Y28013D01*
X90639Y26949D01*
X89999Y25991D01*
X89185Y25177D01*
X88227Y24537D01*
X87163Y24096D01*
X86033Y23871D01*
X85458Y23871D01*
X-59668D01*
X-60619Y24060D01*
X-61514Y24431D01*
X-62320Y24970D01*
X-63006Y25655D01*
X-63544Y26461D01*
X-63915Y27357D01*
X-64104Y28308D01*
X-64104Y28792D01*
Y70131D01*
X-64104Y70131D01*
X-64104Y70616D01*
X-63915Y71567D01*
X-63544Y72462D01*
X-63006Y73268D01*
X-62320Y73954D01*
X-61514Y74493D01*
X-60618Y74863D01*
X-59667Y75052D01*
X-59183Y75052D01*
X85458Y75052D01*
X85988Y75098D01*
X87046Y74980D01*
D02*
G37*
G36*
X-11000Y17121D02*
X107499Y17121D01*
X107499Y17121D01*
Y17121D01*
X108178Y17121D01*
X109509Y16857D01*
X110763Y16337D01*
X111891Y15583D01*
X112851Y14624D01*
X113605Y13495D01*
X114124Y12241D01*
X114389Y10910D01*
Y10232D01*
X114389Y-27131D01*
X114389Y-27131D01*
X114389Y-27814D01*
X114122Y-29152D01*
X113600Y-30413D01*
X112842Y-31548D01*
X111877Y-32513D01*
X110742Y-33271D01*
X109481Y-33793D01*
X108143Y-34060D01*
X107460Y-34060D01*
X-11001Y-34060D01*
X-11485D01*
X-12436Y-33871D01*
X-13331Y-33500D01*
X-14137Y-32961D01*
X-14823Y-32275D01*
X-15361Y-31469D01*
X-15732Y-30574D01*
X-15921Y-29623D01*
X-15921Y-29138D01*
Y12200D01*
X-15921Y12685D01*
X-15732Y13636D01*
X-15361Y14532D01*
X-14823Y15338D01*
X-14137Y16023D01*
X-13331Y16562D01*
X-12435Y16933D01*
X-11484Y17122D01*
X-11000Y17121D01*
D02*
G37*
G36*
X109565Y-42185D02*
X110763Y-42681D01*
X111841Y-43402D01*
X112758Y-44318D01*
X113478Y-45396D01*
X113974Y-46594D01*
X114227Y-47866D01*
X114227Y-48514D01*
X114227Y-111095D01*
X114227Y-111095D01*
X114227Y-111846D01*
X113934Y-113320D01*
X113359Y-114707D01*
X112525Y-115956D01*
X111463Y-117018D01*
X110214Y-117853D01*
X108826Y-118428D01*
X107353Y-118721D01*
X106602Y-118721D01*
X37848D01*
X37396Y-118688D01*
X36521Y-118448D01*
X35710Y-118042D01*
X34994Y-117485D01*
X34401Y-116800D01*
X33952Y-116012D01*
X33666Y-115151D01*
X33553Y-114252D01*
X33586Y-113799D01*
X33586Y-47567D01*
X33586Y-47096D01*
X33586Y-47096D01*
X33586Y-47096D01*
X33586Y-47096D01*
X33586Y-46611D01*
X33774Y-45661D01*
X34145Y-44765D01*
X34684Y-43959D01*
X35369Y-43273D01*
X36176Y-42735D01*
X37071Y-42364D01*
X38022Y-42175D01*
X38507Y-42175D01*
X107645Y-41932D01*
X107645Y-41932D01*
X107645Y-41932D01*
X108294Y-41932D01*
X109565Y-42185D01*
D02*
G37*
G36*
X22585Y-39980D02*
X23069D01*
X24020Y-40170D01*
X24916Y-40541D01*
X25722Y-41079D01*
X26407Y-41765D01*
X26946Y-42571D01*
X27317Y-43466D01*
X27506Y-44417D01*
X27506Y-44902D01*
X27506Y-113799D01*
X27506D01*
X27506Y-114284D01*
X27317Y-115235D01*
X26946Y-116130D01*
X26407Y-116937D01*
X25722Y-117622D01*
X24916Y-118160D01*
X24020Y-118532D01*
X23069Y-118721D01*
X22585Y-118721D01*
X-10880Y-118721D01*
X-10880D01*
X-11365Y-118721D01*
X-12315Y-118532D01*
X-13211Y-118160D01*
X-14017Y-117622D01*
X-14703Y-116936D01*
X-15241Y-116130D01*
X-15612Y-115235D01*
X-15801Y-114284D01*
X-15801Y-113799D01*
X-15801Y-44902D01*
Y-44417D01*
X-15612Y-43466D01*
X-15241Y-42571D01*
X-14703Y-41765D01*
X-14017Y-41079D01*
X-13211Y-40541D01*
X-12315Y-40170D01*
X-11365Y-39980D01*
X-10880D01*
X22585Y-39980D01*
D02*
G37*
G36*
X-140501Y-117570D02*
X-140290Y-120811D01*
X-140153Y-121689D01*
X-139982Y-122466D01*
X-139778Y-123142D01*
X-139541Y-123716D01*
X-139269Y-124189D01*
X-138965Y-124561D01*
X-140026Y-125622D01*
X-140398Y-125317D01*
X-140871Y-125046D01*
X-141445Y-124809D01*
X-142121Y-124604D01*
X-142897Y-124434D01*
X-143775Y-124296D01*
X-145835Y-124122D01*
X-147017Y-124085D01*
X-148300Y-124082D01*
X-140505Y-116287D01*
X-140501Y-117570D01*
D02*
G37*
G36*
X-161460Y-112366D02*
X-161247Y-114278D01*
X-160894Y-116131D01*
X-160399Y-117926D01*
X-159762Y-119663D01*
X-158985Y-121341D01*
X-158065Y-122960D01*
X-157005Y-124520D01*
X-155803Y-126023D01*
X-154459Y-127466D01*
Y-131415D01*
X-152485Y-129440D01*
X-151848Y-130069D01*
X-149121Y-132450D01*
X-148847Y-132614D01*
X-148626Y-132712D01*
X-148457Y-132744D01*
X-154459Y-138746D01*
Y-141608D01*
X-155803Y-140365D01*
X-155960Y-140247D01*
X-156252Y-140539D01*
X-156284Y-140370D01*
X-156382Y-140149D01*
X-156546Y-139876D01*
X-156651Y-139728D01*
X-157005Y-139463D01*
X-158065Y-138902D01*
X-158985Y-138683D01*
X-159762Y-138805D01*
X-160399Y-139268D01*
X-160894Y-140074D01*
X-161247Y-141220D01*
X-161460Y-142708D01*
X-161530Y-144537D01*
X-171530Y-122466D01*
X-161530Y-110395D01*
X-161460Y-112366D01*
D02*
G37*
G36*
X157609Y-178146D02*
X157439Y-178206D01*
X157289Y-178306D01*
X157159Y-178446D01*
X157049Y-178626D01*
X156959Y-178846D01*
X156889Y-179106D01*
X156839Y-179406D01*
X156809Y-179746D01*
X156799Y-180126D01*
X154799D01*
X154789Y-179746D01*
X154759Y-179406D01*
X154709Y-179106D01*
X154639Y-178846D01*
X154549Y-178626D01*
X154439Y-178446D01*
X154309Y-178306D01*
X154159Y-178206D01*
X153989Y-178146D01*
X153799Y-178126D01*
X157799D01*
X157609Y-178146D01*
D02*
G37*
G36*
X97767D02*
X97597Y-178206D01*
X97447Y-178306D01*
X97317Y-178446D01*
X97207Y-178626D01*
X97117Y-178846D01*
X97047Y-179106D01*
X96997Y-179406D01*
X96967Y-179746D01*
X96957Y-180126D01*
X94957D01*
X94947Y-179746D01*
X94917Y-179406D01*
X94867Y-179106D01*
X94797Y-178846D01*
X94707Y-178626D01*
X94597Y-178446D01*
X94467Y-178306D01*
X94317Y-178206D01*
X94147Y-178146D01*
X93957Y-178126D01*
X97957D01*
X97767Y-178146D01*
D02*
G37*
G36*
X-140827Y-176856D02*
X-140616Y-180097D01*
X-140478Y-180975D01*
X-140308Y-181752D01*
X-140103Y-182428D01*
X-139866Y-183002D01*
X-139595Y-183475D01*
X-139290Y-183847D01*
X-140351Y-184908D01*
X-140723Y-184603D01*
X-141196Y-184332D01*
X-141770Y-184095D01*
X-142446Y-183890D01*
X-143223Y-183720D01*
X-144101Y-183582D01*
X-146160Y-183408D01*
X-147342Y-183371D01*
X-148625Y-183368D01*
X-140830Y-175573D01*
X-140827Y-176856D01*
D02*
G37*
G36*
X-152174Y-189356D02*
X-149446Y-191736D01*
X-149173Y-191900D01*
X-148952Y-191999D01*
X-148782Y-192030D01*
X-156577Y-199825D01*
X-156609Y-199656D01*
X-156707Y-199435D01*
X-156872Y-199162D01*
X-157102Y-198837D01*
X-157763Y-198031D01*
X-158689Y-197018D01*
X-159881Y-195798D01*
X-152810Y-188726D01*
X-152174Y-189356D01*
D02*
G37*
G36*
X-86241Y261310D02*
X-86282Y18844D01*
X-84997Y17553D01*
X-82473Y14998D01*
X-82496Y-5062D01*
X-80052Y-7513D01*
X-47495Y-7572D01*
X-45004Y-10069D01*
X-45009Y-156941D01*
X-46184D01*
X-46886Y-157081D01*
X-47481Y-157479D01*
X-47879Y-158074D01*
X-48019Y-158777D01*
X-47879Y-159479D01*
X-47481Y-160074D01*
X-46886Y-160472D01*
X-46184Y-160612D01*
X-45363D01*
X-45010Y-160965D01*
X-45010Y-164608D01*
X-27013Y-182607D01*
X78871Y-182615D01*
Y-188335D01*
X67367Y-199839D01*
X61304Y-193777D01*
X60421Y-193052D01*
X59413Y-192513D01*
X58320Y-192182D01*
X57183Y-192070D01*
X-31067D01*
X-130052Y-93084D01*
Y-37028D01*
X-130159Y-35943D01*
Y-31306D01*
X-134796D01*
X-135880Y-31200D01*
X-136964Y-31306D01*
X-141601D01*
Y-34507D01*
X-170651Y-63557D01*
X-171376Y-64440D01*
X-171915Y-65448D01*
X-172246Y-66541D01*
X-172358Y-67678D01*
Y-122466D01*
Y-182077D01*
X-172246Y-183214D01*
X-171915Y-184308D01*
X-171376Y-185315D01*
X-170651Y-186198D01*
X-159740Y-197110D01*
X-159282Y-197579D01*
X-158380Y-198565D01*
X-157751Y-199332D01*
X-157554Y-199609D01*
X-157432Y-199812D01*
X-157414Y-199852D01*
X-157420Y-199904D01*
X-157252Y-201604D01*
X-156756Y-203239D01*
X-155951Y-204746D01*
X-154867Y-206067D01*
X-154660Y-206237D01*
X-153898Y-207003D01*
X-153111Y-207841D01*
X-151810Y-209382D01*
X-151318Y-210056D01*
X-150920Y-210679D01*
X-150620Y-211237D01*
X-150418Y-211726D01*
X-150405Y-211773D01*
X-150297Y-213219D01*
X-150284Y-213976D01*
Y-217753D01*
X-150164Y-218358D01*
X-149821Y-218871D01*
X-132608Y-236084D01*
X-132095Y-236427D01*
X-131490Y-236547D01*
X-127646D01*
Y-240867D01*
X-127846D01*
Y-242942D01*
X-125075D01*
Y-243442D01*
X-124575D01*
Y-246017D01*
X-120650D01*
Y-243442D01*
X-120150D01*
Y-242942D01*
X-117378D01*
Y-240867D01*
X-117578D01*
Y-238945D01*
X-117576Y-238939D01*
X-117578Y-238926D01*
Y-238809D01*
X-117578Y-238807D01*
X-117578Y-238806D01*
Y-238298D01*
X-117467Y-238140D01*
X-117092Y-237698D01*
X-116428Y-237034D01*
X-116282Y-236905D01*
X-116067Y-236735D01*
X-115881Y-236607D01*
X-115778Y-236547D01*
X-115141D01*
X-115135Y-236546D01*
X-115130Y-236547D01*
X-113875D01*
X-113856Y-236543D01*
X-112503D01*
X-112484Y-236547D01*
X-112475Y-236545D01*
X-112465Y-236547D01*
X-112323Y-236543D01*
X-111672D01*
Y-236528D01*
X-111583Y-236526D01*
X-110493D01*
X-109888Y-236405D01*
X-109376Y-236063D01*
X-102358Y-229045D01*
X-101858Y-229252D01*
Y-229338D01*
X-98201D01*
X-94543D01*
Y-228050D01*
X-94743D01*
Y-225691D01*
X-100828D01*
X-100846Y-225688D01*
X-100856Y-225690D01*
X-100866Y-225688D01*
X-101008Y-225691D01*
X-101658D01*
Y-225707D01*
X-101747Y-225709D01*
X-102838D01*
X-103442Y-225830D01*
X-103955Y-226172D01*
X-111148Y-233365D01*
X-111672D01*
Y-228866D01*
Y-225691D01*
X-117757D01*
X-117775Y-225688D01*
X-117787Y-225690D01*
X-117798Y-225688D01*
X-117916Y-225691D01*
X-118414D01*
X-122501Y-221605D01*
X-122310Y-221143D01*
X-119967D01*
Y-218970D01*
X-122345D01*
Y-218470D01*
X-122845D01*
Y-215796D01*
X-124723D01*
Y-215796D01*
X-125140Y-215996D01*
X-125642D01*
X-125654Y-215943D01*
X-125686Y-215635D01*
Y-137320D01*
X-125806Y-136716D01*
X-126149Y-136203D01*
X-138453Y-123898D01*
X-138595Y-123725D01*
X-138807Y-123356D01*
X-139009Y-122867D01*
X-139192Y-122260D01*
X-139351Y-121539D01*
X-139479Y-120722D01*
X-139686Y-117542D01*
X-139689Y-116474D01*
X-139662Y-116208D01*
X-139830Y-114508D01*
X-140326Y-112873D01*
X-141131Y-111366D01*
X-142215Y-110045D01*
X-143536Y-108961D01*
X-145043Y-108156D01*
X-146678Y-107660D01*
X-148378Y-107492D01*
X-150079Y-107660D01*
X-151714Y-108156D01*
X-153221Y-108961D01*
X-154542Y-110045D01*
X-155625Y-111366D01*
X-156431Y-112873D01*
X-156927Y-114508D01*
X-157094Y-116208D01*
X-156927Y-117909D01*
X-156431Y-119544D01*
X-155625Y-121051D01*
X-154542Y-122371D01*
X-153221Y-123455D01*
X-151714Y-124261D01*
X-150079Y-124757D01*
X-148378Y-124924D01*
X-148112Y-124898D01*
X-147030Y-124901D01*
X-145882Y-124937D01*
X-143873Y-125107D01*
X-143048Y-125236D01*
X-142326Y-125394D01*
X-141719Y-125578D01*
X-141231Y-125780D01*
X-140862Y-125991D01*
X-140689Y-126133D01*
X-128847Y-137975D01*
Y-215682D01*
X-128852Y-215764D01*
X-128875Y-215930D01*
X-128890Y-215996D01*
X-129444D01*
Y-216790D01*
X-129448Y-216808D01*
X-129444Y-216827D01*
Y-220943D01*
X-127780D01*
X-127715Y-220980D01*
X-127535Y-221105D01*
X-127122Y-221453D01*
X-120769Y-227806D01*
X-120960Y-228268D01*
X-123207D01*
X-131156Y-220320D01*
Y-216867D01*
X-131152Y-216848D01*
X-131156Y-216830D01*
Y-216037D01*
X-131710D01*
X-131722Y-215983D01*
X-131754Y-215675D01*
Y-190864D01*
X-131874Y-190259D01*
X-132217Y-189747D01*
X-138779Y-183184D01*
X-138921Y-183011D01*
X-139132Y-182642D01*
X-139334Y-182153D01*
X-139518Y-181546D01*
X-139676Y-180825D01*
X-139804Y-180008D01*
X-140011Y-176829D01*
X-140014Y-175760D01*
X-139988Y-175494D01*
X-140155Y-173794D01*
X-140651Y-172159D01*
X-141457Y-170652D01*
X-142541Y-169331D01*
X-143861Y-168247D01*
X-145368Y-167442D01*
X-147003Y-166946D01*
X-148704Y-166779D01*
X-150404Y-166946D01*
X-152039Y-167442D01*
X-153546Y-168247D01*
X-154867Y-169331D01*
X-155951Y-170652D01*
X-156756Y-172159D01*
X-157252Y-173794D01*
X-157420Y-175494D01*
X-157252Y-177195D01*
X-156756Y-178830D01*
X-155951Y-180337D01*
X-154867Y-181658D01*
X-153546Y-182741D01*
X-152039Y-183547D01*
X-150404Y-184043D01*
X-148704Y-184210D01*
X-148438Y-184184D01*
X-147356Y-184187D01*
X-146207Y-184223D01*
X-144198Y-184393D01*
X-143373Y-184522D01*
X-142652Y-184680D01*
X-142045Y-184864D01*
X-141556Y-185066D01*
X-141187Y-185277D01*
X-141014Y-185419D01*
X-134914Y-191519D01*
Y-215554D01*
X-135284Y-216037D01*
X-135460Y-216037D01*
X-135877Y-215837D01*
X-135929Y-215837D01*
X-137755D01*
Y-218510D01*
Y-221183D01*
X-135929D01*
X-135877Y-221183D01*
X-135460Y-220983D01*
X-135377Y-220983D01*
X-134793D01*
X-134451Y-221494D01*
X-124979Y-230966D01*
X-124467Y-231309D01*
X-123862Y-231429D01*
X-118587D01*
Y-233384D01*
X-118676Y-233386D01*
X-130836D01*
X-147123Y-217099D01*
Y-213976D01*
X-147111Y-213219D01*
X-147002Y-211773D01*
X-146990Y-211726D01*
X-146787Y-211237D01*
X-146488Y-210679D01*
X-146090Y-210056D01*
X-145602Y-209388D01*
X-143500Y-206994D01*
X-142747Y-206237D01*
X-142541Y-206067D01*
X-141457Y-204746D01*
X-140651Y-203239D01*
X-140155Y-201604D01*
X-139988Y-199904D01*
X-140155Y-198204D01*
X-140651Y-196568D01*
X-141457Y-195062D01*
X-142541Y-193741D01*
X-143861Y-192657D01*
X-145368Y-191851D01*
X-147003Y-191355D01*
X-148704Y-191188D01*
X-148756Y-191193D01*
X-148796Y-191175D01*
X-148964Y-191074D01*
X-151536Y-188830D01*
X-160702Y-179663D01*
Y-144232D01*
X-160646Y-142781D01*
X-160449Y-141399D01*
X-160145Y-140413D01*
X-159788Y-139833D01*
X-159441Y-139580D01*
X-159017Y-139513D01*
X-158355Y-139671D01*
X-157443Y-140154D01*
X-157243Y-140304D01*
X-157229Y-140323D01*
X-157107Y-140526D01*
X-157089Y-140566D01*
X-157094Y-140618D01*
X-156927Y-142318D01*
X-156431Y-143953D01*
X-155625Y-145460D01*
X-154542Y-146781D01*
X-153221Y-147865D01*
X-151714Y-148670D01*
X-150079Y-149166D01*
X-148378Y-149334D01*
X-146678Y-149166D01*
X-145043Y-148670D01*
X-143536Y-147865D01*
X-142215Y-146781D01*
X-141131Y-145460D01*
X-140326Y-143953D01*
X-139830Y-142318D01*
X-139662Y-140618D01*
X-139830Y-138917D01*
X-140326Y-137282D01*
X-141131Y-135775D01*
X-142215Y-134455D01*
X-143536Y-133371D01*
X-145043Y-132565D01*
X-146678Y-132069D01*
X-148378Y-131902D01*
X-148431Y-131907D01*
X-148470Y-131889D01*
X-148638Y-131788D01*
X-151210Y-129544D01*
X-154107Y-126647D01*
X-155185Y-125489D01*
X-156348Y-124036D01*
X-157372Y-122528D01*
X-158259Y-120967D01*
X-159008Y-119350D01*
X-159621Y-117677D01*
X-160099Y-115946D01*
X-160440Y-114156D01*
X-160645Y-112306D01*
X-160702Y-110725D01*
Y-70092D01*
X-142170Y-51560D01*
X-141708Y-51751D01*
Y-95498D01*
X-141596Y-96635D01*
X-141264Y-97729D01*
X-140726Y-98736D01*
X-140001Y-99619D01*
X-37602Y-202019D01*
X-36933Y-202567D01*
X-37112Y-203067D01*
X-65825D01*
X-66430Y-203188D01*
X-66943Y-203530D01*
X-94043Y-230630D01*
X-94543Y-230423D01*
Y-230338D01*
X-98201D01*
X-101858D01*
Y-231625D01*
X-101658D01*
Y-236543D01*
X-96965D01*
X-96946Y-236547D01*
X-96927Y-236543D01*
X-95574D01*
X-95555Y-236547D01*
X-95545Y-236545D01*
X-95536Y-236547D01*
X-95394Y-236543D01*
X-94743D01*
Y-236528D01*
X-94654Y-236526D01*
X-92371D01*
X-91766Y-236405D01*
X-91254Y-236063D01*
X-63919Y-208728D01*
X-58401D01*
X-58291Y-209051D01*
X-58261Y-209228D01*
X-58969Y-210150D01*
X-59426Y-211255D01*
X-59517Y-211941D01*
X-55000D01*
X-50483D01*
X-50574Y-211255D01*
X-51031Y-210150D01*
X-51739Y-209228D01*
X-51709Y-209051D01*
X-51599Y-208728D01*
X-48074D01*
X-47913Y-209202D01*
X-48098Y-209343D01*
X-48794Y-210251D01*
X-49231Y-211307D01*
X-49381Y-212441D01*
X-49231Y-213575D01*
X-48794Y-214631D01*
X-48098Y-215539D01*
X-47190Y-216235D01*
X-46134Y-216672D01*
X-45000Y-216822D01*
X-43866Y-216672D01*
X-42810Y-216235D01*
X-41902Y-215539D01*
X-41206Y-214631D01*
X-40769Y-213575D01*
X-40619Y-212441D01*
X-40769Y-211307D01*
X-41206Y-210251D01*
X-41902Y-209343D01*
X-42087Y-209202D01*
X-41926Y-208728D01*
X-38074D01*
X-37913Y-209202D01*
X-38098Y-209343D01*
X-38794Y-210251D01*
X-39232Y-211307D01*
X-39381Y-212441D01*
X-39232Y-213575D01*
X-38794Y-214631D01*
X-38098Y-215539D01*
X-37190Y-216235D01*
X-36134Y-216672D01*
X-35000Y-216822D01*
X-33866Y-216672D01*
X-32810Y-216235D01*
X-31902Y-215539D01*
X-31206Y-214631D01*
X-30768Y-213575D01*
X-30619Y-212441D01*
X-30768Y-211307D01*
X-31206Y-210251D01*
X-31902Y-209343D01*
X-32087Y-209202D01*
X-31926Y-208728D01*
X-28074D01*
X-27913Y-209202D01*
X-28098Y-209343D01*
X-28794Y-210251D01*
X-29232Y-211307D01*
X-29381Y-212441D01*
X-29232Y-213575D01*
X-28794Y-214631D01*
X-28098Y-215539D01*
X-27190Y-216235D01*
X-26134Y-216672D01*
X-25000Y-216822D01*
X-23866Y-216672D01*
X-22810Y-216235D01*
X-21902Y-215539D01*
X-21206Y-214631D01*
X-20768Y-213575D01*
X-20619Y-212441D01*
X-20768Y-211307D01*
X-21206Y-210251D01*
X-21902Y-209343D01*
X-22087Y-209202D01*
X-21926Y-208728D01*
X-18074D01*
X-17913Y-209202D01*
X-18098Y-209343D01*
X-18794Y-210251D01*
X-19231Y-211307D01*
X-19381Y-212441D01*
X-19231Y-213575D01*
X-18794Y-214631D01*
X-18098Y-215539D01*
X-17190Y-216235D01*
X-16134Y-216672D01*
X-15000Y-216822D01*
X-13866Y-216672D01*
X-12810Y-216235D01*
X-11902Y-215539D01*
X-11206Y-214631D01*
X-10768Y-213575D01*
X-10619Y-212441D01*
X-10768Y-211307D01*
X-11206Y-210251D01*
X-11902Y-209343D01*
X-12087Y-209202D01*
X-11926Y-208728D01*
X-8074D01*
X-7913Y-209202D01*
X-8098Y-209343D01*
X-8794Y-210251D01*
X-9232Y-211307D01*
X-9381Y-212441D01*
X-9232Y-213575D01*
X-8794Y-214631D01*
X-8098Y-215539D01*
X-7190Y-216235D01*
X-6134Y-216672D01*
X-5000Y-216822D01*
X-3866Y-216672D01*
X-2810Y-216235D01*
X-1902Y-215539D01*
X-1206Y-214631D01*
X-769Y-213575D01*
X-619Y-212441D01*
X-769Y-211307D01*
X-1206Y-210251D01*
X-1902Y-209343D01*
X-2087Y-209202D01*
X-1926Y-208728D01*
X1926D01*
X2087Y-209202D01*
X1902Y-209343D01*
X1206Y-210251D01*
X769Y-211307D01*
X619Y-212441D01*
X769Y-213575D01*
X1206Y-214631D01*
X1902Y-215539D01*
X2810Y-216235D01*
X3866Y-216672D01*
X5000Y-216822D01*
X6134Y-216672D01*
X7190Y-216235D01*
X8098Y-215539D01*
X8794Y-214631D01*
X9232Y-213575D01*
X9381Y-212441D01*
X9232Y-211307D01*
X8794Y-210251D01*
X8098Y-209343D01*
X7913Y-209202D01*
X8074Y-208728D01*
X11926D01*
X12087Y-209202D01*
X11902Y-209343D01*
X11206Y-210251D01*
X10768Y-211307D01*
X10619Y-212441D01*
X10768Y-213575D01*
X11206Y-214631D01*
X11902Y-215539D01*
X12810Y-216235D01*
X13866Y-216672D01*
X15000Y-216822D01*
X16134Y-216672D01*
X17190Y-216235D01*
X18098Y-215539D01*
X18794Y-214631D01*
X19231Y-213575D01*
X19381Y-212441D01*
X19231Y-211307D01*
X18794Y-210251D01*
X18098Y-209343D01*
X17913Y-209202D01*
X18074Y-208728D01*
X21926D01*
X22087Y-209202D01*
X21902Y-209343D01*
X21206Y-210251D01*
X20768Y-211307D01*
X20619Y-212441D01*
X20768Y-213575D01*
X21206Y-214631D01*
X21902Y-215539D01*
X22810Y-216235D01*
X23866Y-216672D01*
X25000Y-216822D01*
X26134Y-216672D01*
X27190Y-216235D01*
X28098Y-215539D01*
X28794Y-214631D01*
X29232Y-213575D01*
X29381Y-212441D01*
X29232Y-211307D01*
X28794Y-210251D01*
X28098Y-209343D01*
X27913Y-209202D01*
X28074Y-208728D01*
X29052D01*
X30063Y-209739D01*
X30167Y-209889D01*
X30270Y-210081D01*
X30364Y-210306D01*
X30448Y-210567D01*
X30518Y-210863D01*
X30572Y-211184D01*
X30637Y-211973D01*
X30640Y-212284D01*
X30619Y-212441D01*
X30768Y-213575D01*
X31206Y-214631D01*
X31902Y-215539D01*
X32810Y-216235D01*
X33866Y-216672D01*
X35000Y-216822D01*
X36134Y-216672D01*
X37190Y-216235D01*
X38098Y-215539D01*
X38794Y-214631D01*
X39232Y-213575D01*
X39381Y-212441D01*
X39232Y-211307D01*
X38794Y-210251D01*
X38098Y-209343D01*
X37190Y-208647D01*
X36134Y-208209D01*
X35000Y-208060D01*
X34862Y-208078D01*
X34111Y-208054D01*
X33754Y-208015D01*
X33422Y-207959D01*
X33126Y-207889D01*
X32865Y-207805D01*
X32640Y-207711D01*
X32449Y-207608D01*
X32298Y-207504D01*
X31484Y-206690D01*
X31675Y-206228D01*
X36552D01*
X40063Y-209739D01*
X40167Y-209889D01*
X40270Y-210081D01*
X40364Y-210306D01*
X40448Y-210567D01*
X40518Y-210863D01*
X40572Y-211184D01*
X40637Y-211973D01*
X40640Y-212284D01*
X40619Y-212441D01*
X40769Y-213575D01*
X41206Y-214631D01*
X41902Y-215539D01*
X42810Y-216235D01*
X43866Y-216672D01*
X45000Y-216822D01*
X46134Y-216672D01*
X47190Y-216235D01*
X48098Y-215539D01*
X48794Y-214631D01*
X49231Y-213575D01*
X49381Y-212441D01*
X49231Y-211307D01*
X48794Y-210251D01*
X48098Y-209343D01*
X47190Y-208647D01*
X46134Y-208209D01*
X45000Y-208060D01*
X44862Y-208078D01*
X44111Y-208054D01*
X43754Y-208015D01*
X43422Y-207959D01*
X43126Y-207889D01*
X42865Y-207805D01*
X42640Y-207711D01*
X42448Y-207608D01*
X42298Y-207504D01*
X38982Y-204188D01*
X39173Y-203726D01*
X54769D01*
X58715Y-207672D01*
Y-209370D01*
X58242Y-209531D01*
X58098Y-209343D01*
X57190Y-208647D01*
X56134Y-208209D01*
X55000Y-208060D01*
X53866Y-208209D01*
X52810Y-208647D01*
X51902Y-209343D01*
X51206Y-210251D01*
X50769Y-211307D01*
X50619Y-212441D01*
X50769Y-213575D01*
X51206Y-214631D01*
X51902Y-215539D01*
X52810Y-216235D01*
X53143Y-216373D01*
X53135Y-216911D01*
X53057Y-216941D01*
X52703Y-217048D01*
X52524Y-217144D01*
X52334Y-217216D01*
X52021Y-217413D01*
X51696Y-217587D01*
X51539Y-217716D01*
X51366Y-217824D01*
X51098Y-218077D01*
X51073Y-218098D01*
X50657D01*
Y-218494D01*
X50536Y-218608D01*
X50322Y-218909D01*
X50088Y-219195D01*
X49992Y-219374D01*
X49874Y-219540D01*
X49723Y-219877D01*
X49549Y-220202D01*
X49490Y-220397D01*
X49441Y-220507D01*
X49199Y-220558D01*
X48907Y-220525D01*
X48794Y-220251D01*
X48098Y-219343D01*
X47190Y-218647D01*
X46134Y-218209D01*
X45000Y-218060D01*
X43866Y-218209D01*
X42810Y-218647D01*
X41902Y-219343D01*
X41206Y-220251D01*
X40769Y-221307D01*
X40619Y-222441D01*
X40769Y-223575D01*
X41206Y-224631D01*
X41902Y-225539D01*
X42810Y-226235D01*
X43245Y-226415D01*
X43304Y-226716D01*
X43702Y-227311D01*
X49088Y-232697D01*
X49683Y-233095D01*
X50386Y-233235D01*
X62992D01*
X63398Y-233461D01*
Y-234378D01*
X63352Y-234406D01*
X63238Y-234452D01*
X63064Y-234499D01*
X62832Y-234537D01*
X62666Y-234552D01*
X48090D01*
X39301Y-225763D01*
X39196Y-225617D01*
X39098Y-225439D01*
X39026Y-225259D01*
X38978Y-225071D01*
X38952Y-224872D01*
X38950Y-224656D01*
X38975Y-224421D01*
X39028Y-224165D01*
X39122Y-223856D01*
X39125Y-223833D01*
X39232Y-223575D01*
X39381Y-222441D01*
X39232Y-221307D01*
X38794Y-220251D01*
X38098Y-219343D01*
X37190Y-218647D01*
X36134Y-218209D01*
X35000Y-218060D01*
X33866Y-218209D01*
X32810Y-218647D01*
X31902Y-219343D01*
X31206Y-220251D01*
X30768Y-221307D01*
X30619Y-222441D01*
X30768Y-223575D01*
X31206Y-224631D01*
X31902Y-225539D01*
X32810Y-226235D01*
X33574Y-226552D01*
X33603Y-226569D01*
X33764Y-226630D01*
X33866Y-226672D01*
X33881Y-226675D01*
X34760Y-227006D01*
X35058Y-227142D01*
X35629Y-227446D01*
X35857Y-227590D01*
X36067Y-227739D01*
X36169Y-227822D01*
X46032Y-237685D01*
X46628Y-238083D01*
X47330Y-238222D01*
X62666D01*
X62832Y-238237D01*
X63064Y-238275D01*
X63238Y-238322D01*
X63352Y-238368D01*
X63398Y-238396D01*
Y-240061D01*
X71042D01*
Y-238330D01*
X71089Y-238302D01*
X71203Y-238255D01*
X71377Y-238209D01*
X71609Y-238170D01*
X71774Y-238156D01*
X74435D01*
X74872Y-238190D01*
X74872Y-238190D01*
Y-238499D01*
X75666D01*
X75684Y-238502D01*
X75703Y-238499D01*
X78988D01*
X79007Y-238502D01*
X79025Y-238499D01*
X79819D01*
Y-238206D01*
X80455Y-238156D01*
X102261D01*
X102963Y-238016D01*
X103559Y-237618D01*
X157097Y-184080D01*
X157495Y-183484D01*
X157635Y-182782D01*
X157796Y-182621D01*
X184498Y-182623D01*
Y-254331D01*
X184498Y-254331D01*
X184498D01*
X184476Y-254822D01*
X184383Y-255767D01*
X183965Y-257147D01*
X183284Y-258419D01*
X182369Y-259535D01*
X181254Y-260450D01*
X179982Y-261130D01*
X178601Y-261549D01*
X177217Y-261685D01*
X177165Y-261664D01*
X-177165D01*
X-177217Y-261685D01*
X-178601Y-261549D01*
X-179982Y-261130D01*
X-181254Y-260450D01*
X-182369Y-259535D01*
X-183284Y-258419D01*
X-183965Y-257147D01*
X-184383Y-255767D01*
X-184520Y-254383D01*
X-184498Y-254331D01*
Y254331D01*
X-184520Y254383D01*
X-184383Y255767D01*
X-183965Y257147D01*
X-183284Y258419D01*
X-182369Y259535D01*
X-181254Y260450D01*
X-179982Y261130D01*
X-178601Y261549D01*
X-177656Y261642D01*
X-177165Y261664D01*
Y261664D01*
X-177165Y261664D01*
X-86595D01*
X-86241Y261310D01*
D02*
G37*
G36*
X41786Y-208141D02*
X42022Y-208305D01*
X42288Y-208448D01*
X42583Y-208571D01*
X42907Y-208675D01*
X43260Y-208759D01*
X43642Y-208823D01*
X44054Y-208868D01*
X44965Y-208898D01*
X41457Y-212405D01*
X41452Y-211935D01*
X41383Y-211083D01*
X41318Y-210701D01*
X41234Y-210348D01*
X41130Y-210023D01*
X41007Y-209729D01*
X40863Y-209463D01*
X40701Y-209226D01*
X40518Y-209019D01*
X41578Y-207959D01*
X41786Y-208141D01*
D02*
G37*
G36*
X31786D02*
X32022Y-208305D01*
X32288Y-208448D01*
X32583Y-208571D01*
X32907Y-208675D01*
X33260Y-208759D01*
X33642Y-208823D01*
X34054Y-208868D01*
X34965Y-208898D01*
X31457Y-212405D01*
X31452Y-211935D01*
X31383Y-211083D01*
X31318Y-210701D01*
X31234Y-210348D01*
X31130Y-210023D01*
X31007Y-209729D01*
X30863Y-209463D01*
X30700Y-209226D01*
X30518Y-209019D01*
X31578Y-207959D01*
X31786Y-208141D01*
D02*
G37*
G36*
X-145696Y-204054D02*
X-146169Y-204787D01*
X-146534Y-205527D01*
X-143192D01*
X-144097Y-206437D01*
X-146239Y-208878D01*
X-146763Y-209596D01*
X-147192Y-210266D01*
X-147525Y-210888D01*
X-147763Y-211462D01*
X-147810Y-211634D01*
X-147926Y-213182D01*
X-147954Y-214847D01*
X-149454D01*
X-149481Y-213182D01*
X-149597Y-211634D01*
X-149644Y-211462D01*
X-149882Y-210888D01*
X-150216Y-210266D01*
X-150644Y-209596D01*
X-151168Y-208878D01*
X-152501Y-207298D01*
X-153311Y-206437D01*
X-154216Y-205527D01*
X-150873D01*
X-151238Y-204787D01*
X-151712Y-204054D01*
X-152241Y-203437D01*
X-145166D01*
X-145696Y-204054D01*
D02*
G37*
G36*
X-126510Y-215593D02*
X-126461Y-216073D01*
X-126418Y-216268D01*
X-126362Y-216433D01*
X-126295Y-216568D01*
X-126214Y-216673D01*
X-126122Y-216748D01*
X-126017Y-216793D01*
X-125900Y-216808D01*
X-128632D01*
X-128515Y-216793D01*
X-128410Y-216748D01*
X-128318Y-216673D01*
X-128238Y-216568D01*
X-128170Y-216433D01*
X-128115Y-216268D01*
X-128072Y-216073D01*
X-128041Y-215848D01*
X-128022Y-215593D01*
X-128016Y-215308D01*
X-126516D01*
X-126510Y-215593D01*
D02*
G37*
G36*
X-132578Y-215634D02*
X-132529Y-216113D01*
X-132485Y-216308D01*
X-132430Y-216474D01*
X-132362Y-216609D01*
X-132282Y-216714D01*
X-132190Y-216789D01*
X-132085Y-216833D01*
X-131968Y-216848D01*
X-134700D01*
X-134583Y-216833D01*
X-134478Y-216789D01*
X-134386Y-216714D01*
X-134306Y-216609D01*
X-134238Y-216474D01*
X-134183Y-216308D01*
X-134140Y-216113D01*
X-134109Y-215889D01*
X-134090Y-215634D01*
X-134084Y-215349D01*
X-132584D01*
X-132578Y-215634D01*
D02*
G37*
G36*
X-126010Y-218421D02*
X-126062Y-218547D01*
X-126068Y-218698D01*
X-126029Y-218873D01*
X-125945Y-219073D01*
X-125815Y-219297D01*
X-125639Y-219546D01*
X-125418Y-219820D01*
X-124840Y-220440D01*
X-126210Y-221192D01*
X-126505Y-220907D01*
X-127039Y-220457D01*
X-127279Y-220290D01*
X-127500Y-220163D01*
X-127703Y-220076D01*
X-127888Y-220027D01*
X-128054Y-220019D01*
X-128202Y-220049D01*
X-128331Y-220119D01*
X-125912Y-218319D01*
X-126010Y-218421D01*
D02*
G37*
G36*
X38237Y-223962D02*
X38168Y-224295D01*
X38134Y-224617D01*
X38137Y-224927D01*
X38175Y-225226D01*
X38249Y-225513D01*
X38359Y-225789D01*
X38506Y-226054D01*
X38688Y-226307D01*
X38906Y-226549D01*
X36983Y-227455D01*
X36784Y-227269D01*
X36559Y-227088D01*
X36311Y-226912D01*
X36038Y-226741D01*
X35420Y-226411D01*
X35074Y-226253D01*
X33891Y-225806D01*
X38342Y-223617D01*
X38237Y-223962D01*
D02*
G37*
G36*
X-100846Y-228054D02*
X-100861Y-228051D01*
X-100906Y-228049D01*
X-102346Y-228040D01*
Y-226540D01*
X-100846Y-226503D01*
Y-228054D01*
D02*
G37*
G36*
X-117775D02*
X-117788Y-228051D01*
X-117826Y-228049D01*
X-118592Y-228040D01*
X-119051Y-228040D01*
Y-226540D01*
X-117775Y-226503D01*
Y-228054D01*
D02*
G37*
G36*
Y-230613D02*
X-117790Y-230610D01*
X-117835Y-230608D01*
X-119275Y-230599D01*
Y-229099D01*
X-117775Y-229062D01*
Y-230613D01*
D02*
G37*
G36*
X79027Y-230103D02*
X79087Y-230165D01*
X79186Y-230220D01*
X79326Y-230268D01*
X79507Y-230308D01*
X79726Y-230341D01*
X80287Y-230385D01*
X81007Y-230399D01*
Y-232399D01*
X80626Y-232403D01*
X79507Y-232491D01*
X79326Y-232531D01*
X79186Y-232579D01*
X79087Y-232634D01*
X79027Y-232696D01*
X79007Y-232765D01*
Y-230033D01*
X79027Y-230103D01*
D02*
G37*
G36*
X75684Y-232765D02*
X75664Y-232696D01*
X75604Y-232634D01*
X75504Y-232579D01*
X75364Y-232531D01*
X75184Y-232491D01*
X74964Y-232458D01*
X74404Y-232414D01*
X73684Y-232399D01*
Y-230399D01*
X74064Y-230396D01*
X75184Y-230308D01*
X75364Y-230268D01*
X75504Y-230220D01*
X75604Y-230165D01*
X75664Y-230103D01*
X75684Y-230033D01*
Y-232765D01*
D02*
G37*
G36*
X-95540Y-231624D02*
X-95495Y-231627D01*
X-94055Y-231636D01*
Y-233136D01*
X-95555Y-233172D01*
Y-231622D01*
X-95540Y-231624D01*
D02*
G37*
G36*
X-115239Y-235719D02*
X-115378Y-235659D01*
X-115533Y-235636D01*
X-115704Y-235650D01*
X-115892Y-235701D01*
X-116096Y-235789D01*
X-116316Y-235915D01*
X-116553Y-236079D01*
X-116806Y-236279D01*
X-117075Y-236517D01*
X-117345Y-236777D01*
X-117635Y-237077D01*
X-118114Y-237641D01*
X-118286Y-237888D01*
X-118415Y-238111D01*
X-118498Y-238312D01*
X-118538Y-238489D01*
X-118533Y-238644D01*
X-118484Y-238774D01*
X-118390Y-238882D01*
X-120708Y-236958D01*
X-120583Y-237034D01*
X-120438Y-237069D01*
X-120274Y-237064D01*
X-120091Y-237019D01*
X-119888Y-236933D01*
X-119666Y-236807D01*
X-119425Y-236640D01*
X-119165Y-236433D01*
X-118886Y-236185D01*
X-118726Y-236031D01*
X-118634Y-235936D01*
X-118458Y-235722D01*
X-119275Y-235717D01*
Y-234217D01*
X-117775Y-234181D01*
X-115239Y-235719D01*
D02*
G37*
G36*
X-95540Y-234183D02*
X-95495Y-234186D01*
X-94055Y-234195D01*
Y-235695D01*
X-95555Y-235731D01*
Y-234181D01*
X-95540Y-234183D01*
D02*
G37*
G36*
X-112469D02*
X-112424Y-234186D01*
X-110984Y-234195D01*
Y-235695D01*
X-112484Y-235731D01*
Y-234181D01*
X-112469Y-234183D01*
D02*
G37*
G36*
X-120872Y-235717D02*
X-121168Y-235727D01*
X-121455Y-235759D01*
X-121733Y-235812D01*
X-122002Y-235887D01*
X-122262Y-235982D01*
X-122514Y-236099D01*
X-122757Y-236237D01*
X-122991Y-236396D01*
X-123063Y-236453D01*
X-123274Y-236693D01*
X-123336Y-236788D01*
X-123372Y-236862D01*
X-123380Y-236915D01*
X-123361Y-236947D01*
X-123315Y-236958D01*
X-126795D01*
X-126578Y-236942D01*
X-126350Y-236894D01*
X-126111Y-236815D01*
X-125862Y-236703D01*
X-125602Y-236560D01*
X-125331Y-236385D01*
X-125160Y-236259D01*
X-125148Y-236237D01*
X-125115Y-236099D01*
X-125134Y-235982D01*
X-125203Y-235887D01*
X-125324Y-235812D01*
X-125496Y-235759D01*
X-125719Y-235727D01*
X-125994Y-235717D01*
X-122683Y-234217D01*
X-120872Y-235717D01*
D02*
G37*
G36*
X79027Y-235024D02*
X79087Y-235086D01*
X79186Y-235141D01*
X79326Y-235189D01*
X79507Y-235229D01*
X79726Y-235262D01*
X80287Y-235306D01*
X81007Y-235321D01*
Y-237321D01*
X80626Y-237324D01*
X79507Y-237412D01*
X79326Y-237452D01*
X79186Y-237500D01*
X79087Y-237555D01*
X79027Y-237617D01*
X79007Y-237687D01*
Y-234955D01*
X79027Y-235024D01*
D02*
G37*
G36*
X75684Y-237687D02*
X75664Y-237617D01*
X75604Y-237555D01*
X75504Y-237500D01*
X75364Y-237452D01*
X75184Y-237412D01*
X74964Y-237379D01*
X74404Y-237335D01*
X73684Y-237321D01*
Y-235321D01*
X74064Y-235317D01*
X75184Y-235229D01*
X75364Y-235189D01*
X75504Y-235141D01*
X75604Y-235086D01*
X75664Y-235024D01*
X75684Y-234955D01*
Y-237687D01*
D02*
G37*
G36*
X-121897Y-237769D02*
X-121815Y-237771D01*
Y-239271D01*
X-121897Y-239273D01*
Y-240021D01*
X-121912Y-239878D01*
X-121958Y-239751D01*
X-122033Y-239638D01*
X-122139Y-239541D01*
X-122275Y-239458D01*
X-122442Y-239391D01*
X-122612Y-239345D01*
X-122783Y-239391D01*
X-122949Y-239458D01*
X-123085Y-239541D01*
X-123191Y-239638D01*
X-123267Y-239751D01*
X-123312Y-239878D01*
X-123327Y-240021D01*
Y-239273D01*
X-123409Y-239271D01*
Y-237771D01*
X-123327Y-237769D01*
Y-237021D01*
X-123312Y-237163D01*
X-123267Y-237291D01*
X-123191Y-237403D01*
X-123085Y-237501D01*
X-122949Y-237583D01*
X-122783Y-237651D01*
X-122612Y-237696D01*
X-122442Y-237651D01*
X-122275Y-237583D01*
X-122139Y-237501D01*
X-122033Y-237403D01*
X-121958Y-237291D01*
X-121912Y-237163D01*
X-121897Y-237021D01*
Y-237769D01*
D02*
G37*
G36*
X70239Y-234511D02*
X70299Y-234681D01*
X70399Y-234831D01*
X70540Y-234961D01*
X70721Y-235071D01*
X70943Y-235161D01*
X71204Y-235231D01*
X71506Y-235281D01*
X71848Y-235311D01*
X72230Y-235321D01*
Y-237321D01*
X71848Y-237331D01*
X71506Y-237361D01*
X71204Y-237411D01*
X70943Y-237481D01*
X70721Y-237571D01*
X70540Y-237681D01*
X70399Y-237811D01*
X70299Y-237961D01*
X70239Y-238131D01*
X70218Y-238321D01*
Y-234321D01*
X70239Y-234511D01*
D02*
G37*
G36*
X64222Y-238387D02*
X64202Y-238197D01*
X64142Y-238027D01*
X64041Y-237877D01*
X63900Y-237747D01*
X63719Y-237637D01*
X63498Y-237547D01*
X63236Y-237477D01*
X62935Y-237427D01*
X62593Y-237397D01*
X62210Y-237387D01*
Y-235387D01*
X62593Y-235377D01*
X62935Y-235347D01*
X63236Y-235297D01*
X63498Y-235227D01*
X63719Y-235137D01*
X63900Y-235027D01*
X64041Y-234897D01*
X64142Y-234747D01*
X64202Y-234577D01*
X64222Y-234387D01*
Y-238387D01*
D02*
G37*
%LPC*%
G36*
X107317Y-1579D02*
X96974D01*
Y-11921D01*
X107317D01*
Y-1579D01*
D02*
G37*
G36*
X95974D02*
X85632D01*
Y-11921D01*
X95974D01*
Y-1579D01*
D02*
G37*
G36*
X107317Y-12921D02*
X96974D01*
Y-23264D01*
X107317D01*
Y-12921D01*
D02*
G37*
G36*
X95974D02*
X85632D01*
Y-23264D01*
X95974D01*
Y-12921D01*
D02*
G37*
G36*
X45222Y-61356D02*
X44715Y-61457D01*
X44285Y-61744D01*
X43998Y-62174D01*
X43897Y-62682D01*
X43998Y-63189D01*
X44285Y-63619D01*
X48222Y-67556D01*
X48652Y-67843D01*
X49159Y-67944D01*
X49667Y-67843D01*
X50097Y-67556D01*
X50384Y-67126D01*
X50485Y-66619D01*
X50384Y-66111D01*
X50097Y-65681D01*
X46160Y-61744D01*
X45730Y-61457D01*
X45222Y-61356D01*
D02*
G37*
G36*
X51279Y-95617D02*
X43125D01*
X47202Y-99695D01*
X51279Y-95617D01*
D02*
G37*
G36*
X40296Y-98446D02*
Y-113293D01*
X45788Y-107802D01*
X47202Y-109216D01*
X48616Y-107802D01*
X54107Y-113293D01*
Y-98446D01*
X48616Y-103937D01*
X47202Y-102523D01*
X45788Y-103937D01*
X40296Y-98446D01*
D02*
G37*
G36*
X47202Y-112044D02*
X43125Y-116121D01*
X51279D01*
X47202Y-112044D01*
D02*
G37*
G36*
X17815Y-95617D02*
X9660D01*
X13737Y-99695D01*
X17815Y-95617D01*
D02*
G37*
G36*
X6832Y-98446D02*
Y-113293D01*
X12323Y-107802D01*
X13737Y-109216D01*
X15152Y-107802D01*
X20643Y-113293D01*
Y-98446D01*
X15152Y-103937D01*
X13737Y-102523D01*
X12323Y-103937D01*
X6832Y-98446D01*
D02*
G37*
G36*
X13737Y-112044D02*
X9660Y-116121D01*
X17815D01*
X13737Y-112044D01*
D02*
G37*
G36*
X-161417Y251530D02*
X-163504Y251366D01*
X-165540Y250877D01*
X-167474Y250076D01*
X-169259Y248982D01*
X-170851Y247623D01*
X-172211Y246031D01*
X-173304Y244246D01*
X-174106Y242312D01*
X-174594Y240276D01*
X-174758Y238189D01*
X-174594Y236102D01*
X-174106Y234066D01*
X-173304Y232132D01*
X-172211Y230347D01*
X-170851Y228755D01*
X-169259Y227396D01*
X-167474Y226302D01*
X-165540Y225501D01*
X-163504Y225012D01*
X-161417Y224848D01*
X-159330Y225012D01*
X-157295Y225501D01*
X-155361Y226302D01*
X-153576Y227396D01*
X-151984Y228755D01*
X-150624Y230347D01*
X-149530Y232132D01*
X-148729Y234066D01*
X-148240Y236102D01*
X-148076Y238189D01*
X-148240Y240276D01*
X-148729Y242312D01*
X-149530Y244246D01*
X-150624Y246031D01*
X-151984Y247623D01*
X-153576Y248982D01*
X-155361Y250076D01*
X-157295Y250877D01*
X-159330Y251366D01*
X-161417Y251530D01*
D02*
G37*
G36*
X-93045Y222999D02*
X-94376Y222823D01*
X-95617Y222309D01*
X-96682Y221492D01*
X-97499Y220427D01*
X-97527Y220361D01*
X-97634Y220248D01*
X-97776Y220134D01*
X-97950Y220029D01*
X-98160Y219933D01*
X-98409Y219849D01*
X-98698Y219780D01*
X-99027Y219729D01*
X-99396Y219697D01*
X-99496Y219694D01*
X-122635D01*
X-124764Y219711D01*
Y219757D01*
X-125558D01*
X-125576Y219761D01*
X-125595Y219757D01*
X-125601D01*
X-125619Y219759D01*
X-125629Y219757D01*
X-133410D01*
X-133429Y219761D01*
X-133447Y219757D01*
X-134238D01*
Y219423D01*
X-135211Y219351D01*
X-136381D01*
X-136513Y219354D01*
X-136969Y219392D01*
Y219635D01*
X-137763D01*
X-137781Y219639D01*
X-137783Y219638D01*
X-137785Y219639D01*
X-137803Y219635D01*
X-141719D01*
Y214886D01*
X-137803D01*
X-137785Y214882D01*
X-137783Y214882D01*
X-137781Y214882D01*
X-137763Y214886D01*
X-136969D01*
Y215108D01*
X-136046Y215170D01*
X-135349D01*
X-135126Y215151D01*
X-134819Y215100D01*
X-134581Y215036D01*
X-134412Y214967D01*
X-134311Y214906D01*
X-134265Y214864D01*
X-134250Y214840D01*
X-134241Y214814D01*
X-134238Y214793D01*
Y213236D01*
X-125595D01*
X-125576Y213232D01*
X-125558Y213236D01*
X-124764D01*
Y213767D01*
X-124690Y213795D01*
X-124409Y213866D01*
X-124040Y213928D01*
X-122312Y214046D01*
X-98442D01*
X-97878Y214030D01*
X-97520Y214001D01*
X-96846Y213905D01*
X-96576Y213845D01*
X-96328Y213775D01*
X-96114Y213698D01*
X-95932Y213616D01*
X-95807Y213546D01*
X-95617Y213400D01*
X-94376Y212886D01*
X-93045Y212711D01*
X-91713Y212886D01*
X-90473Y213400D01*
X-89407Y214217D01*
X-88590Y215283D01*
X-88076Y216523D01*
X-87901Y217855D01*
X-88076Y219186D01*
X-88590Y220427D01*
X-89407Y221492D01*
X-90473Y222309D01*
X-91713Y222823D01*
X-93045Y222999D01*
D02*
G37*
G36*
X-136969Y213336D02*
X-141719D01*
Y209421D01*
X-141722Y209403D01*
X-141722Y209401D01*
X-141722Y209399D01*
X-141719Y209380D01*
Y208587D01*
X-141719D01*
X-141654Y208086D01*
X-141817Y207847D01*
X-141817D01*
Y207106D01*
X-141818Y207103D01*
X-141817Y207096D01*
Y207054D01*
X-141821Y207035D01*
X-141817Y207017D01*
Y203492D01*
X-136871D01*
Y207017D01*
X-136867Y207035D01*
X-136871Y207054D01*
Y207096D01*
X-136870Y207103D01*
X-136871Y207106D01*
Y207847D01*
X-136871D01*
X-137081Y208348D01*
X-136969Y208587D01*
X-136969D01*
Y209380D01*
X-136965Y209399D01*
X-136966Y209401D01*
X-136965Y209403D01*
X-136969Y209421D01*
Y213336D01*
D02*
G37*
G36*
X-124764Y204993D02*
X-134238D01*
Y203216D01*
X-134241Y203194D01*
X-134250Y203169D01*
X-134266Y203145D01*
X-134311Y203103D01*
X-134412Y203042D01*
X-134581Y202973D01*
X-134820Y202909D01*
X-135126Y202858D01*
X-135349Y202838D01*
X-136760D01*
X-136871Y202840D01*
Y202926D01*
X-137664D01*
X-137683Y202930D01*
X-137701Y202926D01*
X-137719D01*
X-137734Y202928D01*
X-137742Y202926D01*
X-141817D01*
Y198570D01*
X-139547D01*
X-139510Y198549D01*
X-138174Y197344D01*
X-127751Y186920D01*
Y156460D01*
X-128618Y155592D01*
X-129080Y155784D01*
Y157922D01*
X-130379D01*
Y155646D01*
X-131379D01*
Y157922D01*
X-131858D01*
Y159429D01*
X-131978Y160034D01*
X-132321Y160547D01*
X-132808Y161034D01*
X-133035Y161276D01*
X-133215Y161497D01*
X-133340Y161671D01*
Y162167D01*
X-133337Y162187D01*
X-133340Y162201D01*
Y163982D01*
X-135994D01*
X-136261Y164482D01*
X-136217Y164548D01*
X-133340D01*
Y168904D01*
X-134174D01*
X-134198Y168993D01*
X-134224Y169150D01*
X-134233Y169258D01*
Y169604D01*
X-134224Y169710D01*
X-134198Y169865D01*
X-134172Y169961D01*
X-133340D01*
X-133340Y174265D01*
X-133140Y174682D01*
X-133140Y174734D01*
Y176560D01*
X-138487D01*
Y174734D01*
X-138487Y174682D01*
X-138287Y174265D01*
X-138287Y174182D01*
Y169961D01*
X-137455D01*
X-137429Y169865D01*
X-137403Y169710D01*
X-137394Y169604D01*
Y169258D01*
X-137403Y169150D01*
X-137429Y168993D01*
X-137453Y168904D01*
X-138287D01*
Y168051D01*
X-138328Y168024D01*
X-144223Y162128D01*
X-144620Y161533D01*
X-144760Y160831D01*
X-144620Y160128D01*
X-144223Y159533D01*
X-143627Y159135D01*
X-142925Y158995D01*
X-142222Y159135D01*
X-141627Y159533D01*
X-138749Y162412D01*
X-138287Y162220D01*
Y159627D01*
X-136390D01*
X-136389Y159626D01*
X-136389Y159627D01*
X-136019D01*
X-135920Y159568D01*
X-135747Y159446D01*
X-135361Y159117D01*
X-135019Y158775D01*
Y157721D01*
X-137597D01*
Y153570D01*
X-137553D01*
X-137448Y153041D01*
X-137105Y152528D01*
X-136080Y151503D01*
X-135605Y151185D01*
X-135600Y151149D01*
X-135908Y150685D01*
X-137797D01*
Y148910D01*
X-135997D01*
Y148410D01*
X-135497D01*
Y146134D01*
X-135019D01*
Y143575D01*
X-135267Y143327D01*
X-135397Y143204D01*
X-135590Y143043D01*
X-135759Y142917D01*
X-135893Y142830D01*
X-135898Y142827D01*
X-136102D01*
X-136113Y142830D01*
X-136131Y142827D01*
X-138183D01*
Y138472D01*
X-133236D01*
Y140451D01*
X-133233Y140462D01*
X-133236Y140480D01*
Y140750D01*
X-132922Y141031D01*
X-132460Y140852D01*
Y116241D01*
X-144398Y104303D01*
X-144741Y103790D01*
X-144861Y103185D01*
Y87067D01*
X-144741Y86462D01*
X-144398Y85950D01*
X-142430Y83981D01*
X-141917Y83639D01*
X-141817Y83619D01*
Y82921D01*
X-137701D01*
X-137683Y82917D01*
X-137664Y82921D01*
X-137663D01*
X-137645Y82918D01*
X-137585Y82921D01*
X-136871D01*
Y82954D01*
X-135692Y83008D01*
X-134701D01*
X-134238Y82987D01*
Y82822D01*
X-133447D01*
X-133429Y82819D01*
X-133410Y82822D01*
X-132722D01*
X-132703Y82819D01*
X-132686Y82822D01*
X-131010D01*
X-130766Y82718D01*
X-130249Y82425D01*
X-129682Y82037D01*
X-128352Y80924D01*
X-127944Y80532D01*
X-105042Y57629D01*
X-104457Y57181D01*
X-103776Y56898D01*
X-103045Y56802D01*
X-98903D01*
X-98860Y56801D01*
X-98477Y56774D01*
X-98126Y56729D01*
X-97807Y56669D01*
X-97521Y56593D01*
X-97266Y56504D01*
X-97043Y56404D01*
X-96850Y56293D01*
X-96684Y56173D01*
X-96626Y56121D01*
X-96525Y55989D01*
X-95459Y55171D01*
X-94218Y54658D01*
X-92887Y54482D01*
X-91556Y54658D01*
X-90315Y55171D01*
X-89250Y55989D01*
X-88432Y57054D01*
X-87918Y58295D01*
X-87743Y59626D01*
X-87918Y60958D01*
X-88432Y62198D01*
X-89250Y63264D01*
X-90315Y64081D01*
X-91556Y64595D01*
X-92887Y64770D01*
X-94218Y64595D01*
X-95459Y64081D01*
X-96525Y63264D01*
X-96626Y63132D01*
X-96684Y63079D01*
X-96850Y62959D01*
X-97043Y62849D01*
X-97266Y62748D01*
X-97521Y62659D01*
X-97807Y62584D01*
X-98115Y62525D01*
X-98871Y62451D01*
X-98903Y62450D01*
X-101875D01*
X-122330Y82905D01*
X-123721Y84396D01*
X-124288Y85097D01*
X-124726Y85716D01*
X-124764Y85783D01*
Y87741D01*
X-124764Y87742D01*
X-124764Y87746D01*
Y89344D01*
X-134238D01*
Y87566D01*
X-134241Y87545D01*
X-134250Y87519D01*
X-134266Y87496D01*
X-134311Y87453D01*
X-134412Y87392D01*
X-134581Y87323D01*
X-134820Y87259D01*
X-135126Y87208D01*
X-135349Y87189D01*
X-136760D01*
X-136871Y87191D01*
Y87277D01*
X-137664D01*
X-137683Y87280D01*
X-137701Y87277D01*
X-137719D01*
X-137734Y87279D01*
X-137742Y87277D01*
X-140806D01*
X-140850Y87342D01*
X-140583Y87842D01*
X-136871D01*
Y91368D01*
X-136867Y91386D01*
X-136871Y91404D01*
Y91446D01*
X-136870Y91453D01*
X-136871Y91457D01*
Y92198D01*
X-136871D01*
X-136969Y92370D01*
Y93163D01*
X-136965Y93182D01*
X-136966Y93184D01*
X-136965Y93186D01*
X-136969Y93204D01*
Y97119D01*
X-141700D01*
Y98669D01*
X-137803D01*
X-137785Y98665D01*
X-137783Y98666D01*
X-137781Y98665D01*
X-137763Y98669D01*
X-136969D01*
Y98891D01*
X-136046Y98953D01*
X-135349D01*
X-135126Y98934D01*
X-134819Y98883D01*
X-134581Y98819D01*
X-134412Y98750D01*
X-134311Y98689D01*
X-134265Y98647D01*
X-134250Y98624D01*
X-134241Y98598D01*
X-134238Y98577D01*
Y97586D01*
X-125599D01*
X-125581Y97582D01*
X-125579Y97583D01*
X-125576Y97582D01*
X-125558Y97586D01*
X-124764D01*
Y97912D01*
X-122361Y98074D01*
X-99405D01*
X-99298Y98071D01*
X-98932Y98039D01*
X-98608Y97987D01*
X-98329Y97918D01*
X-98092Y97834D01*
X-97897Y97740D01*
X-97741Y97638D01*
X-97616Y97531D01*
X-97518Y97414D01*
X-97436Y97282D01*
X-97342Y97054D01*
X-96525Y95989D01*
X-95459Y95171D01*
X-94218Y94657D01*
X-92887Y94482D01*
X-91556Y94657D01*
X-90315Y95171D01*
X-89250Y95989D01*
X-88432Y97054D01*
X-87918Y98295D01*
X-87743Y99626D01*
X-87918Y100958D01*
X-88432Y102198D01*
X-89250Y103264D01*
X-90315Y104081D01*
X-91556Y104595D01*
X-92887Y104770D01*
X-94218Y104595D01*
X-95459Y104081D01*
X-95508Y104044D01*
X-95613Y104005D01*
X-96091Y103880D01*
X-96339Y103836D01*
X-97785Y103723D01*
X-122054D01*
X-123582Y103749D01*
X-124500Y103810D01*
X-124764Y103842D01*
Y104107D01*
X-125558D01*
X-125576Y104111D01*
X-125595Y104107D01*
X-133410D01*
X-133428Y104111D01*
X-133447Y104107D01*
X-134238D01*
Y103377D01*
X-134240Y103363D01*
X-134253Y103354D01*
X-134359Y103302D01*
X-134540Y103242D01*
X-134778Y103191D01*
X-135348Y103134D01*
X-136381D01*
X-136513Y103137D01*
X-136969Y103175D01*
Y103418D01*
X-137763D01*
X-137781Y103422D01*
X-137783Y103422D01*
X-137785Y103422D01*
X-137803Y103418D01*
X-140159D01*
X-140351Y103880D01*
X-129762Y114469D01*
X-129419Y114982D01*
X-129299Y115587D01*
Y146334D01*
X-129280D01*
Y147096D01*
X-129277Y147107D01*
X-129280Y147125D01*
Y147128D01*
X-129276Y147146D01*
X-129280Y147165D01*
Y150485D01*
X-133693D01*
X-133715Y150540D01*
X-133382Y151040D01*
X-129355D01*
X-128750Y151160D01*
X-128238Y151503D01*
X-125053Y154688D01*
X-124710Y155201D01*
X-124590Y155805D01*
Y187575D01*
X-124710Y188179D01*
X-125053Y188692D01*
X-134399Y198038D01*
X-134125Y198472D01*
X-133447D01*
X-133429Y198468D01*
X-133410Y198472D01*
X-132722D01*
X-132703Y198468D01*
X-132686Y198472D01*
X-131010D01*
X-130766Y198367D01*
X-130249Y198075D01*
X-129682Y197686D01*
X-128352Y196574D01*
X-127944Y196181D01*
X-106636Y174873D01*
X-106051Y174425D01*
X-105370Y174142D01*
X-104639Y174046D01*
X-98442D01*
X-97878Y174030D01*
X-97520Y174001D01*
X-96846Y173905D01*
X-96576Y173845D01*
X-96328Y173775D01*
X-96114Y173698D01*
X-95932Y173617D01*
X-95807Y173546D01*
X-95617Y173400D01*
X-94376Y172886D01*
X-93045Y172711D01*
X-91713Y172886D01*
X-90473Y173400D01*
X-89407Y174217D01*
X-88590Y175283D01*
X-88076Y176523D01*
X-87901Y177855D01*
X-88076Y179186D01*
X-88590Y180427D01*
X-89407Y181492D01*
X-90473Y182309D01*
X-91713Y182823D01*
X-93045Y182999D01*
X-94376Y182823D01*
X-95617Y182309D01*
X-96682Y181492D01*
X-97499Y180427D01*
X-97527Y180361D01*
X-97634Y180248D01*
X-97776Y180134D01*
X-97950Y180029D01*
X-98160Y179933D01*
X-98409Y179849D01*
X-98698Y179780D01*
X-99027Y179729D01*
X-99396Y179697D01*
X-99496Y179694D01*
X-103469D01*
X-122330Y198555D01*
X-123721Y200045D01*
X-124288Y200746D01*
X-124726Y201366D01*
X-124764Y201432D01*
Y203390D01*
X-124764Y203392D01*
X-124764Y203396D01*
Y204993D01*
D02*
G37*
G36*
X-133140Y179438D02*
X-135313D01*
Y177560D01*
X-133140D01*
Y179438D01*
D02*
G37*
G36*
X-136313D02*
X-138487D01*
Y177560D01*
X-136313D01*
Y179438D01*
D02*
G37*
G36*
X-136497Y147910D02*
X-137797D01*
Y146134D01*
X-136497D01*
Y147910D01*
D02*
G37*
G36*
X-133236Y137906D02*
X-138183D01*
Y133550D01*
X-137290D01*
Y132493D01*
X-138183D01*
Y131825D01*
X-138500Y131613D01*
X-143469Y126643D01*
X-143867Y126048D01*
X-144007Y125346D01*
X-143867Y124643D01*
X-143469Y124048D01*
X-142874Y123650D01*
X-142172Y123510D01*
X-141469Y123650D01*
X-140874Y124048D01*
X-138845Y126077D01*
X-138402Y125894D01*
X-135710D01*
X-133036D01*
Y127772D01*
X-133036D01*
X-133236Y128189D01*
Y132493D01*
X-134129D01*
Y133550D01*
X-133236D01*
Y137906D01*
D02*
G37*
G36*
X-133036Y124894D02*
X-135210D01*
Y123016D01*
X-133036D01*
Y124894D01*
D02*
G37*
G36*
X-136209D02*
X-138383D01*
Y123016D01*
X-136209D01*
Y124894D01*
D02*
G37*
G36*
X-161417Y64522D02*
X-163504Y64358D01*
X-165540Y63869D01*
X-167474Y63068D01*
X-169259Y61974D01*
X-170851Y60615D01*
X-172211Y59023D01*
X-173304Y57238D01*
X-174106Y55304D01*
X-174594Y53268D01*
X-174758Y51181D01*
X-174594Y49094D01*
X-174106Y47058D01*
X-173304Y45124D01*
X-172211Y43339D01*
X-170851Y41747D01*
X-169259Y40388D01*
X-167474Y39294D01*
X-165540Y38493D01*
X-163504Y38004D01*
X-161417Y37840D01*
X-159330Y38004D01*
X-157295Y38493D01*
X-155361Y39294D01*
X-153576Y40388D01*
X-151984Y41747D01*
X-150624Y43339D01*
X-149530Y45124D01*
X-148729Y47058D01*
X-148240Y49094D01*
X-148076Y51181D01*
X-148240Y53268D01*
X-148729Y55304D01*
X-149530Y57238D01*
X-150624Y59023D01*
X-151984Y60615D01*
X-153576Y61974D01*
X-155361Y63068D01*
X-157295Y63869D01*
X-159330Y64358D01*
X-161417Y64522D01*
D02*
G37*
G36*
X175497Y-206866D02*
X166023D01*
Y-216340D01*
X175497D01*
Y-206866D01*
D02*
G37*
G36*
X-50483Y-212941D02*
X-54500D01*
Y-216958D01*
X-53814Y-216867D01*
X-52709Y-216409D01*
X-51760Y-215681D01*
X-51031Y-214732D01*
X-50574Y-213627D01*
X-50483Y-212941D01*
D02*
G37*
G36*
X-55500D02*
X-59517D01*
X-59426Y-213627D01*
X-58969Y-214732D01*
X-58240Y-215681D01*
X-57291Y-216409D01*
X-56186Y-216867D01*
X-55500Y-216958D01*
Y-212941D01*
D02*
G37*
G36*
X-119967Y-215796D02*
X-121845D01*
Y-217970D01*
X-119967D01*
Y-215796D01*
D02*
G37*
G36*
X-138755Y-215837D02*
X-140633D01*
Y-218010D01*
X-138755D01*
Y-215837D01*
D02*
G37*
G36*
Y-219010D02*
X-140633D01*
Y-221183D01*
X-138755D01*
Y-219010D01*
D02*
G37*
G36*
X-54500Y-217924D02*
Y-221941D01*
X-50483D01*
X-50574Y-221255D01*
X-51031Y-220150D01*
X-51760Y-219201D01*
X-52709Y-218472D01*
X-53814Y-218015D01*
X-54500Y-217924D01*
D02*
G37*
G36*
X-55500D02*
X-56186Y-218015D01*
X-57291Y-218472D01*
X-58240Y-219201D01*
X-58969Y-220150D01*
X-59426Y-221255D01*
X-59517Y-221941D01*
X-55500D01*
Y-217924D01*
D02*
G37*
G36*
X25000Y-218060D02*
X23866Y-218209D01*
X22810Y-218647D01*
X21902Y-219343D01*
X21206Y-220251D01*
X20768Y-221307D01*
X20619Y-222441D01*
X20768Y-223575D01*
X21206Y-224631D01*
X21902Y-225539D01*
X22810Y-226235D01*
X23866Y-226672D01*
X25000Y-226822D01*
X26134Y-226672D01*
X27190Y-226235D01*
X28098Y-225539D01*
X28794Y-224631D01*
X29232Y-223575D01*
X29381Y-222441D01*
X29232Y-221307D01*
X28794Y-220251D01*
X28098Y-219343D01*
X27190Y-218647D01*
X26134Y-218209D01*
X25000Y-218060D01*
D02*
G37*
G36*
X15000D02*
X13866Y-218209D01*
X12810Y-218647D01*
X11902Y-219343D01*
X11206Y-220251D01*
X10768Y-221307D01*
X10619Y-222441D01*
X10768Y-223575D01*
X11206Y-224631D01*
X11902Y-225539D01*
X12810Y-226235D01*
X13866Y-226672D01*
X15000Y-226822D01*
X16134Y-226672D01*
X17190Y-226235D01*
X18098Y-225539D01*
X18794Y-224631D01*
X19231Y-223575D01*
X19381Y-222441D01*
X19231Y-221307D01*
X18794Y-220251D01*
X18098Y-219343D01*
X17190Y-218647D01*
X16134Y-218209D01*
X15000Y-218060D01*
D02*
G37*
G36*
X5000D02*
X3866Y-218209D01*
X2810Y-218647D01*
X1902Y-219343D01*
X1206Y-220251D01*
X769Y-221307D01*
X619Y-222441D01*
X769Y-223575D01*
X1206Y-224631D01*
X1902Y-225539D01*
X2810Y-226235D01*
X3866Y-226672D01*
X5000Y-226822D01*
X6134Y-226672D01*
X7190Y-226235D01*
X8098Y-225539D01*
X8794Y-224631D01*
X9232Y-223575D01*
X9381Y-222441D01*
X9232Y-221307D01*
X8794Y-220251D01*
X8098Y-219343D01*
X7190Y-218647D01*
X6134Y-218209D01*
X5000Y-218060D01*
D02*
G37*
G36*
X-5000D02*
X-6134Y-218209D01*
X-7190Y-218647D01*
X-8098Y-219343D01*
X-8794Y-220251D01*
X-9232Y-221307D01*
X-9381Y-222441D01*
X-9232Y-223575D01*
X-8794Y-224631D01*
X-8098Y-225539D01*
X-7190Y-226235D01*
X-6134Y-226672D01*
X-5000Y-226822D01*
X-3866Y-226672D01*
X-2810Y-226235D01*
X-1902Y-225539D01*
X-1206Y-224631D01*
X-769Y-223575D01*
X-619Y-222441D01*
X-769Y-221307D01*
X-1206Y-220251D01*
X-1902Y-219343D01*
X-2810Y-218647D01*
X-3866Y-218209D01*
X-5000Y-218060D01*
D02*
G37*
G36*
X-15000D02*
X-16134Y-218209D01*
X-17190Y-218647D01*
X-18098Y-219343D01*
X-18794Y-220251D01*
X-19231Y-221307D01*
X-19381Y-222441D01*
X-19231Y-223575D01*
X-18794Y-224631D01*
X-18098Y-225539D01*
X-17190Y-226235D01*
X-16134Y-226672D01*
X-15000Y-226822D01*
X-13866Y-226672D01*
X-12810Y-226235D01*
X-11902Y-225539D01*
X-11206Y-224631D01*
X-10768Y-223575D01*
X-10619Y-222441D01*
X-10768Y-221307D01*
X-11206Y-220251D01*
X-11902Y-219343D01*
X-12810Y-218647D01*
X-13866Y-218209D01*
X-15000Y-218060D01*
D02*
G37*
G36*
X-25000D02*
X-26134Y-218209D01*
X-27190Y-218647D01*
X-28098Y-219343D01*
X-28794Y-220251D01*
X-29232Y-221307D01*
X-29381Y-222441D01*
X-29232Y-223575D01*
X-28794Y-224631D01*
X-28098Y-225539D01*
X-27190Y-226235D01*
X-26134Y-226672D01*
X-25000Y-226822D01*
X-23866Y-226672D01*
X-22810Y-226235D01*
X-21902Y-225539D01*
X-21206Y-224631D01*
X-20768Y-223575D01*
X-20619Y-222441D01*
X-20768Y-221307D01*
X-21206Y-220251D01*
X-21902Y-219343D01*
X-22810Y-218647D01*
X-23866Y-218209D01*
X-25000Y-218060D01*
D02*
G37*
G36*
X-35000D02*
X-36134Y-218209D01*
X-37190Y-218647D01*
X-38098Y-219343D01*
X-38794Y-220251D01*
X-39232Y-221307D01*
X-39381Y-222441D01*
X-39232Y-223575D01*
X-38794Y-224631D01*
X-38098Y-225539D01*
X-37190Y-226235D01*
X-36134Y-226672D01*
X-35000Y-226822D01*
X-33866Y-226672D01*
X-32810Y-226235D01*
X-31902Y-225539D01*
X-31206Y-224631D01*
X-30768Y-223575D01*
X-30619Y-222441D01*
X-30768Y-221307D01*
X-31206Y-220251D01*
X-31902Y-219343D01*
X-32810Y-218647D01*
X-33866Y-218209D01*
X-35000Y-218060D01*
D02*
G37*
G36*
X-45000D02*
X-46134Y-218209D01*
X-47190Y-218647D01*
X-48098Y-219343D01*
X-48794Y-220251D01*
X-49231Y-221307D01*
X-49381Y-222441D01*
X-49231Y-223575D01*
X-48794Y-224631D01*
X-48098Y-225539D01*
X-47190Y-226235D01*
X-46134Y-226672D01*
X-45000Y-226822D01*
X-43866Y-226672D01*
X-42810Y-226235D01*
X-41902Y-225539D01*
X-41206Y-224631D01*
X-40769Y-223575D01*
X-40619Y-222441D01*
X-40769Y-221307D01*
X-41206Y-220251D01*
X-41902Y-219343D01*
X-42810Y-218647D01*
X-43866Y-218209D01*
X-45000Y-218060D01*
D02*
G37*
G36*
X-50483Y-222941D02*
X-54500D01*
Y-226958D01*
X-53814Y-226867D01*
X-52709Y-226410D01*
X-51760Y-225681D01*
X-51031Y-224732D01*
X-50574Y-223627D01*
X-50483Y-222941D01*
D02*
G37*
G36*
X-55500D02*
X-59517D01*
X-59426Y-223627D01*
X-58969Y-224732D01*
X-58240Y-225681D01*
X-57291Y-226410D01*
X-56186Y-226867D01*
X-55500Y-226958D01*
Y-222941D01*
D02*
G37*
G36*
X-117378Y-243942D02*
X-119650D01*
Y-246017D01*
X-117378D01*
Y-243942D01*
D02*
G37*
G36*
X-125575D02*
X-127846D01*
Y-246017D01*
X-125575D01*
Y-243942D01*
D02*
G37*
G36*
X140022Y-242875D02*
X88438D01*
Y-251140D01*
X140022D01*
Y-242875D01*
D02*
G37*
G36*
X161417Y-224848D02*
X159330Y-225012D01*
X157295Y-225501D01*
X155361Y-226302D01*
X153576Y-227396D01*
X151984Y-228755D01*
X150624Y-230347D01*
X149530Y-232132D01*
X148729Y-234066D01*
X148240Y-236102D01*
X148076Y-238189D01*
X148240Y-240276D01*
X148729Y-242312D01*
X149530Y-244246D01*
X150624Y-246031D01*
X151984Y-247623D01*
X153576Y-248982D01*
X155361Y-250076D01*
X157295Y-250877D01*
X159330Y-251366D01*
X161417Y-251530D01*
X163504Y-251366D01*
X165540Y-250877D01*
X167474Y-250076D01*
X169259Y-248982D01*
X170851Y-247623D01*
X172211Y-246031D01*
X173304Y-244246D01*
X174106Y-242312D01*
X174594Y-240276D01*
X174758Y-238189D01*
X174594Y-236102D01*
X174106Y-234066D01*
X173304Y-232132D01*
X172211Y-230347D01*
X170851Y-228755D01*
X169259Y-227396D01*
X167474Y-226302D01*
X165540Y-225501D01*
X163504Y-225012D01*
X161417Y-224848D01*
D02*
G37*
G36*
X-161417D02*
X-163504Y-225012D01*
X-165540Y-225501D01*
X-167474Y-226302D01*
X-169259Y-227396D01*
X-170851Y-228755D01*
X-172211Y-230347D01*
X-173304Y-232132D01*
X-174106Y-234066D01*
X-174594Y-236102D01*
X-174758Y-238189D01*
X-174594Y-240276D01*
X-174106Y-242312D01*
X-173304Y-244246D01*
X-172211Y-246031D01*
X-170851Y-247623D01*
X-169259Y-248982D01*
X-167474Y-250076D01*
X-165540Y-250877D01*
X-163504Y-251366D01*
X-161417Y-251530D01*
X-159330Y-251366D01*
X-157295Y-250877D01*
X-155361Y-250076D01*
X-153576Y-248982D01*
X-151984Y-247623D01*
X-150624Y-246031D01*
X-149530Y-244246D01*
X-148729Y-242312D01*
X-148240Y-240276D01*
X-148076Y-238189D01*
X-148240Y-236102D01*
X-148729Y-234066D01*
X-149530Y-232132D01*
X-150624Y-230347D01*
X-151984Y-228755D01*
X-153576Y-227396D01*
X-155361Y-226302D01*
X-157295Y-225501D01*
X-159330Y-225012D01*
X-161417Y-224848D01*
D02*
G37*
%LPD*%
G36*
X-133414Y214760D02*
X-133440Y214998D01*
X-133516Y215211D01*
X-133642Y215398D01*
X-133818Y215561D01*
X-134044Y215698D01*
X-134320Y215810D01*
X-134647Y215898D01*
X-135023Y215961D01*
X-135450Y215998D01*
X-135770Y216006D01*
X-137381Y215898D01*
X-137556Y215857D01*
X-137681Y215810D01*
X-137756Y215757D01*
X-137781Y215698D01*
Y218823D01*
X-137756Y218764D01*
X-137681Y218711D01*
X-137556Y218664D01*
X-137381Y218623D01*
X-137156Y218589D01*
X-136556Y218539D01*
X-135470Y218515D01*
X-135451Y218515D01*
X-134051Y218619D01*
X-133826Y218667D01*
X-133651Y218723D01*
X-133526Y218789D01*
X-133451Y218862D01*
X-133426Y218945D01*
X-133414Y214760D01*
D02*
G37*
G36*
X-95345Y214222D02*
X-95563Y214345D01*
X-95808Y214455D01*
X-96079Y214552D01*
X-96377Y214637D01*
X-96701Y214708D01*
X-97429Y214812D01*
X-97833Y214844D01*
X-98720Y214870D01*
X-99803Y218870D01*
X-99350Y218882D01*
X-98929Y218919D01*
X-98540Y218979D01*
X-98184Y219064D01*
X-97860Y219173D01*
X-97568Y219306D01*
X-97308Y219464D01*
X-97081Y219646D01*
X-96886Y219852D01*
X-96723Y220082D01*
X-95345Y214222D01*
D02*
G37*
G36*
X-125536Y218931D02*
X-125416Y218918D01*
X-124936Y218897D01*
X-121576Y218870D01*
Y214870D01*
X-122336Y214862D01*
X-124136Y214739D01*
X-124576Y214665D01*
X-124936Y214574D01*
X-125216Y214467D01*
X-125416Y214344D01*
X-125536Y214204D01*
X-125576Y214048D01*
Y218945D01*
X-125536Y218931D01*
D02*
G37*
G36*
X-138093Y209399D02*
X-137781D01*
X-137840Y209373D01*
X-137894Y209298D01*
X-137941Y209173D01*
X-137981Y208998D01*
X-138016Y208773D01*
X-138045Y208424D01*
X-137991Y207661D01*
X-137946Y207435D01*
X-137892Y207260D01*
X-137831Y207136D01*
X-137761Y207061D01*
X-137683Y207035D01*
X-138091D01*
X-138094Y206898D01*
X-140594D01*
X-140595Y207035D01*
X-141005D01*
X-140927Y207061D01*
X-140857Y207136D01*
X-140795Y207260D01*
X-140742Y207435D01*
X-140697Y207661D01*
X-140660Y207936D01*
X-140647Y208115D01*
X-140706Y208998D01*
X-140747Y209173D01*
X-140794Y209298D01*
X-140847Y209373D01*
X-140907Y209399D01*
X-140596D01*
X-140594Y209536D01*
X-138094D01*
X-138093Y209399D01*
D02*
G37*
G36*
X-133426Y199284D02*
X-133451Y199325D01*
X-133526Y199361D01*
X-133651Y199393D01*
X-133826Y199421D01*
X-134051Y199445D01*
X-135026Y199490D01*
X-135309Y199492D01*
X-136930Y199417D01*
X-136902Y199387D01*
X-136339Y198804D01*
X-137399Y197743D01*
X-139017Y199203D01*
X-139049Y199225D01*
X-139270Y199352D01*
X-139473Y199439D01*
X-139657Y199487D01*
X-139823Y199496D01*
X-139970Y199465D01*
X-140099Y199394D01*
X-137695Y201208D01*
X-137791Y201106D01*
X-137843Y200979D01*
X-137849Y200828D01*
X-137810Y200653D01*
X-137725Y200453D01*
X-137683Y200379D01*
Y202114D01*
X-137658Y202092D01*
X-137583Y202073D01*
X-137458Y202055D01*
X-137058Y202027D01*
X-135651Y202006D01*
X-135450Y202011D01*
X-135023Y202048D01*
X-134647Y202111D01*
X-134320Y202198D01*
X-134044Y202311D01*
X-133818Y202448D01*
X-133642Y202611D01*
X-133516Y202798D01*
X-133440Y203011D01*
X-133414Y203248D01*
X-133426Y199284D01*
D02*
G37*
G36*
X-125869Y203220D02*
X-126034Y202904D01*
X-126071Y202516D01*
X-125980Y202058D01*
X-125761Y201528D01*
X-125414Y200926D01*
X-124939Y200254D01*
X-124337Y199510D01*
X-122748Y197808D01*
X-127053Y196456D01*
X-127806Y197181D01*
X-129189Y198337D01*
X-129817Y198767D01*
X-130404Y199099D01*
X-130948Y199333D01*
X-131451Y199468D01*
X-131913Y199505D01*
X-132332Y199444D01*
X-132710Y199284D01*
X-125576Y203464D01*
X-125869Y203220D01*
D02*
G37*
G36*
X-95345Y174222D02*
X-95563Y174345D01*
X-95808Y174455D01*
X-96079Y174553D01*
X-96377Y174637D01*
X-96701Y174708D01*
X-97429Y174812D01*
X-97833Y174844D01*
X-98720Y174870D01*
X-99803Y178870D01*
X-99350Y178883D01*
X-98929Y178919D01*
X-98540Y178979D01*
X-98184Y179064D01*
X-97860Y179173D01*
X-97568Y179306D01*
X-97308Y179464D01*
X-97081Y179646D01*
X-96886Y179852D01*
X-96723Y180082D01*
X-95345Y174222D01*
D02*
G37*
G36*
X-134456Y170758D02*
X-134583Y170713D01*
X-134696Y170638D01*
X-134793Y170533D01*
X-134876Y170398D01*
X-134943Y170233D01*
X-134996Y170038D01*
X-135034Y169813D01*
X-135056Y169558D01*
X-135059Y169432D01*
X-135056Y169304D01*
X-135034Y169047D01*
X-134996Y168821D01*
X-134943Y168624D01*
X-134876Y168458D01*
X-134793Y168322D01*
X-134696Y168216D01*
X-134583Y168140D01*
X-134456Y168095D01*
X-134313Y168080D01*
X-137313D01*
X-137171Y168095D01*
X-137043Y168140D01*
X-136931Y168216D01*
X-136834Y168322D01*
X-136751Y168458D01*
X-136683Y168624D01*
X-136631Y168821D01*
X-136593Y169047D01*
X-136571Y169304D01*
X-136568Y169432D01*
X-136571Y169558D01*
X-136593Y169813D01*
X-136631Y170038D01*
X-136683Y170233D01*
X-136751Y170398D01*
X-136834Y170533D01*
X-136931Y170638D01*
X-137043Y170713D01*
X-137171Y170758D01*
X-137313Y170773D01*
X-134313D01*
X-134456Y170758D01*
D02*
G37*
G36*
X-134240Y162068D02*
X-134285Y161950D01*
X-134287Y161808D01*
X-134246Y161643D01*
X-134162Y161453D01*
X-134034Y161239D01*
X-133863Y161001D01*
X-133649Y160739D01*
X-133092Y160143D01*
X-134448Y159378D01*
X-134732Y159653D01*
X-135246Y160091D01*
X-135476Y160253D01*
X-135687Y160378D01*
X-135880Y160465D01*
X-136054Y160515D01*
X-136210Y160527D01*
X-136347Y160502D01*
X-136466Y160439D01*
X-134152Y162162D01*
X-134240Y162068D01*
D02*
G37*
G36*
X-132651Y156910D02*
X-134225D01*
X-134218Y156924D01*
X-134212Y156969D01*
X-134206Y157044D01*
X-134190Y157870D01*
X-134188Y158410D01*
X-132688D01*
X-132651Y156910D01*
D02*
G37*
G36*
X-130099Y147131D02*
X-130105Y147086D01*
X-130111Y147011D01*
X-130128Y146186D01*
X-130129Y145646D01*
X-131629D01*
X-131667Y147146D01*
X-130092D01*
X-130099Y147131D01*
D02*
G37*
G36*
X-132658D02*
X-132665Y147086D01*
X-132670Y147011D01*
X-132687Y146186D01*
X-132688Y145646D01*
X-134188D01*
X-134225Y147146D01*
X-132651D01*
X-132658Y147131D01*
D02*
G37*
G36*
X-132988Y142311D02*
X-133268Y142023D01*
X-133876Y141303D01*
X-134001Y141110D01*
X-134088Y140941D01*
X-134136Y140795D01*
X-134145Y140673D01*
X-134116Y140575D01*
X-134048Y140500D01*
X-136154Y142016D01*
X-136057Y141970D01*
X-135942Y141957D01*
X-135808Y141979D01*
X-135655Y142035D01*
X-135483Y142124D01*
X-135293Y142247D01*
X-135084Y142403D01*
X-134856Y142594D01*
X-134344Y143076D01*
X-132988Y142311D01*
D02*
G37*
G36*
X-133414Y98544D02*
X-133440Y98781D01*
X-133516Y98994D01*
X-133642Y99181D01*
X-133818Y99344D01*
X-134044Y99481D01*
X-134320Y99594D01*
X-134646Y99681D01*
X-135023Y99744D01*
X-135450Y99781D01*
X-135770Y99790D01*
X-137381Y99681D01*
X-137556Y99640D01*
X-137681Y99593D01*
X-137756Y99540D01*
X-137781Y99481D01*
Y102606D01*
X-137756Y102547D01*
X-137681Y102494D01*
X-137556Y102447D01*
X-137381Y102406D01*
X-137156Y102372D01*
X-136556Y102322D01*
X-135596Y102301D01*
X-135451Y102304D01*
X-134651Y102384D01*
X-134326Y102454D01*
X-134051Y102544D01*
X-133826Y102654D01*
X-133651Y102784D01*
X-133526Y102935D01*
X-133451Y103105D01*
X-133426Y103295D01*
X-133414Y98544D01*
D02*
G37*
G36*
X-128815Y101948D02*
X-128559Y101788D01*
X-128434Y101723D01*
X-128311Y101668D01*
X-128190Y101623D01*
X-128072Y101588D01*
X-127955Y101564D01*
X-127841Y101549D01*
X-127730Y101544D01*
Y100544D01*
X-127841Y100539D01*
X-127955Y100524D01*
X-128072Y100499D01*
X-128190Y100464D01*
X-128311Y100419D01*
X-128434Y100364D01*
X-128559Y100299D01*
X-128686Y100224D01*
X-128947Y100045D01*
Y102043D01*
X-128815Y101948D01*
D02*
G37*
G36*
X-125536Y103220D02*
X-125416Y103152D01*
X-125216Y103093D01*
X-124936Y103041D01*
X-124576Y102998D01*
X-123616Y102934D01*
X-121576Y102898D01*
Y98898D01*
X-122336Y98893D01*
X-124936Y98718D01*
X-125216Y98653D01*
X-125416Y98578D01*
X-125536Y98493D01*
X-125576Y98398D01*
Y103295D01*
X-125536Y103220D01*
D02*
G37*
G36*
X-96711Y97659D02*
X-96856Y97895D01*
X-97035Y98105D01*
X-97248Y98291D01*
X-97496Y98452D01*
X-97778Y98589D01*
X-98095Y98700D01*
X-98446Y98787D01*
X-98831Y98849D01*
X-99251Y98886D01*
X-99705Y98898D01*
X-98257Y102898D01*
X-97795Y102903D01*
X-96236Y103026D01*
X-95917Y103083D01*
X-95366Y103226D01*
X-95134Y103313D01*
X-94930Y103410D01*
X-96711Y97659D01*
D02*
G37*
G36*
X-138090Y93411D02*
X-138074Y93182D01*
X-137781D01*
X-137840Y93157D01*
X-137894Y93082D01*
X-137941Y92957D01*
X-137981Y92782D01*
X-138016Y92557D01*
X-138023Y92466D01*
X-137991Y92011D01*
X-137946Y91786D01*
X-137892Y91611D01*
X-137831Y91486D01*
X-137761Y91411D01*
X-137683Y91386D01*
X-138078D01*
X-138094Y90682D01*
X-140594D01*
X-140597Y91157D01*
X-140612Y91386D01*
X-141005D01*
X-140927Y91411D01*
X-140857Y91486D01*
X-140795Y91611D01*
X-140742Y91786D01*
X-140697Y92011D01*
X-140669Y92220D01*
X-140706Y92782D01*
X-140747Y92957D01*
X-140794Y93082D01*
X-140847Y93157D01*
X-140907Y93182D01*
X-140607D01*
X-140594Y93886D01*
X-138094D01*
X-138090Y93411D01*
D02*
G37*
G36*
X-133426Y83634D02*
X-133451Y83675D01*
X-133526Y83711D01*
X-133651Y83744D01*
X-133826Y83772D01*
X-134051Y83795D01*
X-135026Y83840D01*
X-135309Y83843D01*
X-137683Y83733D01*
Y86465D01*
X-137658Y86443D01*
X-137583Y86423D01*
X-137458Y86405D01*
X-137058Y86378D01*
X-135651Y86356D01*
X-135450Y86361D01*
X-135023Y86399D01*
X-134647Y86461D01*
X-134320Y86549D01*
X-134044Y86661D01*
X-133818Y86799D01*
X-133642Y86961D01*
X-133516Y87149D01*
X-133440Y87361D01*
X-133414Y87599D01*
X-133426Y83634D01*
D02*
G37*
G36*
X-125869Y87570D02*
X-126034Y87254D01*
X-126071Y86867D01*
X-125980Y86408D01*
X-125761Y85878D01*
X-125414Y85277D01*
X-124939Y84604D01*
X-124337Y83860D01*
X-122748Y82158D01*
X-127053Y80806D01*
X-127806Y81531D01*
X-129189Y82687D01*
X-129817Y83118D01*
X-130404Y83450D01*
X-130948Y83683D01*
X-131451Y83819D01*
X-131913Y83856D01*
X-132332Y83794D01*
X-132710Y83634D01*
X-129660Y85421D01*
X-130584Y86345D01*
X-129855Y86436D01*
X-129148Y85729D01*
X-129154Y85718D01*
X-125576Y87815D01*
X-125869Y87570D01*
D02*
G37*
G36*
X-140095Y84100D02*
X-140167Y84147D01*
X-140250Y84189D01*
X-140344Y84227D01*
X-140449Y84259D01*
X-140565Y84286D01*
X-140692Y84309D01*
X-140980Y84339D01*
X-141141Y84346D01*
X-141312Y84349D01*
Y85849D01*
X-141141Y85851D01*
X-140692Y85889D01*
X-140565Y85911D01*
X-140449Y85938D01*
X-140344Y85971D01*
X-140250Y86008D01*
X-140167Y86050D01*
X-140095Y86098D01*
Y84100D01*
D02*
G37*
G36*
X-95958Y56616D02*
X-96169Y56808D01*
X-96407Y56980D01*
X-96672Y57131D01*
X-96964Y57263D01*
X-97282Y57374D01*
X-97627Y57465D01*
X-97998Y57535D01*
X-98397Y57586D01*
X-98822Y57616D01*
X-99274Y57626D01*
Y61626D01*
X-98822Y61636D01*
X-97998Y61717D01*
X-97627Y61788D01*
X-97282Y61879D01*
X-96964Y61990D01*
X-96672Y62121D01*
X-96407Y62273D01*
X-96169Y62444D01*
X-95958Y62636D01*
Y56616D01*
D02*
G37*
D14*
X-129698Y101044D02*
X-127730D01*
X-129698D02*
X-129669Y101066D01*
X-130485Y85099D02*
X-129501Y86083D01*
X45222Y-62682D02*
X49159Y-66619D01*
X68930Y-235321D02*
X69030Y-235333D01*
X90238Y-249340D02*
Y-246674D01*
X91571Y-245341D01*
X92904Y-246674D01*
Y-249340D01*
Y-247341D01*
X90238D01*
X94236Y-246674D02*
Y-249340D01*
Y-248007D01*
X94903Y-247341D01*
X95569Y-246674D01*
X96236D01*
X98902Y-246008D02*
Y-246674D01*
X98235D01*
X99568D01*
X98902D01*
Y-248674D01*
X99568Y-249340D01*
X101567Y-245341D02*
Y-249340D01*
X103567D01*
X104233Y-248674D01*
Y-248007D01*
X103567Y-247341D01*
X101567D01*
X103567D01*
X104233Y-246674D01*
Y-246008D01*
X103567Y-245341D01*
X101567D01*
X109565Y-247341D02*
X112231D01*
X110898Y-246008D02*
Y-248674D01*
X117562Y-249340D02*
Y-246674D01*
X118895Y-245341D01*
X120228Y-246674D01*
Y-249340D01*
Y-247341D01*
X117562D01*
X121561Y-245341D02*
Y-249340D01*
X124227D01*
X130225Y-244675D02*
Y-246008D01*
X129558Y-246674D01*
X132224Y-249340D02*
X133557D01*
X132891D01*
Y-245341D01*
X132224Y-246008D01*
X135556D02*
X136223Y-245341D01*
X137556D01*
X138222Y-246008D01*
Y-246674D01*
X137556Y-247341D01*
X138222Y-248007D01*
Y-248674D01*
X137556Y-249340D01*
X136223D01*
X135556Y-248674D01*
Y-248007D01*
X136223Y-247341D01*
X135556Y-246674D01*
Y-246008D01*
X136223Y-247341D02*
X137556D01*
D19*
X59992Y-134986D02*
D03*
X55071D02*
D03*
X59992Y-139986D02*
D03*
X55071Y-139986D02*
D03*
X59992Y-144986D02*
D03*
X55071D02*
D03*
D20*
X40760Y-144986D02*
D03*
X40760Y-139986D02*
D03*
Y-134986D02*
D03*
X40760Y-129986D02*
D03*
X19304Y-144986D02*
D03*
X19304Y-139986D02*
D03*
Y-134986D02*
D03*
X19304Y-129986D02*
D03*
D21*
X7532Y-132447D02*
D03*
X7532Y-127526D02*
D03*
X2532Y-127526D02*
D03*
X2532Y-132447D02*
D03*
X-135813Y172139D02*
D03*
Y177060D02*
D03*
X-135710Y130315D02*
D03*
Y125394D02*
D03*
X-135813Y161804D02*
D03*
Y166726D02*
D03*
X-135710Y140650D02*
D03*
Y135728D02*
D03*
X-139344Y200748D02*
D03*
Y205670D02*
D03*
X-139344Y85099D02*
D03*
Y90020D02*
D03*
X77345Y-231399D02*
D03*
Y-236321D02*
D03*
D22*
X8142Y-149986D02*
D03*
X-3078D02*
D03*
X-3078Y-139986D02*
D03*
X8142D02*
D03*
D23*
X-98201Y-234956D02*
D03*
Y-232397D02*
D03*
Y-229838D02*
D03*
Y-227279D02*
D03*
X-115130Y-234956D02*
D03*
Y-232397D02*
D03*
Y-229838D02*
D03*
Y-227279D02*
D03*
D24*
X-129501Y100847D02*
D03*
Y86083D02*
D03*
Y216496D02*
D03*
Y201732D02*
D03*
D25*
X-139344Y210961D02*
D03*
Y217261D02*
D03*
X-139344Y94744D02*
D03*
Y101044D02*
D03*
D26*
X-120150Y-238521D02*
D03*
Y-243442D02*
D03*
X-125075Y-238521D02*
D03*
Y-243442D02*
D03*
D27*
X-127266Y-218470D02*
D03*
X-122345D02*
D03*
X-133334Y-218510D02*
D03*
X-138255D02*
D03*
D28*
X68992Y-236761D02*
D03*
X65448D02*
D03*
D29*
X47202Y-105869D02*
D03*
X13737D02*
D03*
D30*
X-130879Y155646D02*
D03*
X-133438D02*
D03*
X-135997D02*
D03*
X-130879Y148410D02*
D03*
X-133438D02*
D03*
X-135997D02*
D03*
D56*
X-5156Y-139986D02*
X-3078D01*
X-12516Y-132627D02*
X-5156Y-139986D01*
X-12516Y-132627D02*
Y-115265D01*
X-11358Y-114108D01*
X60017Y-155061D02*
X76144D01*
X55071Y-150115D02*
X60017Y-155061D01*
X55071Y-150115D02*
Y-144986D01*
X13671Y-158777D02*
X27461Y-144986D01*
X-46184Y-158777D02*
X13671D01*
X64543Y-205258D02*
X80707Y-189095D01*
X50386Y-231399D02*
X77345D01*
X67088Y-140660D02*
Y-135125D01*
X62762Y-144986D02*
X67088Y-140660D01*
X59992Y-144986D02*
X62762D01*
X62227Y-139986D02*
X67088Y-135125D01*
X59992Y-139986D02*
X62227D01*
X19304Y-144986D02*
X27461D01*
X2532Y-127526D02*
Y-122676D01*
X59992Y-134986D02*
X66950D01*
X80707Y-189095D02*
Y-159623D01*
X76144Y-155061D02*
X80707Y-159623D01*
X-21218Y-138871D02*
Y-38962D01*
X-10102Y-149986D02*
X-3078D01*
X-21218Y-138871D02*
X-10102Y-149986D01*
X-21218Y-38962D02*
X12212Y-5532D01*
X15695D01*
X-11358Y-114108D02*
X8590D01*
X13737Y-108960D01*
Y-105869D01*
X55071Y-134986D02*
Y-131562D01*
X46691Y-123182D02*
X55071Y-131562D01*
X11876Y-123182D02*
X46691D01*
X7532Y-127526D02*
X11876Y-123182D01*
X14490Y-134986D02*
X19304D01*
X11950Y-132447D02*
X14490Y-134986D01*
X7532Y-132447D02*
X11950D01*
X7532Y-132447D02*
X7532Y-132447D01*
X2532Y-132447D02*
X7532D01*
X-3078Y-138057D02*
X2532Y-132447D01*
X-3078Y-139986D02*
Y-138057D01*
X8142Y-149986D02*
X8142Y-149986D01*
Y-139986D01*
X19304D02*
X19304Y-139986D01*
X8142Y-139986D02*
X19304D01*
X55071Y-144986D02*
X55071Y-144986D01*
X55071Y-144986D02*
Y-139986D01*
X55071Y-139986D01*
Y-134986D01*
X40760D02*
X55071D01*
X-142172Y125346D02*
X-137202Y130315D01*
X64320Y-236387D02*
X65386Y-235321D01*
X155799Y-182782D02*
Y-174201D01*
X77345Y-236321D02*
X102261D01*
X155799Y-182782D01*
X95957Y-216546D02*
Y-174201D01*
X77345Y-231399D02*
X81104D01*
X95957Y-216546D01*
X45000Y-226014D02*
Y-222441D01*
X35000Y-224057D02*
Y-222441D01*
X45000Y-226014D02*
X50386Y-231399D01*
X35000Y-224057D02*
X47330Y-236387D01*
X64320D01*
X68921Y-236247D02*
X68994Y-236321D01*
X77345D01*
X-142925Y160831D02*
X-137030Y166726D01*
X-135813D01*
D57*
X54934Y-222432D02*
X60426D01*
X-33481Y-197898D02*
X57183D01*
X-135880Y-95498D02*
X-33481Y-197898D01*
X-135880Y-95498D02*
Y-37028D01*
X-166530Y-122466D02*
X-148378Y-140618D01*
X-166530Y-182077D02*
Y-122466D01*
Y-182077D02*
X-148704Y-199904D01*
X54934Y-222432D02*
X55000Y-222441D01*
X60426Y-222432D02*
X64543Y-218390D01*
Y-205258D01*
X57183Y-197898D02*
X64543Y-205258D01*
X-166530Y-122466D02*
Y-67678D01*
X-135880Y-37028D01*
X99039Y-134649D02*
X171962Y-135046D01*
D58*
X-102838Y-227290D02*
X-96946D01*
X-115130Y-234967D02*
X-113875D01*
Y-234945D01*
X-130879Y115587D02*
Y148410D01*
X-143281Y103185D02*
X-130879Y115587D01*
X-123862Y-229849D02*
X-113875D01*
X-135987Y153646D02*
Y155646D01*
X-119051Y-227290D02*
X-113875D01*
X-96946Y-232408D02*
Y-232386D01*
X-135813Y166726D02*
Y172139D01*
X-135710Y130315D02*
Y135728D01*
X-141312Y85099D02*
X-139344D01*
X-110493Y-234945D02*
X-102838Y-227290D01*
X-148704Y-175494D02*
X-133334Y-190864D01*
Y-218510D02*
Y-190864D01*
X-127266Y-218470D02*
Y-137320D01*
X-148378Y-116208D02*
X-127266Y-137320D01*
Y-219074D02*
Y-218470D01*
Y-219074D02*
X-119051Y-227290D01*
X-133334Y-220377D02*
Y-218510D01*
Y-220377D02*
X-123862Y-229849D01*
X-148704Y-217753D02*
Y-199904D01*
Y-217753D02*
X-131490Y-234967D01*
X-143281Y87067D02*
X-141312Y85099D01*
X-143281Y87067D02*
Y103185D01*
X-133438Y142921D02*
Y148410D01*
X-135710Y140650D02*
X-133438Y142921D01*
X-139344Y200748D02*
X-126170Y187575D01*
Y155805D02*
Y187575D01*
X-129355Y152620D02*
X-126170Y155805D01*
X-134962Y152620D02*
X-129355D01*
X-135987Y153646D02*
X-134962Y152620D01*
X-135997Y155646D02*
X-135987D01*
X-133438D02*
Y159429D01*
X-135813Y161804D02*
X-133438Y159429D01*
X-96946Y-234967D02*
X-96925Y-234945D01*
X-92371D01*
X-64574Y-207148D01*
X-93564Y-232386D02*
X-65825Y-204648D01*
X37207D01*
X45000Y-212441D01*
X-96946Y-232386D02*
X-93564D01*
X-64574Y-207148D02*
X29707D01*
X35000Y-212441D01*
X-113875Y-234945D02*
X-110493D01*
X-137202Y130315D02*
X-135710D01*
X-125075Y-238521D02*
Y-237359D01*
X-122683Y-234967D01*
X-131490D02*
X-122683D01*
X-116585Y-234956D02*
X-115130D01*
X-125075Y-238521D02*
X-120150D01*
X-115141Y-234967D02*
X-115130Y-234956D01*
X-122683Y-234967D02*
X-116596D01*
X-115141D01*
X-120150Y-238521D02*
X-116596Y-234967D01*
X-116585Y-234956D01*
D59*
X-129127Y216870D02*
X-93045D01*
X-129501Y100898D02*
X-94159D01*
X-104639Y176870D02*
X-93045D01*
X-129501Y216496D02*
X-129127Y216870D01*
X-103045Y59626D02*
X-92887D01*
X-94159Y100898D02*
X-92887Y99626D01*
X-129501Y100847D02*
Y100898D01*
Y201732D02*
X-104639Y176870D01*
X-129501Y86083D02*
X-103045Y59626D01*
D60*
X40760Y-139986D02*
X47648D01*
X-139344Y200748D02*
X-130485D01*
X-129501Y201732D01*
X-139344Y205670D02*
Y209902D01*
X-139344Y85099D02*
X-130485D01*
X-139344Y101044D02*
X-129698D01*
X-139344Y90020D02*
Y94744D01*
X-139344Y217261D02*
X-130265D01*
X-129501Y216496D01*
D61*
X15695Y-5532D02*
D03*
X-135880D02*
D03*
Y-37028D02*
D03*
D62*
X15695Y-47855D02*
D03*
D63*
X-92887Y59626D02*
D03*
Y99626D02*
D03*
X-93045Y177855D02*
D03*
Y217855D02*
D03*
D64*
X-42887Y114626D02*
D03*
X-43045Y232855D02*
D03*
D65*
X-32887Y44626D02*
D03*
X-33045Y162855D02*
D03*
D66*
X73255Y104784D02*
D03*
X22003Y54523D02*
D03*
X73255Y222894D02*
D03*
X22003Y172634D02*
D03*
X96474Y-12421D02*
D03*
D67*
X-148378Y-140618D02*
D03*
Y-116208D02*
D03*
X-148704Y-199904D02*
D03*
Y-175494D02*
D03*
D68*
X95957Y-174201D02*
D03*
X88477Y-211603D02*
D03*
X155799Y-174201D02*
D03*
X170760Y-211603D02*
D03*
D69*
X45222Y-62682D02*
D03*
D70*
X161417Y-238189D02*
D03*
X-161417D02*
D03*
X161417Y51181D02*
D03*
X-161417D02*
D03*
X161417Y238189D02*
D03*
X-161417D02*
D03*
D71*
X55000Y-222441D02*
D03*
D72*
X45000D02*
D03*
X35000D02*
D03*
X25000D02*
D03*
X15000D02*
D03*
X5000D02*
D03*
X-5000D02*
D03*
X-15000D02*
D03*
X-25000D02*
D03*
X-35000D02*
D03*
X-45000D02*
D03*
X-55000D02*
D03*
X55000Y-212441D02*
D03*
X45000D02*
D03*
X35000D02*
D03*
X25000D02*
D03*
X15000D02*
D03*
X5000D02*
D03*
X-5000D02*
D03*
X-15000D02*
D03*
X-25000D02*
D03*
X-35000D02*
D03*
X-45000D02*
D03*
X-55000D02*
D03*
D73*
X171962Y-135046D02*
D03*
D74*
X99039Y-134649D02*
D03*
D75*
X88500Y248500D02*
D03*
X86000Y243500D02*
D03*
X88500Y238500D02*
D03*
X86000Y233500D02*
D03*
X88500Y228500D02*
D03*
X86000Y223500D02*
D03*
X88500Y218500D02*
D03*
X86000Y213500D02*
D03*
X88500Y208500D02*
D03*
X86000Y203500D02*
D03*
X83500Y248500D02*
D03*
X81000Y243500D02*
D03*
X83500Y238500D02*
D03*
Y208500D02*
D03*
X81000Y203500D02*
D03*
X78500Y248500D02*
D03*
X76000Y243500D02*
D03*
X78500Y238500D02*
D03*
Y208500D02*
D03*
X76000Y203500D02*
D03*
X73500Y248500D02*
D03*
X71000Y243500D02*
D03*
X73500Y238500D02*
D03*
Y208500D02*
D03*
X71000Y203500D02*
D03*
X68500Y248500D02*
D03*
X66000Y243500D02*
D03*
X68500Y238500D02*
D03*
Y208500D02*
D03*
X66000Y203500D02*
D03*
X63500Y248500D02*
D03*
X61000Y243500D02*
D03*
X63500Y238500D02*
D03*
X61000Y233500D02*
D03*
Y223500D02*
D03*
Y213500D02*
D03*
X63500Y208500D02*
D03*
X61000Y203500D02*
D03*
X58500Y248500D02*
D03*
X56000Y243500D02*
D03*
X58500Y238500D02*
D03*
X56000Y233500D02*
D03*
X58500Y228500D02*
D03*
X56000Y223500D02*
D03*
X58500Y218500D02*
D03*
X56000Y213500D02*
D03*
X58500Y208500D02*
D03*
X56000Y203500D02*
D03*
X53500Y248500D02*
D03*
X51000Y243500D02*
D03*
X53500Y238500D02*
D03*
X51000Y233500D02*
D03*
X53500Y228500D02*
D03*
X51000Y223500D02*
D03*
X53500Y218500D02*
D03*
X51000Y213500D02*
D03*
X53500Y208500D02*
D03*
X51000Y203500D02*
D03*
X48500Y248500D02*
D03*
X46000Y243500D02*
D03*
X48500Y238500D02*
D03*
X46000Y233500D02*
D03*
X48500Y228500D02*
D03*
X46000Y223500D02*
D03*
X48500Y218500D02*
D03*
X46000Y213500D02*
D03*
X48500Y208500D02*
D03*
X46000Y203500D02*
D03*
X43500Y248500D02*
D03*
X41000Y243500D02*
D03*
X43500Y238500D02*
D03*
X41000Y233500D02*
D03*
X43500Y228500D02*
D03*
X41000Y223500D02*
D03*
X43500Y218500D02*
D03*
X41000Y213500D02*
D03*
X43500Y208500D02*
D03*
X41000Y203500D02*
D03*
X38500Y248500D02*
D03*
X36000Y243500D02*
D03*
X38500Y238500D02*
D03*
X36000Y233500D02*
D03*
X38500Y228500D02*
D03*
X36000Y223500D02*
D03*
X38500Y218500D02*
D03*
X36000Y213500D02*
D03*
X38500Y208500D02*
D03*
X36000Y203500D02*
D03*
X33500Y248500D02*
D03*
X31000Y243500D02*
D03*
X33500Y238500D02*
D03*
X31000Y233500D02*
D03*
X33500Y228500D02*
D03*
X31000Y223500D02*
D03*
X33500Y218500D02*
D03*
X31000Y213500D02*
D03*
X33500Y208500D02*
D03*
X31000Y203500D02*
D03*
X28500Y248500D02*
D03*
X26000Y243500D02*
D03*
X28500Y238500D02*
D03*
X26000Y233500D02*
D03*
X28500Y228500D02*
D03*
X26000Y223500D02*
D03*
X28500Y218500D02*
D03*
X26000Y213500D02*
D03*
X28500Y208500D02*
D03*
X26000Y203500D02*
D03*
X23500Y248500D02*
D03*
X21000Y243500D02*
D03*
X23500Y238500D02*
D03*
X21000Y233500D02*
D03*
X23500Y228500D02*
D03*
X21000Y223500D02*
D03*
X23500Y218500D02*
D03*
X21000Y213500D02*
D03*
X23500Y208500D02*
D03*
X21000Y203500D02*
D03*
X18500Y248500D02*
D03*
X16000Y243500D02*
D03*
X18500Y238500D02*
D03*
X16000Y233500D02*
D03*
X18500Y228500D02*
D03*
X16000Y223500D02*
D03*
X18500Y218500D02*
D03*
X16000Y213500D02*
D03*
X18500Y208500D02*
D03*
X16000Y203500D02*
D03*
X13500Y248500D02*
D03*
X11000Y243500D02*
D03*
X13500Y238500D02*
D03*
X11000Y233500D02*
D03*
X13500Y228500D02*
D03*
X11000Y223500D02*
D03*
X13500Y218500D02*
D03*
X11000Y213500D02*
D03*
X13500Y208500D02*
D03*
X11000Y203500D02*
D03*
X8500Y248500D02*
D03*
X6000Y243500D02*
D03*
X8500Y238500D02*
D03*
X6000Y233500D02*
D03*
X8500Y228500D02*
D03*
X6000Y223500D02*
D03*
X8500Y218500D02*
D03*
X6000Y213500D02*
D03*
X8500Y208500D02*
D03*
X6000Y203500D02*
D03*
X3500Y248500D02*
D03*
X1000Y243500D02*
D03*
X3500Y238500D02*
D03*
X1000Y233500D02*
D03*
X3500Y228500D02*
D03*
X1000Y223500D02*
D03*
X3500Y218500D02*
D03*
X1000Y213500D02*
D03*
X3500Y208500D02*
D03*
X1000Y203500D02*
D03*
X-1500Y248500D02*
D03*
X-4000Y243500D02*
D03*
X-1500Y238500D02*
D03*
X-4000Y233500D02*
D03*
X-1500Y228500D02*
D03*
X-4000Y223500D02*
D03*
X-1500Y218500D02*
D03*
X-4000Y213500D02*
D03*
X-1500Y208500D02*
D03*
X-4000Y203500D02*
D03*
X-6500Y248500D02*
D03*
X-9000Y243500D02*
D03*
X-6500Y238500D02*
D03*
X-9000Y233500D02*
D03*
X-6500Y228500D02*
D03*
X-9000Y223500D02*
D03*
X-6500Y218500D02*
D03*
X-9000Y213500D02*
D03*
X-6500Y208500D02*
D03*
X-9000Y203500D02*
D03*
X-11500Y248500D02*
D03*
X-14000Y243500D02*
D03*
X-11500Y238500D02*
D03*
X-14000Y233500D02*
D03*
X-11500Y228500D02*
D03*
X-14000Y223500D02*
D03*
X-11500Y218500D02*
D03*
X-14000Y213500D02*
D03*
X-11500Y208500D02*
D03*
X-14000Y203500D02*
D03*
X-16500Y248500D02*
D03*
X-19000Y243500D02*
D03*
X-16500Y238500D02*
D03*
X-19000Y233500D02*
D03*
X-16500Y228500D02*
D03*
X-19000Y223500D02*
D03*
X-16500Y218500D02*
D03*
X-19000Y213500D02*
D03*
X-16500Y208500D02*
D03*
X-19000Y203500D02*
D03*
X-21500Y248500D02*
D03*
X-24000Y243500D02*
D03*
X-21500Y238500D02*
D03*
X-24000Y233500D02*
D03*
X-21500Y228500D02*
D03*
X-24000Y223500D02*
D03*
X-21500Y218500D02*
D03*
X-24000Y213500D02*
D03*
X-21500Y208500D02*
D03*
X-24000Y203500D02*
D03*
X-26500Y248500D02*
D03*
X-29000Y243500D02*
D03*
X-26500Y238500D02*
D03*
X-29000Y233500D02*
D03*
X-26500Y228500D02*
D03*
X-29000Y223500D02*
D03*
X-26500Y218500D02*
D03*
X-29000Y213500D02*
D03*
X-26500Y208500D02*
D03*
X-29000Y203500D02*
D03*
X-31500Y248500D02*
D03*
X-34000Y243500D02*
D03*
X-31500Y238500D02*
D03*
Y228500D02*
D03*
X-34000Y223500D02*
D03*
X-31500Y218500D02*
D03*
X-34000Y213500D02*
D03*
X-31500Y208500D02*
D03*
X-34000Y203500D02*
D03*
X-36500Y248500D02*
D03*
X-39000Y243500D02*
D03*
Y223500D02*
D03*
X-36500Y218500D02*
D03*
X-39000Y213500D02*
D03*
X-36500Y208500D02*
D03*
X-39000Y203500D02*
D03*
X-41500Y248500D02*
D03*
X-44000Y243500D02*
D03*
X-41500Y218500D02*
D03*
X-44000Y213500D02*
D03*
X-41500Y208500D02*
D03*
X-44000Y203500D02*
D03*
X-46500Y248500D02*
D03*
X-49000Y243500D02*
D03*
Y223500D02*
D03*
X-46500Y218500D02*
D03*
X-49000Y213500D02*
D03*
X-46500Y208500D02*
D03*
X-49000Y203500D02*
D03*
X-51500Y248500D02*
D03*
X-54000Y243500D02*
D03*
X-51500Y238500D02*
D03*
X-54000Y233500D02*
D03*
Y223500D02*
D03*
X-51500Y218500D02*
D03*
X-54000Y213500D02*
D03*
X-51500Y208500D02*
D03*
X-54000Y203500D02*
D03*
X-56500Y248500D02*
D03*
X-59000Y243500D02*
D03*
X-56500Y238500D02*
D03*
X-59000Y233500D02*
D03*
X-56500Y228500D02*
D03*
X-59000Y223500D02*
D03*
X-56500Y218500D02*
D03*
X-59000Y213500D02*
D03*
X-56500Y208500D02*
D03*
X-59000Y203500D02*
D03*
X88500Y188500D02*
D03*
X86000Y183500D02*
D03*
X88500Y178500D02*
D03*
X86000Y173500D02*
D03*
X88500Y168500D02*
D03*
X86000Y163500D02*
D03*
X88500Y158500D02*
D03*
X86000Y153500D02*
D03*
X88500Y148500D02*
D03*
X83500Y188500D02*
D03*
X81000Y183500D02*
D03*
X83500Y178500D02*
D03*
X81000Y173500D02*
D03*
X83500Y168500D02*
D03*
X81000Y163500D02*
D03*
X83500Y158500D02*
D03*
X81000Y153500D02*
D03*
X83500Y148500D02*
D03*
X78500Y188500D02*
D03*
X76000Y183500D02*
D03*
X78500Y178500D02*
D03*
X76000Y173500D02*
D03*
X78500Y168500D02*
D03*
X76000Y163500D02*
D03*
X78500Y158500D02*
D03*
X76000Y153500D02*
D03*
X78500Y148500D02*
D03*
X73500Y188500D02*
D03*
X71000Y183500D02*
D03*
X73500Y178500D02*
D03*
X71000Y173500D02*
D03*
X73500Y168500D02*
D03*
X71000Y163500D02*
D03*
X73500Y158500D02*
D03*
X71000Y153500D02*
D03*
X73500Y148500D02*
D03*
X68500Y188500D02*
D03*
X66000Y183500D02*
D03*
X68500Y178500D02*
D03*
X66000Y173500D02*
D03*
X68500Y168500D02*
D03*
X66000Y163500D02*
D03*
X68500Y158500D02*
D03*
X66000Y153500D02*
D03*
X68500Y148500D02*
D03*
X63500Y188500D02*
D03*
X61000Y183500D02*
D03*
X63500Y178500D02*
D03*
X61000Y173500D02*
D03*
X63500Y168500D02*
D03*
X61000Y163500D02*
D03*
X63500Y158500D02*
D03*
X61000Y153500D02*
D03*
X63500Y148500D02*
D03*
X58500Y188500D02*
D03*
X56000Y183500D02*
D03*
X58500Y178500D02*
D03*
X56000Y173500D02*
D03*
X58500Y168500D02*
D03*
X56000Y163500D02*
D03*
X58500Y158500D02*
D03*
X56000Y153500D02*
D03*
X58500Y148500D02*
D03*
X53500Y188500D02*
D03*
X51000Y183500D02*
D03*
X53500Y178500D02*
D03*
X51000Y173500D02*
D03*
X53500Y168500D02*
D03*
X51000Y163500D02*
D03*
X53500Y158500D02*
D03*
X51000Y153500D02*
D03*
X53500Y148500D02*
D03*
X48500Y188500D02*
D03*
X46000Y183500D02*
D03*
X48500Y178500D02*
D03*
X46000Y173500D02*
D03*
X48500Y168500D02*
D03*
X46000Y163500D02*
D03*
X48500Y158500D02*
D03*
X46000Y153500D02*
D03*
X48500Y148500D02*
D03*
X43500Y188500D02*
D03*
X41000Y183500D02*
D03*
X43500Y178500D02*
D03*
X41000Y173500D02*
D03*
X43500Y168500D02*
D03*
X41000Y163500D02*
D03*
X43500Y158500D02*
D03*
X41000Y153500D02*
D03*
X43500Y148500D02*
D03*
X38500Y188500D02*
D03*
X36000Y183500D02*
D03*
X38500Y178500D02*
D03*
X36000Y173500D02*
D03*
X38500Y168500D02*
D03*
X36000Y163500D02*
D03*
X38500Y158500D02*
D03*
X36000Y153500D02*
D03*
X38500Y148500D02*
D03*
X33500Y188500D02*
D03*
Y158500D02*
D03*
X31000Y153500D02*
D03*
X33500Y148500D02*
D03*
X28500Y188500D02*
D03*
Y158500D02*
D03*
X26000Y153500D02*
D03*
X28500Y148500D02*
D03*
X23500Y188500D02*
D03*
Y158500D02*
D03*
X21000Y153500D02*
D03*
X23500Y148500D02*
D03*
X18500Y188500D02*
D03*
Y158500D02*
D03*
X16000Y153500D02*
D03*
X18500Y148500D02*
D03*
X13500Y188500D02*
D03*
Y158500D02*
D03*
X11000Y153500D02*
D03*
X13500Y148500D02*
D03*
X8500Y188500D02*
D03*
X6000Y183500D02*
D03*
X8500Y178500D02*
D03*
X6000Y173500D02*
D03*
X8500Y168500D02*
D03*
X6000Y163500D02*
D03*
X8500Y158500D02*
D03*
X6000Y153500D02*
D03*
X8500Y148500D02*
D03*
X3500Y188500D02*
D03*
X1000Y183500D02*
D03*
X3500Y178500D02*
D03*
X1000Y173500D02*
D03*
X3500Y168500D02*
D03*
X1000Y163500D02*
D03*
X3500Y158500D02*
D03*
X1000Y153500D02*
D03*
X3500Y148500D02*
D03*
X-1500Y188500D02*
D03*
X-4000Y183500D02*
D03*
X-1500Y178500D02*
D03*
X-4000Y173500D02*
D03*
X-1500Y168500D02*
D03*
X-4000Y163500D02*
D03*
X-1500Y158500D02*
D03*
X-4000Y153500D02*
D03*
X-1500Y148500D02*
D03*
X-6500Y188500D02*
D03*
X-9000Y183500D02*
D03*
X-6500Y178500D02*
D03*
X-9000Y173500D02*
D03*
X-6500Y168500D02*
D03*
X-9000Y163500D02*
D03*
X-6500Y158500D02*
D03*
X-9000Y153500D02*
D03*
X-6500Y148500D02*
D03*
X-11500Y188500D02*
D03*
X-14000Y183500D02*
D03*
X-11500Y178500D02*
D03*
X-14000Y173500D02*
D03*
X-11500Y168500D02*
D03*
X-14000Y163500D02*
D03*
X-11500Y158500D02*
D03*
X-14000Y153500D02*
D03*
X-11500Y148500D02*
D03*
X-16500Y188500D02*
D03*
X-19000Y183500D02*
D03*
X-16500Y178500D02*
D03*
X-19000Y173500D02*
D03*
X-16500Y168500D02*
D03*
X-19000Y163500D02*
D03*
X-16500Y158500D02*
D03*
X-19000Y153500D02*
D03*
X-16500Y148500D02*
D03*
X-21500Y188500D02*
D03*
X-24000Y183500D02*
D03*
X-21500Y178500D02*
D03*
X-24000Y173500D02*
D03*
X-21500Y168500D02*
D03*
Y158500D02*
D03*
X-24000Y153500D02*
D03*
X-21500Y148500D02*
D03*
X-26500Y188500D02*
D03*
X-29000Y183500D02*
D03*
X-26500Y178500D02*
D03*
X-29000Y173500D02*
D03*
Y153500D02*
D03*
X-26500Y148500D02*
D03*
X-31500Y188500D02*
D03*
X-34000Y183500D02*
D03*
X-31500Y178500D02*
D03*
X-34000Y173500D02*
D03*
X-31500Y148500D02*
D03*
X-36500Y188500D02*
D03*
X-39000Y183500D02*
D03*
X-36500Y178500D02*
D03*
X-39000Y173500D02*
D03*
Y153500D02*
D03*
X-36500Y148500D02*
D03*
X-41500Y188500D02*
D03*
X-44000Y183500D02*
D03*
X-41500Y178500D02*
D03*
X-44000Y173500D02*
D03*
X-41500Y168500D02*
D03*
X-44000Y163500D02*
D03*
Y153500D02*
D03*
X-41500Y148500D02*
D03*
X-46500Y188500D02*
D03*
X-49000Y183500D02*
D03*
X-46500Y178500D02*
D03*
X-49000Y173500D02*
D03*
X-46500Y168500D02*
D03*
X-49000Y163500D02*
D03*
X-46500Y158500D02*
D03*
X-49000Y153500D02*
D03*
X-46500Y148500D02*
D03*
X-51500Y188500D02*
D03*
X-54000Y183500D02*
D03*
X-51500Y178500D02*
D03*
X-54000Y173500D02*
D03*
X-51500Y168500D02*
D03*
X-54000Y163500D02*
D03*
X-51500Y158500D02*
D03*
X-54000Y153500D02*
D03*
X-51500Y148500D02*
D03*
X-56500Y188500D02*
D03*
X-59000Y183500D02*
D03*
X-56500Y178500D02*
D03*
X-59000Y173500D02*
D03*
X-56500Y168500D02*
D03*
X-59000Y163500D02*
D03*
X-56500Y158500D02*
D03*
X-59000Y153500D02*
D03*
X-56500Y148500D02*
D03*
X86000Y128500D02*
D03*
X88500Y123500D02*
D03*
X86000Y118500D02*
D03*
X88500Y113500D02*
D03*
X86000Y108500D02*
D03*
X88500Y103500D02*
D03*
X86000Y98500D02*
D03*
X88500Y93500D02*
D03*
X86000Y88500D02*
D03*
X81000Y128500D02*
D03*
X83500Y123500D02*
D03*
X81000Y118500D02*
D03*
Y88500D02*
D03*
X76000Y128500D02*
D03*
X78500Y123500D02*
D03*
X76000Y118500D02*
D03*
Y88500D02*
D03*
X71000Y128500D02*
D03*
X73500Y123500D02*
D03*
X71000Y118500D02*
D03*
Y88500D02*
D03*
X66000Y128500D02*
D03*
X68500Y123500D02*
D03*
X66000Y118500D02*
D03*
Y88500D02*
D03*
X61000Y128500D02*
D03*
X63500Y123500D02*
D03*
X61000Y118500D02*
D03*
Y108500D02*
D03*
Y98500D02*
D03*
Y88500D02*
D03*
X56000Y128500D02*
D03*
X58500Y123500D02*
D03*
X56000Y118500D02*
D03*
X58500Y113500D02*
D03*
X56000Y108500D02*
D03*
X58500Y103500D02*
D03*
X56000Y98500D02*
D03*
X58500Y93500D02*
D03*
X56000Y88500D02*
D03*
X51000Y128500D02*
D03*
X53500Y123500D02*
D03*
X51000Y118500D02*
D03*
X53500Y113500D02*
D03*
X51000Y108500D02*
D03*
X53500Y103500D02*
D03*
X51000Y98500D02*
D03*
X53500Y93500D02*
D03*
X51000Y88500D02*
D03*
X46000Y128500D02*
D03*
X48500Y123500D02*
D03*
X46000Y118500D02*
D03*
X48500Y113500D02*
D03*
X46000Y108500D02*
D03*
X48500Y103500D02*
D03*
X46000Y98500D02*
D03*
X48500Y93500D02*
D03*
X46000Y88500D02*
D03*
X41000Y128500D02*
D03*
X43500Y123500D02*
D03*
X41000Y118500D02*
D03*
X43500Y113500D02*
D03*
X41000Y108500D02*
D03*
X43500Y103500D02*
D03*
X41000Y98500D02*
D03*
X43500Y93500D02*
D03*
X41000Y88500D02*
D03*
X36000Y128500D02*
D03*
X38500Y123500D02*
D03*
X36000Y118500D02*
D03*
X38500Y113500D02*
D03*
X36000Y108500D02*
D03*
X38500Y103500D02*
D03*
X36000Y98500D02*
D03*
X38500Y93500D02*
D03*
X36000Y88500D02*
D03*
X31000Y128500D02*
D03*
X33500Y123500D02*
D03*
X31000Y118500D02*
D03*
X33500Y113500D02*
D03*
X31000Y108500D02*
D03*
X33500Y103500D02*
D03*
X31000Y98500D02*
D03*
X33500Y93500D02*
D03*
X31000Y88500D02*
D03*
X26000Y128500D02*
D03*
X28500Y123500D02*
D03*
X26000Y118500D02*
D03*
X28500Y113500D02*
D03*
X26000Y108500D02*
D03*
X28500Y103500D02*
D03*
X26000Y98500D02*
D03*
X28500Y93500D02*
D03*
X26000Y88500D02*
D03*
X21000Y128500D02*
D03*
X23500Y123500D02*
D03*
X21000Y118500D02*
D03*
X23500Y113500D02*
D03*
X21000Y108500D02*
D03*
X23500Y103500D02*
D03*
X21000Y98500D02*
D03*
X23500Y93500D02*
D03*
X21000Y88500D02*
D03*
X16000Y128500D02*
D03*
X18500Y123500D02*
D03*
X16000Y118500D02*
D03*
X18500Y113500D02*
D03*
X16000Y108500D02*
D03*
X18500Y103500D02*
D03*
X16000Y98500D02*
D03*
X18500Y93500D02*
D03*
X16000Y88500D02*
D03*
X11000Y128500D02*
D03*
X13500Y123500D02*
D03*
X11000Y118500D02*
D03*
X13500Y113500D02*
D03*
X11000Y108500D02*
D03*
X13500Y103500D02*
D03*
X11000Y98500D02*
D03*
X13500Y93500D02*
D03*
X11000Y88500D02*
D03*
X6000Y128500D02*
D03*
X8500Y123500D02*
D03*
X6000Y118500D02*
D03*
X8500Y113500D02*
D03*
X6000Y108500D02*
D03*
X8500Y103500D02*
D03*
X6000Y98500D02*
D03*
X8500Y93500D02*
D03*
X6000Y88500D02*
D03*
X1000Y128500D02*
D03*
X3500Y123500D02*
D03*
X1000Y118500D02*
D03*
X3500Y113500D02*
D03*
X1000Y108500D02*
D03*
X3500Y103500D02*
D03*
X1000Y98500D02*
D03*
X3500Y93500D02*
D03*
X1000Y88500D02*
D03*
X-4000Y128500D02*
D03*
X-1500Y123500D02*
D03*
X-4000Y118500D02*
D03*
X-1500Y113500D02*
D03*
X-4000Y108500D02*
D03*
X-1500Y103500D02*
D03*
X-4000Y98500D02*
D03*
X-1500Y93500D02*
D03*
X-4000Y88500D02*
D03*
X-9000Y128500D02*
D03*
X-6500Y123500D02*
D03*
X-9000Y118500D02*
D03*
X-6500Y113500D02*
D03*
X-9000Y108500D02*
D03*
X-6500Y103500D02*
D03*
X-9000Y98500D02*
D03*
X-6500Y93500D02*
D03*
X-9000Y88500D02*
D03*
X-14000Y128500D02*
D03*
X-11500Y123500D02*
D03*
X-14000Y118500D02*
D03*
X-11500Y113500D02*
D03*
X-14000Y108500D02*
D03*
X-11500Y103500D02*
D03*
X-14000Y98500D02*
D03*
X-11500Y93500D02*
D03*
X-14000Y88500D02*
D03*
X-19000Y128500D02*
D03*
X-16500Y123500D02*
D03*
X-19000Y118500D02*
D03*
X-16500Y113500D02*
D03*
X-19000Y108500D02*
D03*
X-16500Y103500D02*
D03*
X-19000Y98500D02*
D03*
X-16500Y93500D02*
D03*
X-19000Y88500D02*
D03*
X-24000Y128500D02*
D03*
X-21500Y123500D02*
D03*
X-24000Y118500D02*
D03*
X-21500Y113500D02*
D03*
X-24000Y108500D02*
D03*
X-21500Y103500D02*
D03*
X-24000Y98500D02*
D03*
X-21500Y93500D02*
D03*
X-24000Y88500D02*
D03*
X-29000Y128500D02*
D03*
X-26500Y123500D02*
D03*
X-29000Y118500D02*
D03*
X-26500Y113500D02*
D03*
X-29000Y108500D02*
D03*
X-26500Y103500D02*
D03*
X-29000Y98500D02*
D03*
X-26500Y93500D02*
D03*
X-29000Y88500D02*
D03*
X-34000Y128500D02*
D03*
X-31500Y123500D02*
D03*
Y113500D02*
D03*
X-34000Y108500D02*
D03*
X-31500Y103500D02*
D03*
X-34000Y98500D02*
D03*
X-31500Y93500D02*
D03*
X-34000Y88500D02*
D03*
X-39000Y128500D02*
D03*
X-36500Y123500D02*
D03*
Y103500D02*
D03*
X-39000Y98500D02*
D03*
X-36500Y93500D02*
D03*
X-39000Y88500D02*
D03*
X-44000Y128500D02*
D03*
X-41500Y103500D02*
D03*
X-44000Y98500D02*
D03*
X-41500Y93500D02*
D03*
X-44000Y88500D02*
D03*
X-49000Y128500D02*
D03*
X-46500Y103500D02*
D03*
X-49000Y98500D02*
D03*
X-46500Y93500D02*
D03*
X-49000Y88500D02*
D03*
X-54000Y128500D02*
D03*
X-51500Y123500D02*
D03*
X-54000Y118500D02*
D03*
Y108500D02*
D03*
X-51500Y103500D02*
D03*
X-54000Y98500D02*
D03*
X-51500Y93500D02*
D03*
X-54000Y88500D02*
D03*
X-59000Y128500D02*
D03*
X-56500Y123500D02*
D03*
X-59000Y118500D02*
D03*
X-56500Y113500D02*
D03*
X-59000Y108500D02*
D03*
X-56500Y103500D02*
D03*
X-59000Y98500D02*
D03*
X-56500Y93500D02*
D03*
X-59000Y88500D02*
D03*
X86000Y68500D02*
D03*
X88500Y63500D02*
D03*
X86000Y58500D02*
D03*
X88500Y53500D02*
D03*
X86000Y48500D02*
D03*
X88500Y43500D02*
D03*
X86000Y38500D02*
D03*
X88500Y33500D02*
D03*
X86000Y28500D02*
D03*
X81000Y68500D02*
D03*
X83500Y63500D02*
D03*
X81000Y58500D02*
D03*
X83500Y53500D02*
D03*
X81000Y48500D02*
D03*
X83500Y43500D02*
D03*
X81000Y38500D02*
D03*
X83500Y33500D02*
D03*
X81000Y28500D02*
D03*
X76000Y68500D02*
D03*
X78500Y63500D02*
D03*
X76000Y58500D02*
D03*
X78500Y53500D02*
D03*
X76000Y48500D02*
D03*
X78500Y43500D02*
D03*
X76000Y38500D02*
D03*
X78500Y33500D02*
D03*
X76000Y28500D02*
D03*
X71000Y68500D02*
D03*
X73500Y63500D02*
D03*
X71000Y58500D02*
D03*
X73500Y53500D02*
D03*
X71000Y48500D02*
D03*
X73500Y43500D02*
D03*
X71000Y38500D02*
D03*
X73500Y33500D02*
D03*
X71000Y28500D02*
D03*
X66000Y68500D02*
D03*
X68500Y63500D02*
D03*
X66000Y58500D02*
D03*
X68500Y53500D02*
D03*
X66000Y48500D02*
D03*
X68500Y43500D02*
D03*
X66000Y38500D02*
D03*
X68500Y33500D02*
D03*
X66000Y28500D02*
D03*
X61000Y68500D02*
D03*
X63500Y63500D02*
D03*
X61000Y58500D02*
D03*
X63500Y53500D02*
D03*
X61000Y48500D02*
D03*
X63500Y43500D02*
D03*
X61000Y38500D02*
D03*
X63500Y33500D02*
D03*
X61000Y28500D02*
D03*
X56000Y68500D02*
D03*
X58500Y63500D02*
D03*
X56000Y58500D02*
D03*
X58500Y53500D02*
D03*
X56000Y48500D02*
D03*
X58500Y43500D02*
D03*
X56000Y38500D02*
D03*
X58500Y33500D02*
D03*
X56000Y28500D02*
D03*
X51000Y68500D02*
D03*
X53500Y63500D02*
D03*
X51000Y58500D02*
D03*
X53500Y53500D02*
D03*
X51000Y48500D02*
D03*
X53500Y43500D02*
D03*
X51000Y38500D02*
D03*
X53500Y33500D02*
D03*
X51000Y28500D02*
D03*
X46000Y68500D02*
D03*
X48500Y63500D02*
D03*
X46000Y58500D02*
D03*
X48500Y53500D02*
D03*
X46000Y48500D02*
D03*
X48500Y43500D02*
D03*
X46000Y38500D02*
D03*
X48500Y33500D02*
D03*
X46000Y28500D02*
D03*
X41000Y68500D02*
D03*
X43500Y63500D02*
D03*
X41000Y58500D02*
D03*
X43500Y53500D02*
D03*
X41000Y48500D02*
D03*
X43500Y43500D02*
D03*
X41000Y38500D02*
D03*
X43500Y33500D02*
D03*
X41000Y28500D02*
D03*
X36000Y68500D02*
D03*
X38500Y63500D02*
D03*
X36000Y58500D02*
D03*
X38500Y53500D02*
D03*
X36000Y48500D02*
D03*
X38500Y43500D02*
D03*
X36000Y38500D02*
D03*
X38500Y33500D02*
D03*
X36000Y28500D02*
D03*
X31000Y68500D02*
D03*
X33500Y43500D02*
D03*
X31000Y38500D02*
D03*
X33500Y33500D02*
D03*
X31000Y28500D02*
D03*
X26000Y68500D02*
D03*
Y38500D02*
D03*
X28500Y33500D02*
D03*
X26000Y28500D02*
D03*
X21000Y68500D02*
D03*
Y38500D02*
D03*
X23500Y33500D02*
D03*
X21000Y28500D02*
D03*
X16000Y68500D02*
D03*
Y38500D02*
D03*
X18500Y33500D02*
D03*
X16000Y28500D02*
D03*
X11000Y68500D02*
D03*
Y38500D02*
D03*
X13500Y33500D02*
D03*
X11000Y28500D02*
D03*
X6000Y68500D02*
D03*
X8500Y63500D02*
D03*
X6000Y58500D02*
D03*
X8500Y53500D02*
D03*
X6000Y48500D02*
D03*
X8500Y43500D02*
D03*
X6000Y38500D02*
D03*
X8500Y33500D02*
D03*
X6000Y28500D02*
D03*
X1000Y68500D02*
D03*
X3500Y63500D02*
D03*
X1000Y58500D02*
D03*
X3500Y53500D02*
D03*
X1000Y48500D02*
D03*
X3500Y43500D02*
D03*
X1000Y38500D02*
D03*
X3500Y33500D02*
D03*
X1000Y28500D02*
D03*
X-4000Y68500D02*
D03*
X-1500Y63500D02*
D03*
X-4000Y58500D02*
D03*
X-1500Y53500D02*
D03*
X-4000Y48500D02*
D03*
X-1500Y43500D02*
D03*
X-4000Y38500D02*
D03*
X-1500Y33500D02*
D03*
X-4000Y28500D02*
D03*
X-9000Y68500D02*
D03*
X-6500Y63500D02*
D03*
X-9000Y58500D02*
D03*
X-6500Y53500D02*
D03*
X-9000Y48500D02*
D03*
X-6500Y43500D02*
D03*
X-9000Y38500D02*
D03*
X-6500Y33500D02*
D03*
X-9000Y28500D02*
D03*
X-14000Y68500D02*
D03*
X-11500Y63500D02*
D03*
X-14000Y58500D02*
D03*
X-11500Y53500D02*
D03*
X-14000Y48500D02*
D03*
X-11500Y43500D02*
D03*
X-14000Y38500D02*
D03*
X-11500Y33500D02*
D03*
X-14000Y28500D02*
D03*
X-19000Y68500D02*
D03*
X-16500Y63500D02*
D03*
X-19000Y58500D02*
D03*
X-16500Y53500D02*
D03*
X-19000Y48500D02*
D03*
X-16500Y43500D02*
D03*
X-19000Y38500D02*
D03*
X-16500Y33500D02*
D03*
X-19000Y28500D02*
D03*
X-24000Y68500D02*
D03*
X-21500Y63500D02*
D03*
X-24000Y58500D02*
D03*
X-21500Y53500D02*
D03*
Y43500D02*
D03*
X-24000Y38500D02*
D03*
X-21500Y33500D02*
D03*
X-24000Y28500D02*
D03*
X-29000Y68500D02*
D03*
X-26500Y63500D02*
D03*
X-29000Y58500D02*
D03*
X-26500Y53500D02*
D03*
Y33500D02*
D03*
X-29000Y28500D02*
D03*
X-34000Y68500D02*
D03*
X-31500Y63500D02*
D03*
X-34000Y58500D02*
D03*
X-31500Y33500D02*
D03*
X-34000Y28500D02*
D03*
X-39000Y68500D02*
D03*
X-36500Y63500D02*
D03*
X-39000Y58500D02*
D03*
X-36500Y33500D02*
D03*
X-39000Y28500D02*
D03*
X-44000Y68500D02*
D03*
X-41500Y63500D02*
D03*
X-44000Y58500D02*
D03*
X-41500Y53500D02*
D03*
X-44000Y48500D02*
D03*
Y38500D02*
D03*
X-41500Y33500D02*
D03*
X-44000Y28500D02*
D03*
X-49000Y68500D02*
D03*
X-46500Y63500D02*
D03*
X-49000Y58500D02*
D03*
X-46500Y53500D02*
D03*
X-49000Y48500D02*
D03*
X-46500Y43500D02*
D03*
X-49000Y38500D02*
D03*
X-46500Y33500D02*
D03*
X-49000Y28500D02*
D03*
X-54000Y68500D02*
D03*
X-51500Y63500D02*
D03*
X-54000Y58500D02*
D03*
X-51500Y53500D02*
D03*
X-54000Y48500D02*
D03*
X-51500Y43500D02*
D03*
X-54000Y38500D02*
D03*
X-51500Y33500D02*
D03*
X-54000Y28500D02*
D03*
X-59000Y68500D02*
D03*
X-56500Y63500D02*
D03*
X-59000Y58500D02*
D03*
X-56500Y53500D02*
D03*
X-59000Y48500D02*
D03*
X-56500Y43500D02*
D03*
X-59000Y38500D02*
D03*
X-56500Y33500D02*
D03*
X-59000Y28500D02*
D03*
X111000Y8500D02*
D03*
Y-1500D02*
D03*
Y-11500D02*
D03*
Y-21500D02*
D03*
X108500Y13500D02*
D03*
X106000Y8500D02*
D03*
X108500Y3500D02*
D03*
Y-26500D02*
D03*
X106000Y-31500D02*
D03*
X103500Y13500D02*
D03*
X101000Y8500D02*
D03*
X103500Y3500D02*
D03*
Y-26500D02*
D03*
X101000Y-31500D02*
D03*
X98500Y13500D02*
D03*
X96000Y8500D02*
D03*
X98500Y3500D02*
D03*
Y-26500D02*
D03*
X96000Y-31500D02*
D03*
X93500Y13500D02*
D03*
X91000Y8500D02*
D03*
X93500Y3500D02*
D03*
Y-26500D02*
D03*
X91000Y-31500D02*
D03*
X88500Y13500D02*
D03*
X86000Y8500D02*
D03*
X88500Y3500D02*
D03*
Y-26500D02*
D03*
X86000Y-31500D02*
D03*
X83500Y13500D02*
D03*
X81000Y8500D02*
D03*
X83500Y3500D02*
D03*
X81000Y-1500D02*
D03*
X83500Y-6500D02*
D03*
X81000Y-11500D02*
D03*
X83500Y-16500D02*
D03*
X81000Y-21500D02*
D03*
X83500Y-26500D02*
D03*
X81000Y-31500D02*
D03*
X78500Y13500D02*
D03*
X76000Y8500D02*
D03*
X78500Y3500D02*
D03*
X76000Y-1500D02*
D03*
X78500Y-6500D02*
D03*
X76000Y-11500D02*
D03*
X78500Y-16500D02*
D03*
X76000Y-21500D02*
D03*
X78500Y-26500D02*
D03*
X76000Y-31500D02*
D03*
X73500Y13500D02*
D03*
X71000Y8500D02*
D03*
X73500Y3500D02*
D03*
X71000Y-1500D02*
D03*
X73500Y-6500D02*
D03*
X71000Y-11500D02*
D03*
X73500Y-16500D02*
D03*
X71000Y-21500D02*
D03*
X73500Y-26500D02*
D03*
X71000Y-31500D02*
D03*
X68500Y13500D02*
D03*
X66000Y8500D02*
D03*
X68500Y3500D02*
D03*
X66000Y-1500D02*
D03*
X68500Y-6500D02*
D03*
X66000Y-11500D02*
D03*
X68500Y-16500D02*
D03*
X66000Y-21500D02*
D03*
X68500Y-26500D02*
D03*
X66000Y-31500D02*
D03*
X63500Y13500D02*
D03*
X61000Y8500D02*
D03*
X63500Y3500D02*
D03*
X61000Y-1500D02*
D03*
X63500Y-6500D02*
D03*
X61000Y-11500D02*
D03*
X63500Y-16500D02*
D03*
X61000Y-21500D02*
D03*
X63500Y-26500D02*
D03*
X61000Y-31500D02*
D03*
X58500Y13500D02*
D03*
X56000Y8500D02*
D03*
X58500Y3500D02*
D03*
X56000Y-1500D02*
D03*
X58500Y-6500D02*
D03*
X56000Y-11500D02*
D03*
X58500Y-16500D02*
D03*
X56000Y-21500D02*
D03*
X58500Y-26500D02*
D03*
X56000Y-31500D02*
D03*
X53500Y13500D02*
D03*
X51000Y8500D02*
D03*
X53500Y3500D02*
D03*
X51000Y-1500D02*
D03*
X53500Y-6500D02*
D03*
X51000Y-11500D02*
D03*
X53500Y-16500D02*
D03*
X51000Y-21500D02*
D03*
X53500Y-26500D02*
D03*
X51000Y-31500D02*
D03*
X48500Y13500D02*
D03*
X46000Y8500D02*
D03*
X48500Y3500D02*
D03*
X46000Y-1500D02*
D03*
X48500Y-6500D02*
D03*
X46000Y-11500D02*
D03*
X48500Y-16500D02*
D03*
X46000Y-21500D02*
D03*
X48500Y-26500D02*
D03*
X46000Y-31500D02*
D03*
X43500Y13500D02*
D03*
X41000Y8500D02*
D03*
X43500Y3500D02*
D03*
X41000Y-1500D02*
D03*
X43500Y-6500D02*
D03*
X41000Y-11500D02*
D03*
X43500Y-16500D02*
D03*
X41000Y-21500D02*
D03*
X43500Y-26500D02*
D03*
X41000Y-31500D02*
D03*
X38500Y13500D02*
D03*
X36000Y8500D02*
D03*
X38500Y3500D02*
D03*
X36000Y-1500D02*
D03*
X38500Y-6500D02*
D03*
X36000Y-11500D02*
D03*
X38500Y-16500D02*
D03*
X36000Y-21500D02*
D03*
X38500Y-26500D02*
D03*
X36000Y-31500D02*
D03*
X33500Y13500D02*
D03*
X31000Y8500D02*
D03*
X33500Y3500D02*
D03*
X31000Y-1500D02*
D03*
X33500Y-6500D02*
D03*
X31000Y-11500D02*
D03*
X33500Y-16500D02*
D03*
X31000Y-21500D02*
D03*
X33500Y-26500D02*
D03*
X31000Y-31500D02*
D03*
X28500Y13500D02*
D03*
X26000Y8500D02*
D03*
X28500Y3500D02*
D03*
X26000Y-1500D02*
D03*
X28500Y-6500D02*
D03*
X26000Y-11500D02*
D03*
X28500Y-16500D02*
D03*
X26000Y-21500D02*
D03*
X28500Y-26500D02*
D03*
X26000Y-31500D02*
D03*
X23500Y13500D02*
D03*
X21000Y8500D02*
D03*
X23500Y3500D02*
D03*
Y-6500D02*
D03*
Y-16500D02*
D03*
X21000Y-21500D02*
D03*
X23500Y-26500D02*
D03*
X21000Y-31500D02*
D03*
X18500Y13500D02*
D03*
X16000Y8500D02*
D03*
X18500Y3500D02*
D03*
Y-16500D02*
D03*
X16000Y-21500D02*
D03*
X18500Y-26500D02*
D03*
X16000Y-31500D02*
D03*
X13500Y13500D02*
D03*
X11000Y8500D02*
D03*
X13500Y3500D02*
D03*
Y-16500D02*
D03*
X11000Y-21500D02*
D03*
X13500Y-26500D02*
D03*
X11000Y-31500D02*
D03*
X8500Y13500D02*
D03*
X6000Y8500D02*
D03*
X8500Y3500D02*
D03*
X6000Y-1500D02*
D03*
X8500Y-6500D02*
D03*
X6000Y-11500D02*
D03*
X8500Y-16500D02*
D03*
X6000Y-21500D02*
D03*
X8500Y-26500D02*
D03*
X6000Y-31500D02*
D03*
X3500Y13500D02*
D03*
X1000Y8500D02*
D03*
X3500Y3500D02*
D03*
X1000Y-1500D02*
D03*
X3500Y-6500D02*
D03*
X1000Y-11500D02*
D03*
X3500Y-16500D02*
D03*
X1000Y-21500D02*
D03*
X3500Y-26500D02*
D03*
X1000Y-31500D02*
D03*
X-1500Y13500D02*
D03*
X-4000Y8500D02*
D03*
X-1500Y3500D02*
D03*
X-4000Y-1500D02*
D03*
X-1500Y-6500D02*
D03*
X-4000Y-11500D02*
D03*
X-1500Y-16500D02*
D03*
X-4000Y-21500D02*
D03*
X-1500Y-26500D02*
D03*
X-4000Y-31500D02*
D03*
X-6500Y13500D02*
D03*
X-9000Y8500D02*
D03*
X-6500Y3500D02*
D03*
X-9000Y-1500D02*
D03*
X-6500Y-6500D02*
D03*
X-9000Y-11500D02*
D03*
X-6500Y-16500D02*
D03*
X-9000Y-21500D02*
D03*
X-6500Y-26500D02*
D03*
X-9000Y-31500D02*
D03*
X-11500Y13500D02*
D03*
Y3500D02*
D03*
Y-6500D02*
D03*
Y-16500D02*
D03*
Y-26500D02*
D03*
X111000Y-46500D02*
D03*
Y-56500D02*
D03*
Y-66500D02*
D03*
Y-76500D02*
D03*
Y-86500D02*
D03*
Y-96500D02*
D03*
Y-106500D02*
D03*
X106000Y-46500D02*
D03*
X108500Y-51500D02*
D03*
X106000Y-56500D02*
D03*
X108500Y-61500D02*
D03*
X106000Y-66500D02*
D03*
X108500Y-71500D02*
D03*
X106000Y-76500D02*
D03*
X108500Y-81500D02*
D03*
X106000Y-86500D02*
D03*
X108500Y-91500D02*
D03*
X106000Y-96500D02*
D03*
X108500Y-101500D02*
D03*
X106000Y-106500D02*
D03*
X108500Y-111500D02*
D03*
X106000Y-116500D02*
D03*
X101000Y-46500D02*
D03*
X103500Y-51500D02*
D03*
X101000Y-56500D02*
D03*
X103500Y-61500D02*
D03*
X101000Y-66500D02*
D03*
X103500Y-71500D02*
D03*
X101000Y-76500D02*
D03*
X103500Y-81500D02*
D03*
X101000Y-86500D02*
D03*
X103500Y-91500D02*
D03*
X101000Y-96500D02*
D03*
X103500Y-101500D02*
D03*
X101000Y-106500D02*
D03*
X103500Y-111500D02*
D03*
X101000Y-116500D02*
D03*
X96000Y-46500D02*
D03*
X98500Y-51500D02*
D03*
X96000Y-56500D02*
D03*
X98500Y-61500D02*
D03*
X96000Y-66500D02*
D03*
X98500Y-71500D02*
D03*
X96000Y-76500D02*
D03*
X98500Y-81500D02*
D03*
X96000Y-86500D02*
D03*
X98500Y-91500D02*
D03*
X96000Y-96500D02*
D03*
X98500Y-101500D02*
D03*
X96000Y-106500D02*
D03*
X98500Y-111500D02*
D03*
X96000Y-116500D02*
D03*
X91000Y-46500D02*
D03*
X93500Y-51500D02*
D03*
X91000Y-56500D02*
D03*
X93500Y-61500D02*
D03*
X91000Y-66500D02*
D03*
X93500Y-71500D02*
D03*
X91000Y-76500D02*
D03*
X93500Y-81500D02*
D03*
X91000Y-86500D02*
D03*
X93500Y-91500D02*
D03*
X91000Y-96500D02*
D03*
X93500Y-101500D02*
D03*
X91000Y-106500D02*
D03*
X93500Y-111500D02*
D03*
X91000Y-116500D02*
D03*
X86000Y-46500D02*
D03*
X88500Y-51500D02*
D03*
X86000Y-56500D02*
D03*
X88500Y-61500D02*
D03*
X86000Y-66500D02*
D03*
X88500Y-71500D02*
D03*
X86000Y-76500D02*
D03*
X88500Y-81500D02*
D03*
X86000Y-86500D02*
D03*
X88500Y-91500D02*
D03*
X86000Y-96500D02*
D03*
X88500Y-101500D02*
D03*
X86000Y-106500D02*
D03*
X88500Y-111500D02*
D03*
X86000Y-116500D02*
D03*
X81000Y-46500D02*
D03*
X83500Y-51500D02*
D03*
X81000Y-56500D02*
D03*
X83500Y-61500D02*
D03*
X81000Y-66500D02*
D03*
X83500Y-71500D02*
D03*
X81000Y-76500D02*
D03*
X83500Y-81500D02*
D03*
X81000Y-86500D02*
D03*
X83500Y-91500D02*
D03*
X81000Y-96500D02*
D03*
X83500Y-101500D02*
D03*
X81000Y-106500D02*
D03*
X83500Y-111500D02*
D03*
X81000Y-116500D02*
D03*
X76000Y-46500D02*
D03*
X78500Y-51500D02*
D03*
X76000Y-56500D02*
D03*
X78500Y-61500D02*
D03*
X76000Y-66500D02*
D03*
X78500Y-71500D02*
D03*
X76000Y-76500D02*
D03*
X78500Y-81500D02*
D03*
X76000Y-86500D02*
D03*
X78500Y-91500D02*
D03*
X76000Y-96500D02*
D03*
X78500Y-101500D02*
D03*
X76000Y-106500D02*
D03*
X78500Y-111500D02*
D03*
X76000Y-116500D02*
D03*
X71000Y-46500D02*
D03*
X73500Y-51500D02*
D03*
X71000Y-56500D02*
D03*
X73500Y-61500D02*
D03*
X71000Y-66500D02*
D03*
X73500Y-71500D02*
D03*
X71000Y-76500D02*
D03*
X73500Y-81500D02*
D03*
X71000Y-86500D02*
D03*
X73500Y-91500D02*
D03*
X71000Y-96500D02*
D03*
X73500Y-101500D02*
D03*
X71000Y-106500D02*
D03*
X73500Y-111500D02*
D03*
X71000Y-116500D02*
D03*
X66000Y-46500D02*
D03*
X68500Y-51500D02*
D03*
X66000Y-56500D02*
D03*
X68500Y-61500D02*
D03*
X66000Y-66500D02*
D03*
X68500Y-71500D02*
D03*
X66000Y-76500D02*
D03*
X68500Y-81500D02*
D03*
X66000Y-86500D02*
D03*
X68500Y-91500D02*
D03*
X66000Y-96500D02*
D03*
X68500Y-101500D02*
D03*
X66000Y-106500D02*
D03*
X68500Y-111500D02*
D03*
X66000Y-116500D02*
D03*
X61000Y-46500D02*
D03*
X63500Y-51500D02*
D03*
X61000Y-56500D02*
D03*
X63500Y-61500D02*
D03*
X61000Y-66500D02*
D03*
X63500Y-71500D02*
D03*
X61000Y-76500D02*
D03*
X63500Y-81500D02*
D03*
X61000Y-86500D02*
D03*
X63500Y-91500D02*
D03*
X61000Y-96500D02*
D03*
X63500Y-101500D02*
D03*
X61000Y-106500D02*
D03*
X63500Y-111500D02*
D03*
X61000Y-116500D02*
D03*
X56000Y-46500D02*
D03*
X58500Y-51500D02*
D03*
X56000Y-56500D02*
D03*
X58500Y-61500D02*
D03*
Y-71500D02*
D03*
X56000Y-76500D02*
D03*
X58500Y-81500D02*
D03*
X56000Y-86500D02*
D03*
X58500Y-91500D02*
D03*
X56000Y-96500D02*
D03*
X58500Y-101500D02*
D03*
Y-111500D02*
D03*
X56000Y-116500D02*
D03*
X51000Y-46500D02*
D03*
X53500Y-51500D02*
D03*
Y-71500D02*
D03*
X51000Y-76500D02*
D03*
X53500Y-81500D02*
D03*
X51000Y-86500D02*
D03*
X53500Y-91500D02*
D03*
X46000Y-46500D02*
D03*
Y-76500D02*
D03*
X48500Y-81500D02*
D03*
X46000Y-86500D02*
D03*
X48500Y-91500D02*
D03*
X41000Y-46500D02*
D03*
Y-76500D02*
D03*
X43500Y-81500D02*
D03*
X41000Y-86500D02*
D03*
X43500Y-91500D02*
D03*
X36000Y-46500D02*
D03*
X38500Y-51500D02*
D03*
X36000Y-76500D02*
D03*
X38500Y-81500D02*
D03*
X36000Y-86500D02*
D03*
X38500Y-91500D02*
D03*
X36000Y-96500D02*
D03*
Y-106500D02*
D03*
X23500Y-51500D02*
D03*
X21000Y-56500D02*
D03*
X23500Y-61500D02*
D03*
X21000Y-66500D02*
D03*
X23500Y-71500D02*
D03*
X21000Y-76500D02*
D03*
X23500Y-81500D02*
D03*
X21000Y-86500D02*
D03*
X23500Y-91500D02*
D03*
Y-101500D02*
D03*
Y-111500D02*
D03*
X16000Y-56500D02*
D03*
X18500Y-61500D02*
D03*
X16000Y-66500D02*
D03*
X18500Y-71500D02*
D03*
X16000Y-76500D02*
D03*
X18500Y-81500D02*
D03*
X16000Y-86500D02*
D03*
X18500Y-91500D02*
D03*
X11000Y-56500D02*
D03*
X13500Y-61500D02*
D03*
X11000Y-66500D02*
D03*
X13500Y-71500D02*
D03*
X11000Y-76500D02*
D03*
X13500Y-81500D02*
D03*
X11000Y-86500D02*
D03*
X13500Y-91500D02*
D03*
X6000Y-46500D02*
D03*
X8500Y-51500D02*
D03*
X6000Y-56500D02*
D03*
X8500Y-61500D02*
D03*
X6000Y-66500D02*
D03*
X8500Y-71500D02*
D03*
X6000Y-76500D02*
D03*
X8500Y-81500D02*
D03*
X6000Y-86500D02*
D03*
X8500Y-91500D02*
D03*
X6000Y-116500D02*
D03*
X1000Y-46500D02*
D03*
X3500Y-51500D02*
D03*
X1000Y-56500D02*
D03*
X3500Y-61500D02*
D03*
X1000Y-66500D02*
D03*
X3500Y-71500D02*
D03*
X1000Y-76500D02*
D03*
X3500Y-81500D02*
D03*
X1000Y-86500D02*
D03*
X3500Y-91500D02*
D03*
X1000Y-96500D02*
D03*
X3500Y-101500D02*
D03*
X1000Y-106500D02*
D03*
X3500Y-111500D02*
D03*
X1000Y-116500D02*
D03*
X-4000Y-46500D02*
D03*
X-1500Y-51500D02*
D03*
X-4000Y-56500D02*
D03*
X-1500Y-61500D02*
D03*
X-4000Y-66500D02*
D03*
X-1500Y-71500D02*
D03*
X-4000Y-76500D02*
D03*
X-1500Y-81500D02*
D03*
X-4000Y-86500D02*
D03*
X-1500Y-91500D02*
D03*
X-4000Y-96500D02*
D03*
X-1500Y-101500D02*
D03*
X-4000Y-106500D02*
D03*
X-1500Y-111500D02*
D03*
X-4000Y-116500D02*
D03*
X-9000Y-46500D02*
D03*
X-6500Y-51500D02*
D03*
X-9000Y-56500D02*
D03*
X-6500Y-61500D02*
D03*
X-9000Y-66500D02*
D03*
X-6500Y-71500D02*
D03*
X-9000Y-76500D02*
D03*
X-6500Y-81500D02*
D03*
X-9000Y-86500D02*
D03*
X-6500Y-91500D02*
D03*
X-9000Y-96500D02*
D03*
X-6500Y-101500D02*
D03*
X-9000Y-106500D02*
D03*
X-6500Y-111500D02*
D03*
X-9000Y-116500D02*
D03*
X-11500Y-51500D02*
D03*
Y-61500D02*
D03*
Y-71500D02*
D03*
Y-81500D02*
D03*
Y-91500D02*
D03*
Y-101500D02*
D03*
Y-111500D02*
D03*
X179750Y-189000D02*
D03*
X173500Y-201500D02*
D03*
X179750Y-214000D02*
D03*
X173500Y-226500D02*
D03*
X179750Y-239000D02*
D03*
X173500Y-251500D02*
D03*
X167250Y-189000D02*
D03*
X161000Y-201500D02*
D03*
X154750Y-189000D02*
D03*
X148500Y-201500D02*
D03*
X154750Y-214000D02*
D03*
X148500Y-226500D02*
D03*
Y-251500D02*
D03*
X142250Y-214000D02*
D03*
X136000Y-226500D02*
D03*
X142250Y-239000D02*
D03*
X136000Y-251500D02*
D03*
X129750Y-214000D02*
D03*
X123500Y-226500D02*
D03*
X129750Y-239000D02*
D03*
X123500Y-251500D02*
D03*
X117250Y-239000D02*
D03*
X104750D02*
D03*
X86000Y-251500D02*
D03*
X73500D02*
D03*
X67250Y-189000D02*
D03*
X61000Y-251500D02*
D03*
X54750Y-189000D02*
D03*
X48500Y-251500D02*
D03*
X42250Y-189000D02*
D03*
Y-239000D02*
D03*
X36000Y-251500D02*
D03*
X29750Y-189000D02*
D03*
Y-239000D02*
D03*
X23500Y-251500D02*
D03*
X17250Y-189000D02*
D03*
X11000Y-226500D02*
D03*
X17250Y-239000D02*
D03*
X11000Y-251500D02*
D03*
X4750Y-189000D02*
D03*
Y-239000D02*
D03*
X-1500Y-251500D02*
D03*
X-7750Y-189000D02*
D03*
Y-239000D02*
D03*
X-14000Y-251500D02*
D03*
X-20250Y-189000D02*
D03*
Y-239000D02*
D03*
X-26500Y-251500D02*
D03*
X-39000Y-176500D02*
D03*
X-32750Y-239000D02*
D03*
X-39000Y-251500D02*
D03*
X-51500Y-26500D02*
D03*
Y-51500D02*
D03*
Y-76500D02*
D03*
Y-101500D02*
D03*
Y-126500D02*
D03*
Y-151500D02*
D03*
Y-201500D02*
D03*
X-45250Y-239000D02*
D03*
X-51500Y-251500D02*
D03*
X-57750Y-14000D02*
D03*
X-64000Y-26500D02*
D03*
X-57750Y-39000D02*
D03*
X-64000Y-51500D02*
D03*
X-57750Y-64000D02*
D03*
X-64000Y-76500D02*
D03*
X-57750Y-89000D02*
D03*
X-64000Y-101500D02*
D03*
X-57750Y-114000D02*
D03*
X-64000Y-126500D02*
D03*
X-57750Y-139000D02*
D03*
X-64000Y-151500D02*
D03*
X-57750Y-189000D02*
D03*
X-64000Y-201500D02*
D03*
Y-226500D02*
D03*
X-57750Y-239000D02*
D03*
X-64000Y-251500D02*
D03*
X-70250Y-14000D02*
D03*
X-76500Y-26500D02*
D03*
X-70250Y-39000D02*
D03*
X-76500Y-51500D02*
D03*
X-70250Y-64000D02*
D03*
X-76500Y-76500D02*
D03*
X-70250Y-89000D02*
D03*
X-76500Y-101500D02*
D03*
X-70250Y-114000D02*
D03*
X-76500Y-126500D02*
D03*
X-70250Y-139000D02*
D03*
X-76500Y-176500D02*
D03*
X-70250Y-189000D02*
D03*
X-76500Y-201500D02*
D03*
Y-226500D02*
D03*
X-70250Y-239000D02*
D03*
X-76500Y-251500D02*
D03*
X-89000Y248500D02*
D03*
Y223500D02*
D03*
Y198500D02*
D03*
Y148500D02*
D03*
Y123500D02*
D03*
Y73500D02*
D03*
Y48500D02*
D03*
Y23500D02*
D03*
Y-1500D02*
D03*
X-82750Y-14000D02*
D03*
X-89000Y-26500D02*
D03*
X-82750Y-39000D02*
D03*
X-89000Y-51500D02*
D03*
X-82750Y-64000D02*
D03*
X-89000Y-76500D02*
D03*
X-82750Y-89000D02*
D03*
X-89000Y-101500D02*
D03*
X-82750Y-114000D02*
D03*
X-89000Y-126500D02*
D03*
X-82750Y-164000D02*
D03*
X-89000Y-176500D02*
D03*
X-82750Y-189000D02*
D03*
X-89000Y-201500D02*
D03*
X-82750Y-214000D02*
D03*
Y-239000D02*
D03*
X-89000Y-251500D02*
D03*
X-101500Y248500D02*
D03*
X-95250Y236000D02*
D03*
X-101500Y223500D02*
D03*
Y198500D02*
D03*
X-95250Y186000D02*
D03*
Y161000D02*
D03*
X-101500Y148500D02*
D03*
X-95250Y136000D02*
D03*
X-101500Y123500D02*
D03*
X-95250Y111000D02*
D03*
Y86000D02*
D03*
X-101500Y73500D02*
D03*
Y48500D02*
D03*
X-95250Y36000D02*
D03*
X-101500Y23500D02*
D03*
X-95250Y11000D02*
D03*
X-101500Y-1500D02*
D03*
X-95250Y-14000D02*
D03*
X-101500Y-26500D02*
D03*
X-95250Y-39000D02*
D03*
X-101500Y-51500D02*
D03*
X-95250Y-64000D02*
D03*
X-101500Y-76500D02*
D03*
X-95250Y-89000D02*
D03*
X-101500Y-101500D02*
D03*
X-95250Y-114000D02*
D03*
X-101500Y-151500D02*
D03*
X-95250Y-164000D02*
D03*
X-101500Y-176500D02*
D03*
X-95250Y-189000D02*
D03*
X-101500Y-201500D02*
D03*
X-95250Y-214000D02*
D03*
Y-239000D02*
D03*
X-101500Y-251500D02*
D03*
X-114000Y248500D02*
D03*
X-107750Y236000D02*
D03*
X-114000Y223500D02*
D03*
Y-26500D02*
D03*
X-107750Y-39000D02*
D03*
X-114000Y-51500D02*
D03*
X-107750Y-64000D02*
D03*
X-114000Y-76500D02*
D03*
X-107750Y-89000D02*
D03*
X-114000Y-101500D02*
D03*
X-107750Y-139000D02*
D03*
X-114000Y-151500D02*
D03*
X-107750Y-164000D02*
D03*
X-114000Y-176500D02*
D03*
X-107750Y-189000D02*
D03*
X-114000Y-201500D02*
D03*
X-107750Y-214000D02*
D03*
Y-239000D02*
D03*
X-114000Y-251500D02*
D03*
X-126500Y248500D02*
D03*
X-120250Y236000D02*
D03*
X-126500Y223500D02*
D03*
X-120250Y211000D02*
D03*
Y186000D02*
D03*
Y161000D02*
D03*
X-126500Y148500D02*
D03*
X-120250Y136000D02*
D03*
X-126500Y123500D02*
D03*
X-120250Y111000D02*
D03*
Y86000D02*
D03*
X-126500Y73500D02*
D03*
X-120250Y61000D02*
D03*
X-126500Y48500D02*
D03*
X-120250Y36000D02*
D03*
X-126500Y23500D02*
D03*
X-120250Y11000D02*
D03*
X-126500Y-1500D02*
D03*
X-120250Y-39000D02*
D03*
X-126500Y-51500D02*
D03*
X-120250Y-64000D02*
D03*
X-126500Y-76500D02*
D03*
X-120250Y-89000D02*
D03*
X-126500Y-126500D02*
D03*
X-120250Y-139000D02*
D03*
Y-164000D02*
D03*
Y-189000D02*
D03*
Y-214000D02*
D03*
X-126500Y-251500D02*
D03*
X-139000Y248500D02*
D03*
X-132750Y236000D02*
D03*
X-139000Y223500D02*
D03*
X-132750Y211000D02*
D03*
Y186000D02*
D03*
X-139000Y148500D02*
D03*
Y73500D02*
D03*
X-132750Y61000D02*
D03*
X-139000Y48500D02*
D03*
X-132750Y36000D02*
D03*
X-139000Y23500D02*
D03*
X-132750Y11000D02*
D03*
Y-14000D02*
D03*
X-139000Y-26500D02*
D03*
X-132750Y-114000D02*
D03*
Y-139000D02*
D03*
X-139000Y-151500D02*
D03*
X-132750Y-164000D02*
D03*
X-139000Y-201500D02*
D03*
X-132750Y-239000D02*
D03*
X-139000Y-251500D02*
D03*
X-145250Y236000D02*
D03*
X-151500Y223500D02*
D03*
X-145250Y211000D02*
D03*
X-151500Y198500D02*
D03*
X-145250Y186000D02*
D03*
X-151500Y173500D02*
D03*
Y148500D02*
D03*
Y123500D02*
D03*
Y98500D02*
D03*
Y73500D02*
D03*
Y23500D02*
D03*
Y-1500D02*
D03*
Y-26500D02*
D03*
Y-76500D02*
D03*
X-145250Y-89000D02*
D03*
X-151500Y-101500D02*
D03*
Y-126500D02*
D03*
Y-151500D02*
D03*
X-145250Y-164000D02*
D03*
Y-189000D02*
D03*
Y-214000D02*
D03*
X-151500Y-226500D02*
D03*
X-145250Y-239000D02*
D03*
X-151500Y-251500D02*
D03*
X-164000Y223500D02*
D03*
X-157750Y211000D02*
D03*
X-164000Y198500D02*
D03*
X-157750Y186000D02*
D03*
X-164000Y173500D02*
D03*
X-157750Y161000D02*
D03*
X-164000Y148500D02*
D03*
X-157750Y136000D02*
D03*
X-164000Y123500D02*
D03*
X-157750Y111000D02*
D03*
X-164000Y98500D02*
D03*
X-157750Y86000D02*
D03*
X-164000Y73500D02*
D03*
X-157750Y36000D02*
D03*
X-164000Y23500D02*
D03*
X-157750Y11000D02*
D03*
X-164000Y-1500D02*
D03*
X-157750Y-14000D02*
D03*
X-164000Y-26500D02*
D03*
X-157750Y-39000D02*
D03*
X-164000Y-51500D02*
D03*
X-157750Y-89000D02*
D03*
Y-164000D02*
D03*
X-164000Y-201500D02*
D03*
X-157750Y-214000D02*
D03*
X-176500Y248500D02*
D03*
Y223500D02*
D03*
X-170250Y211000D02*
D03*
X-176500Y198500D02*
D03*
X-170250Y186000D02*
D03*
X-176500Y173500D02*
D03*
X-170250Y161000D02*
D03*
X-176500Y148500D02*
D03*
X-170250Y136000D02*
D03*
X-176500Y123500D02*
D03*
X-170250Y111000D02*
D03*
X-176500Y98500D02*
D03*
X-170250Y86000D02*
D03*
X-176500Y73500D02*
D03*
Y48500D02*
D03*
X-170250Y36000D02*
D03*
X-176500Y23500D02*
D03*
X-170250Y11000D02*
D03*
X-176500Y-1500D02*
D03*
X-170250Y-14000D02*
D03*
X-176500Y-26500D02*
D03*
X-170250Y-39000D02*
D03*
X-176500Y-51500D02*
D03*
Y-76500D02*
D03*
Y-101500D02*
D03*
Y-126500D02*
D03*
Y-151500D02*
D03*
Y-176500D02*
D03*
X-170250Y-189000D02*
D03*
X-176500Y-201500D02*
D03*
X-170250Y-214000D02*
D03*
X-176500Y-226500D02*
D03*
Y-251500D02*
D03*
X67088Y-135125D02*
D03*
X27461Y-144986D02*
D03*
X2532Y-122676D02*
D03*
X47648Y-139986D02*
D03*
X-142925Y160831D02*
D03*
X-142172Y125346D02*
D03*
M02*
