G04 Layer_Physical_Order=1*
G04 Layer_Color=255*
%FSLAX25Y25*%
%MOIN*%
G70*
G01*
G75*
%ADD10R,0.02756X0.03347*%
%ADD11C,0.01000*%
%ADD12C,0.06000*%
%ADD13C,0.00800*%
%ADD14C,0.00700*%
%ADD15C,0.25000*%
%ADD16C,0.05118*%
%ADD17R,0.05118X0.05118*%
%ADD18C,0.07087*%
%ADD19R,0.07087X0.07087*%
%ADD20C,0.11811*%
%ADD21C,0.07480*%
%ADD22C,0.05905*%
%ADD23R,0.05905X0.05905*%
%ADD24C,0.03600*%
%ADD25C,0.02000*%
%ADD26C,0.04000*%
%ADD27C,0.04000*%
G36*
X11381Y-41066D02*
X12045Y-41931D01*
X12911Y-42595D01*
X13918Y-43013D01*
X13980Y-43021D01*
Y-48267D01*
X14058Y-48657D01*
X14279Y-48988D01*
X17130Y-51838D01*
X16938Y-52300D01*
X13153D01*
X10732Y-49880D01*
Y-40807D01*
X11232Y-40708D01*
X11381Y-41066D01*
D02*
G37*
G36*
X18923Y-41491D02*
Y-46856D01*
X19001Y-47246D01*
X19222Y-47577D01*
X22083Y-50438D01*
X21892Y-50900D01*
X19075D01*
X16020Y-47844D01*
Y-43021D01*
X16082Y-43013D01*
X17089Y-42595D01*
X17955Y-41931D01*
X18423Y-41321D01*
X18923Y-41491D01*
D02*
G37*
G36*
X2045Y-41931D02*
X2911Y-42595D01*
X3918Y-43013D01*
X3980Y-43021D01*
Y-52255D01*
X4058Y-52645D01*
X4279Y-52976D01*
X5941Y-54638D01*
X5750Y-55100D01*
X3540D01*
X929Y-52489D01*
Y-41268D01*
X1202Y-41146D01*
X1429Y-41129D01*
X2045Y-41931D01*
D02*
G37*
G36*
X8693Y-41791D02*
Y-50302D01*
X8771Y-50692D01*
X8992Y-51023D01*
X11207Y-53238D01*
X11016Y-53700D01*
X7887D01*
X6020Y-51833D01*
Y-43021D01*
X6082Y-43013D01*
X7090Y-42595D01*
X7955Y-41931D01*
X8193Y-41621D01*
X8693Y-41791D01*
D02*
G37*
G36*
X179165Y77457D02*
X180412Y76941D01*
X181535Y76190D01*
X182490Y75236D01*
X183240Y74113D01*
X183756Y72865D01*
X184020Y71541D01*
Y70866D01*
Y-70866D01*
Y-71541D01*
X183756Y-72865D01*
X183240Y-74113D01*
X182490Y-75236D01*
X181535Y-76190D01*
X180412Y-76941D01*
X179165Y-77457D01*
X177840Y-77721D01*
X113932D01*
X113863Y-77227D01*
X114739Y-76864D01*
X115491Y-76287D01*
X131775Y-60002D01*
X132352Y-59250D01*
X132715Y-58375D01*
X132839Y-57435D01*
X132839Y-57435D01*
Y-23498D01*
X144832Y-11505D01*
X161417D01*
X162357Y-11381D01*
X163233Y-11019D01*
X163985Y-10442D01*
X164562Y-9690D01*
X164925Y-8814D01*
X165048Y-7874D01*
X164925Y-6934D01*
X164562Y-6058D01*
X163985Y-5306D01*
X163233Y-4729D01*
X162357Y-4367D01*
X161417Y-4243D01*
X143328D01*
X142388Y-4367D01*
X141513Y-4729D01*
X140761Y-5306D01*
X126739Y-19328D01*
X126239Y-19189D01*
Y4090D01*
X136392Y14243D01*
X161417D01*
X162357Y14367D01*
X163233Y14729D01*
X163985Y15306D01*
X164562Y16059D01*
X164925Y16934D01*
X165048Y17874D01*
X164925Y18814D01*
X164562Y19690D01*
X163985Y20442D01*
X163233Y21019D01*
X162357Y21381D01*
X161417Y21505D01*
X134888D01*
X133948Y21381D01*
X133072Y21019D01*
X132320Y20442D01*
X120040Y8162D01*
X119463Y7410D01*
X119100Y6534D01*
X118977Y5594D01*
Y-53197D01*
X108685Y-63489D01*
X87616D01*
X87424Y-63027D01*
X108994Y-41457D01*
X109215Y-41126D01*
X109293Y-40736D01*
Y22862D01*
X114719Y28288D01*
X114877Y28257D01*
X115501Y28381D01*
X116030Y28735D01*
X116384Y29264D01*
X116508Y29888D01*
X116384Y30512D01*
X116030Y31042D01*
X115501Y31395D01*
X115128Y31469D01*
X114670Y31727D01*
X114546Y32351D01*
X114192Y32880D01*
X113663Y33234D01*
X113290Y33308D01*
X112831Y33565D01*
X112707Y34189D01*
X112354Y34719D01*
X111824Y35072D01*
X111451Y35146D01*
X110993Y35404D01*
X110869Y36028D01*
X110515Y36557D01*
X109986Y36911D01*
X109362Y37035D01*
X109154Y37242D01*
X109030Y37866D01*
X108677Y38396D01*
X108147Y38749D01*
X107774Y38823D01*
X107316Y39081D01*
X107192Y39705D01*
X106838Y40234D01*
X106309Y40588D01*
X105936Y40662D01*
X105477Y40919D01*
X105353Y41543D01*
X105000Y42072D01*
X104470Y42426D01*
X104097Y42500D01*
X103639Y42757D01*
X103515Y43382D01*
X103161Y43911D01*
X102632Y44265D01*
X102259Y44339D01*
X101800Y44596D01*
X101676Y45220D01*
X101323Y45750D01*
X100793Y46103D01*
X100421Y46177D01*
X99962Y46434D01*
X99838Y47059D01*
X99484Y47588D01*
X98955Y47942D01*
X98582Y48016D01*
X98124Y48273D01*
X97999Y48897D01*
X97646Y49426D01*
X97116Y49780D01*
X96744Y49854D01*
X96285Y50111D01*
X96161Y50736D01*
X95807Y51265D01*
X95278Y51619D01*
X94905Y51693D01*
X94446Y51950D01*
X94322Y52574D01*
X93969Y53103D01*
X93439Y53457D01*
X93067Y53531D01*
X92608Y53788D01*
X92484Y54413D01*
X92130Y54942D01*
X91601Y55295D01*
X91228Y55370D01*
X90769Y55627D01*
X90645Y56251D01*
X90292Y56780D01*
X89763Y57134D01*
X89138Y57258D01*
X88514Y57134D01*
X87985Y56780D01*
X87631Y56251D01*
X87507Y55627D01*
X87631Y55002D01*
X87654Y54968D01*
Y-32047D01*
X77201Y-42500D01*
X58653D01*
X58407Y-42000D01*
X58969Y-41268D01*
X59426Y-40162D01*
X59517Y-39476D01*
X55000D01*
Y-38976D01*
X54500D01*
Y-34460D01*
X53814Y-34550D01*
X52709Y-35008D01*
X51760Y-35736D01*
X51462Y-36124D01*
X50847Y-36104D01*
X50846Y-36103D01*
X47499Y-32756D01*
X47531Y-32257D01*
X47955Y-31931D01*
X48619Y-31066D01*
X49037Y-30058D01*
X49179Y-28976D01*
X49037Y-27895D01*
X48619Y-26887D01*
X47955Y-26021D01*
X47089Y-25357D01*
X46082Y-24940D01*
X45022Y-24800D01*
X44964Y-24728D01*
X44753Y-24326D01*
X44890Y-24141D01*
X53494D01*
X53593Y-24642D01*
X52709Y-25008D01*
X51760Y-25736D01*
X51031Y-26685D01*
X50574Y-27790D01*
X50483Y-28476D01*
X59517D01*
X59426Y-27790D01*
X58969Y-26685D01*
X58240Y-25736D01*
X57291Y-25008D01*
X56407Y-24642D01*
X56506Y-24141D01*
X64457D01*
X64457Y-24141D01*
X65003Y-24033D01*
X65466Y-23723D01*
X68423Y-20767D01*
X68423Y-20767D01*
X68733Y-20304D01*
X68841Y-19758D01*
Y21701D01*
X68841Y21701D01*
X68733Y22247D01*
X68423Y22710D01*
X68423Y22710D01*
X67144Y23989D01*
X67199Y24409D01*
X67096Y25193D01*
X66794Y25922D01*
X66313Y26549D01*
X65686Y27030D01*
X64956Y27332D01*
X64173Y27435D01*
X64169Y27435D01*
X64165Y27435D01*
X63778D01*
X51466Y40251D01*
Y49268D01*
X51966Y49515D01*
X52709Y48945D01*
X53814Y48487D01*
X54500Y48397D01*
Y52913D01*
Y57430D01*
X53814Y57340D01*
X52709Y56882D01*
X51966Y56312D01*
X51466Y56559D01*
Y57875D01*
X51444Y57984D01*
X51762Y58370D01*
X54500D01*
Y62413D01*
X50457D01*
Y60129D01*
X49995Y59937D01*
X49068Y60864D01*
X49426Y61727D01*
X49582Y62913D01*
X49426Y64099D01*
X48969Y65205D01*
X48240Y66154D01*
X47291Y66882D01*
X46186Y67340D01*
X45000Y67496D01*
X43814Y67340D01*
X42709Y66882D01*
X41760Y66154D01*
X41031Y65205D01*
X40574Y64099D01*
X40418Y62913D01*
X40574Y61727D01*
X41031Y60622D01*
X41760Y59673D01*
X42709Y58945D01*
X43814Y58487D01*
X45000Y58331D01*
X46186Y58487D01*
X47050Y58845D01*
X48611Y57284D01*
Y55791D01*
X48138Y55630D01*
X47955Y55868D01*
X47089Y56533D01*
X46082Y56950D01*
X45000Y57092D01*
X43918Y56950D01*
X42911Y56533D01*
X42045Y55868D01*
X41381Y55003D01*
X40963Y53995D01*
X40821Y52913D01*
X40963Y51832D01*
X41381Y50824D01*
X42045Y49958D01*
X42911Y49294D01*
X43918Y48877D01*
X45000Y48734D01*
X46082Y48877D01*
X47089Y49294D01*
X47955Y49958D01*
X48138Y50196D01*
X48611Y50036D01*
Y39677D01*
X48663Y39417D01*
X48709Y39157D01*
X48717Y39145D01*
X48720Y39130D01*
X48867Y38910D01*
X49009Y38688D01*
X59377Y27895D01*
X59181Y27435D01*
X-14921D01*
X-15704Y27332D01*
X-16434Y27030D01*
X-17061Y26549D01*
X-17542Y25922D01*
X-17844Y25193D01*
X-17947Y24409D01*
X-17844Y23626D01*
X-17542Y22896D01*
X-17061Y22270D01*
X-16434Y21789D01*
X-16314Y21739D01*
X-16228Y21162D01*
X-16589Y20800D01*
X-16889Y20077D01*
Y19686D01*
Y-3899D01*
X-17389Y-4106D01*
X-21303Y-192D01*
X-21666Y51D01*
X-22096Y137D01*
X-22096Y137D01*
X-27705D01*
X-32023Y4455D01*
Y13127D01*
X-32108Y13556D01*
X-32351Y13920D01*
X-32351Y13920D01*
X-47499Y29068D01*
Y45857D01*
X-46207Y47148D01*
X-43077D01*
X-43077Y47148D01*
X-42647Y47234D01*
X-42284Y47477D01*
X-39485Y50275D01*
X-39242Y50639D01*
X-39191Y50898D01*
X-38671Y50949D01*
X-38619Y50824D01*
X-37955Y49958D01*
X-37089Y49294D01*
X-36082Y48877D01*
X-35000Y48734D01*
X-33918Y48877D01*
X-32910Y49294D01*
X-32045Y49958D01*
X-31381Y50824D01*
X-30963Y51832D01*
X-30821Y52913D01*
X-30963Y53995D01*
X-31381Y55003D01*
X-32045Y55868D01*
X-32910Y56533D01*
X-33918Y56950D01*
X-35000Y57092D01*
X-36082Y56950D01*
X-37089Y56533D01*
X-37955Y55868D01*
X-38619Y55003D01*
X-38657Y54912D01*
X-39157Y55011D01*
Y57170D01*
X-37050Y59278D01*
X-36082Y58877D01*
X-35000Y58734D01*
X-33918Y58877D01*
X-32910Y59294D01*
X-32045Y59958D01*
X-31381Y60824D01*
X-30963Y61832D01*
X-30821Y62913D01*
X-30963Y63995D01*
X-31381Y65003D01*
X-32045Y65868D01*
X-32910Y66533D01*
X-33918Y66950D01*
X-35000Y67092D01*
X-36082Y66950D01*
X-37089Y66533D01*
X-37955Y65868D01*
X-38619Y65003D01*
X-39037Y63995D01*
X-39179Y62913D01*
X-39037Y61832D01*
X-38636Y60864D01*
X-41072Y58428D01*
X-41315Y58064D01*
X-41400Y57635D01*
X-41400Y57635D01*
Y55806D01*
X-41873Y55645D01*
X-42045Y55868D01*
X-42911Y56533D01*
X-43918Y56950D01*
X-45000Y57092D01*
X-46082Y56950D01*
X-47089Y56533D01*
X-47955Y55868D01*
X-48599Y55030D01*
X-48651Y55027D01*
X-49099Y55250D01*
Y58041D01*
X-47517Y59623D01*
X-47089Y59294D01*
X-46082Y58877D01*
X-45000Y58734D01*
X-43918Y58877D01*
X-42911Y59294D01*
X-42045Y59958D01*
X-41381Y60824D01*
X-40963Y61832D01*
X-40821Y62913D01*
X-40963Y63995D01*
X-41381Y65003D01*
X-42045Y65868D01*
X-42911Y66533D01*
X-43918Y66950D01*
X-45000Y67092D01*
X-46082Y66950D01*
X-47089Y66533D01*
X-47955Y65868D01*
X-48619Y65003D01*
X-49037Y63995D01*
X-49179Y62913D01*
X-49037Y61832D01*
X-48874Y61438D01*
X-51013Y59299D01*
X-51256Y58935D01*
X-51342Y58506D01*
X-51342Y58506D01*
Y55773D01*
X-51842Y55603D01*
X-52045Y55868D01*
X-52911Y56533D01*
X-53918Y56950D01*
X-55000Y57092D01*
X-56082Y56950D01*
X-57090Y56533D01*
X-57955Y55868D01*
X-58619Y55003D01*
X-59037Y53995D01*
X-59179Y52913D01*
X-59037Y51832D01*
X-58619Y50824D01*
X-57955Y49958D01*
X-57090Y49294D01*
X-56082Y48877D01*
X-55000Y48734D01*
X-53918Y48877D01*
X-52911Y49294D01*
X-52045Y49958D01*
X-51842Y50223D01*
X-51342Y50054D01*
Y27427D01*
X-51342Y27427D01*
X-51256Y26998D01*
X-51013Y26634D01*
X-35866Y11486D01*
Y3327D01*
X-35866Y3327D01*
X-35781Y2898D01*
X-35537Y2534D01*
X-29625Y-3378D01*
X-29625Y-3378D01*
X-29261Y-3621D01*
X-28832Y-3706D01*
X-28832Y-3706D01*
X-26439D01*
X-26340Y-4206D01*
X-26992Y-4477D01*
X-27899Y-5172D01*
X-28594Y-6079D01*
X-29032Y-7135D01*
X-29066Y-7395D01*
X-34396Y-12726D01*
X-39454D01*
X-39553Y-12226D01*
X-39150Y-12059D01*
X-38243Y-11363D01*
X-37547Y-10457D01*
X-37110Y-9401D01*
X-36961Y-8268D01*
X-37110Y-7135D01*
X-37547Y-6079D01*
X-38243Y-5172D01*
X-39150Y-4477D01*
X-40206Y-4039D01*
X-41339Y-3890D01*
X-42472Y-4039D01*
X-43527Y-4477D01*
X-43536Y-4484D01*
X-45836Y-2184D01*
Y6478D01*
X-45336Y6577D01*
X-45130Y6079D01*
X-44434Y5172D01*
X-43527Y4477D01*
X-42472Y4039D01*
X-41339Y3890D01*
X-40206Y4039D01*
X-39150Y4477D01*
X-38243Y5172D01*
X-37547Y6079D01*
X-37110Y7135D01*
X-36961Y8268D01*
X-37110Y9401D01*
X-37547Y10457D01*
X-38243Y11363D01*
X-39150Y12059D01*
X-40206Y12496D01*
X-41339Y12645D01*
X-42472Y12496D01*
X-43527Y12059D01*
X-43569Y12027D01*
X-49376Y17834D01*
X-49740Y18077D01*
X-50169Y18162D01*
X-50169Y18162D01*
X-77080D01*
X-77080Y18162D01*
X-77509Y18077D01*
X-77873Y17834D01*
X-77873Y17834D01*
X-85960Y9746D01*
X-85998Y9754D01*
X-86622Y9630D01*
X-87152Y9276D01*
X-87505Y8747D01*
X-87579Y8376D01*
X-88117Y8206D01*
X-92319Y12408D01*
Y15073D01*
X-96275D01*
Y10527D01*
X-93610D01*
X-87886Y4803D01*
Y3923D01*
X-87886Y3923D01*
X-87886Y3923D01*
Y-3482D01*
X-93610Y-9206D01*
X-96275D01*
Y-13753D01*
X-92319D01*
Y-11088D01*
X-85971Y-4740D01*
X-85971Y-4740D01*
X-85728Y-4376D01*
X-85643Y-3947D01*
Y3459D01*
X-74782Y14319D01*
X-51297D01*
X-48079Y11102D01*
Y-2648D01*
X-48079Y-2648D01*
X-47994Y-3078D01*
X-47751Y-3442D01*
X-45123Y-6070D01*
X-45130Y-6079D01*
X-45567Y-7135D01*
X-45716Y-8268D01*
X-45567Y-9401D01*
X-45130Y-10457D01*
X-44434Y-11363D01*
X-43527Y-12059D01*
X-43124Y-12226D01*
X-43223Y-12726D01*
X-76412D01*
X-77352Y-12850D01*
X-78227Y-13213D01*
X-78979Y-13790D01*
X-79556Y-14541D01*
X-79919Y-15417D01*
X-80043Y-16357D01*
X-79919Y-17297D01*
X-79556Y-18173D01*
X-78979Y-18925D01*
X-78227Y-19502D01*
X-77352Y-19864D01*
X-76412Y-19988D01*
X-46956D01*
X-46765Y-20450D01*
X-50436Y-24121D01*
X-50679Y-24485D01*
X-50765Y-24915D01*
X-50765Y-24915D01*
Y-27067D01*
X-51265Y-27167D01*
X-51381Y-26887D01*
X-52045Y-26021D01*
X-52911Y-25357D01*
X-53918Y-24940D01*
X-55000Y-24797D01*
X-56082Y-24940D01*
X-57061Y-25345D01*
X-61357D01*
X-62297Y-25469D01*
X-63173Y-25832D01*
X-63925Y-26409D01*
X-66219Y-28704D01*
X-66796Y-29456D01*
X-67159Y-30331D01*
X-67283Y-31271D01*
Y-55820D01*
X-67159Y-56760D01*
X-66796Y-57635D01*
X-66219Y-58387D01*
X-48320Y-76287D01*
X-48320Y-76287D01*
X-47567Y-76864D01*
X-46692Y-77227D01*
X-46761Y-77721D01*
X-177840D01*
X-179165Y-77457D01*
X-180412Y-76941D01*
X-181535Y-76190D01*
X-182490Y-75236D01*
X-183240Y-74113D01*
X-183756Y-72865D01*
X-184020Y-71541D01*
Y-70866D01*
Y70866D01*
Y71541D01*
X-183756Y72865D01*
X-183240Y74113D01*
X-182490Y75236D01*
X-181535Y76190D01*
X-180412Y76941D01*
X-179165Y77457D01*
X-177840Y77721D01*
X177840D01*
X179165Y77457D01*
D02*
G37*
G36*
X-16889Y-11868D02*
Y-20077D01*
X-16589Y-20801D01*
X-16036Y-21354D01*
X-15313Y-21654D01*
X42463D01*
X42671Y-22153D01*
X38950Y-25874D01*
X38728Y-26207D01*
X38175Y-26308D01*
X37955Y-26021D01*
X37089Y-25357D01*
X36082Y-24940D01*
X35000Y-24797D01*
X33918Y-24940D01*
X32910Y-25357D01*
X32045Y-26021D01*
X31381Y-26887D01*
X30963Y-27895D01*
X30821Y-28976D01*
X30963Y-30058D01*
X31381Y-31066D01*
X32045Y-31931D01*
X32910Y-32596D01*
X33918Y-33013D01*
X35000Y-33155D01*
X36082Y-33013D01*
X37089Y-32596D01*
X37139Y-32557D01*
X38953Y-34371D01*
Y-36500D01*
X38453Y-36670D01*
X37955Y-36021D01*
X37089Y-35357D01*
X36082Y-34940D01*
X35000Y-34797D01*
X33918Y-34940D01*
X32910Y-35357D01*
X32045Y-36021D01*
X31381Y-36887D01*
X31370Y-36914D01*
X30869Y-36815D01*
Y-33826D01*
X30792Y-33436D01*
X30571Y-33105D01*
X28581Y-31115D01*
X28619Y-31066D01*
X29037Y-30058D01*
X29179Y-28976D01*
X29037Y-27895D01*
X28619Y-26887D01*
X27955Y-26021D01*
X27090Y-25357D01*
X26082Y-24940D01*
X25000Y-24797D01*
X23918Y-24940D01*
X22910Y-25357D01*
X22045Y-26021D01*
X21381Y-26887D01*
X20963Y-27895D01*
X20821Y-28976D01*
X20963Y-30058D01*
X21381Y-31066D01*
X22045Y-31931D01*
X22910Y-32596D01*
X23918Y-33013D01*
X25000Y-33155D01*
X26082Y-33013D01*
X27090Y-32596D01*
X27139Y-32557D01*
X28830Y-34249D01*
Y-36341D01*
X28330Y-36511D01*
X27955Y-36021D01*
X27090Y-35357D01*
X26082Y-34940D01*
X25000Y-34797D01*
X23918Y-34940D01*
X22910Y-35357D01*
X22045Y-36021D01*
X21463Y-36780D01*
X20997Y-36671D01*
X20963Y-36652D01*
Y-33919D01*
X20885Y-33529D01*
X20664Y-33198D01*
X18581Y-31115D01*
X18619Y-31066D01*
X19037Y-30058D01*
X19179Y-28976D01*
X19037Y-27895D01*
X18619Y-26887D01*
X17955Y-26021D01*
X17089Y-25357D01*
X16082Y-24940D01*
X15000Y-24797D01*
X13918Y-24940D01*
X12911Y-25357D01*
X12045Y-26021D01*
X11381Y-26887D01*
X10963Y-27895D01*
X10821Y-28976D01*
X10963Y-30058D01*
X11381Y-31066D01*
X12045Y-31931D01*
X12911Y-32596D01*
X13918Y-33013D01*
X15000Y-33155D01*
X16082Y-33013D01*
X17089Y-32596D01*
X17139Y-32557D01*
X18923Y-34342D01*
Y-36462D01*
X18423Y-36632D01*
X17955Y-36021D01*
X17089Y-35357D01*
X16082Y-34940D01*
X15000Y-34797D01*
X13918Y-34940D01*
X12911Y-35357D01*
X12045Y-36021D01*
X11381Y-36887D01*
X11232Y-37245D01*
X10732Y-37146D01*
Y-33689D01*
X10655Y-33299D01*
X10434Y-32968D01*
X8581Y-31115D01*
X8619Y-31066D01*
X9037Y-30058D01*
X9179Y-28976D01*
X9037Y-27895D01*
X8619Y-26887D01*
X7955Y-26021D01*
X7090Y-25357D01*
X6082Y-24940D01*
X5000Y-24797D01*
X3918Y-24940D01*
X2911Y-25357D01*
X2045Y-26021D01*
X1381Y-26887D01*
X963Y-27895D01*
X821Y-28976D01*
X963Y-30058D01*
X1381Y-31066D01*
X2045Y-31931D01*
X2911Y-32596D01*
X3918Y-33013D01*
X5000Y-33155D01*
X6082Y-33013D01*
X7090Y-32596D01*
X7139Y-32557D01*
X8693Y-34111D01*
Y-36162D01*
X8193Y-36332D01*
X7955Y-36021D01*
X7090Y-35357D01*
X6082Y-34940D01*
X5000Y-34797D01*
X3918Y-34940D01*
X2911Y-35357D01*
X2045Y-36021D01*
X1429Y-36824D01*
X1202Y-36807D01*
X929Y-36685D01*
Y-33886D01*
X852Y-33496D01*
X631Y-33165D01*
X-1419Y-31115D01*
X-1381Y-31066D01*
X-963Y-30058D01*
X-821Y-28976D01*
X-963Y-27895D01*
X-1381Y-26887D01*
X-2045Y-26021D01*
X-2911Y-25357D01*
X-3918Y-24940D01*
X-5000Y-24797D01*
X-6082Y-24940D01*
X-7090Y-25357D01*
X-7955Y-26021D01*
X-8619Y-26887D01*
X-9037Y-27895D01*
X-9179Y-28976D01*
X-9037Y-30058D01*
X-8619Y-31066D01*
X-7955Y-31931D01*
X-7090Y-32596D01*
X-6082Y-33013D01*
X-5000Y-33155D01*
X-3918Y-33013D01*
X-2911Y-32596D01*
X-2861Y-32557D01*
X-1110Y-34308D01*
Y-36419D01*
X-1610Y-36588D01*
X-2045Y-36021D01*
X-2911Y-35357D01*
X-3918Y-34940D01*
X-5000Y-34797D01*
X-6082Y-34940D01*
X-7090Y-35357D01*
X-7955Y-36021D01*
X-8407Y-36610D01*
X-8907Y-36440D01*
Y-34050D01*
X-8984Y-33660D01*
X-9205Y-33329D01*
X-11419Y-31115D01*
X-11381Y-31066D01*
X-10963Y-30058D01*
X-10821Y-28976D01*
X-10963Y-27895D01*
X-11381Y-26887D01*
X-12045Y-26021D01*
X-12911Y-25357D01*
X-13918Y-24940D01*
X-15000Y-24797D01*
X-16082Y-24940D01*
X-17089Y-25357D01*
X-17955Y-26021D01*
X-18619Y-26887D01*
X-19037Y-27895D01*
X-19179Y-28976D01*
X-19037Y-30058D01*
X-18619Y-31066D01*
X-17955Y-31931D01*
X-17089Y-32596D01*
X-16082Y-33013D01*
X-15000Y-33155D01*
X-13918Y-33013D01*
X-12911Y-32596D01*
X-12861Y-32557D01*
X-10946Y-34473D01*
Y-36669D01*
X-11109Y-36751D01*
X-11446Y-36802D01*
X-12045Y-36021D01*
X-12911Y-35357D01*
X-13918Y-34940D01*
X-15000Y-34797D01*
X-16082Y-34940D01*
X-17089Y-35357D01*
X-17955Y-36021D01*
X-18611Y-36877D01*
X-18645Y-36881D01*
X-19111Y-36768D01*
Y-33845D01*
X-19189Y-33455D01*
X-19410Y-33125D01*
X-21419Y-31115D01*
X-21381Y-31066D01*
X-20963Y-30058D01*
X-20821Y-28976D01*
X-20963Y-27895D01*
X-21381Y-26887D01*
X-22045Y-26021D01*
X-22910Y-25357D01*
X-23918Y-24940D01*
X-25000Y-24797D01*
X-26082Y-24940D01*
X-27090Y-25357D01*
X-27955Y-26021D01*
X-28619Y-26887D01*
X-29037Y-27895D01*
X-29179Y-28976D01*
X-29037Y-30058D01*
X-28619Y-31066D01*
X-27955Y-31931D01*
X-27090Y-32596D01*
X-26082Y-33013D01*
X-25000Y-33155D01*
X-23918Y-33013D01*
X-22910Y-32596D01*
X-22861Y-32557D01*
X-21150Y-34268D01*
Y-36366D01*
X-21651Y-36536D01*
X-22045Y-36021D01*
X-22910Y-35357D01*
X-23918Y-34940D01*
X-25000Y-34797D01*
X-26082Y-34940D01*
X-27090Y-35357D01*
X-27955Y-36021D01*
X-28619Y-36887D01*
X-29037Y-37895D01*
X-29179Y-38976D01*
X-29037Y-40058D01*
X-28619Y-41066D01*
X-27955Y-41931D01*
X-27090Y-42595D01*
X-26082Y-43013D01*
X-26020Y-43021D01*
Y-59367D01*
X-25942Y-59757D01*
X-25721Y-60087D01*
X-22782Y-63027D01*
X-22973Y-63489D01*
X-40835D01*
X-51369Y-52954D01*
Y-43120D01*
X-50857D01*
Y-35397D01*
X-50669Y-35276D01*
X-50357Y-35206D01*
X-48636Y-36927D01*
X-49037Y-37895D01*
X-49179Y-38976D01*
X-49037Y-40058D01*
X-48619Y-41066D01*
X-47955Y-41931D01*
X-47089Y-42595D01*
X-46082Y-43013D01*
X-45000Y-43155D01*
X-43918Y-43013D01*
X-42911Y-42595D01*
X-42045Y-41931D01*
X-41381Y-41066D01*
X-40963Y-40058D01*
X-40821Y-38976D01*
X-40963Y-37895D01*
X-41381Y-36887D01*
X-42045Y-36021D01*
X-42911Y-35357D01*
X-43918Y-34940D01*
X-45000Y-34797D01*
X-46082Y-34940D01*
X-47050Y-35341D01*
X-48522Y-33869D01*
Y-31971D01*
X-48048Y-31810D01*
X-47955Y-31931D01*
X-47089Y-32596D01*
X-46082Y-33013D01*
X-45000Y-33155D01*
X-43918Y-33013D01*
X-42911Y-32596D01*
X-42045Y-31931D01*
X-41381Y-31066D01*
X-41285Y-30835D01*
X-40785Y-30935D01*
Y-33764D01*
X-40785Y-33764D01*
X-40700Y-34193D01*
X-40457Y-34557D01*
X-38405Y-36608D01*
X-38619Y-36887D01*
X-39037Y-37895D01*
X-39179Y-38976D01*
X-39037Y-40058D01*
X-38619Y-41066D01*
X-37955Y-41931D01*
X-37089Y-42595D01*
X-36082Y-43013D01*
X-35000Y-43155D01*
X-33918Y-43013D01*
X-32910Y-42595D01*
X-32045Y-41931D01*
X-31381Y-41066D01*
X-30963Y-40058D01*
X-30821Y-38976D01*
X-30963Y-37895D01*
X-31381Y-36887D01*
X-32045Y-36021D01*
X-32910Y-35357D01*
X-33918Y-34940D01*
X-35000Y-34797D01*
X-36082Y-34940D01*
X-36662Y-35180D01*
X-38542Y-33299D01*
Y-31944D01*
X-38069Y-31783D01*
X-37955Y-31931D01*
X-37089Y-32596D01*
X-36082Y-33013D01*
X-35000Y-33155D01*
X-33918Y-33013D01*
X-32910Y-32596D01*
X-32045Y-31931D01*
X-31381Y-31066D01*
X-30963Y-30058D01*
X-30821Y-28976D01*
X-30963Y-27895D01*
X-31381Y-26887D01*
X-32045Y-26021D01*
X-32910Y-25357D01*
X-33918Y-24940D01*
X-35000Y-24797D01*
X-36082Y-24940D01*
X-37089Y-25357D01*
X-37955Y-26021D01*
X-38069Y-26170D01*
X-38542Y-26009D01*
Y-24915D01*
X-36806Y-23179D01*
X-30531D01*
X-30531Y-23179D01*
X-30102Y-23093D01*
X-29738Y-22850D01*
X-22723Y-15834D01*
X-22027D01*
X-22027Y-15834D01*
X-21597Y-15749D01*
X-21234Y-15506D01*
X-17389Y-11661D01*
X-16889Y-11868D01*
D02*
G37*
G36*
X-50765Y-30885D02*
Y-34333D01*
X-50765Y-34333D01*
X-50757Y-34374D01*
X-51175Y-34833D01*
X-59143D01*
Y-43120D01*
X-58631D01*
Y-54458D01*
X-58549Y-55080D01*
X-59023Y-55314D01*
X-60021Y-54316D01*
Y-32775D01*
X-59853Y-32607D01*
X-57061D01*
X-56082Y-33013D01*
X-55000Y-33155D01*
X-53918Y-33013D01*
X-52911Y-32596D01*
X-52045Y-31931D01*
X-51381Y-31066D01*
X-51265Y-30786D01*
X-50765Y-30885D01*
D02*
G37*
G36*
X-38840Y-22040D02*
X-40457Y-23658D01*
X-40700Y-24021D01*
X-40785Y-24451D01*
X-40785Y-24451D01*
Y-27018D01*
X-41285Y-27117D01*
X-41381Y-26887D01*
X-42045Y-26021D01*
X-42911Y-25357D01*
X-43918Y-24940D01*
X-45000Y-24797D01*
X-46082Y-24940D01*
X-47089Y-25357D01*
X-47955Y-26021D01*
X-48048Y-26143D01*
X-48522Y-25982D01*
Y-25379D01*
X-44721Y-21579D01*
X-39031D01*
X-38840Y-22040D01*
D02*
G37*
G36*
X-18611Y-41076D02*
X-17955Y-41931D01*
X-17089Y-42595D01*
X-16082Y-43013D01*
X-16020Y-43021D01*
Y-57177D01*
X-15942Y-57567D01*
X-15721Y-57898D01*
X-13380Y-60238D01*
X-13572Y-60700D01*
X-16358D01*
X-19111Y-57947D01*
Y-41184D01*
X-18645Y-41072D01*
X-18611Y-41076D01*
D02*
G37*
G36*
X-21150Y-41587D02*
Y-58369D01*
X-21073Y-58759D01*
X-20852Y-59090D01*
X-18304Y-61638D01*
X-18495Y-62100D01*
X-20824D01*
X-23980Y-58944D01*
Y-43021D01*
X-23918Y-43013D01*
X-22910Y-42595D01*
X-22045Y-41931D01*
X-21651Y-41417D01*
X-21150Y-41587D01*
D02*
G37*
G36*
X-11109Y-41202D02*
X-10946Y-41284D01*
Y-55509D01*
X-10868Y-55899D01*
X-10647Y-56230D01*
X-8039Y-58838D01*
X-8230Y-59300D01*
X-11435D01*
X-13980Y-56754D01*
Y-43021D01*
X-13918Y-43013D01*
X-12911Y-42595D01*
X-12045Y-41931D01*
X-11446Y-41151D01*
X-11109Y-41202D01*
D02*
G37*
G36*
X-1110Y-41534D02*
Y-52912D01*
X-1032Y-53302D01*
X-811Y-53633D01*
X1594Y-56038D01*
X1403Y-56500D01*
X-1414D01*
X-3980Y-53934D01*
Y-43021D01*
X-3918Y-43013D01*
X-2911Y-42595D01*
X-2045Y-41931D01*
X-1610Y-41364D01*
X-1110Y-41534D01*
D02*
G37*
G36*
X-7955Y-41931D02*
X-7090Y-42595D01*
X-6082Y-43013D01*
X-6020Y-43021D01*
Y-54356D01*
X-5942Y-54747D01*
X-5721Y-55077D01*
X-3360Y-57438D01*
X-3551Y-57900D01*
X-6093D01*
X-8907Y-55086D01*
Y-41513D01*
X-8407Y-41343D01*
X-7955Y-41931D01*
D02*
G37*
%LPC*%
G36*
X-125019Y-3004D02*
X-128043D01*
Y-6028D01*
X-127614Y-5971D01*
X-126748Y-5613D01*
X-126005Y-5042D01*
X-125435Y-4299D01*
X-125076Y-3433D01*
X-125019Y-3004D01*
D02*
G37*
G36*
X-129043D02*
X-132067D01*
X-132011Y-3433D01*
X-131652Y-4299D01*
X-131082Y-5042D01*
X-130338Y-5613D01*
X-129472Y-5971D01*
X-129043Y-6028D01*
Y-3004D01*
D02*
G37*
G36*
X-119043Y6020D02*
X-119472Y5963D01*
X-120338Y5605D01*
X-121082Y5034D01*
X-121652Y4291D01*
X-122011Y3425D01*
X-122067Y2996D01*
X-119043D01*
Y6020D01*
D02*
G37*
G36*
X-59842Y12836D02*
X-61118Y12711D01*
X-62344Y12339D01*
X-63474Y11734D01*
X-64465Y10922D01*
X-65278Y9931D01*
X-65882Y8801D01*
X-66254Y7575D01*
X-66379Y6299D01*
X-66254Y5024D01*
X-65882Y3798D01*
X-65278Y2667D01*
X-64465Y1677D01*
X-63474Y864D01*
X-62344Y260D01*
X-61118Y-112D01*
X-59842Y-238D01*
X-58567Y-112D01*
X-57341Y260D01*
X-56211Y864D01*
X-55220Y1677D01*
X-54407Y2667D01*
X-53803Y3798D01*
X-53431Y5024D01*
X-53306Y6299D01*
X-53431Y7575D01*
X-53803Y8801D01*
X-54407Y9931D01*
X-55220Y10922D01*
X-56211Y11734D01*
X-57341Y12339D01*
X-58567Y12711D01*
X-59842Y12836D01*
D02*
G37*
G36*
X-118543Y-4318D02*
X-119368Y-4426D01*
X-120136Y-4744D01*
X-120796Y-5251D01*
X-121303Y-5911D01*
X-121621Y-6679D01*
X-121730Y-7504D01*
X-121621Y-8329D01*
X-121303Y-9097D01*
X-120796Y-9757D01*
X-120136Y-10263D01*
X-119368Y-10582D01*
X-118543Y-10690D01*
X-117719Y-10582D01*
X-116950Y-10263D01*
X-116290Y-9757D01*
X-115784Y-9097D01*
X-115466Y-8329D01*
X-115357Y-7504D01*
X-115466Y-6679D01*
X-115784Y-5911D01*
X-116290Y-5251D01*
X-116950Y-4744D01*
X-117719Y-4426D01*
X-118543Y-4318D01*
D02*
G37*
G36*
X-115019Y1996D02*
X-118043D01*
Y-1028D01*
X-117614Y-971D01*
X-116748Y-613D01*
X-116005Y-42D01*
X-115435Y701D01*
X-115076Y1567D01*
X-115019Y1996D01*
D02*
G37*
G36*
X-119043D02*
X-122067D01*
X-122011Y1567D01*
X-121652Y701D01*
X-121082Y-42D01*
X-120338Y-613D01*
X-119472Y-971D01*
X-119043Y-1028D01*
Y1996D01*
D02*
G37*
G36*
X-128043Y1020D02*
Y-2004D01*
X-125019D01*
X-125076Y-1575D01*
X-125435Y-709D01*
X-126005Y34D01*
X-126748Y605D01*
X-127614Y963D01*
X-128043Y1020D01*
D02*
G37*
G36*
X-92319Y6980D02*
X-96275D01*
Y2434D01*
X-95419D01*
Y-1113D01*
X-96275D01*
Y-5659D01*
X-92319D01*
Y-1113D01*
X-93176D01*
Y-461D01*
X-91543D01*
X-91522Y-493D01*
X-90993Y-847D01*
X-90368Y-971D01*
X-89744Y-847D01*
X-89215Y-493D01*
X-88861Y36D01*
X-88737Y660D01*
X-88861Y1285D01*
X-89215Y1814D01*
X-89744Y2168D01*
X-90368Y2292D01*
X-90993Y2168D01*
X-91522Y1814D01*
X-91543Y1782D01*
X-93176D01*
Y2434D01*
X-92319D01*
Y6980D01*
D02*
G37*
G36*
X-129043Y1020D02*
X-129472Y963D01*
X-130338Y605D01*
X-131082Y34D01*
X-131652Y-709D01*
X-132011Y-1575D01*
X-132067Y-2004D01*
X-129043D01*
Y1020D01*
D02*
G37*
G36*
X55500Y-34460D02*
Y-38476D01*
X59517D01*
X59426Y-37790D01*
X58969Y-36685D01*
X58240Y-35736D01*
X57291Y-35008D01*
X56186Y-34550D01*
X55500Y-34460D01*
D02*
G37*
G36*
X54500Y-29476D02*
X50483D01*
X50574Y-30162D01*
X51031Y-31268D01*
X51760Y-32217D01*
X52709Y-32945D01*
X53814Y-33403D01*
X54500Y-33493D01*
Y-29476D01*
D02*
G37*
G36*
X161417Y-41584D02*
X159362Y-41746D01*
X157357Y-42227D01*
X155452Y-43016D01*
X153693Y-44093D01*
X152126Y-45433D01*
X150786Y-47001D01*
X149709Y-48759D01*
X148920Y-50664D01*
X148439Y-52669D01*
X148277Y-54724D01*
X148439Y-56780D01*
X148920Y-58785D01*
X149709Y-60690D01*
X150786Y-62448D01*
X152126Y-64016D01*
X153693Y-65355D01*
X155452Y-66433D01*
X157357Y-67222D01*
X159362Y-67703D01*
X161417Y-67865D01*
X163473Y-67703D01*
X165478Y-67222D01*
X167383Y-66433D01*
X169141Y-65355D01*
X170709Y-64016D01*
X172048Y-62448D01*
X173126Y-60690D01*
X173915Y-58785D01*
X174396Y-56780D01*
X174558Y-54724D01*
X174396Y-52669D01*
X173915Y-50664D01*
X173126Y-48759D01*
X172048Y-47001D01*
X170709Y-45433D01*
X169141Y-44093D01*
X167383Y-43016D01*
X165478Y-42227D01*
X163473Y-41746D01*
X161417Y-41584D01*
D02*
G37*
G36*
X151599Y-70438D02*
X127423D01*
Y-77120D01*
X151599D01*
Y-70438D01*
D02*
G37*
G36*
X-161417Y-41584D02*
X-163473Y-41746D01*
X-165478Y-42227D01*
X-167383Y-43016D01*
X-169141Y-44093D01*
X-170709Y-45433D01*
X-172048Y-47001D01*
X-173126Y-48759D01*
X-173915Y-50664D01*
X-174396Y-52669D01*
X-174558Y-54724D01*
X-174396Y-56780D01*
X-173915Y-58785D01*
X-173126Y-60690D01*
X-172048Y-62448D01*
X-170709Y-64016D01*
X-169141Y-65355D01*
X-167383Y-66433D01*
X-165478Y-67222D01*
X-163473Y-67703D01*
X-161417Y-67865D01*
X-159362Y-67703D01*
X-157357Y-67222D01*
X-155452Y-66433D01*
X-153693Y-65355D01*
X-152126Y-64016D01*
X-150786Y-62448D01*
X-149709Y-60690D01*
X-148920Y-58785D01*
X-148439Y-56780D01*
X-148277Y-54724D01*
X-148439Y-52669D01*
X-148920Y-50664D01*
X-149709Y-48759D01*
X-150786Y-47001D01*
X-152126Y-45433D01*
X-153693Y-44093D01*
X-155452Y-43016D01*
X-157357Y-42227D01*
X-159362Y-41746D01*
X-161417Y-41584D01*
D02*
G37*
G36*
X59517Y-29476D02*
X55500D01*
Y-33493D01*
X56186Y-33403D01*
X57291Y-32945D01*
X58240Y-32217D01*
X58969Y-31268D01*
X59426Y-30162D01*
X59517Y-29476D01*
D02*
G37*
G36*
X160917Y-13921D02*
X157465D01*
Y-17374D01*
X160917D01*
Y-13921D01*
D02*
G37*
G36*
X165370D02*
X161917D01*
Y-17374D01*
X165370D01*
Y-13921D01*
D02*
G37*
G36*
Y-18374D02*
X161917D01*
Y-21827D01*
X165370D01*
Y-18374D01*
D02*
G37*
G36*
X-153543Y-15571D02*
X-154896Y-15705D01*
X-156196Y-16099D01*
X-157395Y-16740D01*
X-158445Y-17602D01*
X-159308Y-18652D01*
X-159948Y-19851D01*
X-160343Y-21151D01*
X-160476Y-22504D01*
X-160343Y-23856D01*
X-159948Y-25157D01*
X-159308Y-26355D01*
X-158445Y-27406D01*
X-157395Y-28268D01*
X-156196Y-28909D01*
X-154896Y-29303D01*
X-153543Y-29436D01*
X-152191Y-29303D01*
X-150890Y-28909D01*
X-149692Y-28268D01*
X-148641Y-27406D01*
X-147779Y-26355D01*
X-147138Y-25157D01*
X-146744Y-23856D01*
X-146611Y-22504D01*
X-146744Y-21151D01*
X-147138Y-19851D01*
X-147779Y-18652D01*
X-148641Y-17602D01*
X-149692Y-16740D01*
X-150890Y-16099D01*
X-152191Y-15705D01*
X-153543Y-15571D01*
D02*
G37*
G36*
X160917Y-18374D02*
X157465D01*
Y-21827D01*
X160917D01*
Y-18374D01*
D02*
G37*
G36*
X-118043Y6020D02*
Y2996D01*
X-115019D01*
X-115076Y3425D01*
X-115435Y4291D01*
X-116005Y5034D01*
X-116748Y5605D01*
X-117614Y5963D01*
X-118043Y6020D01*
D02*
G37*
G36*
X35000Y57092D02*
X33918Y56950D01*
X32910Y56533D01*
X32045Y55868D01*
X31381Y55003D01*
X30963Y53995D01*
X30821Y52913D01*
X30963Y51832D01*
X31381Y50824D01*
X32045Y49958D01*
X32910Y49294D01*
X33918Y48877D01*
X35000Y48734D01*
X36082Y48877D01*
X37089Y49294D01*
X37955Y49958D01*
X38619Y50824D01*
X39037Y51832D01*
X39179Y52913D01*
X39037Y53995D01*
X38619Y55003D01*
X37955Y55868D01*
X37089Y56533D01*
X36082Y56950D01*
X35000Y57092D01*
D02*
G37*
G36*
X25000D02*
X23918Y56950D01*
X22910Y56533D01*
X22045Y55868D01*
X21381Y55003D01*
X20963Y53995D01*
X20821Y52913D01*
X20963Y51832D01*
X21381Y50824D01*
X22045Y49958D01*
X22910Y49294D01*
X23918Y48877D01*
X25000Y48734D01*
X26082Y48877D01*
X27090Y49294D01*
X27955Y49958D01*
X28619Y50824D01*
X29037Y51832D01*
X29179Y52913D01*
X29037Y53995D01*
X28619Y55003D01*
X27955Y55868D01*
X27090Y56533D01*
X26082Y56950D01*
X25000Y57092D01*
D02*
G37*
G36*
X59543Y62413D02*
X55500D01*
Y58370D01*
X59543D01*
Y62413D01*
D02*
G37*
G36*
X55500Y57430D02*
Y53413D01*
X59517D01*
X59426Y54099D01*
X58969Y55205D01*
X58240Y56154D01*
X57291Y56882D01*
X56186Y57340D01*
X55500Y57430D01*
D02*
G37*
G36*
X-5000Y57092D02*
X-6082Y56950D01*
X-7090Y56533D01*
X-7955Y55868D01*
X-8619Y55003D01*
X-9037Y53995D01*
X-9179Y52913D01*
X-9037Y51832D01*
X-8619Y50824D01*
X-7955Y49958D01*
X-7090Y49294D01*
X-6082Y48877D01*
X-5000Y48734D01*
X-3918Y48877D01*
X-2911Y49294D01*
X-2045Y49958D01*
X-1381Y50824D01*
X-963Y51832D01*
X-821Y52913D01*
X-963Y53995D01*
X-1381Y55003D01*
X-2045Y55868D01*
X-2911Y56533D01*
X-3918Y56950D01*
X-5000Y57092D01*
D02*
G37*
G36*
X-15000D02*
X-16082Y56950D01*
X-17089Y56533D01*
X-17955Y55868D01*
X-18619Y55003D01*
X-19037Y53995D01*
X-19179Y52913D01*
X-19037Y51832D01*
X-18619Y50824D01*
X-17955Y49958D01*
X-17089Y49294D01*
X-16082Y48877D01*
X-15000Y48734D01*
X-13918Y48877D01*
X-12911Y49294D01*
X-12045Y49958D01*
X-11381Y50824D01*
X-10963Y51832D01*
X-10821Y52913D01*
X-10963Y53995D01*
X-11381Y55003D01*
X-12045Y55868D01*
X-12911Y56533D01*
X-13918Y56950D01*
X-15000Y57092D01*
D02*
G37*
G36*
X15000D02*
X13918Y56950D01*
X12911Y56533D01*
X12045Y55868D01*
X11381Y55003D01*
X10963Y53995D01*
X10821Y52913D01*
X10963Y51832D01*
X11381Y50824D01*
X12045Y49958D01*
X12911Y49294D01*
X13918Y48877D01*
X15000Y48734D01*
X16082Y48877D01*
X17089Y49294D01*
X17955Y49958D01*
X18619Y50824D01*
X19037Y51832D01*
X19179Y52913D01*
X19037Y53995D01*
X18619Y55003D01*
X17955Y55868D01*
X17089Y56533D01*
X16082Y56950D01*
X15000Y57092D01*
D02*
G37*
G36*
X5000D02*
X3918Y56950D01*
X2911Y56533D01*
X2045Y55868D01*
X1381Y55003D01*
X963Y53995D01*
X821Y52913D01*
X963Y51832D01*
X1381Y50824D01*
X2045Y49958D01*
X2911Y49294D01*
X3918Y48877D01*
X5000Y48734D01*
X6082Y48877D01*
X7090Y49294D01*
X7955Y49958D01*
X8619Y50824D01*
X9037Y51832D01*
X9179Y52913D01*
X9037Y53995D01*
X8619Y55003D01*
X7955Y55868D01*
X7090Y56533D01*
X6082Y56950D01*
X5000Y57092D01*
D02*
G37*
G36*
X-55000Y67092D02*
X-56082Y66950D01*
X-57090Y66533D01*
X-57955Y65868D01*
X-58619Y65003D01*
X-59037Y63995D01*
X-59179Y62913D01*
X-59037Y61832D01*
X-58619Y60824D01*
X-57955Y59958D01*
X-57090Y59294D01*
X-56082Y58877D01*
X-55000Y58734D01*
X-53918Y58877D01*
X-52911Y59294D01*
X-52045Y59958D01*
X-51381Y60824D01*
X-50963Y61832D01*
X-50821Y62913D01*
X-50963Y63995D01*
X-51381Y65003D01*
X-52045Y65868D01*
X-52911Y66533D01*
X-53918Y66950D01*
X-55000Y67092D01*
D02*
G37*
G36*
X54500Y67457D02*
X50457D01*
Y63413D01*
X54500D01*
Y67457D01*
D02*
G37*
G36*
X35000Y67092D02*
X33918Y66950D01*
X32910Y66533D01*
X32045Y65868D01*
X31381Y65003D01*
X30963Y63995D01*
X30821Y62913D01*
X30963Y61832D01*
X31381Y60824D01*
X32045Y59958D01*
X32910Y59294D01*
X33918Y58877D01*
X35000Y58734D01*
X36082Y58877D01*
X37089Y59294D01*
X37955Y59958D01*
X38619Y60824D01*
X39037Y61832D01*
X39179Y62913D01*
X39037Y63995D01*
X38619Y65003D01*
X37955Y65868D01*
X37089Y66533D01*
X36082Y66950D01*
X35000Y67092D01*
D02*
G37*
G36*
X-27244Y76279D02*
X-27244Y76279D01*
X-90985D01*
X-90985Y76279D01*
X-91414Y76193D01*
X-91778Y75950D01*
X-91778Y75950D01*
X-99975Y67753D01*
X-100218Y67390D01*
X-100303Y66961D01*
X-100303Y66960D01*
Y29273D01*
X-101196D01*
Y24727D01*
X-100303D01*
Y18320D01*
X-102489Y16134D01*
X-102732Y15770D01*
X-102818Y15341D01*
X-102818Y15341D01*
Y10671D01*
X-102818Y10671D01*
X-102817Y10667D01*
Y9316D01*
X-106056Y6078D01*
X-106299Y5714D01*
X-106384Y5284D01*
X-106384Y5284D01*
Y3545D01*
X-106384Y3545D01*
X-106299Y3115D01*
X-106056Y2752D01*
X-105448Y2144D01*
X-105694Y1683D01*
X-105793Y1703D01*
X-106418Y1578D01*
X-106947Y1225D01*
X-107300Y696D01*
X-107425Y71D01*
X-107300Y-553D01*
X-106947Y-1082D01*
X-106915Y-1104D01*
Y-5675D01*
X-112622Y-11382D01*
X-125589D01*
X-125784Y-10911D01*
X-126290Y-10251D01*
X-126950Y-9745D01*
X-127719Y-9426D01*
X-128543Y-9318D01*
X-129368Y-9426D01*
X-130137Y-9745D01*
X-130796Y-10251D01*
X-131303Y-10911D01*
X-131621Y-11679D01*
X-131730Y-12504D01*
X-131621Y-13329D01*
X-131303Y-14097D01*
X-130796Y-14757D01*
X-130137Y-15263D01*
X-129368Y-15582D01*
X-128543Y-15690D01*
X-127719Y-15582D01*
X-126950Y-15263D01*
X-126290Y-14757D01*
X-125784Y-14097D01*
X-125589Y-13625D01*
X-112157D01*
X-112157Y-13625D01*
X-111728Y-13540D01*
X-111713Y-13530D01*
X-111394Y-13918D01*
X-113858Y-16382D01*
X-115588D01*
X-115784Y-15911D01*
X-116290Y-15251D01*
X-116950Y-14744D01*
X-117719Y-14426D01*
X-118543Y-14318D01*
X-119368Y-14426D01*
X-120136Y-14744D01*
X-120796Y-15251D01*
X-121303Y-15911D01*
X-121621Y-16679D01*
X-121730Y-17504D01*
X-121621Y-18329D01*
X-121303Y-19097D01*
X-120796Y-19757D01*
X-120136Y-20263D01*
X-119368Y-20582D01*
X-118543Y-20690D01*
X-117719Y-20582D01*
X-116950Y-20263D01*
X-116290Y-19757D01*
X-115784Y-19097D01*
X-115588Y-18625D01*
X-113394D01*
X-113394Y-18625D01*
X-112964Y-18540D01*
X-112601Y-18297D01*
X-106905Y-12601D01*
X-101196D01*
Y-13753D01*
X-97240D01*
Y-9206D01*
X-98097D01*
Y-5659D01*
X-97240D01*
Y-1113D01*
X-99019D01*
X-102564Y2431D01*
X-102415Y2990D01*
X-102009Y3261D01*
X-101988Y3293D01*
X-101196D01*
Y2434D01*
X-97240D01*
Y6980D01*
X-98097D01*
Y10527D01*
X-97240D01*
Y15073D01*
X-97408D01*
X-97615Y15573D01*
X-96789Y16400D01*
X-96789Y16400D01*
X-96546Y16764D01*
X-96460Y17193D01*
Y21734D01*
X-93468Y24727D01*
X-92319D01*
Y29273D01*
X-93184D01*
X-93186Y29282D01*
X-93429Y29646D01*
X-96460Y32677D01*
Y65833D01*
X-89858Y72436D01*
X-34056D01*
X-27926Y66306D01*
X-27955Y65868D01*
X-28619Y65003D01*
X-29037Y63995D01*
X-29179Y62913D01*
X-29037Y61832D01*
X-28619Y60824D01*
X-27955Y59958D01*
X-27090Y59294D01*
X-26082Y58877D01*
X-25000Y58734D01*
X-23918Y58877D01*
X-22910Y59294D01*
X-22045Y59958D01*
X-21381Y60824D01*
X-20963Y61832D01*
X-20821Y62913D01*
X-20963Y63995D01*
X-21381Y65003D01*
X-22045Y65868D01*
X-22910Y66533D01*
X-23918Y66950D01*
X-25000Y67092D01*
X-25478Y67030D01*
X-32022Y73574D01*
X-31831Y74036D01*
X-27709D01*
X-18636Y64963D01*
X-19037Y63995D01*
X-19179Y62913D01*
X-19037Y61832D01*
X-18619Y60824D01*
X-17955Y59958D01*
X-17089Y59294D01*
X-16082Y58877D01*
X-15000Y58734D01*
X-13918Y58877D01*
X-12911Y59294D01*
X-12045Y59958D01*
X-11381Y60824D01*
X-10963Y61832D01*
X-10821Y62913D01*
X-10963Y63995D01*
X-11381Y65003D01*
X-12045Y65868D01*
X-12911Y66533D01*
X-13918Y66950D01*
X-15000Y67092D01*
X-16082Y66950D01*
X-17050Y66549D01*
X-26451Y75950D01*
X-26815Y76193D01*
X-27244Y76279D01*
D02*
G37*
G36*
X59543Y67457D02*
X55500D01*
Y63413D01*
X59543D01*
Y67457D01*
D02*
G37*
G36*
X5000Y67092D02*
X3918Y66950D01*
X2911Y66533D01*
X2045Y65868D01*
X1381Y65003D01*
X963Y63995D01*
X821Y62913D01*
X963Y61832D01*
X1381Y60824D01*
X2045Y59958D01*
X2911Y59294D01*
X3918Y58877D01*
X5000Y58734D01*
X6082Y58877D01*
X7090Y59294D01*
X7955Y59958D01*
X8619Y60824D01*
X9037Y61832D01*
X9179Y62913D01*
X9037Y63995D01*
X8619Y65003D01*
X7955Y65868D01*
X7090Y66533D01*
X6082Y66950D01*
X5000Y67092D01*
D02*
G37*
G36*
X-5000D02*
X-6082Y66950D01*
X-7090Y66533D01*
X-7955Y65868D01*
X-8619Y65003D01*
X-9037Y63995D01*
X-9179Y62913D01*
X-9037Y61832D01*
X-8619Y60824D01*
X-7955Y59958D01*
X-7090Y59294D01*
X-6082Y58877D01*
X-5000Y58734D01*
X-3918Y58877D01*
X-2911Y59294D01*
X-2045Y59958D01*
X-1381Y60824D01*
X-963Y61832D01*
X-821Y62913D01*
X-963Y63995D01*
X-1381Y65003D01*
X-2045Y65868D01*
X-2911Y66533D01*
X-3918Y66950D01*
X-5000Y67092D01*
D02*
G37*
G36*
X25000D02*
X23918Y66950D01*
X22910Y66533D01*
X22045Y65868D01*
X21381Y65003D01*
X20963Y63995D01*
X20821Y62913D01*
X20963Y61832D01*
X21381Y60824D01*
X22045Y59958D01*
X22910Y59294D01*
X23918Y58877D01*
X25000Y58734D01*
X26082Y58877D01*
X27090Y59294D01*
X27955Y59958D01*
X28619Y60824D01*
X29037Y61832D01*
X29179Y62913D01*
X29037Y63995D01*
X28619Y65003D01*
X27955Y65868D01*
X27090Y66533D01*
X26082Y66950D01*
X25000Y67092D01*
D02*
G37*
G36*
X15000D02*
X13918Y66950D01*
X12911Y66533D01*
X12045Y65868D01*
X11381Y65003D01*
X10963Y63995D01*
X10821Y62913D01*
X10963Y61832D01*
X11381Y60824D01*
X12045Y59958D01*
X12911Y59294D01*
X13918Y58877D01*
X15000Y58734D01*
X16082Y58877D01*
X17089Y59294D01*
X17955Y59958D01*
X18619Y60824D01*
X19037Y61832D01*
X19179Y62913D01*
X19037Y63995D01*
X18619Y65003D01*
X17955Y65868D01*
X17089Y66533D01*
X16082Y66950D01*
X15000Y67092D01*
D02*
G37*
G36*
X160917Y11827D02*
X157465D01*
Y8374D01*
X160917D01*
Y11827D01*
D02*
G37*
G36*
X-128543Y10682D02*
X-129368Y10574D01*
X-130137Y10255D01*
X-130796Y9749D01*
X-131303Y9089D01*
X-131621Y8321D01*
X-131730Y7496D01*
X-131621Y6671D01*
X-131303Y5903D01*
X-130796Y5243D01*
X-130137Y4737D01*
X-129368Y4418D01*
X-128543Y4310D01*
X-127719Y4418D01*
X-126950Y4737D01*
X-126290Y5243D01*
X-125784Y5903D01*
X-125466Y6671D01*
X-125357Y7496D01*
X-125466Y8321D01*
X-125784Y9089D01*
X-126290Y9749D01*
X-126950Y10255D01*
X-127719Y10574D01*
X-128543Y10682D01*
D02*
G37*
G36*
X-25303Y12983D02*
X-26041Y12886D01*
X-27194Y12408D01*
X-28184Y11648D01*
X-28944Y10658D01*
X-29421Y9505D01*
X-29518Y8768D01*
X-25303D01*
Y12983D01*
D02*
G37*
G36*
X165370Y11827D02*
X161917D01*
Y8374D01*
X165370D01*
Y11827D01*
D02*
G37*
G36*
X-20088Y7768D02*
X-24303D01*
Y3553D01*
X-23566Y3650D01*
X-22413Y4127D01*
X-21422Y4887D01*
X-20663Y5877D01*
X-20185Y7030D01*
X-20088Y7768D01*
D02*
G37*
G36*
X-25303D02*
X-29518D01*
X-29421Y7030D01*
X-28944Y5877D01*
X-28184Y4887D01*
X-27194Y4127D01*
X-26041Y3650D01*
X-25303Y3553D01*
Y7768D01*
D02*
G37*
G36*
X165370Y7374D02*
X161917D01*
Y3921D01*
X165370D01*
Y7374D01*
D02*
G37*
G36*
X160917D02*
X157465D01*
Y3921D01*
X160917D01*
Y7374D01*
D02*
G37*
G36*
X-24303Y12983D02*
Y8768D01*
X-20088D01*
X-20185Y9505D01*
X-20663Y10658D01*
X-21422Y11648D01*
X-22413Y12408D01*
X-23566Y12886D01*
X-24303Y12983D01*
D02*
G37*
G36*
X161417Y67865D02*
X159362Y67703D01*
X157357Y67222D01*
X155452Y66433D01*
X153693Y65355D01*
X152126Y64016D01*
X150786Y62448D01*
X149709Y60690D01*
X148920Y58785D01*
X148439Y56780D01*
X148277Y54724D01*
X148439Y52669D01*
X148920Y50664D01*
X149709Y48759D01*
X150786Y47001D01*
X152126Y45433D01*
X153693Y44093D01*
X155452Y43016D01*
X157357Y42227D01*
X159362Y41746D01*
X161417Y41584D01*
X163473Y41746D01*
X165478Y42227D01*
X167383Y43016D01*
X169141Y44093D01*
X170709Y45433D01*
X172048Y47001D01*
X173126Y48759D01*
X173915Y50664D01*
X174396Y52669D01*
X174558Y54724D01*
X174396Y56780D01*
X173915Y58785D01*
X173126Y60690D01*
X172048Y62448D01*
X170709Y64016D01*
X169141Y65355D01*
X167383Y66433D01*
X165478Y67222D01*
X163473Y67703D01*
X161417Y67865D01*
D02*
G37*
G36*
X-161417D02*
X-163473Y67703D01*
X-165478Y67222D01*
X-167383Y66433D01*
X-169141Y65355D01*
X-170709Y64016D01*
X-172048Y62448D01*
X-173126Y60690D01*
X-173915Y58785D01*
X-174396Y56780D01*
X-174558Y54724D01*
X-174396Y52669D01*
X-173915Y50664D01*
X-173126Y48759D01*
X-172048Y47001D01*
X-170709Y45433D01*
X-169141Y44093D01*
X-167383Y43016D01*
X-165478Y42227D01*
X-163473Y41746D01*
X-161417Y41584D01*
X-159362Y41746D01*
X-157357Y42227D01*
X-155452Y43016D01*
X-153693Y44093D01*
X-152126Y45433D01*
X-150786Y47001D01*
X-149709Y48759D01*
X-148920Y50664D01*
X-148439Y52669D01*
X-148277Y54724D01*
X-148439Y56780D01*
X-148920Y58785D01*
X-149709Y60690D01*
X-150786Y62448D01*
X-152126Y64016D01*
X-153693Y65355D01*
X-155452Y66433D01*
X-157357Y67222D01*
X-159362Y67703D01*
X-161417Y67865D01*
D02*
G37*
G36*
X-25000Y57092D02*
X-26082Y56950D01*
X-27090Y56533D01*
X-27955Y55868D01*
X-28619Y55003D01*
X-29037Y53995D01*
X-29179Y52913D01*
X-29037Y51832D01*
X-28619Y50824D01*
X-27955Y49958D01*
X-27090Y49294D01*
X-26082Y48877D01*
X-25000Y48734D01*
X-23918Y48877D01*
X-22910Y49294D01*
X-22045Y49958D01*
X-21381Y50824D01*
X-20963Y51832D01*
X-20821Y52913D01*
X-20963Y53995D01*
X-21381Y55003D01*
X-22045Y55868D01*
X-22910Y56533D01*
X-23918Y56950D01*
X-25000Y57092D01*
D02*
G37*
G36*
X59517Y52413D02*
X55500D01*
Y48397D01*
X56186Y48487D01*
X57291Y48945D01*
X58240Y49673D01*
X58969Y50622D01*
X59426Y51727D01*
X59517Y52413D01*
D02*
G37*
G36*
X-118543Y15682D02*
X-119368Y15574D01*
X-120136Y15256D01*
X-120796Y14749D01*
X-121303Y14089D01*
X-121621Y13321D01*
X-121730Y12496D01*
X-121621Y11671D01*
X-121303Y10903D01*
X-120796Y10243D01*
X-120136Y9737D01*
X-119368Y9418D01*
X-118543Y9310D01*
X-117719Y9418D01*
X-116950Y9737D01*
X-116290Y10243D01*
X-115784Y10903D01*
X-115466Y11671D01*
X-115357Y12496D01*
X-115466Y13321D01*
X-115784Y14089D01*
X-116290Y14749D01*
X-116950Y15256D01*
X-117719Y15574D01*
X-118543Y15682D01*
D02*
G37*
G36*
X-125384Y20655D02*
X-131702D01*
Y14337D01*
X-125384D01*
Y20655D01*
D02*
G37*
G36*
X-153543Y29436D02*
X-154896Y29303D01*
X-156196Y28909D01*
X-157395Y28268D01*
X-158445Y27406D01*
X-159308Y26355D01*
X-159948Y25157D01*
X-160343Y23856D01*
X-160476Y22504D01*
X-160343Y21151D01*
X-159948Y19851D01*
X-159308Y18652D01*
X-158445Y17602D01*
X-157395Y16740D01*
X-156196Y16099D01*
X-154896Y15705D01*
X-153543Y15571D01*
X-152191Y15705D01*
X-150890Y16099D01*
X-149692Y16740D01*
X-148641Y17602D01*
X-147779Y18652D01*
X-147138Y19851D01*
X-146744Y21151D01*
X-146611Y22504D01*
X-146744Y23856D01*
X-147138Y25157D01*
X-147779Y26355D01*
X-148641Y27406D01*
X-149692Y28268D01*
X-150890Y28909D01*
X-152191Y29303D01*
X-153543Y29436D01*
D02*
G37*
%LPD*%
G36*
X-101196Y-2108D02*
Y-5659D01*
X-100340D01*
Y-9206D01*
X-101196D01*
Y-10358D01*
X-107369D01*
X-107798Y-10443D01*
X-107814Y-10453D01*
X-108132Y-10065D01*
X-105000Y-6933D01*
X-105000Y-6933D01*
X-104757Y-6569D01*
X-104672Y-6140D01*
X-104672Y-6140D01*
Y-1104D01*
X-104640Y-1082D01*
X-104286Y-553D01*
X-104162Y71D01*
X-104182Y170D01*
X-103721Y417D01*
X-101196Y-2108D01*
D02*
G37*
D10*
X-94297Y27000D02*
D03*
X-99218D02*
D03*
X-94297Y12800D02*
D03*
X-99218D02*
D03*
X-94297Y-3386D02*
D03*
X-99218D02*
D03*
X-94297Y-11479D02*
D03*
X-99218D02*
D03*
X-94297Y4707D02*
D03*
X-99218D02*
D03*
D11*
X-86764Y3923D02*
Y5268D01*
X-75247Y15441D02*
X-50832D01*
X-86764Y3923D02*
X-75247Y15441D01*
X-85998Y8122D02*
X-77080Y17041D01*
X-86764Y-3947D02*
Y3923D01*
X-50832Y15441D02*
X-46958Y11566D01*
Y-2648D02*
Y11566D01*
X-50169Y17041D02*
X-41396Y8268D01*
X-77080Y17041D02*
X-50169D01*
X-46958Y-2648D02*
X-41339Y-8268D01*
X-94297Y12800D02*
X-86764Y5268D01*
X-41396Y8268D02*
X-41339D01*
X-94297Y660D02*
X-90368D01*
X-94297D02*
Y4707D01*
X-31194Y-20457D02*
X-23850Y-13113D01*
X-49643Y-34333D02*
Y-24915D01*
Y-34333D02*
X-45000Y-38976D01*
X-49643Y-24915D02*
X-45186Y-20457D01*
X-31194D01*
X-39664Y-33764D02*
X-35000Y-38428D01*
X-39664Y-33764D02*
Y-24451D01*
X-37270Y-22057D01*
X-35000Y-38976D02*
Y-38428D01*
X-37270Y-22057D02*
X-30531D01*
X-23187Y-14713D01*
X-23850Y-13113D02*
X-22689D01*
X-23187Y-14713D02*
X-22027D01*
X-22689Y-13113D02*
X-19519Y-9943D01*
X-22027Y-14713D02*
X-17919Y-10605D01*
X-50220Y58506D02*
X-45812Y62913D01*
X-45000D01*
X-40279Y57635D02*
X-35000Y62913D01*
X-17919Y-10605D02*
Y-5161D01*
X-28169Y-985D02*
X-22096D01*
X-17919Y-5161D01*
X-28832Y-2585D02*
X-22758D01*
X-19519Y-5824D01*
Y-9943D02*
Y-5824D01*
X-118543Y-17504D02*
X-113394D01*
X-107369Y-11479D01*
X-99218D01*
X-25000Y-38976D02*
Y-38717D01*
X-128543Y-12504D02*
X-112157D01*
X-105793Y-6140D01*
Y71D01*
X-103163Y4415D02*
X-99511D01*
X-99218Y4707D01*
X-25000Y62913D02*
Y64966D01*
X-48620Y46322D02*
X-46672Y48270D01*
X-43077D01*
X-40279Y51068D01*
Y57635D01*
X-105263Y3545D02*
Y5284D01*
X-101696Y8852D01*
Y10671D01*
X-101696Y10671D02*
X-101696Y10671D01*
X-101696Y10671D02*
Y15341D01*
X-94297Y-3386D02*
Y660D01*
Y-11479D02*
X-86764Y-3947D01*
X-99218Y-3386D02*
Y-2500D01*
X-105263Y3545D02*
X-99218Y-2500D01*
Y-11479D02*
Y-3386D01*
Y4707D02*
Y12800D01*
Y15556D01*
X-101696Y15341D02*
X-99182Y17856D01*
X-97582Y32212D02*
X-94222Y28853D01*
X-99218Y15556D02*
X-97582Y17193D01*
Y22199D01*
X-94222Y25558D01*
X-97582Y32212D02*
Y66298D01*
X-90322Y73557D01*
X-33592D01*
X-25000Y64966D01*
X-94222Y25558D02*
Y28853D01*
X-99182Y66961D02*
X-90985Y75157D01*
X-27244D01*
X-15000Y62913D01*
X-99182Y17856D02*
Y66961D01*
X-33144Y3990D02*
X-28169Y-985D01*
X-48620Y28603D02*
Y46322D01*
Y28603D02*
X-33144Y13127D01*
Y3990D02*
Y13127D01*
X-50220Y27427D02*
Y58506D01*
X-34744Y3327D02*
X-28832Y-2585D01*
X-34744Y3327D02*
Y11951D01*
X-50220Y27427D02*
X-34744Y11951D01*
D12*
X-61357Y-28976D02*
X-55000D01*
X-63652Y-31271D02*
X-61357Y-28976D01*
X129208Y-21994D02*
X143328Y-7874D01*
X129208Y-57435D02*
Y-21994D01*
X-63652Y-55820D02*
Y-31271D01*
X143328Y-7874D02*
X161417D01*
X-55000Y-54458D02*
Y-38976D01*
X-76412Y-16357D02*
X-32893D01*
X-24803Y-8268D01*
X122608Y-54701D02*
Y5594D01*
X134888Y17874D01*
X161417D01*
X-45752Y-73720D02*
X112923D01*
X-42338Y-67120D02*
X110189D01*
X-55000Y-54458D02*
X-42338Y-67120D01*
X110189D02*
X122608Y-54701D01*
X-63652Y-55820D02*
X-45752Y-73720D01*
X112923D02*
X129208Y-57435D01*
D13*
X88674Y-32469D02*
Y55162D01*
X108273Y23285D02*
X114877Y29888D01*
X106874Y-40008D02*
Y25562D01*
X113038Y31727D01*
X105473Y-39428D02*
Y27839D01*
X111200Y33565D01*
X104074Y-38848D02*
Y30116D01*
X109362Y35403D01*
X102673Y32392D02*
X107523Y37242D01*
X101274Y-37688D02*
Y34670D01*
X105684Y39081D01*
X98331Y45586D02*
Y46434D01*
X99874Y36946D02*
X103846Y40919D01*
X96492Y47424D02*
Y48273D01*
X94274Y45206D02*
X96492Y47424D01*
X98474Y-36529D02*
Y39223D01*
X102007Y42757D01*
X94654Y49263D02*
Y50111D01*
X92874Y47483D02*
X94654Y49263D01*
X95674Y42929D02*
X98331Y45586D01*
X97074Y41500D02*
X100169Y44596D01*
X92815Y51101D02*
Y51950D01*
X91474Y49760D02*
X92815Y51101D01*
X90977Y52940D02*
Y53788D01*
X90074Y52037D02*
X90977Y52940D01*
X88674Y55162D02*
X89138Y55627D01*
X5000Y-28976D02*
X9713Y-33689D01*
Y-50302D02*
Y-33689D01*
X5000Y-52255D02*
Y-38976D01*
X-5000Y-28976D02*
X-90Y-33886D01*
Y-52912D02*
Y-33886D01*
X-5000Y-54356D02*
Y-38976D01*
X-15000Y-28976D02*
X-9926Y-34050D01*
Y-55509D02*
Y-34050D01*
X-15000Y-57177D02*
Y-38976D01*
X-20131Y-58369D02*
Y-33845D01*
X-25000Y-28976D02*
X-20131Y-33845D01*
X-25000Y-59367D02*
Y-38976D01*
X15000Y-48267D02*
Y-38976D01*
Y-28976D02*
X19943Y-33919D01*
Y-46856D02*
Y-33919D01*
X25000Y-45991D02*
Y-38976D01*
Y-28976D02*
X29850Y-33826D01*
Y-44595D02*
Y-33826D01*
X35000Y-43284D02*
Y-38976D01*
Y-28976D02*
X39972Y-33949D01*
Y-43459D02*
Y-33949D01*
X99874Y-37108D02*
Y36946D01*
X102673Y-38268D02*
Y32392D01*
X108273Y-40736D02*
Y23285D01*
X97074Y-35949D02*
Y41500D01*
X95674Y-35369D02*
Y42929D01*
X94274Y-34789D02*
Y45206D01*
X92874Y-34209D02*
Y47483D01*
X91474Y-33629D02*
Y49760D01*
X90074Y-33049D02*
Y52037D01*
X-21247Y-63120D02*
X85889D01*
X-16780Y-61720D02*
X85162D01*
X-11857Y-60320D02*
X84582D01*
X-6515Y-58920D02*
X84002D01*
X-1837Y-57520D02*
X83422D01*
X3118Y-56120D02*
X82842D01*
X7465Y-54720D02*
X82262D01*
X12730Y-53320D02*
X81682D01*
X18653Y-51920D02*
X81103D01*
X23606Y-50520D02*
X80523D01*
X28129Y-49120D02*
X79943D01*
X32975Y-47720D02*
X79363D01*
X38036Y-46320D02*
X78783D01*
X41432Y-44920D02*
X78203D01*
X39972Y-43459D02*
X41432Y-44920D01*
X78203D02*
X90074Y-33049D01*
X35000Y-43284D02*
X38036Y-46320D01*
X78783D02*
X91474Y-33629D01*
X29850Y-44595D02*
X32975Y-47720D01*
X79363D02*
X92874Y-34209D01*
X25000Y-45991D02*
X28129Y-49120D01*
X79943D02*
X94274Y-34789D01*
X19943Y-46856D02*
X23606Y-50520D01*
X80523D02*
X95674Y-35369D01*
X15000Y-48267D02*
X18653Y-51920D01*
X81103D02*
X97074Y-35949D01*
X9713Y-50302D02*
X12730Y-53320D01*
X81682D02*
X98474Y-36529D01*
X5000Y-52255D02*
X7465Y-54720D01*
X82262D02*
X99874Y-37108D01*
X-90Y-52912D02*
X3118Y-56120D01*
X82842D02*
X101274Y-37688D01*
X-5000Y-54356D02*
X-1837Y-57520D01*
X83422D02*
X102673Y-38268D01*
X-9926Y-55509D02*
X-6515Y-58920D01*
X84002D02*
X104074Y-38848D01*
X-15000Y-57177D02*
X-11857Y-60320D01*
X84582D02*
X105473Y-39428D01*
X-20131Y-58369D02*
X-16780Y-61720D01*
X85162D02*
X106874Y-40008D01*
X-25000Y-59367D02*
X-21247Y-63120D01*
X85889D02*
X108273Y-40736D01*
X77623Y-43520D02*
X88674Y-32469D01*
X45000Y62913D02*
X50039Y57875D01*
X54863Y23765D02*
X54891Y23793D01*
X39959Y-26883D02*
X44129Y-22714D01*
X65462Y23622D02*
X65462Y23622D01*
X64843Y24266D02*
X65462Y23622D01*
X64705Y24409D02*
X64843Y24266D01*
X64173Y24409D02*
X64705D01*
X50039Y39677D02*
Y57875D01*
Y39677D02*
X63860Y25289D01*
X64705Y24409D02*
X67414Y21701D01*
X44129Y-22714D02*
X64457D01*
X67414Y-19758D01*
Y21701D01*
X45000Y-31699D02*
Y-28976D01*
Y-31699D02*
X50125Y-36824D01*
X45000Y-38976D02*
Y-35915D01*
X42952Y-33920D02*
X43004D01*
X45000Y-35915D01*
X39959Y-30927D02*
X42952Y-33920D01*
X39959Y-30927D02*
Y-26883D01*
X63860Y25289D02*
X64450Y24675D01*
X64705Y24409D01*
X53118Y-43520D02*
X77623D01*
X50125Y-40527D02*
Y-36824D01*
Y-40527D02*
X53118Y-43520D01*
D14*
X131055Y-72904D02*
X130472Y-72321D01*
X129306D01*
X128723Y-72904D01*
Y-75237D01*
X129306Y-75820D01*
X130472D01*
X131055Y-75237D01*
X134554Y-72321D02*
X133388D01*
X133971D01*
Y-75237D01*
X133388Y-75820D01*
X132805D01*
X132222Y-75237D01*
X135721Y-72321D02*
Y-75820D01*
Y-74070D01*
X138053D01*
Y-72321D01*
Y-75820D01*
X143301Y-71738D02*
Y-72904D01*
X142718Y-73487D01*
X145051Y-75820D02*
X146217D01*
X145634D01*
Y-72321D01*
X145051Y-72904D01*
X147967Y-72321D02*
X150299D01*
Y-72904D01*
X147967Y-75237D01*
Y-75820D01*
D15*
X161417Y-54724D02*
D03*
X-161417D02*
D03*
X161417Y54724D02*
D03*
X-161417D02*
D03*
D16*
X-118543Y-17504D02*
D03*
X-128543Y-12504D02*
D03*
X-118543Y-7504D02*
D03*
X-128543Y-2504D02*
D03*
X-118543Y2496D02*
D03*
X-128543Y7496D02*
D03*
X-118543Y12496D02*
D03*
D17*
X-128543Y17496D02*
D03*
D18*
X55000Y-28976D02*
D03*
X45000D02*
D03*
X35000D02*
D03*
X25000D02*
D03*
X15000D02*
D03*
X5000D02*
D03*
X-5000D02*
D03*
X-15000D02*
D03*
X-25000D02*
D03*
X-35000D02*
D03*
X-45000D02*
D03*
X-55000D02*
D03*
X55000Y-38976D02*
D03*
X45000D02*
D03*
X35000D02*
D03*
X25000D02*
D03*
X15000D02*
D03*
X5000D02*
D03*
X-5000D02*
D03*
X-15000D02*
D03*
X-25000D02*
D03*
X-35000D02*
D03*
X-45000D02*
D03*
X45000Y62913D02*
D03*
X35000D02*
D03*
X25000D02*
D03*
X15000D02*
D03*
X5000D02*
D03*
X-5000D02*
D03*
X-15000D02*
D03*
X-25000D02*
D03*
X-35000D02*
D03*
X-45000D02*
D03*
X-55000D02*
D03*
X55000Y52913D02*
D03*
X45000D02*
D03*
X35000D02*
D03*
X25000D02*
D03*
X15000D02*
D03*
X5000D02*
D03*
X-5000D02*
D03*
X-15000D02*
D03*
X-25000D02*
D03*
X-35000D02*
D03*
X-45000D02*
D03*
X-55000D02*
D03*
D19*
Y-38976D02*
D03*
X55000Y62913D02*
D03*
D20*
X-59842Y6299D02*
D03*
X59842D02*
D03*
D21*
X41339Y8268D02*
D03*
X24803D02*
D03*
X8268D02*
D03*
X-8268D02*
D03*
X-24803D02*
D03*
X-41339D02*
D03*
X41339Y-8268D02*
D03*
X24803D02*
D03*
X8268D02*
D03*
X-8268D02*
D03*
X-24803D02*
D03*
X-41339D02*
D03*
D22*
X161417Y17874D02*
D03*
Y-7874D02*
D03*
D23*
Y7874D02*
D03*
Y-17874D02*
D03*
D24*
X-76412Y-16357D02*
D03*
D25*
X-85998Y8122D02*
D03*
X-90368Y660D02*
D03*
X114877Y29888D02*
D03*
X113038Y31727D02*
D03*
X111200Y33565D02*
D03*
X109362Y35403D02*
D03*
X107523Y37242D02*
D03*
X105684Y39081D02*
D03*
X103846Y40919D02*
D03*
X102007Y42757D02*
D03*
X100169Y44596D02*
D03*
X98331Y46434D02*
D03*
X96492Y48273D02*
D03*
X94654Y50111D02*
D03*
X92815Y51950D02*
D03*
X90977Y53788D02*
D03*
X89138Y55627D02*
D03*
X-105793Y71D02*
D03*
X-103163Y4415D02*
D03*
X-161250Y71000D02*
D03*
X-136250Y46000D02*
D03*
Y71000D02*
D03*
X-123750Y-29000D02*
D03*
X-111250Y-4000D02*
D03*
X-117500Y58500D02*
D03*
X-80000D02*
D03*
X-48750Y-54000D02*
D03*
X-36250Y-4000D02*
D03*
X120000Y58500D02*
D03*
X151250Y-29000D02*
D03*
X170000Y-41500D02*
D03*
X-180000Y-16500D02*
D03*
Y58500D02*
D03*
X-80000Y-66500D02*
D03*
X-67500D02*
D03*
X-61250Y-4000D02*
D03*
X1250Y71000D02*
D03*
X51250D02*
D03*
X138750Y-29000D02*
D03*
X157500Y33500D02*
D03*
X170000Y-16500D02*
D03*
Y8500D02*
D03*
X-167500Y-16500D02*
D03*
X-142500Y-66500D02*
D03*
Y-16500D02*
D03*
Y58500D02*
D03*
X-130000D02*
D03*
X-111250Y46000D02*
D03*
X-98750Y-54000D02*
D03*
X-86250Y46000D02*
D03*
X-92500Y58500D02*
D03*
X-55000Y33500D02*
D03*
X38750Y71000D02*
D03*
X70000Y58500D02*
D03*
X126250Y21000D02*
D03*
X138750Y-54000D02*
D03*
X176250D02*
D03*
X-173750Y71000D02*
D03*
X-161250Y-29000D02*
D03*
Y-4000D02*
D03*
X-167500Y8500D02*
D03*
X-148750Y71000D02*
D03*
X-136250Y21000D02*
D03*
X-130000Y-41500D02*
D03*
X-123750Y21000D02*
D03*
X-117500Y-66500D02*
D03*
Y33500D02*
D03*
X-111250Y71000D02*
D03*
X-105000Y-41500D02*
D03*
Y-16500D02*
D03*
Y58500D02*
D03*
X-86250Y-29000D02*
D03*
Y21000D02*
D03*
X-36250Y-54000D02*
D03*
X-42500Y33500D02*
D03*
X-36250Y71000D02*
D03*
X-23750Y21000D02*
D03*
X-5000Y33500D02*
D03*
X26250Y71000D02*
D03*
X63750Y-29000D02*
D03*
Y71000D02*
D03*
X76250Y-29000D02*
D03*
X82500Y58500D02*
D03*
X101250Y-54000D02*
D03*
Y71000D02*
D03*
X113750Y21000D02*
D03*
Y71000D02*
D03*
X120000Y33500D02*
D03*
X126250Y46000D02*
D03*
X145000Y-66500D02*
D03*
Y33500D02*
D03*
X163750Y71000D02*
D03*
X176250Y21000D02*
D03*
X170000Y33500D02*
D03*
X176250Y46000D02*
D03*
X-180000Y-66500D02*
D03*
Y-41500D02*
D03*
X-173750Y-29000D02*
D03*
Y-4000D02*
D03*
X-180000Y8500D02*
D03*
X-173750Y21000D02*
D03*
X-180000Y33500D02*
D03*
X-173750Y46000D02*
D03*
X-167500Y-41500D02*
D03*
Y33500D02*
D03*
X-155000Y-41500D02*
D03*
X-148750Y-29000D02*
D03*
Y-4000D02*
D03*
X-155000Y8500D02*
D03*
Y33500D02*
D03*
X-148750Y46000D02*
D03*
X-136250Y-54000D02*
D03*
X-142500Y-41500D02*
D03*
X-136250Y-29000D02*
D03*
Y-4000D02*
D03*
X-142500Y8500D02*
D03*
Y33500D02*
D03*
X-130000Y-66500D02*
D03*
X-123750Y-54000D02*
D03*
X-130000Y-16500D02*
D03*
X-123750Y-4000D02*
D03*
X-130000Y33500D02*
D03*
X-123750Y46000D02*
D03*
Y71000D02*
D03*
X-111250Y-54000D02*
D03*
X-117500Y-41500D02*
D03*
X-111250Y-29000D02*
D03*
Y21000D02*
D03*
X-105000Y-66500D02*
D03*
X-98750Y-29000D02*
D03*
X-105000Y33500D02*
D03*
X-98750Y71000D02*
D03*
X-92500Y-66500D02*
D03*
X-86250Y-54000D02*
D03*
X-92500Y-41500D02*
D03*
Y-16500D02*
D03*
Y33500D02*
D03*
X-86250Y71000D02*
D03*
X-73750Y-54000D02*
D03*
X-80000Y-41500D02*
D03*
X-73750Y71000D02*
D03*
X-61250Y21000D02*
D03*
Y71000D02*
D03*
X-48750D02*
D03*
X-36250Y21000D02*
D03*
Y46000D02*
D03*
X-30000Y-41500D02*
D03*
Y33500D02*
D03*
X-11250Y46000D02*
D03*
Y71000D02*
D03*
X13750D02*
D03*
X70000Y-16500D02*
D03*
X76250Y-4000D02*
D03*
X70000Y8500D02*
D03*
X76250Y21000D02*
D03*
Y71000D02*
D03*
X82500Y-16500D02*
D03*
Y8500D02*
D03*
X88750Y71000D02*
D03*
X95000Y58500D02*
D03*
X113750Y-54000D02*
D03*
Y-29000D02*
D03*
Y-4000D02*
D03*
Y46000D02*
D03*
X107500Y58500D02*
D03*
X126250Y71000D02*
D03*
X132500Y-66500D02*
D03*
X138750Y-4000D02*
D03*
X132500Y8500D02*
D03*
Y33500D02*
D03*
X138750Y46000D02*
D03*
X132500Y58500D02*
D03*
X138750Y71000D02*
D03*
X145000Y-41500D02*
D03*
Y-16500D02*
D03*
Y8500D02*
D03*
Y58500D02*
D03*
X151250Y71000D02*
D03*
X163750Y-29000D02*
D03*
X170000Y-66500D02*
D03*
X176250Y-29000D02*
D03*
Y-4000D02*
D03*
Y71000D02*
D03*
D26*
X64173Y24409D02*
D03*
D27*
X-14921D02*
X64165D01*
M02*
