G04 Layer_Color=8388736*
%FSLAX25Y25*%
%MOIN*%
G70*
G01*
G75*
%ADD31R,0.03156X0.03747*%
%ADD32C,0.25400*%
%ADD33C,0.05518*%
%ADD34R,0.05518X0.05518*%
%ADD35C,0.00400*%
%ADD36C,0.07487*%
%ADD37R,0.07487X0.07487*%
%ADD38C,0.12211*%
%ADD39C,0.07880*%
%ADD40C,0.06305*%
%ADD41R,0.06305X0.06305*%
%ADD42C,0.04400*%
D31*
X-94297Y27000D02*
D03*
X-99218D02*
D03*
X-94297Y12800D02*
D03*
X-99218D02*
D03*
X-94297Y-3386D02*
D03*
X-99218D02*
D03*
X-94297Y-11479D02*
D03*
X-99218D02*
D03*
X-94297Y4707D02*
D03*
X-99218D02*
D03*
D32*
X161417Y-54724D02*
D03*
X-161417D02*
D03*
X161417Y54724D02*
D03*
X-161417D02*
D03*
D33*
X-118543Y-17504D02*
D03*
X-128543Y-12504D02*
D03*
X-118543Y-7504D02*
D03*
X-128543Y-2504D02*
D03*
X-118543Y2496D02*
D03*
X-128543Y7496D02*
D03*
X-118543Y12496D02*
D03*
D34*
X-128543Y17496D02*
D03*
D35*
X-153543Y-22504D02*
D03*
Y22504D02*
D03*
D36*
X55000Y-28976D02*
D03*
X45000D02*
D03*
X35000D02*
D03*
X25000D02*
D03*
X15000D02*
D03*
X5000D02*
D03*
X-5000D02*
D03*
X-15000D02*
D03*
X-25000D02*
D03*
X-35000D02*
D03*
X-45000D02*
D03*
X-55000D02*
D03*
X55000Y-38976D02*
D03*
X45000D02*
D03*
X35000D02*
D03*
X25000D02*
D03*
X15000D02*
D03*
X5000D02*
D03*
X-5000D02*
D03*
X-15000D02*
D03*
X-25000D02*
D03*
X-35000D02*
D03*
X-45000D02*
D03*
X45000Y62913D02*
D03*
X35000D02*
D03*
X25000D02*
D03*
X15000D02*
D03*
X5000D02*
D03*
X-5000D02*
D03*
X-15000D02*
D03*
X-25000D02*
D03*
X-35000D02*
D03*
X-45000D02*
D03*
X-55000D02*
D03*
X55000Y52913D02*
D03*
X45000D02*
D03*
X35000D02*
D03*
X25000D02*
D03*
X15000D02*
D03*
X5000D02*
D03*
X-5000D02*
D03*
X-15000D02*
D03*
X-25000D02*
D03*
X-35000D02*
D03*
X-45000D02*
D03*
X-55000D02*
D03*
D37*
Y-38976D02*
D03*
X55000Y62913D02*
D03*
D38*
X-59842Y6299D02*
D03*
X59842D02*
D03*
D39*
X41339Y8268D02*
D03*
X24803D02*
D03*
X8268D02*
D03*
X-8268D02*
D03*
X-24803D02*
D03*
X-41339D02*
D03*
X41339Y-8268D02*
D03*
X24803D02*
D03*
X8268D02*
D03*
X-8268D02*
D03*
X-24803D02*
D03*
X-41339D02*
D03*
D40*
X161417Y17874D02*
D03*
Y-7874D02*
D03*
D41*
Y7874D02*
D03*
Y-17874D02*
D03*
D42*
X64173Y24409D02*
D03*
M02*
