M48
;Layer_Color=9474304
;FILE_FORMAT=2:5
INCH,LZ
;TYPE=PLATED
T1F00S00C0.01000
T2F00S00C0.02000
T3F00S00C0.03150
T4F00S00C0.03543
T5F00S00C0.04016
T6F00S00C0.05512
T7F00S00C0.12500
;TYPE=NON_PLATED
T8F00S00C0.11811
T9F00S00C0.12598
%
T01
X010125Y-0054
X011375
X013875
X0145Y-00665
X01325
X0145Y-00415
X015125Y-0029
X013875
X0145Y-00165
X017
X016375Y-0029
X017625
X017Y-00415
X017625Y-0054
X017Y-00665
X011375Y-0029
X007625
X006375
X007Y-00165
X00825
X-003Y-00415
X-003625Y-0054
X-004875
X-00675Y-00665
X-008
X-00925
X-0105
X-01175
X-013
X-01425
X-013625Y-0054
X-012375
X-011125
X-009875
X-008625
X-007375
X-008Y-00415
X-00925
X-0105
X-01175
X-013
X-01425
X-0155
X-01675
X-018
X-017375Y-0029
X-016125
X-014875
X-013625
X-012375
X-011125
X-009875
X-008625
X-00925Y-00165
X-0105
X-013
X-01425
X-01675
X-018
Y-00665
X-017375Y-0004
X-016125
X-014875
X-013625
X-012375
X-011125
X-0105793Y0000071
X-0103163Y0004415
X-0090368Y000066
X-0085998Y0008122
X-008625Y0021
X-00925Y00335
X-0105
X-01175
X-013
X-01425
X-0155
X-01675
X-018
X-017375Y0021
X-01675Y00085
X-018
X-0155
X-01425
X-013625Y0021
X-012375
X-011125
Y0046
X-012375
X-013625
X-014875
X-01425Y00585
X-013
X-01175
X-0105
X-00925
X-008
X-008625Y0046
Y0071
X-009875
X-011125
X-012375
X-013625
X-014875
X-016125
X-017375
X-018Y00585
X-017375Y0046
X-007375Y0071
X-006125
X-004875
X-003625
Y0046
X-00425Y00335
X-0055
X-006125Y0021
Y-0004
X-003625
Y0021
X-002375
X-003Y00335
X-0005
X-001125Y0046
Y0071
X000125
X001375
X002625
X003875
X005125
X006375
X007625
X007Y00585
X00825
X007625Y0021
X007Y00085
X00825
X007625Y-0004
X011375
Y0021
X0114877Y0029888
X0113038Y0031727
X01112Y0033565
X0109362Y0035403
X0107523Y0037242
X0105684Y0039081
X0103846Y0040919
X0102007Y0042757
X0100169Y0044596
X0098331Y0046434
X0096492Y0048273
X0094654Y0050111
X0092815Y005195
X0090977Y0053788
X0089138Y0055627
X0095Y00585
X01075
X012
X01325
X0145
X013875Y0046
X012625
X011375
X012Y00335
X01325
X0145
X01575
X017
X017625Y0021
X017Y00085
X017625Y-0004
X013875
X01325Y00085
X0145
X012625Y0021
Y0071
X011375
X010125
X008875
X013875
X015125
X016375
X017625
Y0046
T02
X-0076412Y-0016357
X0064173Y0024409
T03
X-0128543Y-0012504
X-0118543Y-0017504
Y-0007504
Y0002496
Y0012496
X-0128543Y0007496
Y-0002504
Y0017496
T04
X0161417Y-0017874
Y-0007874
Y0007874
Y0017874
T05
X-0055Y-0038976
Y-0028976
X-0045
X-0035
X-0025
X-0015
X-0005
X0005
X0015
X0025
X0035
X0045
X0055
Y-0038976
X0045
X0035
X0025
X0015
X0005
X-0005
X-0015
X-0025
X-0035
X-0045
Y0052913
Y0062913
X-0035
X-0025
X-0015
X-0005
X0005
X0015
X0025
X0035
X0045
X0055
Y0052913
X0045
X0035
X0025
X0015
X0005
X-0005
X-0015
X-0025
X-0035
X-0055
Y0062913
T06
X-0041339Y-0008268
X-0024803
X-0008268
X0008268
X0024803
X0041339
Y0008268
X0024803
X0008268
X-0008268
X-0024803
X-0041339
T07
X0161417Y-0054724
X-0161417
Y0054724
X0161417
T08
X-0059842Y0006299
X0059842
T09
X-0153543Y-0022504
Y0022504
M30
