G75*
%MOIN*%
%OFA0B0*%
%FSLAX25Y25*%
%IPPOS*%
%LPD*%
%AMOC8*
5,1,8,0,0,1.08239X$1,22.5*
%
%ADD10C,0.00567*%
D10*
X0007937Y0048945D02*
X0013039Y0048945D01*
X0013039Y0043055D01*
X0007937Y0043055D01*
X0007937Y0048945D01*
X0007937Y0043621D02*
X0013039Y0043621D01*
X0013039Y0044187D02*
X0007937Y0044187D01*
X0007937Y0044753D02*
X0013039Y0044753D01*
X0013039Y0045319D02*
X0007937Y0045319D01*
X0007937Y0045885D02*
X0013039Y0045885D01*
X0013039Y0046451D02*
X0007937Y0046451D01*
X0007937Y0047017D02*
X0013039Y0047017D01*
X0013039Y0047583D02*
X0007937Y0047583D01*
X0007937Y0048149D02*
X0013039Y0048149D01*
X0013039Y0048715D02*
X0007937Y0048715D01*
X0018961Y0048945D02*
X0024063Y0048945D01*
X0024063Y0043055D01*
X0018961Y0043055D01*
X0018961Y0048945D01*
X0018961Y0043621D02*
X0024063Y0043621D01*
X0024063Y0044187D02*
X0018961Y0044187D01*
X0018961Y0044753D02*
X0024063Y0044753D01*
X0024063Y0045319D02*
X0018961Y0045319D01*
X0018961Y0045885D02*
X0024063Y0045885D01*
X0024063Y0046451D02*
X0018961Y0046451D01*
X0018961Y0047017D02*
X0024063Y0047017D01*
X0024063Y0047583D02*
X0018961Y0047583D01*
X0018961Y0048149D02*
X0024063Y0048149D01*
X0024063Y0048715D02*
X0018961Y0048715D01*
X0018961Y0063945D02*
X0024063Y0063945D01*
X0024063Y0058055D01*
X0018961Y0058055D01*
X0018961Y0063945D01*
X0018961Y0058621D02*
X0024063Y0058621D01*
X0024063Y0059187D02*
X0018961Y0059187D01*
X0018961Y0059753D02*
X0024063Y0059753D01*
X0024063Y0060319D02*
X0018961Y0060319D01*
X0018961Y0060885D02*
X0024063Y0060885D01*
X0024063Y0061451D02*
X0018961Y0061451D01*
X0018961Y0062017D02*
X0024063Y0062017D01*
X0024063Y0062583D02*
X0018961Y0062583D01*
X0018961Y0063149D02*
X0024063Y0063149D01*
X0024063Y0063715D02*
X0018961Y0063715D01*
X0013039Y0063945D02*
X0007937Y0063945D01*
X0013039Y0063945D02*
X0013039Y0058055D01*
X0007937Y0058055D01*
X0007937Y0063945D01*
X0007937Y0058621D02*
X0013039Y0058621D01*
X0013039Y0059187D02*
X0007937Y0059187D01*
X0007937Y0059753D02*
X0013039Y0059753D01*
X0013039Y0060319D02*
X0007937Y0060319D01*
X0007937Y0060885D02*
X0013039Y0060885D01*
X0013039Y0061451D02*
X0007937Y0061451D01*
X0007937Y0062017D02*
X0013039Y0062017D01*
X0013039Y0062583D02*
X0007937Y0062583D01*
X0007937Y0063149D02*
X0013039Y0063149D01*
X0013039Y0063715D02*
X0007937Y0063715D01*
X0007937Y0078945D02*
X0013039Y0078945D01*
X0013039Y0073055D01*
X0007937Y0073055D01*
X0007937Y0078945D01*
X0007937Y0073621D02*
X0013039Y0073621D01*
X0013039Y0074187D02*
X0007937Y0074187D01*
X0007937Y0074753D02*
X0013039Y0074753D01*
X0013039Y0075319D02*
X0007937Y0075319D01*
X0007937Y0075885D02*
X0013039Y0075885D01*
X0013039Y0076451D02*
X0007937Y0076451D01*
X0007937Y0077017D02*
X0013039Y0077017D01*
X0013039Y0077583D02*
X0007937Y0077583D01*
X0007937Y0078149D02*
X0013039Y0078149D01*
X0013039Y0078715D02*
X0007937Y0078715D01*
X0018961Y0078945D02*
X0024063Y0078945D01*
X0024063Y0073055D01*
X0018961Y0073055D01*
X0018961Y0078945D01*
X0018961Y0073621D02*
X0024063Y0073621D01*
X0024063Y0074187D02*
X0018961Y0074187D01*
X0018961Y0074753D02*
X0024063Y0074753D01*
X0024063Y0075319D02*
X0018961Y0075319D01*
X0018961Y0075885D02*
X0024063Y0075885D01*
X0024063Y0076451D02*
X0018961Y0076451D01*
X0018961Y0077017D02*
X0024063Y0077017D01*
X0024063Y0077583D02*
X0018961Y0077583D01*
X0018961Y0078149D02*
X0024063Y0078149D01*
X0024063Y0078715D02*
X0018961Y0078715D01*
X0018961Y0093945D02*
X0024063Y0093945D01*
X0024063Y0088055D01*
X0018961Y0088055D01*
X0018961Y0093945D01*
X0018961Y0088621D02*
X0024063Y0088621D01*
X0024063Y0089187D02*
X0018961Y0089187D01*
X0018961Y0089753D02*
X0024063Y0089753D01*
X0024063Y0090319D02*
X0018961Y0090319D01*
X0018961Y0090885D02*
X0024063Y0090885D01*
X0024063Y0091451D02*
X0018961Y0091451D01*
X0018961Y0092017D02*
X0024063Y0092017D01*
X0024063Y0092583D02*
X0018961Y0092583D01*
X0018961Y0093149D02*
X0024063Y0093149D01*
X0024063Y0093715D02*
X0018961Y0093715D01*
X0013039Y0093945D02*
X0007937Y0093945D01*
X0013039Y0093945D02*
X0013039Y0088055D01*
X0007937Y0088055D01*
X0007937Y0093945D01*
X0007937Y0088621D02*
X0013039Y0088621D01*
X0013039Y0089187D02*
X0007937Y0089187D01*
X0007937Y0089753D02*
X0013039Y0089753D01*
X0013039Y0090319D02*
X0007937Y0090319D01*
X0007937Y0090885D02*
X0013039Y0090885D01*
X0013039Y0091451D02*
X0007937Y0091451D01*
X0007937Y0092017D02*
X0013039Y0092017D01*
X0013039Y0092583D02*
X0007937Y0092583D01*
X0007937Y0093149D02*
X0013039Y0093149D01*
X0013039Y0093715D02*
X0007937Y0093715D01*
X0007937Y0108945D02*
X0013039Y0108945D01*
X0013039Y0103055D01*
X0007937Y0103055D01*
X0007937Y0108945D01*
X0007937Y0103621D02*
X0013039Y0103621D01*
X0013039Y0104187D02*
X0007937Y0104187D01*
X0007937Y0104753D02*
X0013039Y0104753D01*
X0013039Y0105319D02*
X0007937Y0105319D01*
X0007937Y0105885D02*
X0013039Y0105885D01*
X0013039Y0106451D02*
X0007937Y0106451D01*
X0007937Y0107017D02*
X0013039Y0107017D01*
X0013039Y0107583D02*
X0007937Y0107583D01*
X0007937Y0108149D02*
X0013039Y0108149D01*
X0013039Y0108715D02*
X0007937Y0108715D01*
X0018961Y0108945D02*
X0024063Y0108945D01*
X0024063Y0103055D01*
X0018961Y0103055D01*
X0018961Y0108945D01*
X0018961Y0103621D02*
X0024063Y0103621D01*
X0024063Y0104187D02*
X0018961Y0104187D01*
X0018961Y0104753D02*
X0024063Y0104753D01*
X0024063Y0105319D02*
X0018961Y0105319D01*
X0018961Y0105885D02*
X0024063Y0105885D01*
X0024063Y0106451D02*
X0018961Y0106451D01*
X0018961Y0107017D02*
X0024063Y0107017D01*
X0024063Y0107583D02*
X0018961Y0107583D01*
X0018961Y0108149D02*
X0024063Y0108149D01*
X0024063Y0108715D02*
X0018961Y0108715D01*
X0057937Y0133945D02*
X0063039Y0133945D01*
X0063039Y0128055D01*
X0057937Y0128055D01*
X0057937Y0133945D01*
X0057937Y0128621D02*
X0063039Y0128621D01*
X0063039Y0129187D02*
X0057937Y0129187D01*
X0057937Y0129753D02*
X0063039Y0129753D01*
X0063039Y0130319D02*
X0057937Y0130319D01*
X0057937Y0130885D02*
X0063039Y0130885D01*
X0063039Y0131451D02*
X0057937Y0131451D01*
X0057937Y0132017D02*
X0063039Y0132017D01*
X0063039Y0132583D02*
X0057937Y0132583D01*
X0057937Y0133149D02*
X0063039Y0133149D01*
X0063039Y0133715D02*
X0057937Y0133715D01*
X0068961Y0133945D02*
X0074063Y0133945D01*
X0074063Y0128055D01*
X0068961Y0128055D01*
X0068961Y0133945D01*
X0068961Y0128621D02*
X0074063Y0128621D01*
X0074063Y0129187D02*
X0068961Y0129187D01*
X0068961Y0129753D02*
X0074063Y0129753D01*
X0074063Y0130319D02*
X0068961Y0130319D01*
X0068961Y0130885D02*
X0074063Y0130885D01*
X0074063Y0131451D02*
X0068961Y0131451D01*
X0068961Y0132017D02*
X0074063Y0132017D01*
X0074063Y0132583D02*
X0068961Y0132583D01*
X0068961Y0133149D02*
X0074063Y0133149D01*
X0074063Y0133715D02*
X0068961Y0133715D01*
X0097937Y0133945D02*
X0103039Y0133945D01*
X0103039Y0128055D01*
X0097937Y0128055D01*
X0097937Y0133945D01*
X0097937Y0128621D02*
X0103039Y0128621D01*
X0103039Y0129187D02*
X0097937Y0129187D01*
X0097937Y0129753D02*
X0103039Y0129753D01*
X0103039Y0130319D02*
X0097937Y0130319D01*
X0097937Y0130885D02*
X0103039Y0130885D01*
X0103039Y0131451D02*
X0097937Y0131451D01*
X0097937Y0132017D02*
X0103039Y0132017D01*
X0103039Y0132583D02*
X0097937Y0132583D01*
X0097937Y0133149D02*
X0103039Y0133149D01*
X0103039Y0133715D02*
X0097937Y0133715D01*
X0108961Y0133945D02*
X0114063Y0133945D01*
X0114063Y0128055D01*
X0108961Y0128055D01*
X0108961Y0133945D01*
X0108961Y0128621D02*
X0114063Y0128621D01*
X0114063Y0129187D02*
X0108961Y0129187D01*
X0108961Y0129753D02*
X0114063Y0129753D01*
X0114063Y0130319D02*
X0108961Y0130319D01*
X0108961Y0130885D02*
X0114063Y0130885D01*
X0114063Y0131451D02*
X0108961Y0131451D01*
X0108961Y0132017D02*
X0114063Y0132017D01*
X0114063Y0132583D02*
X0108961Y0132583D01*
X0108961Y0133149D02*
X0114063Y0133149D01*
X0114063Y0133715D02*
X0108961Y0133715D01*
X0137937Y0128055D02*
X0143039Y0128055D01*
X0137937Y0128055D02*
X0137937Y0133945D01*
X0143039Y0133945D01*
X0143039Y0128055D01*
X0143039Y0128621D02*
X0137937Y0128621D01*
X0137937Y0129187D02*
X0143039Y0129187D01*
X0143039Y0129753D02*
X0137937Y0129753D01*
X0137937Y0130319D02*
X0143039Y0130319D01*
X0143039Y0130885D02*
X0137937Y0130885D01*
X0137937Y0131451D02*
X0143039Y0131451D01*
X0143039Y0132017D02*
X0137937Y0132017D01*
X0137937Y0132583D02*
X0143039Y0132583D01*
X0143039Y0133149D02*
X0137937Y0133149D01*
X0137937Y0133715D02*
X0143039Y0133715D01*
X0148961Y0128055D02*
X0154063Y0128055D01*
X0148961Y0128055D02*
X0148961Y0133945D01*
X0154063Y0133945D01*
X0154063Y0128055D01*
X0154063Y0128621D02*
X0148961Y0128621D01*
X0148961Y0129187D02*
X0154063Y0129187D01*
X0154063Y0129753D02*
X0148961Y0129753D01*
X0148961Y0130319D02*
X0154063Y0130319D01*
X0154063Y0130885D02*
X0148961Y0130885D01*
X0148961Y0131451D02*
X0154063Y0131451D01*
X0154063Y0132017D02*
X0148961Y0132017D01*
X0148961Y0132583D02*
X0154063Y0132583D01*
X0154063Y0133149D02*
X0148961Y0133149D01*
X0148961Y0133715D02*
X0154063Y0133715D01*
M02*
