G75*
%MOIN*%
%OFA0B0*%
%FSLAX25Y25*%
%IPPOS*%
%LPD*%
%AMOC8*
5,1,8,0,0,1.08239X$1,22.5*
%
%ADD10C,0.00800*%
%ADD11C,0.00500*%
%ADD12R,1.37795X0.35433*%
D10*
X0106000Y0008500D02*
X0108500Y0006000D01*
X0113500Y0006000D01*
X0116000Y0008500D01*
X0118500Y0006000D01*
X0123500Y0006000D01*
X0126000Y0008500D01*
X0128500Y0006000D01*
X0133500Y0006000D01*
X0136000Y0008500D01*
X0138500Y0006000D01*
X0143500Y0006000D01*
X0146000Y0008500D01*
X0148500Y0006000D01*
X0153500Y0006000D01*
X0156000Y0008500D01*
X0158500Y0006000D01*
X0163500Y0006000D01*
X0166000Y0008500D01*
X0168500Y0006000D01*
X0173500Y0006000D01*
X0176000Y0008500D01*
X0176000Y0013500D01*
X0173500Y0016000D01*
X0168500Y0016000D01*
X0166000Y0013500D01*
X0163500Y0016000D01*
X0158500Y0016000D01*
X0156000Y0013500D01*
X0153500Y0016000D01*
X0148500Y0016000D01*
X0146000Y0013500D01*
X0143500Y0016000D01*
X0138500Y0016000D01*
X0136000Y0013500D01*
X0133500Y0016000D01*
X0128500Y0016000D01*
X0126000Y0013500D01*
X0123500Y0016000D01*
X0118500Y0016000D01*
X0116000Y0013500D01*
X0113500Y0016000D01*
X0108500Y0016000D01*
X0106000Y0013500D01*
X0106000Y0008500D01*
D11*
X0031000Y0026000D02*
X0193992Y0026000D01*
X0193992Y0121669D01*
X0031000Y0121669D01*
X0031000Y0026000D01*
D12*
X0111709Y0087024D03*
M02*
